<svg xmlns="http://www.w3.org/2000/svg" xml:lang="en" height="147.54999999999998pt" width="364.88199999999995pt" viewBox="-342.90199999999993 -20.0 364.88199999999995 147.54999999999998"><circle cx="-7.451999999999999" cy="68.34375" r="3.888" style="stroke:black;fill:none;stroke-width:2;" /><circle cx="-216.26999999999998" cy="-0.0" r="3.888" style="stroke:black;fill:none;stroke-width:2;" /><circle cx="-201.852" cy="36.449999999999996" r="3.888" style="stroke:black;fill:none;stroke-width:2;" /><circle cx="-281.07" cy="24.299999999999997" r="3.888" style="stroke:black;fill:none;stroke-width:2;" /><circle cx="-151.47" cy="60.75" r="3.888" style="stroke:black;fill:none;stroke-width:2;" /><circle cx="-72.252" cy="97.19999999999999" r="3.888" style="stroke:black;fill:none;stroke-width:2;" /><circle cx="-151.47" cy="85.05" r="3.888" style="stroke:black;fill:none;stroke-width:2;" /><circle cx="-151.47" cy="109.35" r="3.888" style="stroke:black;fill:none;stroke-width:2;" /><path d="M -27.540000000000003,84.54375 L -26.502062436312453,84.51046536255545 L -25.468389980711006,84.4107482239366 L -24.44323021503777,84.24500834325525 L -23.43079574066598,84.01392678123227 L -22.435246868017344,83.71845310157283 L -21.46067452095414,83.35980146900555 L -20.51108342629556,82.93944566001919 L -19.59037565753621,82.4591130067989 L -18.70233460038911,81.92077729924782 L -17.85060940604231,81.32665067426089 L -17.038699996013825,80.67917452557998 L -16.26994268022353,79.98100947158318 L -15.547496447379892,79.23502442223334 L -14.874329984017924,78.44428479011148 L -14.25320947552931,77.61203989397914 L -13.686687239313398,76.74170960663051 L -13.177091236757398,75.83687030190153 L -12.726515507143835,74.90124015858278 L -12.336811562793878,73.93866388162517 L -12.009580780806093,72.95309690342272 L -11.746167822654462,71.94858913009229 L -11.547655108685907,70.92926829954074 L -11.41485837022299,69.89932301970444 L -11.348323297548863,68.86298555666082 L -11.348323297548863,67.82451444333918 L -11.41485837022299,66.78817698029555 L -11.547655108685907,65.75823170045926 L -11.746167822654462,64.7389108699077 L -12.009580780806093,63.734403096577275 L -12.336811562793878,62.74883611837481 L -12.726515507143835,61.78625984141722 L -13.177091236757398,60.850629698098466 L -13.686687239313398,59.945790393369485 L -14.25320947552931,59.07546010602085 L -14.874329984017924,58.24321520988852 L -15.547496447379892,57.45247557776667 L -16.269942680223522,56.70649052841681 L -17.038699996013825,56.00832547442002 L -17.850609406042295,55.3608493257391 L -18.70233460038911,54.76672270075218 L -19.59037565753621,54.22838699320109 L -20.51108342629556,53.74805433998081 L -21.46067452095414,53.32769853099445 L -22.435246868017344,52.96904689842716 L -23.43079574066598,52.67357321876772 L -24.44323021503777,52.44249165674474 L -25.468389980710995,52.27675177606341 L -26.502062436312446,52.17703463744455 L -27.540000000000003,52.14375 L -27.540000000000003,52.14375 L -48.599999999999994,52.14375 L -48.599999999999994,68.34375 L -48.599999999999994,84.54375 L -27.540000000000003,84.54375" style="stroke:black;fill:none;stroke-width:2;stroke-linecap:round;stroke-linejoin:round;" /><path d="M -59.94,76.44375 L -48.599999999999994,76.44375" style="stroke:black;fill:none;stroke-width:2;stroke-linecap:round;stroke-linejoin:round;" /><path d="M -59.94,60.24375 L -48.599999999999994,60.24375" style="stroke:black;fill:none;stroke-width:2;stroke-linecap:round;stroke-linejoin:round;" /><path d="M -3.564000000000003,68.34375 L 0.0,68.34375" style="stroke:black;fill:none;stroke-width:2;stroke-linecap:round;stroke-linejoin:round;" /><path d="M -92.34,55.6875 L -91.30206243631245,55.65421536255545 L -90.26838998071099,55.554498223936584 L -89.24323021503777,55.388758343255255 L -88.23079574066598,55.157676781232276 L -87.23524686801734,54.86220310157283 L -86.26067452095414,54.50355146900555 L -85.31108342629555,54.083195660019186 L -84.39037565753621,53.602863006798906 L -83.5023346003891,53.06452729924782 L -82.6506094060423,52.4704006742609 L -81.83869999601382,51.82292452557998 L -81.06994268022352,51.12475947158318 L -80.34749644737988,50.378774422233334 L -79.67432998401792,49.58803479011148 L -79.0532094755293,48.75578989397915 L -78.4866872393134,47.885459606630505 L -77.9770912367574,46.98062030190153 L -77.52651550714383,46.04499015858278 L -77.13681156279388,45.08241388162518 L -76.80958078080609,44.09684690342272 L -76.54616782265445,43.09233913009229 L -76.3476551086859,42.073018299540735 L -76.21485837022298,41.043073019704444 L -76.14832329754886,40.006735556660814 L -76.14832329754886,38.96826444333919 L -76.21485837022298,37.93192698029556 L -76.3476551086859,36.90198170045926 L -76.54616782265445,35.8826608699077 L -76.80958078080609,34.87815309657727 L -77.13681156279388,33.892586118374815 L -77.52651550714383,32.93000984141722 L -77.9770912367574,31.994379698098466 L -78.4866872393134,31.089540393369493 L -79.0532094755293,30.219210106020853 L -79.67432998401792,29.38696520988852 L -80.34749644737988,28.59622557776667 L -81.0699426802235,27.850240528416812 L -81.83869999601382,27.152075474420023 L -82.65060940604229,26.5045993257391 L -83.5023346003891,25.910472700752184 L -84.39037565753621,25.37213699320109 L -85.31108342629555,24.891804339980812 L -86.26067452095414,24.471448530994447 L -87.23524686801734,24.112796898427167 L -88.23079574066598,23.817323218767722 L -89.24323021503777,23.58624165674474 L -90.26838998071099,23.420501776063414 L -91.30206243631245,23.32078463744455 L -92.34,23.287499999999998 L -92.34,23.287499999999998 L -113.39999999999999,23.287499999999998 L -113.39999999999999,39.4875 L -113.39999999999999,55.6875 L -92.34,55.6875" style="stroke:black;fill:none;stroke-width:2;stroke-linecap:round;stroke-linejoin:round;" /><path d="M -124.74,47.5875 L -113.39999999999999,47.5875" style="stroke:black;fill:none;stroke-width:2;stroke-linecap:round;stroke-linejoin:round;" /><path d="M -124.74,31.3875 L -113.39999999999999,31.3875" style="stroke:black;fill:none;stroke-width:2;stroke-linecap:round;stroke-linejoin:round;" /><path d="M -76.14,39.4875 L -64.8,39.4875" style="stroke:black;fill:none;stroke-width:2;stroke-linecap:round;stroke-linejoin:round;" /><path d="M -157.14,34.425 L -156.10206243631245,34.391715362555445 L -155.068389980711,34.29199822393659 L -154.04323021503777,34.12625834325526 L -153.03079574066598,33.89517678123227 L -152.0352468680173,33.599703101572835 L -151.06067452095414,33.24105146900555 L -150.11108342629555,32.82069566001919 L -149.1903756575362,32.34036300679891 L -148.30233460038912,31.80202729924782 L -147.4506094060423,31.207900674260898 L -146.63869999601383,30.560424525579975 L -145.86994268022352,29.862259471583187 L -145.1474964473799,29.11627442223333 L -144.4743299840179,28.32553479011148 L -143.85320947552933,27.493289893979146 L -143.28668723931338,26.622959606630506 L -142.77709123675737,25.71812030190153 L -142.32651550714382,24.78249015858278 L -141.93681156279388,23.819913881625187 L -141.60958078080608,22.834346903422727 L -141.34616782265445,21.829839130092292 L -141.1476551086859,20.810518299540743 L -141.01485837022298,19.780573019704445 L -140.94832329754885,18.744235556660815 L -140.94832329754885,17.705764443339188 L -141.01485837022298,16.669426980295558 L -141.1476551086859,15.639481700459259 L -141.34616782265445,14.620160869907707 L -141.60958078080608,13.615653096577274 L -141.93681156279388,12.630086118374816 L -142.32651550714382,11.667509841417221 L -142.77709123675737,10.73187969809847 L -143.28668723931338,9.827040393369494 L -143.85320947552933,8.956710106020855 L -144.4743299840179,8.124465209888518 L -145.1474964473799,7.333725577766671 L -145.86994268022352,6.5877405284168145 L -146.63869999601383,5.889575474420026 L -147.4506094060423,5.242099325739103 L -148.30233460038912,4.647972700752184 L -149.1903756575362,4.109636993201093 L -150.11108342629555,3.6293043399808096 L -151.06067452095414,3.208948530994449 L -152.0352468680173,2.850296898427168 L -153.03079574066598,2.5548232187677247 L -154.04323021503777,2.3237416567447418 L -155.068389980711,2.158001776063414 L -156.10206243631245,2.0582846374445514 L -157.14,2.025 L -157.14,2.025 L -178.2,2.025 L -178.2,18.224999999999998 L -178.2,34.425 L -157.14,34.425" style="stroke:black;fill:none;stroke-width:2;stroke-linecap:round;stroke-linejoin:round;" /><path d="M -189.54,26.325 L -178.2,26.325" style="stroke:black;fill:none;stroke-width:2;stroke-linecap:round;stroke-linejoin:round;" /><path d="M -189.54,10.125 L -178.2,10.125" style="stroke:black;fill:none;stroke-width:2;stroke-linecap:round;stroke-linejoin:round;" /><path d="M -140.93999999999997,18.224999999999998 L -129.6,18.224999999999998" style="stroke:black;fill:none;stroke-width:2;stroke-linecap:round;stroke-linejoin:round;" /><path d="M -259.2,-0.0 L -241.218,-0.0 M -212.38199999999998,-0.0 L -194.39999999999998,-0.0" style="stroke:black;fill:none;stroke-width:2;stroke-linecap:round;stroke-linejoin:round;" /><path d="M -241.218,-16.2 L -220.158,-0.0 L -241.218,16.2 L -241.218,-16.2" style="stroke:black;fill:none;stroke-width:2;stroke-linecap:round;stroke-linejoin:round;" /><path d="M -189.54,10.125 L -194.39999999999998,10.125 L -194.39999999999998,-0.0" style="stroke:black;fill:none;stroke-width:2;stroke-linecap:round;stroke-linejoin:round;" /><path d="M -221.93999999999997,52.65 L -220.90206243631243,52.616715362555446 L -219.868389980711,52.51699822393658 L -218.84323021503775,52.35125834325525 L -217.83079574066596,52.120176781232274 L -216.83524686801732,51.82470310157284 L -215.86067452095415,51.46605146900555 L -214.91108342629553,51.045695660019184 L -213.99037565753622,50.565363006798904 L -213.1023346003891,50.02702729924782 L -212.2506094060423,49.4329006742609 L -211.4386999960138,48.78542452557998 L -210.6699426802235,48.08725947158319 L -209.9474964473799,47.34127442223333 L -209.27432998401792,46.55053479011148 L -208.6532094755293,45.71828989397915 L -208.0866872393134,44.84795960663051 L -207.57709123675738,43.94312030190153 L -207.12651550714384,43.007490158582776 L -206.7368115627939,42.044913881625185 L -206.4095807808061,41.05934690342272 L -206.14616782265446,40.05483913009229 L -205.9476551086859,39.03551829954074 L -205.81485837022296,38.00557301970445 L -205.74832329754886,36.96923555666082 L -205.74832329754886,35.930764443339186 L -205.81485837022296,34.894426980295556 L -205.9476551086859,33.86448170045926 L -206.14616782265446,32.84516086990771 L -206.4095807808061,31.840653096577274 L -206.7368115627939,30.855086118374814 L -207.12651550714384,29.89250984141722 L -207.57709123675738,28.95687969809847 L -208.0866872393134,28.05204039336949 L -208.6532094755293,27.181710106020855 L -209.27432998401792,26.349465209888518 L -209.9474964473799,25.55872557776667 L -210.6699426802235,24.81274052841681 L -211.4386999960138,24.114575474420025 L -212.2506094060423,23.467099325739103 L -213.1023346003891,22.872972700752182 L -213.99037565753622,22.33463699320109 L -214.91108342629553,21.85430433998081 L -215.86067452095415,21.433948530994446 L -216.83524686801732,21.07529689842717 L -217.83079574066596,20.77982321876772 L -218.84323021503775,20.548741656744742 L -219.868389980711,20.383001776063413 L -220.90206243631243,20.28328463744455 L -221.93999999999997,20.25 L -221.93999999999997,20.25 L -243.0,20.25 L -243.0,36.449999999999996 L -243.0,52.65 L -221.93999999999997,52.65" style="stroke:black;fill:none;stroke-width:2;stroke-linecap:round;stroke-linejoin:round;" /><path d="M -254.33999999999997,44.55 L -243.0,44.55" style="stroke:black;fill:none;stroke-width:2;stroke-linecap:round;stroke-linejoin:round;" /><path d="M -254.33999999999997,28.349999999999998 L -243.0,28.349999999999998" style="stroke:black;fill:none;stroke-width:2;stroke-linecap:round;stroke-linejoin:round;" /><path d="M -197.964,36.449999999999996 L -194.39999999999998,36.449999999999996" style="stroke:black;fill:none;stroke-width:2;stroke-linecap:round;stroke-linejoin:round;" /><path d="M -324.0,24.299999999999997 L -306.018,24.299999999999997 M -277.18199999999996,24.299999999999997 L -259.2,24.299999999999997" style="stroke:black;fill:none;stroke-width:2;stroke-linecap:round;stroke-linejoin:round;" /><path d="M -306.018,8.1 L -284.95799999999997,24.299999999999997 L -306.018,40.5 L -306.018,8.1" style="stroke:black;fill:none;stroke-width:2;stroke-linecap:round;stroke-linejoin:round;" /><path d="M -254.33999999999997,28.349999999999998 L -259.2,28.349999999999998 L -259.2,24.299999999999997" style="stroke:black;fill:none;stroke-width:2;stroke-linecap:round;stroke-linejoin:round;" /><path d="M -189.54,26.325 L -194.39999999999998,26.325 L -194.39999999999998,36.449999999999996" style="stroke:black;fill:none;stroke-width:2;stroke-linecap:round;stroke-linejoin:round;" /><path d="M -124.74,31.3875 L -129.6,31.3875 L -129.6,18.224999999999998" style="stroke:black;fill:none;stroke-width:2;stroke-linecap:round;stroke-linejoin:round;" /><path d="M -194.39999999999998,60.75 L -176.418,60.75 M -147.582,60.75 L -129.6,60.75" style="stroke:black;fill:none;stroke-width:2;stroke-linecap:round;stroke-linejoin:round;" /><path d="M -176.418,44.55 L -155.358,60.75 L -176.418,76.95 L -176.418,44.55" style="stroke:black;fill:none;stroke-width:2;stroke-linecap:round;stroke-linejoin:round;" /><path d="M -124.74,47.5875 L -129.6,47.5875 L -129.6,60.75" style="stroke:black;fill:none;stroke-width:2;stroke-linecap:round;stroke-linejoin:round;" /><path d="M -59.94,60.24375 L -64.8,60.24375 L -64.8,39.4875" style="stroke:black;fill:none;stroke-width:2;stroke-linecap:round;stroke-linejoin:round;" /><path d="M -92.34,113.39999999999999 L -91.30206243631245,113.36671536255545 L -90.26838998071099,113.26699822393658 L -89.24323021503777,113.10125834325525 L -88.23079574066598,112.87017678123227 L -87.23524686801734,112.57470310157284 L -86.26067452095414,112.21605146900555 L -85.31108342629555,111.79569566001918 L -84.39037565753621,111.3153630067989 L -83.5023346003891,110.77702729924782 L -82.6506094060423,110.18290067426089 L -81.83869999601382,109.53542452557997 L -81.06994268022352,108.83725947158318 L -80.34749644737988,108.09127442223333 L -79.67432998401792,107.30053479011147 L -79.0532094755293,106.46828989397915 L -78.4866872393134,105.59795960663051 L -77.9770912367574,104.69312030190153 L -77.52651550714383,103.75749015858277 L -77.13681156279388,102.79491388162518 L -76.80958078080609,101.80934690342272 L -76.54616782265445,100.80483913009229 L -76.3476551086859,99.78551829954074 L -76.21485837022298,98.75557301970444 L -76.14832329754886,97.71923555666082 L -76.14832329754886,96.68076444333917 L -76.21485837022298,95.64442698029555 L -76.3476551086859,94.61448170045925 L -76.54616782265445,93.5951608699077 L -76.80958078080609,92.59065309657727 L -77.13681156279388,91.60508611837481 L -77.52651550714383,90.64250984141722 L -77.9770912367574,89.70687969809846 L -78.4866872393134,88.80204039336948 L -79.0532094755293,87.93171010602084 L -79.67432998401792,87.09946520988852 L -80.34749644737988,86.30872557776667 L -81.0699426802235,85.56274052841681 L -81.83869999601382,84.86457547442002 L -82.65060940604229,84.2170993257391 L -83.5023346003891,83.62297270075219 L -84.39037565753621,83.08463699320109 L -85.31108342629555,82.60430433998081 L -86.26067452095414,82.18394853099444 L -87.23524686801734,81.82529689842715 L -88.23079574066598,81.52982321876772 L -89.24323021503777,81.29874165674474 L -90.26838998071099,81.13300177606341 L -91.30206243631245,81.03328463744454 L -92.34,81.0 L -92.34,81.0 L -113.39999999999999,81.0 L -113.39999999999999,97.19999999999999 L -113.39999999999999,113.39999999999999 L -92.34,113.39999999999999" style="stroke:black;fill:none;stroke-width:2;stroke-linecap:round;stroke-linejoin:round;" /><path d="M -124.74,105.3 L -113.39999999999999,105.3" style="stroke:black;fill:none;stroke-width:2;stroke-linecap:round;stroke-linejoin:round;" /><path d="M -124.74,89.1 L -113.39999999999999,89.1" style="stroke:black;fill:none;stroke-width:2;stroke-linecap:round;stroke-linejoin:round;" /><path d="M -68.364,97.19999999999999 L -64.8,97.19999999999999" style="stroke:black;fill:none;stroke-width:2;stroke-linecap:round;stroke-linejoin:round;" /><path d="M -194.39999999999998,85.05 L -176.418,85.05 M -147.582,85.05 L -129.6,85.05" style="stroke:black;fill:none;stroke-width:2;stroke-linecap:round;stroke-linejoin:round;" /><path d="M -176.418,68.85 L -155.358,85.05 L -176.418,101.25 L -176.418,68.85" style="stroke:black;fill:none;stroke-width:2;stroke-linecap:round;stroke-linejoin:round;" /><path d="M -124.74,89.1 L -129.6,89.1 L -129.6,85.05" style="stroke:black;fill:none;stroke-width:2;stroke-linecap:round;stroke-linejoin:round;" /><path d="M -194.39999999999998,109.35 L -176.418,109.35 M -147.582,109.35 L -129.6,109.35" style="stroke:black;fill:none;stroke-width:2;stroke-linecap:round;stroke-linejoin:round;" /><path d="M -176.418,93.14999999999999 L -155.358,109.35 L -176.418,125.55 L -176.418,93.14999999999999" style="stroke:black;fill:none;stroke-width:2;stroke-linecap:round;stroke-linejoin:round;" /><path d="M -124.74,105.3 L -129.6,105.3 L -129.6,109.35" style="stroke:black;fill:none;stroke-width:2;stroke-linecap:round;stroke-linejoin:round;" /><path d="M -59.94,76.44375 L -64.8,76.44375 L -64.8,97.19999999999999" style="stroke:black;fill:none;stroke-width:2;stroke-linecap:round;stroke-linejoin:round;" /><text x="3.240000000000003" y="60.64374999999998" fill="black" font-size="14" font-family="sans-serif" text-anchor="start" transform="rotate(0 3.240000000000003 66.24374999999999)"><tspan x="3.240000000000003" dy="11.200000000000001">f</tspan></text><text x="-262.44" y="-7.7" fill="black" font-size="14" font-family="sans-serif" text-anchor="end" transform="rotate(0 -262.44 -2.0999999999999996)"><tspan x="-262.44" dy="11.200000000000001">a</tspan></text><text x="-257.58" y="36.849999999999994" fill="black" font-size="14" font-family="sans-serif" text-anchor="end" transform="rotate(0 -257.58 42.449999999999996)"><tspan x="-257.58" dy="11.200000000000001">c</tspan></text><text x="-327.23999999999995" y="16.6" fill="black" font-size="14" font-family="sans-serif" text-anchor="end" transform="rotate(0 -327.23999999999995 22.2)"><tspan x="-327.23999999999995" dy="11.200000000000001">b</tspan></text><text x="-197.64" y="53.05" fill="black" font-size="14" font-family="sans-serif" text-anchor="end" transform="rotate(0 -197.64 58.65)"><tspan x="-197.64" dy="11.200000000000001">a</tspan></text><text x="-197.64" y="77.34999999999998" fill="black" font-size="14" font-family="sans-serif" text-anchor="end" transform="rotate(0 -197.64 82.94999999999999)"><tspan x="-197.64" dy="11.200000000000001">b</tspan></text><text x="-197.64" y="101.64999999999999" fill="black" font-size="14" font-family="sans-serif" text-anchor="end" transform="rotate(0 -197.64 107.25)"><tspan x="-197.64" dy="11.200000000000001">c</tspan></text></svg>