<?xml version="1.0" encoding="utf-8" standalone="no"?>
<!DOCTYPE svg PUBLIC "-//W3C//DTD SVG 1.1//EN"
  "http://www.w3.org/Graphics/SVG/1.1/DTD/svg11.dtd">
<svg xmlns:xlink="http://www.w3.org/1999/xlink" width="330.228356pt" height="254.304pt" viewBox="0 0 330.228356 254.304" xmlns="http://www.w3.org/2000/svg" version="1.1">
 <metadata>
  <rdf:RDF xmlns:dc="http://purl.org/dc/elements/1.1/" xmlns:cc="http://creativecommons.org/ns#" xmlns:rdf="http://www.w3.org/1999/02/22-rdf-syntax-ns#">
   <cc:Work>
    <dc:type rdf:resource="http://purl.org/dc/dcmitype/StillImage"/>
    <dc:date>2022-12-21T12:37:35.967842</dc:date>
    <dc:format>image/svg+xml</dc:format>
    <dc:creator>
     <cc:Agent>
      <dc:title>Matplotlib v3.6.2, https://matplotlib.org/</dc:title>
     </cc:Agent>
    </dc:creator>
   </cc:Work>
  </rdf:RDF>
 </metadata>
 <defs>
  <style type="text/css">*{stroke-linejoin: round; stroke-linecap: butt}</style>
 </defs>
 <g id="figure_1">
  <g id="patch_1">
   <path d="M 0 254.304 
L 330.228356 254.304 
L 330.228356 0 
L 0 0 
L 0 254.304 
z
" style="fill: none"/>
  </g>
  <g id="axes_1">
   <g id="patch_2">
    <path d="M 263.476515 165.258392 
C 264.448412 165.258392 265.380634 164.872253 266.067869 164.185018 
C 266.755105 163.497783 267.141244 162.565561 267.141244 161.593663 
C 267.141244 160.621766 266.755105 159.689544 266.067869 159.002309 
C 265.380634 158.315074 264.448412 157.928935 263.476515 157.928935 
C 262.504617 157.928935 261.572396 158.315074 260.88516 159.002309 
C 260.197925 159.689544 259.811786 160.621766 259.811786 161.593663 
C 259.811786 162.565561 260.197925 163.497783 260.88516 164.185018 
C 261.572396 164.872253 262.504617 165.258392 263.476515 165.258392 
L 263.476515 165.258392 
z
" clip-path="url(#pbc57f9bd94)" style="fill: none; stroke: #000000; stroke-width: 2; stroke-linejoin: miter"/>
   </g>
   <g id="patch_3">
    <path d="M 202.397703 114.868372 
C 203.3696 114.868372 204.301822 114.482233 204.989057 113.794998 
C 205.676293 113.107763 206.062432 112.175541 206.062432 111.203644 
C 206.062432 110.231746 205.676293 109.299524 204.989057 108.612289 
C 204.301822 107.925054 203.3696 107.538915 202.397703 107.538915 
C 201.425806 107.538915 200.493584 107.925054 199.806348 108.612289 
C 199.119113 109.299524 198.732974 110.231746 198.732974 111.203644 
C 198.732974 112.175541 199.119113 113.107763 199.806348 113.794998 
C 200.493584 114.482233 201.425806 114.868372 202.397703 114.868372 
L 202.397703 114.868372 
z
" clip-path="url(#pbc57f9bd94)" style="fill: none; stroke: #000000; stroke-width: 2; stroke-linejoin: miter"/>
   </g>
   <g id="patch_4">
    <path d="M 66.650044 30.885006 
C 67.621941 30.885006 68.554163 30.498867 69.241398 29.811632 
C 69.928633 29.124396 70.314772 28.192175 70.314772 27.220277 
C 70.314772 26.24838 69.928633 25.316158 69.241398 24.628923 
C 68.554163 23.941687 67.621941 23.555549 66.650044 23.555549 
C 65.678146 23.555549 64.745924 23.941687 64.058689 24.628923 
C 63.371454 25.316158 62.985315 26.24838 62.985315 27.220277 
C 62.985315 28.192175 63.371454 29.124396 64.058689 29.811632 
C 64.745924 30.498867 65.678146 30.885006 66.650044 30.885006 
L 66.650044 30.885006 
z
" clip-path="url(#pbc57f9bd94)" style="fill: none; stroke: #000000; stroke-width: 2; stroke-linejoin: miter"/>
   </g>
   <g id="patch_5">
    <path d="M 66.650044 64.478352 
C 67.621941 64.478352 68.554163 64.092214 69.241398 63.404978 
C 69.928633 62.717743 70.314772 61.785521 70.314772 60.813624 
C 70.314772 59.841726 69.928633 58.909504 69.241398 58.222269 
C 68.554163 57.535034 67.621941 57.148895 66.650044 57.148895 
C 65.678146 57.148895 64.745924 57.535034 64.058689 58.222269 
C 63.371454 58.909504 62.985315 59.841726 62.985315 60.813624 
C 62.985315 61.785521 63.371454 62.717743 64.058689 63.404978 
C 64.745924 64.092214 65.678146 64.478352 66.650044 64.478352 
L 66.650044 64.478352 
z
" clip-path="url(#pbc57f9bd94)" style="fill: none; stroke: #000000; stroke-width: 2; stroke-linejoin: miter"/>
   </g>
   <g id="patch_6">
    <path d="M 66.650044 131.665046 
C 67.621941 131.665046 68.554163 131.278907 69.241398 130.591671 
C 69.928633 129.904436 70.314772 128.972214 70.314772 128.000317 
C 70.314772 127.028419 69.928633 126.096198 69.241398 125.408962 
C 68.554163 124.721727 67.621941 124.335588 66.650044 124.335588 
C 65.678146 124.335588 64.745924 124.721727 64.058689 125.408962 
C 63.371454 126.096198 62.985315 127.028419 62.985315 128.000317 
C 62.985315 128.972214 63.371454 129.904436 64.058689 130.591671 
C 64.745924 131.278907 65.678146 131.665046 66.650044 131.665046 
L 66.650044 131.665046 
z
" clip-path="url(#pbc57f9bd94)" style="fill: none; stroke: #000000; stroke-width: 2; stroke-linejoin: miter"/>
   </g>
   <g id="patch_7">
    <path d="M 66.650044 165.258392 
C 67.621941 165.258392 68.554163 164.872253 69.241398 164.185018 
C 69.928633 163.497783 70.314772 162.565561 70.314772 161.593663 
C 70.314772 160.621766 69.928633 159.689544 69.241398 159.002309 
C 68.554163 158.315074 67.621941 157.928935 66.650044 157.928935 
C 65.678146 157.928935 64.745924 158.315074 64.058689 159.002309 
C 63.371454 159.689544 62.985315 160.621766 62.985315 161.593663 
C 62.985315 162.565561 63.371454 163.497783 64.058689 164.185018 
C 64.745924 164.872253 65.678146 165.258392 66.650044 165.258392 
L 66.650044 165.258392 
z
" clip-path="url(#pbc57f9bd94)" style="fill: none; stroke: #000000; stroke-width: 2; stroke-linejoin: miter"/>
   </g>
   <g id="patch_8">
    <path d="M 66.650044 198.851739 
C 67.621941 198.851739 68.554163 198.4656 69.241398 197.778364 
C 69.928633 197.091129 70.314772 196.158907 70.314772 195.18701 
C 70.314772 194.215112 69.928633 193.282891 69.241398 192.595655 
C 68.554163 191.90842 67.621941 191.522281 66.650044 191.522281 
C 65.678146 191.522281 64.745924 191.90842 64.058689 192.595655 
C 63.371454 193.282891 62.985315 194.215112 62.985315 195.18701 
C 62.985315 196.158907 63.371454 197.091129 64.058689 197.778364 
C 64.745924 198.4656 65.678146 198.851739 66.650044 198.851739 
L 66.650044 198.851739 
z
" clip-path="url(#pbc57f9bd94)" style="fill: none; stroke: #000000; stroke-width: 2; stroke-linejoin: miter"/>
   </g>
   <g id="patch_9">
    <path d="M 202.397703 215.648412 
C 203.3696 215.648412 204.301822 215.262273 204.989057 214.575038 
C 205.676293 213.887802 206.062432 212.955581 206.062432 211.983683 
C 206.062432 211.011786 205.676293 210.079564 204.989057 209.392329 
C 204.301822 208.705093 203.3696 208.318954 202.397703 208.318954 
C 201.425806 208.318954 200.493584 208.705093 199.806348 209.392329 
C 199.119113 210.079564 198.732974 211.011786 198.732974 211.983683 
C 198.732974 212.955581 199.119113 213.887802 199.806348 214.575038 
C 200.493584 215.262273 201.425806 215.648412 202.397703 215.648412 
L 202.397703 215.648412 
z
" clip-path="url(#pbc57f9bd94)" style="fill: none; stroke: #000000; stroke-width: 2; stroke-linejoin: miter"/>
   </g>
   <g id="patch_10">
    <path d="M 127.728855 232.445085 
C 128.700753 232.445085 129.632975 232.058946 130.32021 231.371711 
C 131.007445 230.684476 131.393584 229.752254 131.393584 228.780356 
C 131.393584 227.808459 131.007445 226.876237 130.32021 226.189002 
C 129.632975 225.501767 128.700753 225.115628 127.728855 225.115628 
C 126.756958 225.115628 125.824736 225.501767 125.137501 226.189002 
C 124.450266 226.876237 124.064127 227.808459 124.064127 228.780356 
C 124.064127 229.752254 124.450266 230.684476 125.137501 231.371711 
C 125.824736 232.058946 126.756958 232.445085 127.728855 232.445085 
L 127.728855 232.445085 
z
" clip-path="url(#pbc57f9bd94)" style="fill: none; stroke: #000000; stroke-width: 2; stroke-linejoin: miter"/>
   </g>
   <g id="line2d_1">
    <path d="M 223.164499 176.557972 
L 240.179311 176.458252 
L 241.92442 176.15909 
L 243.669529 175.660488 
L 245.414638 174.962444 
L 247.159747 174.06496 
L 249.341133 172.66264 
L 251.522519 170.948694 
L 253.703905 168.923121 
L 255.885291 166.585921 
L 258.066677 163.937095 
L 259.811786 161.593663 
L 259.811786 161.593663 
L 257.194123 158.153306 
L 255.012737 155.62913 
L 252.83135 153.416582 
L 250.649964 151.515659 
L 248.468578 149.926364 
L 246.287192 148.648695 
L 244.542083 147.850931 
L 242.796974 147.252608 
L 241.051865 146.853726 
L 239.306756 146.654285 
L 238.434202 146.629354 
L 223.164499 146.629354 
L 223.164499 146.629354 
L 225.363336 149.072507 
L 226.755933 150.904871 
L 227.928646 152.737236 
L 228.881476 154.5696 
L 229.614422 156.401964 
L 230.127484 158.234329 
L 230.420662 160.066693 
L 230.493956 161.899057 
L 230.347367 163.731422 
L 229.980894 165.563786 
L 229.394538 167.39615 
L 228.588298 169.228515 
L 227.562173 171.060879 
L 226.316166 172.893244 
L 224.850274 174.725608 
L 223.164499 176.557972 
L 223.164499 176.557972 
" clip-path="url(#pbc57f9bd94)" style="fill: none; stroke: #000000; stroke-width: 2; stroke-linecap: round"/>
   </g>
   <g id="line2d_2">
    <path d="M 212.475707 169.228515 
L 228.588298 169.228515 
" clip-path="url(#pbc57f9bd94)" style="fill: none; stroke: #000000; stroke-width: 2; stroke-linecap: round"/>
   </g>
   <g id="line2d_3">
    <path d="M 212.475707 153.958812 
L 228.588298 153.958812 
" clip-path="url(#pbc57f9bd94)" style="fill: none; stroke: #000000; stroke-width: 2; stroke-linecap: round"/>
   </g>
   <g id="line2d_4">
    <path d="M 267.141244 161.593663 
L 270.500578 161.593663 
" clip-path="url(#pbc57f9bd94)" style="fill: none; stroke: #000000; stroke-width: 2; stroke-linecap: round"/>
   </g>
   <g id="line2d_5">
    <path d="M 162.085687 126.167952 
L 179.100499 126.068232 
L 180.845608 125.76907 
L 182.590717 125.270468 
L 184.335826 124.572424 
L 186.080935 123.67494 
L 188.262321 122.27262 
L 190.443707 120.558674 
L 192.625093 118.533101 
L 194.806479 116.195902 
L 196.987865 113.547076 
L 198.732974 111.203644 
L 198.732974 111.203644 
L 196.115311 107.763286 
L 193.933925 105.239111 
L 191.752539 103.026562 
L 189.571152 101.12564 
L 187.389766 99.536344 
L 185.20838 98.258675 
L 183.463271 97.460911 
L 181.718162 96.862588 
L 179.973053 96.463706 
L 178.227945 96.264265 
L 177.35539 96.239335 
L 162.085687 96.239335 
L 162.085687 96.239335 
L 164.284524 98.682487 
L 165.677121 100.514851 
L 166.849834 102.347216 
L 167.802664 104.17958 
L 168.53561 106.011945 
L 169.048672 107.844309 
L 169.34185 109.676673 
L 169.415145 111.509038 
L 169.268555 113.341402 
L 168.902083 115.173766 
L 168.315726 117.006131 
L 167.509486 118.838495 
L 166.483362 120.670859 
L 165.237354 122.503224 
L 163.771462 124.335588 
L 162.085687 126.167952 
L 162.085687 126.167952 
" clip-path="url(#pbc57f9bd94)" style="fill: none; stroke: #000000; stroke-width: 2; stroke-linecap: round"/>
   </g>
   <g id="line2d_6">
    <path d="M 151.396895 118.838495 
L 167.509486 118.838495 
" clip-path="url(#pbc57f9bd94)" style="fill: none; stroke: #000000; stroke-width: 2; stroke-linecap: round"/>
   </g>
   <g id="line2d_7">
    <path d="M 151.396895 103.568792 
L 167.509486 103.568792 
" clip-path="url(#pbc57f9bd94)" style="fill: none; stroke: #000000; stroke-width: 2; stroke-linecap: round"/>
   </g>
   <g id="line2d_8">
    <path d="M 206.062432 111.203644 
L 209.421766 111.203644 
" clip-path="url(#pbc57f9bd94)" style="fill: none; stroke: #000000; stroke-width: 2; stroke-linecap: round"/>
   </g>
   <g id="line2d_9">
    <path d="M 122.384459 76.083327 
L 123.362793 76.051953 
L 124.337106 75.957963 
L 125.303395 75.801741 
L 126.25769 75.583929 
L 127.196068 75.305423 
L 128.114675 74.967367 
L 129.009735 74.571151 
L 129.877571 74.118402 
L 130.714615 73.61098 
L 131.51743 73.050972 
L 132.282714 72.440677 
L 133.007325 71.782605 
L 133.688285 71.079459 
L 134.322794 70.334128 
L 134.908246 69.549675 
L 135.442235 68.729324 
L 135.922567 67.876446 
L 136.347269 66.994545 
L 136.714593 66.087246 
L 137.023033 65.158275 
L 137.271319 64.211452 
L 137.458432 63.250667 
L 137.583603 62.279867 
L 137.646317 61.303042 
L 137.646317 60.324206 
L 137.583603 59.347381 
L 137.458432 58.376581 
L 137.271319 57.415795 
L 137.023033 56.468972 
L 136.714593 55.540002 
L 136.347269 54.632702 
L 135.922567 53.750801 
L 135.442235 52.897923 
L 134.908246 52.077572 
L 134.322794 51.29312 
L 133.688285 50.547789 
L 133.007325 49.844643 
L 132.282714 49.18657 
L 131.51743 48.576276 
L 130.714615 48.016267 
L 129.877571 47.508846 
L 129.009735 47.056097 
L 128.114675 46.65988 
L 127.196068 46.321824 
L 126.25769 46.043319 
L 125.303395 45.825507 
L 124.337106 45.669285 
L 123.362793 45.575294 
L 122.384459 45.543921 
L 122.384459 45.543921 
L 102.533846 45.543921 
L 102.533846 60.813624 
L 102.533846 76.083327 
L 122.384459 76.083327 
" clip-path="url(#pbc57f9bd94)" style="fill: none; stroke: #000000; stroke-width: 2; stroke-linecap: round"/>
   </g>
   <g id="line2d_10">
    <path d="M 91.845053 70.891628 
L 102.533846 70.891628 
" clip-path="url(#pbc57f9bd94)" style="fill: none; stroke: #000000; stroke-width: 2; stroke-linecap: round"/>
   </g>
   <g id="line2d_11">
    <path d="M 91.845053 60.813624 
L 102.533846 60.813624 
" clip-path="url(#pbc57f9bd94)" style="fill: none; stroke: #000000; stroke-width: 2; stroke-linecap: round"/>
   </g>
   <g id="line2d_12">
    <path d="M 91.845053 50.73562 
L 102.533846 50.73562 
" clip-path="url(#pbc57f9bd94)" style="fill: none; stroke: #000000; stroke-width: 2; stroke-linecap: round"/>
   </g>
   <g id="line2d_13">
    <path d="M 137.654162 60.813624 
L 148.342954 60.813624 
" clip-path="url(#pbc57f9bd94)" style="fill: none; stroke: #000000; stroke-width: 2; stroke-linecap: round"/>
   </g>
   <g id="line2d_14">
    <path d="M 26.185331 27.220277 
L 43.134701 27.220277 
M 70.314772 27.220277 
L 87.264143 27.220277 
" clip-path="url(#pbc57f9bd94)" style="fill: none; stroke: #000000; stroke-width: 2; stroke-linecap: round"/>
   </g>
   <g id="line2d_15">
    <path d="M 43.134701 11.950574 
L 62.985315 27.220277 
L 43.134701 42.48998 
L 43.134701 11.950574 
" clip-path="url(#pbc57f9bd94)" style="fill: none; stroke: #000000; stroke-width: 2; stroke-linecap: round"/>
   </g>
   <g id="line2d_16">
    <path d="M 91.845053 50.73562 
L 87.264143 50.73562 
L 87.264143 27.220277 
" clip-path="url(#pbc57f9bd94)" style="fill: none; stroke: #000000; stroke-width: 2; stroke-linecap: round"/>
   </g>
   <g id="line2d_17">
    <path d="M 26.185331 60.813624 
L 43.134701 60.813624 
M 70.314772 60.813624 
L 87.264143 60.813624 
" clip-path="url(#pbc57f9bd94)" style="fill: none; stroke: #000000; stroke-width: 2; stroke-linecap: round"/>
   </g>
   <g id="line2d_18">
    <path d="M 43.134701 45.543921 
L 62.985315 60.813624 
L 43.134701 76.083327 
L 43.134701 45.543921 
" clip-path="url(#pbc57f9bd94)" style="fill: none; stroke: #000000; stroke-width: 2; stroke-linecap: round"/>
   </g>
   <g id="line2d_19">
    <path d="M 91.845053 60.813624 
L 87.264143 60.813624 
L 87.264143 60.813624 
" clip-path="url(#pbc57f9bd94)" style="fill: none; stroke: #000000; stroke-width: 2; stroke-linecap: round"/>
   </g>
   <g id="line2d_20">
    <path d="M 151.396895 103.568792 
L 148.342954 103.568792 
L 148.342954 60.813624 
" clip-path="url(#pbc57f9bd94)" style="fill: none; stroke: #000000; stroke-width: 2; stroke-linecap: round"/>
   </g>
   <g id="line2d_21">
    <path d="M 122.384459 176.863366 
L 123.362793 176.831993 
L 124.337106 176.738002 
L 125.303395 176.58178 
L 126.25769 176.363969 
L 127.196068 176.085463 
L 128.114675 175.747407 
L 129.009735 175.35119 
L 129.877571 174.898441 
L 130.714615 174.39102 
L 131.51743 173.831011 
L 132.282714 173.220717 
L 133.007325 172.562645 
L 133.688285 171.859498 
L 134.322794 171.114167 
L 134.908246 170.329715 
L 135.442235 169.509364 
L 135.922567 168.656486 
L 136.347269 167.774585 
L 136.714593 166.867285 
L 137.023033 165.938315 
L 137.271319 164.991492 
L 137.458432 164.030706 
L 137.583603 163.059906 
L 137.646317 162.083081 
L 137.646317 161.104245 
L 137.583603 160.12742 
L 137.458432 159.15662 
L 137.271319 158.195835 
L 137.023033 157.249012 
L 136.714593 156.320042 
L 136.347269 155.412742 
L 135.922567 154.530841 
L 135.442235 153.677963 
L 134.908246 152.857612 
L 134.322794 152.073159 
L 133.688285 151.327828 
L 133.007325 150.624682 
L 132.282714 149.96661 
L 131.51743 149.356315 
L 130.714615 148.796307 
L 129.877571 148.288886 
L 129.009735 147.836136 
L 128.114675 147.43992 
L 127.196068 147.101864 
L 126.25769 146.823358 
L 125.303395 146.605547 
L 124.337106 146.449324 
L 123.362793 146.355334 
L 122.384459 146.32396 
L 122.384459 146.32396 
L 102.533846 146.32396 
L 102.533846 161.593663 
L 102.533846 176.863366 
L 122.384459 176.863366 
" clip-path="url(#pbc57f9bd94)" style="fill: none; stroke: #000000; stroke-width: 2; stroke-linecap: round"/>
   </g>
   <g id="line2d_22">
    <path d="M 91.845053 171.671667 
L 102.533846 171.671667 
" clip-path="url(#pbc57f9bd94)" style="fill: none; stroke: #000000; stroke-width: 2; stroke-linecap: round"/>
   </g>
   <g id="line2d_23">
    <path d="M 91.845053 161.593663 
L 102.533846 161.593663 
" clip-path="url(#pbc57f9bd94)" style="fill: none; stroke: #000000; stroke-width: 2; stroke-linecap: round"/>
   </g>
   <g id="line2d_24">
    <path d="M 91.845053 151.515659 
L 102.533846 151.515659 
" clip-path="url(#pbc57f9bd94)" style="fill: none; stroke: #000000; stroke-width: 2; stroke-linecap: round"/>
   </g>
   <g id="line2d_25">
    <path d="M 137.654162 161.593663 
L 148.342954 161.593663 
" clip-path="url(#pbc57f9bd94)" style="fill: none; stroke: #000000; stroke-width: 2; stroke-linecap: round"/>
   </g>
   <g id="line2d_26">
    <path d="M 26.185331 128.000317 
L 43.134701 128.000317 
M 70.314772 128.000317 
L 87.264143 128.000317 
" clip-path="url(#pbc57f9bd94)" style="fill: none; stroke: #000000; stroke-width: 2; stroke-linecap: round"/>
   </g>
   <g id="line2d_27">
    <path d="M 43.134701 112.730614 
L 62.985315 128.000317 
L 43.134701 143.27002 
L 43.134701 112.730614 
" clip-path="url(#pbc57f9bd94)" style="fill: none; stroke: #000000; stroke-width: 2; stroke-linecap: round"/>
   </g>
   <g id="line2d_28">
    <path d="M 91.845053 151.515659 
L 87.264143 151.515659 
L 87.264143 128.000317 
" clip-path="url(#pbc57f9bd94)" style="fill: none; stroke: #000000; stroke-width: 2; stroke-linecap: round"/>
   </g>
   <g id="line2d_29">
    <path d="M 26.185331 161.593663 
L 43.134701 161.593663 
M 70.314772 161.593663 
L 87.264143 161.593663 
" clip-path="url(#pbc57f9bd94)" style="fill: none; stroke: #000000; stroke-width: 2; stroke-linecap: round"/>
   </g>
   <g id="line2d_30">
    <path d="M 43.134701 146.32396 
L 62.985315 161.593663 
L 43.134701 176.863366 
L 43.134701 146.32396 
" clip-path="url(#pbc57f9bd94)" style="fill: none; stroke: #000000; stroke-width: 2; stroke-linecap: round"/>
   </g>
   <g id="line2d_31">
    <path d="M 91.845053 161.593663 
L 87.264143 161.593663 
L 87.264143 161.593663 
" clip-path="url(#pbc57f9bd94)" style="fill: none; stroke: #000000; stroke-width: 2; stroke-linecap: round"/>
   </g>
   <g id="line2d_32">
    <path d="M 26.185331 195.18701 
L 43.134701 195.18701 
M 70.314772 195.18701 
L 87.264143 195.18701 
" clip-path="url(#pbc57f9bd94)" style="fill: none; stroke: #000000; stroke-width: 2; stroke-linecap: round"/>
   </g>
   <g id="line2d_33">
    <path d="M 43.134701 179.917307 
L 62.985315 195.18701 
L 43.134701 210.456713 
L 43.134701 179.917307 
" clip-path="url(#pbc57f9bd94)" style="fill: none; stroke: #000000; stroke-width: 2; stroke-linecap: round"/>
   </g>
   <g id="line2d_34">
    <path d="M 91.845053 171.671667 
L 87.264143 171.671667 
L 87.264143 195.18701 
" clip-path="url(#pbc57f9bd94)" style="fill: none; stroke: #000000; stroke-width: 2; stroke-linecap: round"/>
   </g>
   <g id="line2d_35">
    <path d="M 151.396895 118.838495 
L 148.342954 118.838495 
L 148.342954 161.593663 
" clip-path="url(#pbc57f9bd94)" style="fill: none; stroke: #000000; stroke-width: 2; stroke-linecap: round"/>
   </g>
   <g id="line2d_36">
    <path d="M 212.475707 153.958812 
L 209.421766 153.958812 
L 209.421766 111.203644 
" clip-path="url(#pbc57f9bd94)" style="fill: none; stroke: #000000; stroke-width: 2; stroke-linecap: round"/>
   </g>
   <g id="line2d_37">
    <path d="M 162.085687 226.947992 
L 179.100499 226.848272 
L 180.845608 226.54911 
L 182.590717 226.050507 
L 184.335826 225.352464 
L 186.080935 224.454979 
L 188.262321 223.05266 
L 190.443707 221.338713 
L 192.625093 219.313141 
L 194.806479 216.975941 
L 196.987865 214.327115 
L 198.732974 211.983683 
L 198.732974 211.983683 
L 196.115311 208.543326 
L 193.933925 206.01915 
L 191.752539 203.806601 
L 189.571152 201.905679 
L 187.389766 200.316384 
L 185.20838 199.038715 
L 183.463271 198.24095 
L 181.718162 197.642627 
L 179.973053 197.243745 
L 178.227945 197.044304 
L 177.35539 197.019374 
L 162.085687 197.019374 
L 162.085687 197.019374 
L 164.284524 199.462527 
L 165.677121 201.294891 
L 166.849834 203.127255 
L 167.802664 204.95962 
L 168.53561 206.791984 
L 169.048672 208.624349 
L 169.34185 210.456713 
L 169.415145 212.289077 
L 169.268555 214.121442 
L 168.902083 215.953806 
L 168.315726 217.78617 
L 167.509486 219.618535 
L 166.483362 221.450899 
L 165.237354 223.283263 
L 163.771462 225.115628 
L 162.085687 226.947992 
L 162.085687 226.947992 
" clip-path="url(#pbc57f9bd94)" style="fill: none; stroke: #000000; stroke-width: 2; stroke-linecap: round"/>
   </g>
   <g id="line2d_38">
    <path d="M 151.396895 219.618535 
L 167.509486 219.618535 
" clip-path="url(#pbc57f9bd94)" style="fill: none; stroke: #000000; stroke-width: 2; stroke-linecap: round"/>
   </g>
   <g id="line2d_39">
    <path d="M 151.396895 204.348832 
L 167.509486 204.348832 
" clip-path="url(#pbc57f9bd94)" style="fill: none; stroke: #000000; stroke-width: 2; stroke-linecap: round"/>
   </g>
   <g id="line2d_40">
    <path d="M 206.062432 211.983683 
L 209.421766 211.983683 
" clip-path="url(#pbc57f9bd94)" style="fill: none; stroke: #000000; stroke-width: 2; stroke-linecap: round"/>
   </g>
   <g id="line2d_41">
    <path d="M 87.264143 228.780356 
L 104.213513 228.780356 
M 131.393584 228.780356 
L 148.342954 228.780356 
" clip-path="url(#pbc57f9bd94)" style="fill: none; stroke: #000000; stroke-width: 2; stroke-linecap: round"/>
   </g>
   <g id="line2d_42">
    <path d="M 104.213513 213.510653 
L 124.064127 228.780356 
L 104.213513 244.050059 
L 104.213513 213.510653 
" clip-path="url(#pbc57f9bd94)" style="fill: none; stroke: #000000; stroke-width: 2; stroke-linecap: round"/>
   </g>
   <g id="line2d_43">
    <path d="M 151.396895 219.618535 
L 148.342954 219.618535 
L 148.342954 228.780356 
" clip-path="url(#pbc57f9bd94)" style="fill: none; stroke: #000000; stroke-width: 2; stroke-linecap: round"/>
   </g>
   <g id="line2d_44">
    <path d="M 212.475707 169.228515 
L 209.421766 169.228515 
L 209.421766 211.983683 
" clip-path="url(#pbc57f9bd94)" style="fill: none; stroke: #000000; stroke-width: 2; stroke-linecap: round"/>
   </g>
   <g id="text_1">
    <g clip-path="url(#pbc57f9bd94)">
     <!-- output -->
     <g transform="translate(273.554519 165.042882) scale(0.125 -0.125)">
      <defs>
       <path id="DejaVuSans-6f" d="M 1959 3097 
Q 1497 3097 1228 2736 
Q 959 2375 959 1747 
Q 959 1119 1226 758 
Q 1494 397 1959 397 
Q 2419 397 2687 759 
Q 2956 1122 2956 1747 
Q 2956 2369 2687 2733 
Q 2419 3097 1959 3097 
z
M 1959 3584 
Q 2709 3584 3137 3096 
Q 3566 2609 3566 1747 
Q 3566 888 3137 398 
Q 2709 -91 1959 -91 
Q 1206 -91 779 398 
Q 353 888 353 1747 
Q 353 2609 779 3096 
Q 1206 3584 1959 3584 
z
" transform="scale(0.015625)"/>
       <path id="DejaVuSans-75" d="M 544 1381 
L 544 3500 
L 1119 3500 
L 1119 1403 
Q 1119 906 1312 657 
Q 1506 409 1894 409 
Q 2359 409 2629 706 
Q 2900 1003 2900 1516 
L 2900 3500 
L 3475 3500 
L 3475 0 
L 2900 0 
L 2900 538 
Q 2691 219 2414 64 
Q 2138 -91 1772 -91 
Q 1169 -91 856 284 
Q 544 659 544 1381 
z
M 1991 3584 
L 1991 3584 
z
" transform="scale(0.015625)"/>
       <path id="DejaVuSans-74" d="M 1172 4494 
L 1172 3500 
L 2356 3500 
L 2356 3053 
L 1172 3053 
L 1172 1153 
Q 1172 725 1289 603 
Q 1406 481 1766 481 
L 2356 481 
L 2356 0 
L 1766 0 
Q 1100 0 847 248 
Q 594 497 594 1153 
L 594 3053 
L 172 3053 
L 172 3500 
L 594 3500 
L 594 4494 
L 1172 4494 
z
" transform="scale(0.015625)"/>
       <path id="DejaVuSans-70" d="M 1159 525 
L 1159 -1331 
L 581 -1331 
L 581 3500 
L 1159 3500 
L 1159 2969 
Q 1341 3281 1617 3432 
Q 1894 3584 2278 3584 
Q 2916 3584 3314 3078 
Q 3713 2572 3713 1747 
Q 3713 922 3314 415 
Q 2916 -91 2278 -91 
Q 1894 -91 1617 61 
Q 1341 213 1159 525 
z
M 3116 1747 
Q 3116 2381 2855 2742 
Q 2594 3103 2138 3103 
Q 1681 3103 1420 2742 
Q 1159 2381 1159 1747 
Q 1159 1113 1420 752 
Q 1681 391 2138 391 
Q 2594 391 2855 752 
Q 3116 1113 3116 1747 
z
" transform="scale(0.015625)"/>
      </defs>
      <use xlink:href="#DejaVuSans-6f"/>
      <use xlink:href="#DejaVuSans-75" x="61.181641"/>
      <use xlink:href="#DejaVuSans-74" x="124.560547"/>
      <use xlink:href="#DejaVuSans-70" x="163.769531"/>
      <use xlink:href="#DejaVuSans-75" x="227.246094"/>
      <use xlink:href="#DejaVuSans-74" x="290.625"/>
     </g>
    </g>
   </g>
   <g id="text_2">
    <g clip-path="url(#pbc57f9bd94)">
     <!-- c -->
     <g transform="translate(81.918066 74.340846) scale(0.125 -0.125)">
      <defs>
       <path id="DejaVuSans-63" d="M 3122 3366 
L 3122 2828 
Q 2878 2963 2633 3030 
Q 2388 3097 2138 3097 
Q 1578 3097 1268 2742 
Q 959 2388 959 1747 
Q 959 1106 1268 751 
Q 1578 397 2138 397 
Q 2388 397 2633 464 
Q 2878 531 3122 666 
L 3122 134 
Q 2881 22 2623 -34 
Q 2366 -91 2075 -91 
Q 1284 -91 818 406 
Q 353 903 353 1747 
Q 353 2603 823 3093 
Q 1294 3584 2113 3584 
Q 2378 3584 2631 3529 
Q 2884 3475 3122 3366 
z
" transform="scale(0.015625)"/>
      </defs>
      <use xlink:href="#DejaVuSans-63"/>
     </g>
    </g>
   </g>
   <g id="text_3">
    <g clip-path="url(#pbc57f9bd94)">
     <!-- a -->
     <g transform="translate(15.471234 30.669496) scale(0.125 -0.125)">
      <defs>
       <path id="DejaVuSans-61" d="M 2194 1759 
Q 1497 1759 1228 1600 
Q 959 1441 959 1056 
Q 959 750 1161 570 
Q 1363 391 1709 391 
Q 2188 391 2477 730 
Q 2766 1069 2766 1631 
L 2766 1759 
L 2194 1759 
z
M 3341 1997 
L 3341 0 
L 2766 0 
L 2766 531 
Q 2569 213 2275 61 
Q 1981 -91 1556 -91 
Q 1019 -91 701 211 
Q 384 513 384 1019 
Q 384 1609 779 1909 
Q 1175 2209 1959 2209 
L 2766 2209 
L 2766 2266 
Q 2766 2663 2505 2880 
Q 2244 3097 1772 3097 
Q 1472 3097 1187 3025 
Q 903 2953 641 2809 
L 641 3341 
Q 956 3463 1253 3523 
Q 1550 3584 1831 3584 
Q 2591 3584 2966 3190 
Q 3341 2797 3341 1997 
z
" transform="scale(0.015625)"/>
      </defs>
      <use xlink:href="#DejaVuSans-61"/>
     </g>
    </g>
   </g>
   <g id="text_4">
    <g clip-path="url(#pbc57f9bd94)">
     <!-- b -->
     <g transform="translate(15.195843 64.262843) scale(0.125 -0.125)">
      <defs>
       <path id="DejaVuSans-62" d="M 3116 1747 
Q 3116 2381 2855 2742 
Q 2594 3103 2138 3103 
Q 1681 3103 1420 2742 
Q 1159 2381 1159 1747 
Q 1159 1113 1420 752 
Q 1681 391 2138 391 
Q 2594 391 2855 752 
Q 3116 1113 3116 1747 
z
M 1159 2969 
Q 1341 3281 1617 3432 
Q 1894 3584 2278 3584 
Q 2916 3584 3314 3078 
Q 3713 2572 3713 1747 
Q 3713 922 3314 415 
Q 2916 -91 2278 -91 
Q 1894 -91 1617 61 
Q 1341 213 1159 525 
L 1159 0 
L 581 0 
L 581 4863 
L 1159 4863 
L 1159 2969 
z
" transform="scale(0.015625)"/>
      </defs>
      <use xlink:href="#DejaVuSans-62"/>
     </g>
    </g>
   </g>
   <g id="text_5">
    <g clip-path="url(#pbc57f9bd94)">
     <!-- a -->
     <g transform="translate(15.471234 131.449536) scale(0.125 -0.125)">
      <use xlink:href="#DejaVuSans-61"/>
     </g>
    </g>
   </g>
   <g id="text_6">
    <g clip-path="url(#pbc57f9bd94)">
     <!-- b -->
     <g transform="translate(15.195843 165.042882) scale(0.125 -0.125)">
      <use xlink:href="#DejaVuSans-62"/>
     </g>
    </g>
   </g>
   <g id="text_7">
    <g clip-path="url(#pbc57f9bd94)">
     <!-- c -->
     <g transform="translate(16.258343 198.636229) scale(0.125 -0.125)">
      <use xlink:href="#DejaVuSans-63"/>
     </g>
    </g>
   </g>
   <g id="text_8">
    <g clip-path="url(#pbc57f9bd94)">
     <!-- d -->
     <g transform="translate(140.407408 207.79805) scale(0.125 -0.125)">
      <defs>
       <path id="DejaVuSans-64" d="M 2906 2969 
L 2906 4863 
L 3481 4863 
L 3481 0 
L 2906 0 
L 2906 525 
Q 2725 213 2448 61 
Q 2172 -91 1784 -91 
Q 1150 -91 751 415 
Q 353 922 353 1747 
Q 353 2572 751 3078 
Q 1150 3584 1784 3584 
Q 2172 3584 2448 3432 
Q 2725 3281 2906 2969 
z
M 947 1747 
Q 947 1113 1208 752 
Q 1469 391 1925 391 
Q 2381 391 2643 752 
Q 2906 1113 2906 1747 
Q 2906 2381 2643 2742 
Q 2381 3103 1925 3103 
Q 1469 3103 1208 2742 
Q 947 2381 947 1747 
z
" transform="scale(0.015625)"/>
      </defs>
      <use xlink:href="#DejaVuSans-64"/>
     </g>
    </g>
   </g>
   <g id="text_9">
    <g clip-path="url(#pbc57f9bd94)">
     <!-- d -->
     <g transform="translate(76.274655 232.229575) scale(0.125 -0.125)">
      <use xlink:href="#DejaVuSans-64"/>
     </g>
    </g>
   </g>
  </g>
 </g>
 <defs>
  <clipPath id="pbc57f9bd94">
   <rect x="7.2" y="7.2" width="315.828356" height="239.904"/>
  </clipPath>
 </defs>
</svg>
