<?xml version="1.0" encoding="utf-8" standalone="no"?>
<!DOCTYPE svg PUBLIC "-//W3C//DTD SVG 1.1//EN"
  "http://www.w3.org/Graphics/SVG/1.1/DTD/svg11.dtd">
<svg xmlns:xlink="http://www.w3.org/1999/xlink" width="513.705292pt" height="240.84pt" viewBox="0 0 513.705292 240.84" xmlns="http://www.w3.org/2000/svg" version="1.1">
 <metadata>
  <rdf:RDF xmlns:dc="http://purl.org/dc/elements/1.1/" xmlns:cc="http://creativecommons.org/ns#" xmlns:rdf="http://www.w3.org/1999/02/22-rdf-syntax-ns#">
   <cc:Work>
    <dc:type rdf:resource="http://purl.org/dc/dcmitype/StillImage"/>
    <dc:date>2022-12-21T12:37:32.629409</dc:date>
    <dc:format>image/svg+xml</dc:format>
    <dc:creator>
     <cc:Agent>
      <dc:title>Matplotlib v3.6.2, https://matplotlib.org/</dc:title>
     </cc:Agent>
    </dc:creator>
   </cc:Work>
  </rdf:RDF>
 </metadata>
 <defs>
  <style type="text/css">*{stroke-linejoin: round; stroke-linecap: butt}</style>
 </defs>
 <g id="figure_1">
  <g id="patch_1">
   <path d="M 0 240.84 
L 513.705292 240.84 
L 513.705292 0 
L 0 0 
L 0 240.84 
z
" style="fill: none"/>
  </g>
  <g id="axes_1">
   <g id="patch_2">
    <path d="M 324.708261 169.535753 
C 325.680627 169.535753 326.613298 169.149428 327.300864 168.461861 
C 327.988431 167.774295 328.374756 166.841624 328.374756 165.869258 
C 328.374756 164.896892 327.988431 163.964221 327.300864 163.276655 
C 326.613298 162.589088 325.680627 162.202763 324.708261 162.202763 
C 323.735895 162.202763 322.803224 162.589088 322.115658 163.276655 
C 321.428091 163.964221 321.041766 164.896892 321.041766 165.869258 
C 321.041766 166.841624 321.428091 167.774295 322.115658 168.461861 
C 322.803224 169.149428 323.735895 169.535753 324.708261 169.535753 
L 324.708261 169.535753 
z
" clip-path="url(#p02cd0bb995)" style="fill: none; stroke: #000000; stroke-width: 2; stroke-linejoin: miter"/>
   </g>
   <g id="patch_3">
    <path d="M 202.491769 81.310723 
C 203.464135 81.310723 204.396806 80.924398 205.084372 80.236831 
C 205.771939 79.549265 206.158264 78.616594 206.158264 77.644228 
C 206.158264 76.671862 205.771939 75.739191 205.084372 75.051625 
C 204.396806 74.364058 203.464135 73.977733 202.491769 73.977733 
C 201.519403 73.977733 200.586732 74.364058 199.899166 75.051625 
C 199.211599 75.739191 198.825274 76.671862 198.825274 77.644228 
C 198.825274 78.616594 199.211599 79.549265 199.899166 80.236831 
C 200.586732 80.924398 201.519403 81.310723 202.491769 81.310723 
L 202.491769 81.310723 
z
" clip-path="url(#p02cd0bb995)" style="fill: none; stroke: #000000; stroke-width: 2; stroke-linejoin: miter"/>
   </g>
   <g id="patch_4">
    <path d="M 66.678693 30.89642 
C 67.651058 30.89642 68.58373 30.510095 69.271296 29.822528 
C 69.958862 29.134962 70.345187 28.202291 70.345187 27.229925 
C 70.345187 26.257559 69.958862 25.324888 69.271296 24.637322 
C 68.58373 23.949755 67.651058 23.56343 66.678693 23.56343 
C 65.706327 23.56343 64.773656 23.949755 64.086089 24.637322 
C 63.398523 25.324888 63.012198 26.257559 63.012198 27.229925 
C 63.012198 28.202291 63.398523 29.134962 64.086089 29.822528 
C 64.773656 30.510095 65.706327 30.89642 66.678693 30.89642 
L 66.678693 30.89642 
z
" clip-path="url(#p02cd0bb995)" style="fill: none; stroke: #000000; stroke-width: 2; stroke-linejoin: miter"/>
   </g>
   <g id="patch_5">
    <path d="M 66.678693 98.11549 
C 67.651058 98.11549 68.58373 97.729165 69.271296 97.041599 
C 69.958862 96.354032 70.345187 95.421361 70.345187 94.448996 
C 70.345187 93.47663 69.958862 92.543959 69.271296 91.856392 
C 68.58373 91.168826 67.651058 90.782501 66.678693 90.782501 
C 65.706327 90.782501 64.773656 91.168826 64.086089 91.856392 
C 63.398523 92.543959 63.012198 93.47663 63.012198 94.448996 
C 63.012198 95.421361 63.398523 96.354032 64.086089 97.041599 
C 64.773656 97.729165 65.706327 98.11549 66.678693 98.11549 
L 66.678693 98.11549 
z
" clip-path="url(#p02cd0bb995)" style="fill: none; stroke: #000000; stroke-width: 2; stroke-linejoin: miter"/>
   </g>
   <g id="patch_6">
    <path d="M 202.491769 165.334561 
C 203.464135 165.334561 204.396806 164.948236 205.084372 164.260669 
C 205.771939 163.573103 206.158264 162.640432 206.158264 161.668066 
C 206.158264 160.6957 205.771939 159.763029 205.084372 159.075463 
C 204.396806 158.387896 203.464135 158.001571 202.491769 158.001571 
C 201.519403 158.001571 200.586732 158.387896 199.899166 159.075463 
C 199.211599 159.763029 198.825274 160.6957 198.825274 161.668066 
C 198.825274 162.640432 199.211599 163.573103 199.899166 164.260669 
C 200.586732 164.948236 201.519403 165.334561 202.491769 165.334561 
L 202.491769 165.334561 
z
" clip-path="url(#p02cd0bb995)" style="fill: none; stroke: #000000; stroke-width: 2; stroke-linejoin: miter"/>
   </g>
   <g id="patch_7">
    <path d="M 263.600015 215.748864 
C 264.572381 215.748864 265.505052 215.362539 266.192618 214.674972 
C 266.880185 213.987406 267.26651 213.054735 267.26651 212.082369 
C 267.26651 211.110003 266.880185 210.177332 266.192618 209.489766 
C 265.505052 208.802199 264.572381 208.415874 263.600015 208.415874 
C 262.627649 208.415874 261.694978 208.802199 261.007412 209.489766 
C 260.319845 210.177332 259.93352 211.110003 259.93352 212.082369 
C 259.93352 213.054735 260.319845 213.987406 261.007412 214.674972 
C 261.694978 215.362539 262.627649 215.748864 263.600015 215.748864 
L 263.600015 215.748864 
z
" clip-path="url(#p02cd0bb995)" style="fill: none; stroke: #000000; stroke-width: 2; stroke-linejoin: miter"/>
   </g>
   <g id="line2d_1">
    <path d="M 406.59331 214.450313 
L 423.616322 214.350545 
L 425.362272 214.051239 
L 427.108221 213.552396 
L 428.854171 212.854016 
L 430.600121 211.956099 
L 432.782559 210.553104 
L 434.964996 208.838332 
L 437.147433 206.811783 
L 439.329871 204.473457 
L 441.512308 201.823354 
L 443.258258 199.478793 
L 443.258258 199.478793 
L 440.639333 196.036778 
L 438.456896 193.511386 
L 436.274458 191.297771 
L 434.092021 189.395933 
L 431.909584 187.805871 
L 429.727146 186.527586 
L 427.981196 185.729438 
L 426.235247 185.130826 
L 424.489297 184.731752 
L 422.743347 184.532215 
L 421.870372 184.507273 
L 406.59331 184.507273 
L 406.59331 184.507273 
L 408.793207 186.951603 
L 410.186475 188.78485 
L 411.359754 190.618097 
L 412.313042 192.451345 
L 413.046341 194.284592 
L 413.55965 196.11784 
L 413.85297 197.951087 
L 413.9263 199.784334 
L 413.77964 201.617582 
L 413.412991 203.450829 
L 412.826351 205.284076 
L 412.019723 207.117324 
L 410.993104 208.950571 
L 409.746496 210.783819 
L 408.279898 212.617066 
L 406.59331 214.450313 
L 406.59331 214.450313 
" clip-path="url(#p02cd0bb995)" style="fill: none; stroke: #000000; stroke-width: 2; stroke-linecap: round"/>
   </g>
   <g id="line2d_2">
    <path d="M 395.899367 207.117324 
L 412.019723 207.117324 
" clip-path="url(#p02cd0bb995)" style="fill: none; stroke: #000000; stroke-width: 2; stroke-linecap: round"/>
   </g>
   <g id="line2d_3">
    <path d="M 395.899367 191.840262 
L 412.019723 191.840262 
" clip-path="url(#p02cd0bb995)" style="fill: none; stroke: #000000; stroke-width: 2; stroke-linecap: round"/>
   </g>
   <g id="line2d_4">
    <path d="M 443.258258 199.478793 
L 453.952201 199.478793 
" clip-path="url(#p02cd0bb995)" style="fill: none; stroke: #000000; stroke-width: 2; stroke-linecap: round"/>
   </g>
   <g id="line2d_5">
    <path d="M 345.485064 197.645546 
L 362.508076 197.545777 
L 364.254026 197.246471 
L 365.999976 196.747629 
L 367.745925 196.049249 
L 369.491875 195.151332 
L 371.674313 193.748336 
L 373.85675 192.033564 
L 376.039187 190.007015 
L 378.221625 187.668689 
L 380.404062 185.018587 
L 382.150012 182.674025 
L 382.150012 182.674025 
L 379.531087 179.23201 
L 377.34865 176.706618 
L 375.166212 174.493003 
L 372.983775 172.591165 
L 370.801338 171.001103 
L 368.6189 169.722819 
L 366.872951 168.92467 
L 365.127001 168.326059 
L 363.381051 167.926985 
L 361.635101 167.727447 
L 360.762126 167.702505 
L 345.485064 167.702505 
L 345.485064 167.702505 
L 347.684961 170.146835 
L 349.078229 171.980082 
L 350.251508 173.81333 
L 351.204796 175.646577 
L 351.938095 177.479825 
L 352.451404 179.313072 
L 352.744724 181.146319 
L 352.818054 182.979567 
L 352.671394 184.812814 
L 352.304745 186.646061 
L 351.718106 188.479309 
L 350.911477 190.312556 
L 349.884858 192.145804 
L 348.63825 193.979051 
L 347.171652 195.812298 
L 345.485064 197.645546 
L 345.485064 197.645546 
" clip-path="url(#p02cd0bb995)" style="fill: none; stroke: #000000; stroke-width: 2; stroke-linecap: round"/>
   </g>
   <g id="line2d_6">
    <path d="M 334.791121 190.312556 
L 350.911477 190.312556 
" clip-path="url(#p02cd0bb995)" style="fill: none; stroke: #000000; stroke-width: 2; stroke-linecap: round"/>
   </g>
   <g id="line2d_7">
    <path d="M 334.791121 175.035495 
L 350.911477 175.035495 
" clip-path="url(#p02cd0bb995)" style="fill: none; stroke: #000000; stroke-width: 2; stroke-linecap: round"/>
   </g>
   <g id="line2d_8">
    <path d="M 382.150012 182.674025 
L 392.843955 182.674025 
" clip-path="url(#p02cd0bb995)" style="fill: none; stroke: #000000; stroke-width: 2; stroke-linecap: round"/>
   </g>
   <g id="line2d_9">
    <path d="M 305.764705 181.146319 
L 306.743509 181.114931 
L 307.718292 181.020895 
L 308.685047 180.864597 
L 309.639801 180.646681 
L 310.578632 180.368041 
L 311.497682 180.029822 
L 312.393173 179.633415 
L 313.261427 179.180447 
L 314.098875 178.672781 
L 314.902076 178.112503 
L 315.66773 177.501915 
L 316.39269 176.843525 
L 317.073977 176.14004 
L 317.708792 175.39435 
L 318.294527 174.609519 
L 318.828773 173.788773 
L 319.309337 172.935484 
L 319.734242 172.053158 
L 320.101744 171.145421 
L 320.410332 170.216003 
L 320.658738 169.268724 
L 320.845941 168.307475 
L 320.971173 167.336208 
L 321.033917 166.358912 
L 321.033917 165.379604 
L 320.971173 164.402308 
L 320.845941 163.43104 
L 320.658738 162.469792 
L 320.410332 161.522512 
L 320.101744 160.593095 
L 319.734242 159.685358 
L 319.309337 158.803032 
L 318.828773 157.949743 
L 318.294527 157.128996 
L 317.708792 156.344166 
L 317.073977 155.598476 
L 316.39269 154.894991 
L 315.66773 154.236601 
L 314.902076 153.626013 
L 314.098875 153.065734 
L 313.261427 152.558068 
L 312.393173 152.105101 
L 311.497682 151.708694 
L 310.578632 151.370475 
L 309.639801 151.091835 
L 308.685047 150.873918 
L 307.718292 150.717621 
L 306.743509 150.623585 
L 305.764705 150.592196 
L 305.764705 150.592196 
L 285.904525 150.592196 
L 285.904525 165.869258 
L 285.904525 181.146319 
L 305.764705 181.146319 
" clip-path="url(#p02cd0bb995)" style="fill: none; stroke: #000000; stroke-width: 2; stroke-linecap: round"/>
   </g>
   <g id="line2d_10">
    <path d="M 275.210582 173.507789 
L 285.904525 173.507789 
" clip-path="url(#p02cd0bb995)" style="fill: none; stroke: #000000; stroke-width: 2; stroke-linecap: round"/>
   </g>
   <g id="line2d_11">
    <path d="M 275.210582 158.230727 
L 285.904525 158.230727 
" clip-path="url(#p02cd0bb995)" style="fill: none; stroke: #000000; stroke-width: 2; stroke-linecap: round"/>
   </g>
   <g id="line2d_12">
    <path d="M 328.374756 165.869258 
L 331.735709 165.869258 
" clip-path="url(#p02cd0bb995)" style="fill: none; stroke: #000000; stroke-width: 2; stroke-linecap: round"/>
   </g>
   <g id="line2d_13">
    <path d="M 244.656459 134.933208 
L 245.635263 134.90182 
L 246.610046 134.807784 
L 247.576801 134.651487 
L 248.531555 134.43357 
L 249.470386 134.15493 
L 250.389436 133.816711 
L 251.284927 133.420304 
L 252.153181 132.967336 
L 252.990629 132.45967 
L 253.79383 131.899392 
L 254.559484 131.288804 
L 255.284444 130.630414 
L 255.965731 129.926929 
L 256.600546 129.181239 
L 257.186281 128.396408 
L 257.720527 127.575662 
L 258.201091 126.722373 
L 258.625997 125.840047 
L 258.993499 124.93231 
L 259.302086 124.002892 
L 259.550492 123.055613 
L 259.737696 122.094364 
L 259.862927 121.123097 
L 259.925671 120.145801 
L 259.925671 119.166493 
L 259.862927 118.189197 
L 259.737696 117.21793 
L 259.550492 116.256681 
L 259.302086 115.309401 
L 258.993499 114.379984 
L 258.625997 113.472247 
L 258.201091 112.589921 
L 257.720527 111.736632 
L 257.186281 110.915886 
L 256.600546 110.131055 
L 255.965731 109.385365 
L 255.284444 108.68188 
L 254.559484 108.02349 
L 253.79383 107.412902 
L 252.990629 106.852623 
L 252.153181 106.344958 
L 251.284927 105.89199 
L 250.389436 105.495583 
L 249.470386 105.157364 
L 248.531555 104.878724 
L 247.576801 104.660807 
L 246.610046 104.50451 
L 245.635263 104.410474 
L 244.656459 104.379085 
L 244.656459 104.379085 
L 224.796279 104.379085 
L 224.796279 119.656147 
L 224.796279 134.933208 
L 244.656459 134.933208 
" clip-path="url(#p02cd0bb995)" style="fill: none; stroke: #000000; stroke-width: 2; stroke-linecap: round"/>
   </g>
   <g id="line2d_14">
    <path d="M 214.102336 127.294678 
L 224.796279 127.294678 
" clip-path="url(#p02cd0bb995)" style="fill: none; stroke: #000000; stroke-width: 2; stroke-linecap: round"/>
   </g>
   <g id="line2d_15">
    <path d="M 214.102336 112.017616 
L 224.796279 112.017616 
" clip-path="url(#p02cd0bb995)" style="fill: none; stroke: #000000; stroke-width: 2; stroke-linecap: round"/>
   </g>
   <g id="line2d_16">
    <path d="M 259.93352 119.656147 
L 270.627463 119.656147 
" clip-path="url(#p02cd0bb995)" style="fill: none; stroke: #000000; stroke-width: 2; stroke-linecap: round"/>
   </g>
   <g id="line2d_17">
    <path d="M 183.548213 92.921289 
L 184.527018 92.889901 
L 185.5018 92.795865 
L 186.468555 92.639567 
L 187.42331 92.421651 
L 188.362141 92.143011 
L 189.28119 91.804792 
L 190.176681 91.408385 
L 191.044935 90.955417 
L 191.882383 90.447751 
L 192.685584 89.887473 
L 193.451238 89.276885 
L 194.176198 88.618495 
L 194.857485 87.91501 
L 195.492301 87.16932 
L 196.078035 86.384489 
L 196.612281 85.563743 
L 197.092845 84.710454 
L 197.517751 83.828128 
L 197.885253 82.920391 
L 198.193841 81.990973 
L 198.442247 81.043694 
L 198.62945 80.082445 
L 198.754681 79.111178 
L 198.817425 78.133882 
L 198.817425 77.154574 
L 198.754681 76.177278 
L 198.62945 75.20601 
L 198.442247 74.244762 
L 198.193841 73.297482 
L 197.885253 72.368065 
L 197.517751 71.460328 
L 197.092845 70.578002 
L 196.612281 69.724713 
L 196.078035 68.903967 
L 195.492301 68.119136 
L 194.857485 67.373446 
L 194.176198 66.669961 
L 193.451238 66.011571 
L 192.685584 65.400983 
L 191.882383 64.840704 
L 191.044935 64.333038 
L 190.176681 63.880071 
L 189.28119 63.483664 
L 188.362141 63.145445 
L 187.42331 62.866805 
L 186.468555 62.648888 
L 185.5018 62.492591 
L 184.527018 62.398555 
L 183.548213 62.367166 
L 183.548213 62.367166 
L 163.688033 62.367166 
L 163.688033 77.644228 
L 163.688033 92.921289 
L 183.548213 92.921289 
" clip-path="url(#p02cd0bb995)" style="fill: none; stroke: #000000; stroke-width: 2; stroke-linecap: round"/>
   </g>
   <g id="line2d_18">
    <path d="M 152.99409 85.282759 
L 163.688033 85.282759 
" clip-path="url(#p02cd0bb995)" style="fill: none; stroke: #000000; stroke-width: 2; stroke-linecap: round"/>
   </g>
   <g id="line2d_19">
    <path d="M 152.99409 70.005697 
L 163.688033 70.005697 
" clip-path="url(#p02cd0bb995)" style="fill: none; stroke: #000000; stroke-width: 2; stroke-linecap: round"/>
   </g>
   <g id="line2d_20">
    <path d="M 206.158264 77.644228 
L 209.519217 77.644228 
" clip-path="url(#p02cd0bb995)" style="fill: none; stroke: #000000; stroke-width: 2; stroke-linecap: round"/>
   </g>
   <g id="line2d_21">
    <path d="M 122.439967 59.311754 
L 123.418772 59.280366 
L 124.393554 59.18633 
L 125.360309 59.030032 
L 126.315064 58.812116 
L 127.253895 58.533476 
L 128.172944 58.195257 
L 129.068436 57.798849 
L 129.936689 57.345882 
L 130.774137 56.838216 
L 131.577338 56.277938 
L 132.342992 55.667349 
L 133.067952 55.00896 
L 133.749239 54.305475 
L 134.384055 53.559785 
L 134.969789 52.774954 
L 135.504036 51.954208 
L 135.984599 51.100919 
L 136.409505 50.218593 
L 136.777007 49.310856 
L 137.085595 48.381438 
L 137.334001 47.434159 
L 137.521204 46.47291 
L 137.646435 45.501642 
L 137.709179 44.524347 
L 137.709179 43.545039 
L 137.646435 42.567743 
L 137.521204 41.596475 
L 137.334001 40.635227 
L 137.085595 39.687947 
L 136.777007 38.758529 
L 136.409505 37.850793 
L 135.984599 36.968467 
L 135.504036 36.115178 
L 134.969789 35.294431 
L 134.384055 34.509601 
L 133.749239 33.763911 
L 133.067952 33.060425 
L 132.342992 32.402036 
L 131.577338 31.791447 
L 130.774137 31.231169 
L 129.936689 30.723503 
L 129.068436 30.270536 
L 128.172944 29.874128 
L 127.253895 29.53591 
L 126.315064 29.25727 
L 125.360309 29.039353 
L 124.393554 28.883056 
L 123.418772 28.78902 
L 122.439967 28.757631 
L 122.439967 28.757631 
L 102.579787 28.757631 
L 102.579787 44.034693 
L 102.579787 59.311754 
L 122.439967 59.311754 
" clip-path="url(#p02cd0bb995)" style="fill: none; stroke: #000000; stroke-width: 2; stroke-linecap: round"/>
   </g>
   <g id="line2d_22">
    <path d="M 91.885844 51.673223 
L 102.579787 51.673223 
" clip-path="url(#p02cd0bb995)" style="fill: none; stroke: #000000; stroke-width: 2; stroke-linecap: round"/>
   </g>
   <g id="line2d_23">
    <path d="M 91.885844 36.396162 
L 102.579787 36.396162 
" clip-path="url(#p02cd0bb995)" style="fill: none; stroke: #000000; stroke-width: 2; stroke-linecap: round"/>
   </g>
   <g id="line2d_24">
    <path d="M 137.717028 44.034693 
L 148.410972 44.034693 
" clip-path="url(#p02cd0bb995)" style="fill: none; stroke: #000000; stroke-width: 2; stroke-linecap: round"/>
   </g>
   <g id="line2d_25">
    <path d="M 26.19448 27.229925 
L 43.152018 27.229925 
M 70.345187 27.229925 
L 87.302726 27.229925 
" clip-path="url(#p02cd0bb995)" style="fill: none; stroke: #000000; stroke-width: 2; stroke-linecap: round"/>
   </g>
   <g id="line2d_26">
    <path d="M 43.152018 11.952864 
L 63.012198 27.229925 
L 43.152018 42.506987 
L 43.152018 11.952864 
" clip-path="url(#p02cd0bb995)" style="fill: none; stroke: #000000; stroke-width: 2; stroke-linecap: round"/>
   </g>
   <g id="line2d_27">
    <path d="M 91.885844 36.396162 
L 87.302726 36.396162 
L 87.302726 27.229925 
" clip-path="url(#p02cd0bb995)" style="fill: none; stroke: #000000; stroke-width: 2; stroke-linecap: round"/>
   </g>
   <g id="line2d_28">
    <path d="M 152.99409 70.005697 
L 148.410972 70.005697 
L 148.410972 44.034693 
" clip-path="url(#p02cd0bb995)" style="fill: none; stroke: #000000; stroke-width: 2; stroke-linecap: round"/>
   </g>
   <g id="line2d_29">
    <path d="M 122.439967 126.530825 
L 123.418772 126.499436 
L 124.393554 126.4054 
L 125.360309 126.249103 
L 126.315064 126.031186 
L 127.253895 125.752546 
L 128.172944 125.414327 
L 129.068436 125.01792 
L 129.936689 124.564953 
L 130.774137 124.057287 
L 131.577338 123.497008 
L 132.342992 122.88642 
L 133.067952 122.22803 
L 133.749239 121.524545 
L 134.384055 120.778855 
L 134.969789 119.994025 
L 135.504036 119.173278 
L 135.984599 118.319989 
L 136.409505 117.437663 
L 136.777007 116.529926 
L 137.085595 115.600509 
L 137.334001 114.653229 
L 137.521204 113.691981 
L 137.646435 112.720713 
L 137.709179 111.743417 
L 137.709179 110.764109 
L 137.646435 109.786813 
L 137.521204 108.815546 
L 137.334001 107.854297 
L 137.085595 106.907018 
L 136.777007 105.9776 
L 136.409505 105.069863 
L 135.984599 104.187537 
L 135.504036 103.334248 
L 134.969789 102.513502 
L 134.384055 101.728671 
L 133.749239 100.982981 
L 133.067952 100.279496 
L 132.342992 99.621106 
L 131.577338 99.010518 
L 130.774137 98.45024 
L 129.936689 97.942574 
L 129.068436 97.489606 
L 128.172944 97.093199 
L 127.253895 96.75498 
L 126.315064 96.47634 
L 125.360309 96.258424 
L 124.393554 96.102126 
L 123.418772 96.00809 
L 122.439967 95.976702 
L 122.439967 95.976702 
L 102.579787 95.976702 
L 102.579787 111.253763 
L 102.579787 126.530825 
L 122.439967 126.530825 
" clip-path="url(#p02cd0bb995)" style="fill: none; stroke: #000000; stroke-width: 2; stroke-linecap: round"/>
   </g>
   <g id="line2d_30">
    <path d="M 91.885844 118.892294 
L 102.579787 118.892294 
" clip-path="url(#p02cd0bb995)" style="fill: none; stroke: #000000; stroke-width: 2; stroke-linecap: round"/>
   </g>
   <g id="line2d_31">
    <path d="M 91.885844 103.615232 
L 102.579787 103.615232 
" clip-path="url(#p02cd0bb995)" style="fill: none; stroke: #000000; stroke-width: 2; stroke-linecap: round"/>
   </g>
   <g id="line2d_32">
    <path d="M 137.717028 111.253763 
L 148.410972 111.253763 
" clip-path="url(#p02cd0bb995)" style="fill: none; stroke: #000000; stroke-width: 2; stroke-linecap: round"/>
   </g>
   <g id="line2d_33">
    <path d="M 26.19448 94.448996 
L 43.152018 94.448996 
M 70.345187 94.448996 
L 87.302726 94.448996 
" clip-path="url(#p02cd0bb995)" style="fill: none; stroke: #000000; stroke-width: 2; stroke-linecap: round"/>
   </g>
   <g id="line2d_34">
    <path d="M 43.152018 79.171934 
L 63.012198 94.448996 
L 43.152018 109.726057 
L 43.152018 79.171934 
" clip-path="url(#p02cd0bb995)" style="fill: none; stroke: #000000; stroke-width: 2; stroke-linecap: round"/>
   </g>
   <g id="line2d_35">
    <path d="M 91.885844 103.615232 
L 87.302726 103.615232 
L 87.302726 94.448996 
" clip-path="url(#p02cd0bb995)" style="fill: none; stroke: #000000; stroke-width: 2; stroke-linecap: round"/>
   </g>
   <g id="line2d_36">
    <path d="M 152.99409 85.282759 
L 148.410972 85.282759 
L 148.410972 111.253763 
" clip-path="url(#p02cd0bb995)" style="fill: none; stroke: #000000; stroke-width: 2; stroke-linecap: round"/>
   </g>
   <g id="line2d_37">
    <path d="M 214.102336 112.017616 
L 209.519217 112.017616 
L 209.519217 77.644228 
" clip-path="url(#p02cd0bb995)" style="fill: none; stroke: #000000; stroke-width: 2; stroke-linecap: round"/>
   </g>
   <g id="line2d_38">
    <path d="M 183.548213 176.945127 
L 184.527018 176.913739 
L 185.5018 176.819703 
L 186.468555 176.663406 
L 187.42331 176.445489 
L 188.362141 176.166849 
L 189.28119 175.82863 
L 190.176681 175.432223 
L 191.044935 174.979255 
L 191.882383 174.471589 
L 192.685584 173.911311 
L 193.451238 173.300723 
L 194.176198 172.642333 
L 194.857485 171.938848 
L 195.492301 171.193158 
L 196.078035 170.408327 
L 196.612281 169.587581 
L 197.092845 168.734292 
L 197.517751 167.851966 
L 197.885253 166.944229 
L 198.193841 166.014811 
L 198.442247 165.067532 
L 198.62945 164.106283 
L 198.754681 163.135016 
L 198.817425 162.15772 
L 198.817425 161.178412 
L 198.754681 160.201116 
L 198.62945 159.229849 
L 198.442247 158.2686 
L 198.193841 157.321321 
L 197.885253 156.391903 
L 197.517751 155.484166 
L 197.092845 154.60184 
L 196.612281 153.748551 
L 196.078035 152.927805 
L 195.492301 152.142974 
L 194.857485 151.397284 
L 194.176198 150.693799 
L 193.451238 150.035409 
L 192.685584 149.424821 
L 191.882383 148.864542 
L 191.044935 148.356877 
L 190.176681 147.903909 
L 189.28119 147.507502 
L 188.362141 147.169283 
L 187.42331 146.890643 
L 186.468555 146.672726 
L 185.5018 146.516429 
L 184.527018 146.422393 
L 183.548213 146.391004 
L 183.548213 146.391004 
L 163.688033 146.391004 
L 163.688033 161.668066 
L 163.688033 176.945127 
L 183.548213 176.945127 
" clip-path="url(#p02cd0bb995)" style="fill: none; stroke: #000000; stroke-width: 2; stroke-linecap: round"/>
   </g>
   <g id="line2d_39">
    <path d="M 152.99409 169.306597 
L 163.688033 169.306597 
" clip-path="url(#p02cd0bb995)" style="fill: none; stroke: #000000; stroke-width: 2; stroke-linecap: round"/>
   </g>
   <g id="line2d_40">
    <path d="M 152.99409 154.029535 
L 163.688033 154.029535 
" clip-path="url(#p02cd0bb995)" style="fill: none; stroke: #000000; stroke-width: 2; stroke-linecap: round"/>
   </g>
   <g id="line2d_41">
    <path d="M 206.158264 161.668066 
L 209.519217 161.668066 
" clip-path="url(#p02cd0bb995)" style="fill: none; stroke: #000000; stroke-width: 2; stroke-linecap: round"/>
   </g>
   <g id="line2d_42">
    <path d="M 214.102336 127.294678 
L 209.519217 127.294678 
L 209.519217 161.668066 
" clip-path="url(#p02cd0bb995)" style="fill: none; stroke: #000000; stroke-width: 2; stroke-linecap: round"/>
   </g>
   <g id="line2d_43">
    <path d="M 275.210582 158.230727 
L 270.627463 158.230727 
L 270.627463 119.656147 
" clip-path="url(#p02cd0bb995)" style="fill: none; stroke: #000000; stroke-width: 2; stroke-linecap: round"/>
   </g>
   <g id="line2d_44">
    <path d="M 244.656459 227.35943 
L 245.635263 227.328042 
L 246.610046 227.234006 
L 247.576801 227.077708 
L 248.531555 226.859792 
L 249.470386 226.581152 
L 250.389436 226.242933 
L 251.284927 225.846526 
L 252.153181 225.393558 
L 252.990629 224.885892 
L 253.79383 224.325614 
L 254.559484 223.715026 
L 255.284444 223.056636 
L 255.965731 222.353151 
L 256.600546 221.607461 
L 257.186281 220.82263 
L 257.720527 220.001884 
L 258.201091 219.148595 
L 258.625997 218.266269 
L 258.993499 217.358532 
L 259.302086 216.429114 
L 259.550492 215.481835 
L 259.737696 214.520586 
L 259.862927 213.549318 
L 259.925671 212.572023 
L 259.925671 211.592715 
L 259.862927 210.615419 
L 259.737696 209.644151 
L 259.550492 208.682903 
L 259.302086 207.735623 
L 258.993499 206.806206 
L 258.625997 205.898469 
L 258.201091 205.016143 
L 257.720527 204.162854 
L 257.186281 203.342107 
L 256.600546 202.557277 
L 255.965731 201.811587 
L 255.284444 201.108102 
L 254.559484 200.449712 
L 253.79383 199.839124 
L 252.990629 199.278845 
L 252.153181 198.771179 
L 251.284927 198.318212 
L 250.389436 197.921805 
L 249.470386 197.583586 
L 248.531555 197.304946 
L 247.576801 197.087029 
L 246.610046 196.930732 
L 245.635263 196.836696 
L 244.656459 196.805307 
L 244.656459 196.805307 
L 224.796279 196.805307 
L 224.796279 212.082369 
L 224.796279 227.35943 
L 244.656459 227.35943 
" clip-path="url(#p02cd0bb995)" style="fill: none; stroke: #000000; stroke-width: 2; stroke-linecap: round"/>
   </g>
   <g id="line2d_45">
    <path d="M 214.102336 219.7209 
L 224.796279 219.7209 
" clip-path="url(#p02cd0bb995)" style="fill: none; stroke: #000000; stroke-width: 2; stroke-linecap: round"/>
   </g>
   <g id="line2d_46">
    <path d="M 214.102336 204.443838 
L 224.796279 204.443838 
" clip-path="url(#p02cd0bb995)" style="fill: none; stroke: #000000; stroke-width: 2; stroke-linecap: round"/>
   </g>
   <g id="line2d_47">
    <path d="M 267.26651 212.082369 
L 270.627463 212.082369 
" clip-path="url(#p02cd0bb995)" style="fill: none; stroke: #000000; stroke-width: 2; stroke-linecap: round"/>
   </g>
   <g id="line2d_48">
    <path d="M 275.210582 173.507789 
L 270.627463 173.507789 
L 270.627463 212.082369 
" clip-path="url(#p02cd0bb995)" style="fill: none; stroke: #000000; stroke-width: 2; stroke-linecap: round"/>
   </g>
   <g id="line2d_49">
    <path d="M 334.791121 175.035495 
L 331.735709 175.035495 
L 331.735709 165.869258 
" clip-path="url(#p02cd0bb995)" style="fill: none; stroke: #000000; stroke-width: 2; stroke-linecap: round"/>
   </g>
   <g id="line2d_50">
    <path d="M 395.899367 191.840262 
L 392.843955 191.840262 
L 392.843955 182.674025 
" clip-path="url(#p02cd0bb995)" style="fill: none; stroke: #000000; stroke-width: 2; stroke-linecap: round"/>
   </g>
   <g id="text_1">
    <g clip-path="url(#p02cd0bb995)">
     <!-- output -->
     <g transform="translate(457.007613 202.928012) scale(0.125 -0.125)">
      <defs>
       <path id="DejaVuSans-6f" d="M 1959 3097 
Q 1497 3097 1228 2736 
Q 959 2375 959 1747 
Q 959 1119 1226 758 
Q 1494 397 1959 397 
Q 2419 397 2687 759 
Q 2956 1122 2956 1747 
Q 2956 2369 2687 2733 
Q 2419 3097 1959 3097 
z
M 1959 3584 
Q 2709 3584 3137 3096 
Q 3566 2609 3566 1747 
Q 3566 888 3137 398 
Q 2709 -91 1959 -91 
Q 1206 -91 779 398 
Q 353 888 353 1747 
Q 353 2609 779 3096 
Q 1206 3584 1959 3584 
z
" transform="scale(0.015625)"/>
       <path id="DejaVuSans-75" d="M 544 1381 
L 544 3500 
L 1119 3500 
L 1119 1403 
Q 1119 906 1312 657 
Q 1506 409 1894 409 
Q 2359 409 2629 706 
Q 2900 1003 2900 1516 
L 2900 3500 
L 3475 3500 
L 3475 0 
L 2900 0 
L 2900 538 
Q 2691 219 2414 64 
Q 2138 -91 1772 -91 
Q 1169 -91 856 284 
Q 544 659 544 1381 
z
M 1991 3584 
L 1991 3584 
z
" transform="scale(0.015625)"/>
       <path id="DejaVuSans-74" d="M 1172 4494 
L 1172 3500 
L 2356 3500 
L 2356 3053 
L 1172 3053 
L 1172 1153 
Q 1172 725 1289 603 
Q 1406 481 1766 481 
L 2356 481 
L 2356 0 
L 1766 0 
Q 1100 0 847 248 
Q 594 497 594 1153 
L 594 3053 
L 172 3053 
L 172 3500 
L 594 3500 
L 594 4494 
L 1172 4494 
z
" transform="scale(0.015625)"/>
       <path id="DejaVuSans-70" d="M 1159 525 
L 1159 -1331 
L 581 -1331 
L 581 3500 
L 1159 3500 
L 1159 2969 
Q 1341 3281 1617 3432 
Q 1894 3584 2278 3584 
Q 2916 3584 3314 3078 
Q 3713 2572 3713 1747 
Q 3713 922 3314 415 
Q 2916 -91 2278 -91 
Q 1894 -91 1617 61 
Q 1341 213 1159 525 
z
M 3116 1747 
Q 3116 2381 2855 2742 
Q 2594 3103 2138 3103 
Q 1681 3103 1420 2742 
Q 1159 2381 1159 1747 
Q 1159 1113 1420 752 
Q 1681 391 2138 391 
Q 2594 391 2855 752 
Q 3116 1113 3116 1747 
z
" transform="scale(0.015625)"/>
      </defs>
      <use xlink:href="#DejaVuSans-6f"/>
      <use xlink:href="#DejaVuSans-75" x="61.181641"/>
      <use xlink:href="#DejaVuSans-74" x="124.560547"/>
      <use xlink:href="#DejaVuSans-70" x="163.769531"/>
      <use xlink:href="#DejaVuSans-75" x="227.246094"/>
      <use xlink:href="#DejaVuSans-74" x="290.625"/>
     </g>
    </g>
   </g>
   <g id="text_2">
    <g clip-path="url(#p02cd0bb995)">
     <!-- FALSE -->
     <g transform="translate(355.445518 210.566543) scale(0.125 -0.125)">
      <defs>
       <path id="DejaVuSans-46" d="M 628 4666 
L 3309 4666 
L 3309 4134 
L 1259 4134 
L 1259 2759 
L 3109 2759 
L 3109 2228 
L 1259 2228 
L 1259 0 
L 628 0 
L 628 4666 
z
" transform="scale(0.015625)"/>
       <path id="DejaVuSans-41" d="M 2188 4044 
L 1331 1722 
L 3047 1722 
L 2188 4044 
z
M 1831 4666 
L 2547 4666 
L 4325 0 
L 3669 0 
L 3244 1197 
L 1141 1197 
L 716 0 
L 50 0 
L 1831 4666 
z
" transform="scale(0.015625)"/>
       <path id="DejaVuSans-4c" d="M 628 4666 
L 1259 4666 
L 1259 531 
L 3531 531 
L 3531 0 
L 628 0 
L 628 4666 
z
" transform="scale(0.015625)"/>
       <path id="DejaVuSans-53" d="M 3425 4513 
L 3425 3897 
Q 3066 4069 2747 4153 
Q 2428 4238 2131 4238 
Q 1616 4238 1336 4038 
Q 1056 3838 1056 3469 
Q 1056 3159 1242 3001 
Q 1428 2844 1947 2747 
L 2328 2669 
Q 3034 2534 3370 2195 
Q 3706 1856 3706 1288 
Q 3706 609 3251 259 
Q 2797 -91 1919 -91 
Q 1588 -91 1214 -16 
Q 841 59 441 206 
L 441 856 
Q 825 641 1194 531 
Q 1563 422 1919 422 
Q 2459 422 2753 634 
Q 3047 847 3047 1241 
Q 3047 1584 2836 1778 
Q 2625 1972 2144 2069 
L 1759 2144 
Q 1053 2284 737 2584 
Q 422 2884 422 3419 
Q 422 4038 858 4394 
Q 1294 4750 2059 4750 
Q 2388 4750 2728 4690 
Q 3069 4631 3425 4513 
z
" transform="scale(0.015625)"/>
       <path id="DejaVuSans-45" d="M 628 4666 
L 3578 4666 
L 3578 4134 
L 1259 4134 
L 1259 2753 
L 3481 2753 
L 3481 2222 
L 1259 2222 
L 1259 531 
L 3634 531 
L 3634 0 
L 628 0 
L 628 4666 
z
" transform="scale(0.015625)"/>
      </defs>
      <use xlink:href="#DejaVuSans-46"/>
      <use xlink:href="#DejaVuSans-41" x="48.394531"/>
      <use xlink:href="#DejaVuSans-4c" x="116.802734"/>
      <use xlink:href="#DejaVuSans-53" x="172.515625"/>
      <use xlink:href="#DejaVuSans-45" x="235.992188"/>
     </g>
    </g>
   </g>
   <g id="text_3">
    <g clip-path="url(#p02cd0bb995)">
     <!-- FALSE -->
     <g transform="translate(294.337272 193.761775) scale(0.125 -0.125)">
      <use xlink:href="#DejaVuSans-46"/>
      <use xlink:href="#DejaVuSans-41" x="48.394531"/>
      <use xlink:href="#DejaVuSans-4c" x="116.802734"/>
      <use xlink:href="#DejaVuSans-53" x="172.515625"/>
      <use xlink:href="#DejaVuSans-45" x="235.992188"/>
     </g>
    </g>
   </g>
   <g id="text_4">
    <g clip-path="url(#p02cd0bb995)">
     <!-- b -->
     <g transform="translate(80.894885 55.122442) scale(0.125 -0.125)">
      <defs>
       <path id="DejaVuSans-62" d="M 3116 1747 
Q 3116 2381 2855 2742 
Q 2594 3103 2138 3103 
Q 1681 3103 1420 2742 
Q 1159 2381 1159 1747 
Q 1159 1113 1420 752 
Q 1681 391 2138 391 
Q 2594 391 2855 752 
Q 3116 1113 3116 1747 
z
M 1159 2969 
Q 1341 3281 1617 3432 
Q 1894 3584 2278 3584 
Q 2916 3584 3314 3078 
Q 3713 2572 3713 1747 
Q 3713 922 3314 415 
Q 2916 -91 2278 -91 
Q 1894 -91 1617 61 
Q 1341 213 1159 525 
L 1159 0 
L 581 0 
L 581 4863 
L 1159 4863 
L 1159 2969 
z
" transform="scale(0.015625)"/>
      </defs>
      <use xlink:href="#DejaVuSans-62"/>
     </g>
    </g>
   </g>
   <g id="text_5">
    <g clip-path="url(#p02cd0bb995)">
     <!-- a -->
     <g transform="translate(15.478911 30.679144) scale(0.125 -0.125)">
      <defs>
       <path id="DejaVuSans-61" d="M 2194 1759 
Q 1497 1759 1228 1600 
Q 959 1441 959 1056 
Q 959 750 1161 570 
Q 1363 391 1709 391 
Q 2188 391 2477 730 
Q 2766 1069 2766 1631 
L 2766 1759 
L 2194 1759 
z
M 3341 1997 
L 3341 0 
L 2766 0 
L 2766 531 
Q 2569 213 2275 61 
Q 1981 -91 1556 -91 
Q 1019 -91 701 211 
Q 384 513 384 1019 
Q 384 1609 779 1909 
Q 1175 2209 1959 2209 
L 2766 2209 
L 2766 2266 
Q 2766 2663 2505 2880 
Q 2244 3097 1772 3097 
Q 1472 3097 1187 3025 
Q 903 2953 641 2809 
L 641 3341 
Q 956 3463 1253 3523 
Q 1550 3584 1831 3584 
Q 2591 3584 2966 3190 
Q 3341 2797 3341 1997 
z
" transform="scale(0.015625)"/>
      </defs>
      <use xlink:href="#DejaVuSans-61"/>
     </g>
    </g>
   </g>
   <g id="text_6">
    <g clip-path="url(#p02cd0bb995)">
     <!-- b -->
     <g transform="translate(80.894885 122.341513) scale(0.125 -0.125)">
      <use xlink:href="#DejaVuSans-62"/>
     </g>
    </g>
   </g>
   <g id="text_7">
    <g clip-path="url(#p02cd0bb995)">
     <!-- a -->
     <g transform="translate(15.478911 97.898214) scale(0.125 -0.125)">
      <use xlink:href="#DejaVuSans-61"/>
     </g>
    </g>
   </g>
   <g id="text_8">
    <g clip-path="url(#p02cd0bb995)">
     <!-- c -->
     <g transform="translate(143.065631 157.478754) scale(0.125 -0.125)">
      <defs>
       <path id="DejaVuSans-63" d="M 3122 3366 
L 3122 2828 
Q 2878 2963 2633 3030 
Q 2388 3097 2138 3097 
Q 1578 3097 1268 2742 
Q 959 2388 959 1747 
Q 959 1106 1268 751 
Q 1578 397 2138 397 
Q 2388 397 2633 464 
Q 2878 531 3122 666 
L 3122 134 
Q 2881 22 2623 -34 
Q 2366 -91 2075 -91 
Q 1284 -91 818 406 
Q 353 903 353 1747 
Q 353 2603 823 3093 
Q 1294 3584 2113 3584 
Q 2378 3584 2631 3529 
Q 2884 3475 3122 3366 
z
" transform="scale(0.015625)"/>
      </defs>
      <use xlink:href="#DejaVuSans-63"/>
     </g>
    </g>
   </g>
   <g id="text_9">
    <g clip-path="url(#p02cd0bb995)">
     <!-- FALSE -->
     <g transform="translate(112.54024 172.755815) scale(0.125 -0.125)">
      <use xlink:href="#DejaVuSans-46"/>
      <use xlink:href="#DejaVuSans-41" x="48.394531"/>
      <use xlink:href="#DejaVuSans-4c" x="116.802734"/>
      <use xlink:href="#DejaVuSans-53" x="172.515625"/>
      <use xlink:href="#DejaVuSans-45" x="235.992188"/>
     </g>
    </g>
   </g>
   <g id="text_10">
    <g clip-path="url(#p02cd0bb995)">
     <!-- d -->
     <g transform="translate(203.111377 207.893057) scale(0.125 -0.125)">
      <defs>
       <path id="DejaVuSans-64" d="M 2906 2969 
L 2906 4863 
L 3481 4863 
L 3481 0 
L 2906 0 
L 2906 525 
Q 2725 213 2448 61 
Q 2172 -91 1784 -91 
Q 1150 -91 751 415 
Q 353 922 353 1747 
Q 353 2572 751 3078 
Q 1150 3584 1784 3584 
Q 2172 3584 2448 3432 
Q 2725 3281 2906 2969 
z
M 947 1747 
Q 947 1113 1208 752 
Q 1469 391 1925 391 
Q 2381 391 2643 752 
Q 2906 1113 2906 1747 
Q 2906 2381 2643 2742 
Q 2381 3103 1925 3103 
Q 1469 3103 1208 2742 
Q 947 2381 947 1747 
z
" transform="scale(0.015625)"/>
      </defs>
      <use xlink:href="#DejaVuSans-64"/>
     </g>
    </g>
   </g>
   <g id="text_11">
    <g clip-path="url(#p02cd0bb995)">
     <!-- FALSE -->
     <g transform="translate(173.648486 223.170118) scale(0.125 -0.125)">
      <use xlink:href="#DejaVuSans-46"/>
      <use xlink:href="#DejaVuSans-41" x="48.394531"/>
      <use xlink:href="#DejaVuSans-4c" x="116.802734"/>
      <use xlink:href="#DejaVuSans-53" x="172.515625"/>
      <use xlink:href="#DejaVuSans-45" x="235.992188"/>
     </g>
    </g>
   </g>
  </g>
 </g>
 <defs>
  <clipPath id="p02cd0bb995">
   <rect x="7.2" y="7.2" width="499.305292" height="226.44"/>
  </clipPath>
 </defs>
</svg>
