<?xml version="1.0" encoding="utf-8" standalone="no"?>
<!DOCTYPE svg PUBLIC "-//W3C//DTD SVG 1.1//EN"
  "http://www.w3.org/Graphics/SVG/1.1/DTD/svg11.dtd">
<svg xmlns:xlink="http://www.w3.org/1999/xlink" width="513.639405pt" height="181.476pt" viewBox="0 0 513.639405 181.476" xmlns="http://www.w3.org/2000/svg" version="1.1">
 <metadata>
  <rdf:RDF xmlns:dc="http://purl.org/dc/elements/1.1/" xmlns:cc="http://creativecommons.org/ns#" xmlns:rdf="http://www.w3.org/1999/02/22-rdf-syntax-ns#">
   <cc:Work>
    <dc:type rdf:resource="http://purl.org/dc/dcmitype/StillImage"/>
    <dc:date>2022-12-21T12:37:33.102305</dc:date>
    <dc:format>image/svg+xml</dc:format>
    <dc:creator>
     <cc:Agent>
      <dc:title>Matplotlib v3.6.2, https://matplotlib.org/</dc:title>
     </cc:Agent>
    </dc:creator>
   </cc:Work>
  </rdf:RDF>
 </metadata>
 <defs>
  <style type="text/css">*{stroke-linejoin: round; stroke-linecap: butt}</style>
 </defs>
 <g id="figure_1">
  <g id="patch_1">
   <path d="M 0 181.476 
L 513.639405 181.476 
L 513.639405 0 
L 0 0 
L 0 181.476 
z
" style="fill: none"/>
  </g>
  <g id="axes_1">
   <g id="patch_2">
    <path d="M 324.406448 122.708494 
C 325.380076 122.708494 326.313958 122.321668 327.002416 121.633209 
C 327.690875 120.94475 328.077701 120.010869 328.077701 119.037241 
C 328.077701 118.063613 327.690875 117.129732 327.002416 116.441273 
C 326.313958 115.752815 325.380076 115.365988 324.406448 115.365988 
C 323.432821 115.365988 322.498939 115.752815 321.810481 116.441273 
C 321.122022 117.129732 320.735196 118.063613 320.735196 119.037241 
C 320.735196 120.010869 321.122022 120.94475 321.810481 121.633209 
C 322.498939 122.321668 323.432821 122.708494 324.406448 122.708494 
L 324.406448 122.708494 
z
" clip-path="url(#p07b44789a1)" style="fill: none; stroke: #000000; stroke-width: 2; stroke-linejoin: miter"/>
   </g>
   <g id="patch_3">
    <path d="M 263.2189 89.055342 
C 264.192528 89.055342 265.126409 88.668516 265.814868 87.980057 
C 266.503327 87.291599 266.890153 86.357717 266.890153 85.38409 
C 266.890153 84.410462 266.503327 83.47658 265.814868 82.788122 
C 265.126409 82.099663 264.192528 81.712837 263.2189 81.712837 
C 262.245272 81.712837 261.311391 82.099663 260.622932 82.788122 
C 259.934474 83.47658 259.547647 84.410462 259.547647 85.38409 
C 259.547647 86.357717 259.934474 87.291599 260.622932 87.980057 
C 261.311391 88.668516 262.245272 89.055342 263.2189 89.055342 
L 263.2189 89.055342 
z
" clip-path="url(#p07b44789a1)" style="fill: none; stroke: #000000; stroke-width: 2; stroke-linejoin: miter"/>
   </g>
   <g id="patch_4">
    <path d="M 66.042026 122.708494 
C 67.015653 122.708494 67.949535 122.321668 68.637993 121.633209 
C 69.326452 120.94475 69.713279 120.010869 69.713279 119.037241 
C 69.713279 118.063613 69.326452 117.129732 68.637993 116.441273 
C 67.949535 115.752815 67.015653 115.365988 66.042026 115.365988 
C 65.068398 115.365988 64.134517 115.752815 63.446058 116.441273 
C 62.757599 117.129732 62.370773 118.063613 62.370773 119.037241 
C 62.370773 120.010869 62.757599 120.94475 63.446058 121.633209 
C 64.134517 122.321668 65.068398 122.708494 66.042026 122.708494 
L 66.042026 122.708494 
z
" clip-path="url(#p07b44789a1)" style="fill: none; stroke: #000000; stroke-width: 2; stroke-linejoin: miter"/>
   </g>
   <g id="patch_5">
    <path d="M 263.2189 156.361646 
C 264.192528 156.361646 265.126409 155.974819 265.814868 155.28636 
C 266.503327 154.597902 266.890153 153.66402 266.890153 152.690393 
C 266.890153 151.716765 266.503327 150.782884 265.814868 150.094425 
C 265.126409 149.405966 264.192528 149.01914 263.2189 149.01914 
C 262.245272 149.01914 261.311391 149.405966 260.622932 150.094425 
C 259.934474 150.782884 259.547647 151.716765 259.547647 152.690393 
C 259.547647 153.66402 259.934474 154.597902 260.622932 155.28636 
C 261.311391 155.974819 262.245272 156.361646 263.2189 156.361646 
L 263.2189 156.361646 
z
" clip-path="url(#p07b44789a1)" style="fill: none; stroke: #000000; stroke-width: 2; stroke-linejoin: miter"/>
   </g>
   <g id="line2d_1">
    <path d="M 406.397763 167.681342 
L 423.442866 167.581444 
L 425.191082 167.28175 
L 426.939297 166.78226 
L 428.687513 166.082973 
L 430.435729 165.183891 
L 432.620998 163.779075 
L 434.806268 162.062077 
L 436.991537 160.032898 
L 439.176807 157.691538 
L 441.362077 155.037997 
L 443.110292 152.690393 
L 443.110292 152.690393 
L 440.487969 149.24391 
L 438.302699 146.715241 
L 436.11743 144.498754 
L 433.93216 142.594447 
L 431.74689 141.002322 
L 429.561621 139.722379 
L 427.813405 138.923194 
L 426.065189 138.323806 
L 424.316974 137.924214 
L 422.568758 137.724418 
L 421.69465 137.699443 
L 406.397763 137.699443 
L 406.397763 137.699443 
L 408.600515 140.146945 
L 409.995591 141.982572 
L 411.170392 143.818198 
L 412.124918 145.653825 
L 412.859168 147.489451 
L 413.373144 149.325078 
L 413.666844 151.160704 
L 413.740269 152.99633 
L 413.593419 154.831957 
L 413.226294 156.667583 
L 412.638893 158.50321 
L 411.831217 160.338836 
L 410.803267 162.174463 
L 409.555041 164.010089 
L 408.08654 165.845716 
L 406.397763 167.681342 
L 406.397763 167.681342 
" clip-path="url(#p07b44789a1)" style="fill: none; stroke: #000000; stroke-width: 2; stroke-linecap: round"/>
   </g>
   <g id="line2d_2">
    <path d="M 395.689942 160.338836 
L 411.831217 160.338836 
" clip-path="url(#p07b44789a1)" style="fill: none; stroke: #000000; stroke-width: 2; stroke-linecap: round"/>
   </g>
   <g id="line2d_3">
    <path d="M 395.689942 145.041949 
L 411.831217 145.041949 
" clip-path="url(#p07b44789a1)" style="fill: none; stroke: #000000; stroke-width: 2; stroke-linecap: round"/>
   </g>
   <g id="line2d_4">
    <path d="M 443.110292 152.690393 
L 453.818113 152.690393 
" clip-path="url(#p07b44789a1)" style="fill: none; stroke: #000000; stroke-width: 2; stroke-linecap: round"/>
   </g>
   <g id="line2d_5">
    <path d="M 366.625857 151.160704 
L 367.605932 151.129275 
L 368.581979 151.035117 
L 369.549989 150.878616 
L 370.505982 150.660417 
L 371.446032 150.381415 
L 372.366274 150.042758 
L 373.262927 149.645836 
L 374.132308 149.192281 
L 374.970843 148.683956 
L 375.775086 148.122951 
L 376.541733 147.51157 
L 377.267634 146.852326 
L 377.949806 146.147928 
L 378.585445 145.40127 
L 379.171939 144.615421 
L 379.706879 143.793609 
L 380.188066 142.939213 
L 380.613523 142.055742 
L 380.981502 141.146827 
L 381.290491 140.216203 
L 381.539219 139.267694 
L 381.726665 138.305198 
L 381.852059 137.33267 
L 381.914885 136.354106 
L 381.914885 135.373528 
L 381.852059 134.394964 
L 381.726665 133.422435 
L 381.539219 132.459939 
L 381.290491 131.511431 
L 380.981502 130.580807 
L 380.613523 129.671892 
L 380.188066 128.788421 
L 379.706879 127.934024 
L 379.171939 127.112213 
L 378.585445 126.326364 
L 377.949806 125.579706 
L 377.267634 124.875308 
L 376.541733 124.216064 
L 375.775086 123.604683 
L 374.970843 123.043678 
L 374.132308 122.535353 
L 373.262927 122.081798 
L 372.366274 121.684876 
L 371.446032 121.346218 
L 370.505982 121.067217 
L 369.549989 120.849017 
L 368.581979 120.692517 
L 367.605932 120.598359 
L 366.625857 120.56693 
L 366.625857 120.56693 
L 346.739904 120.56693 
L 346.739904 135.863817 
L 346.739904 151.160704 
L 366.625857 151.160704 
" clip-path="url(#p07b44789a1)" style="fill: none; stroke: #000000; stroke-width: 2; stroke-linecap: round"/>
   </g>
   <g id="line2d_6">
    <path d="M 336.032083 143.51226 
L 346.739904 143.51226 
" clip-path="url(#p07b44789a1)" style="fill: none; stroke: #000000; stroke-width: 2; stroke-linecap: round"/>
   </g>
   <g id="line2d_7">
    <path d="M 336.032083 128.215373 
L 346.739904 128.215373 
" clip-path="url(#p07b44789a1)" style="fill: none; stroke: #000000; stroke-width: 2; stroke-linecap: round"/>
   </g>
   <g id="line2d_8">
    <path d="M 381.922744 135.863817 
L 392.630565 135.863817 
" clip-path="url(#p07b44789a1)" style="fill: none; stroke: #000000; stroke-width: 2; stroke-linecap: round"/>
   </g>
   <g id="line2d_9">
    <path d="M 305.438308 134.334128 
L 306.418383 134.302699 
L 307.394431 134.208541 
L 308.36244 134.052041 
L 309.318434 133.833841 
L 310.258483 133.55484 
L 311.178725 133.216182 
L 312.075379 132.81926 
L 312.944759 132.365705 
L 313.783294 131.85738 
L 314.587538 131.296375 
L 315.354185 130.684994 
L 316.080086 130.02575 
L 316.762257 129.321352 
L 317.397896 128.574694 
L 317.984391 127.788845 
L 318.519331 126.967034 
L 319.000518 126.112637 
L 319.425975 125.229166 
L 319.793954 124.320251 
L 320.102942 123.389627 
L 320.351671 122.441119 
L 320.539117 121.478623 
L 320.66451 120.506094 
L 320.727336 119.52753 
L 320.727336 118.546952 
L 320.66451 117.568388 
L 320.539117 116.59586 
L 320.351671 115.633363 
L 320.102942 114.684855 
L 319.793954 113.754231 
L 319.425975 112.845316 
L 319.000518 111.961845 
L 318.519331 111.107449 
L 317.984391 110.285637 
L 317.397896 109.499788 
L 316.762257 108.75313 
L 316.080086 108.048732 
L 315.354185 107.389488 
L 314.587538 106.778107 
L 313.783294 106.217102 
L 312.944759 105.708777 
L 312.075379 105.255222 
L 311.178725 104.8583 
L 310.258483 104.519643 
L 309.318434 104.240641 
L 308.36244 104.022442 
L 307.394431 103.865941 
L 306.418383 103.771783 
L 305.438308 103.740354 
L 305.438308 103.740354 
L 285.552355 103.740354 
L 285.552355 119.037241 
L 285.552355 134.334128 
L 305.438308 134.334128 
" clip-path="url(#p07b44789a1)" style="fill: none; stroke: #000000; stroke-width: 2; stroke-linecap: round"/>
   </g>
   <g id="line2d_10">
    <path d="M 274.844534 126.685685 
L 285.552355 126.685685 
" clip-path="url(#p07b44789a1)" style="fill: none; stroke: #000000; stroke-width: 2; stroke-linecap: round"/>
   </g>
   <g id="line2d_11">
    <path d="M 274.844534 111.388798 
L 285.552355 111.388798 
" clip-path="url(#p07b44789a1)" style="fill: none; stroke: #000000; stroke-width: 2; stroke-linecap: round"/>
   </g>
   <g id="line2d_12">
    <path d="M 328.077701 119.037241 
L 331.443016 119.037241 
" clip-path="url(#p07b44789a1)" style="fill: none; stroke: #000000; stroke-width: 2; stroke-linecap: round"/>
   </g>
   <g id="line2d_13">
    <path d="M 222.835118 100.375039 
L 239.880221 100.275141 
L 241.628437 99.975447 
L 243.376652 99.475957 
L 245.124868 98.77667 
L 246.873084 97.877588 
L 249.058353 96.472772 
L 251.243623 94.755774 
L 253.428892 92.726595 
L 255.614162 90.385235 
L 257.799432 87.731693 
L 259.547647 85.38409 
L 259.547647 85.38409 
L 256.925324 81.937607 
L 254.740054 79.408938 
L 252.554785 77.19245 
L 250.369515 75.288144 
L 248.184245 73.696019 
L 245.998976 72.416075 
L 244.25076 71.616891 
L 242.502544 71.017503 
L 240.754329 70.617911 
L 239.006113 70.418115 
L 238.132005 70.39314 
L 222.835118 70.39314 
L 225.03787 72.840642 
L 226.432946 74.676269 
L 227.607747 76.511895 
L 228.562273 78.347521 
L 229.296523 80.183148 
L 229.810499 82.018774 
L 230.104199 83.854401 
L 230.177624 85.690027 
L 230.030774 87.525654 
L 229.663649 89.36128 
L 229.076248 91.196907 
L 228.268573 93.032533 
L 227.240622 94.86816 
L 225.992396 96.703786 
L 224.523895 98.539412 
L 222.835118 100.375039 
L 222.835118 100.375039 
" clip-path="url(#p07b44789a1)" style="fill: none; stroke: #000000; stroke-width: 2; stroke-linecap: round"/>
   </g>
   <g id="line2d_14">
    <path d="M 212.127297 93.032533 
L 228.268573 93.032533 
" clip-path="url(#p07b44789a1)" style="fill: none; stroke: #000000; stroke-width: 2; stroke-linecap: round"/>
   </g>
   <g id="line2d_15">
    <path d="M 212.127297 77.735646 
L 228.268573 77.735646 
" clip-path="url(#p07b44789a1)" style="fill: none; stroke: #000000; stroke-width: 2; stroke-linecap: round"/>
   </g>
   <g id="line2d_16">
    <path d="M 266.890153 85.38409 
L 270.255468 85.38409 
" clip-path="url(#p07b44789a1)" style="fill: none; stroke: #000000; stroke-width: 2; stroke-linecap: round"/>
   </g>
   <g id="line2d_17">
    <path d="M 183.063212 83.854401 
L 184.043287 83.822972 
L 185.019334 83.728814 
L 185.987344 83.572313 
L 186.943337 83.354114 
L 187.883387 83.075112 
L 188.803629 82.736455 
L 189.700282 82.339533 
L 190.569663 81.885978 
L 191.408198 81.377653 
L 192.212441 80.816647 
L 192.979088 80.205267 
L 193.704989 79.546023 
L 194.387161 78.841625 
L 195.0228 78.094967 
L 195.609294 77.309118 
L 196.144234 76.487306 
L 196.625421 75.63291 
L 197.050878 74.749439 
L 197.418857 73.840524 
L 197.727846 72.9099 
L 197.976574 71.961391 
L 198.16402 70.998895 
L 198.289414 70.026367 
L 198.35224 69.047803 
L 198.35224 68.067224 
L 198.289414 67.08866 
L 198.16402 66.116132 
L 197.976574 65.153636 
L 197.727846 64.205127 
L 197.418857 63.274503 
L 197.050878 62.365589 
L 196.625421 61.482118 
L 196.144234 60.627721 
L 195.609294 59.80591 
L 195.0228 59.020061 
L 194.387161 58.273403 
L 193.704989 57.569005 
L 192.979088 56.909761 
L 192.212441 56.29838 
L 191.408198 55.737375 
L 190.569663 55.22905 
L 189.700282 54.775495 
L 188.803629 54.378573 
L 187.883387 54.039915 
L 186.943337 53.760913 
L 185.987344 53.542714 
L 185.019334 53.386214 
L 184.043287 53.292056 
L 183.063212 53.260627 
L 183.063212 53.260627 
L 163.177259 53.260627 
L 163.177259 68.557514 
L 163.177259 83.854401 
L 183.063212 83.854401 
" clip-path="url(#p07b44789a1)" style="fill: none; stroke: #000000; stroke-width: 2; stroke-linecap: round"/>
   </g>
   <g id="line2d_18">
    <path d="M 152.469438 76.205957 
L 163.177259 76.205957 
" clip-path="url(#p07b44789a1)" style="fill: none; stroke: #000000; stroke-width: 2; stroke-linecap: round"/>
   </g>
   <g id="line2d_19">
    <path d="M 152.469438 60.90907 
L 163.177259 60.90907 
" clip-path="url(#p07b44789a1)" style="fill: none; stroke: #000000; stroke-width: 2; stroke-linecap: round"/>
   </g>
   <g id="line2d_20">
    <path d="M 198.360099 68.557514 
L 209.06792 68.557514 
" clip-path="url(#p07b44789a1)" style="fill: none; stroke: #000000; stroke-width: 2; stroke-linecap: round"/>
   </g>
   <g id="line2d_21">
    <path d="M 100.460022 49.895311 
L 117.505124 49.795413 
L 119.25334 49.495719 
L 121.001556 48.996229 
L 122.749771 48.296943 
L 124.497987 47.397861 
L 126.683257 45.993044 
L 128.868526 44.276047 
L 131.053796 42.246868 
L 133.239065 39.905508 
L 135.424335 37.251966 
L 137.172551 34.904362 
L 137.172551 34.904362 
L 134.550227 31.45788 
L 132.364957 28.929211 
L 130.179688 26.712723 
L 127.994418 24.808417 
L 125.809149 23.216292 
L 123.623879 21.936348 
L 121.875663 21.137164 
L 120.127448 20.537776 
L 118.379232 20.138183 
L 116.631016 19.938387 
L 115.756909 19.913413 
L 100.460022 19.913413 
L 100.460022 19.913413 
L 102.662773 22.360915 
L 104.057849 24.196541 
L 105.23265 26.032168 
L 106.187176 27.867794 
L 106.921427 29.703421 
L 107.435402 31.539047 
L 107.729102 33.374673 
L 107.802527 35.2103 
L 107.655677 37.045926 
L 107.288552 38.881553 
L 106.701151 40.717179 
L 105.893476 42.552806 
L 104.865525 44.388432 
L 103.617299 46.224059 
L 102.148798 48.059685 
L 100.460022 49.895311 
L 100.460022 49.895311 
" clip-path="url(#p07b44789a1)" style="fill: none; stroke: #000000; stroke-width: 2; stroke-linecap: round"/>
   </g>
   <g id="line2d_22">
    <path d="M 89.752201 42.552806 
L 105.893476 42.552806 
" clip-path="url(#p07b44789a1)" style="fill: none; stroke: #000000; stroke-width: 2; stroke-linecap: round"/>
   </g>
   <g id="line2d_23">
    <path d="M 89.752201 27.255919 
L 105.893476 27.255919 
" clip-path="url(#p07b44789a1)" style="fill: none; stroke: #000000; stroke-width: 2; stroke-linecap: round"/>
   </g>
   <g id="line2d_24">
    <path d="M 137.172551 34.904362 
L 147.880372 34.904362 
" clip-path="url(#p07b44789a1)" style="fill: none; stroke: #000000; stroke-width: 2; stroke-linecap: round"/>
   </g>
   <g id="line2d_25">
    <path d="M 152.469438 60.90907 
L 147.880372 60.90907 
L 147.880372 34.904362 
" clip-path="url(#p07b44789a1)" style="fill: none; stroke: #000000; stroke-width: 2; stroke-linecap: round"/>
   </g>
   <g id="line2d_26">
    <path d="M 100.460022 117.201615 
L 117.505124 117.101717 
L 119.25334 116.802022 
L 121.001556 116.302532 
L 122.749771 115.603246 
L 124.497987 114.704164 
L 126.683257 113.299348 
L 128.868526 111.58235 
L 131.053796 109.553171 
L 133.239065 107.211811 
L 135.424335 104.558269 
L 137.172551 102.210665 
L 137.172551 102.210665 
L 134.550227 98.764183 
L 132.364957 96.235514 
L 130.179688 94.019026 
L 127.994418 92.11472 
L 125.809149 90.522595 
L 123.623879 89.242651 
L 121.875663 88.443467 
L 120.127448 87.844079 
L 118.379232 87.444487 
L 116.631016 87.24469 
L 115.756909 87.219716 
L 100.460022 87.219716 
L 100.460022 87.219716 
L 102.662773 89.667218 
L 104.057849 91.502844 
L 105.23265 93.338471 
L 106.187176 95.174097 
L 106.921427 97.009724 
L 107.435402 98.84535 
L 107.729102 100.680977 
L 107.802527 102.516603 
L 107.655677 104.35223 
L 107.288552 106.187856 
L 106.701151 108.023482 
L 105.893476 109.859109 
L 104.865525 111.694735 
L 103.617299 113.530362 
L 102.148798 115.365988 
L 100.460022 117.201615 
L 100.460022 117.201615 
" clip-path="url(#p07b44789a1)" style="fill: none; stroke: #000000; stroke-width: 2; stroke-linecap: round"/>
   </g>
   <g id="line2d_27">
    <path d="M 89.752201 109.859109 
L 105.893476 109.859109 
" clip-path="url(#p07b44789a1)" style="fill: none; stroke: #000000; stroke-width: 2; stroke-linecap: round"/>
   </g>
   <g id="line2d_28">
    <path d="M 89.752201 94.562222 
L 105.893476 94.562222 
" clip-path="url(#p07b44789a1)" style="fill: none; stroke: #000000; stroke-width: 2; stroke-linecap: round"/>
   </g>
   <g id="line2d_29">
    <path d="M 137.172551 102.210665 
L 147.880372 102.210665 
" clip-path="url(#p07b44789a1)" style="fill: none; stroke: #000000; stroke-width: 2; stroke-linecap: round"/>
   </g>
   <g id="line2d_30">
    <path d="M 25.505275 119.037241 
L 42.48482 119.037241 
M 69.713279 119.037241 
L 86.692823 119.037241 
" clip-path="url(#p07b44789a1)" style="fill: none; stroke: #000000; stroke-width: 2; stroke-linecap: round"/>
   </g>
   <g id="line2d_31">
    <path d="M 42.48482 103.740354 
L 62.370773 119.037241 
L 42.48482 134.334128 
L 42.48482 103.740354 
" clip-path="url(#p07b44789a1)" style="fill: none; stroke: #000000; stroke-width: 2; stroke-linecap: round"/>
   </g>
   <g id="line2d_32">
    <path d="M 89.752201 109.859109 
L 86.692823 109.859109 
L 86.692823 119.037241 
" clip-path="url(#p07b44789a1)" style="fill: none; stroke: #000000; stroke-width: 2; stroke-linecap: round"/>
   </g>
   <g id="line2d_33">
    <path d="M 152.469438 76.205957 
L 147.880372 76.205957 
L 147.880372 102.210665 
" clip-path="url(#p07b44789a1)" style="fill: none; stroke: #000000; stroke-width: 2; stroke-linecap: round"/>
   </g>
   <g id="line2d_34">
    <path d="M 212.127297 77.735646 
L 209.06792 77.735646 
L 209.06792 68.557514 
" clip-path="url(#p07b44789a1)" style="fill: none; stroke: #000000; stroke-width: 2; stroke-linecap: round"/>
   </g>
   <g id="line2d_35">
    <path d="M 274.844534 111.388798 
L 270.255468 111.388798 
L 270.255468 85.38409 
" clip-path="url(#p07b44789a1)" style="fill: none; stroke: #000000; stroke-width: 2; stroke-linecap: round"/>
   </g>
   <g id="line2d_36">
    <path d="M 244.25076 167.98728 
L 245.230835 167.955851 
L 246.206883 167.861693 
L 247.174892 167.705192 
L 248.130886 167.486993 
L 249.070935 167.207991 
L 249.991177 166.869334 
L 250.887831 166.472412 
L 251.757211 166.018857 
L 252.595746 165.510532 
L 253.399989 164.949526 
L 254.166637 164.338146 
L 254.892538 163.678902 
L 255.574709 162.974503 
L 256.210348 162.227846 
L 256.796842 161.441997 
L 257.331782 160.620185 
L 257.81297 159.765789 
L 258.238427 158.882318 
L 258.606406 157.973403 
L 258.915394 157.042779 
L 259.164122 156.09427 
L 259.351568 155.131774 
L 259.476962 154.159246 
L 259.539788 153.180682 
L 259.539788 152.200103 
L 259.476962 151.221539 
L 259.351568 150.249011 
L 259.164122 149.286515 
L 258.915394 148.338006 
L 258.606406 147.407382 
L 258.238427 146.498468 
L 257.81297 145.614997 
L 257.331782 144.7606 
L 256.796842 143.938789 
L 256.210348 143.15294 
L 255.574709 142.406282 
L 254.892538 141.701884 
L 254.166637 141.04264 
L 253.399989 140.431259 
L 252.595746 139.870254 
L 251.757211 139.361929 
L 250.887831 138.908374 
L 249.991177 138.511452 
L 249.070935 138.172794 
L 248.130886 137.893792 
L 247.174892 137.675593 
L 246.206883 137.519093 
L 245.230835 137.424935 
L 244.25076 137.393506 
L 244.25076 137.393506 
L 224.364807 137.393506 
L 224.364807 152.690393 
L 224.364807 167.98728 
L 244.25076 167.98728 
" clip-path="url(#p07b44789a1)" style="fill: none; stroke: #000000; stroke-width: 2; stroke-linecap: round"/>
   </g>
   <g id="line2d_37">
    <path d="M 213.656986 160.338836 
L 224.364807 160.338836 
" clip-path="url(#p07b44789a1)" style="fill: none; stroke: #000000; stroke-width: 2; stroke-linecap: round"/>
   </g>
   <g id="line2d_38">
    <path d="M 213.656986 145.041949 
L 224.364807 145.041949 
" clip-path="url(#p07b44789a1)" style="fill: none; stroke: #000000; stroke-width: 2; stroke-linecap: round"/>
   </g>
   <g id="line2d_39">
    <path d="M 266.890153 152.690393 
L 270.255468 152.690393 
" clip-path="url(#p07b44789a1)" style="fill: none; stroke: #000000; stroke-width: 2; stroke-linecap: round"/>
   </g>
   <g id="line2d_40">
    <path d="M 274.844534 126.685685 
L 270.255468 126.685685 
L 270.255468 152.690393 
" clip-path="url(#p07b44789a1)" style="fill: none; stroke: #000000; stroke-width: 2; stroke-linecap: round"/>
   </g>
   <g id="line2d_41">
    <path d="M 336.032083 128.215373 
L 331.443016 128.215373 
L 331.443016 119.037241 
" clip-path="url(#p07b44789a1)" style="fill: none; stroke: #000000; stroke-width: 2; stroke-linecap: round"/>
   </g>
   <g id="line2d_42">
    <path d="M 395.689942 145.041949 
L 392.630565 145.041949 
L 392.630565 135.863817 
" clip-path="url(#p07b44789a1)" style="fill: none; stroke: #000000; stroke-width: 2; stroke-linecap: round"/>
   </g>
   <g id="text_1">
    <g clip-path="url(#p07b44789a1)">
     <!-- output -->
     <g transform="translate(456.877491 156.139611) scale(0.125 -0.125)">
      <defs>
       <path id="DejaVuSans-6f" d="M 1959 3097 
Q 1497 3097 1228 2736 
Q 959 2375 959 1747 
Q 959 1119 1226 758 
Q 1494 397 1959 397 
Q 2419 397 2687 759 
Q 2956 1122 2956 1747 
Q 2956 2369 2687 2733 
Q 2419 3097 1959 3097 
z
M 1959 3584 
Q 2709 3584 3137 3096 
Q 3566 2609 3566 1747 
Q 3566 888 3137 398 
Q 2709 -91 1959 -91 
Q 1206 -91 779 398 
Q 353 888 353 1747 
Q 353 2609 779 3096 
Q 1206 3584 1959 3584 
z
" transform="scale(0.015625)"/>
       <path id="DejaVuSans-75" d="M 544 1381 
L 544 3500 
L 1119 3500 
L 1119 1403 
Q 1119 906 1312 657 
Q 1506 409 1894 409 
Q 2359 409 2629 706 
Q 2900 1003 2900 1516 
L 2900 3500 
L 3475 3500 
L 3475 0 
L 2900 0 
L 2900 538 
Q 2691 219 2414 64 
Q 2138 -91 1772 -91 
Q 1169 -91 856 284 
Q 544 659 544 1381 
z
M 1991 3584 
L 1991 3584 
z
" transform="scale(0.015625)"/>
       <path id="DejaVuSans-74" d="M 1172 4494 
L 1172 3500 
L 2356 3500 
L 2356 3053 
L 1172 3053 
L 1172 1153 
Q 1172 725 1289 603 
Q 1406 481 1766 481 
L 2356 481 
L 2356 0 
L 1766 0 
Q 1100 0 847 248 
Q 594 497 594 1153 
L 594 3053 
L 172 3053 
L 172 3500 
L 594 3500 
L 594 4494 
L 1172 4494 
z
" transform="scale(0.015625)"/>
       <path id="DejaVuSans-70" d="M 1159 525 
L 1159 -1331 
L 581 -1331 
L 581 3500 
L 1159 3500 
L 1159 2969 
Q 1341 3281 1617 3432 
Q 1894 3584 2278 3584 
Q 2916 3584 3314 3078 
Q 3713 2572 3713 1747 
Q 3713 922 3314 415 
Q 2916 -91 2278 -91 
Q 1894 -91 1617 61 
Q 1341 213 1159 525 
z
M 3116 1747 
Q 3116 2381 2855 2742 
Q 2594 3103 2138 3103 
Q 1681 3103 1420 2742 
Q 1159 2381 1159 1747 
Q 1159 1113 1420 752 
Q 1681 391 2138 391 
Q 2594 391 2855 752 
Q 3116 1113 3116 1747 
z
" transform="scale(0.015625)"/>
      </defs>
      <use xlink:href="#DejaVuSans-6f"/>
      <use xlink:href="#DejaVuSans-75" x="61.181641"/>
      <use xlink:href="#DejaVuSans-74" x="124.560547"/>
      <use xlink:href="#DejaVuSans-70" x="163.769531"/>
      <use xlink:href="#DejaVuSans-75" x="227.246094"/>
      <use xlink:href="#DejaVuSans-74" x="290.625"/>
     </g>
    </g>
   </g>
   <g id="text_2">
    <g clip-path="url(#p07b44789a1)">
     <!-- FALSE -->
     <g transform="translate(355.232127 163.788055) scale(0.125 -0.125)">
      <defs>
       <path id="DejaVuSans-46" d="M 628 4666 
L 3309 4666 
L 3309 4134 
L 1259 4134 
L 1259 2759 
L 3109 2759 
L 3109 2228 
L 1259 2228 
L 1259 0 
L 628 0 
L 628 4666 
z
" transform="scale(0.015625)"/>
       <path id="DejaVuSans-41" d="M 2188 4044 
L 1331 1722 
L 3047 1722 
L 2188 4044 
z
M 1831 4666 
L 2547 4666 
L 4325 0 
L 3669 0 
L 3244 1197 
L 1141 1197 
L 716 0 
L 50 0 
L 1831 4666 
z
" transform="scale(0.015625)"/>
       <path id="DejaVuSans-4c" d="M 628 4666 
L 1259 4666 
L 1259 531 
L 3531 531 
L 3531 0 
L 628 0 
L 628 4666 
z
" transform="scale(0.015625)"/>
       <path id="DejaVuSans-53" d="M 3425 4513 
L 3425 3897 
Q 3066 4069 2747 4153 
Q 2428 4238 2131 4238 
Q 1616 4238 1336 4038 
Q 1056 3838 1056 3469 
Q 1056 3159 1242 3001 
Q 1428 2844 1947 2747 
L 2328 2669 
Q 3034 2534 3370 2195 
Q 3706 1856 3706 1288 
Q 3706 609 3251 259 
Q 2797 -91 1919 -91 
Q 1588 -91 1214 -16 
Q 841 59 441 206 
L 441 856 
Q 825 641 1194 531 
Q 1563 422 1919 422 
Q 2459 422 2753 634 
Q 3047 847 3047 1241 
Q 3047 1584 2836 1778 
Q 2625 1972 2144 2069 
L 1759 2144 
Q 1053 2284 737 2584 
Q 422 2884 422 3419 
Q 422 4038 858 4394 
Q 1294 4750 2059 4750 
Q 2388 4750 2728 4690 
Q 3069 4631 3425 4513 
z
" transform="scale(0.015625)"/>
       <path id="DejaVuSans-45" d="M 628 4666 
L 3578 4666 
L 3578 4134 
L 1259 4134 
L 1259 2753 
L 3481 2753 
L 3481 2222 
L 1259 2222 
L 1259 531 
L 3634 531 
L 3634 0 
L 628 0 
L 628 4666 
z
" transform="scale(0.015625)"/>
      </defs>
      <use xlink:href="#DejaVuSans-46"/>
      <use xlink:href="#DejaVuSans-41" x="48.394531"/>
      <use xlink:href="#DejaVuSans-4c" x="116.802734"/>
      <use xlink:href="#DejaVuSans-53" x="172.515625"/>
      <use xlink:href="#DejaVuSans-45" x="235.992188"/>
     </g>
    </g>
   </g>
   <g id="text_3">
    <g clip-path="url(#p07b44789a1)">
     <!-- TRUE -->
     <g transform="translate(299.605518 146.961479) scale(0.125 -0.125)">
      <defs>
       <path id="DejaVuSans-54" d="M -19 4666 
L 3928 4666 
L 3928 4134 
L 2272 4134 
L 2272 0 
L 1638 0 
L 1638 4134 
L -19 4134 
L -19 4666 
z
" transform="scale(0.015625)"/>
       <path id="DejaVuSans-52" d="M 2841 2188 
Q 3044 2119 3236 1894 
Q 3428 1669 3622 1275 
L 4263 0 
L 3584 0 
L 2988 1197 
Q 2756 1666 2539 1819 
Q 2322 1972 1947 1972 
L 1259 1972 
L 1259 0 
L 628 0 
L 628 4666 
L 2053 4666 
Q 2853 4666 3247 4331 
Q 3641 3997 3641 3322 
Q 3641 2881 3436 2590 
Q 3231 2300 2841 2188 
z
M 1259 4147 
L 1259 2491 
L 2053 2491 
Q 2509 2491 2742 2702 
Q 2975 2913 2975 3322 
Q 2975 3731 2742 3939 
Q 2509 4147 2053 4147 
L 1259 4147 
z
" transform="scale(0.015625)"/>
       <path id="DejaVuSans-55" d="M 556 4666 
L 1191 4666 
L 1191 1831 
Q 1191 1081 1462 751 
Q 1734 422 2344 422 
Q 2950 422 3222 751 
Q 3494 1081 3494 1831 
L 3494 4666 
L 4128 4666 
L 4128 1753 
Q 4128 841 3676 375 
Q 3225 -91 2344 -91 
Q 1459 -91 1007 375 
Q 556 841 556 1753 
L 556 4666 
z
" transform="scale(0.015625)"/>
      </defs>
      <use xlink:href="#DejaVuSans-54"/>
      <use xlink:href="#DejaVuSans-52" x="61.083984"/>
      <use xlink:href="#DejaVuSans-55" x="130.566406"/>
      <use xlink:href="#DejaVuSans-45" x="203.759766"/>
     </g>
    </g>
   </g>
   <g id="text_4">
    <g clip-path="url(#p07b44789a1)">
     <!-- FALSE -->
     <g transform="translate(171.669482 96.481752) scale(0.125 -0.125)">
      <use xlink:href="#DejaVuSans-46"/>
      <use xlink:href="#DejaVuSans-41" x="48.394531"/>
      <use xlink:href="#DejaVuSans-4c" x="116.802734"/>
      <use xlink:href="#DejaVuSans-53" x="172.515625"/>
      <use xlink:href="#DejaVuSans-45" x="235.992188"/>
     </g>
    </g>
   </g>
   <g id="text_5">
    <g clip-path="url(#p07b44789a1)">
     <!-- a -->
     <g transform="translate(79.032667 30.705137) scale(0.125 -0.125)">
      <defs>
       <path id="DejaVuSans-61" d="M 2194 1759 
Q 1497 1759 1228 1600 
Q 959 1441 959 1056 
Q 959 750 1161 570 
Q 1363 391 1709 391 
Q 2188 391 2477 730 
Q 2766 1069 2766 1631 
L 2766 1759 
L 2194 1759 
z
M 3341 1997 
L 3341 0 
L 2766 0 
L 2766 531 
Q 2569 213 2275 61 
Q 1981 -91 1556 -91 
Q 1019 -91 701 211 
Q 384 513 384 1019 
Q 384 1609 779 1909 
Q 1175 2209 1959 2209 
L 2766 2209 
L 2766 2266 
Q 2766 2663 2505 2880 
Q 2244 3097 1772 3097 
Q 1472 3097 1187 3025 
Q 903 2953 641 2809 
L 641 3341 
Q 956 3463 1253 3523 
Q 1550 3584 1831 3584 
Q 2591 3584 2966 3190 
Q 3341 2797 3341 1997 
z
" transform="scale(0.015625)"/>
      </defs>
      <use xlink:href="#DejaVuSans-61"/>
     </g>
    </g>
   </g>
   <g id="text_6">
    <g clip-path="url(#p07b44789a1)">
     <!-- b -->
     <g transform="translate(78.757276 46.002024) scale(0.125 -0.125)">
      <defs>
       <path id="DejaVuSans-62" d="M 3116 1747 
Q 3116 2381 2855 2742 
Q 2594 3103 2138 3103 
Q 1681 3103 1420 2742 
Q 1159 2381 1159 1747 
Q 1159 1113 1420 752 
Q 1681 391 2138 391 
Q 2594 391 2855 752 
Q 3116 1113 3116 1747 
z
M 1159 2969 
Q 1341 3281 1617 3432 
Q 1894 3584 2278 3584 
Q 2916 3584 3314 3078 
Q 3713 2572 3713 1747 
Q 3713 922 3314 415 
Q 2916 -91 2278 -91 
Q 1894 -91 1617 61 
Q 1341 213 1159 525 
L 1159 0 
L 581 0 
L 581 4863 
L 1159 4863 
L 1159 2969 
z
" transform="scale(0.015625)"/>
      </defs>
      <use xlink:href="#DejaVuSans-62"/>
     </g>
    </g>
   </g>
   <g id="text_7">
    <g clip-path="url(#p07b44789a1)">
     <!-- c -->
     <g transform="translate(79.819776 98.011441) scale(0.125 -0.125)">
      <defs>
       <path id="DejaVuSans-63" d="M 3122 3366 
L 3122 2828 
Q 2878 2963 2633 3030 
Q 2388 3097 2138 3097 
Q 1578 3097 1268 2742 
Q 959 2388 959 1747 
Q 959 1106 1268 751 
Q 1578 397 2138 397 
Q 2388 397 2633 464 
Q 2878 531 3122 666 
L 3122 134 
Q 2881 22 2623 -34 
Q 2366 -91 2075 -91 
Q 1284 -91 818 406 
Q 353 903 353 1747 
Q 353 2603 823 3093 
Q 1294 3584 2113 3584 
Q 2378 3584 2631 3529 
Q 2884 3475 3122 3366 
z
" transform="scale(0.015625)"/>
      </defs>
      <use xlink:href="#DejaVuSans-63"/>
     </g>
    </g>
   </g>
   <g id="text_8">
    <g clip-path="url(#p07b44789a1)">
     <!-- c -->
     <g transform="translate(15.572851 122.48646) scale(0.125 -0.125)">
      <use xlink:href="#DejaVuSans-63"/>
     </g>
    </g>
   </g>
   <g id="text_9">
    <g clip-path="url(#p07b44789a1)">
     <!-- d -->
     <g transform="translate(202.662062 148.491168) scale(0.125 -0.125)">
      <defs>
       <path id="DejaVuSans-64" d="M 2906 2969 
L 2906 4863 
L 3481 4863 
L 3481 0 
L 2906 0 
L 2906 525 
Q 2725 213 2448 61 
Q 2172 -91 1784 -91 
Q 1150 -91 751 415 
Q 353 922 353 1747 
Q 353 2572 751 3078 
Q 1150 3584 1784 3584 
Q 2172 3584 2448 3432 
Q 2725 3281 2906 2969 
z
M 947 1747 
Q 947 1113 1208 752 
Q 1469 391 1925 391 
Q 2381 391 2643 752 
Q 2906 1113 2906 1747 
Q 2906 2381 2643 2742 
Q 2381 3103 1925 3103 
Q 1469 3103 1208 2742 
Q 947 2381 947 1747 
z
" transform="scale(0.015625)"/>
      </defs>
      <use xlink:href="#DejaVuSans-64"/>
     </g>
    </g>
   </g>
   <g id="text_10">
    <g clip-path="url(#p07b44789a1)">
     <!-- FALSE -->
     <g transform="translate(173.199171 163.788055) scale(0.125 -0.125)">
      <use xlink:href="#DejaVuSans-46"/>
      <use xlink:href="#DejaVuSans-41" x="48.394531"/>
      <use xlink:href="#DejaVuSans-4c" x="116.802734"/>
      <use xlink:href="#DejaVuSans-53" x="172.515625"/>
      <use xlink:href="#DejaVuSans-45" x="235.992188"/>
     </g>
    </g>
   </g>
  </g>
 </g>
 <defs>
  <clipPath id="p07b44789a1">
   <rect x="7.2" y="7.2" width="499.239405" height="167.076"/>
  </clipPath>
 </defs>
</svg>
