<?xml version="1.0" encoding="utf-8" standalone="no"?>
<!DOCTYPE svg PUBLIC "-//W3C//DTD SVG 1.1//EN"
  "http://www.w3.org/Graphics/SVG/1.1/DTD/svg11.dtd">
<svg xmlns:xlink="http://www.w3.org/1999/xlink" width="391.288391pt" height="257.976pt" viewBox="0 0 391.288391 257.976" xmlns="http://www.w3.org/2000/svg" version="1.1">
 <metadata>
  <rdf:RDF xmlns:dc="http://purl.org/dc/elements/1.1/" xmlns:cc="http://creativecommons.org/ns#" xmlns:rdf="http://www.w3.org/1999/02/22-rdf-syntax-ns#">
   <cc:Work>
    <dc:type rdf:resource="http://purl.org/dc/dcmitype/StillImage"/>
    <dc:date>2022-12-21T12:37:34.792507</dc:date>
    <dc:format>image/svg+xml</dc:format>
    <dc:creator>
     <cc:Agent>
      <dc:title>Matplotlib v3.6.2, https://matplotlib.org/</dc:title>
     </cc:Agent>
    </dc:creator>
   </cc:Work>
  </rdf:RDF>
 </metadata>
 <defs>
  <style type="text/css">*{stroke-linejoin: round; stroke-linecap: butt}</style>
 </defs>
 <g id="figure_1">
  <g id="patch_1">
   <path d="M 0 257.976 
L 391.288391 257.976 
L 391.288391 0 
L 0 0 
L 0 257.976 
z
" style="fill: none"/>
  </g>
  <g id="axes_1">
   <g id="patch_2">
    <path d="M 324.426719 125.584225 
C 325.400409 125.584225 326.33435 125.197374 327.022853 124.508871 
C 327.711356 123.820369 328.098207 122.886427 328.098207 121.912738 
C 328.098207 120.939048 327.711356 120.005107 327.022853 119.316604 
C 326.33435 118.628101 325.400409 118.24125 324.426719 118.24125 
C 323.453029 118.24125 322.519088 118.628101 321.830586 119.316604 
C 321.142083 120.005107 320.755232 120.939048 320.755232 121.912738 
C 320.755232 122.886427 321.142083 123.820369 321.830586 124.508871 
C 322.519088 125.197374 323.453029 125.584225 324.426719 125.584225 
L 324.426719 125.584225 
z
" clip-path="url(#p377daee3af)" style="fill: none; stroke: #000000; stroke-width: 2; stroke-linejoin: miter"/>
   </g>
   <g id="patch_3">
    <path d="M 263.235261 56.170164 
C 264.208951 56.170164 265.142892 55.783313 265.831395 55.094811 
C 266.519897 54.406308 266.906748 53.472367 266.906748 52.498677 
C 266.906748 51.524987 266.519897 50.591046 265.831395 49.902543 
C 265.142892 49.21404 264.208951 48.827189 263.235261 48.827189 
C 262.261571 48.827189 261.32763 49.21404 260.639127 49.902543 
C 259.950624 50.591046 259.563773 51.524987 259.563773 52.498677 
C 259.563773 53.472367 259.950624 54.406308 260.639127 55.094811 
C 261.32763 55.783313 262.261571 56.170164 263.235261 56.170164 
L 263.235261 56.170164 
z
" clip-path="url(#p377daee3af)" style="fill: none; stroke: #000000; stroke-width: 2; stroke-linejoin: miter"/>
   </g>
   <g id="patch_4">
    <path d="M 188.428703 30.928688 
C 189.402393 30.928688 190.336334 30.541837 191.024837 29.853334 
C 191.713339 29.164831 192.10019 28.23089 192.10019 27.2572 
C 192.10019 26.28351 191.713339 25.349569 191.024837 24.661067 
C 190.336334 23.972564 189.402393 23.585713 188.428703 23.585713 
C 187.455013 23.585713 186.521072 23.972564 185.832569 24.661067 
C 185.144066 25.349569 184.757215 26.28351 184.757215 27.2572 
C 184.757215 28.23089 185.144066 29.164831 185.832569 29.853334 
C 186.521072 30.541837 187.455013 30.928688 188.428703 30.928688 
L 188.428703 30.928688 
z
" clip-path="url(#p377daee3af)" style="fill: none; stroke: #000000; stroke-width: 2; stroke-linejoin: miter"/>
   </g>
   <g id="patch_5">
    <path d="M 263.235261 194.998286 
C 264.208951 194.998286 265.142892 194.611435 265.831395 193.922932 
C 266.519897 193.234429 266.906748 192.300488 266.906748 191.326798 
C 266.906748 190.353108 266.519897 189.419167 265.831395 188.730665 
C 265.142892 188.042162 264.208951 187.655311 263.235261 187.655311 
C 262.261571 187.655311 261.32763 188.042162 260.639127 188.730665 
C 259.950624 189.419167 259.563773 190.353108 259.563773 191.326798 
C 259.563773 192.300488 259.950624 193.234429 260.639127 193.922932 
C 261.32763 194.611435 262.261571 194.998286 263.235261 194.998286 
L 263.235261 194.998286 
z
" clip-path="url(#p377daee3af)" style="fill: none; stroke: #000000; stroke-width: 2; stroke-linejoin: miter"/>
   </g>
   <g id="patch_6">
    <path d="M 127.237244 131.894594 
C 128.210934 131.894594 129.144875 131.507743 129.833378 130.81924 
C 130.521881 130.130738 130.908732 129.196797 130.908732 128.223107 
C 130.908732 127.249417 130.521881 126.315476 129.833378 125.626973 
C 129.144875 124.93847 128.210934 124.551619 127.237244 124.551619 
C 126.263555 124.551619 125.329613 124.93847 124.641111 125.626973 
C 123.952608 126.315476 123.565757 127.249417 123.565757 128.223107 
C 123.565757 129.196797 123.952608 130.130738 124.641111 130.81924 
C 125.329613 131.507743 126.263555 131.894594 127.237244 131.894594 
L 127.237244 131.894594 
z
" clip-path="url(#p377daee3af)" style="fill: none; stroke: #000000; stroke-width: 2; stroke-linejoin: miter"/>
   </g>
   <g id="patch_7">
    <path d="M 66.045786 199.205199 
C 67.019476 199.205199 67.953417 198.818348 68.64192 198.129845 
C 69.330422 197.441342 69.717273 196.507401 69.717273 195.533711 
C 69.717273 194.560021 69.330422 193.62608 68.64192 192.937577 
C 67.953417 192.249075 67.019476 191.862224 66.045786 191.862224 
C 65.072096 191.862224 64.138155 192.249075 63.449652 192.937577 
C 62.761149 193.62608 62.374298 194.560021 62.374298 195.533711 
C 62.374298 196.507401 62.761149 197.441342 63.449652 198.129845 
C 64.138155 198.818348 65.072096 199.205199 66.045786 199.205199 
L 66.045786 199.205199 
z
" clip-path="url(#p377daee3af)" style="fill: none; stroke: #000000; stroke-width: 2; stroke-linejoin: miter"/>
   </g>
   <g id="line2d_1">
    <path d="M 305.457367 137.210602 
L 306.437505 137.179171 
L 307.413615 137.085007 
L 308.381686 136.928497 
L 309.337741 136.710283 
L 310.27785 136.431264 
L 311.198151 136.092585 
L 312.094862 135.695637 
L 312.964298 135.242053 
L 313.802886 134.733696 
L 314.607181 134.172655 
L 315.373877 133.561235 
L 316.099825 132.901949 
L 316.78204 132.197506 
L 317.417719 131.4508 
L 318.004251 130.664901 
L 318.539225 129.843037 
L 319.020443 128.988586 
L 319.445928 128.105058 
L 319.81393 127.196085 
L 320.122938 126.265402 
L 320.371682 125.316833 
L 320.55914 124.354275 
L 320.684542 123.381685 
L 320.747372 122.403058 
L 320.747372 121.422417 
L 320.684542 120.44379 
L 320.55914 119.4712 
L 320.371682 118.508642 
L 320.122938 117.560073 
L 319.81393 116.62939 
L 319.445928 115.720417 
L 319.020443 114.836889 
L 318.539225 113.982438 
L 318.004251 113.160574 
L 317.417719 112.374675 
L 316.78204 111.62797 
L 316.099825 110.923527 
L 315.373877 110.26424 
L 314.607181 109.652821 
L 313.802886 109.091779 
L 312.964298 108.583422 
L 312.094862 108.129838 
L 311.198151 107.732891 
L 310.27785 107.394211 
L 309.337741 107.115192 
L 308.381686 106.896979 
L 307.413615 106.740468 
L 306.437505 106.646304 
L 305.457367 106.614873 
L 305.457367 106.614873 
L 285.570143 106.614873 
L 285.570143 121.912738 
L 285.570143 137.210602 
L 305.457367 137.210602 
" clip-path="url(#p377daee3af)" style="fill: none; stroke: #000000; stroke-width: 2; stroke-linecap: round"/>
   </g>
   <g id="line2d_2">
    <path d="M 274.861638 129.56167 
L 285.570143 129.56167 
" clip-path="url(#p377daee3af)" style="fill: none; stroke: #000000; stroke-width: 2; stroke-linecap: round"/>
   </g>
   <g id="line2d_3">
    <path d="M 274.861638 114.263805 
L 285.570143 114.263805 
" clip-path="url(#p377daee3af)" style="fill: none; stroke: #000000; stroke-width: 2; stroke-linecap: round"/>
   </g>
   <g id="line2d_4">
    <path d="M 328.098207 121.912738 
L 331.463737 121.912738 
" clip-path="url(#p377daee3af)" style="fill: none; stroke: #000000; stroke-width: 2; stroke-linecap: round"/>
   </g>
   <g id="line2d_5">
    <path d="M 222.848898 67.490584 
L 239.89509 67.39068 
L 241.643418 67.090967 
L 243.391745 66.591444 
L 245.140072 65.892113 
L 246.8884 64.992974 
L 249.073809 63.588068 
L 251.259218 61.87096 
L 253.444627 59.841652 
L 255.630037 57.500142 
L 257.815446 54.846431 
L 259.563773 52.498677 
L 259.563773 52.498677 
L 256.941282 49.051974 
L 254.755873 46.523144 
L 252.570464 44.306514 
L 250.385055 42.402086 
L 248.199645 40.80986 
L 246.014236 39.529834 
L 244.265909 38.730599 
L 242.517581 38.131172 
L 240.769254 37.731555 
L 239.020927 37.531746 
L 238.146763 37.50677 
L 222.848898 37.50677 
L 222.848898 37.50677 
L 225.051791 39.954428 
L 226.446956 41.790172 
L 227.621832 43.625915 
L 228.576419 45.461659 
L 229.310716 47.297403 
L 229.824725 49.133147 
L 230.118444 50.96889 
L 230.191873 52.804634 
L 230.045014 54.640378 
L 229.677865 56.476122 
L 229.090427 58.311865 
L 228.2827 60.147609 
L 227.254683 61.983353 
L 226.006378 63.819097 
L 224.537783 65.65484 
L 222.848898 67.490584 
L 222.848898 67.490584 
" clip-path="url(#p377daee3af)" style="fill: none; stroke: #000000; stroke-width: 2; stroke-linecap: round"/>
   </g>
   <g id="line2d_6">
    <path d="M 212.140393 60.147609 
L 228.2827 60.147609 
" clip-path="url(#p377daee3af)" style="fill: none; stroke: #000000; stroke-width: 2; stroke-linecap: round"/>
   </g>
   <g id="line2d_7">
    <path d="M 212.140393 44.849745 
L 228.2827 44.849745 
" clip-path="url(#p377daee3af)" style="fill: none; stroke: #000000; stroke-width: 2; stroke-linecap: round"/>
   </g>
   <g id="line2d_8">
    <path d="M 266.906748 52.498677 
L 270.272279 52.498677 
" clip-path="url(#p377daee3af)" style="fill: none; stroke: #000000; stroke-width: 2; stroke-linecap: round"/>
   </g>
   <g id="line2d_9">
    <path d="M 147.889362 27.2572 
L 164.869991 27.2572 
M 192.10019 27.2572 
L 209.08082 27.2572 
" clip-path="url(#p377daee3af)" style="fill: none; stroke: #000000; stroke-width: 2; stroke-linecap: round"/>
   </g>
   <g id="line2d_10">
    <path d="M 164.869991 11.959336 
L 184.757215 27.2572 
L 164.869991 42.555065 
L 164.869991 11.959336 
" clip-path="url(#p377daee3af)" style="fill: none; stroke: #000000; stroke-width: 2; stroke-linecap: round"/>
   </g>
   <g id="line2d_11">
    <path d="M 212.140393 44.849745 
L 209.08082 44.849745 
L 209.08082 27.2572 
" clip-path="url(#p377daee3af)" style="fill: none; stroke: #000000; stroke-width: 2; stroke-linecap: round"/>
   </g>
   <g id="line2d_12">
    <path d="M 183.07445 93.038018 
L 184.054588 93.006587 
L 185.030698 92.912423 
L 185.998769 92.755913 
L 186.954824 92.537699 
L 187.894933 92.25868 
L 188.815234 91.920001 
L 189.711945 91.523053 
L 190.581381 91.069469 
L 191.419969 90.561112 
L 192.224264 90.000071 
L 192.99096 89.388651 
L 193.716908 88.729365 
L 194.399123 88.024922 
L 195.034802 87.278216 
L 195.621334 86.492317 
L 196.156308 85.670453 
L 196.637526 84.816002 
L 197.063011 83.932474 
L 197.431013 83.023501 
L 197.740021 82.092818 
L 197.988765 81.144249 
L 198.176224 80.181691 
L 198.301625 79.209101 
L 198.364455 78.230474 
L 198.364455 77.249833 
L 198.301625 76.271206 
L 198.176224 75.298616 
L 197.988765 74.336058 
L 197.740021 73.387489 
L 197.431013 72.456806 
L 197.063011 71.547833 
L 196.637526 70.664305 
L 196.156308 69.809854 
L 195.621334 68.98799 
L 195.034802 68.202091 
L 194.399123 67.455386 
L 193.716908 66.750942 
L 192.99096 66.091656 
L 192.224264 65.480236 
L 191.419969 64.919195 
L 190.581381 64.410838 
L 189.711945 63.957254 
L 188.815234 63.560306 
L 187.894933 63.221627 
L 186.954824 62.942608 
L 185.998769 62.724394 
L 185.030698 62.567884 
L 184.054588 62.47372 
L 183.07445 62.442289 
L 183.07445 62.442289 
L 163.187226 62.442289 
L 163.187226 77.740154 
L 163.187226 93.038018 
L 183.07445 93.038018 
" clip-path="url(#p377daee3af)" style="fill: none; stroke: #000000; stroke-width: 2; stroke-linecap: round"/>
   </g>
   <g id="line2d_13">
    <path d="M 152.478721 85.389086 
L 163.187226 85.389086 
" clip-path="url(#p377daee3af)" style="fill: none; stroke: #000000; stroke-width: 2; stroke-linecap: round"/>
   </g>
   <g id="line2d_14">
    <path d="M 152.478721 70.091221 
L 163.187226 70.091221 
" clip-path="url(#p377daee3af)" style="fill: none; stroke: #000000; stroke-width: 2; stroke-linecap: round"/>
   </g>
   <g id="line2d_15">
    <path d="M 198.372315 77.740154 
L 209.08082 77.740154 
" clip-path="url(#p377daee3af)" style="fill: none; stroke: #000000; stroke-width: 2; stroke-linecap: round"/>
   </g>
   <g id="line2d_16">
    <path d="M 212.140393 60.147609 
L 209.08082 60.147609 
L 209.08082 77.740154 
" clip-path="url(#p377daee3af)" style="fill: none; stroke: #000000; stroke-width: 2; stroke-linecap: round"/>
   </g>
   <g id="line2d_17">
    <path d="M 274.861638 114.263805 
L 270.272279 114.263805 
L 270.272279 52.498677 
" clip-path="url(#p377daee3af)" style="fill: none; stroke: #000000; stroke-width: 2; stroke-linecap: round"/>
   </g>
   <g id="line2d_18">
    <path d="M 244.265909 206.624663 
L 245.246046 206.593232 
L 246.222156 206.499068 
L 247.190228 206.342557 
L 248.146282 206.124344 
L 249.086392 205.845325 
L 250.006693 205.506645 
L 250.903403 205.109698 
L 251.772839 204.656114 
L 252.611428 204.147757 
L 253.415723 203.586715 
L 254.182419 202.975296 
L 254.908366 202.316009 
L 255.590581 201.611566 
L 256.226261 200.864861 
L 256.812793 200.078962 
L 257.347767 199.257098 
L 257.828985 198.402646 
L 258.254469 197.519119 
L 258.622472 196.610146 
L 258.93148 195.679463 
L 259.180224 194.730893 
L 259.367682 193.768336 
L 259.493084 192.795746 
L 259.555914 191.817119 
L 259.555914 190.836478 
L 259.493084 189.857851 
L 259.367682 188.885261 
L 259.180224 187.922703 
L 258.93148 186.974134 
L 258.622472 186.04345 
L 258.254469 185.134478 
L 257.828985 184.25095 
L 257.347767 183.396499 
L 256.812793 182.574635 
L 256.226261 181.788736 
L 255.590581 181.04203 
L 254.908366 180.337587 
L 254.182419 179.678301 
L 253.415723 179.066881 
L 252.611428 178.50584 
L 251.772839 177.997483 
L 250.903403 177.543899 
L 250.006693 177.146951 
L 249.086392 176.808272 
L 248.146282 176.529252 
L 247.190228 176.311039 
L 246.222156 176.154529 
L 245.246046 176.060365 
L 244.265909 176.028934 
L 244.265909 176.028934 
L 224.378685 176.028934 
L 224.378685 191.326798 
L 224.378685 206.624663 
L 244.265909 206.624663 
" clip-path="url(#p377daee3af)" style="fill: none; stroke: #000000; stroke-width: 2; stroke-linecap: round"/>
   </g>
   <g id="line2d_19">
    <path d="M 213.670179 198.975731 
L 224.378685 198.975731 
" clip-path="url(#p377daee3af)" style="fill: none; stroke: #000000; stroke-width: 2; stroke-linecap: round"/>
   </g>
   <g id="line2d_20">
    <path d="M 213.670179 183.677866 
L 224.378685 183.677866 
" clip-path="url(#p377daee3af)" style="fill: none; stroke: #000000; stroke-width: 2; stroke-linecap: round"/>
   </g>
   <g id="line2d_21">
    <path d="M 266.906748 191.326798 
L 270.272279 191.326798 
" clip-path="url(#p377daee3af)" style="fill: none; stroke: #000000; stroke-width: 2; stroke-linecap: round"/>
   </g>
   <g id="line2d_22">
    <path d="M 161.65744 168.456491 
L 178.703632 168.356586 
L 180.451959 168.056873 
L 182.200287 167.557351 
L 183.948614 166.85802 
L 185.696941 165.95888 
L 187.882351 164.553974 
L 190.06776 162.836867 
L 192.253169 160.807558 
L 194.438578 158.466049 
L 196.623987 155.812337 
L 198.372315 153.464583 
L 198.372315 153.464583 
L 195.749824 150.017881 
L 193.564415 147.48905 
L 191.379005 145.272421 
L 189.193596 143.367993 
L 187.008187 141.775766 
L 184.822778 140.495741 
L 183.07445 139.696505 
L 181.326123 139.097079 
L 179.577795 138.697461 
L 177.829468 138.497652 
L 176.955304 138.472676 
L 161.65744 138.472676 
L 161.65744 138.472676 
L 163.860332 140.920334 
L 165.255498 142.756078 
L 166.430374 144.591822 
L 167.38496 146.427566 
L 168.119258 148.263309 
L 168.633266 150.099053 
L 168.926985 151.934797 
L 169.000415 153.770541 
L 168.853555 155.606284 
L 168.486407 157.442028 
L 167.898969 159.277772 
L 167.091241 161.113516 
L 166.063225 162.949259 
L 164.814919 164.785003 
L 163.346324 166.620747 
L 161.65744 168.456491 
L 161.65744 168.456491 
" clip-path="url(#p377daee3af)" style="fill: none; stroke: #000000; stroke-width: 2; stroke-linecap: round"/>
   </g>
   <g id="line2d_23">
    <path d="M 150.948935 161.113516 
L 167.091241 161.113516 
" clip-path="url(#p377daee3af)" style="fill: none; stroke: #000000; stroke-width: 2; stroke-linecap: round"/>
   </g>
   <g id="line2d_24">
    <path d="M 150.948935 145.815651 
L 167.091241 145.815651 
" clip-path="url(#p377daee3af)" style="fill: none; stroke: #000000; stroke-width: 2; stroke-linecap: round"/>
   </g>
   <g id="line2d_25">
    <path d="M 198.372315 153.464583 
L 209.08082 153.464583 
" clip-path="url(#p377daee3af)" style="fill: none; stroke: #000000; stroke-width: 2; stroke-linecap: round"/>
   </g>
   <g id="line2d_26">
    <path d="M 86.697903 128.223107 
L 103.678533 128.223107 
M 130.908732 128.223107 
L 147.889362 128.223107 
" clip-path="url(#p377daee3af)" style="fill: none; stroke: #000000; stroke-width: 2; stroke-linecap: round"/>
   </g>
   <g id="line2d_27">
    <path d="M 103.678533 112.925242 
L 123.565757 128.223107 
L 103.678533 143.520971 
L 103.678533 112.925242 
" clip-path="url(#p377daee3af)" style="fill: none; stroke: #000000; stroke-width: 2; stroke-linecap: round"/>
   </g>
   <g id="line2d_28">
    <path d="M 150.948935 145.815651 
L 147.889362 145.815651 
L 147.889362 128.223107 
" clip-path="url(#p377daee3af)" style="fill: none; stroke: #000000; stroke-width: 2; stroke-linecap: round"/>
   </g>
   <g id="line2d_29">
    <path d="M 121.882992 194.003925 
L 122.863129 193.972494 
L 123.839239 193.878329 
L 124.807311 193.721819 
L 125.763365 193.503606 
L 126.703475 193.224586 
L 127.623776 192.885907 
L 128.520486 192.48896 
L 129.389922 192.035376 
L 130.228511 191.527018 
L 131.032806 190.965977 
L 131.799502 190.354557 
L 132.525449 189.695271 
L 133.207664 188.990828 
L 133.843344 188.244123 
L 134.429876 187.458223 
L 134.96485 186.636359 
L 135.446068 185.781908 
L 135.871552 184.898381 
L 136.239555 183.989408 
L 136.548563 183.058725 
L 136.797307 182.110155 
L 136.984765 181.147598 
L 137.110167 180.175007 
L 137.172997 179.196381 
L 137.172997 178.215739 
L 137.110167 177.237113 
L 136.984765 176.264522 
L 136.797307 175.301965 
L 136.548563 174.353396 
L 136.239555 173.422712 
L 135.871552 172.513739 
L 135.446068 171.630212 
L 134.96485 170.775761 
L 134.429876 169.953897 
L 133.843344 169.167997 
L 133.207664 168.421292 
L 132.525449 167.716849 
L 131.799502 167.057563 
L 131.032806 166.446143 
L 130.228511 165.885102 
L 129.389922 165.376744 
L 128.520486 164.92316 
L 127.623776 164.526213 
L 126.703475 164.187534 
L 125.763365 163.908514 
L 124.807311 163.690301 
L 123.839239 163.533791 
L 122.863129 163.439626 
L 121.882992 163.408195 
L 121.882992 163.408195 
L 101.995768 163.408195 
L 101.995768 178.70606 
L 101.995768 194.003925 
L 121.882992 194.003925 
" clip-path="url(#p377daee3af)" style="fill: none; stroke: #000000; stroke-width: 2; stroke-linecap: round"/>
   </g>
   <g id="line2d_30">
    <path d="M 91.287263 186.354992 
L 101.995768 186.354992 
" clip-path="url(#p377daee3af)" style="fill: none; stroke: #000000; stroke-width: 2; stroke-linecap: round"/>
   </g>
   <g id="line2d_31">
    <path d="M 91.287263 171.057128 
L 101.995768 171.057128 
" clip-path="url(#p377daee3af)" style="fill: none; stroke: #000000; stroke-width: 2; stroke-linecap: round"/>
   </g>
   <g id="line2d_32">
    <path d="M 137.180856 178.70606 
L 147.889362 178.70606 
" clip-path="url(#p377daee3af)" style="fill: none; stroke: #000000; stroke-width: 2; stroke-linecap: round"/>
   </g>
   <g id="line2d_33">
    <path d="M 25.506445 195.533711 
L 42.487074 195.533711 
M 69.717273 195.533711 
L 86.697903 195.533711 
" clip-path="url(#p377daee3af)" style="fill: none; stroke: #000000; stroke-width: 2; stroke-linecap: round"/>
   </g>
   <g id="line2d_34">
    <path d="M 42.487074 180.235846 
L 62.374298 195.533711 
L 42.487074 210.831576 
L 42.487074 180.235846 
" clip-path="url(#p377daee3af)" style="fill: none; stroke: #000000; stroke-width: 2; stroke-linecap: round"/>
   </g>
   <g id="line2d_35">
    <path d="M 91.287263 186.354992 
L 86.697903 186.354992 
L 86.697903 195.533711 
" clip-path="url(#p377daee3af)" style="fill: none; stroke: #000000; stroke-width: 2; stroke-linecap: round"/>
   </g>
   <g id="line2d_36">
    <path d="M 150.948935 161.113516 
L 147.889362 161.113516 
L 147.889362 178.70606 
" clip-path="url(#p377daee3af)" style="fill: none; stroke: #000000; stroke-width: 2; stroke-linecap: round"/>
   </g>
   <g id="line2d_37">
    <path d="M 213.670179 183.677866 
L 209.08082 183.677866 
L 209.08082 153.464583 
" clip-path="url(#p377daee3af)" style="fill: none; stroke: #000000; stroke-width: 2; stroke-linecap: round"/>
   </g>
   <g id="line2d_38">
    <path d="M 161.65744 244.180921 
L 178.703632 244.081016 
L 180.451959 243.781303 
L 182.200287 243.281781 
L 183.948614 242.58245 
L 185.696941 241.68331 
L 187.882351 240.278404 
L 190.06776 238.561297 
L 192.253169 236.531988 
L 194.438578 234.190478 
L 196.623987 231.536767 
L 198.372315 229.189013 
L 198.372315 229.189013 
L 195.749824 225.742311 
L 193.564415 223.21348 
L 191.379005 220.996851 
L 189.193596 219.092423 
L 187.008187 217.500196 
L 184.822778 216.22017 
L 183.07445 215.420935 
L 181.326123 214.821509 
L 179.577795 214.421891 
L 177.829468 214.222082 
L 176.955304 214.197106 
L 161.65744 214.197106 
L 161.65744 214.197106 
L 163.860332 216.644764 
L 165.255498 218.480508 
L 166.430374 220.316252 
L 167.38496 222.151996 
L 168.119258 223.987739 
L 168.633266 225.823483 
L 168.926985 227.659227 
L 169.000415 229.494971 
L 168.853555 231.330714 
L 168.486407 233.166458 
L 167.898969 235.002202 
L 167.091241 236.837946 
L 166.063225 238.673689 
L 164.814919 240.509433 
L 163.346324 242.345177 
L 161.65744 244.180921 
L 161.65744 244.180921 
" clip-path="url(#p377daee3af)" style="fill: none; stroke: #000000; stroke-width: 2; stroke-linecap: round"/>
   </g>
   <g id="line2d_39">
    <path d="M 150.948935 236.837946 
L 167.091241 236.837946 
" clip-path="url(#p377daee3af)" style="fill: none; stroke: #000000; stroke-width: 2; stroke-linecap: round"/>
   </g>
   <g id="line2d_40">
    <path d="M 150.948935 221.540081 
L 167.091241 221.540081 
" clip-path="url(#p377daee3af)" style="fill: none; stroke: #000000; stroke-width: 2; stroke-linecap: round"/>
   </g>
   <g id="line2d_41">
    <path d="M 198.372315 229.189013 
L 209.08082 229.189013 
" clip-path="url(#p377daee3af)" style="fill: none; stroke: #000000; stroke-width: 2; stroke-linecap: round"/>
   </g>
   <g id="line2d_42">
    <path d="M 213.670179 198.975731 
L 209.08082 198.975731 
L 209.08082 229.189013 
" clip-path="url(#p377daee3af)" style="fill: none; stroke: #000000; stroke-width: 2; stroke-linecap: round"/>
   </g>
   <g id="line2d_43">
    <path d="M 274.861638 129.56167 
L 270.272279 129.56167 
L 270.272279 191.326798 
" clip-path="url(#p377daee3af)" style="fill: none; stroke: #000000; stroke-width: 2; stroke-linecap: round"/>
   </g>
   <g id="text_1">
    <g clip-path="url(#p377daee3af)">
     <!-- output -->
     <g transform="translate(334.52331 125.361956) scale(0.125 -0.125)">
      <defs>
       <path id="DejaVuSans-6f" d="M 1959 3097 
Q 1497 3097 1228 2736 
Q 959 2375 959 1747 
Q 959 1119 1226 758 
Q 1494 397 1959 397 
Q 2419 397 2687 759 
Q 2956 1122 2956 1747 
Q 2956 2369 2687 2733 
Q 2419 3097 1959 3097 
z
M 1959 3584 
Q 2709 3584 3137 3096 
Q 3566 2609 3566 1747 
Q 3566 888 3137 398 
Q 2709 -91 1959 -91 
Q 1206 -91 779 398 
Q 353 888 353 1747 
Q 353 2609 779 3096 
Q 1206 3584 1959 3584 
z
" transform="scale(0.015625)"/>
       <path id="DejaVuSans-75" d="M 544 1381 
L 544 3500 
L 1119 3500 
L 1119 1403 
Q 1119 906 1312 657 
Q 1506 409 1894 409 
Q 2359 409 2629 706 
Q 2900 1003 2900 1516 
L 2900 3500 
L 3475 3500 
L 3475 0 
L 2900 0 
L 2900 538 
Q 2691 219 2414 64 
Q 2138 -91 1772 -91 
Q 1169 -91 856 284 
Q 544 659 544 1381 
z
M 1991 3584 
L 1991 3584 
z
" transform="scale(0.015625)"/>
       <path id="DejaVuSans-74" d="M 1172 4494 
L 1172 3500 
L 2356 3500 
L 2356 3053 
L 1172 3053 
L 1172 1153 
Q 1172 725 1289 603 
Q 1406 481 1766 481 
L 2356 481 
L 2356 0 
L 1766 0 
Q 1100 0 847 248 
Q 594 497 594 1153 
L 594 3053 
L 172 3053 
L 172 3500 
L 594 3500 
L 594 4494 
L 1172 4494 
z
" transform="scale(0.015625)"/>
       <path id="DejaVuSans-70" d="M 1159 525 
L 1159 -1331 
L 581 -1331 
L 581 3500 
L 1159 3500 
L 1159 2969 
Q 1341 3281 1617 3432 
Q 1894 3584 2278 3584 
Q 2916 3584 3314 3078 
Q 3713 2572 3713 1747 
Q 3713 922 3314 415 
Q 2916 -91 2278 -91 
Q 1894 -91 1617 61 
Q 1341 213 1159 525 
z
M 3116 1747 
Q 3116 2381 2855 2742 
Q 2594 3103 2138 3103 
Q 1681 3103 1420 2742 
Q 1159 2381 1159 1747 
Q 1159 1113 1420 752 
Q 1681 391 2138 391 
Q 2594 391 2855 752 
Q 3116 1113 3116 1747 
z
" transform="scale(0.015625)"/>
      </defs>
      <use xlink:href="#DejaVuSans-6f"/>
      <use xlink:href="#DejaVuSans-75" x="61.181641"/>
      <use xlink:href="#DejaVuSans-74" x="124.560547"/>
      <use xlink:href="#DejaVuSans-70" x="163.769531"/>
      <use xlink:href="#DejaVuSans-75" x="227.246094"/>
      <use xlink:href="#DejaVuSans-74" x="290.625"/>
     </g>
    </g>
   </g>
   <g id="text_2">
    <g clip-path="url(#p377daee3af)">
     <!-- a -->
     <g transform="translate(137.169632 30.706419) scale(0.125 -0.125)">
      <defs>
       <path id="DejaVuSans-61" d="M 2194 1759 
Q 1497 1759 1228 1600 
Q 959 1441 959 1056 
Q 959 750 1161 570 
Q 1363 391 1709 391 
Q 2188 391 2477 730 
Q 2766 1069 2766 1631 
L 2766 1759 
L 2194 1759 
z
M 3341 1997 
L 3341 0 
L 2766 0 
L 2766 531 
Q 2569 213 2275 61 
Q 1981 -91 1556 -91 
Q 1019 -91 701 211 
Q 384 513 384 1019 
Q 384 1609 779 1909 
Q 1175 2209 1959 2209 
L 2766 2209 
L 2766 2266 
Q 2766 2663 2505 2880 
Q 2244 3097 1772 3097 
Q 1472 3097 1187 3025 
Q 903 2953 641 2809 
L 641 3341 
Q 956 3463 1253 3523 
Q 1550 3584 1831 3584 
Q 2591 3584 2966 3190 
Q 3341 2797 3341 1997 
z
" transform="scale(0.015625)"/>
      </defs>
      <use xlink:href="#DejaVuSans-61"/>
     </g>
    </g>
   </g>
   <g id="text_3">
    <g clip-path="url(#p377daee3af)">
     <!-- b -->
     <g transform="translate(141.483601 73.54044) scale(0.125 -0.125)">
      <defs>
       <path id="DejaVuSans-62" d="M 3116 1747 
Q 3116 2381 2855 2742 
Q 2594 3103 2138 3103 
Q 1681 3103 1420 2742 
Q 1159 2381 1159 1747 
Q 1159 1113 1420 752 
Q 1681 391 2138 391 
Q 2594 391 2855 752 
Q 3116 1113 3116 1747 
z
M 1159 2969 
Q 1341 3281 1617 3432 
Q 1894 3584 2278 3584 
Q 2916 3584 3314 3078 
Q 3713 2572 3713 1747 
Q 3713 922 3314 415 
Q 2916 -91 2278 -91 
Q 1894 -91 1617 61 
Q 1341 213 1159 525 
L 1159 0 
L 581 0 
L 581 4863 
L 1159 4863 
L 1159 2969 
z
" transform="scale(0.015625)"/>
      </defs>
      <use xlink:href="#DejaVuSans-62"/>
     </g>
    </g>
   </g>
   <g id="text_4">
    <g clip-path="url(#p377daee3af)">
     <!-- c -->
     <g transform="translate(142.546101 88.838305) scale(0.125 -0.125)">
      <defs>
       <path id="DejaVuSans-63" d="M 3122 3366 
L 3122 2828 
Q 2878 2963 2633 3030 
Q 2388 3097 2138 3097 
Q 1578 3097 1268 2742 
Q 959 2388 959 1747 
Q 959 1106 1268 751 
Q 1578 397 2138 397 
Q 2388 397 2633 464 
Q 2878 531 3122 666 
L 3122 134 
Q 2881 22 2623 -34 
Q 2366 -91 2075 -91 
Q 1284 -91 818 406 
Q 353 903 353 1747 
Q 353 2603 823 3093 
Q 1294 3584 2113 3584 
Q 2378 3584 2631 3529 
Q 2884 3475 3122 3366 
z
" transform="scale(0.015625)"/>
      </defs>
      <use xlink:href="#DejaVuSans-63"/>
     </g>
    </g>
   </g>
   <g id="text_5">
    <g clip-path="url(#p377daee3af)">
     <!-- a -->
     <g transform="translate(75.978174 131.672326) scale(0.125 -0.125)">
      <use xlink:href="#DejaVuSans-61"/>
     </g>
    </g>
   </g>
   <g id="text_6">
    <g clip-path="url(#p377daee3af)">
     <!-- b -->
     <g transform="translate(80.292143 174.506346) scale(0.125 -0.125)">
      <use xlink:href="#DejaVuSans-62"/>
     </g>
    </g>
   </g>
   <g id="text_7">
    <g clip-path="url(#p377daee3af)">
     <!-- c -->
     <g transform="translate(15.573825 198.98293) scale(0.125 -0.125)">
      <use xlink:href="#DejaVuSans-63"/>
     </g>
    </g>
   </g>
   <g id="text_8">
    <g clip-path="url(#p377daee3af)">
     <!-- d -->
     <g transform="translate(139.953815 224.9893) scale(0.125 -0.125)">
      <defs>
       <path id="DejaVuSans-64" d="M 2906 2969 
L 2906 4863 
L 3481 4863 
L 3481 0 
L 2906 0 
L 2906 525 
Q 2725 213 2448 61 
Q 2172 -91 1784 -91 
Q 1150 -91 751 415 
Q 353 922 353 1747 
Q 353 2572 751 3078 
Q 1150 3584 1784 3584 
Q 2172 3584 2448 3432 
Q 2725 3281 2906 2969 
z
M 947 1747 
Q 947 1113 1208 752 
Q 1469 391 1925 391 
Q 2381 391 2643 752 
Q 2906 1113 2906 1747 
Q 2906 2381 2643 2742 
Q 2381 3103 1925 3103 
Q 1469 3103 1208 2742 
Q 947 2381 947 1747 
z
" transform="scale(0.015625)"/>
      </defs>
      <use xlink:href="#DejaVuSans-64"/>
     </g>
    </g>
   </g>
   <g id="text_9">
    <g clip-path="url(#p377daee3af)">
     <!-- TRUE -->
     <g transform="translate(114.522174 240.287164) scale(0.125 -0.125)">
      <defs>
       <path id="DejaVuSans-54" d="M -19 4666 
L 3928 4666 
L 3928 4134 
L 2272 4134 
L 2272 0 
L 1638 0 
L 1638 4134 
L -19 4134 
L -19 4666 
z
" transform="scale(0.015625)"/>
       <path id="DejaVuSans-52" d="M 2841 2188 
Q 3044 2119 3236 1894 
Q 3428 1669 3622 1275 
L 4263 0 
L 3584 0 
L 2988 1197 
Q 2756 1666 2539 1819 
Q 2322 1972 1947 1972 
L 1259 1972 
L 1259 0 
L 628 0 
L 628 4666 
L 2053 4666 
Q 2853 4666 3247 4331 
Q 3641 3997 3641 3322 
Q 3641 2881 3436 2590 
Q 3231 2300 2841 2188 
z
M 1259 4147 
L 1259 2491 
L 2053 2491 
Q 2509 2491 2742 2702 
Q 2975 2913 2975 3322 
Q 2975 3731 2742 3939 
Q 2509 4147 2053 4147 
L 1259 4147 
z
" transform="scale(0.015625)"/>
       <path id="DejaVuSans-55" d="M 556 4666 
L 1191 4666 
L 1191 1831 
Q 1191 1081 1462 751 
Q 1734 422 2344 422 
Q 2950 422 3222 751 
Q 3494 1081 3494 1831 
L 3494 4666 
L 4128 4666 
L 4128 1753 
Q 4128 841 3676 375 
Q 3225 -91 2344 -91 
Q 1459 -91 1007 375 
Q 556 841 556 1753 
L 556 4666 
z
" transform="scale(0.015625)"/>
       <path id="DejaVuSans-45" d="M 628 4666 
L 3578 4666 
L 3578 4134 
L 1259 4134 
L 1259 2753 
L 3481 2753 
L 3481 2222 
L 1259 2222 
L 1259 531 
L 3634 531 
L 3634 0 
L 628 0 
L 628 4666 
z
" transform="scale(0.015625)"/>
      </defs>
      <use xlink:href="#DejaVuSans-54"/>
      <use xlink:href="#DejaVuSans-52" x="61.083984"/>
      <use xlink:href="#DejaVuSans-55" x="130.566406"/>
      <use xlink:href="#DejaVuSans-45" x="203.759766"/>
     </g>
    </g>
   </g>
  </g>
 </g>
 <defs>
  <clipPath id="p377daee3af">
   <rect x="7.2" y="7.2" width="376.888391" height="243.576"/>
  </clipPath>
 </defs>
</svg>
