<?xml version="1.0" encoding="utf-8" standalone="no"?>
<!DOCTYPE svg PUBLIC "-//W3C//DTD SVG 1.1//EN"
  "http://www.w3.org/Graphics/SVG/1.1/DTD/svg11.dtd">
<svg xmlns:xlink="http://www.w3.org/1999/xlink" width="351.191412pt" height="207.18pt" viewBox="0 0 351.191412 207.18" xmlns="http://www.w3.org/2000/svg" version="1.1">
 <metadata>
  <rdf:RDF xmlns:dc="http://purl.org/dc/elements/1.1/" xmlns:cc="http://creativecommons.org/ns#" xmlns:rdf="http://www.w3.org/1999/02/22-rdf-syntax-ns#">
   <cc:Work>
    <dc:type rdf:resource="http://purl.org/dc/dcmitype/StillImage"/>
    <dc:date>2022-12-21T12:37:35.558553</dc:date>
    <dc:format>image/svg+xml</dc:format>
    <dc:creator>
     <cc:Agent>
      <dc:title>Matplotlib v3.6.2, https://matplotlib.org/</dc:title>
     </cc:Agent>
    </dc:creator>
   </cc:Work>
  </rdf:RDF>
 </metadata>
 <defs>
  <style type="text/css">*{stroke-linejoin: round; stroke-linecap: butt}</style>
 </defs>
 <g id="figure_1">
  <g id="patch_1">
   <path d="M 0 207.18 
L 351.191412 207.18 
L 351.191412 0 
L 0 0 
L 0 207.18 
z
" style="fill: none"/>
  </g>
  <g id="axes_1">
   <g id="patch_2">
    <path d="M 284.426464 98.091697 
C 285.398576 98.091697 286.331003 97.705473 287.018389 97.018087 
C 287.705776 96.3307 288.092 95.398273 288.092 94.426162 
C 288.092 93.454051 287.705776 92.521624 287.018389 91.834237 
C 286.331003 91.146851 285.398576 90.760627 284.426464 90.760627 
C 283.454353 90.760627 282.521926 91.146851 281.83454 91.834237 
C 281.147153 92.521624 280.760929 93.454051 280.760929 94.426162 
C 280.760929 95.398273 281.147153 96.3307 281.83454 97.018087 
C 282.521926 97.705473 283.454353 98.091697 284.426464 98.091697 
L 284.426464 98.091697 
z
" clip-path="url(#pfb326820d4)" style="fill: none; stroke: #000000; stroke-width: 2; stroke-linejoin: miter"/>
   </g>
   <g id="patch_3">
    <path d="M 223.334211 39.290403 
C 224.306322 39.290403 225.238749 38.904179 225.926136 38.216793 
C 226.613522 37.529406 226.999746 36.596979 226.999746 35.624868 
C 226.999746 34.652757 226.613522 33.72033 225.926136 33.032943 
C 225.238749 32.345557 224.306322 31.959333 223.334211 31.959333 
C 222.3621 31.959333 221.429673 32.345557 220.742286 33.032943 
C 220.0549 33.72033 219.668676 34.652757 219.668676 35.624868 
C 219.668676 36.596979 220.0549 37.529406 220.742286 38.216793 
C 221.429673 38.904179 222.3621 39.290403 223.334211 39.290403 
L 223.334211 39.290403 
z
" clip-path="url(#pfb326820d4)" style="fill: none; stroke: #000000; stroke-width: 2; stroke-linejoin: miter"/>
   </g>
   <g id="patch_4">
    <path d="M 87.556677 30.890218 
C 88.528789 30.890218 89.461216 30.503994 90.148602 29.816608 
C 90.835989 29.129221 91.222213 28.196794 91.222213 27.224683 
C 91.222213 26.252572 90.835989 25.320145 90.148602 24.632758 
C 89.461216 23.945372 88.528789 23.559148 87.556677 23.559148 
C 86.584566 23.559148 85.652139 23.945372 84.964753 24.632758 
C 84.277366 25.320145 83.891142 26.252572 83.891142 27.224683 
C 83.891142 28.196794 84.277366 29.129221 84.964753 29.816608 
C 85.652139 30.503994 86.584566 30.890218 87.556677 30.890218 
L 87.556677 30.890218 
z
" clip-path="url(#pfb326820d4)" style="fill: none; stroke: #000000; stroke-width: 2; stroke-linejoin: miter"/>
   </g>
   <g id="patch_5">
    <path d="M 223.334211 156.892991 
C 224.306322 156.892991 225.238749 156.506767 225.926136 155.819381 
C 226.613522 155.131994 226.999746 154.199567 226.999746 153.227456 
C 226.999746 152.255345 226.613522 151.322918 225.926136 150.635531 
C 225.238749 149.948145 224.306322 149.561921 223.334211 149.561921 
C 222.3621 149.561921 221.429673 149.948145 220.742286 150.635531 
C 220.0549 151.322918 219.668676 152.255345 219.668676 153.227456 
C 219.668676 154.199567 220.0549 155.131994 220.742286 155.819381 
C 221.429673 156.506767 222.3621 156.892991 223.334211 156.892991 
L 223.334211 156.892991 
z
" clip-path="url(#pfb326820d4)" style="fill: none; stroke: #000000; stroke-width: 2; stroke-linejoin: miter"/>
   </g>
   <g id="patch_6">
    <path d="M 87.556677 131.692437 
C 88.528789 131.692437 89.461216 131.306213 90.148602 130.618826 
C 90.835989 129.93144 91.222213 128.999013 91.222213 128.026901 
C 91.222213 127.05479 90.835989 126.122363 90.148602 125.434977 
C 89.461216 124.74759 88.528789 124.361366 87.556677 124.361366 
C 86.584566 124.361366 85.652139 124.74759 84.964753 125.434977 
C 84.277366 126.122363 83.891142 127.05479 83.891142 128.026901 
C 83.891142 128.999013 84.277366 129.93144 84.964753 130.618826 
C 85.652139 131.306213 86.584566 131.692437 87.556677 131.692437 
L 87.556677 131.692437 
z
" clip-path="url(#pfb326820d4)" style="fill: none; stroke: #000000; stroke-width: 2; stroke-linejoin: miter"/>
   </g>
   <g id="line2d_1">
    <path d="M 244.105577 109.393764 
L 261.124133 109.294022 
L 262.869626 108.994794 
L 264.615119 108.496082 
L 266.360612 107.797885 
L 268.106105 106.900203 
L 270.287971 105.497574 
L 272.469838 103.783251 
L 274.651704 101.757232 
L 276.83357 99.419519 
L 279.015436 96.77011 
L 280.760929 94.426162 
L 280.760929 94.426162 
L 278.14269 90.985047 
L 275.960824 88.460316 
L 273.778957 86.247281 
L 271.597091 84.34594 
L 269.415225 82.756295 
L 267.233359 81.478345 
L 265.487866 80.680405 
L 263.742373 80.08195 
L 261.99688 79.68298 
L 260.251387 79.483495 
L 259.37864 79.45856 
L 244.105577 79.45856 
L 244.105577 79.45856 
L 246.304898 81.90225 
L 247.697802 83.735018 
L 248.870773 85.567785 
L 249.823812 87.400553 
L 250.556919 89.23332 
L 251.070094 91.066088 
L 251.363337 92.898856 
L 251.436648 94.731623 
L 251.290026 96.564391 
L 250.923473 98.397158 
L 250.336987 100.229926 
L 249.530569 102.062694 
L 248.504219 103.895461 
L 247.257937 105.728229 
L 245.791723 107.560996 
L 244.105577 109.393764 
L 244.105577 109.393764 
" clip-path="url(#pfb326820d4)" style="fill: none; stroke: #000000; stroke-width: 2; stroke-linecap: round"/>
   </g>
   <g id="line2d_2">
    <path d="M 233.414433 102.062694 
L 249.530569 102.062694 
" clip-path="url(#pfb326820d4)" style="fill: none; stroke: #000000; stroke-width: 2; stroke-linecap: round"/>
   </g>
   <g id="line2d_3">
    <path d="M 233.414433 86.78963 
L 249.530569 86.78963 
" clip-path="url(#pfb326820d4)" style="fill: none; stroke: #000000; stroke-width: 2; stroke-linecap: round"/>
   </g>
   <g id="line2d_4">
    <path d="M 288.092 94.426162 
L 291.452074 94.426162 
" clip-path="url(#pfb326820d4)" style="fill: none; stroke: #000000; stroke-width: 2; stroke-linecap: round"/>
   </g>
   <g id="line2d_5">
    <path d="M 183.013324 50.59247 
L 200.03188 50.492728 
L 201.777373 50.1935 
L 203.522866 49.694788 
L 205.268359 48.996591 
L 207.013852 48.098909 
L 209.195718 46.69628 
L 211.377584 44.981957 
L 213.55945 42.955938 
L 215.741317 40.618225 
L 217.923183 37.968816 
L 219.668676 35.624868 
L 219.668676 35.624868 
L 217.050436 32.183753 
L 214.86857 29.659022 
L 212.686704 27.445987 
L 210.504838 25.544646 
L 208.322971 23.955001 
L 206.141105 22.677051 
L 204.395612 21.879111 
L 202.650119 21.280656 
L 200.904626 20.881686 
L 199.159133 20.682201 
L 198.286387 20.657266 
L 183.013324 20.657266 
L 183.013324 20.657266 
L 185.212645 23.100956 
L 186.605548 24.933724 
L 187.778519 26.766491 
L 188.731559 28.599259 
L 189.464666 30.432026 
L 189.97784 32.264794 
L 190.271083 34.097562 
L 190.344394 35.930329 
L 190.197773 37.763097 
L 189.831219 39.595864 
L 189.244733 41.428632 
L 188.438316 43.2614 
L 187.411966 45.094167 
L 186.165684 46.926935 
L 184.69947 48.759702 
L 183.013324 50.59247 
L 183.013324 50.59247 
" clip-path="url(#pfb326820d4)" style="fill: none; stroke: #000000; stroke-width: 2; stroke-linecap: round"/>
   </g>
   <g id="line2d_6">
    <path d="M 172.322179 43.2614 
L 188.438316 43.2614 
" clip-path="url(#pfb326820d4)" style="fill: none; stroke: #000000; stroke-width: 2; stroke-linecap: round"/>
   </g>
   <g id="line2d_7">
    <path d="M 172.322179 27.988336 
L 188.438316 27.988336 
" clip-path="url(#pfb326820d4)" style="fill: none; stroke: #000000; stroke-width: 2; stroke-linecap: round"/>
   </g>
   <g id="line2d_8">
    <path d="M 226.999746 35.624868 
L 230.35982 35.624868 
" clip-path="url(#pfb326820d4)" style="fill: none; stroke: #000000; stroke-width: 2; stroke-linecap: round"/>
   </g>
   <g id="line2d_9">
    <path d="M 143.303359 67.698301 
L 144.281907 67.666921 
L 145.256435 67.572909 
L 146.222937 67.416653 
L 147.177441 67.198793 
L 148.116027 66.920226 
L 149.034836 66.582096 
L 149.930093 66.185792 
L 150.798119 65.732943 
L 151.635348 65.22541 
L 152.438339 64.665279 
L 153.203792 64.05485 
L 153.928562 63.396633 
L 154.609672 62.693332 
L 155.244321 61.947837 
L 155.829902 61.163212 
L 156.364008 60.34268 
L 156.844446 59.489614 
L 157.269241 58.607519 
L 157.636646 57.70002 
L 157.945154 56.770846 
L 158.193495 55.823814 
L 158.380649 54.862817 
L 158.505847 53.891803 
L 158.568575 52.914763 
L 158.568575 51.935712 
L 158.505847 50.958672 
L 158.380649 49.987658 
L 158.193495 49.026661 
L 157.945154 48.07963 
L 157.636646 47.150455 
L 157.269241 46.242956 
L 156.844446 45.360861 
L 156.364008 44.507795 
L 155.829902 43.687264 
L 155.244321 42.902638 
L 154.609672 42.157144 
L 153.928562 41.453843 
L 153.203792 40.795625 
L 152.438339 40.185197 
L 151.635348 39.625065 
L 150.798119 39.117532 
L 149.930093 38.664683 
L 149.034836 38.268379 
L 148.116027 37.930249 
L 147.177441 37.651682 
L 146.222937 37.433822 
L 145.256435 37.277566 
L 144.281907 37.183554 
L 143.303359 37.152174 
L 143.303359 37.152174 
L 123.448376 37.152174 
L 123.448376 52.425238 
L 123.448376 67.698301 
L 143.303359 67.698301 
" clip-path="url(#pfb326820d4)" style="fill: none; stroke: #000000; stroke-width: 2; stroke-linecap: round"/>
   </g>
   <g id="line2d_10">
    <path d="M 112.757232 60.061769 
L 123.448376 60.061769 
" clip-path="url(#pfb326820d4)" style="fill: none; stroke: #000000; stroke-width: 2; stroke-linecap: round"/>
   </g>
   <g id="line2d_11">
    <path d="M 112.757232 44.788706 
L 123.448376 44.788706 
" clip-path="url(#pfb326820d4)" style="fill: none; stroke: #000000; stroke-width: 2; stroke-linecap: round"/>
   </g>
   <g id="line2d_12">
    <path d="M 158.576422 52.425238 
L 169.267567 52.425238 
" clip-path="url(#pfb326820d4)" style="fill: none; stroke: #000000; stroke-width: 2; stroke-linecap: round"/>
   </g>
   <g id="line2d_13">
    <path d="M 47.08306 27.224683 
L 64.03616 27.224683 
M 91.222213 27.224683 
L 108.175313 27.224683 
" clip-path="url(#pfb326820d4)" style="fill: none; stroke: #000000; stroke-width: 2; stroke-linecap: round"/>
   </g>
   <g id="line2d_14">
    <path d="M 64.03616 11.95162 
L 83.891142 27.224683 
L 64.03616 42.497746 
L 64.03616 11.95162 
" clip-path="url(#pfb326820d4)" style="fill: none; stroke: #000000; stroke-width: 2; stroke-linecap: round"/>
   </g>
   <g id="line2d_15">
    <path d="M 112.757232 44.788706 
L 108.175313 44.788706 
L 108.175313 27.224683 
" clip-path="url(#pfb326820d4)" style="fill: none; stroke: #000000; stroke-width: 2; stroke-linecap: round"/>
   </g>
   <g id="line2d_16">
    <path d="M 60.828817 92.593394 
L 77.847373 92.493652 
L 79.592866 92.194425 
L 81.338359 91.695712 
L 83.083852 90.997515 
L 84.829345 90.099833 
L 87.011211 88.697205 
L 89.193077 86.982881 
L 91.374943 84.956863 
L 93.55681 82.619149 
L 95.738676 79.96974 
L 97.484169 77.625792 
L 97.484169 77.625792 
L 94.865929 74.184678 
L 92.684063 71.659947 
L 90.502197 69.446911 
L 88.320331 67.54557 
L 86.138464 65.955925 
L 83.956598 64.677975 
L 82.211105 63.880035 
L 80.465612 63.28158 
L 78.720119 62.882611 
L 76.974626 62.683126 
L 76.10188 62.65819 
L 60.828817 62.65819 
L 60.828817 62.65819 
L 63.028138 65.10188 
L 64.421041 66.934648 
L 65.594012 68.767415 
L 66.547051 70.600183 
L 67.280159 72.432951 
L 67.793333 74.265718 
L 68.086576 76.098486 
L 68.159887 77.931254 
L 68.013266 79.764021 
L 67.646712 81.596789 
L 67.060226 83.429556 
L 66.253809 85.262324 
L 65.227459 87.095092 
L 63.981177 88.927859 
L 62.514963 90.760627 
L 60.828817 92.593394 
L 60.828817 92.593394 
" clip-path="url(#pfb326820d4)" style="fill: none; stroke: #000000; stroke-width: 2; stroke-linecap: round"/>
   </g>
   <g id="line2d_17">
    <path d="M 50.137672 85.262324 
L 66.253809 85.262324 
" clip-path="url(#pfb326820d4)" style="fill: none; stroke: #000000; stroke-width: 2; stroke-linecap: round"/>
   </g>
   <g id="line2d_18">
    <path d="M 50.137672 69.989261 
L 66.253809 69.989261 
" clip-path="url(#pfb326820d4)" style="fill: none; stroke: #000000; stroke-width: 2; stroke-linecap: round"/>
   </g>
   <g id="line2d_19">
    <path d="M 97.484169 77.625792 
L 108.175313 77.625792 
" clip-path="url(#pfb326820d4)" style="fill: none; stroke: #000000; stroke-width: 2; stroke-linecap: round"/>
   </g>
   <g id="line2d_20">
    <path d="M 112.757232 60.061769 
L 108.175313 60.061769 
L 108.175313 77.625792 
" clip-path="url(#pfb326820d4)" style="fill: none; stroke: #000000; stroke-width: 2; stroke-linecap: round"/>
   </g>
   <g id="line2d_21">
    <path d="M 172.322179 43.2614 
L 169.267567 43.2614 
L 169.267567 52.425238 
" clip-path="url(#pfb326820d4)" style="fill: none; stroke: #000000; stroke-width: 2; stroke-linecap: round"/>
   </g>
   <g id="line2d_22">
    <path d="M 233.414433 86.78963 
L 230.35982 86.78963 
L 230.35982 35.624868 
" clip-path="url(#pfb326820d4)" style="fill: none; stroke: #000000; stroke-width: 2; stroke-linecap: round"/>
   </g>
   <g id="line2d_23">
    <path d="M 183.013324 168.195058 
L 200.03188 168.095316 
L 201.777373 167.796088 
L 203.522866 167.297376 
L 205.268359 166.599179 
L 207.013852 165.701497 
L 209.195718 164.298868 
L 211.377584 162.584545 
L 213.55945 160.558526 
L 215.741317 158.220813 
L 217.923183 155.571404 
L 219.668676 153.227456 
L 219.668676 153.227456 
L 217.050436 149.786341 
L 214.86857 147.26161 
L 212.686704 145.048575 
L 210.504838 143.147234 
L 208.322971 141.557589 
L 206.141105 140.279639 
L 204.395612 139.481699 
L 202.650119 138.883244 
L 200.904626 138.484274 
L 199.159133 138.284789 
L 198.286387 138.259854 
L 183.013324 138.259854 
L 183.013324 138.259854 
L 185.212645 140.703544 
L 186.605548 142.536312 
L 187.778519 144.369079 
L 188.731559 146.201847 
L 189.464666 148.034614 
L 189.97784 149.867382 
L 190.271083 151.70015 
L 190.344394 153.532917 
L 190.197773 155.365685 
L 189.831219 157.198452 
L 189.244733 159.03122 
L 188.438316 160.863988 
L 187.411966 162.696755 
L 186.165684 164.529523 
L 184.69947 166.36229 
L 183.013324 168.195058 
L 183.013324 168.195058 
" clip-path="url(#pfb326820d4)" style="fill: none; stroke: #000000; stroke-width: 2; stroke-linecap: round"/>
   </g>
   <g id="line2d_24">
    <path d="M 172.322179 163.307678 
L 187.020975 163.307678 
" clip-path="url(#pfb326820d4)" style="fill: none; stroke: #000000; stroke-width: 2; stroke-linecap: round"/>
   </g>
   <g id="line2d_25">
    <path d="M 172.322179 153.227456 
L 190.347449 153.227456 
" clip-path="url(#pfb326820d4)" style="fill: none; stroke: #000000; stroke-width: 2; stroke-linecap: round"/>
   </g>
   <g id="line2d_26">
    <path d="M 172.322179 143.147234 
L 187.020975 143.147234 
" clip-path="url(#pfb326820d4)" style="fill: none; stroke: #000000; stroke-width: 2; stroke-linecap: round"/>
   </g>
   <g id="line2d_27">
    <path d="M 226.999746 153.227456 
L 230.35982 153.227456 
" clip-path="url(#pfb326820d4)" style="fill: none; stroke: #000000; stroke-width: 2; stroke-linecap: round"/>
   </g>
   <g id="line2d_28">
    <path d="M 143.303359 168.500519 
L 144.281907 168.469139 
L 145.256435 168.375128 
L 146.222937 168.218871 
L 147.177441 168.001012 
L 148.116027 167.722445 
L 149.034836 167.384314 
L 149.930093 166.988011 
L 150.798119 166.535162 
L 151.635348 166.027629 
L 152.438339 165.467497 
L 153.203792 164.857068 
L 153.928562 164.198851 
L 154.609672 163.49555 
L 155.244321 162.750055 
L 155.829902 161.96543 
L 156.364008 161.144899 
L 156.844446 160.291833 
L 157.269241 159.409738 
L 157.636646 158.502238 
L 157.945154 157.573064 
L 158.193495 156.626032 
L 158.380649 155.665035 
L 158.505847 154.694022 
L 158.568575 153.716982 
L 158.568575 152.73793 
L 158.505847 151.76089 
L 158.380649 150.789877 
L 158.193495 149.82888 
L 157.945154 148.881848 
L 157.636646 147.952674 
L 157.269241 147.045174 
L 156.844446 146.163079 
L 156.364008 145.310013 
L 155.829902 144.489482 
L 155.244321 143.704857 
L 154.609672 142.959362 
L 153.928562 142.256061 
L 153.203792 141.597844 
L 152.438339 140.987415 
L 151.635348 140.427283 
L 150.798119 139.91975 
L 149.930093 139.466901 
L 149.034836 139.070598 
L 148.116027 138.732467 
L 147.177441 138.4539 
L 146.222937 138.236041 
L 145.256435 138.079784 
L 144.281907 137.985773 
L 143.303359 137.954393 
L 143.303359 137.954393 
L 123.448376 137.954393 
L 123.448376 153.227456 
L 123.448376 168.500519 
L 143.303359 168.500519 
" clip-path="url(#pfb326820d4)" style="fill: none; stroke: #000000; stroke-width: 2; stroke-linecap: round"/>
   </g>
   <g id="line2d_29">
    <path d="M 112.757232 160.863988 
L 123.448376 160.863988 
" clip-path="url(#pfb326820d4)" style="fill: none; stroke: #000000; stroke-width: 2; stroke-linecap: round"/>
   </g>
   <g id="line2d_30">
    <path d="M 112.757232 145.590924 
L 123.448376 145.590924 
" clip-path="url(#pfb326820d4)" style="fill: none; stroke: #000000; stroke-width: 2; stroke-linecap: round"/>
   </g>
   <g id="line2d_31">
    <path d="M 158.576422 153.227456 
L 169.267567 153.227456 
" clip-path="url(#pfb326820d4)" style="fill: none; stroke: #000000; stroke-width: 2; stroke-linecap: round"/>
   </g>
   <g id="line2d_32">
    <path d="M 47.08306 128.026901 
L 64.03616 128.026901 
M 91.222213 128.026901 
L 108.175313 128.026901 
" clip-path="url(#pfb326820d4)" style="fill: none; stroke: #000000; stroke-width: 2; stroke-linecap: round"/>
   </g>
   <g id="line2d_33">
    <path d="M 64.03616 112.753838 
L 83.891142 128.026901 
L 64.03616 143.299965 
L 64.03616 112.753838 
" clip-path="url(#pfb326820d4)" style="fill: none; stroke: #000000; stroke-width: 2; stroke-linecap: round"/>
   </g>
   <g id="line2d_34">
    <path d="M 112.757232 145.590924 
L 108.175313 145.590924 
L 108.175313 128.026901 
" clip-path="url(#pfb326820d4)" style="fill: none; stroke: #000000; stroke-width: 2; stroke-linecap: round"/>
   </g>
   <g id="line2d_35">
    <path d="M 60.828817 193.395613 
L 77.847373 193.29587 
L 79.592866 192.996643 
L 81.338359 192.497931 
L 83.083852 191.799733 
L 84.829345 190.902051 
L 87.011211 189.499423 
L 89.193077 187.7851 
L 91.374943 185.759081 
L 93.55681 183.421367 
L 95.738676 180.771958 
L 97.484169 178.428011 
L 97.484169 178.428011 
L 94.865929 174.986896 
L 92.684063 172.462165 
L 90.502197 170.249129 
L 88.320331 168.347789 
L 86.138464 166.758143 
L 83.956598 165.480193 
L 82.211105 164.682254 
L 80.465612 164.083799 
L 78.720119 163.684829 
L 76.974626 163.485344 
L 76.10188 163.460408 
L 60.828817 163.460408 
L 60.828817 163.460408 
L 63.028138 165.904099 
L 64.421041 167.736866 
L 65.594012 169.569634 
L 66.547051 171.402401 
L 67.280159 173.235169 
L 67.793333 175.067937 
L 68.086576 176.900704 
L 68.159887 178.733472 
L 68.013266 180.566239 
L 67.646712 182.399007 
L 67.060226 184.231775 
L 66.253809 186.064542 
L 65.227459 187.89731 
L 63.981177 189.730077 
L 62.514963 191.562845 
L 60.828817 193.395613 
L 60.828817 193.395613 
" clip-path="url(#pfb326820d4)" style="fill: none; stroke: #000000; stroke-width: 2; stroke-linecap: round"/>
   </g>
   <g id="line2d_36">
    <path d="M 50.137672 186.064542 
L 66.253809 186.064542 
" clip-path="url(#pfb326820d4)" style="fill: none; stroke: #000000; stroke-width: 2; stroke-linecap: round"/>
   </g>
   <g id="line2d_37">
    <path d="M 50.137672 170.791479 
L 66.253809 170.791479 
" clip-path="url(#pfb326820d4)" style="fill: none; stroke: #000000; stroke-width: 2; stroke-linecap: round"/>
   </g>
   <g id="line2d_38">
    <path d="M 97.484169 178.428011 
L 108.175313 178.428011 
" clip-path="url(#pfb326820d4)" style="fill: none; stroke: #000000; stroke-width: 2; stroke-linecap: round"/>
   </g>
   <g id="line2d_39">
    <path d="M 112.757232 160.863988 
L 108.175313 160.863988 
L 108.175313 178.428011 
" clip-path="url(#pfb326820d4)" style="fill: none; stroke: #000000; stroke-width: 2; stroke-linecap: round"/>
   </g>
   <g id="line2d_40">
    <path d="M 172.322179 153.227456 
L 169.267567 153.227456 
L 169.267567 153.227456 
" clip-path="url(#pfb326820d4)" style="fill: none; stroke: #000000; stroke-width: 2; stroke-linecap: round"/>
   </g>
   <g id="line2d_41">
    <path d="M 233.414433 102.062694 
L 230.35982 102.062694 
L 230.35982 153.227456 
" clip-path="url(#pfb326820d4)" style="fill: none; stroke: #000000; stroke-width: 2; stroke-linecap: round"/>
   </g>
   <g id="text_1">
    <g clip-path="url(#pfb326820d4)">
     <!-- output -->
     <g transform="translate(294.506686 97.875381) scale(0.125 -0.125)">
      <defs>
       <path id="DejaVuSans-6f" d="M 1959 3097 
Q 1497 3097 1228 2736 
Q 959 2375 959 1747 
Q 959 1119 1226 758 
Q 1494 397 1959 397 
Q 2419 397 2687 759 
Q 2956 1122 2956 1747 
Q 2956 2369 2687 2733 
Q 2419 3097 1959 3097 
z
M 1959 3584 
Q 2709 3584 3137 3096 
Q 3566 2609 3566 1747 
Q 3566 888 3137 398 
Q 2709 -91 1959 -91 
Q 1206 -91 779 398 
Q 353 888 353 1747 
Q 353 2609 779 3096 
Q 1206 3584 1959 3584 
z
" transform="scale(0.015625)"/>
       <path id="DejaVuSans-75" d="M 544 1381 
L 544 3500 
L 1119 3500 
L 1119 1403 
Q 1119 906 1312 657 
Q 1506 409 1894 409 
Q 2359 409 2629 706 
Q 2900 1003 2900 1516 
L 2900 3500 
L 3475 3500 
L 3475 0 
L 2900 0 
L 2900 538 
Q 2691 219 2414 64 
Q 2138 -91 1772 -91 
Q 1169 -91 856 284 
Q 544 659 544 1381 
z
M 1991 3584 
L 1991 3584 
z
" transform="scale(0.015625)"/>
       <path id="DejaVuSans-74" d="M 1172 4494 
L 1172 3500 
L 2356 3500 
L 2356 3053 
L 1172 3053 
L 1172 1153 
Q 1172 725 1289 603 
Q 1406 481 1766 481 
L 2356 481 
L 2356 0 
L 1766 0 
Q 1100 0 847 248 
Q 594 497 594 1153 
L 594 3053 
L 172 3053 
L 172 3500 
L 594 3500 
L 594 4494 
L 1172 4494 
z
" transform="scale(0.015625)"/>
       <path id="DejaVuSans-70" d="M 1159 525 
L 1159 -1331 
L 581 -1331 
L 581 3500 
L 1159 3500 
L 1159 2969 
Q 1341 3281 1617 3432 
Q 1894 3584 2278 3584 
Q 2916 3584 3314 3078 
Q 3713 2572 3713 1747 
Q 3713 922 3314 415 
Q 2916 -91 2278 -91 
Q 1894 -91 1617 61 
Q 1341 213 1159 525 
z
M 3116 1747 
Q 3116 2381 2855 2742 
Q 2594 3103 2138 3103 
Q 1681 3103 1420 2742 
Q 1159 2381 1159 1747 
Q 1159 1113 1420 752 
Q 1681 391 2138 391 
Q 2594 391 2855 752 
Q 3116 1113 3116 1747 
z
" transform="scale(0.015625)"/>
      </defs>
      <use xlink:href="#DejaVuSans-6f"/>
      <use xlink:href="#DejaVuSans-75" x="61.181641"/>
      <use xlink:href="#DejaVuSans-74" x="124.560547"/>
      <use xlink:href="#DejaVuSans-70" x="163.769531"/>
      <use xlink:href="#DejaVuSans-75" x="227.246094"/>
      <use xlink:href="#DejaVuSans-74" x="290.625"/>
     </g>
    </g>
   </g>
   <g id="text_2">
    <g clip-path="url(#pfb326820d4)">
     <!-- a -->
     <g transform="translate(161.60741 31.437555) scale(0.125 -0.125)">
      <defs>
       <path id="DejaVuSans-61" d="M 2194 1759 
Q 1497 1759 1228 1600 
Q 959 1441 959 1056 
Q 959 750 1161 570 
Q 1363 391 1709 391 
Q 2188 391 2477 730 
Q 2766 1069 2766 1631 
L 2766 1759 
L 2194 1759 
z
M 3341 1997 
L 3341 0 
L 2766 0 
L 2766 531 
Q 2569 213 2275 61 
Q 1981 -91 1556 -91 
Q 1019 -91 701 211 
Q 384 513 384 1019 
Q 384 1609 779 1909 
Q 1175 2209 1959 2209 
L 2766 2209 
L 2766 2266 
Q 2766 2663 2505 2880 
Q 2244 3097 1772 3097 
Q 1472 3097 1187 3025 
Q 903 2953 641 2809 
L 641 3341 
Q 956 3463 1253 3523 
Q 1550 3584 1831 3584 
Q 2591 3584 2966 3190 
Q 3341 2797 3341 1997 
z
" transform="scale(0.015625)"/>
      </defs>
      <use xlink:href="#DejaVuSans-61"/>
     </g>
    </g>
   </g>
   <g id="text_3">
    <g clip-path="url(#pfb326820d4)">
     <!-- b -->
     <g transform="translate(36.0929 30.673902) scale(0.125 -0.125)">
      <defs>
       <path id="DejaVuSans-62" d="M 3116 1747 
Q 3116 2381 2855 2742 
Q 2594 3103 2138 3103 
Q 1681 3103 1420 2742 
Q 1159 2381 1159 1747 
Q 1159 1113 1420 752 
Q 1681 391 2138 391 
Q 2594 391 2855 752 
Q 3116 1113 3116 1747 
z
M 1159 2969 
Q 1341 3281 1617 3432 
Q 1894 3584 2278 3584 
Q 2916 3584 3314 3078 
Q 3713 2572 3713 1747 
Q 3713 922 3314 415 
Q 2916 -91 2278 -91 
Q 1894 -91 1617 61 
Q 1341 213 1159 525 
L 1159 0 
L 581 0 
L 581 4863 
L 1159 4863 
L 1159 2969 
z
" transform="scale(0.015625)"/>
      </defs>
      <use xlink:href="#DejaVuSans-62"/>
     </g>
    </g>
   </g>
   <g id="text_4">
    <g clip-path="url(#pfb326820d4)">
     <!-- c -->
     <g transform="translate(40.210013 73.438479) scale(0.125 -0.125)">
      <defs>
       <path id="DejaVuSans-63" d="M 3122 3366 
L 3122 2828 
Q 2878 2963 2633 3030 
Q 2388 3097 2138 3097 
Q 1578 3097 1268 2742 
Q 959 2388 959 1747 
Q 959 1106 1268 751 
Q 1578 397 2138 397 
Q 2388 397 2633 464 
Q 2878 531 3122 666 
L 3122 134 
Q 2881 22 2623 -34 
Q 2366 -91 2075 -91 
Q 1284 -91 818 406 
Q 353 903 353 1747 
Q 353 2603 823 3093 
Q 1294 3584 2113 3584 
Q 2378 3584 2631 3529 
Q 2884 3475 3122 3366 
z
" transform="scale(0.015625)"/>
      </defs>
      <use xlink:href="#DejaVuSans-63"/>
     </g>
    </g>
   </g>
   <g id="text_5">
    <g clip-path="url(#pfb326820d4)">
     <!-- TRUE -->
     <g transform="translate(13.715872 88.711543) scale(0.125 -0.125)">
      <defs>
       <path id="DejaVuSans-54" d="M -19 4666 
L 3928 4666 
L 3928 4134 
L 2272 4134 
L 2272 0 
L 1638 0 
L 1638 4134 
L -19 4134 
L -19 4666 
z
" transform="scale(0.015625)"/>
       <path id="DejaVuSans-52" d="M 2841 2188 
Q 3044 2119 3236 1894 
Q 3428 1669 3622 1275 
L 4263 0 
L 3584 0 
L 2988 1197 
Q 2756 1666 2539 1819 
Q 2322 1972 1947 1972 
L 1259 1972 
L 1259 0 
L 628 0 
L 628 4666 
L 2053 4666 
Q 2853 4666 3247 4331 
Q 3641 3997 3641 3322 
Q 3641 2881 3436 2590 
Q 3231 2300 2841 2188 
z
M 1259 4147 
L 1259 2491 
L 2053 2491 
Q 2509 2491 2742 2702 
Q 2975 2913 2975 3322 
Q 2975 3731 2742 3939 
Q 2509 4147 2053 4147 
L 1259 4147 
z
" transform="scale(0.015625)"/>
       <path id="DejaVuSans-55" d="M 556 4666 
L 1191 4666 
L 1191 1831 
Q 1191 1081 1462 751 
Q 1734 422 2344 422 
Q 2950 422 3222 751 
Q 3494 1081 3494 1831 
L 3494 4666 
L 4128 4666 
L 4128 1753 
Q 4128 841 3676 375 
Q 3225 -91 2344 -91 
Q 1459 -91 1007 375 
Q 556 841 556 1753 
L 556 4666 
z
" transform="scale(0.015625)"/>
       <path id="DejaVuSans-45" d="M 628 4666 
L 3578 4666 
L 3578 4134 
L 1259 4134 
L 1259 2753 
L 3481 2753 
L 3481 2222 
L 1259 2222 
L 1259 531 
L 3634 531 
L 3634 0 
L 628 0 
L 628 4666 
z
" transform="scale(0.015625)"/>
      </defs>
      <use xlink:href="#DejaVuSans-54"/>
      <use xlink:href="#DejaVuSans-52" x="61.083984"/>
      <use xlink:href="#DejaVuSans-55" x="130.566406"/>
      <use xlink:href="#DejaVuSans-45" x="203.759766"/>
     </g>
    </g>
   </g>
   <g id="text_6">
    <g clip-path="url(#pfb326820d4)">
     <!-- a -->
     <g transform="translate(161.60741 146.596453) scale(0.125 -0.125)">
      <use xlink:href="#DejaVuSans-61"/>
     </g>
    </g>
   </g>
   <g id="text_7">
    <g clip-path="url(#pfb326820d4)">
     <!-- d -->
     <g transform="translate(161.33202 166.756897) scale(0.125 -0.125)">
      <defs>
       <path id="DejaVuSans-64" d="M 2906 2969 
L 2906 4863 
L 3481 4863 
L 3481 0 
L 2906 0 
L 2906 525 
Q 2725 213 2448 61 
Q 2172 -91 1784 -91 
Q 1150 -91 751 415 
Q 353 922 353 1747 
Q 353 2572 751 3078 
Q 1150 3584 1784 3584 
Q 2172 3584 2448 3432 
Q 2725 3281 2906 2969 
z
M 947 1747 
Q 947 1113 1208 752 
Q 1469 391 1925 391 
Q 2381 391 2643 752 
Q 2906 1113 2906 1747 
Q 2906 2381 2643 2742 
Q 2381 3103 1925 3103 
Q 1469 3103 1208 2742 
Q 947 2381 947 1747 
z
" transform="scale(0.015625)"/>
      </defs>
      <use xlink:href="#DejaVuSans-64"/>
     </g>
    </g>
   </g>
   <g id="text_8">
    <g clip-path="url(#pfb326820d4)">
     <!-- b -->
     <g transform="translate(36.0929 131.47612) scale(0.125 -0.125)">
      <use xlink:href="#DejaVuSans-62"/>
     </g>
    </g>
   </g>
   <g id="text_9">
    <g clip-path="url(#pfb326820d4)">
     <!-- c -->
     <g transform="translate(40.210013 174.240698) scale(0.125 -0.125)">
      <use xlink:href="#DejaVuSans-63"/>
     </g>
    </g>
   </g>
   <g id="text_10">
    <g clip-path="url(#pfb326820d4)">
     <!-- TRUE -->
     <g transform="translate(13.715872 189.513761) scale(0.125 -0.125)">
      <use xlink:href="#DejaVuSans-54"/>
      <use xlink:href="#DejaVuSans-52" x="61.083984"/>
      <use xlink:href="#DejaVuSans-55" x="130.566406"/>
      <use xlink:href="#DejaVuSans-45" x="203.759766"/>
     </g>
    </g>
   </g>
  </g>
 </g>
 <defs>
  <clipPath id="pfb326820d4">
   <rect x="7.2" y="7.2" width="336.791412" height="192.78"/>
  </clipPath>
 </defs>
</svg>
