<?xml version="1.0" encoding="utf-8" standalone="no"?>
<!DOCTYPE svg PUBLIC "-//W3C//DTD SVG 1.1//EN"
  "http://www.w3.org/Graphics/SVG/1.1/DTD/svg11.dtd">
<svg xmlns:xlink="http://www.w3.org/1999/xlink" width="452.477455pt" height="248.796pt" viewBox="0 0 452.477455 248.796" xmlns="http://www.w3.org/2000/svg" version="1.1">
 <metadata>
  <rdf:RDF xmlns:dc="http://purl.org/dc/elements/1.1/" xmlns:cc="http://creativecommons.org/ns#" xmlns:rdf="http://www.w3.org/1999/02/22-rdf-syntax-ns#">
   <cc:Work>
    <dc:type rdf:resource="http://purl.org/dc/dcmitype/StillImage"/>
    <dc:date>2022-11-07T11:56:56.455330</dc:date>
    <dc:format>image/svg+xml</dc:format>
    <dc:creator>
     <cc:Agent>
      <dc:title>Matplotlib v3.6.0, https://matplotlib.org/</dc:title>
     </cc:Agent>
    </dc:creator>
   </cc:Work>
  </rdf:RDF>
 </metadata>
 <defs>
  <style type="text/css">*{stroke-linejoin: round; stroke-linecap: butt}</style>
 </defs>
 <g id="figure_1">
  <g id="patch_1">
   <path d="M 0 248.796 
L 452.477455 248.796 
L 452.477455 0 
L 0 0 
L 0 248.796 
z
" style="fill: none"/>
  </g>
  <g id="axes_1">
   <g id="patch_2">
    <path d="M 127.236588 72.232567 
C 128.210273 72.232567 129.144209 71.845718 129.832708 71.157219 
C 130.521207 70.46872 130.908056 69.534784 130.908056 68.561099 
C 130.908056 67.587415 130.521207 66.653479 129.832708 65.96498 
C 129.144209 65.276481 128.210273 64.889632 127.236588 64.889632 
C 126.262904 64.889632 125.328968 65.276481 124.640469 65.96498 
C 123.95197 66.653479 123.565121 67.587415 123.565121 68.561099 
C 123.565121 69.534784 123.95197 70.46872 124.640469 71.157219 
C 125.328968 71.845718 126.262904 72.232567 127.236588 72.232567 
L 127.236588 72.232567 
z
" clip-path="url(#pb73c33483a)" style="fill: none; stroke: #000000; stroke-width: 2; stroke-linejoin: miter"/>
   </g>
   <g id="patch_3">
    <path d="M 66.045464 122.715244 
C 67.019149 122.715244 67.953085 122.328395 68.641584 121.639896 
C 69.330083 120.951397 69.716932 120.017461 69.716932 119.043777 
C 69.716932 118.070092 69.330083 117.136156 68.641584 116.447657 
C 67.953085 115.759158 67.019149 115.372309 66.045464 115.372309 
C 65.07178 115.372309 64.137844 115.759158 63.449345 116.447657 
C 62.760846 117.136156 62.373997 118.070092 62.373997 119.043777 
C 62.373997 120.017461 62.760846 120.951397 63.449345 121.639896 
C 64.137844 122.328395 65.07178 122.715244 66.045464 122.715244 
L 66.045464 122.715244 
z
" clip-path="url(#pb73c33483a)" style="fill: none; stroke: #000000; stroke-width: 2; stroke-linejoin: miter"/>
   </g>
   <g id="patch_4">
    <path d="M 127.236588 206.85304 
C 128.210273 206.85304 129.144209 206.466191 129.832708 205.777692 
C 130.521207 205.089193 130.908056 204.155257 130.908056 203.181572 
C 130.908056 202.207888 130.521207 201.273952 129.832708 200.585453 
C 129.144209 199.896954 128.210273 199.510105 127.236588 199.510105 
C 126.262904 199.510105 125.328968 199.896954 124.640469 200.585453 
C 123.95197 201.273952 123.565121 202.207888 123.565121 203.181572 
C 123.565121 204.155257 123.95197 205.089193 124.640469 205.777692 
C 125.328968 206.466191 126.262904 206.85304 127.236588 206.85304 
L 127.236588 206.85304 
z
" clip-path="url(#pb73c33483a)" style="fill: none; stroke: #000000; stroke-width: 2; stroke-linejoin: miter"/>
   </g>
   <g id="line2d_1">
    <path d="M 345.229968 163.48383 
L 362.276066 163.383927 
L 364.024384 163.084215 
L 365.772702 162.584696 
L 367.52102 161.885368 
L 369.269338 160.986234 
L 371.454735 159.581335 
L 373.640132 157.864237 
L 375.82553 155.83494 
L 378.010927 153.493443 
L 380.196324 150.839746 
L 381.944642 148.492005 
L 381.944642 148.492005 
L 379.322165 145.045321 
L 377.136768 142.516504 
L 374.951371 140.299887 
L 372.765973 138.39547 
L 370.580576 136.803252 
L 368.395179 135.523233 
L 366.646861 134.724002 
L 364.898543 134.124579 
L 363.150225 133.724963 
L 361.401907 133.525156 
L 360.527749 133.50018 
L 345.229968 133.50018 
L 345.229968 133.50018 
L 347.432848 135.947825 
L 348.828006 137.783558 
L 350.002875 139.619292 
L 350.957457 141.455026 
L 351.69175 143.29076 
L 352.205756 145.126493 
L 352.499473 146.962227 
L 352.572902 148.797961 
L 352.426044 150.633694 
L 352.058897 152.469428 
L 351.471462 154.305162 
L 350.663739 156.140896 
L 349.635728 157.976629 
L 348.38743 159.812363 
L 346.918843 161.648097 
L 345.229968 163.48383 
L 345.229968 163.48383 
" clip-path="url(#pb73c33483a)" style="fill: none; stroke: #000000; stroke-width: 2; stroke-linecap: round"/>
   </g>
   <g id="line2d_2">
    <path d="M 334.521521 156.140896 
L 350.663739 156.140896 
" clip-path="url(#pb73c33483a)" style="fill: none; stroke: #000000; stroke-width: 2; stroke-linecap: round"/>
   </g>
   <g id="line2d_3">
    <path d="M 334.521521 140.843115 
L 350.663739 140.843115 
" clip-path="url(#pb73c33483a)" style="fill: none; stroke: #000000; stroke-width: 2; stroke-linecap: round"/>
   </g>
   <g id="line2d_4">
    <path d="M 381.944642 148.492005 
L 392.653089 148.492005 
" clip-path="url(#pb73c33483a)" style="fill: none; stroke: #000000; stroke-width: 2; stroke-linecap: round"/>
   </g>
   <g id="line2d_5">
    <path d="M 305.455737 92.27266 
L 306.435869 92.241229 
L 307.411974 92.147065 
L 308.38004 91.990556 
L 309.336089 91.772344 
L 310.276193 91.493326 
L 311.196489 91.154648 
L 312.093195 90.757703 
L 312.962627 90.304122 
L 313.80121 89.795767 
L 314.605501 89.234729 
L 315.372193 88.623312 
L 316.098136 87.96403 
L 316.780348 87.259591 
L 317.416024 86.512889 
L 318.002552 85.726994 
L 318.537524 84.905135 
L 319.018739 84.050688 
L 319.444221 83.167166 
L 319.812221 82.258198 
L 320.121228 81.32752 
L 320.369971 80.378955 
L 320.557428 79.416403 
L 320.682829 78.443818 
L 320.745658 77.465197 
L 320.745658 76.484561 
L 320.682829 75.50594 
L 320.557428 74.533355 
L 320.369971 73.570802 
L 320.121228 72.622238 
L 319.812221 71.69156 
L 319.444221 70.782592 
L 319.018739 69.899069 
L 318.537524 69.044623 
L 318.002552 68.222764 
L 317.416024 67.436868 
L 316.780348 66.690167 
L 316.098136 65.985728 
L 315.372193 65.326445 
L 314.605501 64.715029 
L 313.80121 64.153991 
L 312.962627 63.645636 
L 312.093195 63.192054 
L 311.196489 62.795109 
L 310.276193 62.456432 
L 309.336089 62.177414 
L 308.38004 61.959202 
L 307.411974 61.802692 
L 306.435869 61.708529 
L 305.455737 61.677098 
L 305.455737 61.677098 
L 285.568622 61.677098 
L 285.568622 76.974879 
L 285.568622 92.27266 
L 305.455737 92.27266 
" clip-path="url(#pb73c33483a)" style="fill: none; stroke: #000000; stroke-width: 2; stroke-linecap: round"/>
   </g>
   <g id="line2d_6">
    <path d="M 274.860175 84.623769 
L 285.568622 84.623769 
" clip-path="url(#pb73c33483a)" style="fill: none; stroke: #000000; stroke-width: 2; stroke-linecap: round"/>
   </g>
   <g id="line2d_7">
    <path d="M 274.860175 69.325988 
L 285.568622 69.325988 
" clip-path="url(#pb73c33483a)" style="fill: none; stroke: #000000; stroke-width: 2; stroke-linecap: round"/>
   </g>
   <g id="line2d_8">
    <path d="M 320.753518 76.974879 
L 331.461965 76.974879 
" clip-path="url(#pb73c33483a)" style="fill: none; stroke: #000000; stroke-width: 2; stroke-linecap: round"/>
   </g>
   <g id="line2d_9">
    <path d="M 222.84772 49.897807 
L 239.893818 49.797903 
L 241.642136 49.498191 
L 243.390454 48.998672 
L 245.138772 48.299345 
L 246.88709 47.40021 
L 249.072487 45.995311 
L 251.257884 44.278214 
L 253.443282 42.248916 
L 255.628679 39.907419 
L 257.814076 37.253722 
L 259.562394 34.905981 
L 259.562394 34.905981 
L 256.939917 31.459297 
L 254.75452 28.930481 
L 252.569123 26.713863 
L 250.383725 24.809446 
L 248.198328 23.217228 
L 246.012931 21.937209 
L 244.264613 21.137978 
L 242.516295 20.538555 
L 240.767977 20.138939 
L 239.019659 19.939132 
L 238.145501 19.914156 
L 222.84772 19.914156 
L 222.84772 19.914156 
L 225.0506 22.361801 
L 226.445758 24.197534 
L 227.620627 26.033268 
L 228.575209 27.869002 
L 229.309502 29.704736 
L 229.823508 31.540469 
L 230.117225 33.376203 
L 230.190654 35.211937 
L 230.043796 37.04767 
L 229.676649 38.883404 
L 229.089214 40.719138 
L 228.281491 42.554872 
L 227.25348 44.390605 
L 226.005182 46.226339 
L 224.536595 48.062073 
L 222.84772 49.897807 
L 222.84772 49.897807 
" clip-path="url(#pb73c33483a)" style="fill: none; stroke: #000000; stroke-width: 2; stroke-linecap: round"/>
   </g>
   <g id="line2d_10">
    <path d="M 212.139273 42.554872 
L 228.281491 42.554872 
" clip-path="url(#pb73c33483a)" style="fill: none; stroke: #000000; stroke-width: 2; stroke-linecap: round"/>
   </g>
   <g id="line2d_11">
    <path d="M 212.139273 27.257091 
L 228.281491 27.257091 
" clip-path="url(#pb73c33483a)" style="fill: none; stroke: #000000; stroke-width: 2; stroke-linecap: round"/>
   </g>
   <g id="line2d_12">
    <path d="M 259.562394 34.905981 
L 270.270841 34.905981 
" clip-path="url(#pb73c33483a)" style="fill: none; stroke: #000000; stroke-width: 2; stroke-linecap: round"/>
   </g>
   <g id="line2d_13">
    <path d="M 183.073489 67.031321 
L 184.053621 66.99989 
L 185.029726 66.905727 
L 185.997792 66.749217 
L 186.953841 66.531005 
L 187.893945 66.251987 
L 188.814241 65.91331 
L 189.710947 65.516365 
L 190.580379 65.062783 
L 191.418962 64.554429 
L 192.223253 63.99339 
L 192.989945 63.381974 
L 193.715888 62.722691 
L 194.3981 62.018252 
L 195.033776 61.271551 
L 195.620304 60.485656 
L 196.155276 59.663796 
L 196.636491 58.80935 
L 197.061973 57.925827 
L 197.429973 57.016859 
L 197.73898 56.086181 
L 197.987723 55.137617 
L 198.17518 54.175064 
L 198.300581 53.202479 
L 198.36341 52.223858 
L 198.36341 51.243222 
L 198.300581 50.264601 
L 198.17518 49.292016 
L 197.987723 48.329464 
L 197.73898 47.3809 
L 197.429973 46.450221 
L 197.061973 45.541253 
L 196.636491 44.657731 
L 196.155276 43.803284 
L 195.620304 42.981425 
L 195.033776 42.19553 
L 194.3981 41.448828 
L 193.715888 40.744389 
L 192.989945 40.085107 
L 192.223253 39.47369 
L 191.418962 38.912652 
L 190.580379 38.404298 
L 189.710947 37.950716 
L 188.814241 37.553771 
L 187.893945 37.215093 
L 186.953841 36.936075 
L 185.997792 36.717863 
L 185.029726 36.561354 
L 184.053621 36.46719 
L 183.073489 36.435759 
L 183.073489 36.435759 
L 163.186374 36.435759 
L 163.186374 51.73354 
L 163.186374 67.031321 
L 183.073489 67.031321 
" clip-path="url(#pb73c33483a)" style="fill: none; stroke: #000000; stroke-width: 2; stroke-linecap: round"/>
   </g>
   <g id="line2d_14">
    <path d="M 152.477927 59.382431 
L 163.186374 59.382431 
" clip-path="url(#pb73c33483a)" style="fill: none; stroke: #000000; stroke-width: 2; stroke-linecap: round"/>
   </g>
   <g id="line2d_15">
    <path d="M 152.477927 44.08465 
L 163.186374 44.08465 
" clip-path="url(#pb73c33483a)" style="fill: none; stroke: #000000; stroke-width: 2; stroke-linecap: round"/>
   </g>
   <g id="line2d_16">
    <path d="M 198.37127 51.73354 
L 209.079717 51.73354 
" clip-path="url(#pb73c33483a)" style="fill: none; stroke: #000000; stroke-width: 2; stroke-linecap: round"/>
   </g>
   <g id="line2d_17">
    <path d="M 86.697469 68.561099 
L 103.678006 68.561099 
M 130.908056 68.561099 
L 147.888593 68.561099 
" clip-path="url(#pb73c33483a)" style="fill: none; stroke: #000000; stroke-width: 2; stroke-linecap: round"/>
   </g>
   <g id="line2d_18">
    <path d="M 103.678006 53.263318 
L 123.565121 68.561099 
L 103.678006 83.85888 
L 103.678006 53.263318 
" clip-path="url(#pb73c33483a)" style="fill: none; stroke: #000000; stroke-width: 2; stroke-linecap: round"/>
   </g>
   <g id="line2d_19">
    <path d="M 152.477927 59.382431 
L 147.888593 59.382431 
L 147.888593 68.561099 
" clip-path="url(#pb73c33483a)" style="fill: none; stroke: #000000; stroke-width: 2; stroke-linecap: round"/>
   </g>
   <g id="line2d_20">
    <path d="M 212.139273 42.554872 
L 209.079717 42.554872 
L 209.079717 51.73354 
" clip-path="url(#pb73c33483a)" style="fill: none; stroke: #000000; stroke-width: 2; stroke-linecap: round"/>
   </g>
   <g id="line2d_21">
    <path d="M 274.860175 69.325988 
L 270.270841 69.325988 
L 270.270841 34.905981 
" clip-path="url(#pb73c33483a)" style="fill: none; stroke: #000000; stroke-width: 2; stroke-linecap: round"/>
   </g>
   <g id="line2d_22">
    <path d="M 222.84772 134.035602 
L 239.893818 133.935698 
L 241.642136 133.635987 
L 243.390454 133.136467 
L 245.138772 132.43714 
L 246.88709 131.538005 
L 249.072487 130.133107 
L 251.257884 128.416009 
L 253.443282 126.386712 
L 255.628679 124.045214 
L 257.814076 121.391518 
L 259.562394 119.043777 
L 259.562394 119.043777 
L 256.939917 115.597093 
L 254.75452 113.068276 
L 252.569123 110.851659 
L 250.383725 108.947241 
L 248.198328 107.355023 
L 246.012931 106.075005 
L 244.264613 105.275774 
L 242.516295 104.67635 
L 240.767977 104.276735 
L 239.019659 104.076927 
L 238.145501 104.051951 
L 222.84772 104.051951 
L 222.84772 104.051951 
L 225.0506 106.499596 
L 226.445758 108.33533 
L 227.620627 110.171064 
L 228.575209 112.006797 
L 229.309502 113.842531 
L 229.823508 115.678265 
L 230.117225 117.513999 
L 230.190654 119.349732 
L 230.043796 121.185466 
L 229.676649 123.0212 
L 229.089214 124.856933 
L 228.281491 126.692667 
L 227.25348 128.528401 
L 226.005182 130.364135 
L 224.536595 132.199868 
L 222.84772 134.035602 
L 222.84772 134.035602 
" clip-path="url(#pb73c33483a)" style="fill: none; stroke: #000000; stroke-width: 2; stroke-linecap: round"/>
   </g>
   <g id="line2d_23">
    <path d="M 212.139273 129.140312 
L 226.861857 129.140312 
" clip-path="url(#pb73c33483a)" style="fill: none; stroke: #000000; stroke-width: 2; stroke-linecap: round"/>
   </g>
   <g id="line2d_24">
    <path d="M 212.139273 119.043777 
L 230.193714 119.043777 
" clip-path="url(#pb73c33483a)" style="fill: none; stroke: #000000; stroke-width: 2; stroke-linecap: round"/>
   </g>
   <g id="line2d_25">
    <path d="M 212.139273 108.947241 
L 226.861857 108.947241 
" clip-path="url(#pb73c33483a)" style="fill: none; stroke: #000000; stroke-width: 2; stroke-linecap: round"/>
   </g>
   <g id="line2d_26">
    <path d="M 259.562394 119.043777 
L 270.270841 119.043777 
" clip-path="url(#pb73c33483a)" style="fill: none; stroke: #000000; stroke-width: 2; stroke-linecap: round"/>
   </g>
   <g id="line2d_27">
    <path d="M 183.073489 134.341558 
L 184.053621 134.310127 
L 185.029726 134.215963 
L 185.997792 134.059454 
L 186.953841 133.841242 
L 187.893945 133.562224 
L 188.814241 133.223546 
L 189.710947 132.826601 
L 190.580379 132.373019 
L 191.418962 131.864665 
L 192.223253 131.303627 
L 192.989945 130.69221 
L 193.715888 130.032928 
L 194.3981 129.328488 
L 195.033776 128.581787 
L 195.620304 127.795892 
L 196.155276 126.974033 
L 196.636491 126.119586 
L 197.061973 125.236064 
L 197.429973 124.327096 
L 197.73898 123.396417 
L 197.987723 122.447853 
L 198.17518 121.485301 
L 198.300581 120.512716 
L 198.36341 119.534095 
L 198.36341 118.553459 
L 198.300581 117.574837 
L 198.17518 116.602252 
L 197.987723 115.6397 
L 197.73898 114.691136 
L 197.429973 113.760458 
L 197.061973 112.85149 
L 196.636491 111.967967 
L 196.155276 111.113521 
L 195.620304 110.291661 
L 195.033776 109.505766 
L 194.3981 108.759065 
L 193.715888 108.054626 
L 192.989945 107.395343 
L 192.223253 106.783927 
L 191.418962 106.222888 
L 190.580379 105.714534 
L 189.710947 105.260952 
L 188.814241 104.864007 
L 187.893945 104.52533 
L 186.953841 104.246312 
L 185.997792 104.0281 
L 185.029726 103.87159 
L 184.053621 103.777427 
L 183.073489 103.745996 
L 183.073489 103.745996 
L 163.186374 103.745996 
L 163.186374 119.043777 
L 163.186374 134.341558 
L 183.073489 134.341558 
" clip-path="url(#pb73c33483a)" style="fill: none; stroke: #000000; stroke-width: 2; stroke-linecap: round"/>
   </g>
   <g id="line2d_28">
    <path d="M 152.477927 126.692667 
L 163.186374 126.692667 
" clip-path="url(#pb73c33483a)" style="fill: none; stroke: #000000; stroke-width: 2; stroke-linecap: round"/>
   </g>
   <g id="line2d_29">
    <path d="M 152.477927 111.394886 
L 163.186374 111.394886 
" clip-path="url(#pb73c33483a)" style="fill: none; stroke: #000000; stroke-width: 2; stroke-linecap: round"/>
   </g>
   <g id="line2d_30">
    <path d="M 198.37127 119.043777 
L 209.079717 119.043777 
" clip-path="url(#pb73c33483a)" style="fill: none; stroke: #000000; stroke-width: 2; stroke-linecap: round"/>
   </g>
   <g id="line2d_31">
    <path d="M 121.882365 151.169117 
L 122.862497 151.137686 
L 123.838602 151.043522 
L 124.806668 150.887013 
L 125.762717 150.668801 
L 126.702821 150.389783 
L 127.623117 150.051105 
L 128.519823 149.65416 
L 129.389255 149.200578 
L 130.227838 148.692224 
L 131.032129 148.131186 
L 131.798821 147.519769 
L 132.524764 146.860487 
L 133.206976 146.156048 
L 133.842652 145.409346 
L 134.42918 144.623451 
L 134.964152 143.801592 
L 135.445367 142.947145 
L 135.870849 142.063623 
L 136.238849 141.154655 
L 136.547856 140.223976 
L 136.796599 139.275412 
L 136.984056 138.31286 
L 137.109457 137.340275 
L 137.172286 136.361654 
L 137.172286 135.381018 
L 137.109457 134.402397 
L 136.984056 133.429812 
L 136.796599 132.467259 
L 136.547856 131.518695 
L 136.238849 130.588017 
L 135.870849 129.679049 
L 135.445367 128.795526 
L 134.964152 127.94108 
L 134.42918 127.11922 
L 133.842652 126.333325 
L 133.206976 125.586624 
L 132.524764 124.882185 
L 131.798821 124.222902 
L 131.032129 123.611486 
L 130.227838 123.050447 
L 129.389255 122.542093 
L 128.519823 122.088511 
L 127.623117 121.691566 
L 126.702821 121.352889 
L 125.762717 121.073871 
L 124.806668 120.855659 
L 123.838602 120.699149 
L 122.862497 120.604986 
L 121.882365 120.573555 
L 121.882365 120.573555 
L 101.99525 120.573555 
L 101.99525 135.871336 
L 101.99525 151.169117 
L 121.882365 151.169117 
" clip-path="url(#pb73c33483a)" style="fill: none; stroke: #000000; stroke-width: 2; stroke-linecap: round"/>
   </g>
   <g id="line2d_32">
    <path d="M 91.286803 143.520226 
L 101.99525 143.520226 
" clip-path="url(#pb73c33483a)" style="fill: none; stroke: #000000; stroke-width: 2; stroke-linecap: round"/>
   </g>
   <g id="line2d_33">
    <path d="M 91.286803 128.222445 
L 101.99525 128.222445 
" clip-path="url(#pb73c33483a)" style="fill: none; stroke: #000000; stroke-width: 2; stroke-linecap: round"/>
   </g>
   <g id="line2d_34">
    <path d="M 137.180146 135.871336 
L 147.888593 135.871336 
" clip-path="url(#pb73c33483a)" style="fill: none; stroke: #000000; stroke-width: 2; stroke-linecap: round"/>
   </g>
   <g id="line2d_35">
    <path d="M 25.506345 119.043777 
L 42.486882 119.043777 
M 69.716932 119.043777 
L 86.697469 119.043777 
" clip-path="url(#pb73c33483a)" style="fill: none; stroke: #000000; stroke-width: 2; stroke-linecap: round"/>
   </g>
   <g id="line2d_36">
    <path d="M 42.486882 103.745996 
L 62.373997 119.043777 
L 42.486882 134.341558 
L 42.486882 103.745996 
" clip-path="url(#pb73c33483a)" style="fill: none; stroke: #000000; stroke-width: 2; stroke-linecap: round"/>
   </g>
   <g id="line2d_37">
    <path d="M 91.286803 128.222445 
L 86.697469 128.222445 
L 86.697469 119.043777 
" clip-path="url(#pb73c33483a)" style="fill: none; stroke: #000000; stroke-width: 2; stroke-linecap: round"/>
   </g>
   <g id="line2d_38">
    <path d="M 152.477927 126.692667 
L 147.888593 126.692667 
L 147.888593 135.871336 
" clip-path="url(#pb73c33483a)" style="fill: none; stroke: #000000; stroke-width: 2; stroke-linecap: round"/>
   </g>
   <g id="line2d_39">
    <path d="M 212.139273 119.043777 
L 209.079717 119.043777 
L 209.079717 119.043777 
" clip-path="url(#pb73c33483a)" style="fill: none; stroke: #000000; stroke-width: 2; stroke-linecap: round"/>
   </g>
   <g id="line2d_40">
    <path d="M 274.860175 84.623769 
L 270.270841 84.623769 
L 270.270841 119.043777 
" clip-path="url(#pb73c33483a)" style="fill: none; stroke: #000000; stroke-width: 2; stroke-linecap: round"/>
   </g>
   <g id="line2d_41">
    <path d="M 334.521521 140.843115 
L 331.461965 140.843115 
L 331.461965 76.974879 
" clip-path="url(#pb73c33483a)" style="fill: none; stroke: #000000; stroke-width: 2; stroke-linecap: round"/>
   </g>
   <g id="line2d_42">
    <path d="M 305.455737 235.306912 
L 306.435869 235.275481 
L 307.411974 235.181318 
L 308.38004 235.024808 
L 309.336089 234.806596 
L 310.276193 234.527578 
L 311.196489 234.188901 
L 312.093195 233.791956 
L 312.962627 233.338374 
L 313.80121 232.83002 
L 314.605501 232.268981 
L 315.372193 231.657565 
L 316.098136 230.998282 
L 316.780348 230.293843 
L 317.416024 229.547142 
L 318.002552 228.761247 
L 318.537524 227.939387 
L 319.018739 227.084941 
L 319.444221 226.201418 
L 319.812221 225.29245 
L 320.121228 224.361772 
L 320.369971 223.413208 
L 320.557428 222.450655 
L 320.682829 221.47807 
L 320.745658 220.499449 
L 320.745658 219.518813 
L 320.682829 218.540192 
L 320.557428 217.567607 
L 320.369971 216.605055 
L 320.121228 215.656491 
L 319.812221 214.725812 
L 319.444221 213.816844 
L 319.018739 212.933322 
L 318.537524 212.078875 
L 318.002552 211.257016 
L 317.416024 210.471121 
L 316.780348 209.724419 
L 316.098136 209.01998 
L 315.372193 208.360698 
L 314.605501 207.749281 
L 313.80121 207.188243 
L 312.962627 206.679889 
L 312.093195 206.226307 
L 311.196489 205.829362 
L 310.276193 205.490684 
L 309.336089 205.211666 
L 308.38004 204.993454 
L 307.411974 204.836945 
L 306.435869 204.742781 
L 305.455737 204.71135 
L 305.455737 204.71135 
L 285.568622 204.71135 
L 285.568622 220.009131 
L 285.568622 235.306912 
L 305.455737 235.306912 
" clip-path="url(#pb73c33483a)" style="fill: none; stroke: #000000; stroke-width: 2; stroke-linecap: round"/>
   </g>
   <g id="line2d_43">
    <path d="M 274.860175 227.658022 
L 285.568622 227.658022 
" clip-path="url(#pb73c33483a)" style="fill: none; stroke: #000000; stroke-width: 2; stroke-linecap: round"/>
   </g>
   <g id="line2d_44">
    <path d="M 274.860175 212.360241 
L 285.568622 212.360241 
" clip-path="url(#pb73c33483a)" style="fill: none; stroke: #000000; stroke-width: 2; stroke-linecap: round"/>
   </g>
   <g id="line2d_45">
    <path d="M 320.753518 220.009131 
L 331.461965 220.009131 
" clip-path="url(#pb73c33483a)" style="fill: none; stroke: #000000; stroke-width: 2; stroke-linecap: round"/>
   </g>
   <g id="line2d_46">
    <path d="M 244.264613 218.479353 
L 245.244745 218.447922 
L 246.22085 218.353759 
L 247.188916 218.197249 
L 248.144965 217.979037 
L 249.085069 217.700019 
L 250.005365 217.361342 
L 250.902071 216.964397 
L 251.771503 216.510815 
L 252.610086 216.00246 
L 253.414377 215.441422 
L 254.181069 214.830006 
L 254.907012 214.170723 
L 255.589224 213.466284 
L 256.2249 212.719583 
L 256.811428 211.933688 
L 257.3464 211.111828 
L 257.827615 210.257382 
L 258.253097 209.373859 
L 258.621097 208.464891 
L 258.930104 207.534213 
L 259.178847 206.585649 
L 259.366304 205.623096 
L 259.491705 204.650511 
L 259.554534 203.67189 
L 259.554534 202.691254 
L 259.491705 201.712633 
L 259.366304 200.740048 
L 259.178847 199.777496 
L 258.930104 198.828931 
L 258.621097 197.898253 
L 258.253097 196.989285 
L 257.827615 196.105763 
L 257.3464 195.251316 
L 256.811428 194.429457 
L 256.2249 193.643562 
L 255.589224 192.89686 
L 254.907012 192.192421 
L 254.181069 191.533139 
L 253.414377 190.921722 
L 252.610086 190.360684 
L 251.771503 189.852329 
L 250.902071 189.398748 
L 250.005365 189.001803 
L 249.085069 188.663125 
L 248.144965 188.384107 
L 247.188916 188.165895 
L 246.22085 188.009386 
L 245.244745 187.915222 
L 244.264613 187.883791 
L 244.264613 187.883791 
L 224.377498 187.883791 
L 224.377498 203.181572 
L 224.377498 218.479353 
L 244.264613 218.479353 
" clip-path="url(#pb73c33483a)" style="fill: none; stroke: #000000; stroke-width: 2; stroke-linecap: round"/>
   </g>
   <g id="line2d_47">
    <path d="M 213.669051 210.830463 
L 224.377498 210.830463 
" clip-path="url(#pb73c33483a)" style="fill: none; stroke: #000000; stroke-width: 2; stroke-linecap: round"/>
   </g>
   <g id="line2d_48">
    <path d="M 213.669051 195.532682 
L 224.377498 195.532682 
" clip-path="url(#pb73c33483a)" style="fill: none; stroke: #000000; stroke-width: 2; stroke-linecap: round"/>
   </g>
   <g id="line2d_49">
    <path d="M 259.562394 203.181572 
L 270.270841 203.181572 
" clip-path="url(#pb73c33483a)" style="fill: none; stroke: #000000; stroke-width: 2; stroke-linecap: round"/>
   </g>
   <g id="line2d_50">
    <path d="M 161.656596 235.000957 
L 178.702694 234.901053 
L 180.451012 234.601341 
L 182.19933 234.101822 
L 183.947648 233.402495 
L 185.695966 232.50336 
L 187.881363 231.098461 
L 190.06676 229.381364 
L 192.252158 227.352066 
L 194.437555 225.010569 
L 196.622952 222.356872 
L 198.37127 220.009131 
L 198.37127 220.009131 
L 195.748793 216.562448 
L 193.563396 214.033631 
L 191.377999 211.817013 
L 189.192601 209.912596 
L 187.007204 208.320378 
L 184.821807 207.040359 
L 183.073489 206.241128 
L 181.325171 205.641705 
L 179.576853 205.24209 
L 177.828535 205.042282 
L 176.954377 205.017306 
L 161.656596 205.017306 
L 161.656596 205.017306 
L 163.859476 207.464951 
L 165.254634 209.300685 
L 166.429503 211.136418 
L 167.384085 212.972152 
L 168.118378 214.807886 
L 168.632384 216.643619 
L 168.926101 218.479353 
L 168.99953 220.315087 
L 168.852672 222.150821 
L 168.485525 223.986554 
L 167.89809 225.822288 
L 167.090367 227.658022 
L 166.062356 229.493755 
L 164.814058 231.329489 
L 163.345471 233.165223 
L 161.656596 235.000957 
L 161.656596 235.000957 
" clip-path="url(#pb73c33483a)" style="fill: none; stroke: #000000; stroke-width: 2; stroke-linecap: round"/>
   </g>
   <g id="line2d_51">
    <path d="M 150.948149 227.658022 
L 167.090367 227.658022 
" clip-path="url(#pb73c33483a)" style="fill: none; stroke: #000000; stroke-width: 2; stroke-linecap: round"/>
   </g>
   <g id="line2d_52">
    <path d="M 150.948149 212.360241 
L 167.090367 212.360241 
" clip-path="url(#pb73c33483a)" style="fill: none; stroke: #000000; stroke-width: 2; stroke-linecap: round"/>
   </g>
   <g id="line2d_53">
    <path d="M 198.37127 220.009131 
L 209.079717 220.009131 
" clip-path="url(#pb73c33483a)" style="fill: none; stroke: #000000; stroke-width: 2; stroke-linecap: round"/>
   </g>
   <g id="line2d_54">
    <path d="M 86.697469 203.181572 
L 103.678006 203.181572 
M 130.908056 203.181572 
L 147.888593 203.181572 
" clip-path="url(#pb73c33483a)" style="fill: none; stroke: #000000; stroke-width: 2; stroke-linecap: round"/>
   </g>
   <g id="line2d_55">
    <path d="M 103.678006 187.883791 
L 123.565121 203.181572 
L 103.678006 218.479353 
L 103.678006 187.883791 
" clip-path="url(#pb73c33483a)" style="fill: none; stroke: #000000; stroke-width: 2; stroke-linecap: round"/>
   </g>
   <g id="line2d_56">
    <path d="M 150.948149 212.360241 
L 147.888593 212.360241 
L 147.888593 203.181572 
" clip-path="url(#pb73c33483a)" style="fill: none; stroke: #000000; stroke-width: 2; stroke-linecap: round"/>
   </g>
   <g id="line2d_57">
    <path d="M 213.669051 210.830463 
L 209.079717 210.830463 
L 209.079717 220.009131 
" clip-path="url(#pb73c33483a)" style="fill: none; stroke: #000000; stroke-width: 2; stroke-linecap: round"/>
   </g>
   <g id="line2d_58">
    <path d="M 274.860175 212.360241 
L 270.270841 212.360241 
L 270.270841 203.181572 
" clip-path="url(#pb73c33483a)" style="fill: none; stroke: #000000; stroke-width: 2; stroke-linecap: round"/>
   </g>
   <g id="line2d_59">
    <path d="M 334.521521 156.140896 
L 331.461965 156.140896 
L 331.461965 220.009131 
" clip-path="url(#pb73c33483a)" style="fill: none; stroke: #000000; stroke-width: 2; stroke-linecap: round"/>
   </g>
   <g id="text_1">
    <g clip-path="url(#pb73c33483a)">
     <!-- output -->
     <g transform="translate(395.712645 151.941224) scale(0.125 -0.125)">
      <defs>
       <path id="DejaVuSans-6f" d="M 1959 3097 
Q 1497 3097 1228 2736 
Q 959 2375 959 1747 
Q 959 1119 1226 758 
Q 1494 397 1959 397 
Q 2419 397 2687 759 
Q 2956 1122 2956 1747 
Q 2956 2369 2687 2733 
Q 2419 3097 1959 3097 
z
M 1959 3584 
Q 2709 3584 3137 3096 
Q 3566 2609 3566 1747 
Q 3566 888 3137 398 
Q 2709 -91 1959 -91 
Q 1206 -91 779 398 
Q 353 888 353 1747 
Q 353 2609 779 3096 
Q 1206 3584 1959 3584 
z
" transform="scale(0.015625)"/>
       <path id="DejaVuSans-75" d="M 544 1381 
L 544 3500 
L 1119 3500 
L 1119 1403 
Q 1119 906 1312 657 
Q 1506 409 1894 409 
Q 2359 409 2629 706 
Q 2900 1003 2900 1516 
L 2900 3500 
L 3475 3500 
L 3475 0 
L 2900 0 
L 2900 538 
Q 2691 219 2414 64 
Q 2138 -91 1772 -91 
Q 1169 -91 856 284 
Q 544 659 544 1381 
z
M 1991 3584 
L 1991 3584 
z
" transform="scale(0.015625)"/>
       <path id="DejaVuSans-74" d="M 1172 4494 
L 1172 3500 
L 2356 3500 
L 2356 3053 
L 1172 3053 
L 1172 1153 
Q 1172 725 1289 603 
Q 1406 481 1766 481 
L 2356 481 
L 2356 0 
L 1766 0 
Q 1100 0 847 248 
Q 594 497 594 1153 
L 594 3053 
L 172 3053 
L 172 3500 
L 594 3500 
L 594 4494 
L 1172 4494 
z
" transform="scale(0.015625)"/>
       <path id="DejaVuSans-70" d="M 1159 525 
L 1159 -1331 
L 581 -1331 
L 581 3500 
L 1159 3500 
L 1159 2969 
Q 1341 3281 1617 3432 
Q 1894 3584 2278 3584 
Q 2916 3584 3314 3078 
Q 3713 2572 3713 1747 
Q 3713 922 3314 415 
Q 2916 -91 2278 -91 
Q 1894 -91 1617 61 
Q 1341 213 1159 525 
z
M 3116 1747 
Q 3116 2381 2855 2742 
Q 2594 3103 2138 3103 
Q 1681 3103 1420 2742 
Q 1159 2381 1159 1747 
Q 1159 1113 1420 752 
Q 1681 391 2138 391 
Q 2594 391 2855 752 
Q 3116 1113 3116 1747 
z
" transform="scale(0.015625)"/>
      </defs>
      <use xlink:href="#DejaVuSans-6f"/>
      <use xlink:href="#DejaVuSans-75" x="61.181641"/>
      <use xlink:href="#DejaVuSans-74" x="124.560547"/>
      <use xlink:href="#DejaVuSans-70" x="163.769531"/>
      <use xlink:href="#DejaVuSans-75" x="227.246094"/>
      <use xlink:href="#DejaVuSans-74" x="290.625"/>
     </g>
    </g>
   </g>
   <g id="text_2">
    <g clip-path="url(#pb73c33483a)">
     <!-- a -->
     <g transform="translate(201.41956 30.706309) scale(0.125 -0.125)">
      <defs>
       <path id="DejaVuSans-61" d="M 2194 1759 
Q 1497 1759 1228 1600 
Q 959 1441 959 1056 
Q 959 750 1161 570 
Q 1363 391 1709 391 
Q 2188 391 2477 730 
Q 2766 1069 2766 1631 
L 2766 1759 
L 2194 1759 
z
M 3341 1997 
L 3341 0 
L 2766 0 
L 2766 531 
Q 2569 213 2275 61 
Q 1981 -91 1556 -91 
Q 1019 -91 701 211 
Q 384 513 384 1019 
Q 384 1609 779 1909 
Q 1175 2209 1959 2209 
L 2766 2209 
L 2766 2266 
Q 2766 2663 2505 2880 
Q 2244 3097 1772 3097 
Q 1472 3097 1187 3025 
Q 903 2953 641 2809 
L 641 3341 
Q 956 3463 1253 3523 
Q 1550 3584 1831 3584 
Q 2591 3584 2966 3190 
Q 3341 2797 3341 1997 
z
" transform="scale(0.015625)"/>
      </defs>
      <use xlink:href="#DejaVuSans-61"/>
     </g>
    </g>
   </g>
   <g id="text_3">
    <g clip-path="url(#pb73c33483a)">
     <!-- b -->
     <g transform="translate(141.482824 47.533868) scale(0.125 -0.125)">
      <defs>
       <path id="DejaVuSans-62" d="M 3116 1747 
Q 3116 2381 2855 2742 
Q 2594 3103 2138 3103 
Q 1681 3103 1420 2742 
Q 1159 2381 1159 1747 
Q 1159 1113 1420 752 
Q 1681 391 2138 391 
Q 2594 391 2855 752 
Q 3116 1113 3116 1747 
z
M 1159 2969 
Q 1341 3281 1617 3432 
Q 1894 3584 2278 3584 
Q 2916 3584 3314 3078 
Q 3713 2572 3713 1747 
Q 3713 922 3314 415 
Q 2916 -91 2278 -91 
Q 1894 -91 1617 61 
Q 1341 213 1159 525 
L 1159 0 
L 581 0 
L 581 4863 
L 1159 4863 
L 1159 2969 
z
" transform="scale(0.015625)"/>
      </defs>
      <use xlink:href="#DejaVuSans-62"/>
     </g>
    </g>
   </g>
   <g id="text_4">
    <g clip-path="url(#pb73c33483a)">
     <!-- c -->
     <g transform="translate(76.764866 72.010318) scale(0.125 -0.125)">
      <defs>
       <path id="DejaVuSans-63" d="M 3122 3366 
L 3122 2828 
Q 2878 2963 2633 3030 
Q 2388 3097 2138 3097 
Q 1578 3097 1268 2742 
Q 959 2388 959 1747 
Q 959 1106 1268 751 
Q 1578 397 2138 397 
Q 2388 397 2633 464 
Q 2878 531 3122 666 
L 3122 134 
Q 2881 22 2623 -34 
Q 2366 -91 2075 -91 
Q 1284 -91 818 406 
Q 353 903 353 1747 
Q 353 2603 823 3093 
Q 1294 3584 2113 3584 
Q 2378 3584 2631 3529 
Q 2884 3475 3122 3366 
z
" transform="scale(0.015625)"/>
      </defs>
      <use xlink:href="#DejaVuSans-63"/>
     </g>
    </g>
   </g>
   <g id="text_5">
    <g clip-path="url(#pb73c33483a)">
     <!-- a -->
     <g transform="translate(201.41956 112.39646) scale(0.125 -0.125)">
      <use xlink:href="#DejaVuSans-61"/>
     </g>
    </g>
   </g>
   <g id="text_6">
    <g clip-path="url(#pb73c33483a)">
     <!-- d -->
     <g transform="translate(201.14417 132.589531) scale(0.125 -0.125)">
      <defs>
       <path id="DejaVuSans-64" d="M 2906 2969 
L 2906 4863 
L 3481 4863 
L 3481 0 
L 2906 0 
L 2906 525 
Q 2725 213 2448 61 
Q 2172 -91 1784 -91 
Q 1150 -91 751 415 
Q 353 922 353 1747 
Q 353 2572 751 3078 
Q 1150 3584 1784 3584 
Q 2172 3584 2448 3432 
Q 2725 3281 2906 2969 
z
M 947 1747 
Q 947 1113 1208 752 
Q 1469 391 1925 391 
Q 2381 391 2643 752 
Q 2906 1113 2906 1747 
Q 2906 2381 2643 2742 
Q 2381 3103 1925 3103 
Q 1469 3103 1208 2742 
Q 947 2381 947 1747 
z
" transform="scale(0.015625)"/>
      </defs>
      <use xlink:href="#DejaVuSans-64"/>
     </g>
    </g>
   </g>
   <g id="text_7">
    <g clip-path="url(#pb73c33483a)">
     <!-- b -->
     <g transform="translate(141.482824 114.844105) scale(0.125 -0.125)">
      <use xlink:href="#DejaVuSans-62"/>
     </g>
    </g>
   </g>
   <g id="text_8">
    <g clip-path="url(#pb73c33483a)">
     <!-- TRUE -->
     <g transform="translate(54.860059 146.969445) scale(0.125 -0.125)">
      <defs>
       <path id="DejaVuSans-54" d="M -19 4666 
L 3928 4666 
L 3928 4134 
L 2272 4134 
L 2272 0 
L 1638 0 
L 1638 4134 
L -19 4134 
L -19 4666 
z
" transform="scale(0.015625)"/>
       <path id="DejaVuSans-52" d="M 2841 2188 
Q 3044 2119 3236 1894 
Q 3428 1669 3622 1275 
L 4263 0 
L 3584 0 
L 2988 1197 
Q 2756 1666 2539 1819 
Q 2322 1972 1947 1972 
L 1259 1972 
L 1259 0 
L 628 0 
L 628 4666 
L 2053 4666 
Q 2853 4666 3247 4331 
Q 3641 3997 3641 3322 
Q 3641 2881 3436 2590 
Q 3231 2300 2841 2188 
z
M 1259 4147 
L 1259 2491 
L 2053 2491 
Q 2509 2491 2742 2702 
Q 2975 2913 2975 3322 
Q 2975 3731 2742 3939 
Q 2509 4147 2053 4147 
L 1259 4147 
z
" transform="scale(0.015625)"/>
       <path id="DejaVuSans-55" d="M 556 4666 
L 1191 4666 
L 1191 1831 
Q 1191 1081 1462 751 
Q 1734 422 2344 422 
Q 2950 422 3222 751 
Q 3494 1081 3494 1831 
L 3494 4666 
L 4128 4666 
L 4128 1753 
Q 4128 841 3676 375 
Q 3225 -91 2344 -91 
Q 1459 -91 1007 375 
Q 556 841 556 1753 
L 556 4666 
z
" transform="scale(0.015625)"/>
       <path id="DejaVuSans-45" d="M 628 4666 
L 3578 4666 
L 3578 4134 
L 1259 4134 
L 1259 2753 
L 3481 2753 
L 3481 2222 
L 1259 2222 
L 1259 531 
L 3634 531 
L 3634 0 
L 628 0 
L 628 4666 
z
" transform="scale(0.015625)"/>
      </defs>
      <use xlink:href="#DejaVuSans-54"/>
      <use xlink:href="#DejaVuSans-52" x="61.083984"/>
      <use xlink:href="#DejaVuSans-55" x="130.566406"/>
      <use xlink:href="#DejaVuSans-45" x="203.759766"/>
     </g>
    </g>
   </g>
   <g id="text_9">
    <g clip-path="url(#pb73c33483a)">
     <!-- c -->
     <g transform="translate(15.573742 122.492995) scale(0.125 -0.125)">
      <use xlink:href="#DejaVuSans-63"/>
     </g>
    </g>
   </g>
   <g id="text_10">
    <g clip-path="url(#pb73c33483a)">
     <!-- TRUE -->
     <g transform="translate(238.433431 231.107241) scale(0.125 -0.125)">
      <use xlink:href="#DejaVuSans-54"/>
      <use xlink:href="#DejaVuSans-52" x="61.083984"/>
      <use xlink:href="#DejaVuSans-55" x="130.566406"/>
      <use xlink:href="#DejaVuSans-45" x="203.759766"/>
     </g>
    </g>
   </g>
   <g id="text_11">
    <g clip-path="url(#pb73c33483a)">
     <!-- e -->
     <g transform="translate(202.918088 198.9819) scale(0.125 -0.125)">
      <defs>
       <path id="DejaVuSans-65" d="M 3597 1894 
L 3597 1613 
L 953 1613 
Q 991 1019 1311 708 
Q 1631 397 2203 397 
Q 2534 397 2845 478 
Q 3156 559 3463 722 
L 3463 178 
Q 3153 47 2828 -22 
Q 2503 -91 2169 -91 
Q 1331 -91 842 396 
Q 353 884 353 1716 
Q 353 2575 817 3079 
Q 1281 3584 2069 3584 
Q 2775 3584 3186 3129 
Q 3597 2675 3597 1894 
z
M 3022 2063 
Q 3016 2534 2758 2815 
Q 2500 3097 2075 3097 
Q 1594 3097 1305 2825 
Q 1016 2553 972 2059 
L 3022 2063 
z
" transform="scale(0.015625)"/>
      </defs>
      <use xlink:href="#DejaVuSans-65"/>
     </g>
    </g>
   </g>
   <g id="text_12">
    <g clip-path="url(#pb73c33483a)">
     <!-- FALSE -->
     <g transform="translate(110.490155 231.107241) scale(0.125 -0.125)">
      <defs>
       <path id="DejaVuSans-46" d="M 628 4666 
L 3309 4666 
L 3309 4134 
L 1259 4134 
L 1259 2759 
L 3109 2759 
L 3109 2228 
L 1259 2228 
L 1259 0 
L 628 0 
L 628 4666 
z
" transform="scale(0.015625)"/>
       <path id="DejaVuSans-41" d="M 2188 4044 
L 1331 1722 
L 3047 1722 
L 2188 4044 
z
M 1831 4666 
L 2547 4666 
L 4325 0 
L 3669 0 
L 3244 1197 
L 1141 1197 
L 716 0 
L 50 0 
L 1831 4666 
z
" transform="scale(0.015625)"/>
       <path id="DejaVuSans-4c" d="M 628 4666 
L 1259 4666 
L 1259 531 
L 3531 531 
L 3531 0 
L 628 0 
L 628 4666 
z
" transform="scale(0.015625)"/>
       <path id="DejaVuSans-53" d="M 3425 4513 
L 3425 3897 
Q 3066 4069 2747 4153 
Q 2428 4238 2131 4238 
Q 1616 4238 1336 4038 
Q 1056 3838 1056 3469 
Q 1056 3159 1242 3001 
Q 1428 2844 1947 2747 
L 2328 2669 
Q 3034 2534 3370 2195 
Q 3706 1856 3706 1288 
Q 3706 609 3251 259 
Q 2797 -91 1919 -91 
Q 1588 -91 1214 -16 
Q 841 59 441 206 
L 441 856 
Q 825 641 1194 531 
Q 1563 422 1919 422 
Q 2459 422 2753 634 
Q 3047 847 3047 1241 
Q 3047 1584 2836 1778 
Q 2625 1972 2144 2069 
L 1759 2144 
Q 1053 2284 737 2584 
Q 422 2884 422 3419 
Q 422 4038 858 4394 
Q 1294 4750 2059 4750 
Q 2388 4750 2728 4690 
Q 3069 4631 3425 4513 
z
" transform="scale(0.015625)"/>
      </defs>
      <use xlink:href="#DejaVuSans-46"/>
      <use xlink:href="#DejaVuSans-41" x="48.394531"/>
      <use xlink:href="#DejaVuSans-4c" x="116.802734"/>
      <use xlink:href="#DejaVuSans-53" x="172.515625"/>
      <use xlink:href="#DejaVuSans-45" x="235.992188"/>
     </g>
    </g>
   </g>
   <g id="text_13">
    <g clip-path="url(#pb73c33483a)">
     <!-- e -->
     <g transform="translate(75.946506 206.630791) scale(0.125 -0.125)">
      <use xlink:href="#DejaVuSans-65"/>
     </g>
    </g>
   </g>
  </g>
 </g>
 <defs>
  <clipPath id="pb73c33483a">
   <rect x="7.2" y="7.2" width="438.077455" height="234.396"/>
  </clipPath>
 </defs>
</svg>
