<?xml version="1.0" encoding="utf-8" standalone="no"?>
<!DOCTYPE svg PUBLIC "-//W3C//DTD SVG 1.1//EN"
  "http://www.w3.org/Graphics/SVG/1.1/DTD/svg11.dtd">
<svg xmlns:xlink="http://www.w3.org/1999/xlink" width="268.783398pt" height="153.324pt" viewBox="0 0 268.783398 153.324" xmlns="http://www.w3.org/2000/svg" version="1.1">
 <metadata>
  <rdf:RDF xmlns:dc="http://purl.org/dc/elements/1.1/" xmlns:cc="http://creativecommons.org/ns#" xmlns:rdf="http://www.w3.org/1999/02/22-rdf-syntax-ns#">
   <cc:Work>
    <dc:type rdf:resource="http://purl.org/dc/dcmitype/StillImage"/>
    <dc:date>2022-12-17T13:18:10.733517</dc:date>
    <dc:format>image/svg+xml</dc:format>
    <dc:creator>
     <cc:Agent>
      <dc:title>Matplotlib v3.6.0, https://matplotlib.org/</dc:title>
     </cc:Agent>
    </dc:creator>
   </cc:Work>
  </rdf:RDF>
 </metadata>
 <defs>
  <style type="text/css">*{stroke-linejoin: round; stroke-linecap: butt}</style>
 </defs>
 <g id="figure_1">
  <g id="patch_1">
   <path d="M 0 153.324 
L 268.783398 153.324 
L 268.783398 0 
L 0 0 
L 0 153.324 
z
" style="fill: none"/>
  </g>
  <g id="axes_1">
   <g id="patch_2">
    <path d="M 202.117149 81.168559 
C 203.087649 81.168559 204.018531 80.782975 204.704779 80.096728 
C 205.391026 79.41048 205.77661 78.479598 205.77661 77.509098 
C 205.77661 76.538597 205.391026 75.607715 204.704779 74.921468 
C 204.018531 74.23522 203.087649 73.849636 202.117149 73.849636 
C 201.146648 73.849636 200.215766 74.23522 199.529519 74.921468 
C 198.843271 75.607715 198.457687 76.538597 198.457687 77.509098 
C 198.457687 78.479598 198.843271 79.41048 199.529519 80.096728 
C 200.215766 80.782975 201.146648 81.168559 202.117149 81.168559 
L 202.117149 81.168559 
z
" clip-path="url(#pd728d9b994)" style="fill: none; stroke: #000000; stroke-width: 2; stroke-linejoin: miter"/>
   </g>
   <g id="patch_3">
    <path d="M 141.126124 47.623496 
C 142.096625 47.623496 143.027507 47.237912 143.713754 46.551664 
C 144.400002 45.865417 144.785586 44.934535 144.785586 43.964034 
C 144.785586 42.993534 144.400002 42.062652 143.713754 41.376404 
C 143.027507 40.690157 142.096625 40.304573 141.126124 40.304573 
C 140.155624 40.304573 139.224742 40.690157 138.538494 41.376404 
C 137.852247 42.062652 137.466663 42.993534 137.466663 43.964034 
C 137.466663 44.934535 137.852247 45.865417 138.538494 46.551664 
C 139.224742 47.237912 140.155624 47.623496 141.126124 47.623496 
L 141.126124 47.623496 
z
" clip-path="url(#pd728d9b994)" style="fill: none; stroke: #000000; stroke-width: 2; stroke-linejoin: miter"/>
   </g>
   <g id="patch_4">
    <path d="M 66.564597 30.850964 
C 67.535098 30.850964 68.46598 30.46538 69.152227 29.779132 
C 69.838475 29.092885 70.224059 28.162003 70.224059 27.191502 
C 70.224059 26.221002 69.838475 25.29012 69.152227 24.603872 
C 68.46598 23.917625 67.535098 23.532041 66.564597 23.532041 
C 65.594097 23.532041 64.663215 23.917625 63.976967 24.603872 
C 63.29072 25.29012 62.905136 26.221002 62.905136 27.191502 
C 62.905136 28.162003 63.29072 29.092885 63.976967 29.779132 
C 64.663215 30.46538 65.594097 30.850964 66.564597 30.850964 
L 66.564597 30.850964 
z
" clip-path="url(#pd728d9b994)" style="fill: none; stroke: #000000; stroke-width: 2; stroke-linejoin: miter"/>
   </g>
   <g id="patch_5">
    <path d="M 66.564597 64.396027 
C 67.535098 64.396027 68.46598 64.010443 69.152227 63.324196 
C 69.838475 62.637948 70.224059 61.707066 70.224059 60.736566 
C 70.224059 59.766065 69.838475 58.835183 69.152227 58.148936 
C 68.46598 57.462688 67.535098 57.077104 66.564597 57.077104 
C 65.594097 57.077104 64.663215 57.462688 63.976967 58.148936 
C 63.29072 58.835183 62.905136 59.766065 62.905136 60.736566 
C 62.905136 61.707066 63.29072 62.637948 63.976967 63.324196 
C 64.663215 64.010443 65.594097 64.396027 66.564597 64.396027 
L 66.564597 64.396027 
z
" clip-path="url(#pd728d9b994)" style="fill: none; stroke: #000000; stroke-width: 2; stroke-linejoin: miter"/>
   </g>
   <g id="patch_6">
    <path d="M 141.126124 114.713622 
C 142.096625 114.713622 143.027507 114.328038 143.713754 113.641791 
C 144.400002 112.955543 144.785586 112.024662 144.785586 111.054161 
C 144.785586 110.08366 144.400002 109.152778 143.713754 108.466531 
C 143.027507 107.780283 142.096625 107.3947 141.126124 107.3947 
C 140.155624 107.3947 139.224742 107.780283 138.538494 108.466531 
C 137.852247 109.152778 137.466663 110.08366 137.466663 111.054161 
C 137.466663 112.024662 137.852247 112.955543 138.538494 113.641791 
C 139.224742 114.328038 140.155624 114.713622 141.126124 114.713622 
L 141.126124 114.713622 
z
" clip-path="url(#pd728d9b994)" style="fill: none; stroke: #000000; stroke-width: 2; stroke-linejoin: miter"/>
   </g>
   <g id="patch_7">
    <path d="M 66.564597 131.486154 
C 67.535098 131.486154 68.46598 131.10057 69.152227 130.414323 
C 69.838475 129.728075 70.224059 128.797193 70.224059 127.826693 
C 70.224059 126.856192 69.838475 125.92531 69.152227 125.239063 
C 68.46598 124.552815 67.535098 124.167231 66.564597 124.167231 
C 65.594097 124.167231 64.663215 124.552815 63.976967 125.239063 
C 63.29072 125.92531 62.905136 126.856192 62.905136 127.826693 
C 62.905136 128.797193 63.29072 129.728075 63.976967 130.414323 
C 64.663215 131.10057 65.594097 131.486154 66.564597 131.486154 
L 66.564597 131.486154 
z
" clip-path="url(#pd728d9b994)" style="fill: none; stroke: #000000; stroke-width: 2; stroke-linejoin: miter"/>
   </g>
   <g id="line2d_1">
    <path d="M 161.863073 92.451899 
L 178.853429 92.352321 
L 180.59603 92.05359 
L 182.338631 91.555704 
L 184.081232 90.858664 
L 185.823832 89.962469 
L 188.002083 88.562165 
L 190.180334 86.850682 
L 192.358585 84.82802 
L 194.536836 82.49418 
L 196.715087 79.849161 
L 198.457687 77.509098 
L 198.457687 77.509098 
L 195.843786 74.073685 
L 193.665535 71.553137 
L 191.487285 69.343769 
L 189.309034 67.445579 
L 187.130783 65.858567 
L 184.952532 64.582735 
L 183.209931 63.786117 
L 181.467331 63.188654 
L 179.72473 62.790345 
L 177.982129 62.591191 
L 177.110829 62.566297 
L 161.863073 62.566297 
L 161.863073 62.566297 
L 164.05875 65.005938 
L 165.449345 66.835668 
L 166.620373 68.665399 
L 167.571833 70.49513 
L 168.303725 72.32486 
L 168.816049 74.154591 
L 169.108806 75.984322 
L 169.181996 77.814053 
L 169.035617 79.643783 
L 168.669671 81.473514 
L 168.084157 83.303245 
L 167.279076 85.132976 
L 166.254426 86.962706 
L 165.01021 88.792437 
L 163.546425 90.622168 
L 161.863073 92.451899 
L 161.863073 92.451899 
" clip-path="url(#pd728d9b994)" style="fill: none; stroke: #000000; stroke-width: 2; stroke-linecap: round"/>
   </g>
   <g id="line2d_2">
    <path d="M 151.189643 85.132976 
L 167.279076 85.132976 
" clip-path="url(#pd728d9b994)" style="fill: none; stroke: #000000; stroke-width: 2; stroke-linecap: round"/>
   </g>
   <g id="line2d_3">
    <path d="M 151.189643 69.88522 
L 167.279076 69.88522 
" clip-path="url(#pd728d9b994)" style="fill: none; stroke: #000000; stroke-width: 2; stroke-linecap: round"/>
   </g>
   <g id="line2d_4">
    <path d="M 205.77661 77.509098 
L 209.131117 77.509098 
" clip-path="url(#pd728d9b994)" style="fill: none; stroke: #000000; stroke-width: 2; stroke-linecap: round"/>
   </g>
   <g id="line2d_5">
    <path d="M 100.872048 58.906835 
L 117.862405 58.807258 
L 119.605006 58.508526 
L 121.347606 58.01064 
L 123.090207 57.3136 
L 124.832808 56.417406 
L 127.011059 55.017101 
L 129.18931 53.305619 
L 131.36756 51.282957 
L 133.545811 48.949117 
L 135.724062 46.304098 
L 137.466663 43.964034 
L 137.466663 43.964034 
L 134.852762 40.528621 
L 132.674511 38.008074 
L 130.49626 35.798705 
L 128.318009 33.900515 
L 126.139758 32.313504 
L 123.961508 31.037671 
L 122.218907 30.241054 
L 120.476306 29.643591 
L 118.733705 29.245282 
L 116.991105 29.046127 
L 116.119804 29.021233 
L 100.872048 29.021233 
L 100.872048 29.021233 
L 103.067725 31.460874 
L 104.458321 33.290605 
L 105.629348 35.120336 
L 106.580808 36.950066 
L 107.3127 38.779797 
L 107.825025 40.609528 
L 108.117782 42.439259 
L 108.190971 44.268989 
L 108.044593 46.09872 
L 107.678647 47.928451 
L 107.093133 49.758181 
L 106.288051 51.587912 
L 105.263402 53.417643 
L 104.019185 55.247374 
L 102.555401 57.077104 
L 100.872048 58.906835 
L 100.872048 58.906835 
" clip-path="url(#pd728d9b994)" style="fill: none; stroke: #000000; stroke-width: 2; stroke-linecap: round"/>
   </g>
   <g id="line2d_6">
    <path d="M 90.198619 51.587912 
L 106.288051 51.587912 
" clip-path="url(#pd728d9b994)" style="fill: none; stroke: #000000; stroke-width: 2; stroke-linecap: round"/>
   </g>
   <g id="line2d_7">
    <path d="M 90.198619 36.340156 
L 106.288051 36.340156 
" clip-path="url(#pd728d9b994)" style="fill: none; stroke: #000000; stroke-width: 2; stroke-linecap: round"/>
   </g>
   <g id="line2d_8">
    <path d="M 144.785586 43.964034 
L 148.140092 43.964034 
" clip-path="url(#pd728d9b994)" style="fill: none; stroke: #000000; stroke-width: 2; stroke-linecap: round"/>
   </g>
   <g id="line2d_9">
    <path d="M 26.158043 27.191502 
L 43.083053 27.191502 
M 70.224059 27.191502 
L 87.149068 27.191502 
" clip-path="url(#pd728d9b994)" style="fill: none; stroke: #000000; stroke-width: 2; stroke-linecap: round"/>
   </g>
   <g id="line2d_10">
    <path d="M 43.083053 11.943746 
L 62.905136 27.191502 
L 43.083053 42.439259 
L 43.083053 11.943746 
" clip-path="url(#pd728d9b994)" style="fill: none; stroke: #000000; stroke-width: 2; stroke-linecap: round"/>
   </g>
   <g id="line2d_11">
    <path d="M 90.198619 36.340156 
L 87.149068 36.340156 
L 87.149068 27.191502 
" clip-path="url(#pd728d9b994)" style="fill: none; stroke: #000000; stroke-width: 2; stroke-linecap: round"/>
   </g>
   <g id="line2d_12">
    <path d="M 26.158043 60.736566 
L 43.083053 60.736566 
M 70.224059 60.736566 
L 87.149068 60.736566 
" clip-path="url(#pd728d9b994)" style="fill: none; stroke: #000000; stroke-width: 2; stroke-linecap: round"/>
   </g>
   <g id="line2d_13">
    <path d="M 43.083053 45.48881 
L 62.905136 60.736566 
L 43.083053 75.984322 
L 43.083053 45.48881 
" clip-path="url(#pd728d9b994)" style="fill: none; stroke: #000000; stroke-width: 2; stroke-linecap: round"/>
   </g>
   <g id="line2d_14">
    <path d="M 90.198619 51.587912 
L 87.149068 51.587912 
L 87.149068 60.736566 
" clip-path="url(#pd728d9b994)" style="fill: none; stroke: #000000; stroke-width: 2; stroke-linecap: round"/>
   </g>
   <g id="line2d_15">
    <path d="M 151.189643 69.88522 
L 148.140092 69.88522 
L 148.140092 43.964034 
" clip-path="url(#pd728d9b994)" style="fill: none; stroke: #000000; stroke-width: 2; stroke-linecap: round"/>
   </g>
   <g id="line2d_16">
    <path d="M 100.872048 125.996962 
L 117.862405 125.897385 
L 119.605006 125.598653 
L 121.347606 125.100767 
L 123.090207 124.403727 
L 124.832808 123.507532 
L 127.011059 122.107228 
L 129.18931 120.395745 
L 131.36756 118.373084 
L 133.545811 116.039244 
L 135.724062 113.394225 
L 137.466663 111.054161 
L 137.466663 111.054161 
L 134.852762 107.618748 
L 132.674511 105.098201 
L 130.49626 102.888832 
L 128.318009 100.990642 
L 126.139758 99.403631 
L 123.961508 98.127798 
L 122.218907 97.33118 
L 120.476306 96.733717 
L 118.733705 96.335409 
L 116.991105 96.136254 
L 116.119804 96.11136 
L 100.872048 96.11136 
L 100.872048 96.11136 
L 103.067725 98.551001 
L 104.458321 100.380732 
L 105.629348 102.210462 
L 106.580808 104.040193 
L 107.3127 105.869924 
L 107.825025 107.699655 
L 108.117782 109.529385 
L 108.190971 111.359116 
L 108.044593 113.188847 
L 107.678647 115.018578 
L 107.093133 116.848308 
L 106.288051 118.678039 
L 105.263402 120.50777 
L 104.019185 122.3375 
L 102.555401 124.167231 
L 100.872048 125.996962 
L 100.872048 125.996962 
" clip-path="url(#pd728d9b994)" style="fill: none; stroke: #000000; stroke-width: 2; stroke-linecap: round"/>
   </g>
   <g id="line2d_17">
    <path d="M 90.198619 118.678039 
L 106.288051 118.678039 
" clip-path="url(#pd728d9b994)" style="fill: none; stroke: #000000; stroke-width: 2; stroke-linecap: round"/>
   </g>
   <g id="line2d_18">
    <path d="M 90.198619 103.430283 
L 106.288051 103.430283 
" clip-path="url(#pd728d9b994)" style="fill: none; stroke: #000000; stroke-width: 2; stroke-linecap: round"/>
   </g>
   <g id="line2d_19">
    <path d="M 144.785586 111.054161 
L 148.140092 111.054161 
" clip-path="url(#pd728d9b994)" style="fill: none; stroke: #000000; stroke-width: 2; stroke-linecap: round"/>
   </g>
   <g id="line2d_20">
    <path d="M 26.158043 127.826693 
L 43.083053 127.826693 
M 70.224059 127.826693 
L 87.149068 127.826693 
" clip-path="url(#pd728d9b994)" style="fill: none; stroke: #000000; stroke-width: 2; stroke-linecap: round"/>
   </g>
   <g id="line2d_21">
    <path d="M 43.083053 112.578937 
L 62.905136 127.826693 
L 43.083053 143.074449 
L 43.083053 112.578937 
" clip-path="url(#pd728d9b994)" style="fill: none; stroke: #000000; stroke-width: 2; stroke-linecap: round"/>
   </g>
   <g id="line2d_22">
    <path d="M 90.198619 118.678039 
L 87.149068 118.678039 
L 87.149068 127.826693 
" clip-path="url(#pd728d9b994)" style="fill: none; stroke: #000000; stroke-width: 2; stroke-linecap: round"/>
   </g>
   <g id="line2d_23">
    <path d="M 151.189643 85.132976 
L 148.140092 85.132976 
L 148.140092 111.054161 
" clip-path="url(#pd728d9b994)" style="fill: none; stroke: #000000; stroke-width: 2; stroke-linecap: round"/>
   </g>
   <g id="text_1">
    <g clip-path="url(#pd728d9b994)">
     <!-- output -->
     <g transform="translate(212.180668 80.958316) scale(0.125 -0.125)">
      <defs>
       <path id="DejaVuSans-6f" d="M 1959 3097 
Q 1497 3097 1228 2736 
Q 959 2375 959 1747 
Q 959 1119 1226 758 
Q 1494 397 1959 397 
Q 2419 397 2687 759 
Q 2956 1122 2956 1747 
Q 2956 2369 2687 2733 
Q 2419 3097 1959 3097 
z
M 1959 3584 
Q 2709 3584 3137 3096 
Q 3566 2609 3566 1747 
Q 3566 888 3137 398 
Q 2709 -91 1959 -91 
Q 1206 -91 779 398 
Q 353 888 353 1747 
Q 353 2609 779 3096 
Q 1206 3584 1959 3584 
z
" transform="scale(0.015625)"/>
       <path id="DejaVuSans-75" d="M 544 1381 
L 544 3500 
L 1119 3500 
L 1119 1403 
Q 1119 906 1312 657 
Q 1506 409 1894 409 
Q 2359 409 2629 706 
Q 2900 1003 2900 1516 
L 2900 3500 
L 3475 3500 
L 3475 0 
L 2900 0 
L 2900 538 
Q 2691 219 2414 64 
Q 2138 -91 1772 -91 
Q 1169 -91 856 284 
Q 544 659 544 1381 
z
M 1991 3584 
L 1991 3584 
z
" transform="scale(0.015625)"/>
       <path id="DejaVuSans-74" d="M 1172 4494 
L 1172 3500 
L 2356 3500 
L 2356 3053 
L 1172 3053 
L 1172 1153 
Q 1172 725 1289 603 
Q 1406 481 1766 481 
L 2356 481 
L 2356 0 
L 1766 0 
Q 1100 0 847 248 
Q 594 497 594 1153 
L 594 3053 
L 172 3053 
L 172 3500 
L 594 3500 
L 594 4494 
L 1172 4494 
z
" transform="scale(0.015625)"/>
       <path id="DejaVuSans-70" d="M 1159 525 
L 1159 -1331 
L 581 -1331 
L 581 3500 
L 1159 3500 
L 1159 2969 
Q 1341 3281 1617 3432 
Q 1894 3584 2278 3584 
Q 2916 3584 3314 3078 
Q 3713 2572 3713 1747 
Q 3713 922 3314 415 
Q 2916 -91 2278 -91 
Q 1894 -91 1617 61 
Q 1341 213 1159 525 
z
M 3116 1747 
Q 3116 2381 2855 2742 
Q 2594 3103 2138 3103 
Q 1681 3103 1420 2742 
Q 1159 2381 1159 1747 
Q 1159 1113 1420 752 
Q 1681 391 2138 391 
Q 2594 391 2855 752 
Q 3116 1113 3116 1747 
z
" transform="scale(0.015625)"/>
      </defs>
      <use xlink:href="#DejaVuSans-6f"/>
      <use xlink:href="#DejaVuSans-75" x="61.181641"/>
      <use xlink:href="#DejaVuSans-74" x="124.560547"/>
      <use xlink:href="#DejaVuSans-70" x="163.769531"/>
      <use xlink:href="#DejaVuSans-75" x="227.246094"/>
      <use xlink:href="#DejaVuSans-74" x="290.625"/>
     </g>
    </g>
   </g>
   <g id="text_2">
    <g clip-path="url(#pd728d9b994)">
     <!-- a -->
     <g transform="translate(15.448336 30.640721) scale(0.125 -0.125)">
      <defs>
       <path id="DejaVuSans-61" d="M 2194 1759 
Q 1497 1759 1228 1600 
Q 959 1441 959 1056 
Q 959 750 1161 570 
Q 1363 391 1709 391 
Q 2188 391 2477 730 
Q 2766 1069 2766 1631 
L 2766 1759 
L 2194 1759 
z
M 3341 1997 
L 3341 0 
L 2766 0 
L 2766 531 
Q 2569 213 2275 61 
Q 1981 -91 1556 -91 
Q 1019 -91 701 211 
Q 384 513 384 1019 
Q 384 1609 779 1909 
Q 1175 2209 1959 2209 
L 2766 2209 
L 2766 2266 
Q 2766 2663 2505 2880 
Q 2244 3097 1772 3097 
Q 1472 3097 1187 3025 
Q 903 2953 641 2809 
L 641 3341 
Q 956 3463 1253 3523 
Q 1550 3584 1831 3584 
Q 2591 3584 2966 3190 
Q 3341 2797 3341 1997 
z
" transform="scale(0.015625)"/>
      </defs>
      <use xlink:href="#DejaVuSans-61"/>
     </g>
    </g>
   </g>
   <g id="text_3">
    <g clip-path="url(#pd728d9b994)">
     <!-- b -->
     <g transform="translate(15.172945 64.185785) scale(0.125 -0.125)">
      <defs>
       <path id="DejaVuSans-62" d="M 3116 1747 
Q 3116 2381 2855 2742 
Q 2594 3103 2138 3103 
Q 1681 3103 1420 2742 
Q 1159 2381 1159 1747 
Q 1159 1113 1420 752 
Q 1681 391 2138 391 
Q 2594 391 2855 752 
Q 3116 1113 3116 1747 
z
M 1159 2969 
Q 1341 3281 1617 3432 
Q 1894 3584 2278 3584 
Q 2916 3584 3314 3078 
Q 3713 2572 3713 1747 
Q 3713 922 3314 415 
Q 2916 -91 2278 -91 
Q 1894 -91 1617 61 
Q 1341 213 1159 525 
L 1159 0 
L 581 0 
L 581 4863 
L 1159 4863 
L 1159 2969 
z
" transform="scale(0.015625)"/>
      </defs>
      <use xlink:href="#DejaVuSans-62"/>
     </g>
    </g>
   </g>
   <g id="text_4">
    <g clip-path="url(#pd728d9b994)">
     <!-- c -->
     <g transform="translate(80.276021 106.879502) scale(0.125 -0.125)">
      <defs>
       <path id="DejaVuSans-63" d="M 3122 3366 
L 3122 2828 
Q 2878 2963 2633 3030 
Q 2388 3097 2138 3097 
Q 1578 3097 1268 2742 
Q 959 2388 959 1747 
Q 959 1106 1268 751 
Q 1578 397 2138 397 
Q 2388 397 2633 464 
Q 2878 531 3122 666 
L 3122 134 
Q 2881 22 2623 -34 
Q 2366 -91 2075 -91 
Q 1284 -91 818 406 
Q 353 903 353 1747 
Q 353 2603 823 3093 
Q 1294 3584 2113 3584 
Q 2378 3584 2631 3529 
Q 2884 3475 3122 3366 
z
" transform="scale(0.015625)"/>
      </defs>
      <use xlink:href="#DejaVuSans-63"/>
     </g>
    </g>
   </g>
   <g id="text_5">
    <g clip-path="url(#pd728d9b994)">
     <!-- c -->
     <g transform="translate(16.235445 131.275911) scale(0.125 -0.125)">
      <use xlink:href="#DejaVuSans-63"/>
     </g>
    </g>
   </g>
  </g>
 </g>
 <defs>
  <clipPath id="pd728d9b994">
   <rect x="7.2" y="7.2" width="254.383398" height="138.924"/>
  </clipPath>
 </defs>
</svg>
