<?xml version="1.0" encoding="utf-8" standalone="no"?>
<!DOCTYPE svg PUBLIC "-//W3C//DTD SVG 1.1//EN"
  "http://www.w3.org/Graphics/SVG/1.1/DTD/svg11.dtd">
<svg xmlns:xlink="http://www.w3.org/1999/xlink" width="391.034311pt" height="139.86pt" viewBox="0 0 391.034311 139.86" xmlns="http://www.w3.org/2000/svg" version="1.1">
 <metadata>
  <rdf:RDF xmlns:dc="http://purl.org/dc/elements/1.1/" xmlns:cc="http://creativecommons.org/ns#" xmlns:rdf="http://www.w3.org/1999/02/22-rdf-syntax-ns#">
   <cc:Work>
    <dc:type rdf:resource="http://purl.org/dc/dcmitype/StillImage"/>
    <dc:date>2022-11-07T10:30:28.115761</dc:date>
    <dc:format>image/svg+xml</dc:format>
    <dc:creator>
     <cc:Agent>
      <dc:title>Matplotlib v3.6.0, https://matplotlib.org/</dc:title>
     </cc:Agent>
    </dc:creator>
   </cc:Work>
  </rdf:RDF>
 </metadata>
 <defs>
  <style type="text/css">*{stroke-linejoin: round; stroke-linecap: butt}</style>
 </defs>
 <g id="figure_1">
  <g id="patch_1">
   <path d="M 0 139.86 
L 391.034311 139.86 
L 391.034311 0 
L 0 0 
L 0 139.86 
z
" style="fill: none"/>
  </g>
  <g id="axes_1">
   <g id="patch_2">
    <path d="M 202.256392 81.2214 
C 203.227586 81.2214 204.159133 80.835541 204.84587 80.148803 
C 205.532608 79.462065 205.918468 78.530518 205.918468 77.559324 
C 205.918468 76.588131 205.532608 75.656584 204.84587 74.969846 
C 204.159133 74.283108 203.227586 73.897249 202.256392 73.897249 
C 201.285198 73.897249 200.353651 74.283108 199.666913 74.969846 
C 198.980176 75.656584 198.594316 76.588131 198.594316 77.559324 
C 198.594316 78.530518 198.980176 79.462065 199.666913 80.148803 
C 200.353651 80.835541 201.285198 81.2214 202.256392 81.2214 
L 202.256392 81.2214 
z
" clip-path="url(#p28edda7891)" style="fill: none; stroke: #000000; stroke-width: 2; stroke-linejoin: miter"/>
   </g>
   <g id="patch_3">
    <path d="M 66.607005 30.867859 
C 67.578199 30.867859 68.509746 30.482 69.196484 29.795262 
C 69.883222 29.108525 70.269081 28.176978 70.269081 27.205784 
C 70.269081 26.23459 69.883222 25.303043 69.196484 24.616305 
C 68.509746 23.929568 67.578199 23.543708 66.607005 23.543708 
C 65.635812 23.543708 64.704265 23.929568 64.017527 24.616305 
C 63.330789 25.303043 62.94493 26.23459 62.94493 27.205784 
C 62.94493 28.176978 63.330789 29.108525 64.017527 29.795262 
C 64.704265 30.482 65.635812 30.867859 66.607005 30.867859 
L 66.607005 30.867859 
z
" clip-path="url(#p28edda7891)" style="fill: none; stroke: #000000; stroke-width: 2; stroke-linejoin: miter"/>
   </g>
   <g id="patch_4">
    <path d="M 66.607005 64.436886 
C 67.578199 64.436886 68.509746 64.051027 69.196484 63.364289 
C 69.883222 62.677552 70.269081 61.746005 70.269081 60.774811 
C 70.269081 59.803617 69.883222 58.87207 69.196484 58.185332 
C 68.509746 57.498595 67.578199 57.112735 66.607005 57.112735 
C 65.635812 57.112735 64.704265 57.498595 64.017527 58.185332 
C 63.330789 58.87207 62.94493 59.803617 62.94493 60.774811 
C 62.94493 61.746005 63.330789 62.677552 64.017527 63.364289 
C 64.704265 64.051027 65.635812 64.436886 66.607005 64.436886 
L 66.607005 64.436886 
z
" clip-path="url(#p28edda7891)" style="fill: none; stroke: #000000; stroke-width: 2; stroke-linejoin: miter"/>
   </g>
   <g id="patch_5">
    <path d="M 141.221797 114.790427 
C 142.192991 114.790427 143.124538 114.404568 143.811276 113.71783 
C 144.498014 113.031092 144.883873 112.099545 144.883873 111.128351 
C 144.883873 110.157158 144.498014 109.225611 143.811276 108.538873 
C 143.124538 107.852135 142.192991 107.466276 141.221797 107.466276 
C 140.250603 107.466276 139.319056 107.852135 138.632319 108.538873 
C 137.945581 109.225611 137.559722 110.157158 137.559722 111.128351 
C 137.559722 112.099545 137.945581 113.031092 138.632319 113.71783 
C 139.319056 114.404568 140.250603 114.790427 141.221797 114.790427 
L 141.221797 114.790427 
z
" clip-path="url(#p28edda7891)" style="fill: none; stroke: #000000; stroke-width: 2; stroke-linejoin: miter"/>
   </g>
   <g id="line2d_1">
    <path d="M 305.404857 126.387 
L 306.382482 126.355649 
L 307.356089 126.261727 
L 308.321679 126.105618 
L 309.275283 125.887964 
L 310.212982 125.60966 
L 311.130924 125.271848 
L 312.025336 124.875919 
L 312.892543 124.423497 
L 313.728982 123.916443 
L 314.531215 123.35684 
L 315.295946 122.746988 
L 316.020032 122.089392 
L 316.700499 121.386754 
L 317.334549 120.641963 
L 317.919577 119.858078 
L 318.45318 119.038321 
L 318.933164 118.186061 
L 319.357558 117.304798 
L 319.724617 116.398155 
L 320.032833 115.469858 
L 320.280939 114.52372 
L 320.467917 113.56363 
L 320.592997 112.593533 
L 320.655666 111.617415 
L 320.655666 110.639288 
L 320.592997 109.66317 
L 320.467917 108.693073 
L 320.280939 107.732983 
L 320.032833 106.786845 
L 319.724617 105.858547 
L 319.357558 104.951905 
L 318.933164 104.070642 
L 318.45318 103.218381 
L 317.919577 102.398624 
L 317.334549 101.61474 
L 316.700499 100.869948 
L 316.020032 100.167311 
L 315.295946 99.509715 
L 314.531215 98.899862 
L 313.728982 98.340259 
L 312.892543 97.833205 
L 312.025336 97.380784 
L 311.130924 96.984854 
L 310.212982 96.647043 
L 309.275283 96.368739 
L 308.321679 96.151085 
L 307.356089 95.994976 
L 306.382482 95.901053 
L 305.404857 95.869703 
L 305.404857 95.869703 
L 285.568614 95.869703 
L 285.568614 111.128351 
L 285.568614 126.387 
L 305.404857 126.387 
" clip-path="url(#p28edda7891)" style="fill: none; stroke: #000000; stroke-width: 2; stroke-linecap: round"/>
   </g>
   <g id="line2d_2">
    <path d="M 274.887559 118.757676 
L 285.568614 118.757676 
" clip-path="url(#p28edda7891)" style="fill: none; stroke: #000000; stroke-width: 2; stroke-linecap: round"/>
   </g>
   <g id="line2d_3">
    <path d="M 274.887559 103.499027 
L 285.568614 103.499027 
" clip-path="url(#p28edda7891)" style="fill: none; stroke: #000000; stroke-width: 2; stroke-linecap: round"/>
   </g>
   <g id="line2d_4">
    <path d="M 320.663505 111.128351 
L 331.344559 111.128351 
" clip-path="url(#p28edda7891)" style="fill: none; stroke: #000000; stroke-width: 2; stroke-linecap: round"/>
   </g>
   <g id="line2d_5">
    <path d="M 244.370262 109.602486 
L 245.347887 109.571136 
L 246.321495 109.477213 
L 247.287085 109.321104 
L 248.240688 109.10345 
L 249.178388 108.825146 
L 250.09633 108.487335 
L 250.990742 108.091405 
L 251.857949 107.638984 
L 252.694388 107.13193 
L 253.496621 106.572327 
L 254.261351 105.962474 
L 254.985438 105.304878 
L 255.665904 104.602241 
L 256.299954 103.85745 
L 256.884982 103.073565 
L 257.418585 102.253808 
L 257.898569 101.401547 
L 258.322963 100.520285 
L 258.690022 99.613642 
L 258.998238 98.685344 
L 259.246345 97.739207 
L 259.433322 96.779117 
L 259.558402 95.809019 
L 259.621071 94.832902 
L 259.621071 93.854774 
L 259.558402 92.878656 
L 259.433322 91.908559 
L 259.246345 90.948469 
L 258.998238 90.002331 
L 258.690022 89.074034 
L 258.322963 88.167391 
L 257.898569 87.286129 
L 257.418585 86.433868 
L 256.884982 85.614111 
L 256.299954 84.830226 
L 255.665904 84.085435 
L 254.985438 83.382797 
L 254.261351 82.725201 
L 253.496621 82.115349 
L 252.694388 81.555746 
L 251.857949 81.048692 
L 250.990742 80.59627 
L 250.09633 80.200341 
L 249.178388 79.86253 
L 248.240688 79.584225 
L 247.287085 79.366572 
L 246.321495 79.210462 
L 245.347887 79.11654 
L 244.370262 79.085189 
L 244.370262 79.085189 
L 224.534019 79.085189 
L 224.534019 94.343838 
L 224.534019 109.602486 
L 244.370262 109.602486 
" clip-path="url(#p28edda7891)" style="fill: none; stroke: #000000; stroke-width: 2; stroke-linecap: round"/>
   </g>
   <g id="line2d_6">
    <path d="M 213.852965 101.973162 
L 224.534019 101.973162 
" clip-path="url(#p28edda7891)" style="fill: none; stroke: #000000; stroke-width: 2; stroke-linecap: round"/>
   </g>
   <g id="line2d_7">
    <path d="M 213.852965 86.714514 
L 224.534019 86.714514 
" clip-path="url(#p28edda7891)" style="fill: none; stroke: #000000; stroke-width: 2; stroke-linecap: round"/>
   </g>
   <g id="line2d_8">
    <path d="M 259.628911 94.343838 
L 270.309965 94.343838 
" clip-path="url(#p28edda7891)" style="fill: none; stroke: #000000; stroke-width: 2; stroke-linecap: round"/>
   </g>
   <g id="line2d_9">
    <path d="M 183.335668 92.817973 
L 184.313293 92.786622 
L 185.2869 92.6927 
L 186.25249 92.536591 
L 187.206094 92.318937 
L 188.143793 92.040633 
L 189.061735 91.702821 
L 189.956147 91.306892 
L 190.823354 90.85447 
L 191.659793 90.347416 
L 192.462026 89.787813 
L 193.226757 89.177961 
L 193.950843 88.520365 
L 194.631309 87.817727 
L 195.265359 87.072936 
L 195.850388 86.289051 
L 196.383991 85.469294 
L 196.863975 84.617034 
L 197.288369 83.735771 
L 197.655427 82.829128 
L 197.963644 81.900831 
L 198.21175 80.954693 
L 198.398728 79.994603 
L 198.523808 79.024506 
L 198.586477 78.048388 
L 198.586477 77.070261 
L 198.523808 76.094143 
L 198.398728 75.124046 
L 198.21175 74.163956 
L 197.963644 73.217818 
L 197.655427 72.28952 
L 197.288369 71.382878 
L 196.863975 70.501615 
L 196.383991 69.649354 
L 195.850388 68.829597 
L 195.265359 68.045713 
L 194.631309 67.300921 
L 193.950843 66.598284 
L 193.226757 65.940688 
L 192.462026 65.330835 
L 191.659793 64.771232 
L 190.823354 64.264178 
L 189.956147 63.811757 
L 189.061735 63.415827 
L 188.143793 63.078016 
L 187.206094 62.799712 
L 186.25249 62.582058 
L 185.2869 62.425949 
L 184.313293 62.332026 
L 183.335668 62.300676 
L 183.335668 62.300676 
L 163.499424 62.300676 
L 163.499424 77.559324 
L 163.499424 92.817973 
L 183.335668 92.817973 
" clip-path="url(#p28edda7891)" style="fill: none; stroke: #000000; stroke-width: 2; stroke-linecap: round"/>
   </g>
   <g id="line2d_10">
    <path d="M 152.81837 85.188649 
L 163.499424 85.188649 
" clip-path="url(#p28edda7891)" style="fill: none; stroke: #000000; stroke-width: 2; stroke-linecap: round"/>
   </g>
   <g id="line2d_11">
    <path d="M 152.81837 69.93 
L 163.499424 69.93 
" clip-path="url(#p28edda7891)" style="fill: none; stroke: #000000; stroke-width: 2; stroke-linecap: round"/>
   </g>
   <g id="line2d_12">
    <path d="M 205.918468 77.559324 
L 209.27537 77.559324 
" clip-path="url(#p28edda7891)" style="fill: none; stroke: #000000; stroke-width: 2; stroke-linecap: round"/>
   </g>
   <g id="line2d_13">
    <path d="M 122.301073 59.248946 
L 123.278698 59.217595 
L 124.252306 59.123673 
L 125.217895 58.967564 
L 126.171499 58.74991 
L 127.109199 58.471605 
L 128.02714 58.133794 
L 128.921553 57.737865 
L 129.78876 57.285443 
L 130.625198 56.778389 
L 131.427431 56.218786 
L 132.192162 55.608934 
L 132.916249 54.951338 
L 133.596715 54.2487 
L 134.230765 53.503909 
L 134.815793 52.720024 
L 135.349396 51.900267 
L 135.82938 51.048007 
L 136.253774 50.166744 
L 136.620833 49.260101 
L 136.929049 48.331804 
L 137.177155 47.385666 
L 137.364133 46.425576 
L 137.489213 45.455479 
L 137.551882 44.479361 
L 137.551882 43.501234 
L 137.489213 42.525116 
L 137.364133 41.555019 
L 137.177155 40.594929 
L 136.929049 39.648791 
L 136.620833 38.720493 
L 136.253774 37.81385 
L 135.82938 36.932588 
L 135.349396 36.080327 
L 134.815793 35.26057 
L 134.230765 34.476685 
L 133.596715 33.731894 
L 132.916249 33.029257 
L 132.192162 32.371661 
L 131.427431 31.761808 
L 130.625198 31.202205 
L 129.78876 30.695151 
L 128.921553 30.24273 
L 128.02714 29.8468 
L 127.109199 29.508989 
L 126.171499 29.230685 
L 125.217895 29.013031 
L 124.252306 28.856922 
L 123.278698 28.762999 
L 122.301073 28.731649 
L 122.301073 28.731649 
L 102.46483 28.731649 
L 102.46483 43.990297 
L 102.46483 59.248946 
L 122.301073 59.248946 
" clip-path="url(#p28edda7891)" style="fill: none; stroke: #000000; stroke-width: 2; stroke-linecap: round"/>
   </g>
   <g id="line2d_14">
    <path d="M 91.783776 51.619622 
L 102.46483 51.619622 
" clip-path="url(#p28edda7891)" style="fill: none; stroke: #000000; stroke-width: 2; stroke-linecap: round"/>
   </g>
   <g id="line2d_15">
    <path d="M 91.783776 36.360973 
L 102.46483 36.360973 
" clip-path="url(#p28edda7891)" style="fill: none; stroke: #000000; stroke-width: 2; stroke-linecap: round"/>
   </g>
   <g id="line2d_16">
    <path d="M 137.559722 43.990297 
L 148.240776 43.990297 
" clip-path="url(#p28edda7891)" style="fill: none; stroke: #000000; stroke-width: 2; stroke-linecap: round"/>
   </g>
   <g id="line2d_17">
    <path d="M 26.171586 27.205784 
L 43.108686 27.205784 
M 70.269081 27.205784 
L 87.206181 27.205784 
" clip-path="url(#p28edda7891)" style="fill: none; stroke: #000000; stroke-width: 2; stroke-linecap: round"/>
   </g>
   <g id="line2d_18">
    <path d="M 43.108686 11.947135 
L 62.94493 27.205784 
L 43.108686 42.464432 
L 43.108686 11.947135 
" clip-path="url(#p28edda7891)" style="fill: none; stroke: #000000; stroke-width: 2; stroke-linecap: round"/>
   </g>
   <g id="line2d_19">
    <path d="M 91.783776 36.360973 
L 87.206181 36.360973 
L 87.206181 27.205784 
" clip-path="url(#p28edda7891)" style="fill: none; stroke: #000000; stroke-width: 2; stroke-linecap: round"/>
   </g>
   <g id="line2d_20">
    <path d="M 26.171586 60.774811 
L 43.108686 60.774811 
M 70.269081 60.774811 
L 87.206181 60.774811 
" clip-path="url(#p28edda7891)" style="fill: none; stroke: #000000; stroke-width: 2; stroke-linecap: round"/>
   </g>
   <g id="line2d_21">
    <path d="M 43.108686 45.516162 
L 62.94493 60.774811 
L 43.108686 76.033459 
L 43.108686 45.516162 
" clip-path="url(#p28edda7891)" style="fill: none; stroke: #000000; stroke-width: 2; stroke-linecap: round"/>
   </g>
   <g id="line2d_22">
    <path d="M 91.783776 51.619622 
L 87.206181 51.619622 
L 87.206181 60.774811 
" clip-path="url(#p28edda7891)" style="fill: none; stroke: #000000; stroke-width: 2; stroke-linecap: round"/>
   </g>
   <g id="line2d_23">
    <path d="M 152.81837 69.93 
L 148.240776 69.93 
L 148.240776 43.990297 
" clip-path="url(#p28edda7891)" style="fill: none; stroke: #000000; stroke-width: 2; stroke-linecap: round"/>
   </g>
   <g id="line2d_24">
    <path d="M 122.301073 126.387 
L 123.278698 126.355649 
L 124.252306 126.261727 
L 125.217895 126.105618 
L 126.171499 125.887964 
L 127.109199 125.60966 
L 128.02714 125.271848 
L 128.921553 124.875919 
L 129.78876 124.423497 
L 130.625198 123.916443 
L 131.427431 123.35684 
L 132.192162 122.746988 
L 132.916249 122.089392 
L 133.596715 121.386754 
L 134.230765 120.641963 
L 134.815793 119.858078 
L 135.349396 119.038321 
L 135.82938 118.186061 
L 136.253774 117.304798 
L 136.620833 116.398155 
L 136.929049 115.469858 
L 137.177155 114.52372 
L 137.364133 113.56363 
L 137.489213 112.593533 
L 137.551882 111.617415 
L 137.551882 110.639288 
L 137.489213 109.66317 
L 137.364133 108.693073 
L 137.177155 107.732983 
L 136.929049 106.786845 
L 136.620833 105.858547 
L 136.253774 104.951905 
L 135.82938 104.070642 
L 135.349396 103.218381 
L 134.815793 102.398624 
L 134.230765 101.61474 
L 133.596715 100.869948 
L 132.916249 100.167311 
L 132.192162 99.509715 
L 131.427431 98.899862 
L 130.625198 98.340259 
L 129.78876 97.833205 
L 128.921553 97.380784 
L 128.02714 96.984854 
L 127.109199 96.647043 
L 126.171499 96.368739 
L 125.217895 96.151085 
L 124.252306 95.994976 
L 123.278698 95.901053 
L 122.301073 95.869703 
L 122.301073 95.869703 
L 102.46483 95.869703 
L 102.46483 111.128351 
L 102.46483 126.387 
L 122.301073 126.387 
" clip-path="url(#p28edda7891)" style="fill: none; stroke: #000000; stroke-width: 2; stroke-linecap: round"/>
   </g>
   <g id="line2d_25">
    <path d="M 91.783776 118.757676 
L 102.46483 118.757676 
" clip-path="url(#p28edda7891)" style="fill: none; stroke: #000000; stroke-width: 2; stroke-linecap: round"/>
   </g>
   <g id="line2d_26">
    <path d="M 91.783776 103.499027 
L 102.46483 103.499027 
" clip-path="url(#p28edda7891)" style="fill: none; stroke: #000000; stroke-width: 2; stroke-linecap: round"/>
   </g>
   <g id="line2d_27">
    <path d="M 144.883873 111.128351 
L 148.240776 111.128351 
" clip-path="url(#p28edda7891)" style="fill: none; stroke: #000000; stroke-width: 2; stroke-linecap: round"/>
   </g>
   <g id="line2d_28">
    <path d="M 152.81837 85.188649 
L 148.240776 85.188649 
L 148.240776 111.128351 
" clip-path="url(#p28edda7891)" style="fill: none; stroke: #000000; stroke-width: 2; stroke-linecap: round"/>
   </g>
   <g id="line2d_29">
    <path d="M 213.852965 86.714514 
L 209.27537 86.714514 
L 209.27537 77.559324 
" clip-path="url(#p28edda7891)" style="fill: none; stroke: #000000; stroke-width: 2; stroke-linecap: round"/>
   </g>
   <g id="line2d_30">
    <path d="M 274.887559 103.499027 
L 270.309965 103.499027 
L 270.309965 94.343838 
" clip-path="url(#p28edda7891)" style="fill: none; stroke: #000000; stroke-width: 2; stroke-linecap: round"/>
   </g>
   <g id="text_1">
    <g clip-path="url(#p28edda7891)">
     <!-- output -->
     <g transform="translate(334.396289 114.57757) scale(0.125 -0.125)">
      <defs>
       <path id="DejaVuSans-6f" d="M 1959 3097 
Q 1497 3097 1228 2736 
Q 959 2375 959 1747 
Q 959 1119 1226 758 
Q 1494 397 1959 397 
Q 2419 397 2687 759 
Q 2956 1122 2956 1747 
Q 2956 2369 2687 2733 
Q 2419 3097 1959 3097 
z
M 1959 3584 
Q 2709 3584 3137 3096 
Q 3566 2609 3566 1747 
Q 3566 888 3137 398 
Q 2709 -91 1959 -91 
Q 1206 -91 779 398 
Q 353 888 353 1747 
Q 353 2609 779 3096 
Q 1206 3584 1959 3584 
z
" transform="scale(0.015625)"/>
       <path id="DejaVuSans-75" d="M 544 1381 
L 544 3500 
L 1119 3500 
L 1119 1403 
Q 1119 906 1312 657 
Q 1506 409 1894 409 
Q 2359 409 2629 706 
Q 2900 1003 2900 1516 
L 2900 3500 
L 3475 3500 
L 3475 0 
L 2900 0 
L 2900 538 
Q 2691 219 2414 64 
Q 2138 -91 1772 -91 
Q 1169 -91 856 284 
Q 544 659 544 1381 
z
M 1991 3584 
L 1991 3584 
z
" transform="scale(0.015625)"/>
       <path id="DejaVuSans-74" d="M 1172 4494 
L 1172 3500 
L 2356 3500 
L 2356 3053 
L 1172 3053 
L 1172 1153 
Q 1172 725 1289 603 
Q 1406 481 1766 481 
L 2356 481 
L 2356 0 
L 1766 0 
Q 1100 0 847 248 
Q 594 497 594 1153 
L 594 3053 
L 172 3053 
L 172 3500 
L 594 3500 
L 594 4494 
L 1172 4494 
z
" transform="scale(0.015625)"/>
       <path id="DejaVuSans-70" d="M 1159 525 
L 1159 -1331 
L 581 -1331 
L 581 3500 
L 1159 3500 
L 1159 2969 
Q 1341 3281 1617 3432 
Q 1894 3584 2278 3584 
Q 2916 3584 3314 3078 
Q 3713 2572 3713 1747 
Q 3713 922 3314 415 
Q 2916 -91 2278 -91 
Q 1894 -91 1617 61 
Q 1341 213 1159 525 
z
M 3116 1747 
Q 3116 2381 2855 2742 
Q 2594 3103 2138 3103 
Q 1681 3103 1420 2742 
Q 1159 2381 1159 1747 
Q 1159 1113 1420 752 
Q 1681 391 2138 391 
Q 2594 391 2855 752 
Q 3116 1113 3116 1747 
z
" transform="scale(0.015625)"/>
      </defs>
      <use xlink:href="#DejaVuSans-6f"/>
      <use xlink:href="#DejaVuSans-75" x="61.181641"/>
      <use xlink:href="#DejaVuSans-74" x="124.560547"/>
      <use xlink:href="#DejaVuSans-70" x="163.769531"/>
      <use xlink:href="#DejaVuSans-75" x="227.246094"/>
      <use xlink:href="#DejaVuSans-74" x="290.625"/>
     </g>
    </g>
   </g>
   <g id="text_2">
    <g clip-path="url(#p28edda7891)">
     <!-- TRUE -->
     <g transform="translate(238.468642 122.206894) scale(0.125 -0.125)">
      <defs>
       <path id="DejaVuSans-54" d="M -19 4666 
L 3928 4666 
L 3928 4134 
L 2272 4134 
L 2272 0 
L 1638 0 
L 1638 4134 
L -19 4134 
L -19 4666 
z
" transform="scale(0.015625)"/>
       <path id="DejaVuSans-52" d="M 2841 2188 
Q 3044 2119 3236 1894 
Q 3428 1669 3622 1275 
L 4263 0 
L 3584 0 
L 2988 1197 
Q 2756 1666 2539 1819 
Q 2322 1972 1947 1972 
L 1259 1972 
L 1259 0 
L 628 0 
L 628 4666 
L 2053 4666 
Q 2853 4666 3247 4331 
Q 3641 3997 3641 3322 
Q 3641 2881 3436 2590 
Q 3231 2300 2841 2188 
z
M 1259 4147 
L 1259 2491 
L 2053 2491 
Q 2509 2491 2742 2702 
Q 2975 2913 2975 3322 
Q 2975 3731 2742 3939 
Q 2509 4147 2053 4147 
L 1259 4147 
z
" transform="scale(0.015625)"/>
       <path id="DejaVuSans-55" d="M 556 4666 
L 1191 4666 
L 1191 1831 
Q 1191 1081 1462 751 
Q 1734 422 2344 422 
Q 2950 422 3222 751 
Q 3494 1081 3494 1831 
L 3494 4666 
L 4128 4666 
L 4128 1753 
Q 4128 841 3676 375 
Q 3225 -91 2344 -91 
Q 1459 -91 1007 375 
Q 556 841 556 1753 
L 556 4666 
z
" transform="scale(0.015625)"/>
       <path id="DejaVuSans-45" d="M 628 4666 
L 3578 4666 
L 3578 4134 
L 1259 4134 
L 1259 2753 
L 3481 2753 
L 3481 2222 
L 1259 2222 
L 1259 531 
L 3634 531 
L 3634 0 
L 628 0 
L 628 4666 
z
" transform="scale(0.015625)"/>
      </defs>
      <use xlink:href="#DejaVuSans-54"/>
      <use xlink:href="#DejaVuSans-52" x="61.083984"/>
      <use xlink:href="#DejaVuSans-55" x="130.566406"/>
      <use xlink:href="#DejaVuSans-45" x="203.759766"/>
     </g>
    </g>
   </g>
   <g id="text_3">
    <g clip-path="url(#p28edda7891)">
     <!-- TRUE -->
     <g transform="translate(177.434048 105.422381) scale(0.125 -0.125)">
      <use xlink:href="#DejaVuSans-54"/>
      <use xlink:href="#DejaVuSans-52" x="61.083984"/>
      <use xlink:href="#DejaVuSans-55" x="130.566406"/>
      <use xlink:href="#DejaVuSans-45" x="203.759766"/>
     </g>
    </g>
   </g>
   <g id="text_4">
    <g clip-path="url(#p28edda7891)">
     <!-- a -->
     <g transform="translate(15.459701 30.655003) scale(0.125 -0.125)">
      <defs>
       <path id="DejaVuSans-61" d="M 2194 1759 
Q 1497 1759 1228 1600 
Q 959 1441 959 1056 
Q 959 750 1161 570 
Q 1363 391 1709 391 
Q 2188 391 2477 730 
Q 2766 1069 2766 1631 
L 2766 1759 
L 2194 1759 
z
M 3341 1997 
L 3341 0 
L 2766 0 
L 2766 531 
Q 2569 213 2275 61 
Q 1981 -91 1556 -91 
Q 1019 -91 701 211 
Q 384 513 384 1019 
Q 384 1609 779 1909 
Q 1175 2209 1959 2209 
L 2766 2209 
L 2766 2266 
Q 2766 2663 2505 2880 
Q 2244 3097 1772 3097 
Q 1472 3097 1187 3025 
Q 903 2953 641 2809 
L 641 3341 
Q 956 3463 1253 3523 
Q 1550 3584 1831 3584 
Q 2591 3584 2966 3190 
Q 3341 2797 3341 1997 
z
" transform="scale(0.015625)"/>
      </defs>
      <use xlink:href="#DejaVuSans-61"/>
     </g>
    </g>
   </g>
   <g id="text_5">
    <g clip-path="url(#p28edda7891)">
     <!-- b -->
     <g transform="translate(15.18431 64.22403) scale(0.125 -0.125)">
      <defs>
       <path id="DejaVuSans-62" d="M 3116 1747 
Q 3116 2381 2855 2742 
Q 2594 3103 2138 3103 
Q 1681 3103 1420 2742 
Q 1159 2381 1159 1747 
Q 1159 1113 1420 752 
Q 1681 391 2138 391 
Q 2594 391 2855 752 
Q 3116 1113 3116 1747 
z
M 1159 2969 
Q 1341 3281 1617 3432 
Q 1894 3584 2278 3584 
Q 2916 3584 3314 3078 
Q 3713 2572 3713 1747 
Q 3713 922 3314 415 
Q 2916 -91 2278 -91 
Q 1894 -91 1617 61 
Q 1341 213 1159 525 
L 1159 0 
L 581 0 
L 581 4863 
L 1159 4863 
L 1159 2969 
z
" transform="scale(0.015625)"/>
      </defs>
      <use xlink:href="#DejaVuSans-62"/>
     </g>
    </g>
   </g>
   <g id="text_6">
    <g clip-path="url(#p28edda7891)">
     <!-- c -->
     <g transform="translate(81.858999 106.948246) scale(0.125 -0.125)">
      <defs>
       <path id="DejaVuSans-63" d="M 3122 3366 
L 3122 2828 
Q 2878 2963 2633 3030 
Q 2388 3097 2138 3097 
Q 1578 3097 1268 2742 
Q 959 2388 959 1747 
Q 959 1106 1268 751 
Q 1578 397 2138 397 
Q 2388 397 2633 464 
Q 2878 531 3122 666 
L 3122 134 
Q 2881 22 2623 -34 
Q 2366 -91 2075 -91 
Q 1284 -91 818 406 
Q 353 903 353 1747 
Q 353 2603 823 3093 
Q 1294 3584 2113 3584 
Q 2378 3584 2631 3529 
Q 2884 3475 3122 3366 
z
" transform="scale(0.015625)"/>
      </defs>
      <use xlink:href="#DejaVuSans-63"/>
     </g>
    </g>
   </g>
   <g id="text_7">
    <g clip-path="url(#p28edda7891)">
     <!-- FALSE -->
     <g transform="translate(51.333608 122.206894) scale(0.125 -0.125)">
      <defs>
       <path id="DejaVuSans-46" d="M 628 4666 
L 3309 4666 
L 3309 4134 
L 1259 4134 
L 1259 2759 
L 3109 2759 
L 3109 2228 
L 1259 2228 
L 1259 0 
L 628 0 
L 628 4666 
z
" transform="scale(0.015625)"/>
       <path id="DejaVuSans-41" d="M 2188 4044 
L 1331 1722 
L 3047 1722 
L 2188 4044 
z
M 1831 4666 
L 2547 4666 
L 4325 0 
L 3669 0 
L 3244 1197 
L 1141 1197 
L 716 0 
L 50 0 
L 1831 4666 
z
" transform="scale(0.015625)"/>
       <path id="DejaVuSans-4c" d="M 628 4666 
L 1259 4666 
L 1259 531 
L 3531 531 
L 3531 0 
L 628 0 
L 628 4666 
z
" transform="scale(0.015625)"/>
       <path id="DejaVuSans-53" d="M 3425 4513 
L 3425 3897 
Q 3066 4069 2747 4153 
Q 2428 4238 2131 4238 
Q 1616 4238 1336 4038 
Q 1056 3838 1056 3469 
Q 1056 3159 1242 3001 
Q 1428 2844 1947 2747 
L 2328 2669 
Q 3034 2534 3370 2195 
Q 3706 1856 3706 1288 
Q 3706 609 3251 259 
Q 2797 -91 1919 -91 
Q 1588 -91 1214 -16 
Q 841 59 441 206 
L 441 856 
Q 825 641 1194 531 
Q 1563 422 1919 422 
Q 2459 422 2753 634 
Q 3047 847 3047 1241 
Q 3047 1584 2836 1778 
Q 2625 1972 2144 2069 
L 1759 2144 
Q 1053 2284 737 2584 
Q 422 2884 422 3419 
Q 422 4038 858 4394 
Q 1294 4750 2059 4750 
Q 2388 4750 2728 4690 
Q 3069 4631 3425 4513 
z
" transform="scale(0.015625)"/>
      </defs>
      <use xlink:href="#DejaVuSans-46"/>
      <use xlink:href="#DejaVuSans-41" x="48.394531"/>
      <use xlink:href="#DejaVuSans-4c" x="116.802734"/>
      <use xlink:href="#DejaVuSans-53" x="172.515625"/>
      <use xlink:href="#DejaVuSans-45" x="235.992188"/>
     </g>
    </g>
   </g>
  </g>
 </g>
 <defs>
  <clipPath id="p28edda7891">
   <rect x="7.2" y="7.2" width="376.634311" height="125.46"/>
  </clipPath>
 </defs>
</svg>
