<?xml version="1.0" encoding="utf-8" standalone="no"?>
<!DOCTYPE svg PUBLIC "-//W3C//DTD SVG 1.1//EN"
  "http://www.w3.org/Graphics/SVG/1.1/DTD/svg11.dtd">
<svg xmlns:xlink="http://www.w3.org/1999/xlink" width="268.201669pt" height="177.804pt" viewBox="0 0 268.201669 177.804" xmlns="http://www.w3.org/2000/svg" version="1.1">
 <metadata>
  <rdf:RDF xmlns:dc="http://purl.org/dc/elements/1.1/" xmlns:cc="http://creativecommons.org/ns#" xmlns:rdf="http://www.w3.org/1999/02/22-rdf-syntax-ns#">
   <cc:Work>
    <dc:type rdf:resource="http://purl.org/dc/dcmitype/StillImage"/>
    <dc:date>2022-11-07T10:30:32.276045</dc:date>
    <dc:format>image/svg+xml</dc:format>
    <dc:creator>
     <cc:Agent>
      <dc:title>Matplotlib v3.6.0, https://matplotlib.org/</dc:title>
     </cc:Agent>
    </dc:creator>
   </cc:Work>
  </rdf:RDF>
 </metadata>
 <defs>
  <style type="text/css">*{stroke-linejoin: round; stroke-linecap: butt}</style>
 </defs>
 <g id="figure_1">
  <g id="patch_1">
   <path d="M 0 177.804 
L 268.201669 177.804 
L 268.201669 0 
L 0 0 
L 0 177.804 
z
" style="fill: none"/>
  </g>
  <g id="axes_1">
   <g id="patch_2">
    <path d="M 201.504985 93.029477 
C 202.475982 93.029477 203.40734 92.643695 204.093939 91.957097 
C 204.780538 91.270498 205.166319 90.339139 205.166319 89.368142 
C 205.166319 88.397145 204.780538 87.465786 204.093939 86.779188 
C 203.40734 86.092589 202.475982 85.706808 201.504985 85.706808 
C 200.533987 85.706808 199.602629 86.092589 198.91603 86.779188 
C 198.229432 87.465786 197.84365 88.397145 197.84365 89.368142 
C 197.84365 90.339139 198.229432 91.270498 198.91603 91.957097 
C 199.602629 92.643695 200.533987 93.029477 201.504985 93.029477 
L 201.504985 93.029477 
z
" clip-path="url(#p194e025411)" style="fill: none; stroke: #000000; stroke-width: 2; stroke-linejoin: miter"/>
   </g>
   <g id="patch_3">
    <path d="M 140.482744 55.271965 
C 141.453741 55.271965 142.3851 54.886184 143.071698 54.199585 
C 143.758297 53.512986 144.144078 52.581628 144.144078 51.610631 
C 144.144078 50.639633 143.758297 49.708275 143.071698 49.021676 
C 142.3851 48.335078 141.453741 47.949296 140.482744 47.949296 
C 139.511747 47.949296 138.580388 48.335078 137.89379 49.021676 
C 137.207191 49.708275 136.82141 50.639633 136.82141 51.610631 
C 136.82141 52.581628 137.207191 53.512986 137.89379 54.199585 
C 138.580388 54.886184 139.511747 55.271965 140.482744 55.271965 
L 140.482744 55.271965 
z
" clip-path="url(#p194e025411)" style="fill: none; stroke: #000000; stroke-width: 2; stroke-linejoin: miter"/>
   </g>
   <g id="patch_4">
    <path d="M 140.482744 130.786988 
C 141.453741 130.786988 142.3851 130.401207 143.071698 129.714608 
C 143.758297 129.028009 144.144078 128.096651 144.144078 127.125654 
C 144.144078 126.154656 143.758297 125.223298 143.071698 124.536699 
C 142.3851 123.8501 141.453741 123.464319 140.482744 123.464319 
C 139.511747 123.464319 138.580388 123.8501 137.89379 124.536699 
C 137.207191 125.223298 136.82141 126.154656 136.82141 127.125654 
C 136.82141 128.096651 137.207191 129.028009 137.89379 129.714608 
C 138.580388 130.401207 139.511747 130.786988 140.482744 130.786988 
L 140.482744 130.786988 
z
" clip-path="url(#p194e025411)" style="fill: none; stroke: #000000; stroke-width: 2; stroke-linejoin: miter"/>
   </g>
   <g id="patch_5">
    <path d="M 65.883055 155.958662 
C 66.854052 155.958662 67.78541 155.572881 68.472009 154.886282 
C 69.158608 154.199683 69.544389 153.268325 69.544389 152.297328 
C 69.544389 151.326331 69.158608 150.394972 68.472009 149.708373 
C 67.78541 149.021775 66.854052 148.635993 65.883055 148.635993 
C 64.912058 148.635993 63.980699 149.021775 63.2941 149.708373 
C 62.607502 150.394972 62.22172 151.326331 62.22172 152.297328 
C 62.22172 153.268325 62.607502 154.199683 63.2941 154.886282 
C 63.980699 155.572881 64.912058 155.958662 65.883055 155.958662 
L 65.883055 155.958662 
z
" clip-path="url(#p194e025411)" style="fill: none; stroke: #000000; stroke-width: 2; stroke-linejoin: miter"/>
   </g>
   <g id="line2d_1">
    <path d="M 161.230306 104.318591 
L 178.229359 104.218963 
L 179.972851 103.920078 
L 181.716344 103.421938 
L 183.459836 102.724541 
L 185.203329 101.827887 
L 187.382695 100.426867 
L 189.56206 98.714508 
L 191.741426 96.690811 
L 193.920792 94.355776 
L 196.100158 91.709404 
L 197.84365 89.368142 
L 197.84365 89.368142 
L 195.228411 85.930971 
L 193.049046 83.409134 
L 190.86968 81.198634 
L 188.690314 79.299472 
L 186.510948 77.711649 
L 184.331583 76.435163 
L 182.58809 75.638138 
L 180.844597 75.040369 
L 179.101105 74.641856 
L 177.357612 74.4426 
L 176.485866 74.417693 
L 161.230306 74.417693 
L 161.230306 74.417693 
L 163.427106 76.858583 
L 164.818414 78.68925 
L 165.990041 80.519917 
L 166.941988 82.350584 
L 167.674254 84.181252 
L 168.186841 86.011919 
L 168.479748 87.842586 
L 168.552975 89.673253 
L 168.406521 91.503921 
L 168.040388 93.334588 
L 167.454574 95.165255 
L 166.649081 96.995922 
L 165.623907 98.826589 
L 164.379053 100.657257 
L 162.91452 102.487924 
L 161.230306 104.318591 
L 161.230306 104.318591 
" clip-path="url(#p194e025411)" style="fill: none; stroke: #000000; stroke-width: 2; stroke-linecap: round"/>
   </g>
   <g id="line2d_2">
    <path d="M 150.551414 96.995922 
L 166.649081 96.995922 
" clip-path="url(#p194e025411)" style="fill: none; stroke: #000000; stroke-width: 2; stroke-linecap: round"/>
   </g>
   <g id="line2d_3">
    <path d="M 150.551414 81.740362 
L 166.649081 81.740362 
" clip-path="url(#p194e025411)" style="fill: none; stroke: #000000; stroke-width: 2; stroke-linecap: round"/>
   </g>
   <g id="line2d_4">
    <path d="M 205.166319 89.368142 
L 208.522542 89.368142 
" clip-path="url(#p194e025411)" style="fill: none; stroke: #000000; stroke-width: 2; stroke-linecap: round"/>
   </g>
   <g id="line2d_5">
    <path d="M 100.208065 66.56108 
L 117.207118 66.461452 
L 118.95061 66.162567 
L 120.694103 65.664426 
L 122.437596 64.967029 
L 124.181088 64.070376 
L 126.360454 62.669355 
L 128.53982 60.956996 
L 130.719185 58.9333 
L 132.898551 56.598265 
L 135.077917 53.951892 
L 136.82141 51.610631 
L 136.82141 51.610631 
L 134.206171 48.17346 
L 132.026805 45.651622 
L 129.847439 43.441123 
L 127.668073 41.541961 
L 125.488708 39.954137 
L 123.309342 38.677652 
L 121.565849 37.880627 
L 119.822357 37.282858 
L 118.078864 36.884345 
L 116.335372 36.685089 
L 115.463625 36.660182 
L 100.208065 36.660182 
L 100.208065 36.660182 
L 102.404866 39.101071 
L 103.796173 40.931739 
L 104.9678 42.762406 
L 105.919747 44.593073 
L 106.652014 46.42374 
L 107.164601 48.254407 
L 107.457507 50.085075 
L 107.530734 51.915742 
L 107.384281 53.746409 
L 107.018147 55.577076 
L 106.432334 57.407744 
L 105.62684 59.238411 
L 104.601666 61.069078 
L 103.356813 62.899745 
L 101.892279 64.730412 
L 100.208065 66.56108 
L 100.208065 66.56108 
" clip-path="url(#p194e025411)" style="fill: none; stroke: #000000; stroke-width: 2; stroke-linecap: round"/>
   </g>
   <g id="line2d_6">
    <path d="M 89.529173 59.238411 
L 105.62684 59.238411 
" clip-path="url(#p194e025411)" style="fill: none; stroke: #000000; stroke-width: 2; stroke-linecap: round"/>
   </g>
   <g id="line2d_7">
    <path d="M 89.529173 43.982851 
L 105.62684 43.982851 
" clip-path="url(#p194e025411)" style="fill: none; stroke: #000000; stroke-width: 2; stroke-linecap: round"/>
   </g>
   <g id="line2d_8">
    <path d="M 144.144078 51.610631 
L 147.500302 51.610631 
" clip-path="url(#p194e025411)" style="fill: none; stroke: #000000; stroke-width: 2; stroke-linecap: round"/>
   </g>
   <g id="line2d_9">
    <path d="M 60.543609 50.085075 
L 61.521036 50.053731 
L 62.494446 49.959827 
L 63.459841 49.803749 
L 64.413251 49.58614 
L 65.350761 49.307892 
L 66.268517 48.970149 
L 67.162748 48.574299 
L 68.02978 48.121969 
L 68.866049 47.615018 
L 69.66812 47.055528 
L 70.432696 46.445799 
L 71.156636 45.788336 
L 71.836964 45.085841 
L 72.470886 44.341201 
L 73.055796 43.557475 
L 73.589291 42.737884 
L 74.069178 41.885795 
L 74.493486 41.004711 
L 74.86047 40.098252 
L 75.168624 39.170142 
L 75.41668 38.224196 
L 75.60362 37.2643 
L 75.728675 36.2944 
L 75.791331 35.318479 
L 75.791331 34.34055 
L 75.728675 33.364629 
L 75.60362 32.394729 
L 75.41668 31.434833 
L 75.168624 30.488887 
L 74.86047 29.560777 
L 74.493486 28.654318 
L 74.069178 27.773234 
L 73.589291 26.921146 
L 73.055796 26.101554 
L 72.470886 25.317828 
L 71.836964 24.573188 
L 71.156636 23.870693 
L 70.432696 23.21323 
L 69.66812 22.603501 
L 68.866049 22.044011 
L 68.02978 21.53706 
L 67.162748 21.08473 
L 66.268517 20.68888 
L 65.350761 20.351137 
L 64.413251 20.07289 
L 63.459841 19.85528 
L 62.494446 19.699202 
L 61.521036 19.605299 
L 60.543609 19.573954 
L 60.543609 19.573954 
L 40.71138 19.573954 
L 40.71138 34.829515 
L 40.71138 50.085075 
L 60.543609 50.085075 
" clip-path="url(#p194e025411)" style="fill: none; stroke: #000000; stroke-width: 2; stroke-linecap: round"/>
   </g>
   <g id="line2d_10">
    <path d="M 30.032488 42.457295 
L 40.71138 42.457295 
" clip-path="url(#p194e025411)" style="fill: none; stroke: #000000; stroke-width: 2; stroke-linecap: round"/>
   </g>
   <g id="line2d_11">
    <path d="M 30.032488 27.201734 
L 40.71138 27.201734 
" clip-path="url(#p194e025411)" style="fill: none; stroke: #000000; stroke-width: 2; stroke-linecap: round"/>
   </g>
   <g id="line2d_12">
    <path d="M 75.799169 34.829515 
L 86.478061 34.829515 
" clip-path="url(#p194e025411)" style="fill: none; stroke: #000000; stroke-width: 2; stroke-linecap: round"/>
   </g>
   <g id="line2d_13">
    <path d="M 89.529173 43.982851 
L 86.478061 43.982851 
L 86.478061 34.829515 
" clip-path="url(#p194e025411)" style="fill: none; stroke: #000000; stroke-width: 2; stroke-linecap: round"/>
   </g>
   <g id="line2d_14">
    <path d="M 150.551414 81.740362 
L 147.500302 81.740362 
L 147.500302 51.610631 
" clip-path="url(#p194e025411)" style="fill: none; stroke: #000000; stroke-width: 2; stroke-linecap: round"/>
   </g>
   <g id="line2d_15">
    <path d="M 100.208065 142.076102 
L 117.207118 141.976474 
L 118.95061 141.67759 
L 120.694103 141.179449 
L 122.437596 140.482052 
L 124.181088 139.585399 
L 126.360454 138.184378 
L 128.53982 136.472019 
L 130.719185 134.448322 
L 132.898551 132.113288 
L 135.077917 129.466915 
L 136.82141 127.125654 
L 136.82141 127.125654 
L 134.206171 123.688482 
L 132.026805 121.166645 
L 129.847439 118.956145 
L 127.668073 117.056984 
L 125.488708 115.46916 
L 123.309342 114.192675 
L 121.565849 113.395649 
L 119.822357 112.79788 
L 118.078864 112.399368 
L 116.335372 112.200112 
L 115.463625 112.175205 
L 100.208065 112.175205 
L 100.208065 112.175205 
L 102.404866 114.616094 
L 103.796173 116.446761 
L 104.9678 118.277429 
L 105.919747 120.108096 
L 106.652014 121.938763 
L 107.164601 123.76943 
L 107.457507 125.600098 
L 107.530734 127.430765 
L 107.384281 129.261432 
L 107.018147 131.092099 
L 106.432334 132.922766 
L 105.62684 134.753434 
L 104.601666 136.584101 
L 103.356813 138.414768 
L 101.892279 140.245435 
L 100.208065 142.076102 
L 100.208065 142.076102 
" clip-path="url(#p194e025411)" style="fill: none; stroke: #000000; stroke-width: 2; stroke-linecap: round"/>
   </g>
   <g id="line2d_16">
    <path d="M 89.529173 134.753434 
L 105.62684 134.753434 
" clip-path="url(#p194e025411)" style="fill: none; stroke: #000000; stroke-width: 2; stroke-linecap: round"/>
   </g>
   <g id="line2d_17">
    <path d="M 89.529173 119.497873 
L 105.62684 119.497873 
" clip-path="url(#p194e025411)" style="fill: none; stroke: #000000; stroke-width: 2; stroke-linecap: round"/>
   </g>
   <g id="line2d_18">
    <path d="M 144.144078 127.125654 
L 147.500302 127.125654 
" clip-path="url(#p194e025411)" style="fill: none; stroke: #000000; stroke-width: 2; stroke-linecap: round"/>
   </g>
   <g id="line2d_19">
    <path d="M 60.543609 117.209539 
L 61.521036 117.178195 
L 62.494446 117.084291 
L 63.459841 116.928214 
L 64.413251 116.710604 
L 65.350761 116.432356 
L 66.268517 116.094614 
L 67.162748 115.698764 
L 68.02978 115.246434 
L 68.866049 114.739483 
L 69.66812 114.179993 
L 70.432696 113.570264 
L 71.156636 112.912801 
L 71.836964 112.210306 
L 72.470886 111.465665 
L 73.055796 110.681939 
L 73.589291 109.862348 
L 74.069178 109.01026 
L 74.493486 108.129176 
L 74.86047 107.222717 
L 75.168624 106.294607 
L 75.41668 105.348661 
L 75.60362 104.388765 
L 75.728675 103.418864 
L 75.791331 102.442944 
L 75.791331 101.465014 
L 75.728675 100.489094 
L 75.60362 99.519193 
L 75.41668 98.559298 
L 75.168624 97.613352 
L 74.86047 96.685242 
L 74.493486 95.778783 
L 74.069178 94.897699 
L 73.589291 94.04561 
L 73.055796 93.226019 
L 72.470886 92.442293 
L 71.836964 91.697653 
L 71.156636 90.995158 
L 70.432696 90.337695 
L 69.66812 89.727966 
L 68.866049 89.168476 
L 68.02978 88.661524 
L 67.162748 88.209194 
L 66.268517 87.813345 
L 65.350761 87.475602 
L 64.413251 87.197354 
L 63.459841 86.979744 
L 62.494446 86.823667 
L 61.521036 86.729763 
L 60.543609 86.698419 
L 60.543609 86.698419 
L 40.71138 86.698419 
L 40.71138 101.953979 
L 40.71138 117.209539 
L 60.543609 117.209539 
" clip-path="url(#p194e025411)" style="fill: none; stroke: #000000; stroke-width: 2; stroke-linecap: round"/>
   </g>
   <g id="line2d_20">
    <path d="M 30.032488 109.581759 
L 40.71138 109.581759 
" clip-path="url(#p194e025411)" style="fill: none; stroke: #000000; stroke-width: 2; stroke-linecap: round"/>
   </g>
   <g id="line2d_21">
    <path d="M 30.032488 94.326199 
L 40.71138 94.326199 
" clip-path="url(#p194e025411)" style="fill: none; stroke: #000000; stroke-width: 2; stroke-linecap: round"/>
   </g>
   <g id="line2d_22">
    <path d="M 75.799169 101.953979 
L 86.478061 101.953979 
" clip-path="url(#p194e025411)" style="fill: none; stroke: #000000; stroke-width: 2; stroke-linecap: round"/>
   </g>
   <g id="line2d_23">
    <path d="M 89.529173 119.497873 
L 86.478061 119.497873 
L 86.478061 101.953979 
" clip-path="url(#p194e025411)" style="fill: none; stroke: #000000; stroke-width: 2; stroke-linecap: round"/>
   </g>
   <g id="line2d_24">
    <path d="M 25.45582 152.297328 
L 42.389492 152.297328 
M 69.544389 152.297328 
L 86.478061 152.297328 
" clip-path="url(#p194e025411)" style="fill: none; stroke: #000000; stroke-width: 2; stroke-linecap: round"/>
   </g>
   <g id="line2d_25">
    <path d="M 42.389492 137.041768 
L 62.22172 152.297328 
L 42.389492 167.552888 
L 42.389492 137.041768 
" clip-path="url(#p194e025411)" style="fill: none; stroke: #000000; stroke-width: 2; stroke-linecap: round"/>
   </g>
   <g id="line2d_26">
    <path d="M 89.529173 134.753434 
L 86.478061 134.753434 
L 86.478061 152.297328 
" clip-path="url(#p194e025411)" style="fill: none; stroke: #000000; stroke-width: 2; stroke-linecap: round"/>
   </g>
   <g id="line2d_27">
    <path d="M 150.551414 96.995922 
L 147.500302 96.995922 
L 147.500302 127.125654 
" clip-path="url(#p194e025411)" style="fill: none; stroke: #000000; stroke-width: 2; stroke-linecap: round"/>
   </g>
   <g id="text_1">
    <g clip-path="url(#p194e025411)">
     <!-- output -->
     <g transform="translate(211.573654 92.817361) scale(0.125 -0.125)">
      <defs>
       <path id="DejaVuSans-6f" d="M 1959 3097 
Q 1497 3097 1228 2736 
Q 959 2375 959 1747 
Q 959 1119 1226 758 
Q 1494 397 1959 397 
Q 2419 397 2687 759 
Q 2956 1122 2956 1747 
Q 2956 2369 2687 2733 
Q 2419 3097 1959 3097 
z
M 1959 3584 
Q 2709 3584 3137 3096 
Q 3566 2609 3566 1747 
Q 3566 888 3137 398 
Q 2709 -91 1959 -91 
Q 1206 -91 779 398 
Q 353 888 353 1747 
Q 353 2609 779 3096 
Q 1206 3584 1959 3584 
z
" transform="scale(0.015625)"/>
       <path id="DejaVuSans-75" d="M 544 1381 
L 544 3500 
L 1119 3500 
L 1119 1403 
Q 1119 906 1312 657 
Q 1506 409 1894 409 
Q 2359 409 2629 706 
Q 2900 1003 2900 1516 
L 2900 3500 
L 3475 3500 
L 3475 0 
L 2900 0 
L 2900 538 
Q 2691 219 2414 64 
Q 2138 -91 1772 -91 
Q 1169 -91 856 284 
Q 544 659 544 1381 
z
M 1991 3584 
L 1991 3584 
z
" transform="scale(0.015625)"/>
       <path id="DejaVuSans-74" d="M 1172 4494 
L 1172 3500 
L 2356 3500 
L 2356 3053 
L 1172 3053 
L 1172 1153 
Q 1172 725 1289 603 
Q 1406 481 1766 481 
L 2356 481 
L 2356 0 
L 1766 0 
Q 1100 0 847 248 
Q 594 497 594 1153 
L 594 3053 
L 172 3053 
L 172 3500 
L 594 3500 
L 594 4494 
L 1172 4494 
z
" transform="scale(0.015625)"/>
       <path id="DejaVuSans-70" d="M 1159 525 
L 1159 -1331 
L 581 -1331 
L 581 3500 
L 1159 3500 
L 1159 2969 
Q 1341 3281 1617 3432 
Q 1894 3584 2278 3584 
Q 2916 3584 3314 3078 
Q 3713 2572 3713 1747 
Q 3713 922 3314 415 
Q 2916 -91 2278 -91 
Q 1894 -91 1617 61 
Q 1341 213 1159 525 
z
M 3116 1747 
Q 3116 2381 2855 2742 
Q 2594 3103 2138 3103 
Q 1681 3103 1420 2742 
Q 1159 2381 1159 1747 
Q 1159 1113 1420 752 
Q 1681 391 2138 391 
Q 2594 391 2855 752 
Q 3116 1113 3116 1747 
z
" transform="scale(0.015625)"/>
      </defs>
      <use xlink:href="#DejaVuSans-6f"/>
      <use xlink:href="#DejaVuSans-75" x="61.181641"/>
      <use xlink:href="#DejaVuSans-74" x="124.560547"/>
      <use xlink:href="#DejaVuSans-70" x="163.769531"/>
      <use xlink:href="#DejaVuSans-75" x="227.246094"/>
      <use xlink:href="#DejaVuSans-74" x="290.625"/>
     </g>
    </g>
   </g>
   <g id="text_2">
    <g clip-path="url(#p194e025411)">
     <!-- c -->
     <g transform="translate(79.605014 62.68763) scale(0.125 -0.125)">
      <defs>
       <path id="DejaVuSans-63" d="M 3122 3366 
L 3122 2828 
Q 2878 2963 2633 3030 
Q 2388 3097 2138 3097 
Q 1578 3097 1268 2742 
Q 959 2388 959 1747 
Q 959 1106 1268 751 
Q 1578 397 2138 397 
Q 2388 397 2633 464 
Q 2878 531 3122 666 
L 3122 134 
Q 2881 22 2623 -34 
Q 2366 -91 2075 -91 
Q 1284 -91 818 406 
Q 353 903 353 1747 
Q 353 2603 823 3093 
Q 1294 3584 2113 3584 
Q 2378 3584 2631 3529 
Q 2884 3475 3122 3366 
z
" transform="scale(0.015625)"/>
      </defs>
      <use xlink:href="#DejaVuSans-63"/>
     </g>
    </g>
   </g>
   <g id="text_3">
    <g clip-path="url(#p194e025411)">
     <!-- a -->
     <g transform="translate(19.32122 30.650953) scale(0.125 -0.125)">
      <defs>
       <path id="DejaVuSans-61" d="M 2194 1759 
Q 1497 1759 1228 1600 
Q 959 1441 959 1056 
Q 959 750 1161 570 
Q 1363 391 1709 391 
Q 2188 391 2477 730 
Q 2766 1069 2766 1631 
L 2766 1759 
L 2194 1759 
z
M 3341 1997 
L 3341 0 
L 2766 0 
L 2766 531 
Q 2569 213 2275 61 
Q 1981 -91 1556 -91 
Q 1019 -91 701 211 
Q 384 513 384 1019 
Q 384 1609 779 1909 
Q 1175 2209 1959 2209 
L 2766 2209 
L 2766 2266 
Q 2766 2663 2505 2880 
Q 2244 3097 1772 3097 
Q 1472 3097 1187 3025 
Q 903 2953 641 2809 
L 641 3341 
Q 956 3463 1253 3523 
Q 1550 3584 1831 3584 
Q 2591 3584 2966 3190 
Q 3341 2797 3341 1997 
z
" transform="scale(0.015625)"/>
      </defs>
      <use xlink:href="#DejaVuSans-61"/>
     </g>
    </g>
   </g>
   <g id="text_4">
    <g clip-path="url(#p194e025411)">
     <!-- b -->
     <g transform="translate(19.045829 45.906513) scale(0.125 -0.125)">
      <defs>
       <path id="DejaVuSans-62" d="M 3116 1747 
Q 3116 2381 2855 2742 
Q 2594 3103 2138 3103 
Q 1681 3103 1420 2742 
Q 1159 2381 1159 1747 
Q 1159 1113 1420 752 
Q 1681 391 2138 391 
Q 2594 391 2855 752 
Q 3116 1113 3116 1747 
z
M 1159 2969 
Q 1341 3281 1617 3432 
Q 1894 3584 2278 3584 
Q 2916 3584 3314 3078 
Q 3713 2572 3713 1747 
Q 3713 922 3314 415 
Q 2916 -91 2278 -91 
Q 1894 -91 1617 61 
Q 1341 213 1159 525 
L 1159 0 
L 581 0 
L 581 4863 
L 1159 4863 
L 1159 2969 
z
" transform="scale(0.015625)"/>
      </defs>
      <use xlink:href="#DejaVuSans-62"/>
     </g>
    </g>
   </g>
   <g id="text_5">
    <g clip-path="url(#p194e025411)">
     <!-- a -->
     <g transform="translate(19.32122 97.775418) scale(0.125 -0.125)">
      <use xlink:href="#DejaVuSans-61"/>
     </g>
    </g>
   </g>
   <g id="text_6">
    <g clip-path="url(#p194e025411)">
     <!-- b -->
     <g transform="translate(19.045829 113.030978) scale(0.125 -0.125)">
      <use xlink:href="#DejaVuSans-62"/>
     </g>
    </g>
   </g>
   <g id="text_7">
    <g clip-path="url(#p194e025411)">
     <!-- c -->
     <g transform="translate(15.531661 155.746547) scale(0.125 -0.125)">
      <use xlink:href="#DejaVuSans-63"/>
     </g>
    </g>
   </g>
  </g>
 </g>
 <defs>
  <clipPath id="p194e025411">
   <rect x="7.2" y="7.2" width="253.801669" height="163.404"/>
  </clipPath>
 </defs>
</svg>
