<?xml version="1.0" encoding="utf-8" standalone="no"?>
<!DOCTYPE svg PUBLIC "-//W3C//DTD SVG 1.1//EN"
  "http://www.w3.org/Graphics/SVG/1.1/DTD/svg11.dtd">
<svg xmlns:xlink="http://www.w3.org/1999/xlink" width="512.338493pt" height="189.432pt" viewBox="0 0 512.338493 189.432" xmlns="http://www.w3.org/2000/svg" version="1.1">
 <metadata>
  <rdf:RDF xmlns:dc="http://purl.org/dc/elements/1.1/" xmlns:cc="http://creativecommons.org/ns#" xmlns:rdf="http://www.w3.org/1999/02/22-rdf-syntax-ns#">
   <cc:Work>
    <dc:type rdf:resource="http://purl.org/dc/dcmitype/StillImage"/>
    <dc:date>2022-12-21T12:37:34.369618</dc:date>
    <dc:format>image/svg+xml</dc:format>
    <dc:creator>
     <cc:Agent>
      <dc:title>Matplotlib v3.6.2, https://matplotlib.org/</dc:title>
     </cc:Agent>
    </dc:creator>
   </cc:Work>
  </rdf:RDF>
 </metadata>
 <defs>
  <style type="text/css">*{stroke-linejoin: round; stroke-linecap: butt}</style>
 </defs>
 <g id="figure_1">
  <g id="patch_1">
   <path d="M 0 189.432 
L 512.338493 189.432 
L 512.338493 0 
L 0 0 
L 0 189.432 
z
" style="fill: none"/>
  </g>
  <g id="axes_1">
   <g id="patch_2">
    <path d="M 323.579876 130.798868 
C 324.550966 130.798868 325.482414 130.41305 326.169079 129.726385 
C 326.855744 129.03972 327.241562 128.108272 327.241562 127.137182 
C 327.241562 126.166091 326.855744 125.234643 326.169079 124.547978 
C 325.482414 123.861314 324.550966 123.475495 323.579876 123.475495 
C 322.608785 123.475495 321.677337 123.861314 320.990672 124.547978 
C 320.304008 125.234643 319.918189 126.166091 319.918189 127.137182 
C 319.918189 128.108272 320.304008 129.03972 320.990672 129.726385 
C 321.677337 130.41305 322.608785 130.798868 323.579876 130.798868 
L 323.579876 130.798868 
z
" clip-path="url(#pf77b0e2d3e)" style="fill: none; stroke: #000000; stroke-width: 2; stroke-linejoin: miter"/>
   </g>
   <g id="patch_3">
    <path d="M 140.495556 38.493857 
C 141.466647 38.493857 142.398095 38.108038 143.084759 37.421374 
C 143.771424 36.734709 144.157242 35.803261 144.157242 34.83217 
C 144.157242 33.86108 143.771424 32.929632 143.084759 32.242967 
C 142.398095 31.556302 141.466647 31.170484 140.495556 31.170484 
C 139.524465 31.170484 138.593017 31.556302 137.906353 32.242967 
C 137.219688 32.929632 136.83387 33.86108 136.83387 34.83217 
C 136.83387 35.803261 137.219688 36.734709 137.906353 37.421374 
C 138.593017 38.108038 139.524465 38.493857 140.495556 38.493857 
L 140.495556 38.493857 
z
" clip-path="url(#pf77b0e2d3e)" style="fill: none; stroke: #000000; stroke-width: 2; stroke-linejoin: miter"/>
   </g>
   <g id="patch_4">
    <path d="M 140.495556 105.624774 
C 141.466647 105.624774 142.398095 105.238956 143.084759 104.552291 
C 143.771424 103.865626 144.157242 102.934178 144.157242 101.963088 
C 144.157242 100.991997 143.771424 100.060549 143.084759 99.373884 
C 142.398095 98.68722 141.466647 98.301401 140.495556 98.301401 
C 139.524465 98.301401 138.593017 98.68722 137.906353 99.373884 
C 137.219688 100.060549 136.83387 100.991997 136.83387 101.963088 
C 136.83387 102.934178 137.219688 103.865626 137.906353 104.552291 
C 138.593017 105.238956 139.524465 105.624774 140.495556 105.624774 
L 140.495556 105.624774 
z
" clip-path="url(#pf77b0e2d3e)" style="fill: none; stroke: #000000; stroke-width: 2; stroke-linejoin: miter"/>
   </g>
   <g id="patch_5">
    <path d="M 65.888696 122.407503 
C 66.859786 122.407503 67.791234 122.021685 68.477899 121.33502 
C 69.164564 120.648355 69.550382 119.716908 69.550382 118.745817 
C 69.550382 117.774726 69.164564 116.843278 68.477899 116.156614 
C 67.791234 115.469949 66.859786 115.084131 65.888696 115.084131 
C 64.917605 115.084131 63.986157 115.469949 63.299493 116.156614 
C 62.612828 116.843278 62.227009 117.774726 62.227009 118.745817 
C 62.227009 119.716908 62.612828 120.648355 63.299493 121.33502 
C 63.986157 122.021685 64.917605 122.407503 65.888696 122.407503 
L 65.888696 122.407503 
z
" clip-path="url(#pf77b0e2d3e)" style="fill: none; stroke: #000000; stroke-width: 2; stroke-linejoin: miter"/>
   </g>
   <g id="patch_6">
    <path d="M 201.523663 155.972962 
C 202.494753 155.972962 203.426201 155.587144 204.112866 154.900479 
C 204.799531 154.213814 205.185349 153.282366 205.185349 152.311276 
C 205.185349 151.340185 204.799531 150.408737 204.112866 149.722072 
C 203.426201 149.035408 202.494753 148.649589 201.523663 148.649589 
C 200.552572 148.649589 199.621124 149.035408 198.934459 149.722072 
C 198.247795 150.408737 197.861976 151.340185 197.861976 152.311276 
C 197.861976 153.282366 198.247795 154.213814 198.934459 154.900479 
C 199.621124 155.587144 200.552572 155.972962 201.523663 155.972962 
L 201.523663 155.972962 
z
" clip-path="url(#pf77b0e2d3e)" style="fill: none; stroke: #000000; stroke-width: 2; stroke-linejoin: miter"/>
   </g>
   <g id="line2d_1">
    <path d="M 405.357538 175.654526 
L 422.358225 175.554889 
L 424.101885 175.255975 
L 425.845546 174.757787 
L 427.589206 174.060323 
L 429.332866 173.163583 
L 431.512441 171.762428 
L 433.692016 170.049904 
L 435.871592 168.026013 
L 438.051167 165.690754 
L 440.230742 163.044127 
L 441.974402 160.70264 
L 441.974402 160.70264 
L 439.358912 157.265139 
L 437.179337 154.743059 
L 434.999762 152.532347 
L 432.820186 150.633003 
L 430.640611 149.045026 
L 428.461036 147.768418 
L 426.717376 146.971316 
L 424.973716 146.37349 
L 423.230055 145.974939 
L 421.486395 145.775664 
L 420.614565 145.750754 
L 405.357538 145.750754 
L 405.357538 145.750754 
L 407.55455 148.191878 
L 408.945991 150.022722 
L 410.117731 151.853565 
L 411.069769 153.684408 
L 411.802106 155.515251 
L 412.314743 157.346094 
L 412.607677 159.176938 
L 412.680911 161.007781 
L 412.534444 162.838624 
L 412.168275 164.669467 
L 411.582405 166.50031 
L 410.776834 168.331154 
L 409.751562 170.161997 
L 408.506589 171.99284 
L 407.041914 173.823683 
L 405.357538 175.654526 
L 405.357538 175.654526 
" clip-path="url(#pf77b0e2d3e)" style="fill: none; stroke: #000000; stroke-width: 2; stroke-linecap: round"/>
   </g>
   <g id="line2d_2">
    <path d="M 394.67762 168.331154 
L 410.776834 168.331154 
" clip-path="url(#pf77b0e2d3e)" style="fill: none; stroke: #000000; stroke-width: 2; stroke-linecap: round"/>
   </g>
   <g id="line2d_3">
    <path d="M 394.67762 153.074127 
L 410.776834 153.074127 
" clip-path="url(#pf77b0e2d3e)" style="fill: none; stroke: #000000; stroke-width: 2; stroke-linecap: round"/>
   </g>
   <g id="line2d_4">
    <path d="M 441.974402 160.70264 
L 452.654321 160.70264 
" clip-path="url(#pf77b0e2d3e)" style="fill: none; stroke: #000000; stroke-width: 2; stroke-linecap: round"/>
   </g>
   <g id="line2d_5">
    <path d="M 344.329432 158.871797 
L 361.330119 158.772159 
L 363.073779 158.473246 
L 364.817439 157.975057 
L 366.561099 157.277593 
L 368.304759 156.380854 
L 370.484335 154.979698 
L 372.66391 153.267175 
L 374.843485 151.243284 
L 377.02306 148.908025 
L 379.202636 146.261397 
L 380.946296 143.919911 
L 380.946296 143.919911 
L 378.330806 140.482409 
L 376.15123 137.960329 
L 373.971655 135.749617 
L 371.79208 133.850273 
L 369.612505 132.262297 
L 367.432929 130.985689 
L 365.689269 130.188587 
L 363.945609 129.590761 
L 362.201949 129.19221 
L 360.458289 128.992934 
L 359.586458 128.968025 
L 344.329432 128.968025 
L 344.329432 128.968025 
L 346.526444 131.409149 
L 347.917885 133.239992 
L 349.089624 135.070835 
L 350.041663 136.901679 
L 350.774 138.732522 
L 351.286636 140.563365 
L 351.579571 142.394208 
L 351.652805 144.225051 
L 351.506337 146.055895 
L 351.140169 147.886738 
L 350.554299 149.717581 
L 349.748728 151.548424 
L 348.723456 153.379267 
L 347.478482 155.210111 
L 346.013808 157.040954 
L 344.329432 158.871797 
L 344.329432 158.871797 
" clip-path="url(#pf77b0e2d3e)" style="fill: none; stroke: #000000; stroke-width: 2; stroke-linecap: round"/>
   </g>
   <g id="line2d_6">
    <path d="M 333.649513 151.548424 
L 349.748728 151.548424 
" clip-path="url(#pf77b0e2d3e)" style="fill: none; stroke: #000000; stroke-width: 2; stroke-linecap: round"/>
   </g>
   <g id="line2d_7">
    <path d="M 333.649513 136.291398 
L 349.748728 136.291398 
" clip-path="url(#pf77b0e2d3e)" style="fill: none; stroke: #000000; stroke-width: 2; stroke-linecap: round"/>
   </g>
   <g id="line2d_8">
    <path d="M 380.946296 143.919911 
L 391.626214 143.919911 
" clip-path="url(#pf77b0e2d3e)" style="fill: none; stroke: #000000; stroke-width: 2; stroke-linecap: round"/>
   </g>
   <g id="line2d_9">
    <path d="M 283.301325 142.089068 
L 300.302012 141.98943 
L 302.045672 141.690517 
L 303.789333 141.192328 
L 305.532993 140.494864 
L 307.276653 139.598125 
L 309.456228 138.196969 
L 311.635803 136.484446 
L 313.815379 134.460554 
L 315.994954 132.125295 
L 318.174529 129.478668 
L 319.918189 127.137182 
L 319.918189 127.137182 
L 317.302699 123.69968 
L 315.123124 121.1776 
L 312.943549 118.966888 
L 310.763973 117.067544 
L 308.584398 115.479568 
L 306.404823 114.202959 
L 304.661163 113.405858 
L 302.917502 112.808031 
L 301.173842 112.40948 
L 299.430182 112.210205 
L 298.558352 112.185295 
L 283.301325 112.185295 
L 283.301325 112.185295 
L 285.498337 114.62642 
L 286.889778 116.457263 
L 288.061518 118.288106 
L 289.013556 120.118949 
L 289.745893 121.949793 
L 290.258529 123.780636 
L 290.551464 125.611479 
L 290.624698 127.442322 
L 290.478231 129.273165 
L 290.112062 131.104009 
L 289.526192 132.934852 
L 288.720621 134.765695 
L 287.695349 136.596538 
L 286.450376 138.427381 
L 284.985701 140.258225 
L 283.301325 142.089068 
L 283.301325 142.089068 
" clip-path="url(#pf77b0e2d3e)" style="fill: none; stroke: #000000; stroke-width: 2; stroke-linecap: round"/>
   </g>
   <g id="line2d_10">
    <path d="M 272.621407 134.765695 
L 288.720621 134.765695 
" clip-path="url(#pf77b0e2d3e)" style="fill: none; stroke: #000000; stroke-width: 2; stroke-linecap: round"/>
   </g>
   <g id="line2d_11">
    <path d="M 272.621407 119.508668 
L 288.720621 119.508668 
" clip-path="url(#pf77b0e2d3e)" style="fill: none; stroke: #000000; stroke-width: 2; stroke-linecap: round"/>
   </g>
   <g id="line2d_12">
    <path d="M 327.241562 127.137182 
L 330.598108 127.137182 
" clip-path="url(#pf77b0e2d3e)" style="fill: none; stroke: #000000; stroke-width: 2; stroke-linecap: round"/>
   </g>
   <g id="line2d_13">
    <path d="M 222.273219 125.306338 
L 239.273906 125.206701 
L 241.017566 124.907788 
L 242.761226 124.409599 
L 244.504886 123.712135 
L 246.248546 122.815395 
L 248.428122 121.41424 
L 250.607697 119.701716 
L 252.787272 117.677825 
L 254.966847 115.342566 
L 257.146423 112.695939 
L 258.890083 110.354452 
L 258.890083 110.354452 
L 256.274592 106.916951 
L 254.095017 104.394871 
L 251.915442 102.184159 
L 249.735867 100.284815 
L 247.556291 98.696838 
L 245.376716 97.42023 
L 243.633056 96.623128 
L 241.889396 96.025302 
L 240.145736 95.626751 
L 238.402076 95.427476 
L 237.530245 95.402566 
L 222.273219 95.402566 
L 222.273219 95.402566 
L 224.470231 97.84369 
L 225.861671 99.674534 
L 227.033411 101.505377 
L 227.98545 103.33622 
L 228.717787 105.167063 
L 229.230423 106.997906 
L 229.523358 108.82875 
L 229.596592 110.659593 
L 229.450124 112.490436 
L 229.083955 114.321279 
L 228.498086 116.152122 
L 227.692515 117.982966 
L 226.667242 119.813809 
L 225.422269 121.644652 
L 223.957595 123.475495 
L 222.273219 125.306338 
L 222.273219 125.306338 
" clip-path="url(#pf77b0e2d3e)" style="fill: none; stroke: #000000; stroke-width: 2; stroke-linecap: round"/>
   </g>
   <g id="line2d_14">
    <path d="M 211.5933 117.982966 
L 227.692515 117.982966 
" clip-path="url(#pf77b0e2d3e)" style="fill: none; stroke: #000000; stroke-width: 2; stroke-linecap: round"/>
   </g>
   <g id="line2d_15">
    <path d="M 211.5933 102.725939 
L 227.692515 102.725939 
" clip-path="url(#pf77b0e2d3e)" style="fill: none; stroke: #000000; stroke-width: 2; stroke-linecap: round"/>
   </g>
   <g id="line2d_16">
    <path d="M 258.890083 110.354452 
L 269.570001 110.354452 
" clip-path="url(#pf77b0e2d3e)" style="fill: none; stroke: #000000; stroke-width: 2; stroke-linecap: round"/>
   </g>
   <g id="line2d_17">
    <path d="M 161.245112 83.349515 
L 178.245799 83.249877 
L 179.989459 82.950964 
L 181.733119 82.452776 
L 183.47678 81.755312 
L 185.22044 80.858572 
L 187.400015 79.457417 
L 189.57959 77.744893 
L 191.759166 75.721002 
L 193.938741 73.385743 
L 196.118316 70.739116 
L 197.861976 68.397629 
L 197.861976 68.397629 
L 195.246486 64.960128 
L 193.066911 62.438048 
L 190.887335 60.227336 
L 188.70776 58.327991 
L 186.528185 56.740015 
L 184.34861 55.463407 
L 182.60495 54.666305 
L 180.861289 54.068479 
L 179.117629 53.669928 
L 177.373969 53.470652 
L 176.502139 53.445743 
L 161.245112 53.445743 
L 161.245112 53.445743 
L 163.442124 55.886867 
L 164.833565 57.71771 
L 166.005305 59.548554 
L 166.957343 61.379397 
L 167.68968 63.21024 
L 168.202316 65.041083 
L 168.495251 66.871926 
L 168.568485 68.70277 
L 168.422018 70.533613 
L 168.055849 72.364456 
L 167.469979 74.195299 
L 166.664408 76.026142 
L 165.639136 77.856986 
L 164.394163 79.687829 
L 162.929488 81.518672 
L 161.245112 83.349515 
L 161.245112 83.349515 
" clip-path="url(#pf77b0e2d3e)" style="fill: none; stroke: #000000; stroke-width: 2; stroke-linecap: round"/>
   </g>
   <g id="line2d_18">
    <path d="M 150.565194 76.026142 
L 166.664408 76.026142 
" clip-path="url(#pf77b0e2d3e)" style="fill: none; stroke: #000000; stroke-width: 2; stroke-linecap: round"/>
   </g>
   <g id="line2d_19">
    <path d="M 150.565194 60.769116 
L 166.664408 60.769116 
" clip-path="url(#pf77b0e2d3e)" style="fill: none; stroke: #000000; stroke-width: 2; stroke-linecap: round"/>
   </g>
   <g id="line2d_20">
    <path d="M 197.861976 68.397629 
L 208.541895 68.397629 
" clip-path="url(#pf77b0e2d3e)" style="fill: none; stroke: #000000; stroke-width: 2; stroke-linecap: round"/>
   </g>
   <g id="line2d_21">
    <path d="M 121.576843 50.089197 
L 122.554364 50.05785 
L 123.527868 49.963937 
L 124.493355 49.807845 
L 125.446858 49.590214 
L 126.384457 49.311939 
L 127.302302 48.974164 
L 128.196619 48.578276 
L 129.063734 48.125903 
L 129.900084 47.618903 
L 130.702231 47.059359 
L 131.466881 46.449572 
L 132.19089 45.792046 
L 132.871284 45.089483 
L 133.505267 44.344771 
L 134.090233 43.56097 
L 134.623779 42.7413 
L 135.103712 41.889129 
L 135.528061 41.007961 
L 135.895081 40.101414 
L 136.203264 39.173215 
L 136.451344 38.227178 
L 136.638302 37.26719 
L 136.763369 36.297196 
L 136.826031 35.321182 
L 136.826031 34.343159 
L 136.763369 33.367145 
L 136.638302 32.397151 
L 136.451344 31.437163 
L 136.203264 30.491125 
L 135.895081 29.562927 
L 135.528061 28.65638 
L 135.103712 27.775211 
L 134.623779 26.923041 
L 134.090233 26.103371 
L 133.505267 25.31957 
L 132.871284 24.574858 
L 132.19089 23.872295 
L 131.466881 23.214769 
L 130.702231 22.604981 
L 129.900084 22.045438 
L 129.063734 21.538438 
L 128.196619 21.086064 
L 127.302302 20.690177 
L 126.384457 20.352402 
L 125.446858 20.074127 
L 124.493355 19.856496 
L 123.527868 19.700404 
L 122.554364 19.606491 
L 121.576843 19.575144 
L 121.576843 19.575144 
L 101.742708 19.575144 
L 101.742708 34.83217 
L 101.742708 50.089197 
L 121.576843 50.089197 
" clip-path="url(#pf77b0e2d3e)" style="fill: none; stroke: #000000; stroke-width: 2; stroke-linecap: round"/>
   </g>
   <g id="line2d_22">
    <path d="M 91.06279 42.460684 
L 101.742708 42.460684 
" clip-path="url(#pf77b0e2d3e)" style="fill: none; stroke: #000000; stroke-width: 2; stroke-linecap: round"/>
   </g>
   <g id="line2d_23">
    <path d="M 91.06279 27.203657 
L 101.742708 27.203657 
" clip-path="url(#pf77b0e2d3e)" style="fill: none; stroke: #000000; stroke-width: 2; stroke-linecap: round"/>
   </g>
   <g id="line2d_24">
    <path d="M 144.157242 34.83217 
L 147.513788 34.83217 
" clip-path="url(#pf77b0e2d3e)" style="fill: none; stroke: #000000; stroke-width: 2; stroke-linecap: round"/>
   </g>
   <g id="line2d_25">
    <path d="M 150.565194 60.769116 
L 147.513788 60.769116 
L 147.513788 34.83217 
" clip-path="url(#pf77b0e2d3e)" style="fill: none; stroke: #000000; stroke-width: 2; stroke-linecap: round"/>
   </g>
   <g id="line2d_26">
    <path d="M 100.217006 116.914974 
L 117.217693 116.815336 
L 118.961353 116.516423 
L 120.705013 116.018234 
L 122.448673 115.32077 
L 124.192333 114.424031 
L 126.371909 113.022875 
L 128.551484 111.310352 
L 130.731059 109.28646 
L 132.910634 106.951201 
L 135.090209 104.304574 
L 136.83387 101.963088 
L 136.83387 101.963088 
L 134.218379 98.525586 
L 132.038804 96.003506 
L 129.859229 93.792794 
L 127.679654 91.89345 
L 125.500078 90.305474 
L 123.320503 89.028865 
L 121.576843 88.231764 
L 119.833183 87.633937 
L 118.089523 87.235386 
L 116.345862 87.036111 
L 115.474032 87.011202 
L 100.217006 87.011202 
L 100.217006 87.011202 
L 102.414018 89.452326 
L 103.805458 91.283169 
L 104.977198 93.114012 
L 105.929236 94.944855 
L 106.661574 96.775699 
L 107.17421 98.606542 
L 107.467145 100.437385 
L 107.540378 102.268228 
L 107.393911 104.099071 
L 107.027742 105.929915 
L 106.441873 107.760758 
L 105.636302 109.591601 
L 104.611029 111.422444 
L 103.366056 113.253287 
L 101.901381 115.084131 
L 100.217006 116.914974 
L 100.217006 116.914974 
" clip-path="url(#pf77b0e2d3e)" style="fill: none; stroke: #000000; stroke-width: 2; stroke-linecap: round"/>
   </g>
   <g id="line2d_27">
    <path d="M 89.537087 109.591601 
L 105.636302 109.591601 
" clip-path="url(#pf77b0e2d3e)" style="fill: none; stroke: #000000; stroke-width: 2; stroke-linecap: round"/>
   </g>
   <g id="line2d_28">
    <path d="M 89.537087 94.334574 
L 105.636302 94.334574 
" clip-path="url(#pf77b0e2d3e)" style="fill: none; stroke: #000000; stroke-width: 2; stroke-linecap: round"/>
   </g>
   <g id="line2d_29">
    <path d="M 144.157242 101.963088 
L 147.513788 101.963088 
" clip-path="url(#pf77b0e2d3e)" style="fill: none; stroke: #000000; stroke-width: 2; stroke-linecap: round"/>
   </g>
   <g id="line2d_30">
    <path d="M 25.457575 118.745817 
L 42.392875 118.745817 
M 69.550382 118.745817 
L 86.485682 118.745817 
" clip-path="url(#pf77b0e2d3e)" style="fill: none; stroke: #000000; stroke-width: 2; stroke-linecap: round"/>
   </g>
   <g id="line2d_31">
    <path d="M 42.392875 103.48879 
L 62.227009 118.745817 
L 42.392875 134.002844 
L 42.392875 103.48879 
" clip-path="url(#pf77b0e2d3e)" style="fill: none; stroke: #000000; stroke-width: 2; stroke-linecap: round"/>
   </g>
   <g id="line2d_32">
    <path d="M 89.537087 109.591601 
L 86.485682 109.591601 
L 86.485682 118.745817 
" clip-path="url(#pf77b0e2d3e)" style="fill: none; stroke: #000000; stroke-width: 2; stroke-linecap: round"/>
   </g>
   <g id="line2d_33">
    <path d="M 150.565194 76.026142 
L 147.513788 76.026142 
L 147.513788 101.963088 
" clip-path="url(#pf77b0e2d3e)" style="fill: none; stroke: #000000; stroke-width: 2; stroke-linecap: round"/>
   </g>
   <g id="line2d_34">
    <path d="M 211.5933 102.725939 
L 208.541895 102.725939 
L 208.541895 68.397629 
" clip-path="url(#pf77b0e2d3e)" style="fill: none; stroke: #000000; stroke-width: 2; stroke-linecap: round"/>
   </g>
   <g id="line2d_35">
    <path d="M 161.245112 167.263162 
L 178.245799 167.163524 
L 179.989459 166.864611 
L 181.733119 166.366422 
L 183.47678 165.668958 
L 185.22044 164.772219 
L 187.400015 163.371063 
L 189.57959 161.65854 
L 191.759166 159.634648 
L 193.938741 157.299389 
L 196.118316 154.652762 
L 197.861976 152.311276 
L 197.861976 152.311276 
L 195.246486 148.873774 
L 193.066911 146.351694 
L 190.887335 144.140982 
L 188.70776 142.241638 
L 186.528185 140.653662 
L 184.34861 139.377053 
L 182.60495 138.579952 
L 180.861289 137.982125 
L 179.117629 137.583574 
L 177.373969 137.384299 
L 176.502139 137.359389 
L 161.245112 137.359389 
L 161.245112 137.359389 
L 163.442124 139.800514 
L 164.833565 141.631357 
L 166.005305 143.4622 
L 166.957343 145.293043 
L 167.68968 147.123886 
L 168.202316 148.95473 
L 168.495251 150.785573 
L 168.568485 152.616416 
L 168.422018 154.447259 
L 168.055849 156.278102 
L 167.469979 158.108946 
L 166.664408 159.939789 
L 165.639136 161.770632 
L 164.394163 163.601475 
L 162.929488 165.432318 
L 161.245112 167.263162 
L 161.245112 167.263162 
" clip-path="url(#pf77b0e2d3e)" style="fill: none; stroke: #000000; stroke-width: 2; stroke-linecap: round"/>
   </g>
   <g id="line2d_36">
    <path d="M 150.565194 159.939789 
L 166.664408 159.939789 
" clip-path="url(#pf77b0e2d3e)" style="fill: none; stroke: #000000; stroke-width: 2; stroke-linecap: round"/>
   </g>
   <g id="line2d_37">
    <path d="M 150.565194 144.682762 
L 166.664408 144.682762 
" clip-path="url(#pf77b0e2d3e)" style="fill: none; stroke: #000000; stroke-width: 2; stroke-linecap: round"/>
   </g>
   <g id="line2d_38">
    <path d="M 205.185349 152.311276 
L 208.541895 152.311276 
" clip-path="url(#pf77b0e2d3e)" style="fill: none; stroke: #000000; stroke-width: 2; stroke-linecap: round"/>
   </g>
   <g id="line2d_39">
    <path d="M 211.5933 117.982966 
L 208.541895 117.982966 
L 208.541895 152.311276 
" clip-path="url(#pf77b0e2d3e)" style="fill: none; stroke: #000000; stroke-width: 2; stroke-linecap: round"/>
   </g>
   <g id="line2d_40">
    <path d="M 272.621407 119.508668 
L 269.570001 119.508668 
L 269.570001 110.354452 
" clip-path="url(#pf77b0e2d3e)" style="fill: none; stroke: #000000; stroke-width: 2; stroke-linecap: round"/>
   </g>
   <g id="line2d_41">
    <path d="M 333.649513 136.291398 
L 330.598108 136.291398 
L 330.598108 127.137182 
" clip-path="url(#pf77b0e2d3e)" style="fill: none; stroke: #000000; stroke-width: 2; stroke-linecap: round"/>
   </g>
   <g id="line2d_42">
    <path d="M 394.67762 153.074127 
L 391.626214 153.074127 
L 391.626214 143.919911 
" clip-path="url(#pf77b0e2d3e)" style="fill: none; stroke: #000000; stroke-width: 2; stroke-linecap: round"/>
   </g>
   <g id="text_1">
    <g clip-path="url(#pf77b0e2d3e)">
     <!-- output -->
     <g transform="translate(455.705726 164.151859) scale(0.125 -0.125)">
      <defs>
       <path id="DejaVuSans-6f" d="M 1959 3097 
Q 1497 3097 1228 2736 
Q 959 2375 959 1747 
Q 959 1119 1226 758 
Q 1494 397 1959 397 
Q 2419 397 2687 759 
Q 2956 1122 2956 1747 
Q 2956 2369 2687 2733 
Q 2419 3097 1959 3097 
z
M 1959 3584 
Q 2709 3584 3137 3096 
Q 3566 2609 3566 1747 
Q 3566 888 3137 398 
Q 2709 -91 1959 -91 
Q 1206 -91 779 398 
Q 353 888 353 1747 
Q 353 2609 779 3096 
Q 1206 3584 1959 3584 
z
" transform="scale(0.015625)"/>
       <path id="DejaVuSans-75" d="M 544 1381 
L 544 3500 
L 1119 3500 
L 1119 1403 
Q 1119 906 1312 657 
Q 1506 409 1894 409 
Q 2359 409 2629 706 
Q 2900 1003 2900 1516 
L 2900 3500 
L 3475 3500 
L 3475 0 
L 2900 0 
L 2900 538 
Q 2691 219 2414 64 
Q 2138 -91 1772 -91 
Q 1169 -91 856 284 
Q 544 659 544 1381 
z
M 1991 3584 
L 1991 3584 
z
" transform="scale(0.015625)"/>
       <path id="DejaVuSans-74" d="M 1172 4494 
L 1172 3500 
L 2356 3500 
L 2356 3053 
L 1172 3053 
L 1172 1153 
Q 1172 725 1289 603 
Q 1406 481 1766 481 
L 2356 481 
L 2356 0 
L 1766 0 
Q 1100 0 847 248 
Q 594 497 594 1153 
L 594 3053 
L 172 3053 
L 172 3500 
L 594 3500 
L 594 4494 
L 1172 4494 
z
" transform="scale(0.015625)"/>
       <path id="DejaVuSans-70" d="M 1159 525 
L 1159 -1331 
L 581 -1331 
L 581 3500 
L 1159 3500 
L 1159 2969 
Q 1341 3281 1617 3432 
Q 1894 3584 2278 3584 
Q 2916 3584 3314 3078 
Q 3713 2572 3713 1747 
Q 3713 922 3314 415 
Q 2916 -91 2278 -91 
Q 1894 -91 1617 61 
Q 1341 213 1159 525 
z
M 3116 1747 
Q 3116 2381 2855 2742 
Q 2594 3103 2138 3103 
Q 1681 3103 1420 2742 
Q 1159 2381 1159 1747 
Q 1159 1113 1420 752 
Q 1681 391 2138 391 
Q 2594 391 2855 752 
Q 3116 1113 3116 1747 
z
" transform="scale(0.015625)"/>
      </defs>
      <use xlink:href="#DejaVuSans-6f"/>
      <use xlink:href="#DejaVuSans-75" x="61.181641"/>
      <use xlink:href="#DejaVuSans-74" x="124.560547"/>
      <use xlink:href="#DejaVuSans-70" x="163.769531"/>
      <use xlink:href="#DejaVuSans-75" x="227.246094"/>
      <use xlink:href="#DejaVuSans-74" x="290.625"/>
     </g>
    </g>
   </g>
   <g id="text_2">
    <g clip-path="url(#pf77b0e2d3e)">
     <!-- FALSE -->
     <g transform="translate(354.227777 171.780372) scale(0.125 -0.125)">
      <defs>
       <path id="DejaVuSans-46" d="M 628 4666 
L 3309 4666 
L 3309 4134 
L 1259 4134 
L 1259 2759 
L 3109 2759 
L 3109 2228 
L 1259 2228 
L 1259 0 
L 628 0 
L 628 4666 
z
" transform="scale(0.015625)"/>
       <path id="DejaVuSans-41" d="M 2188 4044 
L 1331 1722 
L 3047 1722 
L 2188 4044 
z
M 1831 4666 
L 2547 4666 
L 4325 0 
L 3669 0 
L 3244 1197 
L 1141 1197 
L 716 0 
L 50 0 
L 1831 4666 
z
" transform="scale(0.015625)"/>
       <path id="DejaVuSans-4c" d="M 628 4666 
L 1259 4666 
L 1259 531 
L 3531 531 
L 3531 0 
L 628 0 
L 628 4666 
z
" transform="scale(0.015625)"/>
       <path id="DejaVuSans-53" d="M 3425 4513 
L 3425 3897 
Q 3066 4069 2747 4153 
Q 2428 4238 2131 4238 
Q 1616 4238 1336 4038 
Q 1056 3838 1056 3469 
Q 1056 3159 1242 3001 
Q 1428 2844 1947 2747 
L 2328 2669 
Q 3034 2534 3370 2195 
Q 3706 1856 3706 1288 
Q 3706 609 3251 259 
Q 2797 -91 1919 -91 
Q 1588 -91 1214 -16 
Q 841 59 441 206 
L 441 856 
Q 825 641 1194 531 
Q 1563 422 1919 422 
Q 2459 422 2753 634 
Q 3047 847 3047 1241 
Q 3047 1584 2836 1778 
Q 2625 1972 2144 2069 
L 1759 2144 
Q 1053 2284 737 2584 
Q 422 2884 422 3419 
Q 422 4038 858 4394 
Q 1294 4750 2059 4750 
Q 2388 4750 2728 4690 
Q 3069 4631 3425 4513 
z
" transform="scale(0.015625)"/>
       <path id="DejaVuSans-45" d="M 628 4666 
L 3578 4666 
L 3578 4134 
L 1259 4134 
L 1259 2753 
L 3481 2753 
L 3481 2222 
L 1259 2222 
L 1259 531 
L 3634 531 
L 3634 0 
L 628 0 
L 628 4666 
z
" transform="scale(0.015625)"/>
      </defs>
      <use xlink:href="#DejaVuSans-46"/>
      <use xlink:href="#DejaVuSans-41" x="48.394531"/>
      <use xlink:href="#DejaVuSans-4c" x="116.802734"/>
      <use xlink:href="#DejaVuSans-53" x="172.515625"/>
      <use xlink:href="#DejaVuSans-45" x="235.992188"/>
     </g>
    </g>
   </g>
   <g id="text_3">
    <g clip-path="url(#pf77b0e2d3e)">
     <!-- FALSE -->
     <g transform="translate(293.19967 154.997643) scale(0.125 -0.125)">
      <use xlink:href="#DejaVuSans-46"/>
      <use xlink:href="#DejaVuSans-41" x="48.394531"/>
      <use xlink:href="#DejaVuSans-4c" x="116.802734"/>
      <use xlink:href="#DejaVuSans-53" x="172.515625"/>
      <use xlink:href="#DejaVuSans-45" x="235.992188"/>
     </g>
    </g>
   </g>
   <g id="text_4">
    <g clip-path="url(#pf77b0e2d3e)">
     <!-- FALSE -->
     <g transform="translate(232.171564 138.214914) scale(0.125 -0.125)">
      <use xlink:href="#DejaVuSans-46"/>
      <use xlink:href="#DejaVuSans-41" x="48.394531"/>
      <use xlink:href="#DejaVuSans-4c" x="116.802734"/>
      <use xlink:href="#DejaVuSans-53" x="172.515625"/>
      <use xlink:href="#DejaVuSans-45" x="235.992188"/>
     </g>
    </g>
   </g>
   <g id="text_5">
    <g clip-path="url(#pf77b0e2d3e)">
     <!-- a -->
     <g transform="translate(80.351228 30.652876) scale(0.125 -0.125)">
      <defs>
       <path id="DejaVuSans-61" d="M 2194 1759 
Q 1497 1759 1228 1600 
Q 959 1441 959 1056 
Q 959 750 1161 570 
Q 1363 391 1709 391 
Q 2188 391 2477 730 
Q 2766 1069 2766 1631 
L 2766 1759 
L 2194 1759 
z
M 3341 1997 
L 3341 0 
L 2766 0 
L 2766 531 
Q 2569 213 2275 61 
Q 1981 -91 1556 -91 
Q 1019 -91 701 211 
Q 384 513 384 1019 
Q 384 1609 779 1909 
Q 1175 2209 1959 2209 
L 2766 2209 
L 2766 2266 
Q 2766 2663 2505 2880 
Q 2244 3097 1772 3097 
Q 1472 3097 1187 3025 
Q 903 2953 641 2809 
L 641 3341 
Q 956 3463 1253 3523 
Q 1550 3584 1831 3584 
Q 2591 3584 2966 3190 
Q 3341 2797 3341 1997 
z
" transform="scale(0.015625)"/>
      </defs>
      <use xlink:href="#DejaVuSans-61"/>
     </g>
    </g>
   </g>
   <g id="text_6">
    <g clip-path="url(#pf77b0e2d3e)">
     <!-- b -->
     <g transform="translate(80.075838 45.909903) scale(0.125 -0.125)">
      <defs>
       <path id="DejaVuSans-62" d="M 3116 1747 
Q 3116 2381 2855 2742 
Q 2594 3103 2138 3103 
Q 1681 3103 1420 2742 
Q 1159 2381 1159 1747 
Q 1159 1113 1420 752 
Q 1681 391 2138 391 
Q 2594 391 2855 752 
Q 3116 1113 3116 1747 
z
M 1159 2969 
Q 1341 3281 1617 3432 
Q 1894 3584 2278 3584 
Q 2916 3584 3314 3078 
Q 3713 2572 3713 1747 
Q 3713 922 3314 415 
Q 2916 -91 2278 -91 
Q 1894 -91 1617 61 
Q 1341 213 1159 525 
L 1159 0 
L 581 0 
L 581 4863 
L 1159 4863 
L 1159 2969 
z
" transform="scale(0.015625)"/>
      </defs>
      <use xlink:href="#DejaVuSans-62"/>
     </g>
    </g>
   </g>
   <g id="text_7">
    <g clip-path="url(#pf77b0e2d3e)">
     <!-- c -->
     <g transform="translate(79.612635 97.783793) scale(0.125 -0.125)">
      <defs>
       <path id="DejaVuSans-63" d="M 3122 3366 
L 3122 2828 
Q 2878 2963 2633 3030 
Q 2388 3097 2138 3097 
Q 1578 3097 1268 2742 
Q 959 2388 959 1747 
Q 959 1106 1268 751 
Q 1578 397 2138 397 
Q 2388 397 2633 464 
Q 2878 531 3122 666 
L 3122 134 
Q 2881 22 2623 -34 
Q 2366 -91 2075 -91 
Q 1284 -91 818 406 
Q 353 903 353 1747 
Q 353 2603 823 3093 
Q 1294 3584 2113 3584 
Q 2378 3584 2631 3529 
Q 2884 3475 3122 3366 
z
" transform="scale(0.015625)"/>
      </defs>
      <use xlink:href="#DejaVuSans-63"/>
     </g>
    </g>
   </g>
   <g id="text_8">
    <g clip-path="url(#pf77b0e2d3e)">
     <!-- c -->
     <g transform="translate(15.533123 122.195036) scale(0.125 -0.125)">
      <use xlink:href="#DejaVuSans-63"/>
     </g>
    </g>
   </g>
   <g id="text_9">
    <g clip-path="url(#pf77b0e2d3e)">
     <!-- d -->
     <g transform="translate(139.578241 148.131981) scale(0.125 -0.125)">
      <defs>
       <path id="DejaVuSans-64" d="M 2906 2969 
L 2906 4863 
L 3481 4863 
L 3481 0 
L 2906 0 
L 2906 525 
Q 2725 213 2448 61 
Q 2172 -91 1784 -91 
Q 1150 -91 751 415 
Q 353 922 353 1747 
Q 353 2572 751 3078 
Q 1150 3584 1784 3584 
Q 2172 3584 2448 3432 
Q 2725 3281 2906 2969 
z
M 947 1747 
Q 947 1113 1208 752 
Q 1469 391 1925 391 
Q 2381 391 2643 752 
Q 2906 1113 2906 1747 
Q 2906 2381 2643 2742 
Q 2381 3103 1925 3103 
Q 1469 3103 1208 2742 
Q 947 2381 947 1747 
z
" transform="scale(0.015625)"/>
      </defs>
      <use xlink:href="#DejaVuSans-64"/>
     </g>
    </g>
   </g>
   <g id="text_10">
    <g clip-path="url(#pf77b0e2d3e)">
     <!-- TRUE -->
     <g transform="translate(114.146601 163.389008) scale(0.125 -0.125)">
      <defs>
       <path id="DejaVuSans-54" d="M -19 4666 
L 3928 4666 
L 3928 4134 
L 2272 4134 
L 2272 0 
L 1638 0 
L 1638 4134 
L -19 4134 
L -19 4666 
z
" transform="scale(0.015625)"/>
       <path id="DejaVuSans-52" d="M 2841 2188 
Q 3044 2119 3236 1894 
Q 3428 1669 3622 1275 
L 4263 0 
L 3584 0 
L 2988 1197 
Q 2756 1666 2539 1819 
Q 2322 1972 1947 1972 
L 1259 1972 
L 1259 0 
L 628 0 
L 628 4666 
L 2053 4666 
Q 2853 4666 3247 4331 
Q 3641 3997 3641 3322 
Q 3641 2881 3436 2590 
Q 3231 2300 2841 2188 
z
M 1259 4147 
L 1259 2491 
L 2053 2491 
Q 2509 2491 2742 2702 
Q 2975 2913 2975 3322 
Q 2975 3731 2742 3939 
Q 2509 4147 2053 4147 
L 1259 4147 
z
" transform="scale(0.015625)"/>
       <path id="DejaVuSans-55" d="M 556 4666 
L 1191 4666 
L 1191 1831 
Q 1191 1081 1462 751 
Q 1734 422 2344 422 
Q 2950 422 3222 751 
Q 3494 1081 3494 1831 
L 3494 4666 
L 4128 4666 
L 4128 1753 
Q 4128 841 3676 375 
Q 3225 -91 2344 -91 
Q 1459 -91 1007 375 
Q 556 841 556 1753 
L 556 4666 
z
" transform="scale(0.015625)"/>
      </defs>
      <use xlink:href="#DejaVuSans-54"/>
      <use xlink:href="#DejaVuSans-52" x="61.083984"/>
      <use xlink:href="#DejaVuSans-55" x="130.566406"/>
      <use xlink:href="#DejaVuSans-45" x="203.759766"/>
     </g>
    </g>
   </g>
  </g>
 </g>
 <defs>
  <clipPath id="pf77b0e2d3e">
   <rect x="7.2" y="7.2" width="497.938493" height="175.032"/>
  </clipPath>
 </defs>
</svg>
