<?xml version="1.0" encoding="utf-8" standalone="no"?>
<!DOCTYPE svg PUBLIC "-//W3C//DTD SVG 1.1//EN"
  "http://www.w3.org/Graphics/SVG/1.1/DTD/svg11.dtd">
<svg xmlns:xlink="http://www.w3.org/1999/xlink" width="269.595179pt" height="159.444pt" viewBox="0 0 269.595179 159.444" xmlns="http://www.w3.org/2000/svg" version="1.1">
 <metadata>
  <rdf:RDF xmlns:dc="http://purl.org/dc/elements/1.1/" xmlns:cc="http://creativecommons.org/ns#" xmlns:rdf="http://www.w3.org/1999/02/22-rdf-syntax-ns#">
   <cc:Work>
    <dc:type rdf:resource="http://purl.org/dc/dcmitype/StillImage"/>
    <dc:date>2022-12-17T13:18:09.926881</dc:date>
    <dc:format>image/svg+xml</dc:format>
    <dc:creator>
     <cc:Agent>
      <dc:title>Matplotlib v3.6.0, https://matplotlib.org/</dc:title>
     </cc:Agent>
    </dc:creator>
   </cc:Work>
  </rdf:RDF>
 </metadata>
 <defs>
  <style type="text/css">*{stroke-linejoin: round; stroke-linecap: butt}</style>
 </defs>
 <g id="figure_1">
  <g id="patch_1">
   <path d="M 0 159.444 
L 269.595179 159.444 
L 269.595179 0 
L 0 0 
L 0 159.444 
z
" style="fill: none"/>
  </g>
  <g id="axes_1">
   <g id="patch_2">
    <path d="M 202.739163 89.817633 
C 203.712761 89.817633 204.646614 89.430819 205.335051 88.742382 
C 206.023488 88.053944 206.410303 87.120092 206.410303 86.146494 
C 206.410303 85.172896 206.023488 84.239044 205.335051 83.550606 
C 204.646614 82.862169 203.712761 82.475355 202.739163 82.475355 
C 201.765566 82.475355 200.831713 82.862169 200.143276 83.550606 
C 199.454838 84.239044 199.068024 85.172896 199.068024 86.146494 
C 199.068024 87.120092 199.454838 88.053944 200.143276 88.742382 
C 200.831713 89.430819 201.765566 89.817633 202.739163 89.817633 
L 202.739163 89.817633 
z
" clip-path="url(#p759d129822)" style="fill: none; stroke: #000000; stroke-width: 2; stroke-linejoin: miter"/>
   </g>
   <g id="patch_3">
    <path d="M 141.553506 47.752494 
C 142.527104 47.752494 143.460956 47.36568 144.149394 46.677242 
C 144.837831 45.988805 145.224645 45.054952 145.224645 44.081355 
C 145.224645 43.107757 144.837831 42.173904 144.149394 41.485467 
C 143.460956 40.79703 142.527104 40.410215 141.553506 40.410215 
C 140.579908 40.410215 139.646056 40.79703 138.957618 41.485467 
C 138.269181 42.173904 137.882367 43.107757 137.882367 44.081355 
C 137.882367 45.054952 138.269181 45.988805 138.957618 46.677242 
C 139.646056 47.36568 140.579908 47.752494 141.553506 47.752494 
L 141.553506 47.752494 
z
" clip-path="url(#p759d129822)" style="fill: none; stroke: #000000; stroke-width: 2; stroke-linejoin: miter"/>
   </g>
   <g id="patch_4">
    <path d="M 66.75404 30.926438 
C 67.727637 30.926438 68.66149 30.539624 69.349927 29.851186 
C 70.038365 29.162749 70.425179 28.228896 70.425179 27.255299 
C 70.425179 26.281701 70.038365 25.347849 69.349927 24.659411 
C 68.66149 23.970974 67.727637 23.584159 66.75404 23.584159 
C 65.780442 23.584159 64.84659 23.970974 64.158152 24.659411 
C 63.469715 25.347849 63.0829 26.281701 63.0829 27.255299 
C 63.0829 28.228896 63.469715 29.162749 64.158152 29.851186 
C 64.84659 30.539624 65.780442 30.926438 66.75404 30.926438 
L 66.75404 30.926438 
z
" clip-path="url(#p759d129822)" style="fill: none; stroke: #000000; stroke-width: 2; stroke-linejoin: miter"/>
   </g>
   <g id="patch_5">
    <path d="M 141.553506 131.882773 
C 142.527104 131.882773 143.460956 131.495958 144.149394 130.807521 
C 144.837831 130.119084 145.224645 129.185231 145.224645 128.211633 
C 145.224645 127.238036 144.837831 126.304183 144.149394 125.615746 
C 143.460956 124.927308 142.527104 124.540494 141.553506 124.540494 
C 140.579908 124.540494 139.646056 124.927308 138.957618 125.615746 
C 138.269181 126.304183 137.882367 127.238036 137.882367 128.211633 
C 137.882367 129.185231 138.269181 130.119084 138.957618 130.807521 
C 139.646056 131.495958 140.579908 131.882773 141.553506 131.882773 
L 141.553506 131.882773 
z
" clip-path="url(#p759d129822)" style="fill: none; stroke: #000000; stroke-width: 2; stroke-linejoin: miter"/>
   </g>
   <g id="patch_6">
    <path d="M 66.75404 98.230661 
C 67.727637 98.230661 68.66149 97.843847 69.349927 97.15541 
C 70.038365 96.466972 70.425179 95.533119 70.425179 94.559522 
C 70.425179 93.585924 70.038365 92.652072 69.349927 91.963634 
C 68.66149 91.275197 67.727637 90.888382 66.75404 90.888382 
C 65.780442 90.888382 64.84659 91.275197 64.158152 91.963634 
C 63.469715 92.652072 63.0829 93.585924 63.0829 94.559522 
C 63.0829 95.533119 63.469715 96.466972 64.158152 97.15541 
C 64.84659 97.843847 65.780442 98.230661 66.75404 98.230661 
L 66.75404 98.230661 
z
" clip-path="url(#p759d129822)" style="fill: none; stroke: #000000; stroke-width: 2; stroke-linejoin: miter"/>
   </g>
   <g id="line2d_1">
    <path d="M 162.356629 101.13698 
L 179.401205 101.037085 
L 181.149367 100.7374 
L 182.897529 100.237926 
L 184.64569 99.538661 
L 186.393852 98.639606 
L 188.579054 97.234834 
L 190.764256 95.517889 
L 192.949458 93.488773 
L 195.13466 91.147485 
L 197.319862 88.494025 
L 199.068024 86.146494 
L 199.068024 86.146494 
L 196.445781 82.700118 
L 194.260579 80.171527 
L 192.075377 77.955108 
L 189.890175 76.050861 
L 187.704973 74.458785 
L 185.519771 73.178881 
L 183.77161 72.379721 
L 182.023448 71.780351 
L 180.275286 71.380772 
L 178.527125 71.180982 
L 177.653044 71.156008 
L 162.356629 71.156008 
L 162.356629 71.156008 
L 164.559313 73.603434 
L 165.954346 75.439004 
L 167.129111 77.274574 
L 168.083607 79.110143 
L 168.817835 80.945713 
L 169.331794 82.781283 
L 169.625486 84.616853 
L 169.698908 86.452422 
L 169.552063 88.287992 
L 169.184949 90.123562 
L 168.597567 91.959131 
L 167.789916 93.794701 
L 166.761997 95.630271 
L 165.513809 97.465841 
L 164.045354 99.30141 
L 162.356629 101.13698 
L 162.356629 101.13698 
" clip-path="url(#p759d129822)" style="fill: none; stroke: #000000; stroke-width: 2; stroke-linecap: round"/>
   </g>
   <g id="line2d_2">
    <path d="M 151.649139 93.794701 
L 167.789916 93.794701 
" clip-path="url(#p759d129822)" style="fill: none; stroke: #000000; stroke-width: 2; stroke-linecap: round"/>
   </g>
   <g id="line2d_3">
    <path d="M 151.649139 78.498287 
L 167.789916 78.498287 
" clip-path="url(#p759d129822)" style="fill: none; stroke: #000000; stroke-width: 2; stroke-linecap: round"/>
   </g>
   <g id="line2d_4">
    <path d="M 206.410303 86.146494 
L 209.775514 86.146494 
" clip-path="url(#p759d129822)" style="fill: none; stroke: #000000; stroke-width: 2; stroke-linecap: round"/>
   </g>
   <g id="line2d_5">
    <path d="M 101.170972 59.071841 
L 118.215548 58.971946 
L 119.96371 58.672261 
L 121.711871 58.172786 
L 123.460033 57.473521 
L 125.208195 56.574467 
L 127.393397 55.169694 
L 129.578599 53.45275 
L 131.763801 51.423633 
L 133.949003 49.082346 
L 136.134205 46.428886 
L 137.882367 44.081355 
L 137.882367 44.081355 
L 135.260124 40.634979 
L 133.074922 38.106388 
L 130.88972 35.889969 
L 128.704518 33.985721 
L 126.519316 32.393645 
L 124.334114 31.113741 
L 122.585952 30.314582 
L 120.837791 29.715212 
L 119.089629 29.315632 
L 117.341467 29.115842 
L 116.467386 29.090869 
L 101.170972 29.090869 
L 101.170972 29.090869 
L 103.373656 31.538295 
L 104.768689 33.373865 
L 105.943453 35.209434 
L 106.89795 37.045004 
L 107.632178 38.880574 
L 108.146137 40.716143 
L 108.439828 42.551713 
L 108.513251 44.387283 
L 108.366405 46.222853 
L 107.999291 48.058422 
L 107.411909 49.893992 
L 106.604258 51.729562 
L 105.576339 53.565131 
L 104.328152 55.400701 
L 102.859696 57.236271 
L 101.170972 59.071841 
L 101.170972 59.071841 
" clip-path="url(#p759d129822)" style="fill: none; stroke: #000000; stroke-width: 2; stroke-linecap: round"/>
   </g>
   <g id="line2d_6">
    <path d="M 90.463482 51.729562 
L 106.604258 51.729562 
" clip-path="url(#p759d129822)" style="fill: none; stroke: #000000; stroke-width: 2; stroke-linecap: round"/>
   </g>
   <g id="line2d_7">
    <path d="M 90.463482 36.433147 
L 106.604258 36.433147 
" clip-path="url(#p759d129822)" style="fill: none; stroke: #000000; stroke-width: 2; stroke-linecap: round"/>
   </g>
   <g id="line2d_8">
    <path d="M 145.224645 44.081355 
L 148.589857 44.081355 
" clip-path="url(#p759d129822)" style="fill: none; stroke: #000000; stroke-width: 2; stroke-linecap: round"/>
   </g>
   <g id="line2d_9">
    <path d="M 26.218542 27.255299 
L 43.197562 27.255299 
M 70.425179 27.255299 
L 87.404199 27.255299 
" clip-path="url(#p759d129822)" style="fill: none; stroke: #000000; stroke-width: 2; stroke-linecap: round"/>
   </g>
   <g id="line2d_10">
    <path d="M 43.197562 11.958884 
L 63.0829 27.255299 
L 43.197562 42.551713 
L 43.197562 11.958884 
" clip-path="url(#p759d129822)" style="fill: none; stroke: #000000; stroke-width: 2; stroke-linecap: round"/>
   </g>
   <g id="line2d_11">
    <path d="M 90.463482 36.433147 
L 87.404199 36.433147 
L 87.404199 27.255299 
" clip-path="url(#p759d129822)" style="fill: none; stroke: #000000; stroke-width: 2; stroke-linecap: round"/>
   </g>
   <g id="line2d_12">
    <path d="M 151.649139 78.498287 
L 148.589857 78.498287 
L 148.589857 44.081355 
" clip-path="url(#p759d129822)" style="fill: none; stroke: #000000; stroke-width: 2; stroke-linecap: round"/>
   </g>
   <g id="line2d_13">
    <path d="M 101.170972 143.20212 
L 118.215548 143.102225 
L 119.96371 142.80254 
L 121.711871 142.303065 
L 123.460033 141.6038 
L 125.208195 140.704746 
L 127.393397 139.299973 
L 129.578599 137.583029 
L 131.763801 135.553912 
L 133.949003 133.212624 
L 136.134205 130.559165 
L 137.882367 128.211633 
L 137.882367 128.211633 
L 135.260124 124.765258 
L 133.074922 122.236667 
L 130.88972 120.020247 
L 128.704518 118.116 
L 126.519316 116.523924 
L 124.334114 115.24402 
L 122.585952 114.444861 
L 120.837791 113.845491 
L 119.089629 113.445911 
L 117.341467 113.246121 
L 116.467386 113.221147 
L 101.170972 113.221147 
L 101.170972 113.221147 
L 103.373656 115.668574 
L 104.768689 117.504143 
L 105.943453 119.339713 
L 106.89795 121.175283 
L 107.632178 123.010853 
L 108.146137 124.846422 
L 108.439828 126.681992 
L 108.513251 128.517562 
L 108.366405 130.353131 
L 107.999291 132.188701 
L 107.411909 134.024271 
L 106.604258 135.859841 
L 105.576339 137.69541 
L 104.328152 139.53098 
L 102.859696 141.36655 
L 101.170972 143.20212 
L 101.170972 143.20212 
" clip-path="url(#p759d129822)" style="fill: none; stroke: #000000; stroke-width: 2; stroke-linecap: round"/>
   </g>
   <g id="line2d_14">
    <path d="M 90.463482 138.307267 
L 105.184751 138.307267 
" clip-path="url(#p759d129822)" style="fill: none; stroke: #000000; stroke-width: 2; stroke-linecap: round"/>
   </g>
   <g id="line2d_15">
    <path d="M 90.463482 128.211633 
L 108.51631 128.211633 
" clip-path="url(#p759d129822)" style="fill: none; stroke: #000000; stroke-width: 2; stroke-linecap: round"/>
   </g>
   <g id="line2d_16">
    <path d="M 90.463482 118.116 
L 105.184751 118.116 
" clip-path="url(#p759d129822)" style="fill: none; stroke: #000000; stroke-width: 2; stroke-linecap: round"/>
   </g>
   <g id="line2d_17">
    <path d="M 145.224645 128.211633 
L 148.589857 128.211633 
" clip-path="url(#p759d129822)" style="fill: none; stroke: #000000; stroke-width: 2; stroke-linecap: round"/>
   </g>
   <g id="line2d_18">
    <path d="M 26.218542 94.559522 
L 43.197562 94.559522 
M 70.425179 94.559522 
L 87.404199 94.559522 
" clip-path="url(#p759d129822)" style="fill: none; stroke: #000000; stroke-width: 2; stroke-linecap: round"/>
   </g>
   <g id="line2d_19">
    <path d="M 43.197562 79.263108 
L 63.0829 94.559522 
L 43.197562 109.855936 
L 43.197562 79.263108 
" clip-path="url(#p759d129822)" style="fill: none; stroke: #000000; stroke-width: 2; stroke-linecap: round"/>
   </g>
   <g id="line2d_20">
    <path d="M 90.463482 118.116 
L 87.404199 118.116 
L 87.404199 94.559522 
" clip-path="url(#p759d129822)" style="fill: none; stroke: #000000; stroke-width: 2; stroke-linecap: round"/>
   </g>
   <g id="line2d_21">
    <path d="M 151.649139 93.794701 
L 148.589857 93.794701 
L 148.589857 128.211633 
" clip-path="url(#p759d129822)" style="fill: none; stroke: #000000; stroke-width: 2; stroke-linecap: round"/>
   </g>
   <g id="text_1">
    <g clip-path="url(#p759d129822)">
     <!-- output -->
     <g transform="translate(212.834797 89.595713) scale(0.125 -0.125)">
      <defs>
       <path id="DejaVuSans-6f" d="M 1959 3097 
Q 1497 3097 1228 2736 
Q 959 2375 959 1747 
Q 959 1119 1226 758 
Q 1494 397 1959 397 
Q 2419 397 2687 759 
Q 2956 1122 2956 1747 
Q 2956 2369 2687 2733 
Q 2419 3097 1959 3097 
z
M 1959 3584 
Q 2709 3584 3137 3096 
Q 3566 2609 3566 1747 
Q 3566 888 3137 398 
Q 2709 -91 1959 -91 
Q 1206 -91 779 398 
Q 353 888 353 1747 
Q 353 2609 779 3096 
Q 1206 3584 1959 3584 
z
" transform="scale(0.015625)"/>
       <path id="DejaVuSans-75" d="M 544 1381 
L 544 3500 
L 1119 3500 
L 1119 1403 
Q 1119 906 1312 657 
Q 1506 409 1894 409 
Q 2359 409 2629 706 
Q 2900 1003 2900 1516 
L 2900 3500 
L 3475 3500 
L 3475 0 
L 2900 0 
L 2900 538 
Q 2691 219 2414 64 
Q 2138 -91 1772 -91 
Q 1169 -91 856 284 
Q 544 659 544 1381 
z
M 1991 3584 
L 1991 3584 
z
" transform="scale(0.015625)"/>
       <path id="DejaVuSans-74" d="M 1172 4494 
L 1172 3500 
L 2356 3500 
L 2356 3053 
L 1172 3053 
L 1172 1153 
Q 1172 725 1289 603 
Q 1406 481 1766 481 
L 2356 481 
L 2356 0 
L 1766 0 
Q 1100 0 847 248 
Q 594 497 594 1153 
L 594 3053 
L 172 3053 
L 172 3500 
L 594 3500 
L 594 4494 
L 1172 4494 
z
" transform="scale(0.015625)"/>
       <path id="DejaVuSans-70" d="M 1159 525 
L 1159 -1331 
L 581 -1331 
L 581 3500 
L 1159 3500 
L 1159 2969 
Q 1341 3281 1617 3432 
Q 1894 3584 2278 3584 
Q 2916 3584 3314 3078 
Q 3713 2572 3713 1747 
Q 3713 922 3314 415 
Q 2916 -91 2278 -91 
Q 1894 -91 1617 61 
Q 1341 213 1159 525 
z
M 3116 1747 
Q 3116 2381 2855 2742 
Q 2594 3103 2138 3103 
Q 1681 3103 1420 2742 
Q 1159 2381 1159 1747 
Q 1159 1113 1420 752 
Q 1681 391 2138 391 
Q 2594 391 2855 752 
Q 3116 1113 3116 1747 
z
" transform="scale(0.015625)"/>
      </defs>
      <use xlink:href="#DejaVuSans-6f"/>
      <use xlink:href="#DejaVuSans-75" x="61.181641"/>
      <use xlink:href="#DejaVuSans-74" x="124.560547"/>
      <use xlink:href="#DejaVuSans-70" x="163.769531"/>
      <use xlink:href="#DejaVuSans-75" x="227.246094"/>
      <use xlink:href="#DejaVuSans-74" x="290.625"/>
     </g>
    </g>
   </g>
   <g id="text_2">
    <g clip-path="url(#p759d129822)">
     <!-- b -->
     <g transform="translate(79.468652 55.178781) scale(0.125 -0.125)">
      <defs>
       <path id="DejaVuSans-62" d="M 3116 1747 
Q 3116 2381 2855 2742 
Q 2594 3103 2138 3103 
Q 1681 3103 1420 2742 
Q 1159 2381 1159 1747 
Q 1159 1113 1420 752 
Q 1681 391 2138 391 
Q 2594 391 2855 752 
Q 3116 1113 3116 1747 
z
M 1159 2969 
Q 1341 3281 1617 3432 
Q 1894 3584 2278 3584 
Q 2916 3584 3314 3078 
Q 3713 2572 3713 1747 
Q 3713 922 3314 415 
Q 2916 -91 2278 -91 
Q 1894 -91 1617 61 
Q 1341 213 1159 525 
L 1159 0 
L 581 0 
L 581 4863 
L 1159 4863 
L 1159 2969 
z
" transform="scale(0.015625)"/>
      </defs>
      <use xlink:href="#DejaVuSans-62"/>
     </g>
    </g>
   </g>
   <g id="text_3">
    <g clip-path="url(#p759d129822)">
     <!-- a -->
     <g transform="translate(15.499103 30.704518) scale(0.125 -0.125)">
      <defs>
       <path id="DejaVuSans-61" d="M 2194 1759 
Q 1497 1759 1228 1600 
Q 959 1441 959 1056 
Q 959 750 1161 570 
Q 1363 391 1709 391 
Q 2188 391 2477 730 
Q 2766 1069 2766 1631 
L 2766 1759 
L 2194 1759 
z
M 3341 1997 
L 3341 0 
L 2766 0 
L 2766 531 
Q 2569 213 2275 61 
Q 1981 -91 1556 -91 
Q 1019 -91 701 211 
Q 384 513 384 1019 
Q 384 1609 779 1909 
Q 1175 2209 1959 2209 
L 2766 2209 
L 2766 2266 
Q 2766 2663 2505 2880 
Q 2244 3097 1772 3097 
Q 1472 3097 1187 3025 
Q 903 2953 641 2809 
L 641 3341 
Q 956 3463 1253 3523 
Q 1550 3584 1831 3584 
Q 2591 3584 2966 3190 
Q 3341 2797 3341 1997 
z
" transform="scale(0.015625)"/>
      </defs>
      <use xlink:href="#DejaVuSans-61"/>
     </g>
    </g>
   </g>
   <g id="text_4">
    <g clip-path="url(#p759d129822)">
     <!-- b -->
     <g transform="translate(79.468652 131.660852) scale(0.125 -0.125)">
      <use xlink:href="#DejaVuSans-62"/>
     </g>
    </g>
   </g>
   <g id="text_5">
    <g clip-path="url(#p759d129822)">
     <!-- c -->
     <g transform="translate(80.531152 141.756486) scale(0.125 -0.125)">
      <defs>
       <path id="DejaVuSans-63" d="M 3122 3366 
L 3122 2828 
Q 2878 2963 2633 3030 
Q 2388 3097 2138 3097 
Q 1578 3097 1268 2742 
Q 959 2388 959 1747 
Q 959 1106 1268 751 
Q 1578 397 2138 397 
Q 2388 397 2633 464 
Q 2878 531 3122 666 
L 3122 134 
Q 2881 22 2623 -34 
Q 2366 -91 2075 -91 
Q 1284 -91 818 406 
Q 353 903 353 1747 
Q 353 2603 823 3093 
Q 1294 3584 2113 3584 
Q 2378 3584 2631 3529 
Q 2884 3475 3122 3366 
z
" transform="scale(0.015625)"/>
      </defs>
      <use xlink:href="#DejaVuSans-63"/>
     </g>
    </g>
   </g>
   <g id="text_6">
    <g clip-path="url(#p759d129822)">
     <!-- a -->
     <g transform="translate(15.499103 98.008741) scale(0.125 -0.125)">
      <use xlink:href="#DejaVuSans-61"/>
     </g>
    </g>
   </g>
  </g>
 </g>
 <defs>
  <clipPath id="p759d129822">
   <rect x="7.2" y="7.2" width="255.195179" height="145.044"/>
  </clipPath>
 </defs>
</svg>
