<?xml version="1.0" encoding="utf-8" standalone="no"?>
<!DOCTYPE svg PUBLIC "-//W3C//DTD SVG 1.1//EN"
  "http://www.w3.org/Graphics/SVG/1.1/DTD/svg11.dtd">
<svg xmlns:xlink="http://www.w3.org/1999/xlink" width="329.775982pt" height="161.28pt" viewBox="0 0 329.775982 161.28" xmlns="http://www.w3.org/2000/svg" version="1.1">
 <metadata>
  <rdf:RDF xmlns:dc="http://purl.org/dc/elements/1.1/" xmlns:cc="http://creativecommons.org/ns#" xmlns:rdf="http://www.w3.org/1999/02/22-rdf-syntax-ns#">
   <cc:Work>
    <dc:type rdf:resource="http://purl.org/dc/dcmitype/StillImage"/>
    <dc:date>2022-12-17T13:18:07.488647</dc:date>
    <dc:format>image/svg+xml</dc:format>
    <dc:creator>
     <cc:Agent>
      <dc:title>Matplotlib v3.6.0, https://matplotlib.org/</dc:title>
     </cc:Agent>
    </dc:creator>
   </cc:Work>
  </rdf:RDF>
 </metadata>
 <defs>
  <style type="text/css">*{stroke-linejoin: round; stroke-linecap: butt}</style>
 </defs>
 <g id="figure_1">
  <g id="patch_1">
   <path d="M 0 161.28 
L 329.775982 161.28 
L 329.775982 0 
L 0 0 
L 0 161.28 
z
" style="fill: none"/>
  </g>
  <g id="axes_1">
   <g id="patch_2">
    <path d="M 262.974964 72.166807 
C 263.947664 72.166807 264.880656 71.780349 265.568459 71.092546 
C 266.256261 70.404744 266.642719 69.471752 266.642719 68.499052 
C 266.642719 67.526352 266.256261 66.59336 265.568459 65.905558 
C 264.880656 65.217755 263.947664 64.831297 262.974964 64.831297 
C 262.002264 64.831297 261.069273 65.217755 260.38147 65.905558 
C 259.693667 66.59336 259.307209 67.526352 259.307209 68.499052 
C 259.307209 69.471752 259.693667 70.404744 260.38147 71.092546 
C 261.069273 71.780349 262.002264 72.166807 262.974964 72.166807 
L 262.974964 72.166807 
z
" clip-path="url(#pbb0822d5a0)" style="fill: none; stroke: #000000; stroke-width: 2; stroke-linejoin: miter"/>
   </g>
   <g id="patch_3">
    <path d="M 201.845716 38.54572 
C 202.818416 38.54572 203.751407 38.159262 204.43921 37.47146 
C 205.127013 36.783657 205.513471 35.850665 205.513471 34.877965 
C 205.513471 33.905265 205.127013 32.972274 204.43921 32.284471 
C 203.751407 31.596668 202.818416 31.21021 201.845716 31.21021 
C 200.873016 31.21021 199.940024 31.596668 199.252221 32.284471 
C 198.564418 32.972274 198.177961 33.905265 198.177961 34.877965 
C 198.177961 35.850665 198.564418 36.783657 199.252221 37.47146 
C 199.940024 38.159262 200.873016 38.54572 201.845716 38.54572 
L 201.845716 38.54572 
z
" clip-path="url(#pbb0822d5a0)" style="fill: none; stroke: #000000; stroke-width: 2; stroke-linejoin: miter"/>
   </g>
   <g id="patch_4">
    <path d="M 201.845716 105.787894 
C 202.818416 105.787894 203.751407 105.401436 204.43921 104.713633 
C 205.127013 104.02583 205.513471 103.092839 205.513471 102.120139 
C 205.513471 101.147439 205.127013 100.214447 204.43921 99.526644 
C 203.751407 98.838842 202.818416 98.452384 201.845716 98.452384 
C 200.873016 98.452384 199.940024 98.838842 199.252221 99.526644 
C 198.564418 100.214447 198.177961 101.147439 198.177961 102.120139 
C 198.177961 103.092839 198.564418 104.02583 199.252221 104.713633 
C 199.940024 105.401436 200.873016 105.787894 201.845716 105.787894 
L 201.845716 105.787894 
z
" clip-path="url(#pbb0822d5a0)" style="fill: none; stroke: #000000; stroke-width: 2; stroke-linejoin: miter"/>
   </g>
   <g id="patch_5">
    <path d="M 65.985961 139.40898 
C 66.958661 139.40898 67.891652 139.022523 68.579455 138.33472 
C 69.267258 137.646917 69.653716 136.713925 69.653716 135.741225 
C 69.653716 134.768525 69.267258 133.835534 68.579455 133.147731 
C 67.891652 132.459928 66.958661 132.073471 65.985961 132.073471 
C 65.013261 132.073471 64.080269 132.459928 63.392466 133.147731 
C 62.704664 133.835534 62.318206 134.768525 62.318206 135.741225 
C 62.318206 136.713925 62.704664 137.646917 63.392466 138.33472 
C 64.080269 139.022523 65.013261 139.40898 65.985961 139.40898 
L 65.985961 139.40898 
z
" clip-path="url(#pbb0822d5a0)" style="fill: none; stroke: #000000; stroke-width: 2; stroke-linejoin: miter"/>
   </g>
   <g id="line2d_1">
    <path d="M 244.024897 83.781364 
L 245.004038 83.749965 
L 245.979156 83.655897 
L 246.946243 83.499545 
L 247.901326 83.281554 
L 248.840479 83.002818 
L 249.759845 82.664483 
L 250.655644 82.267939 
L 251.524196 81.814816 
L 252.361932 81.306976 
L 253.165409 80.746505 
L 253.931326 80.135707 
L 254.656535 79.477091 
L 255.338057 78.773364 
L 255.97309 78.027418 
L 256.559026 77.242317 
L 257.093456 76.421289 
L 257.574184 75.567707 
L 257.999236 74.685077 
L 258.366864 73.777029 
L 258.675558 72.847291 
L 258.92405 71.899686 
L 259.111317 70.938107 
L 259.236591 69.966506 
L 259.299357 68.988874 
L 259.299357 68.00923 
L 259.236591 67.031598 
L 259.111317 66.059997 
L 258.92405 65.098418 
L 258.675558 64.150813 
L 258.366864 63.221075 
L 257.999236 62.313027 
L 257.574184 61.430397 
L 257.093456 60.576815 
L 256.559026 59.755787 
L 255.97309 58.970686 
L 255.338057 58.22474 
L 254.656535 57.521013 
L 253.931326 56.862397 
L 253.165409 56.251599 
L 252.361932 55.691128 
L 251.524196 55.183288 
L 250.655644 54.730165 
L 249.759845 54.333621 
L 248.840479 53.995286 
L 247.901326 53.71655 
L 246.946243 53.498559 
L 245.979156 53.342207 
L 245.004038 53.248139 
L 244.024897 53.21674 
L 244.024897 53.21674 
L 224.157891 53.21674 
L 224.157891 68.499052 
L 224.157891 83.781364 
L 244.024897 83.781364 
" clip-path="url(#pbb0822d5a0)" style="fill: none; stroke: #000000; stroke-width: 2; stroke-linecap: round"/>
   </g>
   <g id="line2d_2">
    <path d="M 213.460273 76.140208 
L 224.157891 76.140208 
" clip-path="url(#pbb0822d5a0)" style="fill: none; stroke: #000000; stroke-width: 2; stroke-linecap: round"/>
   </g>
   <g id="line2d_3">
    <path d="M 213.460273 60.857896 
L 224.157891 60.857896 
" clip-path="url(#pbb0822d5a0)" style="fill: none; stroke: #000000; stroke-width: 2; stroke-linecap: round"/>
   </g>
   <g id="line2d_4">
    <path d="M 266.642719 68.499052 
L 270.004828 68.499052 
" clip-path="url(#pbb0822d5a0)" style="fill: none; stroke: #000000; stroke-width: 2; stroke-linecap: round"/>
   </g>
   <g id="line2d_5">
    <path d="M 161.500412 49.854631 
L 178.529274 49.754828 
L 180.275824 49.45542 
L 182.022374 48.956406 
L 183.768924 48.257786 
L 185.515473 47.35956 
L 187.698661 45.956082 
L 189.881848 44.240721 
L 192.065036 42.213475 
L 194.248223 39.874346 
L 196.431411 37.223332 
L 198.177961 34.877965 
L 198.177961 34.877965 
L 195.558136 31.434767 
L 193.374948 28.908507 
L 191.191761 26.694131 
L 189.008573 24.791639 
L 186.825386 23.201031 
L 184.642199 21.922307 
L 182.895649 21.123884 
L 181.149099 20.525067 
L 179.402549 20.125856 
L 177.655999 19.92625 
L 176.782724 19.901299 
L 161.500412 19.901299 
L 161.500412 19.901299 
L 163.701065 22.346469 
L 165.094811 24.180347 
L 166.268493 26.014224 
L 167.222109 27.848102 
L 167.95566 29.681979 
L 168.469146 31.515857 
L 168.762566 33.349734 
L 168.835921 35.183612 
L 168.689211 37.017489 
L 168.322436 38.851366 
L 167.735595 40.685244 
L 166.928689 42.519121 
L 165.901717 44.352999 
L 164.654681 46.186876 
L 163.187579 48.020754 
L 161.500412 49.854631 
L 161.500412 49.854631 
" clip-path="url(#pbb0822d5a0)" style="fill: none; stroke: #000000; stroke-width: 2; stroke-linecap: round"/>
   </g>
   <g id="line2d_6">
    <path d="M 150.802793 42.519121 
L 166.928689 42.519121 
" clip-path="url(#pbb0822d5a0)" style="fill: none; stroke: #000000; stroke-width: 2; stroke-linecap: round"/>
   </g>
   <g id="line2d_7">
    <path d="M 150.802793 27.236809 
L 166.928689 27.236809 
" clip-path="url(#pbb0822d5a0)" style="fill: none; stroke: #000000; stroke-width: 2; stroke-linecap: round"/>
   </g>
   <g id="line2d_8">
    <path d="M 205.513471 34.877965 
L 208.875579 34.877965 
" clip-path="url(#pbb0822d5a0)" style="fill: none; stroke: #000000; stroke-width: 2; stroke-linecap: round"/>
   </g>
   <g id="line2d_9">
    <path d="M 121.7664 66.970821 
L 122.745541 66.939422 
L 123.720659 66.845353 
L 124.687746 66.689002 
L 125.642829 66.471011 
L 126.581982 66.192275 
L 127.501348 65.85394 
L 128.397147 65.457396 
L 129.265699 65.004273 
L 130.103435 64.496433 
L 130.906912 63.935962 
L 131.672829 63.325163 
L 132.398038 62.666548 
L 133.079559 61.962821 
L 133.714593 61.216874 
L 134.300528 60.431774 
L 134.834959 59.610746 
L 135.315687 58.757163 
L 135.740739 57.874534 
L 136.108367 56.966485 
L 136.417061 56.036748 
L 136.665553 55.089143 
L 136.85282 54.127564 
L 136.978094 53.155963 
L 137.04086 52.178331 
L 137.04086 51.198686 
L 136.978094 50.221055 
L 136.85282 49.249453 
L 136.665553 48.287874 
L 136.417061 47.340269 
L 136.108367 46.410532 
L 135.740739 45.502483 
L 135.315687 44.619854 
L 134.834959 43.766272 
L 134.300528 42.945243 
L 133.714593 42.160143 
L 133.079559 41.414197 
L 132.398038 40.71047 
L 131.672829 40.051854 
L 130.906912 39.441056 
L 130.103435 38.880585 
L 129.265699 38.372744 
L 128.397147 37.919621 
L 127.501348 37.523077 
L 126.581982 37.184743 
L 125.642829 36.906007 
L 124.687746 36.688015 
L 123.720659 36.531664 
L 122.745541 36.437596 
L 121.7664 36.406197 
L 121.7664 36.406197 
L 101.899394 36.406197 
L 101.899394 51.688509 
L 101.899394 66.970821 
L 121.7664 66.970821 
" clip-path="url(#pbb0822d5a0)" style="fill: none; stroke: #000000; stroke-width: 2; stroke-linecap: round"/>
   </g>
   <g id="line2d_10">
    <path d="M 91.201776 59.329665 
L 101.899394 59.329665 
" clip-path="url(#pbb0822d5a0)" style="fill: none; stroke: #000000; stroke-width: 2; stroke-linecap: round"/>
   </g>
   <g id="line2d_11">
    <path d="M 91.201776 44.047353 
L 101.899394 44.047353 
" clip-path="url(#pbb0822d5a0)" style="fill: none; stroke: #000000; stroke-width: 2; stroke-linecap: round"/>
   </g>
   <g id="line2d_12">
    <path d="M 137.048712 51.688509 
L 147.746331 51.688509 
" clip-path="url(#pbb0822d5a0)" style="fill: none; stroke: #000000; stroke-width: 2; stroke-linecap: round"/>
   </g>
   <g id="line2d_13">
    <path d="M 150.802793 42.519121 
L 147.746331 42.519121 
L 147.746331 51.688509 
" clip-path="url(#pbb0822d5a0)" style="fill: none; stroke: #000000; stroke-width: 2; stroke-linecap: round"/>
   </g>
   <g id="line2d_14">
    <path d="M 213.460273 60.857896 
L 208.875579 60.857896 
L 208.875579 34.877965 
" clip-path="url(#pbb0822d5a0)" style="fill: none; stroke: #000000; stroke-width: 2; stroke-linecap: round"/>
   </g>
   <g id="line2d_15">
    <path d="M 161.500412 117.096805 
L 178.529274 116.997002 
L 180.275824 116.697593 
L 182.022374 116.198579 
L 183.768924 115.499959 
L 185.515473 114.601733 
L 187.698661 113.198256 
L 189.881848 111.482894 
L 192.065036 109.455649 
L 194.248223 107.116519 
L 196.431411 104.465506 
L 198.177961 102.120139 
L 198.177961 102.120139 
L 195.558136 98.67694 
L 193.374948 96.15068 
L 191.191761 93.936305 
L 189.008573 92.033813 
L 186.825386 90.443205 
L 184.642199 89.164481 
L 182.895649 88.366058 
L 181.149099 87.767241 
L 179.402549 87.368029 
L 177.655999 87.168424 
L 176.782724 87.143473 
L 161.500412 87.143473 
L 161.500412 87.143473 
L 163.701065 89.588643 
L 165.094811 91.42252 
L 166.268493 93.256398 
L 167.222109 95.090275 
L 167.95566 96.924153 
L 168.469146 98.75803 
L 168.762566 100.591908 
L 168.835921 102.425785 
L 168.689211 104.259662 
L 168.322436 106.09354 
L 167.735595 107.927417 
L 166.928689 109.761295 
L 165.901717 111.595172 
L 164.654681 113.42905 
L 163.187579 115.262927 
L 161.500412 117.096805 
L 161.500412 117.096805 
" clip-path="url(#pbb0822d5a0)" style="fill: none; stroke: #000000; stroke-width: 2; stroke-linecap: round"/>
   </g>
   <g id="line2d_16">
    <path d="M 150.802793 109.761295 
L 166.928689 109.761295 
" clip-path="url(#pbb0822d5a0)" style="fill: none; stroke: #000000; stroke-width: 2; stroke-linecap: round"/>
   </g>
   <g id="line2d_17">
    <path d="M 150.802793 94.478983 
L 166.928689 94.478983 
" clip-path="url(#pbb0822d5a0)" style="fill: none; stroke: #000000; stroke-width: 2; stroke-linecap: round"/>
   </g>
   <g id="line2d_18">
    <path d="M 205.513471 102.120139 
L 208.875579 102.120139 
" clip-path="url(#pbb0822d5a0)" style="fill: none; stroke: #000000; stroke-width: 2; stroke-linecap: round"/>
   </g>
   <g id="line2d_19">
    <path d="M 121.7664 134.212994 
L 122.745541 134.181595 
L 123.720659 134.087527 
L 124.687746 133.931176 
L 125.642829 133.713184 
L 126.581982 133.434448 
L 127.501348 133.096113 
L 128.397147 132.69957 
L 129.265699 132.246446 
L 130.103435 131.738606 
L 130.906912 131.178135 
L 131.672829 130.567337 
L 132.398038 129.908721 
L 133.079559 129.204994 
L 133.714593 128.459048 
L 134.300528 127.673947 
L 134.834959 126.852919 
L 135.315687 125.999337 
L 135.740739 125.116707 
L 136.108367 124.208659 
L 136.417061 123.278921 
L 136.665553 122.331316 
L 136.85282 121.369737 
L 136.978094 120.398136 
L 137.04086 119.420504 
L 137.04086 118.44086 
L 136.978094 117.463228 
L 136.85282 116.491627 
L 136.665553 115.530048 
L 136.417061 114.582443 
L 136.108367 113.652706 
L 135.740739 112.744657 
L 135.315687 111.862028 
L 134.834959 111.008445 
L 134.300528 110.187417 
L 133.714593 109.402316 
L 133.079559 108.65637 
L 132.398038 107.952643 
L 131.672829 107.294027 
L 130.906912 106.683229 
L 130.103435 106.122758 
L 129.265699 105.614918 
L 128.397147 105.161795 
L 127.501348 104.765251 
L 126.581982 104.426916 
L 125.642829 104.14818 
L 124.687746 103.930189 
L 123.720659 103.773838 
L 122.745541 103.679769 
L 121.7664 103.64837 
L 121.7664 103.64837 
L 101.899394 103.64837 
L 101.899394 118.930682 
L 101.899394 134.212994 
L 121.7664 134.212994 
" clip-path="url(#pbb0822d5a0)" style="fill: none; stroke: #000000; stroke-width: 2; stroke-linecap: round"/>
   </g>
   <g id="line2d_20">
    <path d="M 91.201776 126.571838 
L 101.899394 126.571838 
" clip-path="url(#pbb0822d5a0)" style="fill: none; stroke: #000000; stroke-width: 2; stroke-linecap: round"/>
   </g>
   <g id="line2d_21">
    <path d="M 91.201776 111.289526 
L 101.899394 111.289526 
" clip-path="url(#pbb0822d5a0)" style="fill: none; stroke: #000000; stroke-width: 2; stroke-linecap: round"/>
   </g>
   <g id="line2d_22">
    <path d="M 137.048712 118.930682 
L 147.746331 118.930682 
" clip-path="url(#pbb0822d5a0)" style="fill: none; stroke: #000000; stroke-width: 2; stroke-linecap: round"/>
   </g>
   <g id="line2d_23">
    <path d="M 25.487834 135.741225 
L 42.4512 135.741225 
M 69.653716 135.741225 
L 86.617082 135.741225 
" clip-path="url(#pbb0822d5a0)" style="fill: none; stroke: #000000; stroke-width: 2; stroke-linecap: round"/>
   </g>
   <g id="line2d_24">
    <path d="M 42.4512 120.458913 
L 62.318206 135.741225 
L 42.4512 151.023538 
L 42.4512 120.458913 
" clip-path="url(#pbb0822d5a0)" style="fill: none; stroke: #000000; stroke-width: 2; stroke-linecap: round"/>
   </g>
   <g id="line2d_25">
    <path d="M 91.201776 126.571838 
L 86.617082 126.571838 
L 86.617082 135.741225 
" clip-path="url(#pbb0822d5a0)" style="fill: none; stroke: #000000; stroke-width: 2; stroke-linecap: round"/>
   </g>
   <g id="line2d_26">
    <path d="M 150.802793 109.761295 
L 147.746331 109.761295 
L 147.746331 118.930682 
" clip-path="url(#pbb0822d5a0)" style="fill: none; stroke: #000000; stroke-width: 2; stroke-linecap: round"/>
   </g>
   <g id="line2d_27">
    <path d="M 213.460273 76.140208 
L 208.875579 76.140208 
L 208.875579 102.120139 
" clip-path="url(#pbb0822d5a0)" style="fill: none; stroke: #000000; stroke-width: 2; stroke-linecap: round"/>
   </g>
   <g id="text_1">
    <g clip-path="url(#pbb0822d5a0)">
     <!-- output -->
     <g transform="translate(273.06129 71.948271) scale(0.125 -0.125)">
      <defs>
       <path id="DejaVuSans-6f" d="M 1959 3097 
Q 1497 3097 1228 2736 
Q 959 2375 959 1747 
Q 959 1119 1226 758 
Q 1494 397 1959 397 
Q 2419 397 2687 759 
Q 2956 1122 2956 1747 
Q 2956 2369 2687 2733 
Q 2419 3097 1959 3097 
z
M 1959 3584 
Q 2709 3584 3137 3096 
Q 3566 2609 3566 1747 
Q 3566 888 3137 398 
Q 2709 -91 1959 -91 
Q 1206 -91 779 398 
Q 353 888 353 1747 
Q 353 2609 779 3096 
Q 1206 3584 1959 3584 
z
" transform="scale(0.015625)"/>
       <path id="DejaVuSans-75" d="M 544 1381 
L 544 3500 
L 1119 3500 
L 1119 1403 
Q 1119 906 1312 657 
Q 1506 409 1894 409 
Q 2359 409 2629 706 
Q 2900 1003 2900 1516 
L 2900 3500 
L 3475 3500 
L 3475 0 
L 2900 0 
L 2900 538 
Q 2691 219 2414 64 
Q 2138 -91 1772 -91 
Q 1169 -91 856 284 
Q 544 659 544 1381 
z
M 1991 3584 
L 1991 3584 
z
" transform="scale(0.015625)"/>
       <path id="DejaVuSans-74" d="M 1172 4494 
L 1172 3500 
L 2356 3500 
L 2356 3053 
L 1172 3053 
L 1172 1153 
Q 1172 725 1289 603 
Q 1406 481 1766 481 
L 2356 481 
L 2356 0 
L 1766 0 
Q 1100 0 847 248 
Q 594 497 594 1153 
L 594 3053 
L 172 3053 
L 172 3500 
L 594 3500 
L 594 4494 
L 1172 4494 
z
" transform="scale(0.015625)"/>
       <path id="DejaVuSans-70" d="M 1159 525 
L 1159 -1331 
L 581 -1331 
L 581 3500 
L 1159 3500 
L 1159 2969 
Q 1341 3281 1617 3432 
Q 1894 3584 2278 3584 
Q 2916 3584 3314 3078 
Q 3713 2572 3713 1747 
Q 3713 922 3314 415 
Q 2916 -91 2278 -91 
Q 1894 -91 1617 61 
Q 1341 213 1159 525 
z
M 3116 1747 
Q 3116 2381 2855 2742 
Q 2594 3103 2138 3103 
Q 1681 3103 1420 2742 
Q 1159 2381 1159 1747 
Q 1159 1113 1420 752 
Q 1681 391 2138 391 
Q 2594 391 2855 752 
Q 3116 1113 3116 1747 
z
" transform="scale(0.015625)"/>
      </defs>
      <use xlink:href="#DejaVuSans-6f"/>
      <use xlink:href="#DejaVuSans-75" x="61.181641"/>
      <use xlink:href="#DejaVuSans-74" x="124.560547"/>
      <use xlink:href="#DejaVuSans-70" x="163.769531"/>
      <use xlink:href="#DejaVuSans-75" x="227.246094"/>
      <use xlink:href="#DejaVuSans-74" x="290.625"/>
     </g>
    </g>
   </g>
   <g id="text_2">
    <g clip-path="url(#pbb0822d5a0)">
     <!-- a -->
     <g transform="translate(140.086174 30.686028) scale(0.125 -0.125)">
      <defs>
       <path id="DejaVuSans-61" d="M 2194 1759 
Q 1497 1759 1228 1600 
Q 959 1441 959 1056 
Q 959 750 1161 570 
Q 1363 391 1709 391 
Q 2188 391 2477 730 
Q 2766 1069 2766 1631 
L 2766 1759 
L 2194 1759 
z
M 3341 1997 
L 3341 0 
L 2766 0 
L 2766 531 
Q 2569 213 2275 61 
Q 1981 -91 1556 -91 
Q 1019 -91 701 211 
Q 384 513 384 1019 
Q 384 1609 779 1909 
Q 1175 2209 1959 2209 
L 2766 2209 
L 2766 2266 
Q 2766 2663 2505 2880 
Q 2244 3097 1772 3097 
Q 1472 3097 1187 3025 
Q 903 2953 641 2809 
L 641 3341 
Q 956 3463 1253 3523 
Q 1550 3584 1831 3584 
Q 2591 3584 2966 3190 
Q 3341 2797 3341 1997 
z
" transform="scale(0.015625)"/>
      </defs>
      <use xlink:href="#DejaVuSans-61"/>
     </g>
    </g>
   </g>
   <g id="text_3">
    <g clip-path="url(#pbb0822d5a0)">
     <!-- b -->
     <g transform="translate(80.209766 47.496571) scale(0.125 -0.125)">
      <defs>
       <path id="DejaVuSans-62" d="M 3116 1747 
Q 3116 2381 2855 2742 
Q 2594 3103 2138 3103 
Q 1681 3103 1420 2742 
Q 1159 2381 1159 1747 
Q 1159 1113 1420 752 
Q 1681 391 2138 391 
Q 2594 391 2855 752 
Q 3116 1113 3116 1747 
z
M 1159 2969 
Q 1341 3281 1617 3432 
Q 1894 3584 2278 3584 
Q 2916 3584 3314 3078 
Q 3713 2572 3713 1747 
Q 3713 922 3314 415 
Q 2916 -91 2278 -91 
Q 1894 -91 1617 61 
Q 1341 213 1159 525 
L 1159 0 
L 581 0 
L 581 4863 
L 1159 4863 
L 1159 2969 
z
" transform="scale(0.015625)"/>
      </defs>
      <use xlink:href="#DejaVuSans-62"/>
     </g>
    </g>
   </g>
   <g id="text_4">
    <g clip-path="url(#pbb0822d5a0)">
     <!-- c -->
     <g transform="translate(81.272266 62.778883) scale(0.125 -0.125)">
      <defs>
       <path id="DejaVuSans-63" d="M 3122 3366 
L 3122 2828 
Q 2878 2963 2633 3030 
Q 2388 3097 2138 3097 
Q 1578 3097 1268 2742 
Q 959 2388 959 1747 
Q 959 1106 1268 751 
Q 1578 397 2138 397 
Q 2388 397 2633 464 
Q 2878 531 3122 666 
L 3122 134 
Q 2881 22 2623 -34 
Q 2366 -91 2075 -91 
Q 1284 -91 818 406 
Q 353 903 353 1747 
Q 353 2603 823 3093 
Q 1294 3584 2113 3584 
Q 2378 3584 2631 3529 
Q 2884 3475 3122 3366 
z
" transform="scale(0.015625)"/>
      </defs>
      <use xlink:href="#DejaVuSans-63"/>
     </g>
    </g>
   </g>
   <g id="text_5">
    <g clip-path="url(#pbb0822d5a0)">
     <!-- a -->
     <g transform="translate(140.086174 97.928201) scale(0.125 -0.125)">
      <use xlink:href="#DejaVuSans-61"/>
     </g>
    </g>
   </g>
   <g id="text_6">
    <g clip-path="url(#pbb0822d5a0)">
     <!-- b -->
     <g transform="translate(80.209766 114.738745) scale(0.125 -0.125)">
      <use xlink:href="#DejaVuSans-62"/>
     </g>
    </g>
   </g>
   <g id="text_7">
    <g clip-path="url(#pbb0822d5a0)">
     <!-- c -->
     <g transform="translate(15.558324 139.190444) scale(0.125 -0.125)">
      <use xlink:href="#DejaVuSans-63"/>
     </g>
    </g>
   </g>
  </g>
 </g>
 <defs>
  <clipPath id="pbb0822d5a0">
   <rect x="7.2" y="7.2" width="315.375982" height="146.88"/>
  </clipPath>
 </defs>
</svg>
