<?xml version="1.0" encoding="utf-8" standalone="no"?>
<!DOCTYPE svg PUBLIC "-//W3C//DTD SVG 1.1//EN"
  "http://www.w3.org/Graphics/SVG/1.1/DTD/svg11.dtd">
<svg xmlns:xlink="http://www.w3.org/1999/xlink" width="329.781959pt" height="163.728pt" viewBox="0 0 329.781959 163.728" xmlns="http://www.w3.org/2000/svg" version="1.1">
 <metadata>
  <rdf:RDF xmlns:dc="http://purl.org/dc/elements/1.1/" xmlns:cc="http://creativecommons.org/ns#" xmlns:rdf="http://www.w3.org/1999/02/22-rdf-syntax-ns#">
   <cc:Work>
    <dc:type rdf:resource="http://purl.org/dc/dcmitype/StillImage"/>
    <dc:date>2022-11-07T10:30:19.623155</dc:date>
    <dc:format>image/svg+xml</dc:format>
    <dc:creator>
     <cc:Agent>
      <dc:title>Matplotlib v3.6.0, https://matplotlib.org/</dc:title>
     </cc:Agent>
    </dc:creator>
   </cc:Work>
  </rdf:RDF>
 </metadata>
 <defs>
  <style type="text/css">*{stroke-linejoin: round; stroke-linecap: butt}</style>
 </defs>
 <g id="figure_1">
  <g id="patch_1">
   <path d="M 0 163.728 
L 329.781959 163.728 
L 329.781959 0 
L 0 0 
L 0 163.728 
z
" style="fill: none"/>
  </g>
  <g id="axes_1">
   <g id="patch_2">
    <path d="M 262.979812 83.018685 
C 263.95253 83.018685 264.885539 82.63222 265.573355 81.944405 
C 266.261171 81.256589 266.647636 80.323579 266.647636 79.350861 
C 266.647636 78.378143 266.261171 77.445133 265.573355 76.757318 
C 264.885539 76.069502 263.95253 75.683037 262.979812 75.683037 
C 262.007093 75.683037 261.074084 76.069502 260.386268 76.757318 
C 259.698452 77.445133 259.311987 78.378143 259.311987 79.350861 
C 259.311987 80.323579 259.698452 81.256589 260.386268 81.944405 
C 261.074084 82.63222 262.007093 83.018685 262.979812 83.018685 
L 262.979812 83.018685 
z
" clip-path="url(#p218479d188)" style="fill: none; stroke: #000000; stroke-width: 2; stroke-linejoin: miter"/>
   </g>
   <g id="patch_3">
    <path d="M 201.849405 40.991531 
C 202.822123 40.991531 203.755132 40.605065 204.442948 39.91725 
C 205.130764 39.229434 205.517229 38.296425 205.517229 37.323706 
C 205.517229 36.350988 205.130764 35.417978 204.442948 34.730163 
C 203.755132 34.042347 202.822123 33.655882 201.849405 33.655882 
C 200.876686 33.655882 199.943677 34.042347 199.255861 34.730163 
C 198.568045 35.417978 198.18158 36.350988 198.18158 37.323706 
C 198.18158 38.296425 198.568045 39.229434 199.255861 39.91725 
C 199.943677 40.605065 200.876686 40.991531 201.849405 40.991531 
L 201.849405 40.991531 
z
" clip-path="url(#p218479d188)" style="fill: none; stroke: #000000; stroke-width: 2; stroke-linejoin: miter"/>
   </g>
   <g id="patch_4">
    <path d="M 201.849405 125.04584 
C 202.822123 125.04584 203.755132 124.659375 204.442948 123.971559 
C 205.130764 123.283744 205.517229 122.350734 205.517229 121.378016 
C 205.517229 120.405298 205.130764 119.472288 204.442948 118.784472 
C 203.755132 118.096657 202.822123 117.710191 201.849405 117.710191 
C 200.876686 117.710191 199.943677 118.096657 199.255861 118.784472 
C 198.568045 119.472288 198.18158 120.405298 198.18158 121.378016 
C 198.18158 122.350734 198.568045 123.283744 199.255861 123.971559 
C 199.943677 124.659375 200.876686 125.04584 201.849405 125.04584 
L 201.849405 125.04584 
z
" clip-path="url(#p218479d188)" style="fill: none; stroke: #000000; stroke-width: 2; stroke-linejoin: miter"/>
   </g>
   <g id="patch_5">
    <path d="M 65.987075 141.856702 
C 66.959793 141.856702 67.892803 141.470237 68.580618 140.782421 
C 69.268434 140.094606 69.654899 139.161596 69.654899 138.188878 
C 69.654899 137.216159 69.268434 136.28315 68.580618 135.595334 
C 67.892803 134.907519 66.959793 134.521053 65.987075 134.521053 
C 65.014356 134.521053 64.081347 134.907519 63.393531 135.595334 
C 62.705716 136.28315 62.31925 137.216159 62.31925 138.188878 
C 62.31925 139.161596 62.705716 140.094606 63.393531 140.782421 
C 64.081347 141.470237 65.014356 141.856702 65.987075 141.856702 
L 65.987075 141.856702 
z
" clip-path="url(#p218479d188)" style="fill: none; stroke: #000000; stroke-width: 2; stroke-linejoin: miter"/>
   </g>
   <g id="line2d_1">
    <path d="M 244.029385 94.633463 
L 245.008545 94.602063 
L 245.983681 94.507993 
L 246.950787 94.351639 
L 247.905887 94.133643 
L 248.845059 93.854902 
L 249.764442 93.516561 
L 250.660258 93.120009 
L 251.528826 92.666878 
L 252.366578 92.159028 
L 253.170071 91.598546 
L 253.936002 90.987736 
L 254.661225 90.329108 
L 255.342759 89.625368 
L 255.977805 88.879407 
L 256.563751 88.094292 
L 257.098192 87.273248 
L 257.57893 86.41965 
L 258.003989 85.537004 
L 258.371625 84.628938 
L 258.680325 83.699183 
L 258.928821 82.75156 
L 259.116092 81.789963 
L 259.241368 80.818343 
L 259.304135 79.840693 
L 259.304135 78.86103 
L 259.241368 77.883379 
L 259.116092 76.911759 
L 258.928821 75.950162 
L 258.680325 75.002539 
L 258.371625 74.072784 
L 258.003989 73.164718 
L 257.57893 72.282073 
L 257.098192 71.428474 
L 256.563751 70.60743 
L 255.977805 69.822315 
L 255.342759 69.076354 
L 254.661225 68.372614 
L 253.936002 67.713986 
L 253.170071 67.103176 
L 252.366578 66.542694 
L 251.528826 66.034844 
L 250.660258 65.581713 
L 249.764442 65.185161 
L 248.845059 64.84682 
L 247.905887 64.568079 
L 246.950787 64.350083 
L 245.983681 64.193729 
L 245.008545 64.099659 
L 244.029385 64.068259 
L 244.029385 64.068259 
L 224.162003 64.068259 
L 224.162003 79.350861 
L 224.162003 94.633463 
L 244.029385 94.633463 
" clip-path="url(#p218479d188)" style="fill: none; stroke: #000000; stroke-width: 2; stroke-linecap: round"/>
   </g>
   <g id="line2d_2">
    <path d="M 213.464182 86.992162 
L 224.162003 86.992162 
" clip-path="url(#p218479d188)" style="fill: none; stroke: #000000; stroke-width: 2; stroke-linecap: round"/>
   </g>
   <g id="line2d_3">
    <path d="M 213.464182 71.70956 
L 224.162003 71.70956 
" clip-path="url(#p218479d188)" style="fill: none; stroke: #000000; stroke-width: 2; stroke-linecap: round"/>
   </g>
   <g id="line2d_4">
    <path d="M 266.647636 79.350861 
L 270.009809 79.350861 
" clip-path="url(#p218479d188)" style="fill: none; stroke: #000000; stroke-width: 2; stroke-linecap: round"/>
   </g>
   <g id="line2d_5">
    <path d="M 182.898978 52.606308 
L 183.878138 52.574908 
L 184.853274 52.480838 
L 185.82038 52.324484 
L 186.77548 52.106488 
L 187.714652 51.827747 
L 188.634035 51.489406 
L 189.529851 51.092855 
L 190.398419 50.639723 
L 191.236171 50.131873 
L 192.039663 49.571391 
L 192.805595 48.960582 
L 193.530818 48.301953 
L 194.212352 47.598213 
L 194.847398 46.852253 
L 195.433344 46.067137 
L 195.967785 45.246093 
L 196.448523 44.392495 
L 196.873582 43.509849 
L 197.241218 42.601783 
L 197.549917 41.672028 
L 197.798413 40.724405 
L 197.985684 39.762808 
L 198.110961 38.791188 
L 198.173728 37.813538 
L 198.173728 36.833875 
L 198.110961 35.856224 
L 197.985684 34.884605 
L 197.798413 33.923007 
L 197.549917 32.975384 
L 197.241218 32.04563 
L 196.873582 31.137564 
L 196.448523 30.254918 
L 195.967785 29.401319 
L 195.433344 28.580275 
L 194.847398 27.79516 
L 194.212352 27.049199 
L 193.530818 26.345459 
L 192.805595 25.686831 
L 192.039663 25.076021 
L 191.236171 24.515539 
L 190.398419 24.007689 
L 189.529851 23.554558 
L 188.634035 23.158006 
L 187.714652 22.819665 
L 186.77548 22.540924 
L 185.82038 22.322928 
L 184.853274 22.166574 
L 183.878138 22.072504 
L 182.898978 22.041104 
L 182.898978 22.041104 
L 163.031596 22.041104 
L 163.031596 37.323706 
L 163.031596 52.606308 
L 182.898978 52.606308 
" clip-path="url(#p218479d188)" style="fill: none; stroke: #000000; stroke-width: 2; stroke-linecap: round"/>
   </g>
   <g id="line2d_6">
    <path d="M 152.333775 47.410223 
L 163.031596 47.410223 
" clip-path="url(#p218479d188)" style="fill: none; stroke: #000000; stroke-width: 2; stroke-linecap: round"/>
   </g>
   <g id="line2d_7">
    <path d="M 152.333775 37.323706 
L 163.031596 37.323706 
" clip-path="url(#p218479d188)" style="fill: none; stroke: #000000; stroke-width: 2; stroke-linecap: round"/>
   </g>
   <g id="line2d_8">
    <path d="M 152.333775 27.237189 
L 163.031596 27.237189 
" clip-path="url(#p218479d188)" style="fill: none; stroke: #000000; stroke-width: 2; stroke-linecap: round"/>
   </g>
   <g id="line2d_9">
    <path d="M 205.517229 37.323706 
L 208.879401 37.323706 
" clip-path="url(#p218479d188)" style="fill: none; stroke: #000000; stroke-width: 2; stroke-linecap: round"/>
   </g>
   <g id="line2d_10">
    <path d="M 213.464182 71.70956 
L 208.879401 71.70956 
L 208.879401 37.323706 
" clip-path="url(#p218479d188)" style="fill: none; stroke: #000000; stroke-width: 2; stroke-linecap: round"/>
   </g>
   <g id="line2d_11">
    <path d="M 182.898978 136.660618 
L 183.878138 136.629218 
L 184.853274 136.535148 
L 185.82038 136.378794 
L 186.77548 136.160798 
L 187.714652 135.882057 
L 188.634035 135.543716 
L 189.529851 135.147164 
L 190.398419 134.694033 
L 191.236171 134.186183 
L 192.039663 133.625701 
L 192.805595 133.014891 
L 193.530818 132.356263 
L 194.212352 131.652523 
L 194.847398 130.906562 
L 195.433344 130.121447 
L 195.967785 129.300403 
L 196.448523 128.446804 
L 196.873582 127.564159 
L 197.241218 126.656093 
L 197.549917 125.726338 
L 197.798413 124.778715 
L 197.985684 123.817118 
L 198.110961 122.845498 
L 198.173728 121.867847 
L 198.173728 120.888184 
L 198.110961 119.910534 
L 197.985684 118.938914 
L 197.798413 117.977317 
L 197.549917 117.029694 
L 197.241218 116.099939 
L 196.873582 115.191873 
L 196.448523 114.309227 
L 195.967785 113.455629 
L 195.433344 112.634585 
L 194.847398 111.84947 
L 194.212352 111.103509 
L 193.530818 110.399769 
L 192.805595 109.741141 
L 192.039663 109.130331 
L 191.236171 108.569849 
L 190.398419 108.061999 
L 189.529851 107.608868 
L 188.634035 107.212316 
L 187.714652 106.873975 
L 186.77548 106.595234 
L 185.82038 106.377238 
L 184.853274 106.220884 
L 183.878138 106.126814 
L 182.898978 106.095414 
L 182.898978 106.095414 
L 163.031596 106.095414 
L 163.031596 121.378016 
L 163.031596 136.660618 
L 182.898978 136.660618 
" clip-path="url(#p218479d188)" style="fill: none; stroke: #000000; stroke-width: 2; stroke-linecap: round"/>
   </g>
   <g id="line2d_12">
    <path d="M 152.333775 129.019317 
L 163.031596 129.019317 
" clip-path="url(#p218479d188)" style="fill: none; stroke: #000000; stroke-width: 2; stroke-linecap: round"/>
   </g>
   <g id="line2d_13">
    <path d="M 152.333775 113.736715 
L 163.031596 113.736715 
" clip-path="url(#p218479d188)" style="fill: none; stroke: #000000; stroke-width: 2; stroke-linecap: round"/>
   </g>
   <g id="line2d_14">
    <path d="M 205.517229 121.378016 
L 208.879401 121.378016 
" clip-path="url(#p218479d188)" style="fill: none; stroke: #000000; stroke-width: 2; stroke-linecap: round"/>
   </g>
   <g id="line2d_15">
    <path d="M 121.768571 119.849756 
L 122.747731 119.818356 
L 123.722867 119.724286 
L 124.689972 119.567932 
L 125.645073 119.349936 
L 126.584245 119.071195 
L 127.503627 118.732854 
L 128.399444 118.336302 
L 129.268012 117.883171 
L 130.105764 117.375321 
L 130.909256 116.814839 
L 131.675188 116.204029 
L 132.400411 115.545401 
L 133.081945 114.841661 
L 133.71699 114.0957 
L 134.302937 113.310585 
L 134.837378 112.489541 
L 135.318115 111.635942 
L 135.743175 110.753297 
L 136.11081 109.845231 
L 136.41951 108.915476 
L 136.668006 107.967853 
L 136.855277 107.006256 
L 136.980554 106.034636 
L 137.043321 105.056985 
L 137.043321 104.077322 
L 136.980554 103.099672 
L 136.855277 102.128052 
L 136.668006 101.166455 
L 136.41951 100.218832 
L 136.11081 99.289077 
L 135.743175 98.381011 
L 135.318115 97.498365 
L 134.837378 96.644767 
L 134.302937 95.823723 
L 133.71699 95.038608 
L 133.081945 94.292647 
L 132.400411 93.588907 
L 131.675188 92.930279 
L 130.909256 92.319469 
L 130.105764 91.758987 
L 129.268012 91.251137 
L 128.399444 90.798006 
L 127.503627 90.401454 
L 126.584245 90.063113 
L 125.645073 89.784372 
L 124.689972 89.566376 
L 123.722867 89.410022 
L 122.747731 89.315952 
L 121.768571 89.284552 
L 121.768571 89.284552 
L 101.901189 89.284552 
L 101.901189 104.567154 
L 101.901189 119.849756 
L 121.768571 119.849756 
" clip-path="url(#p218479d188)" style="fill: none; stroke: #000000; stroke-width: 2; stroke-linecap: round"/>
   </g>
   <g id="line2d_16">
    <path d="M 91.203368 114.653671 
L 101.901189 114.653671 
" clip-path="url(#p218479d188)" style="fill: none; stroke: #000000; stroke-width: 2; stroke-linecap: round"/>
   </g>
   <g id="line2d_17">
    <path d="M 91.203368 104.567154 
L 101.901189 104.567154 
" clip-path="url(#p218479d188)" style="fill: none; stroke: #000000; stroke-width: 2; stroke-linecap: round"/>
   </g>
   <g id="line2d_18">
    <path d="M 91.203368 94.480637 
L 101.901189 94.480637 
" clip-path="url(#p218479d188)" style="fill: none; stroke: #000000; stroke-width: 2; stroke-linecap: round"/>
   </g>
   <g id="line2d_19">
    <path d="M 137.051173 104.567154 
L 147.748994 104.567154 
" clip-path="url(#p218479d188)" style="fill: none; stroke: #000000; stroke-width: 2; stroke-linecap: round"/>
   </g>
   <g id="line2d_20">
    <path d="M 25.48818 138.188878 
L 42.451868 138.188878 
M 69.654899 138.188878 
L 86.618587 138.188878 
" clip-path="url(#p218479d188)" style="fill: none; stroke: #000000; stroke-width: 2; stroke-linecap: round"/>
   </g>
   <g id="line2d_21">
    <path d="M 42.451868 122.906276 
L 62.31925 138.188878 
L 42.451868 153.47148 
L 42.451868 122.906276 
" clip-path="url(#p218479d188)" style="fill: none; stroke: #000000; stroke-width: 2; stroke-linecap: round"/>
   </g>
   <g id="line2d_22">
    <path d="M 91.203368 114.653671 
L 86.618587 114.653671 
L 86.618587 138.188878 
" clip-path="url(#p218479d188)" style="fill: none; stroke: #000000; stroke-width: 2; stroke-linecap: round"/>
   </g>
   <g id="line2d_23">
    <path d="M 152.333775 113.736715 
L 147.748994 113.736715 
L 147.748994 104.567154 
" clip-path="url(#p218479d188)" style="fill: none; stroke: #000000; stroke-width: 2; stroke-linecap: round"/>
   </g>
   <g id="line2d_24">
    <path d="M 213.464182 86.992162 
L 208.879401 86.992162 
L 208.879401 121.378016 
" clip-path="url(#p218479d188)" style="fill: none; stroke: #000000; stroke-width: 2; stroke-linecap: round"/>
   </g>
   <g id="text_1">
    <g clip-path="url(#p218479d188)">
     <!-- output -->
     <g transform="translate(273.066329 82.80008) scale(0.125 -0.125)">
      <defs>
       <path id="DejaVuSans-6f" d="M 1959 3097 
Q 1497 3097 1228 2736 
Q 959 2375 959 1747 
Q 959 1119 1226 758 
Q 1494 397 1959 397 
Q 2419 397 2687 759 
Q 2956 1122 2956 1747 
Q 2956 2369 2687 2733 
Q 2419 3097 1959 3097 
z
M 1959 3584 
Q 2709 3584 3137 3096 
Q 3566 2609 3566 1747 
Q 3566 888 3137 398 
Q 2709 -91 1959 -91 
Q 1206 -91 779 398 
Q 353 888 353 1747 
Q 353 2609 779 3096 
Q 1206 3584 1959 3584 
z
" transform="scale(0.015625)"/>
       <path id="DejaVuSans-75" d="M 544 1381 
L 544 3500 
L 1119 3500 
L 1119 1403 
Q 1119 906 1312 657 
Q 1506 409 1894 409 
Q 2359 409 2629 706 
Q 2900 1003 2900 1516 
L 2900 3500 
L 3475 3500 
L 3475 0 
L 2900 0 
L 2900 538 
Q 2691 219 2414 64 
Q 2138 -91 1772 -91 
Q 1169 -91 856 284 
Q 544 659 544 1381 
z
M 1991 3584 
L 1991 3584 
z
" transform="scale(0.015625)"/>
       <path id="DejaVuSans-74" d="M 1172 4494 
L 1172 3500 
L 2356 3500 
L 2356 3053 
L 1172 3053 
L 1172 1153 
Q 1172 725 1289 603 
Q 1406 481 1766 481 
L 2356 481 
L 2356 0 
L 1766 0 
Q 1100 0 847 248 
Q 594 497 594 1153 
L 594 3053 
L 172 3053 
L 172 3500 
L 594 3500 
L 594 4494 
L 1172 4494 
z
" transform="scale(0.015625)"/>
       <path id="DejaVuSans-70" d="M 1159 525 
L 1159 -1331 
L 581 -1331 
L 581 3500 
L 1159 3500 
L 1159 2969 
Q 1341 3281 1617 3432 
Q 1894 3584 2278 3584 
Q 2916 3584 3314 3078 
Q 3713 2572 3713 1747 
Q 3713 922 3314 415 
Q 2916 -91 2278 -91 
Q 1894 -91 1617 61 
Q 1341 213 1159 525 
z
M 3116 1747 
Q 3116 2381 2855 2742 
Q 2594 3103 2138 3103 
Q 1681 3103 1420 2742 
Q 1159 2381 1159 1747 
Q 1159 1113 1420 752 
Q 1681 391 2138 391 
Q 2594 391 2855 752 
Q 3116 1113 3116 1747 
z
" transform="scale(0.015625)"/>
      </defs>
      <use xlink:href="#DejaVuSans-6f"/>
      <use xlink:href="#DejaVuSans-75" x="61.181641"/>
      <use xlink:href="#DejaVuSans-74" x="124.560547"/>
      <use xlink:href="#DejaVuSans-70" x="163.769531"/>
      <use xlink:href="#DejaVuSans-75" x="227.246094"/>
      <use xlink:href="#DejaVuSans-74" x="290.625"/>
     </g>
    </g>
   </g>
   <g id="text_2">
    <g clip-path="url(#p218479d188)">
     <!-- a -->
     <g transform="translate(141.617098 30.686408) scale(0.125 -0.125)">
      <defs>
       <path id="DejaVuSans-61" d="M 2194 1759 
Q 1497 1759 1228 1600 
Q 959 1441 959 1056 
Q 959 750 1161 570 
Q 1363 391 1709 391 
Q 2188 391 2477 730 
Q 2766 1069 2766 1631 
L 2766 1759 
L 2194 1759 
z
M 3341 1997 
L 3341 0 
L 2766 0 
L 2766 531 
Q 2569 213 2275 61 
Q 1981 -91 1556 -91 
Q 1019 -91 701 211 
Q 384 513 384 1019 
Q 384 1609 779 1909 
Q 1175 2209 1959 2209 
L 2766 2209 
L 2766 2266 
Q 2766 2663 2505 2880 
Q 2244 3097 1772 3097 
Q 1472 3097 1187 3025 
Q 903 2953 641 2809 
L 641 3341 
Q 956 3463 1253 3523 
Q 1550 3584 1831 3584 
Q 2591 3584 2966 3190 
Q 3341 2797 3341 1997 
z
" transform="scale(0.015625)"/>
      </defs>
      <use xlink:href="#DejaVuSans-61"/>
     </g>
    </g>
   </g>
   <g id="text_3">
    <g clip-path="url(#p218479d188)">
     <!-- b -->
     <g transform="translate(141.341708 40.772925) scale(0.125 -0.125)">
      <defs>
       <path id="DejaVuSans-62" d="M 3116 1747 
Q 3116 2381 2855 2742 
Q 2594 3103 2138 3103 
Q 1681 3103 1420 2742 
Q 1159 2381 1159 1747 
Q 1159 1113 1420 752 
Q 1681 391 2138 391 
Q 2594 391 2855 752 
Q 3116 1113 3116 1747 
z
M 1159 2969 
Q 1341 3281 1617 3432 
Q 1894 3584 2278 3584 
Q 2916 3584 3314 3078 
Q 3713 2572 3713 1747 
Q 3713 922 3314 415 
Q 2916 -91 2278 -91 
Q 1894 -91 1617 61 
Q 1341 213 1159 525 
L 1159 0 
L 581 0 
L 581 4863 
L 1159 4863 
L 1159 2969 
z
" transform="scale(0.015625)"/>
      </defs>
      <use xlink:href="#DejaVuSans-62"/>
     </g>
    </g>
   </g>
   <g id="text_4">
    <g clip-path="url(#p218479d188)">
     <!-- c -->
     <g transform="translate(142.404208 50.859442) scale(0.125 -0.125)">
      <defs>
       <path id="DejaVuSans-63" d="M 3122 3366 
L 3122 2828 
Q 2878 2963 2633 3030 
Q 2388 3097 2138 3097 
Q 1578 3097 1268 2742 
Q 959 2388 959 1747 
Q 959 1106 1268 751 
Q 1578 397 2138 397 
Q 2388 397 2633 464 
Q 2878 531 3122 666 
L 3122 134 
Q 2881 22 2623 -34 
Q 2366 -91 2075 -91 
Q 1284 -91 818 406 
Q 353 903 353 1747 
Q 353 2603 823 3093 
Q 1294 3584 2113 3584 
Q 2378 3584 2631 3529 
Q 2884 3475 3122 3366 
z
" transform="scale(0.015625)"/>
      </defs>
      <use xlink:href="#DejaVuSans-63"/>
     </g>
    </g>
   </g>
   <g id="text_5">
    <g clip-path="url(#p218479d188)">
     <!-- TRUE -->
     <g transform="translate(115.910067 132.468536) scale(0.125 -0.125)">
      <defs>
       <path id="DejaVuSans-54" d="M -19 4666 
L 3928 4666 
L 3928 4134 
L 2272 4134 
L 2272 0 
L 1638 0 
L 1638 4134 
L -19 4134 
L -19 4666 
z
" transform="scale(0.015625)"/>
       <path id="DejaVuSans-52" d="M 2841 2188 
Q 3044 2119 3236 1894 
Q 3428 1669 3622 1275 
L 4263 0 
L 3584 0 
L 2988 1197 
Q 2756 1666 2539 1819 
Q 2322 1972 1947 1972 
L 1259 1972 
L 1259 0 
L 628 0 
L 628 4666 
L 2053 4666 
Q 2853 4666 3247 4331 
Q 3641 3997 3641 3322 
Q 3641 2881 3436 2590 
Q 3231 2300 2841 2188 
z
M 1259 4147 
L 1259 2491 
L 2053 2491 
Q 2509 2491 2742 2702 
Q 2975 2913 2975 3322 
Q 2975 3731 2742 3939 
Q 2509 4147 2053 4147 
L 1259 4147 
z
" transform="scale(0.015625)"/>
       <path id="DejaVuSans-55" d="M 556 4666 
L 1191 4666 
L 1191 1831 
Q 1191 1081 1462 751 
Q 1734 422 2344 422 
Q 2950 422 3222 751 
Q 3494 1081 3494 1831 
L 3494 4666 
L 4128 4666 
L 4128 1753 
Q 4128 841 3676 375 
Q 3225 -91 2344 -91 
Q 1459 -91 1007 375 
Q 556 841 556 1753 
L 556 4666 
z
" transform="scale(0.015625)"/>
       <path id="DejaVuSans-45" d="M 628 4666 
L 3578 4666 
L 3578 4134 
L 1259 4134 
L 1259 2753 
L 3481 2753 
L 3481 2222 
L 1259 2222 
L 1259 531 
L 3634 531 
L 3634 0 
L 628 0 
L 628 4666 
z
" transform="scale(0.015625)"/>
      </defs>
      <use xlink:href="#DejaVuSans-54"/>
      <use xlink:href="#DejaVuSans-52" x="61.083984"/>
      <use xlink:href="#DejaVuSans-55" x="130.566406"/>
      <use xlink:href="#DejaVuSans-45" x="203.759766"/>
     </g>
    </g>
   </g>
   <g id="text_6">
    <g clip-path="url(#p218479d188)">
     <!-- a -->
     <g transform="translate(80.486691 97.929856) scale(0.125 -0.125)">
      <use xlink:href="#DejaVuSans-61"/>
     </g>
    </g>
   </g>
   <g id="text_7">
    <g clip-path="url(#p218479d188)">
     <!-- b -->
     <g transform="translate(80.211301 108.016373) scale(0.125 -0.125)">
      <use xlink:href="#DejaVuSans-62"/>
     </g>
    </g>
   </g>
   <g id="text_8">
    <g clip-path="url(#p218479d188)">
     <!-- c -->
     <g transform="translate(15.558613 141.638097) scale(0.125 -0.125)">
      <use xlink:href="#DejaVuSans-63"/>
     </g>
    </g>
   </g>
  </g>
 </g>
 <defs>
  <clipPath id="p218479d188">
   <rect x="7.2" y="7.2" width="315.381959" height="149.328"/>
  </clipPath>
 </defs>
</svg>
