<?xml version="1.0" encoding="utf-8" standalone="no"?>
<!DOCTYPE svg PUBLIC "-//W3C//DTD SVG 1.1//EN"
  "http://www.w3.org/Graphics/SVG/1.1/DTD/svg11.dtd">
<svg xmlns:xlink="http://www.w3.org/1999/xlink" width="391.699727pt" height="375.48pt" viewBox="0 0 391.699727 375.48" xmlns="http://www.w3.org/2000/svg" version="1.1">
 <metadata>
  <rdf:RDF xmlns:dc="http://purl.org/dc/elements/1.1/" xmlns:cc="http://creativecommons.org/ns#" xmlns:rdf="http://www.w3.org/1999/02/22-rdf-syntax-ns#">
   <cc:Work>
    <dc:type rdf:resource="http://purl.org/dc/dcmitype/StillImage"/>
    <dc:date>2022-11-07T11:56:55.589452</dc:date>
    <dc:format>image/svg+xml</dc:format>
    <dc:creator>
     <cc:Agent>
      <dc:title>Matplotlib v3.6.0, https://matplotlib.org/</dc:title>
     </cc:Agent>
    </dc:creator>
   </cc:Work>
  </rdf:RDF>
 </metadata>
 <defs>
  <style type="text/css">*{stroke-linejoin: round; stroke-linecap: butt}</style>
 </defs>
 <g id="figure_1">
  <g id="patch_1">
   <path d="M 0 375.48 
L 391.699727 375.48 
L 391.699727 0 
L 0 0 
L 0 375.48 
z
" style="fill: none"/>
  </g>
  <g id="axes_1">
   <g id="patch_2">
    <path d="M 127.854389 30.909675 
C 128.827299 30.909675 129.760492 30.523133 130.448443 29.835182 
C 131.136394 29.147231 131.522935 28.214039 131.522935 27.241129 
C 131.522935 26.268219 131.136394 25.335026 130.448443 24.647075 
C 129.760492 23.959124 128.827299 23.572583 127.854389 23.572583 
C 126.88148 23.572583 125.948287 23.959124 125.260336 24.647075 
C 124.572385 25.335026 124.185844 26.268219 124.185844 27.241129 
C 124.185844 28.214039 124.572385 29.147231 125.260336 29.835182 
C 125.948287 30.523133 126.88148 30.909675 127.854389 30.909675 
L 127.854389 30.909675 
z
" clip-path="url(#p0fea711b78)" style="fill: none; stroke: #000000; stroke-width: 2; stroke-linejoin: miter"/>
   </g>
   <g id="patch_3">
    <path d="M 66.711962 64.538009 
C 67.684872 64.538009 68.618065 64.151468 69.306016 63.463517 
C 69.993967 62.775566 70.380508 61.842373 70.380508 60.869464 
C 70.380508 59.896554 69.993967 58.963361 69.306016 58.27541 
C 68.618065 57.587459 67.684872 57.200918 66.711962 57.200918 
C 65.739053 57.200918 64.80586 57.587459 64.117909 58.27541 
C 63.429958 58.963361 63.043417 59.896554 63.043417 60.869464 
C 63.043417 61.842373 63.429958 62.775566 64.117909 63.463517 
C 64.80586 64.151468 65.739053 64.538009 66.711962 64.538009 
L 66.711962 64.538009 
z
" clip-path="url(#p0fea711b78)" style="fill: none; stroke: #000000; stroke-width: 2; stroke-linejoin: miter"/>
   </g>
   <g id="patch_4">
    <path d="M 127.854389 131.794679 
C 128.827299 131.794679 129.760492 131.408138 130.448443 130.720187 
C 131.136394 130.032236 131.522935 129.099043 131.522935 128.126134 
C 131.522935 127.153224 131.136394 126.220031 130.448443 125.53208 
C 129.760492 124.844129 128.827299 124.457588 127.854389 124.457588 
C 126.88148 124.457588 125.948287 124.844129 125.260336 125.53208 
C 124.572385 126.220031 124.185844 127.153224 124.185844 128.126134 
C 124.185844 129.099043 124.572385 130.032236 125.260336 130.720187 
C 125.948287 131.408138 126.88148 131.794679 127.854389 131.794679 
L 127.854389 131.794679 
z
" clip-path="url(#p0fea711b78)" style="fill: none; stroke: #000000; stroke-width: 2; stroke-linejoin: miter"/>
   </g>
   <g id="patch_5">
    <path d="M 66.711962 165.423014 
C 67.684872 165.423014 68.618065 165.036473 69.306016 164.348522 
C 69.993967 163.660571 70.380508 162.727378 70.380508 161.754468 
C 70.380508 160.781559 69.993967 159.848366 69.306016 159.160415 
C 68.618065 158.472464 67.684872 158.085923 66.711962 158.085923 
C 65.739053 158.085923 64.80586 158.472464 64.117909 159.160415 
C 63.429958 159.848366 63.043417 160.781559 63.043417 161.754468 
C 63.043417 162.727378 63.429958 163.660571 64.117909 164.348522 
C 64.80586 165.036473 65.739053 165.423014 66.711962 165.423014 
L 66.711962 165.423014 
z
" clip-path="url(#p0fea711b78)" style="fill: none; stroke: #000000; stroke-width: 2; stroke-linejoin: miter"/>
   </g>
   <g id="patch_6">
    <path d="M 127.854389 232.679684 
C 128.827299 232.679684 129.760492 232.293143 130.448443 231.605192 
C 131.136394 230.917241 131.522935 229.984048 131.522935 229.011138 
C 131.522935 228.038229 131.136394 227.105036 130.448443 226.417085 
C 129.760492 225.729134 128.827299 225.342593 127.854389 225.342593 
C 126.88148 225.342593 125.948287 225.729134 125.260336 226.417085 
C 124.572385 227.105036 124.185844 228.038229 124.185844 229.011138 
C 124.185844 229.984048 124.572385 230.917241 125.260336 231.605192 
C 125.948287 232.293143 126.88148 232.679684 127.854389 232.679684 
L 127.854389 232.679684 
z
" clip-path="url(#p0fea711b78)" style="fill: none; stroke: #000000; stroke-width: 2; stroke-linejoin: miter"/>
   </g>
   <g id="patch_7">
    <path d="M 66.711962 266.308019 
C 67.684872 266.308019 68.618065 265.921478 69.306016 265.233527 
C 69.993967 264.545576 70.380508 263.612383 70.380508 262.639473 
C 70.380508 261.666564 69.993967 260.733371 69.306016 260.04542 
C 68.618065 259.357469 67.684872 258.970928 66.711962 258.970928 
C 65.739053 258.970928 64.80586 259.357469 64.117909 260.04542 
C 63.429958 260.733371 63.043417 261.666564 63.043417 262.639473 
C 63.043417 263.612383 63.429958 264.545576 64.117909 265.233527 
C 64.80586 265.921478 65.739053 266.308019 66.711962 266.308019 
L 66.711962 266.308019 
z
" clip-path="url(#p0fea711b78)" style="fill: none; stroke: #000000; stroke-width: 2; stroke-linejoin: miter"/>
   </g>
   <g id="line2d_1">
    <path d="M 284.531859 218.769782 
L 301.564392 218.669957 
L 303.311319 218.370484 
L 305.058245 217.871362 
L 306.805172 217.172592 
L 308.552098 216.274172 
L 310.735756 214.870392 
L 312.919414 213.154661 
L 315.103072 211.126978 
L 317.286731 208.787345 
L 319.470389 206.13576 
L 321.217315 203.789887 
L 321.217315 203.789887 
L 318.596925 200.345946 
L 316.413267 197.819142 
L 314.229609 195.604289 
L 312.045951 193.701387 
L 309.862293 192.110436 
L 307.678635 190.831436 
L 305.931708 190.032841 
L 304.184782 189.433895 
L 302.437855 189.034597 
L 300.690929 188.834949 
L 299.817466 188.809992 
L 284.531859 188.809992 
L 284.531859 188.809992 
L 286.732986 191.25569 
L 288.127034 193.089962 
L 289.300968 194.924235 
L 290.25479 196.758508 
L 290.988499 198.592781 
L 291.502096 200.427054 
L 291.795579 202.261326 
L 291.86895 204.095599 
L 291.722208 205.929872 
L 291.355354 207.764145 
L 290.768386 209.598418 
L 289.961306 211.43269 
L 288.934114 213.266963 
L 287.686808 215.101236 
L 286.21939 216.935509 
L 284.531859 218.769782 
L 284.531859 218.769782 
" clip-path="url(#p0fea711b78)" style="fill: none; stroke: #000000; stroke-width: 2; stroke-linecap: round"/>
   </g>
   <g id="line2d_2">
    <path d="M 273.831934 211.43269 
L 289.961306 211.43269 
" clip-path="url(#p0fea711b78)" style="fill: none; stroke: #000000; stroke-width: 2; stroke-linecap: round"/>
   </g>
   <g id="line2d_3">
    <path d="M 273.831934 196.147084 
L 289.961306 196.147084 
" clip-path="url(#p0fea711b78)" style="fill: none; stroke: #000000; stroke-width: 2; stroke-linecap: round"/>
   </g>
   <g id="line2d_4">
    <path d="M 321.217315 203.789887 
L 331.91724 203.789887 
" clip-path="url(#p0fea711b78)" style="fill: none; stroke: #000000; stroke-width: 2; stroke-linecap: round"/>
   </g>
   <g id="line2d_5">
    <path d="M 223.389432 117.884777 
L 240.421965 117.784953 
L 242.168892 117.48548 
L 243.915818 116.986358 
L 245.662745 116.287587 
L 247.409671 115.389168 
L 249.593329 113.985388 
L 251.776987 112.269656 
L 253.960645 110.241974 
L 256.144303 107.90234 
L 258.327962 105.250755 
L 260.074888 102.904882 
L 260.074888 102.904882 
L 257.454498 99.460942 
L 255.27084 96.934137 
L 253.087182 94.719284 
L 250.903524 92.816382 
L 248.719866 91.225431 
L 246.536208 89.946431 
L 244.789281 89.147836 
L 243.042355 88.54889 
L 241.295428 88.149593 
L 239.548502 87.949944 
L 238.675039 87.924988 
L 223.389432 87.924988 
L 223.389432 87.924988 
L 225.590559 90.370685 
L 226.984607 92.204958 
L 228.158541 94.03923 
L 229.112363 95.873503 
L 229.846072 97.707776 
L 230.359668 99.542049 
L 230.653152 101.376322 
L 230.726523 103.210595 
L 230.579781 105.044867 
L 230.212927 106.87914 
L 229.625959 108.713413 
L 228.818879 110.547686 
L 227.791687 112.381959 
L 226.544381 114.216231 
L 225.076963 116.050504 
L 223.389432 117.884777 
L 223.389432 117.884777 
" clip-path="url(#p0fea711b78)" style="fill: none; stroke: #000000; stroke-width: 2; stroke-linecap: round"/>
   </g>
   <g id="line2d_6">
    <path d="M 212.689507 110.547686 
L 228.818879 110.547686 
" clip-path="url(#p0fea711b78)" style="fill: none; stroke: #000000; stroke-width: 2; stroke-linecap: round"/>
   </g>
   <g id="line2d_7">
    <path d="M 212.689507 95.262079 
L 228.818879 95.262079 
" clip-path="url(#p0fea711b78)" style="fill: none; stroke: #000000; stroke-width: 2; stroke-linecap: round"/>
   </g>
   <g id="line2d_8">
    <path d="M 260.074888 102.904882 
L 270.774813 102.904882 
" clip-path="url(#p0fea711b78)" style="fill: none; stroke: #000000; stroke-width: 2; stroke-linecap: round"/>
   </g>
   <g id="line2d_9">
    <path d="M 162.247005 67.442275 
L 179.279538 67.34245 
L 181.026464 67.042977 
L 182.773391 66.543855 
L 184.520317 65.845085 
L 186.267244 64.946665 
L 188.450902 63.542885 
L 190.63456 61.827154 
L 192.818218 59.799471 
L 195.001876 57.459838 
L 197.185534 54.808253 
L 198.932461 52.46238 
L 198.932461 52.46238 
L 196.312071 49.018439 
L 194.128413 46.491635 
L 191.944755 44.276782 
L 189.761097 42.37388 
L 187.577439 40.782929 
L 185.393781 39.503929 
L 183.646854 38.705334 
L 181.899928 38.106388 
L 180.153001 37.70709 
L 178.406075 37.507442 
L 177.532611 37.482485 
L 162.247005 37.482485 
L 162.247005 37.482485 
L 164.448132 39.928183 
L 165.842179 41.762455 
L 167.016114 43.596728 
L 167.969936 45.431001 
L 168.703645 47.265274 
L 169.217241 49.099547 
L 169.510725 50.933819 
L 169.584096 52.768092 
L 169.437354 54.602365 
L 169.0705 56.436638 
L 168.483532 58.270911 
L 167.676452 60.105183 
L 166.649259 61.939456 
L 165.401954 63.773729 
L 163.934536 65.608002 
L 162.247005 67.442275 
L 162.247005 67.442275 
" clip-path="url(#p0fea711b78)" style="fill: none; stroke: #000000; stroke-width: 2; stroke-linecap: round"/>
   </g>
   <g id="line2d_10">
    <path d="M 151.54708 60.105183 
L 167.676452 60.105183 
" clip-path="url(#p0fea711b78)" style="fill: none; stroke: #000000; stroke-width: 2; stroke-linecap: round"/>
   </g>
   <g id="line2d_11">
    <path d="M 151.54708 44.819577 
L 167.676452 44.819577 
" clip-path="url(#p0fea711b78)" style="fill: none; stroke: #000000; stroke-width: 2; stroke-linecap: round"/>
   </g>
   <g id="line2d_12">
    <path d="M 198.932461 52.46238 
L 209.632386 52.46238 
" clip-path="url(#p0fea711b78)" style="fill: none; stroke: #000000; stroke-width: 2; stroke-linecap: round"/>
   </g>
   <g id="line2d_13">
    <path d="M 87.347532 27.241129 
L 104.314555 27.241129 
M 131.522935 27.241129 
L 148.489959 27.241129 
" clip-path="url(#p0fea711b78)" style="fill: none; stroke: #000000; stroke-width: 2; stroke-linecap: round"/>
   </g>
   <g id="line2d_14">
    <path d="M 104.314555 11.955522 
L 124.185844 27.241129 
L 104.314555 42.526736 
L 104.314555 11.955522 
" clip-path="url(#p0fea711b78)" style="fill: none; stroke: #000000; stroke-width: 2; stroke-linecap: round"/>
   </g>
   <g id="line2d_15">
    <path d="M 151.54708 44.819577 
L 148.489959 44.819577 
L 148.489959 27.241129 
" clip-path="url(#p0fea711b78)" style="fill: none; stroke: #000000; stroke-width: 2; stroke-linecap: round"/>
   </g>
   <g id="line2d_16">
    <path d="M 122.504427 92.969238 
L 123.483779 92.937832 
L 124.459107 92.843743 
L 125.426403 92.687359 
L 126.381691 92.46932 
L 127.321047 92.190524 
L 128.240611 91.852116 
L 129.136603 91.455487 
L 130.005343 91.002266 
L 130.843259 90.494316 
L 131.646909 89.933725 
L 132.412991 89.322795 
L 133.138357 88.664037 
L 133.820025 87.960158 
L 134.455196 87.214051 
L 135.041258 86.428782 
L 135.575803 85.607576 
L 136.056635 84.75381 
L 136.481779 83.87099 
L 136.849486 82.962746 
L 137.158247 82.032808 
L 137.406792 81.084999 
L 137.5941 80.123212 
L 137.719401 79.151401 
L 137.78218 78.173559 
L 137.78218 77.193703 
L 137.719401 76.215861 
L 137.5941 75.24405 
L 137.406792 74.282264 
L 137.158247 73.334454 
L 136.849486 72.404517 
L 136.481779 71.496272 
L 136.056635 70.613453 
L 135.575803 69.759686 
L 135.041258 68.938481 
L 134.455196 68.153211 
L 133.820025 67.407104 
L 133.138357 66.703226 
L 132.412991 66.044468 
L 131.646909 65.433538 
L 130.843259 64.872946 
L 130.005343 64.364996 
L 129.136603 63.911775 
L 128.240611 63.515146 
L 127.321047 63.176738 
L 126.381691 62.897942 
L 125.426403 62.679904 
L 124.459107 62.523519 
L 123.483779 62.42943 
L 122.504427 62.398024 
L 122.504427 62.398024 
L 102.633138 62.398024 
L 102.633138 77.683631 
L 102.633138 92.969238 
L 122.504427 92.969238 
" clip-path="url(#p0fea711b78)" style="fill: none; stroke: #000000; stroke-width: 2; stroke-linecap: round"/>
   </g>
   <g id="line2d_17">
    <path d="M 91.933214 85.326435 
L 102.633138 85.326435 
" clip-path="url(#p0fea711b78)" style="fill: none; stroke: #000000; stroke-width: 2; stroke-linecap: round"/>
   </g>
   <g id="line2d_18">
    <path d="M 91.933214 70.040828 
L 102.633138 70.040828 
" clip-path="url(#p0fea711b78)" style="fill: none; stroke: #000000; stroke-width: 2; stroke-linecap: round"/>
   </g>
   <g id="line2d_19">
    <path d="M 137.790034 77.683631 
L 148.489959 77.683631 
" clip-path="url(#p0fea711b78)" style="fill: none; stroke: #000000; stroke-width: 2; stroke-linecap: round"/>
   </g>
   <g id="line2d_20">
    <path d="M 26.205104 60.869464 
L 43.172128 60.869464 
M 70.380508 60.869464 
L 87.347532 60.869464 
" clip-path="url(#p0fea711b78)" style="fill: none; stroke: #000000; stroke-width: 2; stroke-linecap: round"/>
   </g>
   <g id="line2d_21">
    <path d="M 43.172128 45.583857 
L 63.043417 60.869464 
L 43.172128 76.155071 
L 43.172128 45.583857 
" clip-path="url(#p0fea711b78)" style="fill: none; stroke: #000000; stroke-width: 2; stroke-linecap: round"/>
   </g>
   <g id="line2d_22">
    <path d="M 91.933214 70.040828 
L 87.347532 70.040828 
L 87.347532 60.869464 
" clip-path="url(#p0fea711b78)" style="fill: none; stroke: #000000; stroke-width: 2; stroke-linecap: round"/>
   </g>
   <g id="line2d_23">
    <path d="M 151.54708 60.105183 
L 148.489959 60.105183 
L 148.489959 77.683631 
" clip-path="url(#p0fea711b78)" style="fill: none; stroke: #000000; stroke-width: 2; stroke-linecap: round"/>
   </g>
   <g id="line2d_24">
    <path d="M 212.689507 95.262079 
L 209.632386 95.262079 
L 209.632386 52.46238 
" clip-path="url(#p0fea711b78)" style="fill: none; stroke: #000000; stroke-width: 2; stroke-linecap: round"/>
   </g>
   <g id="line2d_25">
    <path d="M 162.247005 168.327279 
L 179.279538 168.227455 
L 181.026464 167.927982 
L 182.773391 167.42886 
L 184.520317 166.730089 
L 186.267244 165.83167 
L 188.450902 164.42789 
L 190.63456 162.712159 
L 192.818218 160.684476 
L 195.001876 158.344842 
L 197.185534 155.693257 
L 198.932461 153.347385 
L 198.932461 153.347385 
L 196.312071 149.903444 
L 194.128413 147.37664 
L 191.944755 145.161786 
L 189.761097 143.258884 
L 187.577439 141.667933 
L 185.393781 140.388934 
L 183.646854 139.590339 
L 181.899928 138.991392 
L 180.153001 138.592095 
L 178.406075 138.392446 
L 177.532611 138.36749 
L 162.247005 138.36749 
L 162.247005 138.36749 
L 164.448132 140.813187 
L 165.842179 142.64746 
L 167.016114 144.481733 
L 167.969936 146.316006 
L 168.703645 148.150278 
L 169.217241 149.984551 
L 169.510725 151.818824 
L 169.584096 153.653097 
L 169.437354 155.48737 
L 169.0705 157.321643 
L 168.483532 159.155915 
L 167.676452 160.990188 
L 166.649259 162.824461 
L 165.401954 164.658734 
L 163.934536 166.493007 
L 162.247005 168.327279 
L 162.247005 168.327279 
" clip-path="url(#p0fea711b78)" style="fill: none; stroke: #000000; stroke-width: 2; stroke-linecap: round"/>
   </g>
   <g id="line2d_26">
    <path d="M 151.54708 160.990188 
L 167.676452 160.990188 
" clip-path="url(#p0fea711b78)" style="fill: none; stroke: #000000; stroke-width: 2; stroke-linecap: round"/>
   </g>
   <g id="line2d_27">
    <path d="M 151.54708 145.704581 
L 167.676452 145.704581 
" clip-path="url(#p0fea711b78)" style="fill: none; stroke: #000000; stroke-width: 2; stroke-linecap: round"/>
   </g>
   <g id="line2d_28">
    <path d="M 198.932461 153.347385 
L 209.632386 153.347385 
" clip-path="url(#p0fea711b78)" style="fill: none; stroke: #000000; stroke-width: 2; stroke-linecap: round"/>
   </g>
   <g id="line2d_29">
    <path d="M 87.347532 128.126134 
L 104.314555 128.126134 
M 131.522935 128.126134 
L 148.489959 128.126134 
" clip-path="url(#p0fea711b78)" style="fill: none; stroke: #000000; stroke-width: 2; stroke-linecap: round"/>
   </g>
   <g id="line2d_30">
    <path d="M 104.314555 112.840527 
L 124.185844 128.126134 
L 104.314555 143.41174 
L 104.314555 112.840527 
" clip-path="url(#p0fea711b78)" style="fill: none; stroke: #000000; stroke-width: 2; stroke-linecap: round"/>
   </g>
   <g id="line2d_31">
    <path d="M 151.54708 145.704581 
L 148.489959 145.704581 
L 148.489959 128.126134 
" clip-path="url(#p0fea711b78)" style="fill: none; stroke: #000000; stroke-width: 2; stroke-linecap: round"/>
   </g>
   <g id="line2d_32">
    <path d="M 122.504427 193.854243 
L 123.483779 193.822837 
L 124.459107 193.728748 
L 125.426403 193.572363 
L 126.381691 193.354325 
L 127.321047 193.075529 
L 128.240611 192.737121 
L 129.136603 192.340492 
L 130.005343 191.887271 
L 130.843259 191.379321 
L 131.646909 190.818729 
L 132.412991 190.207799 
L 133.138357 189.549042 
L 133.820025 188.845163 
L 134.455196 188.099056 
L 135.041258 187.313786 
L 135.575803 186.492581 
L 136.056635 185.638814 
L 136.481779 184.755995 
L 136.849486 183.84775 
L 137.158247 182.917813 
L 137.406792 181.970003 
L 137.5941 181.008217 
L 137.719401 180.036406 
L 137.78218 179.058564 
L 137.78218 178.078708 
L 137.719401 177.100866 
L 137.5941 176.129055 
L 137.406792 175.167268 
L 137.158247 174.219459 
L 136.849486 173.289522 
L 136.481779 172.381277 
L 136.056635 171.498458 
L 135.575803 170.644691 
L 135.041258 169.823486 
L 134.455196 169.038216 
L 133.820025 168.292109 
L 133.138357 167.58823 
L 132.412991 166.929472 
L 131.646909 166.318542 
L 130.843259 165.757951 
L 130.005343 165.250001 
L 129.136603 164.79678 
L 128.240611 164.400151 
L 127.321047 164.061743 
L 126.381691 163.782947 
L 125.426403 163.564909 
L 124.459107 163.408524 
L 123.483779 163.314435 
L 122.504427 163.283029 
L 122.504427 163.283029 
L 102.633138 163.283029 
L 102.633138 178.568636 
L 102.633138 193.854243 
L 122.504427 193.854243 
" clip-path="url(#p0fea711b78)" style="fill: none; stroke: #000000; stroke-width: 2; stroke-linecap: round"/>
   </g>
   <g id="line2d_33">
    <path d="M 91.933214 186.211439 
L 102.633138 186.211439 
" clip-path="url(#p0fea711b78)" style="fill: none; stroke: #000000; stroke-width: 2; stroke-linecap: round"/>
   </g>
   <g id="line2d_34">
    <path d="M 91.933214 170.925833 
L 102.633138 170.925833 
" clip-path="url(#p0fea711b78)" style="fill: none; stroke: #000000; stroke-width: 2; stroke-linecap: round"/>
   </g>
   <g id="line2d_35">
    <path d="M 137.790034 178.568636 
L 148.489959 178.568636 
" clip-path="url(#p0fea711b78)" style="fill: none; stroke: #000000; stroke-width: 2; stroke-linecap: round"/>
   </g>
   <g id="line2d_36">
    <path d="M 26.205104 161.754468 
L 43.172128 161.754468 
M 70.380508 161.754468 
L 87.347532 161.754468 
" clip-path="url(#p0fea711b78)" style="fill: none; stroke: #000000; stroke-width: 2; stroke-linecap: round"/>
   </g>
   <g id="line2d_37">
    <path d="M 43.172128 146.468862 
L 63.043417 161.754468 
L 43.172128 177.040075 
L 43.172128 146.468862 
" clip-path="url(#p0fea711b78)" style="fill: none; stroke: #000000; stroke-width: 2; stroke-linecap: round"/>
   </g>
   <g id="line2d_38">
    <path d="M 91.933214 170.925833 
L 87.347532 170.925833 
L 87.347532 161.754468 
" clip-path="url(#p0fea711b78)" style="fill: none; stroke: #000000; stroke-width: 2; stroke-linecap: round"/>
   </g>
   <g id="line2d_39">
    <path d="M 151.54708 160.990188 
L 148.489959 160.990188 
L 148.489959 178.568636 
" clip-path="url(#p0fea711b78)" style="fill: none; stroke: #000000; stroke-width: 2; stroke-linecap: round"/>
   </g>
   <g id="line2d_40">
    <path d="M 212.689507 110.547686 
L 209.632386 110.547686 
L 209.632386 153.347385 
" clip-path="url(#p0fea711b78)" style="fill: none; stroke: #000000; stroke-width: 2; stroke-linecap: round"/>
   </g>
   <g id="line2d_41">
    <path d="M 273.831934 196.147084 
L 270.774813 196.147084 
L 270.774813 102.904882 
" clip-path="url(#p0fea711b78)" style="fill: none; stroke: #000000; stroke-width: 2; stroke-linecap: round"/>
   </g>
   <g id="line2d_42">
    <path d="M 244.789281 319.960499 
L 245.768633 319.929093 
L 246.743961 319.835004 
L 247.711257 319.678619 
L 248.666546 319.460581 
L 249.605902 319.181785 
L 250.525465 318.843377 
L 251.421458 318.446748 
L 252.290197 317.993527 
L 253.128113 317.485577 
L 253.931764 316.924985 
L 254.697846 316.314055 
L 255.423211 315.655298 
L 256.10488 314.951419 
L 256.74005 314.205312 
L 257.326112 313.420042 
L 257.860657 312.598837 
L 258.34149 311.74507 
L 258.766633 310.862251 
L 259.134341 309.954006 
L 259.443101 309.024069 
L 259.691646 308.076259 
L 259.878954 307.114473 
L 260.004255 306.142662 
L 260.067035 305.16482 
L 260.067035 304.184964 
L 260.004255 303.207122 
L 259.878954 302.235311 
L 259.691646 301.273524 
L 259.443101 300.325715 
L 259.134341 299.395777 
L 258.766633 298.487533 
L 258.34149 297.604713 
L 257.860657 296.750947 
L 257.326112 295.929742 
L 256.74005 295.144472 
L 256.10488 294.398365 
L 255.423211 293.694486 
L 254.697846 293.035728 
L 253.931764 292.424798 
L 253.128113 291.864207 
L 252.290197 291.356257 
L 251.421458 290.903036 
L 250.525465 290.506407 
L 249.605902 290.167999 
L 248.666546 289.889203 
L 247.711257 289.671165 
L 246.743961 289.51478 
L 245.768633 289.420691 
L 244.789281 289.389285 
L 244.789281 289.389285 
L 224.917992 289.389285 
L 224.917992 304.674892 
L 224.917992 319.960499 
L 244.789281 319.960499 
" clip-path="url(#p0fea711b78)" style="fill: none; stroke: #000000; stroke-width: 2; stroke-linecap: round"/>
   </g>
   <g id="line2d_43">
    <path d="M 214.218068 312.317695 
L 224.917992 312.317695 
" clip-path="url(#p0fea711b78)" style="fill: none; stroke: #000000; stroke-width: 2; stroke-linecap: round"/>
   </g>
   <g id="line2d_44">
    <path d="M 214.218068 297.032088 
L 224.917992 297.032088 
" clip-path="url(#p0fea711b78)" style="fill: none; stroke: #000000; stroke-width: 2; stroke-linecap: round"/>
   </g>
   <g id="line2d_45">
    <path d="M 260.074888 304.674892 
L 270.774813 304.674892 
" clip-path="url(#p0fea711b78)" style="fill: none; stroke: #000000; stroke-width: 2; stroke-linecap: round"/>
   </g>
   <g id="line2d_46">
    <path d="M 162.247005 277.619368 
L 179.279538 277.519543 
L 181.026464 277.22007 
L 182.773391 276.720948 
L 184.520317 276.022178 
L 186.267244 275.123759 
L 188.450902 273.719978 
L 190.63456 272.004247 
L 192.818218 269.976564 
L 195.001876 267.636931 
L 197.185534 264.985346 
L 198.932461 262.639473 
L 198.932461 262.639473 
L 196.312071 259.195532 
L 194.128413 256.668728 
L 191.944755 254.453875 
L 189.761097 252.550973 
L 187.577439 250.960022 
L 185.393781 249.681022 
L 183.646854 248.882427 
L 181.899928 248.283481 
L 180.153001 247.884183 
L 178.406075 247.684535 
L 177.532611 247.659579 
L 162.247005 247.659579 
L 162.247005 247.659579 
L 164.448132 250.105276 
L 165.842179 251.939548 
L 167.016114 253.773821 
L 167.969936 255.608094 
L 168.703645 257.442367 
L 169.217241 259.27664 
L 169.510725 261.110913 
L 169.584096 262.945185 
L 169.437354 264.779458 
L 169.0705 266.613731 
L 168.483532 268.448004 
L 167.676452 270.282277 
L 166.649259 272.116549 
L 165.401954 273.950822 
L 163.934536 275.785095 
L 162.247005 277.619368 
L 162.247005 277.619368 
" clip-path="url(#p0fea711b78)" style="fill: none; stroke: #000000; stroke-width: 2; stroke-linecap: round"/>
   </g>
   <g id="line2d_47">
    <path d="M 151.54708 270.282277 
L 167.676452 270.282277 
" clip-path="url(#p0fea711b78)" style="fill: none; stroke: #000000; stroke-width: 2; stroke-linecap: round"/>
   </g>
   <g id="line2d_48">
    <path d="M 151.54708 254.99667 
L 167.676452 254.99667 
" clip-path="url(#p0fea711b78)" style="fill: none; stroke: #000000; stroke-width: 2; stroke-linecap: round"/>
   </g>
   <g id="line2d_49">
    <path d="M 198.932461 262.639473 
L 209.632386 262.639473 
" clip-path="url(#p0fea711b78)" style="fill: none; stroke: #000000; stroke-width: 2; stroke-linecap: round"/>
   </g>
   <g id="line2d_50">
    <path d="M 87.347532 229.011138 
L 104.314555 229.011138 
M 131.522935 229.011138 
L 148.489959 229.011138 
" clip-path="url(#p0fea711b78)" style="fill: none; stroke: #000000; stroke-width: 2; stroke-linecap: round"/>
   </g>
   <g id="line2d_51">
    <path d="M 104.314555 213.725532 
L 124.185844 229.011138 
L 104.314555 244.296745 
L 104.314555 213.725532 
" clip-path="url(#p0fea711b78)" style="fill: none; stroke: #000000; stroke-width: 2; stroke-linecap: round"/>
   </g>
   <g id="line2d_52">
    <path d="M 151.54708 254.99667 
L 148.489959 254.99667 
L 148.489959 229.011138 
" clip-path="url(#p0fea711b78)" style="fill: none; stroke: #000000; stroke-width: 2; stroke-linecap: round"/>
   </g>
   <g id="line2d_53">
    <path d="M 122.504427 311.553415 
L 123.483779 311.522009 
L 124.459107 311.42792 
L 125.426403 311.271535 
L 126.381691 311.053497 
L 127.321047 310.774701 
L 128.240611 310.436293 
L 129.136603 310.039664 
L 130.005343 309.586443 
L 130.843259 309.078493 
L 131.646909 308.517902 
L 132.412991 307.906972 
L 133.138357 307.248214 
L 133.820025 306.544335 
L 134.455196 305.798228 
L 135.041258 305.012958 
L 135.575803 304.191753 
L 136.056635 303.337987 
L 136.481779 302.455167 
L 136.849486 301.546923 
L 137.158247 300.616985 
L 137.406792 299.669176 
L 137.5941 298.707389 
L 137.719401 297.735578 
L 137.78218 296.757736 
L 137.78218 295.77788 
L 137.719401 294.800038 
L 137.5941 293.828227 
L 137.406792 292.866441 
L 137.158247 291.918631 
L 136.849486 290.988694 
L 136.481779 290.080449 
L 136.056635 289.19763 
L 135.575803 288.343863 
L 135.041258 287.522658 
L 134.455196 286.737388 
L 133.820025 285.991281 
L 133.138357 285.287402 
L 132.412991 284.628645 
L 131.646909 284.017715 
L 130.843259 283.457123 
L 130.005343 282.949173 
L 129.136603 282.495952 
L 128.240611 282.099323 
L 127.321047 281.760915 
L 126.381691 281.482119 
L 125.426403 281.264081 
L 124.459107 281.107696 
L 123.483779 281.013607 
L 122.504427 280.982201 
L 122.504427 280.982201 
L 102.633138 280.982201 
L 102.633138 296.267808 
L 102.633138 311.553415 
L 122.504427 311.553415 
" clip-path="url(#p0fea711b78)" style="fill: none; stroke: #000000; stroke-width: 2; stroke-linecap: round"/>
   </g>
   <g id="line2d_54">
    <path d="M 91.933214 306.356309 
L 102.633138 306.356309 
" clip-path="url(#p0fea711b78)" style="fill: none; stroke: #000000; stroke-width: 2; stroke-linecap: round"/>
   </g>
   <g id="line2d_55">
    <path d="M 91.933214 296.267808 
L 102.633138 296.267808 
" clip-path="url(#p0fea711b78)" style="fill: none; stroke: #000000; stroke-width: 2; stroke-linecap: round"/>
   </g>
   <g id="line2d_56">
    <path d="M 91.933214 286.179308 
L 102.633138 286.179308 
" clip-path="url(#p0fea711b78)" style="fill: none; stroke: #000000; stroke-width: 2; stroke-linecap: round"/>
   </g>
   <g id="line2d_57">
    <path d="M 137.790034 296.267808 
L 148.489959 296.267808 
" clip-path="url(#p0fea711b78)" style="fill: none; stroke: #000000; stroke-width: 2; stroke-linecap: round"/>
   </g>
   <g id="line2d_58">
    <path d="M 26.205104 262.639473 
L 43.172128 262.639473 
M 70.380508 262.639473 
L 87.347532 262.639473 
" clip-path="url(#p0fea711b78)" style="fill: none; stroke: #000000; stroke-width: 2; stroke-linecap: round"/>
   </g>
   <g id="line2d_59">
    <path d="M 43.172128 247.353866 
L 63.043417 262.639473 
L 43.172128 277.92508 
L 43.172128 247.353866 
" clip-path="url(#p0fea711b78)" style="fill: none; stroke: #000000; stroke-width: 2; stroke-linecap: round"/>
   </g>
   <g id="line2d_60">
    <path d="M 91.933214 286.179308 
L 87.347532 286.179308 
L 87.347532 262.639473 
" clip-path="url(#p0fea711b78)" style="fill: none; stroke: #000000; stroke-width: 2; stroke-linecap: round"/>
   </g>
   <g id="line2d_61">
    <path d="M 151.54708 270.282277 
L 148.489959 270.282277 
L 148.489959 296.267808 
" clip-path="url(#p0fea711b78)" style="fill: none; stroke: #000000; stroke-width: 2; stroke-linecap: round"/>
   </g>
   <g id="line2d_62">
    <path d="M 214.218068 297.032088 
L 209.632386 297.032088 
L 209.632386 262.639473 
" clip-path="url(#p0fea711b78)" style="fill: none; stroke: #000000; stroke-width: 2; stroke-linecap: round"/>
   </g>
   <g id="line2d_63">
    <path d="M 162.247005 361.690205 
L 179.279538 361.590381 
L 181.026464 361.290908 
L 182.773391 360.791786 
L 184.520317 360.093015 
L 186.267244 359.194596 
L 188.450902 357.790816 
L 190.63456 356.075084 
L 192.818218 354.047402 
L 195.001876 351.707768 
L 197.185534 349.056183 
L 198.932461 346.71031 
L 198.932461 346.71031 
L 196.312071 343.26637 
L 194.128413 340.739565 
L 191.944755 338.524712 
L 189.761097 336.62181 
L 187.577439 335.030859 
L 185.393781 333.751859 
L 183.646854 332.953264 
L 181.899928 332.354318 
L 180.153001 331.955021 
L 178.406075 331.755372 
L 177.532611 331.730416 
L 162.247005 331.730416 
L 162.247005 331.730416 
L 164.448132 334.176113 
L 165.842179 336.010386 
L 167.016114 337.844659 
L 167.969936 339.678931 
L 168.703645 341.513204 
L 169.217241 343.347477 
L 169.510725 345.18175 
L 169.584096 347.016023 
L 169.437354 348.850295 
L 169.0705 350.684568 
L 168.483532 352.518841 
L 167.676452 354.353114 
L 166.649259 356.187387 
L 165.401954 358.021659 
L 163.934536 359.855932 
L 162.247005 361.690205 
L 162.247005 361.690205 
" clip-path="url(#p0fea711b78)" style="fill: none; stroke: #000000; stroke-width: 2; stroke-linecap: round"/>
   </g>
   <g id="line2d_64">
    <path d="M 151.54708 354.353114 
L 167.676452 354.353114 
" clip-path="url(#p0fea711b78)" style="fill: none; stroke: #000000; stroke-width: 2; stroke-linecap: round"/>
   </g>
   <g id="line2d_65">
    <path d="M 151.54708 339.067507 
L 167.676452 339.067507 
" clip-path="url(#p0fea711b78)" style="fill: none; stroke: #000000; stroke-width: 2; stroke-linecap: round"/>
   </g>
   <g id="line2d_66">
    <path d="M 198.932461 346.71031 
L 209.632386 346.71031 
" clip-path="url(#p0fea711b78)" style="fill: none; stroke: #000000; stroke-width: 2; stroke-linecap: round"/>
   </g>
   <g id="line2d_67">
    <path d="M 214.218068 312.317695 
L 209.632386 312.317695 
L 209.632386 346.71031 
" clip-path="url(#p0fea711b78)" style="fill: none; stroke: #000000; stroke-width: 2; stroke-linecap: round"/>
   </g>
   <g id="line2d_68">
    <path d="M 273.831934 211.43269 
L 270.774813 211.43269 
L 270.774813 304.674892 
" clip-path="url(#p0fea711b78)" style="fill: none; stroke: #000000; stroke-width: 2; stroke-linecap: round"/>
   </g>
   <g id="text_1">
    <g clip-path="url(#p0fea711b78)">
     <!-- output -->
     <g transform="translate(334.974361 207.239106) scale(0.125 -0.125)">
      <defs>
       <path id="DejaVuSans-6f" d="M 1959 3097 
Q 1497 3097 1228 2736 
Q 959 2375 959 1747 
Q 959 1119 1226 758 
Q 1494 397 1959 397 
Q 2419 397 2687 759 
Q 2956 1122 2956 1747 
Q 2956 2369 2687 2733 
Q 2419 3097 1959 3097 
z
M 1959 3584 
Q 2709 3584 3137 3096 
Q 3566 2609 3566 1747 
Q 3566 888 3137 398 
Q 2709 -91 1959 -91 
Q 1206 -91 779 398 
Q 353 888 353 1747 
Q 353 2609 779 3096 
Q 1206 3584 1959 3584 
z
" transform="scale(0.015625)"/>
       <path id="DejaVuSans-75" d="M 544 1381 
L 544 3500 
L 1119 3500 
L 1119 1403 
Q 1119 906 1312 657 
Q 1506 409 1894 409 
Q 2359 409 2629 706 
Q 2900 1003 2900 1516 
L 2900 3500 
L 3475 3500 
L 3475 0 
L 2900 0 
L 2900 538 
Q 2691 219 2414 64 
Q 2138 -91 1772 -91 
Q 1169 -91 856 284 
Q 544 659 544 1381 
z
M 1991 3584 
L 1991 3584 
z
" transform="scale(0.015625)"/>
       <path id="DejaVuSans-74" d="M 1172 4494 
L 1172 3500 
L 2356 3500 
L 2356 3053 
L 1172 3053 
L 1172 1153 
Q 1172 725 1289 603 
Q 1406 481 1766 481 
L 2356 481 
L 2356 0 
L 1766 0 
Q 1100 0 847 248 
Q 594 497 594 1153 
L 594 3053 
L 172 3053 
L 172 3500 
L 594 3500 
L 594 4494 
L 1172 4494 
z
" transform="scale(0.015625)"/>
       <path id="DejaVuSans-70" d="M 1159 525 
L 1159 -1331 
L 581 -1331 
L 581 3500 
L 1159 3500 
L 1159 2969 
Q 1341 3281 1617 3432 
Q 1894 3584 2278 3584 
Q 2916 3584 3314 3078 
Q 3713 2572 3713 1747 
Q 3713 922 3314 415 
Q 2916 -91 2278 -91 
Q 1894 -91 1617 61 
Q 1341 213 1159 525 
z
M 3116 1747 
Q 3116 2381 2855 2742 
Q 2594 3103 2138 3103 
Q 1681 3103 1420 2742 
Q 1159 2381 1159 1747 
Q 1159 1113 1420 752 
Q 1681 391 2138 391 
Q 2594 391 2855 752 
Q 3116 1113 3116 1747 
z
" transform="scale(0.015625)"/>
      </defs>
      <use xlink:href="#DejaVuSans-6f"/>
      <use xlink:href="#DejaVuSans-75" x="61.181641"/>
      <use xlink:href="#DejaVuSans-74" x="124.560547"/>
      <use xlink:href="#DejaVuSans-70" x="163.769531"/>
      <use xlink:href="#DejaVuSans-75" x="227.246094"/>
      <use xlink:href="#DejaVuSans-74" x="290.625"/>
     </g>
    </g>
   </g>
   <g id="text_2">
    <g clip-path="url(#p0fea711b78)">
     <!-- a -->
     <g transform="translate(76.630254 30.690348) scale(0.125 -0.125)">
      <defs>
       <path id="DejaVuSans-61" d="M 2194 1759 
Q 1497 1759 1228 1600 
Q 959 1441 959 1056 
Q 959 750 1161 570 
Q 1363 391 1709 391 
Q 2188 391 2477 730 
Q 2766 1069 2766 1631 
L 2766 1759 
L 2194 1759 
z
M 3341 1997 
L 3341 0 
L 2766 0 
L 2766 531 
Q 2569 213 2275 61 
Q 1981 -91 1556 -91 
Q 1019 -91 701 211 
Q 384 513 384 1019 
Q 384 1609 779 1909 
Q 1175 2209 1959 2209 
L 2766 2209 
L 2766 2266 
Q 2766 2663 2505 2880 
Q 2244 3097 1772 3097 
Q 1472 3097 1187 3025 
Q 903 2953 641 2809 
L 641 3341 
Q 956 3463 1253 3523 
Q 1550 3584 1831 3584 
Q 2591 3584 2966 3190 
Q 3341 2797 3341 1997 
z
" transform="scale(0.015625)"/>
      </defs>
      <use xlink:href="#DejaVuSans-61"/>
     </g>
    </g>
   </g>
   <g id="text_3">
    <g clip-path="url(#p0fea711b78)">
     <!-- c -->
     <g transform="translate(82.003045 88.775653) scale(0.125 -0.125)">
      <defs>
       <path id="DejaVuSans-63" d="M 3122 3366 
L 3122 2828 
Q 2878 2963 2633 3030 
Q 2388 3097 2138 3097 
Q 1578 3097 1268 2742 
Q 959 2388 959 1747 
Q 959 1106 1268 751 
Q 1578 397 2138 397 
Q 2388 397 2633 464 
Q 2878 531 3122 666 
L 3122 134 
Q 2881 22 2623 -34 
Q 2366 -91 2075 -91 
Q 1284 -91 818 406 
Q 353 903 353 1747 
Q 353 2603 823 3093 
Q 1294 3584 2113 3584 
Q 2378 3584 2631 3529 
Q 2884 3475 3122 3366 
z
" transform="scale(0.015625)"/>
      </defs>
      <use xlink:href="#DejaVuSans-63"/>
     </g>
    </g>
   </g>
   <g id="text_4">
    <g clip-path="url(#p0fea711b78)">
     <!-- b -->
     <g transform="translate(15.212436 64.318683) scale(0.125 -0.125)">
      <defs>
       <path id="DejaVuSans-62" d="M 3116 1747 
Q 3116 2381 2855 2742 
Q 2594 3103 2138 3103 
Q 1681 3103 1420 2742 
Q 1159 2381 1159 1747 
Q 1159 1113 1420 752 
Q 1681 391 2138 391 
Q 2594 391 2855 752 
Q 3116 1113 3116 1747 
z
M 1159 2969 
Q 1341 3281 1617 3432 
Q 1894 3584 2278 3584 
Q 2916 3584 3314 3078 
Q 3713 2572 3713 1747 
Q 3713 922 3314 415 
Q 2916 -91 2278 -91 
Q 1894 -91 1617 61 
Q 1341 213 1159 525 
L 1159 0 
L 581 0 
L 581 4863 
L 1159 4863 
L 1159 2969 
z
" transform="scale(0.015625)"/>
      </defs>
      <use xlink:href="#DejaVuSans-62"/>
     </g>
    </g>
   </g>
   <g id="text_5">
    <g clip-path="url(#p0fea711b78)">
     <!-- a -->
     <g transform="translate(76.630254 131.575352) scale(0.125 -0.125)">
      <use xlink:href="#DejaVuSans-61"/>
     </g>
    </g>
   </g>
   <g id="text_6">
    <g clip-path="url(#p0fea711b78)">
     <!-- c -->
     <g transform="translate(82.003045 189.660658) scale(0.125 -0.125)">
      <use xlink:href="#DejaVuSans-63"/>
     </g>
    </g>
   </g>
   <g id="text_7">
    <g clip-path="url(#p0fea711b78)">
     <!-- b -->
     <g transform="translate(15.212436 165.203687) scale(0.125 -0.125)">
      <use xlink:href="#DejaVuSans-62"/>
     </g>
    </g>
   </g>
   <g id="text_8">
    <g clip-path="url(#p0fea711b78)">
     <!-- a -->
     <g transform="translate(76.630254 232.460357) scale(0.125 -0.125)">
      <use xlink:href="#DejaVuSans-61"/>
     </g>
    </g>
   </g>
   <g id="text_9">
    <g clip-path="url(#p0fea711b78)">
     <!-- c -->
     <g transform="translate(82.003045 299.717027) scale(0.125 -0.125)">
      <use xlink:href="#DejaVuSans-63"/>
     </g>
    </g>
   </g>
   <g id="text_10">
    <g clip-path="url(#p0fea711b78)">
     <!-- d -->
     <g transform="translate(80.940545 309.805527) scale(0.125 -0.125)">
      <defs>
       <path id="DejaVuSans-64" d="M 2906 2969 
L 2906 4863 
L 3481 4863 
L 3481 0 
L 2906 0 
L 2906 525 
Q 2725 213 2448 61 
Q 2172 -91 1784 -91 
Q 1150 -91 751 415 
Q 353 922 353 1747 
Q 353 2572 751 3078 
Q 1150 3584 1784 3584 
Q 2172 3584 2448 3432 
Q 2725 3281 2906 2969 
z
M 947 1747 
Q 947 1113 1208 752 
Q 1469 391 1925 391 
Q 2381 391 2643 752 
Q 2906 1113 2906 1747 
Q 2906 2381 2643 2742 
Q 2381 3103 1925 3103 
Q 1469 3103 1208 2742 
Q 947 2381 947 1747 
z
" transform="scale(0.015625)"/>
      </defs>
      <use xlink:href="#DejaVuSans-64"/>
     </g>
    </g>
   </g>
   <g id="text_11">
    <g clip-path="url(#p0fea711b78)">
     <!-- b -->
     <g transform="translate(15.212436 266.088692) scale(0.125 -0.125)">
      <use xlink:href="#DejaVuSans-62"/>
     </g>
    </g>
   </g>
   <g id="text_12">
    <g clip-path="url(#p0fea711b78)">
     <!-- e -->
     <g transform="translate(140.798552 342.516726) scale(0.125 -0.125)">
      <defs>
       <path id="DejaVuSans-65" d="M 3597 1894 
L 3597 1613 
L 953 1613 
Q 991 1019 1311 708 
Q 1631 397 2203 397 
Q 2534 397 2845 478 
Q 3156 559 3463 722 
L 3463 178 
Q 3153 47 2828 -22 
Q 2503 -91 2169 -91 
Q 1331 -91 842 396 
Q 353 884 353 1716 
Q 353 2575 817 3079 
Q 1281 3584 2069 3584 
Q 2775 3584 3186 3129 
Q 3597 2675 3597 1894 
z
M 3022 2063 
Q 3016 2534 2758 2815 
Q 2500 3097 2075 3097 
Q 1594 3097 1305 2825 
Q 1016 2553 972 2059 
L 3022 2063 
z
" transform="scale(0.015625)"/>
      </defs>
      <use xlink:href="#DejaVuSans-65"/>
     </g>
    </g>
   </g>
   <g id="text_13">
    <g clip-path="url(#p0fea711b78)">
     <!-- TRUE -->
     <g transform="translate(115.122771 357.802333) scale(0.125 -0.125)">
      <defs>
       <path id="DejaVuSans-54" d="M -19 4666 
L 3928 4666 
L 3928 4134 
L 2272 4134 
L 2272 0 
L 1638 0 
L 1638 4134 
L -19 4134 
L -19 4666 
z
" transform="scale(0.015625)"/>
       <path id="DejaVuSans-52" d="M 2841 2188 
Q 3044 2119 3236 1894 
Q 3428 1669 3622 1275 
L 4263 0 
L 3584 0 
L 2988 1197 
Q 2756 1666 2539 1819 
Q 2322 1972 1947 1972 
L 1259 1972 
L 1259 0 
L 628 0 
L 628 4666 
L 2053 4666 
Q 2853 4666 3247 4331 
Q 3641 3997 3641 3322 
Q 3641 2881 3436 2590 
Q 3231 2300 2841 2188 
z
M 1259 4147 
L 1259 2491 
L 2053 2491 
Q 2509 2491 2742 2702 
Q 2975 2913 2975 3322 
Q 2975 3731 2742 3939 
Q 2509 4147 2053 4147 
L 1259 4147 
z
" transform="scale(0.015625)"/>
       <path id="DejaVuSans-55" d="M 556 4666 
L 1191 4666 
L 1191 1831 
Q 1191 1081 1462 751 
Q 1734 422 2344 422 
Q 2950 422 3222 751 
Q 3494 1081 3494 1831 
L 3494 4666 
L 4128 4666 
L 4128 1753 
Q 4128 841 3676 375 
Q 3225 -91 2344 -91 
Q 1459 -91 1007 375 
Q 556 841 556 1753 
L 556 4666 
z
" transform="scale(0.015625)"/>
       <path id="DejaVuSans-45" d="M 628 4666 
L 3578 4666 
L 3578 4134 
L 1259 4134 
L 1259 2753 
L 3481 2753 
L 3481 2222 
L 1259 2222 
L 1259 531 
L 3634 531 
L 3634 0 
L 628 0 
L 628 4666 
z
" transform="scale(0.015625)"/>
      </defs>
      <use xlink:href="#DejaVuSans-54"/>
      <use xlink:href="#DejaVuSans-52" x="61.083984"/>
      <use xlink:href="#DejaVuSans-55" x="130.566406"/>
      <use xlink:href="#DejaVuSans-45" x="203.759766"/>
     </g>
    </g>
   </g>
  </g>
 </g>
 <defs>
  <clipPath id="p0fea711b78">
   <rect x="7.2" y="7.2" width="377.299727" height="361.08"/>
  </clipPath>
 </defs>
</svg>
