<?xml version="1.0" encoding="utf-8" standalone="no"?>
<!DOCTYPE svg PUBLIC "-//W3C//DTD SVG 1.1//EN"
  "http://www.w3.org/Graphics/SVG/1.1/DTD/svg11.dtd">
<svg xmlns:xlink="http://www.w3.org/1999/xlink" width="328.986855pt" height="144.144pt" viewBox="0 0 328.986855 144.144" xmlns="http://www.w3.org/2000/svg" version="1.1">
 <metadata>
  <rdf:RDF xmlns:dc="http://purl.org/dc/elements/1.1/" xmlns:cc="http://creativecommons.org/ns#" xmlns:rdf="http://www.w3.org/1999/02/22-rdf-syntax-ns#">
   <cc:Work>
    <dc:type rdf:resource="http://purl.org/dc/dcmitype/StillImage"/>
    <dc:date>2022-11-02T16:35:31.900751</dc:date>
    <dc:format>image/svg+xml</dc:format>
    <dc:creator>
     <cc:Agent>
      <dc:title>Matplotlib v3.6.0, https://matplotlib.org/</dc:title>
     </cc:Agent>
    </dc:creator>
   </cc:Work>
  </rdf:RDF>
 </metadata>
 <defs>
  <style type="text/css">*{stroke-linejoin: round; stroke-linecap: butt}</style>
 </defs>
 <g id="figure_1">
  <g id="patch_1">
   <path d="M -0 144.144 
L 328.986855 144.144 
L 328.986855 0 
L -0 0 
L -0 144.144 
z
" style="fill: none"/>
  </g>
  <g id="axes_1">
   <g id="patch_2">
    <path d="M 201.358678 72.004249 
C 202.328944 72.004249 203.259601 71.618758 203.945683 70.932676 
C 204.631765 70.246594 205.017255 69.315937 205.017255 68.345671 
C 205.017255 67.375405 204.631765 66.444748 203.945683 65.758666 
C 203.259601 65.072584 202.328944 64.687093 201.358678 64.687093 
C 200.388412 64.687093 199.457755 65.072584 198.771673 65.758666 
C 198.085591 66.444748 197.7001 67.375405 197.7001 68.345671 
C 197.7001 69.315937 198.085591 70.246594 198.771673 70.932676 
C 199.457755 71.618758 200.388412 72.004249 201.358678 72.004249 
L 201.358678 72.004249 
z
" clip-path="url(#pd768cf547e)" style="fill: none; stroke: #000000; stroke-width: 2; stroke-linejoin: miter"/>
   </g>
   <g id="patch_3">
    <path d="M 140.382385 38.467288 
C 141.352651 38.467288 142.283309 38.081797 142.96939 37.395715 
C 143.655472 36.709633 144.040963 35.778976 144.040963 34.80871 
C 144.040963 33.838444 143.655472 32.907787 142.96939 32.221705 
C 142.283309 31.535623 141.352651 31.150133 140.382385 31.150133 
C 139.412119 31.150133 138.481462 31.535623 137.79538 32.221705 
C 137.109299 32.907787 136.723808 33.838444 136.723808 34.80871 
C 136.723808 35.778976 137.109299 36.709633 137.79538 37.395715 
C 138.481462 38.081797 139.412119 38.467288 140.382385 38.467288 
L 140.382385 38.467288 
z
" clip-path="url(#pd768cf547e)" style="fill: none; stroke: #000000; stroke-width: 2; stroke-linejoin: miter"/>
   </g>
   <g id="patch_4">
    <path d="M 140.382385 105.541209 
C 141.352651 105.541209 142.283309 105.155719 142.96939 104.469637 
C 143.655472 103.783555 144.040963 102.852898 144.040963 101.882632 
C 144.040963 100.912366 143.655472 99.981709 142.96939 99.295627 
C 142.283309 98.609545 141.352651 98.224054 140.382385 98.224054 
C 139.412119 98.224054 138.481462 98.609545 137.79538 99.295627 
C 137.109299 99.981709 136.723808 100.912366 136.723808 101.882632 
C 136.723808 102.852898 137.109299 103.783555 137.79538 104.469637 
C 138.481462 105.155719 139.412119 105.541209 140.382385 105.541209 
L 140.382385 105.541209 
z
" clip-path="url(#pd768cf547e)" style="fill: none; stroke: #000000; stroke-width: 2; stroke-linejoin: miter"/>
   </g>
   <g id="patch_5">
    <path d="M 65.838868 122.30969 
C 66.809134 122.30969 67.739791 121.924199 68.425873 121.238117 
C 69.111955 120.552036 69.497445 119.621378 69.497445 118.651112 
C 69.497445 117.680846 69.111955 116.750189 68.425873 116.064107 
C 67.739791 115.378026 66.809134 114.992535 65.838868 114.992535 
C 64.868602 114.992535 63.937945 115.378026 63.251863 116.064107 
C 62.565781 116.750189 62.18029 117.680846 62.18029 118.651112 
C 62.18029 119.621378 62.565781 120.552036 63.251863 121.238117 
C 63.937945 121.924199 64.868602 122.30969 65.838868 122.30969 
L 65.838868 122.30969 
z
" clip-path="url(#pd768cf547e)" style="fill: none; stroke: #000000; stroke-width: 2; stroke-linejoin: miter"/>
   </g>
   <g id="line2d_1">
    <path d="M 222.090617 100.053343 
L 239.07687 99.95379 
L 240.81905 99.655131 
L 242.56123 99.157365 
L 244.303409 98.460493 
L 246.045589 97.564515 
L 248.223314 96.164549 
L 250.401039 94.453479 
L 252.578763 92.431307 
L 254.756488 90.09803 
L 256.934213 87.45365 
L 258.676393 85.114151 
L 258.676393 85.114151 
L 256.063123 81.679568 
L 253.885398 79.15963 
L 251.707674 76.950795 
L 249.529949 75.053063 
L 247.352224 73.466435 
L 245.174499 72.190911 
L 243.43232 71.394486 
L 241.69014 70.797167 
L 239.94796 70.398954 
L 238.20578 70.199848 
L 237.33469 70.17496 
L 222.090617 70.17496 
L 224.285764 72.614011 
L 225.676023 74.4433 
L 226.846768 76.272589 
L 227.797998 78.101878 
L 228.529714 79.931167 
L 229.041915 81.760455 
L 229.334601 83.589744 
L 229.407772 85.419033 
L 229.261429 87.248322 
L 228.895571 89.07761 
L 228.310199 90.906899 
L 227.505312 92.736188 
L 226.48091 94.565477 
L 225.236994 96.394766 
L 223.773563 98.224054 
L 222.090617 100.053343 
L 222.090617 100.053343 
" clip-path="url(#pd768cf547e)" style="fill: none; stroke: #000000; stroke-width: 2; stroke-linecap: round"/>
   </g>
   <g id="line2d_2">
    <path d="M 211.419766 92.736188 
L 227.505312 92.736188 
" clip-path="url(#pd768cf547e)" style="fill: none; stroke: #000000; stroke-width: 2; stroke-linecap: round"/>
   </g>
   <g id="line2d_3">
    <path d="M 211.419766 77.492115 
L 227.505312 77.492115 
" clip-path="url(#pd768cf547e)" style="fill: none; stroke: #000000; stroke-width: 2; stroke-linecap: round"/>
   </g>
   <g id="line2d_4">
    <path d="M 258.676393 85.114151 
L 269.347244 85.114151 
" clip-path="url(#pd768cf547e)" style="fill: none; stroke: #000000; stroke-width: 2; stroke-linecap: round"/>
   </g>
   <g id="line2d_5">
    <path d="M 182.456027 83.589744 
L 183.432718 83.558424 
L 184.405396 83.46459 
L 185.370063 83.308631 
L 186.322756 83.091185 
L 187.25956 82.813146 
L 188.176625 82.475658 
L 189.070183 82.080106 
L 189.936561 81.628117 
L 190.772201 81.121547 
L 191.573668 80.562479 
L 192.337668 79.953209 
L 193.061063 79.296241 
L 193.740879 78.594275 
L 194.374323 77.850195 
L 194.958793 77.067059 
L 195.491886 76.248085 
L 195.971412 75.396639 
L 196.3954 74.516218 
L 196.762108 73.610441 
L 197.07003 72.68303 
L 197.3179 71.737796 
L 197.504698 70.778623 
L 197.629659 69.809453 
L 197.692268 68.834268 
L 197.692268 67.857074 
L 197.629659 66.881889 
L 197.504698 65.912719 
L 197.3179 64.953546 
L 197.07003 64.008312 
L 196.762108 63.080901 
L 196.3954 62.175124 
L 195.971412 61.294704 
L 195.491886 60.443257 
L 194.958793 59.624283 
L 194.374323 58.841147 
L 193.740879 58.097067 
L 193.061063 57.395101 
L 192.337668 56.738133 
L 191.573668 56.128863 
L 190.772201 55.569795 
L 189.936561 55.063225 
L 189.070183 54.611236 
L 188.176625 54.215684 
L 187.25956 53.878196 
L 186.322756 53.600157 
L 185.370063 53.382711 
L 184.405396 53.226752 
L 183.432718 53.132918 
L 182.456027 53.101598 
L 182.456027 53.101598 
L 162.638732 53.101598 
L 162.638732 68.345671 
L 162.638732 83.589744 
L 182.456027 83.589744 
" clip-path="url(#pd768cf547e)" style="fill: none; stroke: #000000; stroke-width: 2; stroke-linecap: round"/>
   </g>
   <g id="line2d_6">
    <path d="M 151.967881 75.967708 
L 162.638732 75.967708 
" clip-path="url(#pd768cf547e)" style="fill: none; stroke: #000000; stroke-width: 2; stroke-linecap: round"/>
   </g>
   <g id="line2d_7">
    <path d="M 151.967881 60.723634 
L 162.638732 60.723634 
" clip-path="url(#pd768cf547e)" style="fill: none; stroke: #000000; stroke-width: 2; stroke-linecap: round"/>
   </g>
   <g id="line2d_8">
    <path d="M 205.017255 68.345671 
L 208.370951 68.345671 
" clip-path="url(#pd768cf547e)" style="fill: none; stroke: #000000; stroke-width: 2; stroke-linecap: round"/>
   </g>
   <g id="line2d_9">
    <path d="M 100.138032 49.747902 
L 117.124285 49.648349 
L 118.866465 49.349689 
L 120.608645 48.851924 
L 122.350825 48.155052 
L 124.093004 47.259074 
L 126.270729 45.859108 
L 128.448454 44.148038 
L 130.626179 42.125865 
L 132.803903 39.792589 
L 134.981628 37.148209 
L 136.723808 34.80871 
L 136.723808 34.80871 
L 134.110538 31.374127 
L 131.932813 28.854189 
L 129.755089 26.645353 
L 127.577364 24.747622 
L 125.399639 23.160994 
L 123.221915 21.885469 
L 121.479735 21.089044 
L 119.737555 20.491726 
L 117.995375 20.093513 
L 116.253195 19.894407 
L 115.382105 19.869519 
L 100.138032 19.869519 
L 102.333179 22.30857 
L 103.723438 24.137859 
L 104.894183 25.967148 
L 105.845413 27.796437 
L 106.577129 29.625725 
L 107.08933 31.455014 
L 107.382016 33.284303 
L 107.455187 35.113592 
L 107.308844 36.94288 
L 106.942987 38.772169 
L 106.357614 40.601458 
L 105.552727 42.430747 
L 104.528325 44.260036 
L 103.284409 46.089324 
L 101.820978 47.918613 
L 100.138032 49.747902 
L 100.138032 49.747902 
" clip-path="url(#pd768cf547e)" style="fill: none; stroke: #000000; stroke-width: 2; stroke-linecap: round"/>
   </g>
   <g id="line2d_10">
    <path d="M 89.467181 42.430747 
L 105.552727 42.430747 
" clip-path="url(#pd768cf547e)" style="fill: none; stroke: #000000; stroke-width: 2; stroke-linecap: round"/>
   </g>
   <g id="line2d_11">
    <path d="M 89.467181 27.186674 
L 105.552727 27.186674 
" clip-path="url(#pd768cf547e)" style="fill: none; stroke: #000000; stroke-width: 2; stroke-linecap: round"/>
   </g>
   <g id="line2d_12">
    <path d="M 144.040963 34.80871 
L 147.394659 34.80871 
" clip-path="url(#pd768cf547e)" style="fill: none; stroke: #000000; stroke-width: 2; stroke-linecap: round"/>
   </g>
   <g id="line2d_13">
    <path d="M 151.967881 60.723634 
L 147.394659 60.723634 
L 147.394659 34.80871 
" clip-path="url(#pd768cf547e)" style="fill: none; stroke: #000000; stroke-width: 2; stroke-linecap: round"/>
   </g>
   <g id="line2d_14">
    <path d="M 121.479735 117.126705 
L 122.456426 117.095384 
L 123.429104 117.001551 
L 124.393771 116.845591 
L 125.346464 116.628145 
L 126.283267 116.350107 
L 127.200332 116.012619 
L 128.09389 115.617067 
L 128.960269 115.165078 
L 129.795909 114.658508 
L 130.597375 114.09944 
L 131.361376 113.49017 
L 132.08477 112.833202 
L 132.764587 112.131236 
L 133.398031 111.387156 
L 133.982501 110.60402 
L 134.515594 109.785046 
L 134.995119 108.933599 
L 135.419108 108.053179 
L 135.785816 107.147402 
L 136.093738 106.219991 
L 136.341607 105.274757 
L 136.528406 104.315584 
L 136.653367 103.346414 
L 136.715976 102.371228 
L 136.715976 101.394035 
L 136.653367 100.41885 
L 136.528406 99.449679 
L 136.341607 98.490506 
L 136.093738 97.545273 
L 135.785816 96.617862 
L 135.419108 95.712085 
L 134.995119 94.831664 
L 134.515594 93.980218 
L 133.982501 93.161244 
L 133.398031 92.378108 
L 132.764587 91.634028 
L 132.08477 90.932062 
L 131.361376 90.275094 
L 130.597375 89.665824 
L 129.795909 89.106756 
L 128.960269 88.600186 
L 128.09389 88.148197 
L 127.200332 87.752645 
L 126.283267 87.415157 
L 125.346464 87.137118 
L 124.393771 86.919672 
L 123.429104 86.763712 
L 122.456426 86.669879 
L 121.479735 86.638559 
L 121.479735 86.638559 
L 101.66244 86.638559 
L 101.66244 101.882632 
L 101.66244 117.126705 
L 121.479735 117.126705 
" clip-path="url(#pd768cf547e)" style="fill: none; stroke: #000000; stroke-width: 2; stroke-linecap: round"/>
   </g>
   <g id="line2d_15">
    <path d="M 90.991589 109.504668 
L 101.66244 109.504668 
" clip-path="url(#pd768cf547e)" style="fill: none; stroke: #000000; stroke-width: 2; stroke-linecap: round"/>
   </g>
   <g id="line2d_16">
    <path d="M 90.991589 94.260595 
L 101.66244 94.260595 
" clip-path="url(#pd768cf547e)" style="fill: none; stroke: #000000; stroke-width: 2; stroke-linecap: round"/>
   </g>
   <g id="line2d_17">
    <path d="M 144.040963 101.882632 
L 147.394659 101.882632 
" clip-path="url(#pd768cf547e)" style="fill: none; stroke: #000000; stroke-width: 2; stroke-linecap: round"/>
   </g>
   <g id="line2d_18">
    <path d="M 25.442074 118.651112 
L 42.362995 118.651112 
M 69.497445 118.651112 
L 86.418367 118.651112 
" clip-path="url(#pd768cf547e)" style="fill: none; stroke: #000000; stroke-width: 2; stroke-linecap: round"/>
   </g>
   <g id="line2d_19">
    <path d="M 42.362995 103.407039 
L 62.18029 118.651112 
L 42.362995 133.895185 
L 42.362995 103.407039 
" clip-path="url(#pd768cf547e)" style="fill: none; stroke: #000000; stroke-width: 2; stroke-linecap: round"/>
   </g>
   <g id="line2d_20">
    <path d="M 90.991589 109.504668 
L 86.418367 109.504668 
L 86.418367 118.651112 
" clip-path="url(#pd768cf547e)" style="fill: none; stroke: #000000; stroke-width: 2; stroke-linecap: round"/>
   </g>
   <g id="line2d_21">
    <path d="M 151.967881 75.967708 
L 147.394659 75.967708 
L 147.394659 101.882632 
" clip-path="url(#pd768cf547e)" style="fill: none; stroke: #000000; stroke-width: 2; stroke-linecap: round"/>
   </g>
   <g id="line2d_22">
    <path d="M 211.419766 77.492115 
L 208.370951 77.492115 
L 208.370951 68.345671 
" clip-path="url(#pd768cf547e)" style="fill: none; stroke: #000000; stroke-width: 2; stroke-linecap: round"/>
   </g>
   <g id="text_1">
    <g clip-path="url(#pd768cf547e)">
     <!-- output -->
     <g transform="translate(272.396058 88.56337) scale(0.125 -0.125)">
      <defs>
       <path id="DejaVuSans-6f" d="M 1959 3097 
Q 1497 3097 1228 2736 
Q 959 2375 959 1747 
Q 959 1119 1226 758 
Q 1494 397 1959 397 
Q 2419 397 2687 759 
Q 2956 1122 2956 1747 
Q 2956 2369 2687 2733 
Q 2419 3097 1959 3097 
z
M 1959 3584 
Q 2709 3584 3137 3096 
Q 3566 2609 3566 1747 
Q 3566 888 3137 398 
Q 2709 -91 1959 -91 
Q 1206 -91 779 398 
Q 353 888 353 1747 
Q 353 2609 779 3096 
Q 1206 3584 1959 3584 
z
" transform="scale(0.015625)"/>
       <path id="DejaVuSans-75" d="M 544 1381 
L 544 3500 
L 1119 3500 
L 1119 1403 
Q 1119 906 1312 657 
Q 1506 409 1894 409 
Q 2359 409 2629 706 
Q 2900 1003 2900 1516 
L 2900 3500 
L 3475 3500 
L 3475 0 
L 2900 0 
L 2900 538 
Q 2691 219 2414 64 
Q 2138 -91 1772 -91 
Q 1169 -91 856 284 
Q 544 659 544 1381 
z
M 1991 3584 
L 1991 3584 
z
" transform="scale(0.015625)"/>
       <path id="DejaVuSans-74" d="M 1172 4494 
L 1172 3500 
L 2356 3500 
L 2356 3053 
L 1172 3053 
L 1172 1153 
Q 1172 725 1289 603 
Q 1406 481 1766 481 
L 2356 481 
L 2356 0 
L 1766 0 
Q 1100 0 847 248 
Q 594 497 594 1153 
L 594 3053 
L 172 3053 
L 172 3500 
L 594 3500 
L 594 4494 
L 1172 4494 
z
" transform="scale(0.015625)"/>
       <path id="DejaVuSans-70" d="M 1159 525 
L 1159 -1331 
L 581 -1331 
L 581 3500 
L 1159 3500 
L 1159 2969 
Q 1341 3281 1617 3432 
Q 1894 3584 2278 3584 
Q 2916 3584 3314 3078 
Q 3713 2572 3713 1747 
Q 3713 922 3314 415 
Q 2916 -91 2278 -91 
Q 1894 -91 1617 61 
Q 1341 213 1159 525 
z
M 3116 1747 
Q 3116 2381 2855 2742 
Q 2594 3103 2138 3103 
Q 1681 3103 1420 2742 
Q 1159 2381 1159 1747 
Q 1159 1113 1420 752 
Q 1681 391 2138 391 
Q 2594 391 2855 752 
Q 3116 1113 3116 1747 
z
" transform="scale(0.015625)"/>
      </defs>
      <use xlink:href="#DejaVuSans-6f"/>
      <use xlink:href="#DejaVuSans-75" x="61.181641"/>
      <use xlink:href="#DejaVuSans-74" x="124.560547"/>
      <use xlink:href="#DejaVuSans-70" x="163.769531"/>
      <use xlink:href="#DejaVuSans-75" x="227.246094"/>
      <use xlink:href="#DejaVuSans-74" x="290.625"/>
     </g>
    </g>
   </g>
   <g id="text_2">
    <g clip-path="url(#pd768cf547e)">
     <!-- FALSE -->
     <g transform="translate(170.972514 96.185407) scale(0.125 -0.125)">
      <defs>
       <path id="DejaVuSans-46" d="M 628 4666 
L 3309 4666 
L 3309 4134 
L 1259 4134 
L 1259 2759 
L 3109 2759 
L 3109 2228 
L 1259 2228 
L 1259 0 
L 628 0 
L 628 4666 
z
" transform="scale(0.015625)"/>
       <path id="DejaVuSans-41" d="M 2188 4044 
L 1331 1722 
L 3047 1722 
L 2188 4044 
z
M 1831 4666 
L 2547 4666 
L 4325 0 
L 3669 0 
L 3244 1197 
L 1141 1197 
L 716 0 
L 50 0 
L 1831 4666 
z
" transform="scale(0.015625)"/>
       <path id="DejaVuSans-4c" d="M 628 4666 
L 1259 4666 
L 1259 531 
L 3531 531 
L 3531 0 
L 628 0 
L 628 4666 
z
" transform="scale(0.015625)"/>
       <path id="DejaVuSans-53" d="M 3425 4513 
L 3425 3897 
Q 3066 4069 2747 4153 
Q 2428 4238 2131 4238 
Q 1616 4238 1336 4038 
Q 1056 3838 1056 3469 
Q 1056 3159 1242 3001 
Q 1428 2844 1947 2747 
L 2328 2669 
Q 3034 2534 3370 2195 
Q 3706 1856 3706 1288 
Q 3706 609 3251 259 
Q 2797 -91 1919 -91 
Q 1588 -91 1214 -16 
Q 841 59 441 206 
L 441 856 
Q 825 641 1194 531 
Q 1563 422 1919 422 
Q 2459 422 2753 634 
Q 3047 847 3047 1241 
Q 3047 1584 2836 1778 
Q 2625 1972 2144 2069 
L 1759 2144 
Q 1053 2284 737 2584 
Q 422 2884 422 3419 
Q 422 4038 858 4394 
Q 1294 4750 2059 4750 
Q 2388 4750 2728 4690 
Q 3069 4631 3425 4513 
z
" transform="scale(0.015625)"/>
       <path id="DejaVuSans-45" d="M 628 4666 
L 3578 4666 
L 3578 4134 
L 1259 4134 
L 1259 2753 
L 3481 2753 
L 3481 2222 
L 1259 2222 
L 1259 531 
L 3634 531 
L 3634 0 
L 628 0 
L 628 4666 
z
" transform="scale(0.015625)"/>
      </defs>
      <use xlink:href="#DejaVuSans-46"/>
      <use xlink:href="#DejaVuSans-41" x="48.394531"/>
      <use xlink:href="#DejaVuSans-4c" x="116.802734"/>
      <use xlink:href="#DejaVuSans-53" x="172.515625"/>
      <use xlink:href="#DejaVuSans-45" x="235.992188"/>
     </g>
    </g>
   </g>
   <g id="text_3">
    <g clip-path="url(#pd768cf547e)">
     <!-- a -->
     <g transform="translate(78.75821 30.635892) scale(0.125 -0.125)">
      <defs>
       <path id="DejaVuSans-61" d="M 2194 1759 
Q 1497 1759 1228 1600 
Q 959 1441 959 1056 
Q 959 750 1161 570 
Q 1363 391 1709 391 
Q 2188 391 2477 730 
Q 2766 1069 2766 1631 
L 2766 1759 
L 2194 1759 
z
M 3341 1997 
L 3341 0 
L 2766 0 
L 2766 531 
Q 2569 213 2275 61 
Q 1981 -91 1556 -91 
Q 1019 -91 701 211 
Q 384 513 384 1019 
Q 384 1609 779 1909 
Q 1175 2209 1959 2209 
L 2766 2209 
L 2766 2266 
Q 2766 2663 2505 2880 
Q 2244 3097 1772 3097 
Q 1472 3097 1187 3025 
Q 903 2953 641 2809 
L 641 3341 
Q 956 3463 1253 3523 
Q 1550 3584 1831 3584 
Q 2591 3584 2966 3190 
Q 3341 2797 3341 1997 
z
" transform="scale(0.015625)"/>
      </defs>
      <use xlink:href="#DejaVuSans-61"/>
     </g>
    </g>
   </g>
   <g id="text_4">
    <g clip-path="url(#pd768cf547e)">
     <!-- b -->
     <g transform="translate(78.48282 45.879965) scale(0.125 -0.125)">
      <defs>
       <path id="DejaVuSans-62" d="M 3116 1747 
Q 3116 2381 2855 2742 
Q 2594 3103 2138 3103 
Q 1681 3103 1420 2742 
Q 1159 2381 1159 1747 
Q 1159 1113 1420 752 
Q 1681 391 2138 391 
Q 2594 391 2855 752 
Q 3116 1113 3116 1747 
z
M 1159 2969 
Q 1341 3281 1617 3432 
Q 1894 3584 2278 3584 
Q 2916 3584 3314 3078 
Q 3713 2572 3713 1747 
Q 3713 922 3314 415 
Q 2916 -91 2278 -91 
Q 1894 -91 1617 61 
Q 1341 213 1159 525 
L 1159 0 
L 581 0 
L 581 4863 
L 1159 4863 
L 1159 2969 
z
" transform="scale(0.015625)"/>
      </defs>
      <use xlink:href="#DejaVuSans-62"/>
     </g>
    </g>
   </g>
   <g id="text_5">
    <g clip-path="url(#pd768cf547e)">
     <!-- c -->
     <g transform="translate(81.069727 97.709814) scale(0.125 -0.125)">
      <defs>
       <path id="DejaVuSans-63" d="M 3122 3366 
L 3122 2828 
Q 2878 2963 2633 3030 
Q 2388 3097 2138 3097 
Q 1578 3097 1268 2742 
Q 959 2388 959 1747 
Q 959 1106 1268 751 
Q 1578 397 2138 397 
Q 2388 397 2633 464 
Q 2878 531 3122 666 
L 3122 134 
Q 2881 22 2623 -34 
Q 2366 -91 2075 -91 
Q 1284 -91 818 406 
Q 353 903 353 1747 
Q 353 2603 823 3093 
Q 1294 3584 2113 3584 
Q 2378 3584 2631 3529 
Q 2884 3475 3122 3366 
z
" transform="scale(0.015625)"/>
      </defs>
      <use xlink:href="#DejaVuSans-63"/>
     </g>
    </g>
   </g>
   <g id="text_6">
    <g clip-path="url(#pd768cf547e)">
     <!-- c -->
     <g transform="translate(15.520213 122.100331) scale(0.125 -0.125)">
      <use xlink:href="#DejaVuSans-63"/>
     </g>
    </g>
   </g>
  </g>
 </g>
 <defs>
  <clipPath id="pd768cf547e">
   <rect x="7.2" y="7.2" width="314.586855" height="129.744"/>
  </clipPath>
 </defs>
</svg>
