<?xml version="1.0" encoding="utf-8" standalone="no"?>
<!DOCTYPE svg PUBLIC "-//W3C//DTD SVG 1.1//EN"
  "http://www.w3.org/Graphics/SVG/1.1/DTD/svg11.dtd">
<svg xmlns:xlink="http://www.w3.org/1999/xlink" width="512.338493pt" height="189.432pt" viewBox="0 0 512.338493 189.432" xmlns="http://www.w3.org/2000/svg" version="1.1">
 <metadata>
  <rdf:RDF xmlns:dc="http://purl.org/dc/elements/1.1/" xmlns:cc="http://creativecommons.org/ns#" xmlns:rdf="http://www.w3.org/1999/02/22-rdf-syntax-ns#">
   <cc:Work>
    <dc:type rdf:resource="http://purl.org/dc/dcmitype/StillImage"/>
    <dc:date>2022-12-21T12:37:32.780654</dc:date>
    <dc:format>image/svg+xml</dc:format>
    <dc:creator>
     <cc:Agent>
      <dc:title>Matplotlib v3.6.2, https://matplotlib.org/</dc:title>
     </cc:Agent>
    </dc:creator>
   </cc:Work>
  </rdf:RDF>
 </metadata>
 <defs>
  <style type="text/css">*{stroke-linejoin: round; stroke-linecap: butt}</style>
 </defs>
 <g id="figure_1">
  <g id="patch_1">
   <path d="M 0 189.432 
L 512.338493 189.432 
L 512.338493 0 
L 0 0 
L 0 189.432 
z
" style="fill: none"/>
  </g>
  <g id="axes_1">
   <g id="patch_2">
    <path d="M 262.551769 114.016139 
C 263.52286 114.016139 264.454308 113.63032 265.140972 112.943656 
C 265.827637 112.256991 266.213455 111.325543 266.213455 110.354452 
C 266.213455 109.383362 265.827637 108.451914 265.140972 107.765249 
C 264.454308 107.078584 263.52286 106.692766 262.551769 106.692766 
C 261.580679 106.692766 260.649231 107.078584 259.962566 107.765249 
C 259.275901 108.451914 258.890083 109.383362 258.890083 110.354452 
C 258.890083 111.325543 259.275901 112.256991 259.962566 112.943656 
C 260.649231 113.63032 261.580679 114.016139 262.551769 114.016139 
L 262.551769 114.016139 
z
" clip-path="url(#pa04bc22376)" style="fill: none; stroke: #000000; stroke-width: 2; stroke-linejoin: miter"/>
   </g>
   <g id="patch_3">
    <path d="M 140.495556 38.493857 
C 141.466647 38.493857 142.398095 38.108038 143.084759 37.421374 
C 143.771424 36.734709 144.157242 35.803261 144.157242 34.83217 
C 144.157242 33.86108 143.771424 32.929632 143.084759 32.242967 
C 142.398095 31.556302 141.466647 31.170484 140.495556 31.170484 
C 139.524465 31.170484 138.593017 31.556302 137.906353 32.242967 
C 137.219688 32.929632 136.83387 33.86108 136.83387 34.83217 
C 136.83387 35.803261 137.219688 36.734709 137.906353 37.421374 
C 138.593017 38.108038 139.524465 38.493857 140.495556 38.493857 
L 140.495556 38.493857 
z
" clip-path="url(#pa04bc22376)" style="fill: none; stroke: #000000; stroke-width: 2; stroke-linejoin: miter"/>
   </g>
   <g id="patch_4">
    <path d="M 140.495556 105.624774 
C 141.466647 105.624774 142.398095 105.238956 143.084759 104.552291 
C 143.771424 103.865626 144.157242 102.934178 144.157242 101.963088 
C 144.157242 100.991997 143.771424 100.060549 143.084759 99.373884 
C 142.398095 98.68722 141.466647 98.301401 140.495556 98.301401 
C 139.524465 98.301401 138.593017 98.68722 137.906353 99.373884 
C 137.219688 100.060549 136.83387 100.991997 136.83387 101.963088 
C 136.83387 102.934178 137.219688 103.865626 137.906353 104.552291 
C 138.593017 105.238956 139.524465 105.624774 140.495556 105.624774 
L 140.495556 105.624774 
z
" clip-path="url(#pa04bc22376)" style="fill: none; stroke: #000000; stroke-width: 2; stroke-linejoin: miter"/>
   </g>
   <g id="patch_5">
    <path d="M 65.888696 122.407503 
C 66.859786 122.407503 67.791234 122.021685 68.477899 121.33502 
C 69.164564 120.648355 69.550382 119.716908 69.550382 118.745817 
C 69.550382 117.774726 69.164564 116.843278 68.477899 116.156614 
C 67.791234 115.469949 66.859786 115.084131 65.888696 115.084131 
C 64.917605 115.084131 63.986157 115.469949 63.299493 116.156614 
C 62.612828 116.843278 62.227009 117.774726 62.227009 118.745817 
C 62.227009 119.716908 62.612828 120.648355 63.299493 121.33502 
C 63.986157 122.021685 64.917605 122.407503 65.888696 122.407503 
L 65.888696 122.407503 
z
" clip-path="url(#pa04bc22376)" style="fill: none; stroke: #000000; stroke-width: 2; stroke-linejoin: miter"/>
   </g>
   <g id="patch_6">
    <path d="M 201.523663 155.972962 
C 202.494753 155.972962 203.426201 155.587144 204.112866 154.900479 
C 204.799531 154.213814 205.185349 153.282366 205.185349 152.311276 
C 205.185349 151.340185 204.799531 150.408737 204.112866 149.722072 
C 203.426201 149.035408 202.494753 148.649589 201.523663 148.649589 
C 200.552572 148.649589 199.621124 149.035408 198.934459 149.722072 
C 198.247795 150.408737 197.861976 151.340185 197.861976 152.311276 
C 197.861976 153.282366 198.247795 154.213814 198.934459 154.900479 
C 199.621124 155.587144 200.552572 155.972962 201.523663 155.972962 
L 201.523663 155.972962 
z
" clip-path="url(#pa04bc22376)" style="fill: none; stroke: #000000; stroke-width: 2; stroke-linejoin: miter"/>
   </g>
   <g id="line2d_1">
    <path d="M 405.357538 175.654526 
L 422.358225 175.554889 
L 424.101885 175.255975 
L 425.845546 174.757787 
L 427.589206 174.060323 
L 429.332866 173.163583 
L 431.512441 171.762428 
L 433.692016 170.049904 
L 435.871592 168.026013 
L 438.051167 165.690754 
L 440.230742 163.044127 
L 441.974402 160.70264 
L 441.974402 160.70264 
L 439.358912 157.265139 
L 437.179337 154.743059 
L 434.999762 152.532347 
L 432.820186 150.633003 
L 430.640611 149.045026 
L 428.461036 147.768418 
L 426.717376 146.971316 
L 424.973716 146.37349 
L 423.230055 145.974939 
L 421.486395 145.775664 
L 420.614565 145.750754 
L 405.357538 145.750754 
L 405.357538 145.750754 
L 407.55455 148.191878 
L 408.945991 150.022722 
L 410.117731 151.853565 
L 411.069769 153.684408 
L 411.802106 155.515251 
L 412.314743 157.346094 
L 412.607677 159.176938 
L 412.680911 161.007781 
L 412.534444 162.838624 
L 412.168275 164.669467 
L 411.582405 166.50031 
L 410.776834 168.331154 
L 409.751562 170.161997 
L 408.506589 171.99284 
L 407.041914 173.823683 
L 405.357538 175.654526 
L 405.357538 175.654526 
" clip-path="url(#pa04bc22376)" style="fill: none; stroke: #000000; stroke-width: 2; stroke-linecap: round"/>
   </g>
   <g id="line2d_2">
    <path d="M 394.67762 168.331154 
L 410.776834 168.331154 
" clip-path="url(#pa04bc22376)" style="fill: none; stroke: #000000; stroke-width: 2; stroke-linecap: round"/>
   </g>
   <g id="line2d_3">
    <path d="M 394.67762 153.074127 
L 410.776834 153.074127 
" clip-path="url(#pa04bc22376)" style="fill: none; stroke: #000000; stroke-width: 2; stroke-linecap: round"/>
   </g>
   <g id="line2d_4">
    <path d="M 441.974402 160.70264 
L 452.654321 160.70264 
" clip-path="url(#pa04bc22376)" style="fill: none; stroke: #000000; stroke-width: 2; stroke-linecap: round"/>
   </g>
   <g id="line2d_5">
    <path d="M 365.689269 159.176938 
L 366.66679 159.14559 
L 367.640294 159.051678 
L 368.605781 158.895585 
L 369.559284 158.677954 
L 370.496884 158.39968 
L 371.414728 158.061905 
L 372.309045 157.666017 
L 373.17616 157.213644 
L 374.01251 156.706643 
L 374.814657 156.1471 
L 375.579307 155.537312 
L 376.303316 154.879786 
L 376.98371 154.177223 
L 377.617693 153.432511 
L 378.202659 152.64871 
L 378.736205 151.82904 
L 379.216138 150.97687 
L 379.640487 150.095701 
L 380.007507 149.189155 
L 380.31569 148.260956 
L 380.56377 147.314919 
L 380.750728 146.354931 
L 380.875795 145.384937 
L 380.938457 144.408923 
L 380.938457 143.430899 
L 380.875795 142.454885 
L 380.750728 141.484891 
L 380.56377 140.524903 
L 380.31569 139.578866 
L 380.007507 138.650667 
L 379.640487 137.744121 
L 379.216138 136.862952 
L 378.736205 136.010782 
L 378.202659 135.191112 
L 377.617693 134.40731 
L 376.98371 133.662598 
L 376.303316 132.960036 
L 375.579307 132.30251 
L 374.814657 131.692722 
L 374.01251 131.133178 
L 373.17616 130.626178 
L 372.309045 130.173805 
L 371.414728 129.777917 
L 370.496884 129.440142 
L 369.559284 129.161867 
L 368.605781 128.944237 
L 367.640294 128.788144 
L 366.66679 128.694231 
L 365.689269 128.662884 
L 365.689269 128.662884 
L 345.855135 128.662884 
L 345.855135 143.919911 
L 345.855135 159.176938 
L 365.689269 159.176938 
" clip-path="url(#pa04bc22376)" style="fill: none; stroke: #000000; stroke-width: 2; stroke-linecap: round"/>
   </g>
   <g id="line2d_6">
    <path d="M 335.175216 151.548424 
L 345.855135 151.548424 
" clip-path="url(#pa04bc22376)" style="fill: none; stroke: #000000; stroke-width: 2; stroke-linecap: round"/>
   </g>
   <g id="line2d_7">
    <path d="M 335.175216 136.291398 
L 345.855135 136.291398 
" clip-path="url(#pa04bc22376)" style="fill: none; stroke: #000000; stroke-width: 2; stroke-linecap: round"/>
   </g>
   <g id="line2d_8">
    <path d="M 380.946296 143.919911 
L 391.626214 143.919911 
" clip-path="url(#pa04bc22376)" style="fill: none; stroke: #000000; stroke-width: 2; stroke-linecap: round"/>
   </g>
   <g id="line2d_9">
    <path d="M 283.301325 142.089068 
L 300.302012 141.98943 
L 302.045672 141.690517 
L 303.789333 141.192328 
L 305.532993 140.494864 
L 307.276653 139.598125 
L 309.456228 138.196969 
L 311.635803 136.484446 
L 313.815379 134.460554 
L 315.994954 132.125295 
L 318.174529 129.478668 
L 319.918189 127.137182 
L 319.918189 127.137182 
L 317.302699 123.69968 
L 315.123124 121.1776 
L 312.943549 118.966888 
L 310.763973 117.067544 
L 308.584398 115.479568 
L 306.404823 114.202959 
L 304.661163 113.405858 
L 302.917502 112.808031 
L 301.173842 112.40948 
L 299.430182 112.210205 
L 298.558352 112.185295 
L 283.301325 112.185295 
L 283.301325 112.185295 
L 285.498337 114.62642 
L 286.889778 116.457263 
L 288.061518 118.288106 
L 289.013556 120.118949 
L 289.745893 121.949793 
L 290.258529 123.780636 
L 290.551464 125.611479 
L 290.624698 127.442322 
L 290.478231 129.273165 
L 290.112062 131.104009 
L 289.526192 132.934852 
L 288.720621 134.765695 
L 287.695349 136.596538 
L 286.450376 138.427381 
L 284.985701 140.258225 
L 283.301325 142.089068 
L 283.301325 142.089068 
" clip-path="url(#pa04bc22376)" style="fill: none; stroke: #000000; stroke-width: 2; stroke-linecap: round"/>
   </g>
   <g id="line2d_10">
    <path d="M 272.621407 134.765695 
L 288.720621 134.765695 
" clip-path="url(#pa04bc22376)" style="fill: none; stroke: #000000; stroke-width: 2; stroke-linecap: round"/>
   </g>
   <g id="line2d_11">
    <path d="M 272.621407 119.508668 
L 288.720621 119.508668 
" clip-path="url(#pa04bc22376)" style="fill: none; stroke: #000000; stroke-width: 2; stroke-linecap: round"/>
   </g>
   <g id="line2d_12">
    <path d="M 319.918189 127.137182 
L 330.598108 127.137182 
" clip-path="url(#pa04bc22376)" style="fill: none; stroke: #000000; stroke-width: 2; stroke-linecap: round"/>
   </g>
   <g id="line2d_13">
    <path d="M 243.633056 125.611479 
L 244.610577 125.580132 
L 245.584081 125.486219 
L 246.549568 125.330127 
L 247.503071 125.112496 
L 248.440671 124.834221 
L 249.358515 124.496446 
L 250.252832 124.100558 
L 251.119947 123.648185 
L 251.956297 123.141185 
L 252.758444 122.581641 
L 253.523094 121.971854 
L 254.247103 121.314327 
L 254.927497 120.611765 
L 255.56148 119.867053 
L 256.146446 119.083251 
L 256.679992 118.263582 
L 257.159925 117.411411 
L 257.584274 116.530243 
L 257.951294 115.623696 
L 258.259477 114.695497 
L 258.507557 113.74946 
L 258.694515 112.789472 
L 258.819582 111.819478 
L 258.882244 110.843464 
L 258.882244 109.865441 
L 258.819582 108.889426 
L 258.694515 107.919432 
L 258.507557 106.959444 
L 258.259477 106.013407 
L 257.951294 105.085208 
L 257.584274 104.178662 
L 257.159925 103.297493 
L 256.679992 102.445323 
L 256.146446 101.625653 
L 255.56148 100.841852 
L 254.927497 100.09714 
L 254.247103 99.394577 
L 253.523094 98.737051 
L 252.758444 98.127263 
L 251.956297 97.56772 
L 251.119947 97.06072 
L 250.252832 96.608346 
L 249.358515 96.212459 
L 248.440671 95.874683 
L 247.503071 95.596409 
L 246.549568 95.378778 
L 245.584081 95.222686 
L 244.610577 95.128773 
L 243.633056 95.097426 
L 243.633056 95.097426 
L 223.798921 95.097426 
L 223.798921 110.354452 
L 223.798921 125.611479 
L 243.633056 125.611479 
" clip-path="url(#pa04bc22376)" style="fill: none; stroke: #000000; stroke-width: 2; stroke-linecap: round"/>
   </g>
   <g id="line2d_14">
    <path d="M 213.119003 117.982966 
L 223.798921 117.982966 
" clip-path="url(#pa04bc22376)" style="fill: none; stroke: #000000; stroke-width: 2; stroke-linecap: round"/>
   </g>
   <g id="line2d_15">
    <path d="M 213.119003 102.725939 
L 223.798921 102.725939 
" clip-path="url(#pa04bc22376)" style="fill: none; stroke: #000000; stroke-width: 2; stroke-linecap: round"/>
   </g>
   <g id="line2d_16">
    <path d="M 266.213455 110.354452 
L 269.570001 110.354452 
" clip-path="url(#pa04bc22376)" style="fill: none; stroke: #000000; stroke-width: 2; stroke-linecap: round"/>
   </g>
   <g id="line2d_17">
    <path d="M 182.60495 83.654656 
L 183.582471 83.623308 
L 184.555975 83.529396 
L 185.521462 83.373303 
L 186.474964 83.155673 
L 187.412564 82.877398 
L 188.330408 82.539623 
L 189.224725 82.143735 
L 190.09184 81.691362 
L 190.92819 81.184362 
L 191.730338 80.624818 
L 192.494987 80.01503 
L 193.218997 79.357504 
L 193.899391 78.654942 
L 194.533373 77.91023 
L 195.118339 77.126428 
L 195.651885 76.306758 
L 196.131819 75.454588 
L 196.556167 74.573419 
L 196.923187 73.666873 
L 197.231371 72.738674 
L 197.479451 71.792637 
L 197.666408 70.832649 
L 197.791475 69.862655 
L 197.854137 68.886641 
L 197.854137 67.908617 
L 197.791475 66.932603 
L 197.666408 65.962609 
L 197.479451 65.002621 
L 197.231371 64.056584 
L 196.923187 63.128385 
L 196.556167 62.221839 
L 196.131819 61.34067 
L 195.651885 60.4885 
L 195.118339 59.66883 
L 194.533373 58.885029 
L 193.899391 58.140316 
L 193.218997 57.437754 
L 192.494987 56.780228 
L 191.730338 56.17044 
L 190.92819 55.610897 
L 190.09184 55.103896 
L 189.224725 54.651523 
L 188.330408 54.255635 
L 187.412564 53.91786 
L 186.474964 53.639586 
L 185.521462 53.421955 
L 184.555975 53.265862 
L 183.582471 53.17195 
L 182.60495 53.140602 
L 182.60495 53.140602 
L 162.770815 53.140602 
L 162.770815 68.397629 
L 162.770815 83.654656 
L 182.60495 83.654656 
" clip-path="url(#pa04bc22376)" style="fill: none; stroke: #000000; stroke-width: 2; stroke-linecap: round"/>
   </g>
   <g id="line2d_18">
    <path d="M 152.090896 76.026142 
L 162.770815 76.026142 
" clip-path="url(#pa04bc22376)" style="fill: none; stroke: #000000; stroke-width: 2; stroke-linecap: round"/>
   </g>
   <g id="line2d_19">
    <path d="M 152.090896 60.769116 
L 162.770815 60.769116 
" clip-path="url(#pa04bc22376)" style="fill: none; stroke: #000000; stroke-width: 2; stroke-linecap: round"/>
   </g>
   <g id="line2d_20">
    <path d="M 197.861976 68.397629 
L 208.541895 68.397629 
" clip-path="url(#pa04bc22376)" style="fill: none; stroke: #000000; stroke-width: 2; stroke-linecap: round"/>
   </g>
   <g id="line2d_21">
    <path d="M 121.576843 50.089197 
L 122.554364 50.05785 
L 123.527868 49.963937 
L 124.493355 49.807845 
L 125.446858 49.590214 
L 126.384457 49.311939 
L 127.302302 48.974164 
L 128.196619 48.578276 
L 129.063734 48.125903 
L 129.900084 47.618903 
L 130.702231 47.059359 
L 131.466881 46.449572 
L 132.19089 45.792046 
L 132.871284 45.089483 
L 133.505267 44.344771 
L 134.090233 43.56097 
L 134.623779 42.7413 
L 135.103712 41.889129 
L 135.528061 41.007961 
L 135.895081 40.101414 
L 136.203264 39.173215 
L 136.451344 38.227178 
L 136.638302 37.26719 
L 136.763369 36.297196 
L 136.826031 35.321182 
L 136.826031 34.343159 
L 136.763369 33.367145 
L 136.638302 32.397151 
L 136.451344 31.437163 
L 136.203264 30.491125 
L 135.895081 29.562927 
L 135.528061 28.65638 
L 135.103712 27.775211 
L 134.623779 26.923041 
L 134.090233 26.103371 
L 133.505267 25.31957 
L 132.871284 24.574858 
L 132.19089 23.872295 
L 131.466881 23.214769 
L 130.702231 22.604981 
L 129.900084 22.045438 
L 129.063734 21.538438 
L 128.196619 21.086064 
L 127.302302 20.690177 
L 126.384457 20.352402 
L 125.446858 20.074127 
L 124.493355 19.856496 
L 123.527868 19.700404 
L 122.554364 19.606491 
L 121.576843 19.575144 
L 121.576843 19.575144 
L 101.742708 19.575144 
L 101.742708 34.83217 
L 101.742708 50.089197 
L 121.576843 50.089197 
" clip-path="url(#pa04bc22376)" style="fill: none; stroke: #000000; stroke-width: 2; stroke-linecap: round"/>
   </g>
   <g id="line2d_22">
    <path d="M 91.06279 42.460684 
L 101.742708 42.460684 
" clip-path="url(#pa04bc22376)" style="fill: none; stroke: #000000; stroke-width: 2; stroke-linecap: round"/>
   </g>
   <g id="line2d_23">
    <path d="M 91.06279 27.203657 
L 101.742708 27.203657 
" clip-path="url(#pa04bc22376)" style="fill: none; stroke: #000000; stroke-width: 2; stroke-linecap: round"/>
   </g>
   <g id="line2d_24">
    <path d="M 144.157242 34.83217 
L 147.513788 34.83217 
" clip-path="url(#pa04bc22376)" style="fill: none; stroke: #000000; stroke-width: 2; stroke-linecap: round"/>
   </g>
   <g id="line2d_25">
    <path d="M 152.090896 60.769116 
L 147.513788 60.769116 
L 147.513788 34.83217 
" clip-path="url(#pa04bc22376)" style="fill: none; stroke: #000000; stroke-width: 2; stroke-linecap: round"/>
   </g>
   <g id="line2d_26">
    <path d="M 121.576843 117.220114 
L 122.554364 117.188767 
L 123.527868 117.094854 
L 124.493355 116.938762 
L 125.446858 116.721131 
L 126.384457 116.442856 
L 127.302302 116.105081 
L 128.196619 115.709194 
L 129.063734 115.25682 
L 129.900084 114.74982 
L 130.702231 114.190277 
L 131.466881 113.580489 
L 132.19089 112.922963 
L 132.871284 112.2204 
L 133.505267 111.475688 
L 134.090233 110.691887 
L 134.623779 109.872217 
L 135.103712 109.020047 
L 135.528061 108.138878 
L 135.895081 107.232331 
L 136.203264 106.304133 
L 136.451344 105.358095 
L 136.638302 104.398108 
L 136.763369 103.428114 
L 136.826031 102.452099 
L 136.826031 101.474076 
L 136.763369 100.498062 
L 136.638302 99.528068 
L 136.451344 98.56808 
L 136.203264 97.622043 
L 135.895081 96.693844 
L 135.528061 95.787297 
L 135.103712 94.906129 
L 134.623779 94.053958 
L 134.090233 93.234289 
L 133.505267 92.450487 
L 132.871284 91.705775 
L 132.19089 91.003212 
L 131.466881 90.345686 
L 130.702231 89.735899 
L 129.900084 89.176355 
L 129.063734 88.669355 
L 128.196619 88.216982 
L 127.302302 87.821094 
L 126.384457 87.483319 
L 125.446858 87.205044 
L 124.493355 86.987413 
L 123.527868 86.831321 
L 122.554364 86.737408 
L 121.576843 86.706061 
L 121.576843 86.706061 
L 101.742708 86.706061 
L 101.742708 101.963088 
L 101.742708 117.220114 
L 121.576843 117.220114 
" clip-path="url(#pa04bc22376)" style="fill: none; stroke: #000000; stroke-width: 2; stroke-linecap: round"/>
   </g>
   <g id="line2d_27">
    <path d="M 91.06279 109.591601 
L 101.742708 109.591601 
" clip-path="url(#pa04bc22376)" style="fill: none; stroke: #000000; stroke-width: 2; stroke-linecap: round"/>
   </g>
   <g id="line2d_28">
    <path d="M 91.06279 94.334574 
L 101.742708 94.334574 
" clip-path="url(#pa04bc22376)" style="fill: none; stroke: #000000; stroke-width: 2; stroke-linecap: round"/>
   </g>
   <g id="line2d_29">
    <path d="M 144.157242 101.963088 
L 147.513788 101.963088 
" clip-path="url(#pa04bc22376)" style="fill: none; stroke: #000000; stroke-width: 2; stroke-linecap: round"/>
   </g>
   <g id="line2d_30">
    <path d="M 25.457575 118.745817 
L 42.392875 118.745817 
M 69.550382 118.745817 
L 86.485682 118.745817 
" clip-path="url(#pa04bc22376)" style="fill: none; stroke: #000000; stroke-width: 2; stroke-linecap: round"/>
   </g>
   <g id="line2d_31">
    <path d="M 42.392875 103.48879 
L 62.227009 118.745817 
L 42.392875 134.002844 
L 42.392875 103.48879 
" clip-path="url(#pa04bc22376)" style="fill: none; stroke: #000000; stroke-width: 2; stroke-linecap: round"/>
   </g>
   <g id="line2d_32">
    <path d="M 91.06279 109.591601 
L 86.485682 109.591601 
L 86.485682 118.745817 
" clip-path="url(#pa04bc22376)" style="fill: none; stroke: #000000; stroke-width: 2; stroke-linecap: round"/>
   </g>
   <g id="line2d_33">
    <path d="M 152.090896 76.026142 
L 147.513788 76.026142 
L 147.513788 101.963088 
" clip-path="url(#pa04bc22376)" style="fill: none; stroke: #000000; stroke-width: 2; stroke-linecap: round"/>
   </g>
   <g id="line2d_34">
    <path d="M 213.119003 102.725939 
L 208.541895 102.725939 
L 208.541895 68.397629 
" clip-path="url(#pa04bc22376)" style="fill: none; stroke: #000000; stroke-width: 2; stroke-linecap: round"/>
   </g>
   <g id="line2d_35">
    <path d="M 182.60495 167.568302 
L 183.582471 167.536955 
L 184.555975 167.443042 
L 185.521462 167.28695 
L 186.474964 167.069319 
L 187.412564 166.791044 
L 188.330408 166.453269 
L 189.224725 166.057382 
L 190.09184 165.605008 
L 190.92819 165.098008 
L 191.730338 164.538465 
L 192.494987 163.928677 
L 193.218997 163.271151 
L 193.899391 162.568588 
L 194.533373 161.823876 
L 195.118339 161.040075 
L 195.651885 160.220405 
L 196.131819 159.368235 
L 196.556167 158.487066 
L 196.923187 157.580519 
L 197.231371 156.652321 
L 197.479451 155.706283 
L 197.666408 154.746295 
L 197.791475 153.776301 
L 197.854137 152.800287 
L 197.854137 151.822264 
L 197.791475 150.84625 
L 197.666408 149.876256 
L 197.479451 148.916268 
L 197.231371 147.970231 
L 196.923187 147.042032 
L 196.556167 146.135485 
L 196.131819 145.254317 
L 195.651885 144.402146 
L 195.118339 143.582476 
L 194.533373 142.798675 
L 193.899391 142.053963 
L 193.218997 141.3514 
L 192.494987 140.693874 
L 191.730338 140.084087 
L 190.92819 139.524543 
L 190.09184 139.017543 
L 189.224725 138.56517 
L 188.330408 138.169282 
L 187.412564 137.831507 
L 186.474964 137.553232 
L 185.521462 137.335601 
L 184.555975 137.179509 
L 183.582471 137.085596 
L 182.60495 137.054249 
L 182.60495 137.054249 
L 162.770815 137.054249 
L 162.770815 152.311276 
L 162.770815 167.568302 
L 182.60495 167.568302 
" clip-path="url(#pa04bc22376)" style="fill: none; stroke: #000000; stroke-width: 2; stroke-linecap: round"/>
   </g>
   <g id="line2d_36">
    <path d="M 152.090896 159.939789 
L 162.770815 159.939789 
" clip-path="url(#pa04bc22376)" style="fill: none; stroke: #000000; stroke-width: 2; stroke-linecap: round"/>
   </g>
   <g id="line2d_37">
    <path d="M 152.090896 144.682762 
L 162.770815 144.682762 
" clip-path="url(#pa04bc22376)" style="fill: none; stroke: #000000; stroke-width: 2; stroke-linecap: round"/>
   </g>
   <g id="line2d_38">
    <path d="M 205.185349 152.311276 
L 208.541895 152.311276 
" clip-path="url(#pa04bc22376)" style="fill: none; stroke: #000000; stroke-width: 2; stroke-linecap: round"/>
   </g>
   <g id="line2d_39">
    <path d="M 213.119003 117.982966 
L 208.541895 117.982966 
L 208.541895 152.311276 
" clip-path="url(#pa04bc22376)" style="fill: none; stroke: #000000; stroke-width: 2; stroke-linecap: round"/>
   </g>
   <g id="line2d_40">
    <path d="M 272.621407 119.508668 
L 269.570001 119.508668 
L 269.570001 110.354452 
" clip-path="url(#pa04bc22376)" style="fill: none; stroke: #000000; stroke-width: 2; stroke-linecap: round"/>
   </g>
   <g id="line2d_41">
    <path d="M 335.175216 136.291398 
L 330.598108 136.291398 
L 330.598108 127.137182 
" clip-path="url(#pa04bc22376)" style="fill: none; stroke: #000000; stroke-width: 2; stroke-linecap: round"/>
   </g>
   <g id="line2d_42">
    <path d="M 394.67762 153.074127 
L 391.626214 153.074127 
L 391.626214 143.919911 
" clip-path="url(#pa04bc22376)" style="fill: none; stroke: #000000; stroke-width: 2; stroke-linecap: round"/>
   </g>
   <g id="text_1">
    <g clip-path="url(#pa04bc22376)">
     <!-- output -->
     <g transform="translate(455.705726 164.151859) scale(0.125 -0.125)">
      <defs>
       <path id="DejaVuSans-6f" d="M 1959 3097 
Q 1497 3097 1228 2736 
Q 959 2375 959 1747 
Q 959 1119 1226 758 
Q 1494 397 1959 397 
Q 2419 397 2687 759 
Q 2956 1122 2956 1747 
Q 2956 2369 2687 2733 
Q 2419 3097 1959 3097 
z
M 1959 3584 
Q 2709 3584 3137 3096 
Q 3566 2609 3566 1747 
Q 3566 888 3137 398 
Q 2709 -91 1959 -91 
Q 1206 -91 779 398 
Q 353 888 353 1747 
Q 353 2609 779 3096 
Q 1206 3584 1959 3584 
z
" transform="scale(0.015625)"/>
       <path id="DejaVuSans-75" d="M 544 1381 
L 544 3500 
L 1119 3500 
L 1119 1403 
Q 1119 906 1312 657 
Q 1506 409 1894 409 
Q 2359 409 2629 706 
Q 2900 1003 2900 1516 
L 2900 3500 
L 3475 3500 
L 3475 0 
L 2900 0 
L 2900 538 
Q 2691 219 2414 64 
Q 2138 -91 1772 -91 
Q 1169 -91 856 284 
Q 544 659 544 1381 
z
M 1991 3584 
L 1991 3584 
z
" transform="scale(0.015625)"/>
       <path id="DejaVuSans-74" d="M 1172 4494 
L 1172 3500 
L 2356 3500 
L 2356 3053 
L 1172 3053 
L 1172 1153 
Q 1172 725 1289 603 
Q 1406 481 1766 481 
L 2356 481 
L 2356 0 
L 1766 0 
Q 1100 0 847 248 
Q 594 497 594 1153 
L 594 3053 
L 172 3053 
L 172 3500 
L 594 3500 
L 594 4494 
L 1172 4494 
z
" transform="scale(0.015625)"/>
       <path id="DejaVuSans-70" d="M 1159 525 
L 1159 -1331 
L 581 -1331 
L 581 3500 
L 1159 3500 
L 1159 2969 
Q 1341 3281 1617 3432 
Q 1894 3584 2278 3584 
Q 2916 3584 3314 3078 
Q 3713 2572 3713 1747 
Q 3713 922 3314 415 
Q 2916 -91 2278 -91 
Q 1894 -91 1617 61 
Q 1341 213 1159 525 
z
M 3116 1747 
Q 3116 2381 2855 2742 
Q 2594 3103 2138 3103 
Q 1681 3103 1420 2742 
Q 1159 2381 1159 1747 
Q 1159 1113 1420 752 
Q 1681 391 2138 391 
Q 2594 391 2855 752 
Q 3116 1113 3116 1747 
z
" transform="scale(0.015625)"/>
      </defs>
      <use xlink:href="#DejaVuSans-6f"/>
      <use xlink:href="#DejaVuSans-75" x="61.181641"/>
      <use xlink:href="#DejaVuSans-74" x="124.560547"/>
      <use xlink:href="#DejaVuSans-70" x="163.769531"/>
      <use xlink:href="#DejaVuSans-75" x="227.246094"/>
      <use xlink:href="#DejaVuSans-74" x="290.625"/>
     </g>
    </g>
   </g>
   <g id="text_2">
    <g clip-path="url(#pa04bc22376)">
     <!-- FALSE -->
     <g transform="translate(354.227777 171.780372) scale(0.125 -0.125)">
      <defs>
       <path id="DejaVuSans-46" d="M 628 4666 
L 3309 4666 
L 3309 4134 
L 1259 4134 
L 1259 2759 
L 3109 2759 
L 3109 2228 
L 1259 2228 
L 1259 0 
L 628 0 
L 628 4666 
z
" transform="scale(0.015625)"/>
       <path id="DejaVuSans-41" d="M 2188 4044 
L 1331 1722 
L 3047 1722 
L 2188 4044 
z
M 1831 4666 
L 2547 4666 
L 4325 0 
L 3669 0 
L 3244 1197 
L 1141 1197 
L 716 0 
L 50 0 
L 1831 4666 
z
" transform="scale(0.015625)"/>
       <path id="DejaVuSans-4c" d="M 628 4666 
L 1259 4666 
L 1259 531 
L 3531 531 
L 3531 0 
L 628 0 
L 628 4666 
z
" transform="scale(0.015625)"/>
       <path id="DejaVuSans-53" d="M 3425 4513 
L 3425 3897 
Q 3066 4069 2747 4153 
Q 2428 4238 2131 4238 
Q 1616 4238 1336 4038 
Q 1056 3838 1056 3469 
Q 1056 3159 1242 3001 
Q 1428 2844 1947 2747 
L 2328 2669 
Q 3034 2534 3370 2195 
Q 3706 1856 3706 1288 
Q 3706 609 3251 259 
Q 2797 -91 1919 -91 
Q 1588 -91 1214 -16 
Q 841 59 441 206 
L 441 856 
Q 825 641 1194 531 
Q 1563 422 1919 422 
Q 2459 422 2753 634 
Q 3047 847 3047 1241 
Q 3047 1584 2836 1778 
Q 2625 1972 2144 2069 
L 1759 2144 
Q 1053 2284 737 2584 
Q 422 2884 422 3419 
Q 422 4038 858 4394 
Q 1294 4750 2059 4750 
Q 2388 4750 2728 4690 
Q 3069 4631 3425 4513 
z
" transform="scale(0.015625)"/>
       <path id="DejaVuSans-45" d="M 628 4666 
L 3578 4666 
L 3578 4134 
L 1259 4134 
L 1259 2753 
L 3481 2753 
L 3481 2222 
L 1259 2222 
L 1259 531 
L 3634 531 
L 3634 0 
L 628 0 
L 628 4666 
z
" transform="scale(0.015625)"/>
      </defs>
      <use xlink:href="#DejaVuSans-46"/>
      <use xlink:href="#DejaVuSans-41" x="48.394531"/>
      <use xlink:href="#DejaVuSans-4c" x="116.802734"/>
      <use xlink:href="#DejaVuSans-53" x="172.515625"/>
      <use xlink:href="#DejaVuSans-45" x="235.992188"/>
     </g>
    </g>
   </g>
   <g id="text_3">
    <g clip-path="url(#pa04bc22376)">
     <!-- TRUE -->
     <g transform="translate(298.756623 154.997643) scale(0.125 -0.125)">
      <defs>
       <path id="DejaVuSans-54" d="M -19 4666 
L 3928 4666 
L 3928 4134 
L 2272 4134 
L 2272 0 
L 1638 0 
L 1638 4134 
L -19 4134 
L -19 4666 
z
" transform="scale(0.015625)"/>
       <path id="DejaVuSans-52" d="M 2841 2188 
Q 3044 2119 3236 1894 
Q 3428 1669 3622 1275 
L 4263 0 
L 3584 0 
L 2988 1197 
Q 2756 1666 2539 1819 
Q 2322 1972 1947 1972 
L 1259 1972 
L 1259 0 
L 628 0 
L 628 4666 
L 2053 4666 
Q 2853 4666 3247 4331 
Q 3641 3997 3641 3322 
Q 3641 2881 3436 2590 
Q 3231 2300 2841 2188 
z
M 1259 4147 
L 1259 2491 
L 2053 2491 
Q 2509 2491 2742 2702 
Q 2975 2913 2975 3322 
Q 2975 3731 2742 3939 
Q 2509 4147 2053 4147 
L 1259 4147 
z
" transform="scale(0.015625)"/>
       <path id="DejaVuSans-55" d="M 556 4666 
L 1191 4666 
L 1191 1831 
Q 1191 1081 1462 751 
Q 1734 422 2344 422 
Q 2950 422 3222 751 
Q 3494 1081 3494 1831 
L 3494 4666 
L 4128 4666 
L 4128 1753 
Q 4128 841 3676 375 
Q 3225 -91 2344 -91 
Q 1459 -91 1007 375 
Q 556 841 556 1753 
L 556 4666 
z
" transform="scale(0.015625)"/>
      </defs>
      <use xlink:href="#DejaVuSans-54"/>
      <use xlink:href="#DejaVuSans-52" x="61.083984"/>
      <use xlink:href="#DejaVuSans-55" x="130.566406"/>
      <use xlink:href="#DejaVuSans-45" x="203.759766"/>
     </g>
    </g>
   </g>
   <g id="text_4">
    <g clip-path="url(#pa04bc22376)">
     <!-- FALSE -->
     <g transform="translate(232.171564 138.214914) scale(0.125 -0.125)">
      <use xlink:href="#DejaVuSans-46"/>
      <use xlink:href="#DejaVuSans-41" x="48.394531"/>
      <use xlink:href="#DejaVuSans-4c" x="116.802734"/>
      <use xlink:href="#DejaVuSans-53" x="172.515625"/>
      <use xlink:href="#DejaVuSans-45" x="235.992188"/>
     </g>
    </g>
   </g>
   <g id="text_5">
    <g clip-path="url(#pa04bc22376)">
     <!-- a -->
     <g transform="translate(80.351228 30.652876) scale(0.125 -0.125)">
      <defs>
       <path id="DejaVuSans-61" d="M 2194 1759 
Q 1497 1759 1228 1600 
Q 959 1441 959 1056 
Q 959 750 1161 570 
Q 1363 391 1709 391 
Q 2188 391 2477 730 
Q 2766 1069 2766 1631 
L 2766 1759 
L 2194 1759 
z
M 3341 1997 
L 3341 0 
L 2766 0 
L 2766 531 
Q 2569 213 2275 61 
Q 1981 -91 1556 -91 
Q 1019 -91 701 211 
Q 384 513 384 1019 
Q 384 1609 779 1909 
Q 1175 2209 1959 2209 
L 2766 2209 
L 2766 2266 
Q 2766 2663 2505 2880 
Q 2244 3097 1772 3097 
Q 1472 3097 1187 3025 
Q 903 2953 641 2809 
L 641 3341 
Q 956 3463 1253 3523 
Q 1550 3584 1831 3584 
Q 2591 3584 2966 3190 
Q 3341 2797 3341 1997 
z
" transform="scale(0.015625)"/>
      </defs>
      <use xlink:href="#DejaVuSans-61"/>
     </g>
    </g>
   </g>
   <g id="text_6">
    <g clip-path="url(#pa04bc22376)">
     <!-- b -->
     <g transform="translate(80.075838 45.909903) scale(0.125 -0.125)">
      <defs>
       <path id="DejaVuSans-62" d="M 3116 1747 
Q 3116 2381 2855 2742 
Q 2594 3103 2138 3103 
Q 1681 3103 1420 2742 
Q 1159 2381 1159 1747 
Q 1159 1113 1420 752 
Q 1681 391 2138 391 
Q 2594 391 2855 752 
Q 3116 1113 3116 1747 
z
M 1159 2969 
Q 1341 3281 1617 3432 
Q 1894 3584 2278 3584 
Q 2916 3584 3314 3078 
Q 3713 2572 3713 1747 
Q 3713 922 3314 415 
Q 2916 -91 2278 -91 
Q 1894 -91 1617 61 
Q 1341 213 1159 525 
L 1159 0 
L 581 0 
L 581 4863 
L 1159 4863 
L 1159 2969 
z
" transform="scale(0.015625)"/>
      </defs>
      <use xlink:href="#DejaVuSans-62"/>
     </g>
    </g>
   </g>
   <g id="text_7">
    <g clip-path="url(#pa04bc22376)">
     <!-- c -->
     <g transform="translate(81.138338 97.783793) scale(0.125 -0.125)">
      <defs>
       <path id="DejaVuSans-63" d="M 3122 3366 
L 3122 2828 
Q 2878 2963 2633 3030 
Q 2388 3097 2138 3097 
Q 1578 3097 1268 2742 
Q 959 2388 959 1747 
Q 959 1106 1268 751 
Q 1578 397 2138 397 
Q 2388 397 2633 464 
Q 2878 531 3122 666 
L 3122 134 
Q 2881 22 2623 -34 
Q 2366 -91 2075 -91 
Q 1284 -91 818 406 
Q 353 903 353 1747 
Q 353 2603 823 3093 
Q 1294 3584 2113 3584 
Q 2378 3584 2631 3529 
Q 2884 3475 3122 3366 
z
" transform="scale(0.015625)"/>
      </defs>
      <use xlink:href="#DejaVuSans-63"/>
     </g>
    </g>
   </g>
   <g id="text_8">
    <g clip-path="url(#pa04bc22376)">
     <!-- c -->
     <g transform="translate(15.533123 122.195036) scale(0.125 -0.125)">
      <use xlink:href="#DejaVuSans-63"/>
     </g>
    </g>
   </g>
   <g id="text_9">
    <g clip-path="url(#pa04bc22376)">
     <!-- d -->
     <g transform="translate(141.103944 148.131981) scale(0.125 -0.125)">
      <defs>
       <path id="DejaVuSans-64" d="M 2906 2969 
L 2906 4863 
L 3481 4863 
L 3481 0 
L 2906 0 
L 2906 525 
Q 2725 213 2448 61 
Q 2172 -91 1784 -91 
Q 1150 -91 751 415 
Q 353 922 353 1747 
Q 353 2572 751 3078 
Q 1150 3584 1784 3584 
Q 2172 3584 2448 3432 
Q 2725 3281 2906 2969 
z
M 947 1747 
Q 947 1113 1208 752 
Q 1469 391 1925 391 
Q 2381 391 2643 752 
Q 2906 1113 2906 1747 
Q 2906 2381 2643 2742 
Q 2381 3103 1925 3103 
Q 1469 3103 1208 2742 
Q 947 2381 947 1747 
z
" transform="scale(0.015625)"/>
      </defs>
      <use xlink:href="#DejaVuSans-64"/>
     </g>
    </g>
   </g>
   <g id="text_10">
    <g clip-path="url(#pa04bc22376)">
     <!-- FALSE -->
     <g transform="translate(111.641053 163.389008) scale(0.125 -0.125)">
      <use xlink:href="#DejaVuSans-46"/>
      <use xlink:href="#DejaVuSans-41" x="48.394531"/>
      <use xlink:href="#DejaVuSans-4c" x="116.802734"/>
      <use xlink:href="#DejaVuSans-53" x="172.515625"/>
      <use xlink:href="#DejaVuSans-45" x="235.992188"/>
     </g>
    </g>
   </g>
  </g>
 </g>
 <defs>
  <clipPath id="pa04bc22376">
   <rect x="7.2" y="7.2" width="497.938493" height="175.032"/>
  </clipPath>
 </defs>
</svg>
