<?xml version="1.0" encoding="utf-8" standalone="no"?>
<!DOCTYPE svg PUBLIC "-//W3C//DTD SVG 1.1//EN"
  "http://www.w3.org/Graphics/SVG/1.1/DTD/svg11.dtd">
<svg xmlns:xlink="http://www.w3.org/1999/xlink" width="472.920764pt" height="186.984pt" viewBox="0 0 472.920764 186.984" xmlns="http://www.w3.org/2000/svg" version="1.1">
 <metadata>
  <rdf:RDF xmlns:dc="http://purl.org/dc/elements/1.1/" xmlns:cc="http://creativecommons.org/ns#" xmlns:rdf="http://www.w3.org/1999/02/22-rdf-syntax-ns#">
   <cc:Work>
    <dc:type rdf:resource="http://purl.org/dc/dcmitype/StillImage"/>
    <dc:date>2022-12-21T12:37:35.088054</dc:date>
    <dc:format>image/svg+xml</dc:format>
    <dc:creator>
     <cc:Agent>
      <dc:title>Matplotlib v3.6.2, https://matplotlib.org/</dc:title>
     </cc:Agent>
    </dc:creator>
   </cc:Work>
  </rdf:RDF>
 </metadata>
 <defs>
  <style type="text/css">*{stroke-linejoin: round; stroke-linecap: butt}</style>
 </defs>
 <g id="figure_1">
  <g id="patch_1">
   <path d="M 0 186.984 
L 472.920764 186.984 
L 472.920764 0 
L 0 0 
L 0 186.984 
z
" style="fill: none"/>
  </g>
  <g id="axes_1">
   <g id="patch_2">
    <path d="M 284.151546 123.177126 
C 285.122694 123.177126 286.054196 122.791285 286.740901 122.10458 
C 287.427606 121.417876 287.813446 120.486373 287.813446 119.515226 
C 287.813446 118.544079 287.427606 117.612576 286.740901 116.925871 
C 286.054196 116.239167 285.122694 115.853326 284.151546 115.853326 
C 283.180399 115.853326 282.248897 116.239167 281.562192 116.925871 
C 280.875487 117.612576 280.489646 118.544079 280.489646 119.515226 
C 280.489646 120.486373 280.875487 121.417876 281.562192 122.10458 
C 282.248897 122.791285 283.180399 123.177126 284.151546 123.177126 
L 284.151546 123.177126 
z
" clip-path="url(#p385d77a52d)" style="fill: none; stroke: #000000; stroke-width: 2; stroke-linejoin: miter"/>
   </g>
   <g id="patch_3">
    <path d="M 162.088206 64.434144 
C 163.059354 64.434144 163.990856 64.048303 164.677561 63.361598 
C 165.364266 62.674893 165.750107 61.743391 165.750107 60.772244 
C 165.750107 59.801096 165.364266 58.869594 164.677561 58.182889 
C 163.990856 57.496184 163.059354 57.110343 162.088206 57.110343 
C 161.117059 57.110343 160.185557 57.496184 159.498852 58.182889 
C 158.812147 58.869594 158.426306 59.801096 158.426306 60.772244 
C 158.426306 61.743391 158.812147 62.674893 159.498852 63.361598 
C 160.185557 64.048303 161.117059 64.434144 162.088206 64.434144 
L 162.088206 64.434144 
z
" clip-path="url(#p385d77a52d)" style="fill: none; stroke: #000000; stroke-width: 2; stroke-linejoin: miter"/>
   </g>
   <g id="patch_4">
    <path d="M 87.47699 30.866725 
C 88.448137 30.866725 89.379639 30.480884 90.066344 29.79418 
C 90.753049 29.107475 91.13889 28.175972 91.13889 27.204825 
C 91.13889 26.233678 90.753049 25.302176 90.066344 24.615471 
C 89.379639 23.928766 88.448137 23.542925 87.47699 23.542925 
C 86.505843 23.542925 85.57434 23.928766 84.887635 24.615471 
C 84.200931 25.302176 83.81509 26.233678 83.81509 27.204825 
C 83.81509 28.175972 84.200931 29.107475 84.887635 29.79418 
C 85.57434 30.480884 86.505843 30.866725 87.47699 30.866725 
L 87.47699 30.866725 
z
" clip-path="url(#p385d77a52d)" style="fill: none; stroke: #000000; stroke-width: 2; stroke-linejoin: miter"/>
   </g>
   <g id="patch_5">
    <path d="M 162.088206 148.35269 
C 163.059354 148.35269 163.990856 147.966849 164.677561 147.280144 
C 165.364266 146.593439 165.750107 145.661937 165.750107 144.69079 
C 165.750107 143.719642 165.364266 142.78814 164.677561 142.101435 
C 163.990856 141.41473 163.059354 141.02889 162.088206 141.02889 
C 161.117059 141.02889 160.185557 141.41473 159.498852 142.101435 
C 158.812147 142.78814 158.426306 143.719642 158.426306 144.69079 
C 158.426306 145.661937 158.812147 146.593439 159.498852 147.280144 
C 160.185557 147.966849 161.117059 148.35269 162.088206 148.35269 
L 162.088206 148.35269 
z
" clip-path="url(#p385d77a52d)" style="fill: none; stroke: #000000; stroke-width: 2; stroke-linejoin: miter"/>
   </g>
   <g id="patch_6">
    <path d="M 87.47699 165.136399 
C 88.448137 165.136399 89.379639 164.750558 90.066344 164.063853 
C 90.753049 163.377149 91.13889 162.445646 91.13889 161.474499 
C 91.13889 160.503352 90.753049 159.571849 90.066344 158.885145 
C 89.379639 158.19844 88.448137 157.812599 87.47699 157.812599 
C 86.505843 157.812599 85.57434 158.19844 84.887635 158.885145 
C 84.200931 159.571849 83.81509 160.503352 83.81509 161.474499 
C 83.81509 162.445646 84.200931 163.377149 84.887635 164.063853 
C 85.57434 164.750558 86.505843 165.136399 87.47699 165.136399 
L 87.47699 165.136399 
z
" clip-path="url(#p385d77a52d)" style="fill: none; stroke: #000000; stroke-width: 2; stroke-linejoin: miter"/>
   </g>
   <g id="line2d_1">
    <path d="M 387.295068 168.340562 
L 388.272647 168.309213 
L 389.246208 168.215295 
L 390.211751 168.059193 
L 391.165309 167.84155 
L 392.102964 167.563259 
L 393.020861 167.225464 
L 393.915231 166.829553 
L 394.782396 166.377153 
L 395.618795 165.870124 
L 396.42099 165.310547 
L 397.185684 164.700724 
L 397.909735 164.04316 
L 398.590169 163.340556 
L 399.224189 162.5958 
L 399.809189 161.811953 
L 400.342766 160.992235 
L 400.822728 160.140015 
L 401.247101 159.258795 
L 401.614142 158.352196 
L 401.922343 157.423943 
L 402.170438 156.47785 
L 402.357407 155.517806 
L 402.482481 154.547756 
L 402.545147 153.571685 
L 402.545147 152.593604 
L 402.482481 151.617533 
L 402.357407 150.647482 
L 402.170438 149.687438 
L 401.922343 148.741346 
L 401.614142 147.813093 
L 401.247101 146.906494 
L 400.822728 146.025273 
L 400.342766 145.173053 
L 399.809189 144.353336 
L 399.224189 143.569488 
L 398.590169 142.824733 
L 397.909735 142.122129 
L 397.185684 141.464565 
L 396.42099 140.854741 
L 395.618795 140.295165 
L 394.782396 139.788136 
L 393.915231 139.335736 
L 393.020861 138.939825 
L 392.102964 138.60203 
L 391.165309 138.323739 
L 390.211751 138.106096 
L 389.246208 137.949994 
L 388.272647 137.856076 
L 387.295068 137.824727 
L 387.295068 137.824727 
L 367.459776 137.824727 
L 367.459776 153.082644 
L 367.459776 168.340562 
L 387.295068 168.340562 
" clip-path="url(#p385d77a52d)" style="fill: none; stroke: #000000; stroke-width: 2; stroke-linecap: round"/>
   </g>
   <g id="line2d_2">
    <path d="M 356.779233 160.711603 
L 367.459776 160.711603 
" clip-path="url(#p385d77a52d)" style="fill: none; stroke: #000000; stroke-width: 2; stroke-linecap: round"/>
   </g>
   <g id="line2d_3">
    <path d="M 356.779233 145.453686 
L 367.459776 145.453686 
" clip-path="url(#p385d77a52d)" style="fill: none; stroke: #000000; stroke-width: 2; stroke-linecap: round"/>
   </g>
   <g id="line2d_4">
    <path d="M 402.552986 153.082644 
L 413.233528 153.082644 
" clip-path="url(#p385d77a52d)" style="fill: none; stroke: #000000; stroke-width: 2; stroke-linecap: round"/>
   </g>
   <g id="line2d_5">
    <path d="M 304.902314 151.251694 
L 321.903994 151.152051 
L 323.647756 150.85312 
L 325.391518 150.354902 
L 327.13528 149.657398 
L 328.879042 148.760606 
L 331.058744 147.359368 
L 333.238447 145.646745 
L 335.418149 143.622736 
L 337.597851 141.28734 
L 339.777554 138.640558 
L 341.521316 136.298935 
L 341.521316 136.298935 
L 338.905673 132.861233 
L 336.72597 130.339006 
L 334.546268 128.128165 
L 332.366566 126.22871 
L 330.186863 124.640641 
L 328.007161 123.363958 
L 326.263399 122.566809 
L 324.519637 121.968948 
L 322.775875 121.570374 
L 321.032113 121.371087 
L 320.160232 121.346176 
L 304.902314 121.346176 
L 304.902314 121.346176 
L 307.099454 123.787443 
L 308.490976 125.618393 
L 309.662784 127.449343 
L 310.614878 129.280293 
L 311.347258 131.111243 
L 311.859924 132.942193 
L 312.152876 134.773143 
L 312.226114 136.604094 
L 312.079638 138.435044 
L 311.713448 140.265994 
L 311.127544 142.096944 
L 310.321926 143.927894 
L 309.296594 145.758844 
L 308.051548 147.589794 
L 306.586788 149.420744 
L 304.902314 151.251694 
L 304.902314 151.251694 
" clip-path="url(#p385d77a52d)" style="fill: none; stroke: #000000; stroke-width: 2; stroke-linecap: round"/>
   </g>
   <g id="line2d_6">
    <path d="M 294.221772 143.927894 
L 310.321926 143.927894 
" clip-path="url(#p385d77a52d)" style="fill: none; stroke: #000000; stroke-width: 2; stroke-linecap: round"/>
   </g>
   <g id="line2d_7">
    <path d="M 294.221772 128.669976 
L 310.321926 128.669976 
" clip-path="url(#p385d77a52d)" style="fill: none; stroke: #000000; stroke-width: 2; stroke-linecap: round"/>
   </g>
   <g id="line2d_8">
    <path d="M 341.521316 136.298935 
L 352.201858 136.298935 
" clip-path="url(#p385d77a52d)" style="fill: none; stroke: #000000; stroke-width: 2; stroke-linecap: round"/>
   </g>
   <g id="line2d_9">
    <path d="M 243.870644 134.467985 
L 260.872324 134.368342 
L 262.616086 134.069411 
L 264.359848 133.571193 
L 266.10361 132.873688 
L 267.847372 131.976896 
L 270.027074 130.575659 
L 272.206777 128.863036 
L 274.386479 126.839026 
L 276.566182 124.503631 
L 278.745884 121.856849 
L 280.489646 119.515226 
L 280.489646 119.515226 
L 277.874003 116.077524 
L 275.694301 113.555297 
L 273.514598 111.344455 
L 271.334896 109.445 
L 269.155193 107.856931 
L 266.975491 106.580249 
L 265.231729 105.7831 
L 263.487967 105.185239 
L 261.744205 104.786665 
L 260.000443 104.587378 
L 259.128562 104.562467 
L 243.870644 104.562467 
L 243.870644 104.562467 
L 246.067784 107.003734 
L 247.459306 108.834684 
L 248.631114 110.665634 
L 249.583208 112.496584 
L 250.315588 114.327534 
L 250.828254 116.158484 
L 251.121206 117.989434 
L 251.194444 119.820384 
L 251.047968 121.651334 
L 250.681778 123.482284 
L 250.095874 125.313235 
L 249.290256 127.144185 
L 248.264924 128.975135 
L 247.019878 130.806085 
L 245.555118 132.637035 
L 243.870644 134.467985 
L 243.870644 134.467985 
" clip-path="url(#p385d77a52d)" style="fill: none; stroke: #000000; stroke-width: 2; stroke-linecap: round"/>
   </g>
   <g id="line2d_10">
    <path d="M 233.190102 127.144185 
L 249.290256 127.144185 
" clip-path="url(#p385d77a52d)" style="fill: none; stroke: #000000; stroke-width: 2; stroke-linecap: round"/>
   </g>
   <g id="line2d_11">
    <path d="M 233.190102 111.886267 
L 249.290256 111.886267 
" clip-path="url(#p385d77a52d)" style="fill: none; stroke: #000000; stroke-width: 2; stroke-linecap: round"/>
   </g>
   <g id="line2d_12">
    <path d="M 287.813446 119.515226 
L 291.170188 119.515226 
" clip-path="url(#p385d77a52d)" style="fill: none; stroke: #000000; stroke-width: 2; stroke-linecap: round"/>
   </g>
   <g id="line2d_13">
    <path d="M 182.838974 117.684276 
L 199.840654 117.584632 
L 201.584416 117.285702 
L 203.328178 116.787484 
L 205.07194 116.089979 
L 206.815702 115.193187 
L 208.995404 113.79195 
L 211.175107 112.079327 
L 213.354809 110.055317 
L 215.534512 107.719922 
L 217.714214 105.07314 
L 219.457976 102.731517 
L 219.457976 102.731517 
L 216.842333 99.293814 
L 214.662631 96.771587 
L 212.482928 94.560746 
L 210.303226 92.661291 
L 208.123523 91.073222 
L 205.943821 89.796539 
L 204.200059 88.999391 
L 202.456297 88.40153 
L 200.712535 88.002956 
L 198.968773 87.803668 
L 198.096892 87.778758 
L 182.838974 87.778758 
L 182.838974 87.778758 
L 185.036114 90.220024 
L 186.427636 92.050974 
L 187.599444 93.881925 
L 188.551538 95.712875 
L 189.283918 97.543825 
L 189.796585 99.374775 
L 190.089537 101.205725 
L 190.162775 103.036675 
L 190.016299 104.867625 
L 189.650109 106.698575 
L 189.064204 108.529525 
L 188.258586 110.360475 
L 187.233254 112.191426 
L 185.988208 114.022376 
L 184.523448 115.853326 
L 182.838974 117.684276 
L 182.838974 117.684276 
" clip-path="url(#p385d77a52d)" style="fill: none; stroke: #000000; stroke-width: 2; stroke-linecap: round"/>
   </g>
   <g id="line2d_14">
    <path d="M 172.158432 110.360475 
L 188.258586 110.360475 
" clip-path="url(#p385d77a52d)" style="fill: none; stroke: #000000; stroke-width: 2; stroke-linecap: round"/>
   </g>
   <g id="line2d_15">
    <path d="M 172.158432 95.102558 
L 188.258586 95.102558 
" clip-path="url(#p385d77a52d)" style="fill: none; stroke: #000000; stroke-width: 2; stroke-linecap: round"/>
   </g>
   <g id="line2d_16">
    <path d="M 219.457976 102.731517 
L 230.138518 102.731517 
" clip-path="url(#p385d77a52d)" style="fill: none; stroke: #000000; stroke-width: 2; stroke-linecap: round"/>
   </g>
   <g id="line2d_17">
    <path d="M 143.168389 76.030161 
L 144.145967 75.998812 
L 145.119528 75.904894 
L 146.085071 75.748792 
L 147.038629 75.531149 
L 147.976284 75.252858 
L 148.894182 74.915063 
L 149.788551 74.519152 
L 150.655717 74.066753 
L 151.492115 73.559723 
L 152.29431 73.000147 
L 153.059004 72.390323 
L 153.783056 71.732759 
L 154.463489 71.030155 
L 155.097509 70.2854 
L 155.682509 69.501552 
L 156.216086 68.681835 
L 156.696048 67.829615 
L 157.120421 66.948394 
L 157.487462 66.041795 
L 157.795664 65.113542 
L 158.043758 64.16745 
L 158.230727 63.207406 
L 158.355801 62.237355 
L 158.418467 61.261284 
L 158.418467 60.283203 
L 158.355801 59.307132 
L 158.230727 58.337082 
L 158.043758 57.377038 
L 157.795664 56.430945 
L 157.487462 55.502692 
L 157.120421 54.596093 
L 156.696048 53.714873 
L 156.216086 52.862653 
L 155.682509 52.042935 
L 155.097509 51.259088 
L 154.463489 50.514332 
L 153.783056 49.811729 
L 153.059004 49.154164 
L 152.29431 48.544341 
L 151.492115 47.984764 
L 150.655717 47.477735 
L 149.788551 47.025335 
L 148.894182 46.629424 
L 147.976284 46.291629 
L 147.038629 46.013338 
L 146.085071 45.795695 
L 145.119528 45.639593 
L 144.145967 45.545675 
L 143.168389 45.514326 
L 143.168389 45.514326 
L 123.333096 45.514326 
L 123.333096 60.772244 
L 123.333096 76.030161 
L 143.168389 76.030161 
" clip-path="url(#p385d77a52d)" style="fill: none; stroke: #000000; stroke-width: 2; stroke-linecap: round"/>
   </g>
   <g id="line2d_18">
    <path d="M 112.652554 70.842469 
L 123.333096 70.842469 
" clip-path="url(#p385d77a52d)" style="fill: none; stroke: #000000; stroke-width: 2; stroke-linecap: round"/>
   </g>
   <g id="line2d_19">
    <path d="M 112.652554 60.772244 
L 123.333096 60.772244 
" clip-path="url(#p385d77a52d)" style="fill: none; stroke: #000000; stroke-width: 2; stroke-linecap: round"/>
   </g>
   <g id="line2d_20">
    <path d="M 112.652554 50.702018 
L 123.333096 50.702018 
" clip-path="url(#p385d77a52d)" style="fill: none; stroke: #000000; stroke-width: 2; stroke-linecap: round"/>
   </g>
   <g id="line2d_21">
    <path d="M 165.750107 60.772244 
L 169.106848 60.772244 
" clip-path="url(#p385d77a52d)" style="fill: none; stroke: #000000; stroke-width: 2; stroke-linecap: round"/>
   </g>
   <g id="line2d_22">
    <path d="M 47.043509 27.204825 
L 63.979797 27.204825 
M 91.13889 27.204825 
L 108.075178 27.204825 
" clip-path="url(#p385d77a52d)" style="fill: none; stroke: #000000; stroke-width: 2; stroke-linecap: round"/>
   </g>
   <g id="line2d_23">
    <path d="M 63.979797 11.946908 
L 83.81509 27.204825 
L 63.979797 42.462743 
L 63.979797 11.946908 
" clip-path="url(#p385d77a52d)" style="fill: none; stroke: #000000; stroke-width: 2; stroke-linecap: round"/>
   </g>
   <g id="line2d_24">
    <path d="M 112.652554 50.702018 
L 108.075178 50.702018 
L 108.075178 27.204825 
" clip-path="url(#p385d77a52d)" style="fill: none; stroke: #000000; stroke-width: 2; stroke-linecap: round"/>
   </g>
   <g id="line2d_25">
    <path d="M 60.775634 109.292421 
L 77.777314 109.192778 
L 79.521076 108.893847 
L 81.264838 108.395629 
L 83.0086 107.698125 
L 84.752362 106.801333 
L 86.932064 105.400095 
L 89.111767 103.687472 
L 91.291469 101.663462 
L 93.471172 99.328067 
L 95.650874 96.681285 
L 97.394636 94.339662 
L 97.394636 94.339662 
L 94.778993 90.90196 
L 92.599291 88.379733 
L 90.419588 86.168892 
L 88.239886 84.269437 
L 86.060183 82.681368 
L 83.880481 81.404685 
L 82.136719 80.607536 
L 80.392957 80.009675 
L 78.649195 79.611101 
L 76.905433 79.411814 
L 76.033552 79.386903 
L 60.775634 79.386903 
L 60.775634 79.386903 
L 62.972774 81.82817 
L 64.364296 83.65912 
L 65.536105 85.49007 
L 66.488199 87.32102 
L 67.220579 89.15197 
L 67.733245 90.98292 
L 68.026197 92.81387 
L 68.099435 94.64482 
L 67.952959 96.475771 
L 67.586769 98.306721 
L 67.000865 100.137671 
L 66.195247 101.968621 
L 65.169914 103.799571 
L 63.924868 105.630521 
L 62.460108 107.461471 
L 60.775634 109.292421 
L 60.775634 109.292421 
" clip-path="url(#p385d77a52d)" style="fill: none; stroke: #000000; stroke-width: 2; stroke-linecap: round"/>
   </g>
   <g id="line2d_26">
    <path d="M 50.095092 101.968621 
L 66.195247 101.968621 
" clip-path="url(#p385d77a52d)" style="fill: none; stroke: #000000; stroke-width: 2; stroke-linecap: round"/>
   </g>
   <g id="line2d_27">
    <path d="M 50.095092 86.710703 
L 66.195247 86.710703 
" clip-path="url(#p385d77a52d)" style="fill: none; stroke: #000000; stroke-width: 2; stroke-linecap: round"/>
   </g>
   <g id="line2d_28">
    <path d="M 97.394636 94.339662 
L 108.075178 94.339662 
" clip-path="url(#p385d77a52d)" style="fill: none; stroke: #000000; stroke-width: 2; stroke-linecap: round"/>
   </g>
   <g id="line2d_29">
    <path d="M 112.652554 70.842469 
L 108.075178 70.842469 
L 108.075178 94.339662 
" clip-path="url(#p385d77a52d)" style="fill: none; stroke: #000000; stroke-width: 2; stroke-linecap: round"/>
   </g>
   <g id="line2d_30">
    <path d="M 172.158432 95.102558 
L 169.106848 95.102558 
L 169.106848 60.772244 
" clip-path="url(#p385d77a52d)" style="fill: none; stroke: #000000; stroke-width: 2; stroke-linecap: round"/>
   </g>
   <g id="line2d_31">
    <path d="M 121.807304 159.643549 
L 138.808984 159.543905 
L 140.552746 159.244975 
L 142.296508 158.746757 
L 144.04027 158.049252 
L 145.784032 157.15246 
L 147.963734 155.751223 
L 150.143437 154.0386 
L 152.323139 152.01459 
L 154.502842 149.679195 
L 156.682544 147.032413 
L 158.426306 144.69079 
L 158.426306 144.69079 
L 155.810663 141.253088 
L 153.630961 138.73086 
L 151.451258 136.520019 
L 149.271556 134.620564 
L 147.091853 133.032495 
L 144.912151 131.755812 
L 143.168389 130.958664 
L 141.424627 130.360803 
L 139.680865 129.962229 
L 137.937103 129.762942 
L 137.065222 129.738031 
L 121.807304 129.738031 
L 121.807304 129.738031 
L 124.004444 132.179297 
L 125.395966 134.010248 
L 126.567774 135.841198 
L 127.519869 137.672148 
L 128.252249 139.503098 
L 128.764915 141.334048 
L 129.057867 143.164998 
L 129.131105 144.995948 
L 128.984629 146.826898 
L 128.618439 148.657848 
L 128.032535 150.488798 
L 127.226916 152.319749 
L 126.201584 154.150699 
L 124.956538 155.981649 
L 123.491778 157.812599 
L 121.807304 159.643549 
L 121.807304 159.643549 
" clip-path="url(#p385d77a52d)" style="fill: none; stroke: #000000; stroke-width: 2; stroke-linecap: round"/>
   </g>
   <g id="line2d_32">
    <path d="M 111.126762 152.319749 
L 127.226916 152.319749 
" clip-path="url(#p385d77a52d)" style="fill: none; stroke: #000000; stroke-width: 2; stroke-linecap: round"/>
   </g>
   <g id="line2d_33">
    <path d="M 111.126762 137.061831 
L 127.226916 137.061831 
" clip-path="url(#p385d77a52d)" style="fill: none; stroke: #000000; stroke-width: 2; stroke-linecap: round"/>
   </g>
   <g id="line2d_34">
    <path d="M 165.750107 144.69079 
L 169.106848 144.69079 
" clip-path="url(#p385d77a52d)" style="fill: none; stroke: #000000; stroke-width: 2; stroke-linecap: round"/>
   </g>
   <g id="line2d_35">
    <path d="M 47.043509 161.474499 
L 63.979797 161.474499 
M 91.13889 161.474499 
L 108.075178 161.474499 
" clip-path="url(#p385d77a52d)" style="fill: none; stroke: #000000; stroke-width: 2; stroke-linecap: round"/>
   </g>
   <g id="line2d_36">
    <path d="M 63.979797 146.216582 
L 83.81509 161.474499 
L 63.979797 176.732417 
L 63.979797 146.216582 
" clip-path="url(#p385d77a52d)" style="fill: none; stroke: #000000; stroke-width: 2; stroke-linecap: round"/>
   </g>
   <g id="line2d_37">
    <path d="M 111.126762 152.319749 
L 108.075178 152.319749 
L 108.075178 161.474499 
" clip-path="url(#p385d77a52d)" style="fill: none; stroke: #000000; stroke-width: 2; stroke-linecap: round"/>
   </g>
   <g id="line2d_38">
    <path d="M 172.158432 110.360475 
L 169.106848 110.360475 
L 169.106848 144.69079 
" clip-path="url(#p385d77a52d)" style="fill: none; stroke: #000000; stroke-width: 2; stroke-linecap: round"/>
   </g>
   <g id="line2d_39">
    <path d="M 233.190102 111.886267 
L 230.138518 111.886267 
L 230.138518 102.731517 
" clip-path="url(#p385d77a52d)" style="fill: none; stroke: #000000; stroke-width: 2; stroke-linecap: round"/>
   </g>
   <g id="line2d_40">
    <path d="M 294.221772 128.669976 
L 291.170188 128.669976 
L 291.170188 119.515226 
" clip-path="url(#p385d77a52d)" style="fill: none; stroke: #000000; stroke-width: 2; stroke-linecap: round"/>
   </g>
   <g id="line2d_41">
    <path d="M 356.779233 145.453686 
L 352.201858 145.453686 
L 352.201858 136.298935 
" clip-path="url(#p385d77a52d)" style="fill: none; stroke: #000000; stroke-width: 2; stroke-linecap: round"/>
   </g>
   <g id="text_1">
    <g clip-path="url(#p385d77a52d)">
     <!-- output -->
     <g transform="translate(416.285112 156.531863) scale(0.125 -0.125)">
      <defs>
       <path id="DejaVuSans-6f" d="M 1959 3097 
Q 1497 3097 1228 2736 
Q 959 2375 959 1747 
Q 959 1119 1226 758 
Q 1494 397 1959 397 
Q 2419 397 2687 759 
Q 2956 1122 2956 1747 
Q 2956 2369 2687 2733 
Q 2419 3097 1959 3097 
z
M 1959 3584 
Q 2709 3584 3137 3096 
Q 3566 2609 3566 1747 
Q 3566 888 3137 398 
Q 2709 -91 1959 -91 
Q 1206 -91 779 398 
Q 353 888 353 1747 
Q 353 2609 779 3096 
Q 1206 3584 1959 3584 
z
" transform="scale(0.015625)"/>
       <path id="DejaVuSans-75" d="M 544 1381 
L 544 3500 
L 1119 3500 
L 1119 1403 
Q 1119 906 1312 657 
Q 1506 409 1894 409 
Q 2359 409 2629 706 
Q 2900 1003 2900 1516 
L 2900 3500 
L 3475 3500 
L 3475 0 
L 2900 0 
L 2900 538 
Q 2691 219 2414 64 
Q 2138 -91 1772 -91 
Q 1169 -91 856 284 
Q 544 659 544 1381 
z
M 1991 3584 
L 1991 3584 
z
" transform="scale(0.015625)"/>
       <path id="DejaVuSans-74" d="M 1172 4494 
L 1172 3500 
L 2356 3500 
L 2356 3053 
L 1172 3053 
L 1172 1153 
Q 1172 725 1289 603 
Q 1406 481 1766 481 
L 2356 481 
L 2356 0 
L 1766 0 
Q 1100 0 847 248 
Q 594 497 594 1153 
L 594 3053 
L 172 3053 
L 172 3500 
L 594 3500 
L 594 4494 
L 1172 4494 
z
" transform="scale(0.015625)"/>
       <path id="DejaVuSans-70" d="M 1159 525 
L 1159 -1331 
L 581 -1331 
L 581 3500 
L 1159 3500 
L 1159 2969 
Q 1341 3281 1617 3432 
Q 1894 3584 2278 3584 
Q 2916 3584 3314 3078 
Q 3713 2572 3713 1747 
Q 3713 922 3314 415 
Q 2916 -91 2278 -91 
Q 1894 -91 1617 61 
Q 1341 213 1159 525 
z
M 3116 1747 
Q 3116 2381 2855 2742 
Q 2594 3103 2138 3103 
Q 1681 3103 1420 2742 
Q 1159 2381 1159 1747 
Q 1159 1113 1420 752 
Q 1681 391 2138 391 
Q 2594 391 2855 752 
Q 3116 1113 3116 1747 
z
" transform="scale(0.015625)"/>
      </defs>
      <use xlink:href="#DejaVuSans-6f"/>
      <use xlink:href="#DejaVuSans-75" x="61.181641"/>
      <use xlink:href="#DejaVuSans-74" x="124.560547"/>
      <use xlink:href="#DejaVuSans-70" x="163.769531"/>
      <use xlink:href="#DejaVuSans-75" x="227.246094"/>
      <use xlink:href="#DejaVuSans-74" x="290.625"/>
     </g>
    </g>
   </g>
   <g id="text_2">
    <g clip-path="url(#p385d77a52d)">
     <!-- TRUE -->
     <g transform="translate(320.360462 164.160822) scale(0.125 -0.125)">
      <defs>
       <path id="DejaVuSans-54" d="M -19 4666 
L 3928 4666 
L 3928 4134 
L 2272 4134 
L 2272 0 
L 1638 0 
L 1638 4134 
L -19 4134 
L -19 4666 
z
" transform="scale(0.015625)"/>
       <path id="DejaVuSans-52" d="M 2841 2188 
Q 3044 2119 3236 1894 
Q 3428 1669 3622 1275 
L 4263 0 
L 3584 0 
L 2988 1197 
Q 2756 1666 2539 1819 
Q 2322 1972 1947 1972 
L 1259 1972 
L 1259 0 
L 628 0 
L 628 4666 
L 2053 4666 
Q 2853 4666 3247 4331 
Q 3641 3997 3641 3322 
Q 3641 2881 3436 2590 
Q 3231 2300 2841 2188 
z
M 1259 4147 
L 1259 2491 
L 2053 2491 
Q 2509 2491 2742 2702 
Q 2975 2913 2975 3322 
Q 2975 3731 2742 3939 
Q 2509 4147 2053 4147 
L 1259 4147 
z
" transform="scale(0.015625)"/>
       <path id="DejaVuSans-55" d="M 556 4666 
L 1191 4666 
L 1191 1831 
Q 1191 1081 1462 751 
Q 1734 422 2344 422 
Q 2950 422 3222 751 
Q 3494 1081 3494 1831 
L 3494 4666 
L 4128 4666 
L 4128 1753 
Q 4128 841 3676 375 
Q 3225 -91 2344 -91 
Q 1459 -91 1007 375 
Q 556 841 556 1753 
L 556 4666 
z
" transform="scale(0.015625)"/>
       <path id="DejaVuSans-45" d="M 628 4666 
L 3578 4666 
L 3578 4134 
L 1259 4134 
L 1259 2753 
L 3481 2753 
L 3481 2222 
L 1259 2222 
L 1259 531 
L 3634 531 
L 3634 0 
L 628 0 
L 628 4666 
z
" transform="scale(0.015625)"/>
      </defs>
      <use xlink:href="#DejaVuSans-54"/>
      <use xlink:href="#DejaVuSans-52" x="61.083984"/>
      <use xlink:href="#DejaVuSans-55" x="130.566406"/>
      <use xlink:href="#DejaVuSans-45" x="203.759766"/>
     </g>
    </g>
   </g>
   <g id="text_3">
    <g clip-path="url(#p385d77a52d)">
     <!-- FALSE -->
     <g transform="translate(253.771751 147.377113) scale(0.125 -0.125)">
      <defs>
       <path id="DejaVuSans-46" d="M 628 4666 
L 3309 4666 
L 3309 4134 
L 1259 4134 
L 1259 2759 
L 3109 2759 
L 3109 2228 
L 1259 2228 
L 1259 0 
L 628 0 
L 628 4666 
z
" transform="scale(0.015625)"/>
       <path id="DejaVuSans-41" d="M 2188 4044 
L 1331 1722 
L 3047 1722 
L 2188 4044 
z
M 1831 4666 
L 2547 4666 
L 4325 0 
L 3669 0 
L 3244 1197 
L 1141 1197 
L 716 0 
L 50 0 
L 1831 4666 
z
" transform="scale(0.015625)"/>
       <path id="DejaVuSans-4c" d="M 628 4666 
L 1259 4666 
L 1259 531 
L 3531 531 
L 3531 0 
L 628 0 
L 628 4666 
z
" transform="scale(0.015625)"/>
       <path id="DejaVuSans-53" d="M 3425 4513 
L 3425 3897 
Q 3066 4069 2747 4153 
Q 2428 4238 2131 4238 
Q 1616 4238 1336 4038 
Q 1056 3838 1056 3469 
Q 1056 3159 1242 3001 
Q 1428 2844 1947 2747 
L 2328 2669 
Q 3034 2534 3370 2195 
Q 3706 1856 3706 1288 
Q 3706 609 3251 259 
Q 2797 -91 1919 -91 
Q 1588 -91 1214 -16 
Q 841 59 441 206 
L 441 856 
Q 825 641 1194 531 
Q 1563 422 1919 422 
Q 2459 422 2753 634 
Q 3047 847 3047 1241 
Q 3047 1584 2836 1778 
Q 2625 1972 2144 2069 
L 1759 2144 
Q 1053 2284 737 2584 
Q 422 2884 422 3419 
Q 422 4038 858 4394 
Q 1294 4750 2059 4750 
Q 2388 4750 2728 4690 
Q 3069 4631 3425 4513 
z
" transform="scale(0.015625)"/>
      </defs>
      <use xlink:href="#DejaVuSans-46"/>
      <use xlink:href="#DejaVuSans-41" x="48.394531"/>
      <use xlink:href="#DejaVuSans-4c" x="116.802734"/>
      <use xlink:href="#DejaVuSans-53" x="172.515625"/>
      <use xlink:href="#DejaVuSans-45" x="235.992188"/>
     </g>
    </g>
   </g>
   <g id="text_4">
    <g clip-path="url(#p385d77a52d)">
     <!-- FALSE -->
     <g transform="translate(192.740081 130.593403) scale(0.125 -0.125)">
      <use xlink:href="#DejaVuSans-46"/>
      <use xlink:href="#DejaVuSans-41" x="48.394531"/>
      <use xlink:href="#DejaVuSans-4c" x="116.802734"/>
      <use xlink:href="#DejaVuSans-53" x="172.515625"/>
      <use xlink:href="#DejaVuSans-45" x="235.992188"/>
     </g>
    </g>
   </g>
   <g id="text_5">
    <g clip-path="url(#p385d77a52d)">
     <!-- b -->
     <g transform="translate(101.665423 64.221462) scale(0.125 -0.125)">
      <defs>
       <path id="DejaVuSans-62" d="M 3116 1747 
Q 3116 2381 2855 2742 
Q 2594 3103 2138 3103 
Q 1681 3103 1420 2742 
Q 1159 2381 1159 1747 
Q 1159 1113 1420 752 
Q 1681 391 2138 391 
Q 2594 391 2855 752 
Q 3116 1113 3116 1747 
z
M 1159 2969 
Q 1341 3281 1617 3432 
Q 1894 3584 2278 3584 
Q 2916 3584 3314 3078 
Q 3713 2572 3713 1747 
Q 3713 922 3314 415 
Q 2916 -91 2278 -91 
Q 1894 -91 1617 61 
Q 1341 213 1159 525 
L 1159 0 
L 581 0 
L 581 4863 
L 1159 4863 
L 1159 2969 
z
" transform="scale(0.015625)"/>
      </defs>
      <use xlink:href="#DejaVuSans-62"/>
     </g>
    </g>
   </g>
   <g id="text_6">
    <g clip-path="url(#p385d77a52d)">
     <!-- a -->
     <g transform="translate(36.331769 30.654044) scale(0.125 -0.125)">
      <defs>
       <path id="DejaVuSans-61" d="M 2194 1759 
Q 1497 1759 1228 1600 
Q 959 1441 959 1056 
Q 959 750 1161 570 
Q 1363 391 1709 391 
Q 2188 391 2477 730 
Q 2766 1069 2766 1631 
L 2766 1759 
L 2194 1759 
z
M 3341 1997 
L 3341 0 
L 2766 0 
L 2766 531 
Q 2569 213 2275 61 
Q 1981 -91 1556 -91 
Q 1019 -91 701 211 
Q 384 513 384 1019 
Q 384 1609 779 1909 
Q 1175 2209 1959 2209 
L 2766 2209 
L 2766 2266 
Q 2766 2663 2505 2880 
Q 2244 3097 1772 3097 
Q 1472 3097 1187 3025 
Q 903 2953 641 2809 
L 641 3341 
Q 956 3463 1253 3523 
Q 1550 3584 1831 3584 
Q 2591 3584 2966 3190 
Q 3341 2797 3341 1997 
z
" transform="scale(0.015625)"/>
      </defs>
      <use xlink:href="#DejaVuSans-61"/>
     </g>
    </g>
   </g>
   <g id="text_7">
    <g clip-path="url(#p385d77a52d)">
     <!-- c -->
     <g transform="translate(40.170462 90.159922) scale(0.125 -0.125)">
      <defs>
       <path id="DejaVuSans-63" d="M 3122 3366 
L 3122 2828 
Q 2878 2963 2633 3030 
Q 2388 3097 2138 3097 
Q 1578 3097 1268 2742 
Q 959 2388 959 1747 
Q 959 1106 1268 751 
Q 1578 397 2138 397 
Q 2388 397 2633 464 
Q 2878 531 3122 666 
L 3122 134 
Q 2881 22 2623 -34 
Q 2366 -91 2075 -91 
Q 1284 -91 818 406 
Q 353 903 353 1747 
Q 353 2603 823 3093 
Q 1294 3584 2113 3584 
Q 2378 3584 2631 3529 
Q 2884 3475 3122 3366 
z
" transform="scale(0.015625)"/>
      </defs>
      <use xlink:href="#DejaVuSans-63"/>
     </g>
    </g>
   </g>
   <g id="text_8">
    <g clip-path="url(#p385d77a52d)">
     <!-- TRUE -->
     <g transform="translate(13.676321 105.41784) scale(0.125 -0.125)">
      <use xlink:href="#DejaVuSans-54"/>
      <use xlink:href="#DejaVuSans-52" x="61.083984"/>
      <use xlink:href="#DejaVuSans-55" x="130.566406"/>
      <use xlink:href="#DejaVuSans-45" x="203.759766"/>
     </g>
    </g>
   </g>
   <g id="text_9">
    <g clip-path="url(#p385d77a52d)">
     <!-- d -->
     <g transform="translate(100.139632 140.51105) scale(0.125 -0.125)">
      <defs>
       <path id="DejaVuSans-64" d="M 2906 2969 
L 2906 4863 
L 3481 4863 
L 3481 0 
L 2906 0 
L 2906 525 
Q 2725 213 2448 61 
Q 2172 -91 1784 -91 
Q 1150 -91 751 415 
Q 353 922 353 1747 
Q 353 2572 751 3078 
Q 1150 3584 1784 3584 
Q 2172 3584 2448 3432 
Q 2725 3281 2906 2969 
z
M 947 1747 
Q 947 1113 1208 752 
Q 1469 391 1925 391 
Q 2381 391 2643 752 
Q 2906 1113 2906 1747 
Q 2906 2381 2643 2742 
Q 2381 3103 1925 3103 
Q 1469 3103 1208 2742 
Q 947 2381 947 1747 
z
" transform="scale(0.015625)"/>
      </defs>
      <use xlink:href="#DejaVuSans-64"/>
     </g>
    </g>
   </g>
   <g id="text_10">
    <g clip-path="url(#p385d77a52d)">
     <!-- d -->
     <g transform="translate(36.056378 164.923718) scale(0.125 -0.125)">
      <use xlink:href="#DejaVuSans-64"/>
     </g>
    </g>
   </g>
  </g>
 </g>
 <defs>
  <clipPath id="p385d77a52d">
   <rect x="7.2" y="7.2" width="458.520764" height="172.584"/>
  </clipPath>
 </defs>
</svg>
