<?xml version="1.0" encoding="utf-8" standalone="no"?>
<!DOCTYPE svg PUBLIC "-//W3C//DTD SVG 1.1//EN"
  "http://www.w3.org/Graphics/SVG/1.1/DTD/svg11.dtd">
<svg xmlns:xlink="http://www.w3.org/1999/xlink" width="269.110746pt" height="173.52pt" viewBox="0 0 269.110746 173.52" xmlns="http://www.w3.org/2000/svg" version="1.1">
 <metadata>
  <rdf:RDF xmlns:dc="http://purl.org/dc/elements/1.1/" xmlns:cc="http://creativecommons.org/ns#" xmlns:rdf="http://www.w3.org/1999/02/22-rdf-syntax-ns#">
   <cc:Work>
    <dc:type rdf:resource="http://purl.org/dc/dcmitype/StillImage"/>
    <dc:date>2022-12-17T13:18:09.104177</dc:date>
    <dc:format>image/svg+xml</dc:format>
    <dc:creator>
     <cc:Agent>
      <dc:title>Matplotlib v3.6.0, https://matplotlib.org/</dc:title>
     </cc:Agent>
    </dc:creator>
   </cc:Work>
  </rdf:RDF>
 </metadata>
 <defs>
  <style type="text/css">*{stroke-linejoin: round; stroke-linecap: butt}</style>
 </defs>
 <g id="figure_1">
  <g id="patch_1">
   <path d="M 0 173.52 
L 269.110746 173.52 
L 269.110746 0 
L 0 0 
L 0 173.52 
z
" style="fill: none"/>
  </g>
  <g id="axes_1">
   <g id="patch_2">
    <path d="M 202.367974 85.462273 
C 203.339724 85.462273 204.271804 85.076193 204.958934 84.389062 
C 205.646065 83.701932 206.032145 82.769852 206.032145 81.798102 
C 206.032145 80.826353 205.646065 79.894273 204.958934 79.207142 
C 204.271804 78.520012 203.339724 78.133932 202.367974 78.133932 
C 201.396225 78.133932 200.464145 78.520012 199.777015 79.207142 
C 199.089884 79.894273 198.703804 80.826353 198.703804 81.798102 
C 198.703804 82.769852 199.089884 83.701932 199.777015 84.389062 
C 200.464145 85.076193 201.396225 85.462273 202.367974 85.462273 
L 202.367974 85.462273 
z
" clip-path="url(#pcaa0f911e6)" style="fill: none; stroke: #000000; stroke-width: 2; stroke-linejoin: miter"/>
   </g>
   <g id="patch_3">
    <path d="M 141.298465 47.675514 
C 142.270214 47.675514 143.202294 47.289434 143.889425 46.602303 
C 144.576555 45.915173 144.962635 44.983093 144.962635 44.011343 
C 144.962635 43.039594 144.576555 42.107514 143.889425 41.420383 
C 143.202294 40.733253 142.270214 40.347173 141.298465 40.347173 
C 140.326715 40.347173 139.394636 40.733253 138.707505 41.420383 
C 138.020374 42.107514 137.634294 43.039594 137.634294 44.011343 
C 137.634294 44.983093 138.020374 45.915173 138.707505 46.602303 
C 139.394636 47.289434 140.326715 47.675514 141.298465 47.675514 
L 141.298465 47.675514 
z
" clip-path="url(#pcaa0f911e6)" style="fill: none; stroke: #000000; stroke-width: 2; stroke-linejoin: miter"/>
   </g>
   <g id="patch_4">
    <path d="M 66.640989 30.881399 
C 67.612739 30.881399 68.544819 30.495319 69.231949 29.808188 
C 69.91908 29.121057 70.30516 28.188978 70.30516 27.217228 
C 70.30516 26.245479 69.91908 25.313399 69.231949 24.626268 
C 68.544819 23.939138 67.612739 23.553058 66.640989 23.553058 
C 65.66924 23.553058 64.73716 23.939138 64.050029 24.626268 
C 63.362899 25.313399 62.976819 26.245479 62.976819 27.217228 
C 62.976819 28.188978 63.362899 29.121057 64.050029 29.808188 
C 64.73716 30.495319 65.66924 30.881399 66.640989 30.881399 
L 66.640989 30.881399 
z
" clip-path="url(#pcaa0f911e6)" style="fill: none; stroke: #000000; stroke-width: 2; stroke-linejoin: miter"/>
   </g>
   <g id="patch_5">
    <path d="M 141.298465 123.249032 
C 142.270214 123.249032 143.202294 122.862952 143.889425 122.175821 
C 144.576555 121.488691 144.962635 120.556611 144.962635 119.584861 
C 144.962635 118.613112 144.576555 117.681032 143.889425 116.993902 
C 143.202294 116.306771 142.270214 115.920691 141.298465 115.920691 
C 140.326715 115.920691 139.394636 116.306771 138.707505 116.993902 
C 138.020374 117.681032 137.634294 118.613112 137.634294 119.584861 
C 137.634294 120.556611 138.020374 121.488691 138.707505 122.175821 
C 139.394636 122.862952 140.326715 123.249032 141.298465 123.249032 
L 141.298465 123.249032 
z
" clip-path="url(#pcaa0f911e6)" style="fill: none; stroke: #000000; stroke-width: 2; stroke-linejoin: miter"/>
   </g>
   <g id="patch_6">
    <path d="M 66.640989 98.057859 
C 67.612739 98.057859 68.544819 97.671779 69.231949 96.984649 
C 69.91908 96.297518 70.30516 95.365438 70.30516 94.393689 
C 70.30516 93.421939 69.91908 92.489859 69.231949 91.802729 
C 68.544819 91.115598 67.612739 90.729518 66.640989 90.729518 
C 65.66924 90.729518 64.73716 91.115598 64.050029 91.802729 
C 63.362899 92.489859 62.976819 93.421939 62.976819 94.393689 
C 62.976819 95.365438 63.362899 96.297518 64.050029 96.984649 
C 64.73716 97.671779 65.66924 98.057859 66.640989 98.057859 
L 66.640989 98.057859 
z
" clip-path="url(#pcaa0f911e6)" style="fill: none; stroke: #000000; stroke-width: 2; stroke-linejoin: miter"/>
   </g>
   <g id="line2d_1">
    <path d="M 183.436426 97.06548 
L 184.414611 97.034111 
L 185.388775 96.940135 
L 186.354917 96.783936 
L 187.309067 96.566158 
L 188.247303 96.287695 
L 189.165769 95.94969 
L 190.060693 95.553534 
L 190.928397 95.100854 
L 191.765314 94.59351 
L 192.568006 94.033587 
L 193.333174 93.423385 
L 194.057674 92.765413 
L 194.73853 92.062374 
L 195.372943 91.317156 
L 195.958306 90.532823 
L 196.492214 89.712597 
L 196.972473 88.859849 
L 197.397109 87.978082 
L 197.764378 87.070921 
L 198.07277 86.142092 
L 198.321019 85.195413 
L 198.508103 84.234774 
L 198.633255 83.264122 
L 198.69596 82.287446 
L 198.69596 81.308759 
L 198.633255 80.332083 
L 198.508103 79.361431 
L 198.321019 78.400791 
L 198.07277 77.454112 
L 197.764378 76.525284 
L 197.397109 75.618122 
L 196.972473 74.736356 
L 196.492214 73.883607 
L 195.958306 73.063381 
L 195.372943 72.279048 
L 194.73853 71.533831 
L 194.057674 70.830792 
L 193.333174 70.17282 
L 192.568006 69.562618 
L 191.765314 69.002695 
L 190.928397 68.495351 
L 190.060693 68.042671 
L 189.165769 67.646514 
L 188.247303 67.30851 
L 187.309067 67.030047 
L 186.354917 66.812268 
L 185.388775 66.65607 
L 184.414611 66.562093 
L 183.436426 66.530725 
L 183.436426 66.530725 
L 163.588836 66.530725 
L 163.588836 81.798102 
L 163.588836 97.06548 
L 183.436426 97.06548 
" clip-path="url(#pcaa0f911e6)" style="fill: none; stroke: #000000; stroke-width: 2; stroke-linecap: round"/>
   </g>
   <g id="line2d_2">
    <path d="M 152.901672 89.431791 
L 163.588836 89.431791 
" clip-path="url(#pcaa0f911e6)" style="fill: none; stroke: #000000; stroke-width: 2; stroke-linecap: round"/>
   </g>
   <g id="line2d_3">
    <path d="M 152.901672 74.164414 
L 163.588836 74.164414 
" clip-path="url(#pcaa0f911e6)" style="fill: none; stroke: #000000; stroke-width: 2; stroke-linecap: round"/>
   </g>
   <g id="line2d_4">
    <path d="M 206.032145 81.798102 
L 209.390968 81.798102 
" clip-path="url(#pcaa0f911e6)" style="fill: none; stroke: #000000; stroke-width: 2; stroke-linecap: round"/>
   </g>
   <g id="line2d_5">
    <path d="M 100.992588 58.973373 
L 118.004809 58.873668 
L 119.749652 58.574552 
L 121.494495 58.076025 
L 123.239338 57.378088 
L 124.984182 56.48074 
L 127.165235 55.078634 
L 129.346289 53.364949 
L 131.527343 51.339684 
L 133.708397 49.002841 
L 135.889451 46.354418 
L 137.634294 44.011343 
L 137.634294 44.011343 
L 135.01703 40.57151 
L 132.835976 38.047719 
L 130.654922 35.835507 
L 128.473868 33.934874 
L 126.292814 32.345821 
L 124.11176 31.068346 
L 122.366917 30.270704 
L 120.622074 29.672472 
L 118.877231 29.27365 
L 117.132387 29.07424 
L 116.259966 29.049313 
L 100.992588 29.049313 
L 100.992588 29.049313 
L 103.191091 31.492094 
L 104.583476 33.324179 
L 105.75601 35.156264 
L 106.708695 36.98835 
L 107.441529 38.820435 
L 107.954513 40.65252 
L 108.247646 42.484606 
L 108.32093 44.316691 
L 108.174363 46.148776 
L 107.807946 47.980861 
L 107.221678 49.812947 
L 106.415561 51.645032 
L 105.389593 53.477117 
L 104.143775 55.309203 
L 102.678107 57.141288 
L 100.992588 58.973373 
L 100.992588 58.973373 
" clip-path="url(#pcaa0f911e6)" style="fill: none; stroke: #000000; stroke-width: 2; stroke-linecap: round"/>
   </g>
   <g id="line2d_6">
    <path d="M 90.305424 51.645032 
L 106.415561 51.645032 
" clip-path="url(#pcaa0f911e6)" style="fill: none; stroke: #000000; stroke-width: 2; stroke-linecap: round"/>
   </g>
   <g id="line2d_7">
    <path d="M 90.305424 36.377655 
L 106.415561 36.377655 
" clip-path="url(#pcaa0f911e6)" style="fill: none; stroke: #000000; stroke-width: 2; stroke-linecap: round"/>
   </g>
   <g id="line2d_8">
    <path d="M 144.962635 44.011343 
L 148.321458 44.011343 
" clip-path="url(#pcaa0f911e6)" style="fill: none; stroke: #000000; stroke-width: 2; stroke-linecap: round"/>
   </g>
   <g id="line2d_9">
    <path d="M 26.182439 27.217228 
L 43.129228 27.217228 
M 70.30516 27.217228 
L 87.251949 27.217228 
" clip-path="url(#pcaa0f911e6)" style="fill: none; stroke: #000000; stroke-width: 2; stroke-linecap: round"/>
   </g>
   <g id="line2d_10">
    <path d="M 43.129228 11.949851 
L 62.976819 27.217228 
L 43.129228 42.484606 
L 43.129228 11.949851 
" clip-path="url(#pcaa0f911e6)" style="fill: none; stroke: #000000; stroke-width: 2; stroke-linecap: round"/>
   </g>
   <g id="line2d_11">
    <path d="M 90.305424 36.377655 
L 87.251949 36.377655 
L 87.251949 27.217228 
" clip-path="url(#pcaa0f911e6)" style="fill: none; stroke: #000000; stroke-width: 2; stroke-linecap: round"/>
   </g>
   <g id="line2d_12">
    <path d="M 152.901672 74.164414 
L 148.321458 74.164414 
L 148.321458 44.011343 
" clip-path="url(#pcaa0f911e6)" style="fill: none; stroke: #000000; stroke-width: 2; stroke-linecap: round"/>
   </g>
   <g id="line2d_13">
    <path d="M 100.992588 134.546891 
L 118.004809 134.447186 
L 119.749652 134.14807 
L 121.494495 133.649543 
L 123.239338 132.951606 
L 124.984182 132.054258 
L 127.165235 130.652152 
L 129.346289 128.938467 
L 131.527343 126.913203 
L 133.708397 124.576359 
L 135.889451 121.927936 
L 137.634294 119.584861 
L 137.634294 119.584861 
L 135.01703 116.145028 
L 132.835976 113.621237 
L 130.654922 111.409025 
L 128.473868 109.508392 
L 126.292814 107.919339 
L 124.11176 106.641864 
L 122.366917 105.844222 
L 120.622074 105.24599 
L 118.877231 104.847169 
L 117.132387 104.647758 
L 116.259966 104.622832 
L 100.992588 104.622832 
L 100.992588 104.622832 
L 103.191091 107.065612 
L 104.583476 108.897697 
L 105.75601 110.729783 
L 106.708695 112.561868 
L 107.441529 114.393953 
L 107.954513 116.226038 
L 108.247646 118.058124 
L 108.32093 119.890209 
L 108.174363 121.722294 
L 107.807946 123.55438 
L 107.221678 125.386465 
L 106.415561 127.21855 
L 105.389593 129.050635 
L 104.143775 130.882721 
L 102.678107 132.714806 
L 100.992588 134.546891 
L 100.992588 134.546891 
" clip-path="url(#pcaa0f911e6)" style="fill: none; stroke: #000000; stroke-width: 2; stroke-linecap: round"/>
   </g>
   <g id="line2d_14">
    <path d="M 90.305424 127.21855 
L 106.415561 127.21855 
" clip-path="url(#pcaa0f911e6)" style="fill: none; stroke: #000000; stroke-width: 2; stroke-linecap: round"/>
   </g>
   <g id="line2d_15">
    <path d="M 90.305424 111.951173 
L 106.415561 111.951173 
" clip-path="url(#pcaa0f911e6)" style="fill: none; stroke: #000000; stroke-width: 2; stroke-linecap: round"/>
   </g>
   <g id="line2d_16">
    <path d="M 144.962635 119.584861 
L 148.321458 119.584861 
" clip-path="url(#pcaa0f911e6)" style="fill: none; stroke: #000000; stroke-width: 2; stroke-linecap: round"/>
   </g>
   <g id="line2d_17">
    <path d="M 26.182439 94.393689 
L 43.129228 94.393689 
M 70.30516 94.393689 
L 87.251949 94.393689 
" clip-path="url(#pcaa0f911e6)" style="fill: none; stroke: #000000; stroke-width: 2; stroke-linecap: round"/>
   </g>
   <g id="line2d_18">
    <path d="M 43.129228 79.126311 
L 62.976819 94.393689 
L 43.129228 109.661066 
L 43.129228 79.126311 
" clip-path="url(#pcaa0f911e6)" style="fill: none; stroke: #000000; stroke-width: 2; stroke-linecap: round"/>
   </g>
   <g id="line2d_19">
    <path d="M 90.305424 111.951173 
L 87.251949 111.951173 
L 87.251949 94.393689 
" clip-path="url(#pcaa0f911e6)" style="fill: none; stroke: #000000; stroke-width: 2; stroke-linecap: round"/>
   </g>
   <g id="line2d_20">
    <path d="M 61.297407 160.043412 
L 62.275591 160.012043 
L 63.249756 159.918067 
L 64.215898 159.761868 
L 65.170048 159.54409 
L 66.108283 159.265626 
L 67.02675 158.927622 
L 67.921674 158.531466 
L 68.789377 158.078786 
L 69.626294 157.571442 
L 70.428986 157.011518 
L 71.194155 156.401317 
L 71.918655 155.743345 
L 72.599511 155.040306 
L 73.233924 154.295088 
L 73.819287 153.510755 
L 74.353195 152.690529 
L 74.833453 151.837781 
L 75.25809 150.956014 
L 75.625359 150.048853 
L 75.933751 149.120024 
L 76.182 148.173345 
L 76.369084 147.212706 
L 76.494236 146.242054 
L 76.556941 145.265378 
L 76.556941 144.286691 
L 76.494236 143.310014 
L 76.369084 142.339362 
L 76.182 141.378723 
L 75.933751 140.432044 
L 75.625359 139.503215 
L 75.25809 138.596054 
L 74.833453 137.714287 
L 74.353195 136.861539 
L 73.819287 136.041313 
L 73.233924 135.25698 
L 72.599511 134.511763 
L 71.918655 133.808723 
L 71.194155 133.150751 
L 70.428986 132.54055 
L 69.626294 131.980627 
L 68.789377 131.473283 
L 67.921674 131.020602 
L 67.02675 130.624446 
L 66.108283 130.286442 
L 65.170048 130.007978 
L 64.215898 129.7902 
L 63.249756 129.634002 
L 62.275591 129.540025 
L 61.297407 129.508657 
L 61.297407 129.508657 
L 41.449817 129.508657 
L 41.449817 144.776034 
L 41.449817 160.043412 
L 61.297407 160.043412 
" clip-path="url(#pcaa0f911e6)" style="fill: none; stroke: #000000; stroke-width: 2; stroke-linecap: round"/>
   </g>
   <g id="line2d_21">
    <path d="M 30.762652 152.409723 
L 41.449817 152.409723 
" clip-path="url(#pcaa0f911e6)" style="fill: none; stroke: #000000; stroke-width: 2; stroke-linecap: round"/>
   </g>
   <g id="line2d_22">
    <path d="M 30.762652 137.142345 
L 41.449817 137.142345 
" clip-path="url(#pcaa0f911e6)" style="fill: none; stroke: #000000; stroke-width: 2; stroke-linecap: round"/>
   </g>
   <g id="line2d_23">
    <path d="M 76.564785 144.776034 
L 87.251949 144.776034 
" clip-path="url(#pcaa0f911e6)" style="fill: none; stroke: #000000; stroke-width: 2; stroke-linecap: round"/>
   </g>
   <g id="line2d_24">
    <path d="M 90.305424 127.21855 
L 87.251949 127.21855 
L 87.251949 144.776034 
" clip-path="url(#pcaa0f911e6)" style="fill: none; stroke: #000000; stroke-width: 2; stroke-linecap: round"/>
   </g>
   <g id="line2d_25">
    <path d="M 152.901672 89.431791 
L 148.321458 89.431791 
L 148.321458 119.584861 
" clip-path="url(#pcaa0f911e6)" style="fill: none; stroke: #000000; stroke-width: 2; stroke-linecap: round"/>
   </g>
   <g id="text_1">
    <g clip-path="url(#pcaa0f911e6)">
     <!-- output -->
     <g transform="translate(212.444443 85.247321) scale(0.125 -0.125)">
      <defs>
       <path id="DejaVuSans-6f" d="M 1959 3097 
Q 1497 3097 1228 2736 
Q 959 2375 959 1747 
Q 959 1119 1226 758 
Q 1494 397 1959 397 
Q 2419 397 2687 759 
Q 2956 1122 2956 1747 
Q 2956 2369 2687 2733 
Q 2419 3097 1959 3097 
z
M 1959 3584 
Q 2709 3584 3137 3096 
Q 3566 2609 3566 1747 
Q 3566 888 3137 398 
Q 2709 -91 1959 -91 
Q 1206 -91 779 398 
Q 353 888 353 1747 
Q 353 2609 779 3096 
Q 1206 3584 1959 3584 
z
" transform="scale(0.015625)"/>
       <path id="DejaVuSans-75" d="M 544 1381 
L 544 3500 
L 1119 3500 
L 1119 1403 
Q 1119 906 1312 657 
Q 1506 409 1894 409 
Q 2359 409 2629 706 
Q 2900 1003 2900 1516 
L 2900 3500 
L 3475 3500 
L 3475 0 
L 2900 0 
L 2900 538 
Q 2691 219 2414 64 
Q 2138 -91 1772 -91 
Q 1169 -91 856 284 
Q 544 659 544 1381 
z
M 1991 3584 
L 1991 3584 
z
" transform="scale(0.015625)"/>
       <path id="DejaVuSans-74" d="M 1172 4494 
L 1172 3500 
L 2356 3500 
L 2356 3053 
L 1172 3053 
L 1172 1153 
Q 1172 725 1289 603 
Q 1406 481 1766 481 
L 2356 481 
L 2356 0 
L 1766 0 
Q 1100 0 847 248 
Q 594 497 594 1153 
L 594 3053 
L 172 3053 
L 172 3500 
L 594 3500 
L 594 4494 
L 1172 4494 
z
" transform="scale(0.015625)"/>
       <path id="DejaVuSans-70" d="M 1159 525 
L 1159 -1331 
L 581 -1331 
L 581 3500 
L 1159 3500 
L 1159 2969 
Q 1341 3281 1617 3432 
Q 1894 3584 2278 3584 
Q 2916 3584 3314 3078 
Q 3713 2572 3713 1747 
Q 3713 922 3314 415 
Q 2916 -91 2278 -91 
Q 1894 -91 1617 61 
Q 1341 213 1159 525 
z
M 3116 1747 
Q 3116 2381 2855 2742 
Q 2594 3103 2138 3103 
Q 1681 3103 1420 2742 
Q 1159 2381 1159 1747 
Q 1159 1113 1420 752 
Q 1681 391 2138 391 
Q 2594 391 2855 752 
Q 3116 1113 3116 1747 
z
" transform="scale(0.015625)"/>
      </defs>
      <use xlink:href="#DejaVuSans-6f"/>
      <use xlink:href="#DejaVuSans-75" x="61.181641"/>
      <use xlink:href="#DejaVuSans-74" x="124.560547"/>
      <use xlink:href="#DejaVuSans-70" x="163.769531"/>
      <use xlink:href="#DejaVuSans-75" x="227.246094"/>
      <use xlink:href="#DejaVuSans-74" x="290.625"/>
     </g>
    </g>
   </g>
   <g id="text_2">
    <g clip-path="url(#pcaa0f911e6)">
     <!-- b -->
     <g transform="translate(79.316402 55.094251) scale(0.125 -0.125)">
      <defs>
       <path id="DejaVuSans-62" d="M 3116 1747 
Q 3116 2381 2855 2742 
Q 2594 3103 2138 3103 
Q 1681 3103 1420 2742 
Q 1159 2381 1159 1747 
Q 1159 1113 1420 752 
Q 1681 391 2138 391 
Q 2594 391 2855 752 
Q 3116 1113 3116 1747 
z
M 1159 2969 
Q 1341 3281 1617 3432 
Q 1894 3584 2278 3584 
Q 2916 3584 3314 3078 
Q 3713 2572 3713 1747 
Q 3713 922 3314 415 
Q 2916 -91 2278 -91 
Q 1894 -91 1617 61 
Q 1341 213 1159 525 
L 1159 0 
L 581 0 
L 581 4863 
L 1159 4863 
L 1159 2969 
z
" transform="scale(0.015625)"/>
      </defs>
      <use xlink:href="#DejaVuSans-62"/>
     </g>
    </g>
   </g>
   <g id="text_3">
    <g clip-path="url(#pcaa0f911e6)">
     <!-- a -->
     <g transform="translate(15.468808 30.666447) scale(0.125 -0.125)">
      <defs>
       <path id="DejaVuSans-61" d="M 2194 1759 
Q 1497 1759 1228 1600 
Q 959 1441 959 1056 
Q 959 750 1161 570 
Q 1363 391 1709 391 
Q 2188 391 2477 730 
Q 2766 1069 2766 1631 
L 2766 1759 
L 2194 1759 
z
M 3341 1997 
L 3341 0 
L 2766 0 
L 2766 531 
Q 2569 213 2275 61 
Q 1981 -91 1556 -91 
Q 1019 -91 701 211 
Q 384 513 384 1019 
Q 384 1609 779 1909 
Q 1175 2209 1959 2209 
L 2766 2209 
L 2766 2266 
Q 2766 2663 2505 2880 
Q 2244 3097 1772 3097 
Q 1472 3097 1187 3025 
Q 903 2953 641 2809 
L 641 3341 
Q 956 3463 1253 3523 
Q 1550 3584 1831 3584 
Q 2591 3584 2966 3190 
Q 3341 2797 3341 1997 
z
" transform="scale(0.015625)"/>
      </defs>
      <use xlink:href="#DejaVuSans-61"/>
     </g>
    </g>
   </g>
   <g id="text_4">
    <g clip-path="url(#pcaa0f911e6)">
     <!-- a -->
     <g transform="translate(15.468808 97.842907) scale(0.125 -0.125)">
      <use xlink:href="#DejaVuSans-61"/>
     </g>
    </g>
   </g>
   <g id="text_5">
    <g clip-path="url(#pcaa0f911e6)">
     <!-- b -->
     <g transform="translate(19.77363 140.591564) scale(0.125 -0.125)">
      <use xlink:href="#DejaVuSans-62"/>
     </g>
    </g>
   </g>
   <g id="text_6">
    <g clip-path="url(#pcaa0f911e6)">
     <!-- c -->
     <g transform="translate(20.83613 155.858942) scale(0.125 -0.125)">
      <defs>
       <path id="DejaVuSans-63" d="M 3122 3366 
L 3122 2828 
Q 2878 2963 2633 3030 
Q 2388 3097 2138 3097 
Q 1578 3097 1268 2742 
Q 959 2388 959 1747 
Q 959 1106 1268 751 
Q 1578 397 2138 397 
Q 2388 397 2633 464 
Q 2878 531 3122 666 
L 3122 134 
Q 2881 22 2623 -34 
Q 2366 -91 2075 -91 
Q 1284 -91 818 406 
Q 353 903 353 1747 
Q 353 2603 823 3093 
Q 1294 3584 2113 3584 
Q 2378 3584 2631 3529 
Q 2884 3475 3122 3366 
z
" transform="scale(0.015625)"/>
      </defs>
      <use xlink:href="#DejaVuSans-63"/>
     </g>
    </g>
   </g>
  </g>
 </g>
 <defs>
  <clipPath id="pcaa0f911e6">
   <rect x="7.2" y="7.2" width="254.710746" height="159.12"/>
  </clipPath>
 </defs>
</svg>
