<?xml version="1.0" encoding="utf-8" standalone="no"?>
<!DOCTYPE svg PUBLIC "-//W3C//DTD SVG 1.1//EN"
  "http://www.w3.org/Graphics/SVG/1.1/DTD/svg11.dtd">
<svg xmlns:xlink="http://www.w3.org/1999/xlink" width="329.220472pt" height="130.68pt" viewBox="0 0 329.220472 130.68" xmlns="http://www.w3.org/2000/svg" version="1.1">
 <metadata>
  <rdf:RDF xmlns:dc="http://purl.org/dc/elements/1.1/" xmlns:cc="http://creativecommons.org/ns#" xmlns:rdf="http://www.w3.org/1999/02/22-rdf-syntax-ns#">
   <cc:Work>
    <dc:type rdf:resource="http://purl.org/dc/dcmitype/StillImage"/>
    <dc:date>2022-11-02T16:35:32.870071</dc:date>
    <dc:format>image/svg+xml</dc:format>
    <dc:creator>
     <cc:Agent>
      <dc:title>Matplotlib v3.6.0, https://matplotlib.org/</dc:title>
     </cc:Agent>
    </dc:creator>
   </cc:Work>
  </rdf:RDF>
 </metadata>
 <defs>
  <style type="text/css">*{stroke-linejoin: round; stroke-linecap: butt}</style>
 </defs>
 <g id="figure_1">
  <g id="patch_1">
   <path d="M 0 130.68 
L 329.220472 130.68 
L 329.220472 0 
L 0 0 
L 0 130.68 
z
" style="fill: none"/>
  </g>
  <g id="axes_1">
   <g id="patch_2">
    <path d="M 262.524437 72.052373 
C 263.495424 72.052373 264.426772 71.666596 265.113363 70.980005 
C 265.799955 70.293414 266.185732 69.362065 266.185732 68.391079 
C 266.185732 67.420092 265.799955 66.488744 265.113363 65.802153 
C 264.426772 65.115561 263.495424 64.729784 262.524437 64.729784 
C 261.553451 64.729784 260.622102 65.115561 259.935511 65.802153 
C 259.24892 66.488744 258.863143 67.420092 258.863143 68.391079 
C 258.863143 69.362065 259.24892 70.293414 259.935511 70.980005 
C 260.622102 71.666596 261.553451 72.052373 262.524437 72.052373 
L 262.524437 72.052373 
z
" clip-path="url(#pff42056683)" style="fill: none; stroke: #000000; stroke-width: 2; stroke-linejoin: miter"/>
   </g>
   <g id="patch_3">
    <path d="M 201.502863 38.490507 
C 202.47385 38.490507 203.405198 38.10473 204.091789 37.418139 
C 204.77838 36.731548 205.164157 35.800199 205.164157 34.829213 
C 205.164157 33.858226 204.77838 32.926878 204.091789 32.240287 
C 203.405198 31.553695 202.47385 31.167918 201.502863 31.167918 
C 200.531876 31.167918 199.600528 31.553695 198.913937 32.240287 
C 198.227346 32.926878 197.841569 33.858226 197.841569 34.829213 
C 197.841569 35.800199 198.227346 36.731548 198.913937 37.418139 
C 199.600528 38.10473 200.531876 38.490507 201.502863 38.490507 
L 201.502863 38.490507 
z
" clip-path="url(#pff42056683)" style="fill: none; stroke: #000000; stroke-width: 2; stroke-linejoin: miter"/>
   </g>
   <g id="patch_4">
    <path d="M 140.481289 88.833306 
C 141.452275 88.833306 142.383624 88.447529 143.070215 87.760938 
C 143.756806 87.074347 144.142583 86.142998 144.142583 85.172012 
C 144.142583 84.201025 143.756806 83.269677 143.070215 82.583086 
C 142.383624 81.896494 141.452275 81.510717 140.481289 81.510717 
C 139.510302 81.510717 138.578954 81.896494 137.892362 82.583086 
C 137.205771 83.269677 136.819994 84.201025 136.819994 85.172012 
C 136.819994 86.142998 137.205771 87.074347 137.892362 87.760938 
C 138.578954 88.447529 139.510302 88.833306 140.481289 88.833306 
L 140.481289 88.833306 
z
" clip-path="url(#pff42056683)" style="fill: none; stroke: #000000; stroke-width: 2; stroke-linejoin: miter"/>
   </g>
   <g id="patch_5">
    <path d="M 65.882414 105.614239 
C 66.853401 105.614239 67.784749 105.228462 68.47134 104.541871 
C 69.157931 103.85528 69.543708 102.923931 69.543708 101.952945 
C 69.543708 100.981958 69.157931 100.05061 68.47134 99.364018 
C 67.784749 98.677427 66.853401 98.29165 65.882414 98.29165 
C 64.911427 98.29165 63.980079 98.677427 63.293488 99.364018 
C 62.606897 100.05061 62.22112 100.981958 62.22112 101.952945 
C 62.22112 102.923931 62.606897 103.85528 63.293488 104.541871 
C 63.980079 105.228462 64.911427 105.614239 65.882414 105.614239 
L 65.882414 105.614239 
z
" clip-path="url(#pff42056683)" style="fill: none; stroke: #000000; stroke-width: 2; stroke-linejoin: miter"/>
   </g>
   <g id="line2d_1">
    <path d="M 222.250198 83.341364 
L 239.249065 83.241737 
L 240.992539 82.942856 
L 242.736012 82.444721 
L 244.479486 81.747331 
L 246.22296 80.850688 
L 248.402302 79.449682 
L 250.581643 77.737342 
L 252.760985 75.713668 
L 254.940327 73.378658 
L 257.119669 70.732315 
L 258.863143 68.391079 
L 258.863143 68.391079 
L 256.247933 64.953945 
L 254.068591 62.432135 
L 251.889249 60.22166 
L 249.709907 58.322519 
L 247.530565 56.734713 
L 245.351223 55.458241 
L 243.607749 54.661224 
L 241.864276 54.063462 
L 240.120802 53.664954 
L 238.377329 53.4657 
L 237.505592 53.440793 
L 222.250198 53.440793 
L 222.250198 53.440793 
L 224.446975 55.881656 
L 225.838267 57.712303 
L 227.009881 59.54295 
L 227.961818 61.373598 
L 228.694077 63.204245 
L 229.206658 65.034892 
L 229.499561 66.865539 
L 229.572787 68.696187 
L 229.426335 70.526834 
L 229.060206 72.357481 
L 228.474399 74.188128 
L 227.668914 76.018776 
L 226.643752 77.849423 
L 225.398911 79.68007 
L 223.934394 81.510717 
L 222.250198 83.341364 
L 222.250198 83.341364 
" clip-path="url(#pff42056683)" style="fill: none; stroke: #000000; stroke-width: 2; stroke-linecap: round"/>
   </g>
   <g id="line2d_2">
    <path d="M 211.571423 76.018776 
L 227.668914 76.018776 
" clip-path="url(#pff42056683)" style="fill: none; stroke: #000000; stroke-width: 2; stroke-linecap: round"/>
   </g>
   <g id="line2d_3">
    <path d="M 211.571423 60.763382 
L 227.668914 60.763382 
" clip-path="url(#pff42056683)" style="fill: none; stroke: #000000; stroke-width: 2; stroke-linecap: round"/>
   </g>
   <g id="line2d_4">
    <path d="M 266.185732 68.391079 
L 269.541918 68.391079 
" clip-path="url(#pff42056683)" style="fill: none; stroke: #000000; stroke-width: 2; stroke-linecap: round"/>
   </g>
   <g id="line2d_5">
    <path d="M 161.228624 49.779499 
L 178.227491 49.679871 
L 179.970965 49.38099 
L 181.714438 48.882855 
L 183.457912 48.185466 
L 185.201385 47.288822 
L 187.380727 45.887817 
L 189.560069 44.175476 
L 191.739411 42.151802 
L 193.918753 39.816793 
L 196.098095 37.170449 
L 197.841569 34.829213 
L 197.841569 34.829213 
L 195.226358 31.392079 
L 193.047016 28.870269 
L 190.867674 26.659794 
L 188.688332 24.760653 
L 186.50899 23.172847 
L 184.329648 21.896375 
L 182.586175 21.099359 
L 180.842701 20.501596 
L 179.099228 20.103088 
L 177.355754 19.903834 
L 176.484017 19.878927 
L 161.228624 19.878927 
L 161.228624 19.878927 
L 163.425401 22.31979 
L 164.816692 24.150437 
L 165.988307 25.981085 
L 166.940243 27.811732 
L 167.672502 29.642379 
L 168.185083 31.473026 
L 168.477987 33.303673 
L 168.551213 35.134321 
L 168.404761 36.964968 
L 168.038632 38.795615 
L 167.452824 40.626262 
L 166.64734 42.45691 
L 165.622177 44.287557 
L 164.377337 46.118204 
L 162.912819 47.948851 
L 161.228624 49.779499 
L 161.228624 49.779499 
" clip-path="url(#pff42056683)" style="fill: none; stroke: #000000; stroke-width: 2; stroke-linecap: round"/>
   </g>
   <g id="line2d_6">
    <path d="M 150.549848 42.45691 
L 166.64734 42.45691 
" clip-path="url(#pff42056683)" style="fill: none; stroke: #000000; stroke-width: 2; stroke-linecap: round"/>
   </g>
   <g id="line2d_7">
    <path d="M 150.549848 27.201516 
L 166.64734 27.201516 
" clip-path="url(#pff42056683)" style="fill: none; stroke: #000000; stroke-width: 2; stroke-linecap: round"/>
   </g>
   <g id="line2d_8">
    <path d="M 205.164157 34.829213 
L 208.520344 34.829213 
" clip-path="url(#pff42056683)" style="fill: none; stroke: #000000; stroke-width: 2; stroke-linecap: round"/>
   </g>
   <g id="line2d_9">
    <path d="M 211.571423 60.763382 
L 208.520344 60.763382 
L 208.520344 34.829213 
" clip-path="url(#pff42056683)" style="fill: none; stroke: #000000; stroke-width: 2; stroke-linecap: round"/>
   </g>
   <g id="line2d_10">
    <path d="M 182.586175 117.208338 
L 183.563591 117.176994 
L 184.536991 117.083092 
L 185.502375 116.927016 
L 186.455775 116.709408 
L 187.393275 116.431164 
L 188.311021 116.093425 
L 189.205242 115.697579 
L 190.072264 115.245254 
L 190.908525 114.738309 
L 191.710586 114.178825 
L 192.475154 113.569102 
L 193.199086 112.911647 
L 193.879407 112.209159 
L 194.513322 111.464527 
L 195.098225 110.680809 
L 195.631714 109.861227 
L 196.111596 109.009148 
L 196.535899 108.128074 
L 196.90288 107.221624 
L 197.21103 106.293525 
L 197.459084 105.347589 
L 197.646022 104.387704 
L 197.771075 103.417814 
L 197.833731 102.441904 
L 197.833731 101.463985 
L 197.771075 100.488076 
L 197.646022 99.518185 
L 197.459084 98.5583 
L 197.21103 97.612364 
L 196.90288 96.684265 
L 196.535899 95.777815 
L 196.111596 94.896741 
L 195.631714 94.044662 
L 195.098225 93.22508 
L 194.513322 92.441362 
L 193.879407 91.69673 
L 193.199086 90.994243 
L 192.475154 90.336787 
L 191.710586 89.727064 
L 190.908525 89.167581 
L 190.072264 88.660635 
L 189.205242 88.20831 
L 188.311021 87.812465 
L 187.393275 87.474726 
L 186.455775 87.196481 
L 185.502375 86.978873 
L 184.536991 86.822798 
L 183.563591 86.728895 
L 182.586175 86.697551 
L 182.586175 86.697551 
L 162.754163 86.697551 
L 162.754163 101.952945 
L 162.754163 117.208338 
L 182.586175 117.208338 
" clip-path="url(#pff42056683)" style="fill: none; stroke: #000000; stroke-width: 2; stroke-linecap: round"/>
   </g>
   <g id="line2d_11">
    <path d="M 152.075388 109.580641 
L 162.754163 109.580641 
" clip-path="url(#pff42056683)" style="fill: none; stroke: #000000; stroke-width: 2; stroke-linecap: round"/>
   </g>
   <g id="line2d_12">
    <path d="M 152.075388 94.325248 
L 162.754163 94.325248 
" clip-path="url(#pff42056683)" style="fill: none; stroke: #000000; stroke-width: 2; stroke-linecap: round"/>
   </g>
   <g id="line2d_13">
    <path d="M 197.841569 101.952945 
L 208.520344 101.952945 
" clip-path="url(#pff42056683)" style="fill: none; stroke: #000000; stroke-width: 2; stroke-linecap: round"/>
   </g>
   <g id="line2d_14">
    <path d="M 100.20705 100.122297 
L 117.205917 100.02267 
L 118.94939 99.723789 
L 120.692864 99.225654 
L 122.436337 98.528264 
L 124.179811 97.631621 
L 126.359153 96.230615 
L 128.538495 94.518275 
L 130.717837 92.494601 
L 132.897179 90.159591 
L 135.076521 87.513248 
L 136.819994 85.172012 
L 136.819994 85.172012 
L 134.204784 81.734878 
L 132.025442 79.213068 
L 129.8461 77.002593 
L 127.666758 75.103452 
L 125.487416 73.515646 
L 123.308074 72.239174 
L 121.564601 71.442157 
L 119.821127 70.844395 
L 118.077653 70.445887 
L 116.33418 70.246633 
L 115.462443 70.221726 
L 100.20705 70.221726 
L 100.20705 70.221726 
L 102.403826 72.662589 
L 103.795118 74.493236 
L 104.966732 76.323883 
L 105.918669 78.154531 
L 106.650928 79.985178 
L 107.163509 81.815825 
L 107.456413 83.646472 
L 107.529638 85.47712 
L 107.383187 87.307767 
L 107.017057 89.138414 
L 106.43125 90.969061 
L 105.625765 92.799708 
L 104.600603 94.630356 
L 103.355763 96.461003 
L 101.891245 98.29165 
L 100.20705 100.122297 
L 100.20705 100.122297 
" clip-path="url(#pff42056683)" style="fill: none; stroke: #000000; stroke-width: 2; stroke-linecap: round"/>
   </g>
   <g id="line2d_15">
    <path d="M 89.528274 92.799708 
L 105.625765 92.799708 
" clip-path="url(#pff42056683)" style="fill: none; stroke: #000000; stroke-width: 2; stroke-linecap: round"/>
   </g>
   <g id="line2d_16">
    <path d="M 89.528274 77.544315 
L 105.625765 77.544315 
" clip-path="url(#pff42056683)" style="fill: none; stroke: #000000; stroke-width: 2; stroke-linecap: round"/>
   </g>
   <g id="line2d_17">
    <path d="M 144.142583 85.172012 
L 147.49877 85.172012 
" clip-path="url(#pff42056683)" style="fill: none; stroke: #000000; stroke-width: 2; stroke-linecap: round"/>
   </g>
   <g id="line2d_18">
    <path d="M 25.455621 101.952945 
L 42.389108 101.952945 
M 69.543708 101.952945 
L 86.477195 101.952945 
" clip-path="url(#pff42056683)" style="fill: none; stroke: #000000; stroke-width: 2; stroke-linecap: round"/>
   </g>
   <g id="line2d_19">
    <path d="M 42.389108 86.697551 
L 62.22112 101.952945 
L 42.389108 117.208338 
L 42.389108 86.697551 
" clip-path="url(#pff42056683)" style="fill: none; stroke: #000000; stroke-width: 2; stroke-linecap: round"/>
   </g>
   <g id="line2d_20">
    <path d="M 89.528274 92.799708 
L 86.477195 92.799708 
L 86.477195 101.952945 
" clip-path="url(#pff42056683)" style="fill: none; stroke: #000000; stroke-width: 2; stroke-linecap: round"/>
   </g>
   <g id="line2d_21">
    <path d="M 152.075388 94.325248 
L 147.49877 94.325248 
L 147.49877 85.172012 
" clip-path="url(#pff42056683)" style="fill: none; stroke: #000000; stroke-width: 2; stroke-linecap: round"/>
   </g>
   <g id="line2d_22">
    <path d="M 211.571423 76.018776 
L 208.520344 76.018776 
L 208.520344 101.952945 
" clip-path="url(#pff42056683)" style="fill: none; stroke: #000000; stroke-width: 2; stroke-linecap: round"/>
   </g>
   <g id="text_1">
    <g clip-path="url(#pff42056683)">
     <!-- output -->
     <g transform="translate(272.592997 71.840297) scale(0.125 -0.125)">
      <defs>
       <path id="DejaVuSans-6f" d="M 1959 3097 
Q 1497 3097 1228 2736 
Q 959 2375 959 1747 
Q 959 1119 1226 758 
Q 1494 397 1959 397 
Q 2419 397 2687 759 
Q 2956 1122 2956 1747 
Q 2956 2369 2687 2733 
Q 2419 3097 1959 3097 
z
M 1959 3584 
Q 2709 3584 3137 3096 
Q 3566 2609 3566 1747 
Q 3566 888 3137 398 
Q 2709 -91 1959 -91 
Q 1206 -91 779 398 
Q 353 888 353 1747 
Q 353 2609 779 3096 
Q 1206 3584 1959 3584 
z
" transform="scale(0.015625)"/>
       <path id="DejaVuSans-75" d="M 544 1381 
L 544 3500 
L 1119 3500 
L 1119 1403 
Q 1119 906 1312 657 
Q 1506 409 1894 409 
Q 2359 409 2629 706 
Q 2900 1003 2900 1516 
L 2900 3500 
L 3475 3500 
L 3475 0 
L 2900 0 
L 2900 538 
Q 2691 219 2414 64 
Q 2138 -91 1772 -91 
Q 1169 -91 856 284 
Q 544 659 544 1381 
z
M 1991 3584 
L 1991 3584 
z
" transform="scale(0.015625)"/>
       <path id="DejaVuSans-74" d="M 1172 4494 
L 1172 3500 
L 2356 3500 
L 2356 3053 
L 1172 3053 
L 1172 1153 
Q 1172 725 1289 603 
Q 1406 481 1766 481 
L 2356 481 
L 2356 0 
L 1766 0 
Q 1100 0 847 248 
Q 594 497 594 1153 
L 594 3053 
L 172 3053 
L 172 3500 
L 594 3500 
L 594 4494 
L 1172 4494 
z
" transform="scale(0.015625)"/>
       <path id="DejaVuSans-70" d="M 1159 525 
L 1159 -1331 
L 581 -1331 
L 581 3500 
L 1159 3500 
L 1159 2969 
Q 1341 3281 1617 3432 
Q 1894 3584 2278 3584 
Q 2916 3584 3314 3078 
Q 3713 2572 3713 1747 
Q 3713 922 3314 415 
Q 2916 -91 2278 -91 
Q 1894 -91 1617 61 
Q 1341 213 1159 525 
z
M 3116 1747 
Q 3116 2381 2855 2742 
Q 2594 3103 2138 3103 
Q 1681 3103 1420 2742 
Q 1159 2381 1159 1747 
Q 1159 1113 1420 752 
Q 1681 391 2138 391 
Q 2594 391 2855 752 
Q 3116 1113 3116 1747 
z
" transform="scale(0.015625)"/>
      </defs>
      <use xlink:href="#DejaVuSans-6f"/>
      <use xlink:href="#DejaVuSans-75" x="61.181641"/>
      <use xlink:href="#DejaVuSans-74" x="124.560547"/>
      <use xlink:href="#DejaVuSans-70" x="163.769531"/>
      <use xlink:href="#DejaVuSans-75" x="227.246094"/>
      <use xlink:href="#DejaVuSans-74" x="290.625"/>
     </g>
    </g>
   </g>
   <g id="text_2">
    <g clip-path="url(#pff42056683)">
     <!-- a -->
     <g transform="translate(139.838613 30.650735) scale(0.125 -0.125)">
      <defs>
       <path id="DejaVuSans-61" d="M 2194 1759 
Q 1497 1759 1228 1600 
Q 959 1441 959 1056 
Q 959 750 1161 570 
Q 1363 391 1709 391 
Q 2188 391 2477 730 
Q 2766 1069 2766 1631 
L 2766 1759 
L 2194 1759 
z
M 3341 1997 
L 3341 0 
L 2766 0 
L 2766 531 
Q 2569 213 2275 61 
Q 1981 -91 1556 -91 
Q 1019 -91 701 211 
Q 384 513 384 1019 
Q 384 1609 779 1909 
Q 1175 2209 1959 2209 
L 2766 2209 
L 2766 2266 
Q 2766 2663 2505 2880 
Q 2244 3097 1772 3097 
Q 1472 3097 1187 3025 
Q 903 2953 641 2809 
L 641 3341 
Q 956 3463 1253 3523 
Q 1550 3584 1831 3584 
Q 2591 3584 2966 3190 
Q 3341 2797 3341 1997 
z
" transform="scale(0.015625)"/>
      </defs>
      <use xlink:href="#DejaVuSans-61"/>
     </g>
    </g>
   </g>
   <g id="text_3">
    <g clip-path="url(#pff42056683)">
     <!-- b -->
     <g transform="translate(139.563223 45.906128) scale(0.125 -0.125)">
      <defs>
       <path id="DejaVuSans-62" d="M 3116 1747 
Q 3116 2381 2855 2742 
Q 2594 3103 2138 3103 
Q 1681 3103 1420 2742 
Q 1159 2381 1159 1747 
Q 1159 1113 1420 752 
Q 1681 391 2138 391 
Q 2594 391 2855 752 
Q 3116 1113 3116 1747 
z
M 1159 2969 
Q 1341 3281 1617 3432 
Q 1894 3584 2278 3584 
Q 2916 3584 3314 3078 
Q 3713 2572 3713 1747 
Q 3713 922 3314 415 
Q 2916 -91 2278 -91 
Q 1894 -91 1617 61 
Q 1341 213 1159 525 
L 1159 0 
L 581 0 
L 581 4863 
L 1159 4863 
L 1159 2969 
z
" transform="scale(0.015625)"/>
      </defs>
      <use xlink:href="#DejaVuSans-62"/>
     </g>
    </g>
   </g>
   <g id="text_4">
    <g clip-path="url(#pff42056683)">
     <!-- TRUE -->
     <g transform="translate(115.657122 113.02986) scale(0.125 -0.125)">
      <defs>
       <path id="DejaVuSans-54" d="M -19 4666 
L 3928 4666 
L 3928 4134 
L 2272 4134 
L 2272 0 
L 1638 0 
L 1638 4134 
L -19 4134 
L -19 4666 
z
" transform="scale(0.015625)"/>
       <path id="DejaVuSans-52" d="M 2841 2188 
Q 3044 2119 3236 1894 
Q 3428 1669 3622 1275 
L 4263 0 
L 3584 0 
L 2988 1197 
Q 2756 1666 2539 1819 
Q 2322 1972 1947 1972 
L 1259 1972 
L 1259 0 
L 628 0 
L 628 4666 
L 2053 4666 
Q 2853 4666 3247 4331 
Q 3641 3997 3641 3322 
Q 3641 2881 3436 2590 
Q 3231 2300 2841 2188 
z
M 1259 4147 
L 1259 2491 
L 2053 2491 
Q 2509 2491 2742 2702 
Q 2975 2913 2975 3322 
Q 2975 3731 2742 3939 
Q 2509 4147 2053 4147 
L 1259 4147 
z
" transform="scale(0.015625)"/>
       <path id="DejaVuSans-55" d="M 556 4666 
L 1191 4666 
L 1191 1831 
Q 1191 1081 1462 751 
Q 1734 422 2344 422 
Q 2950 422 3222 751 
Q 3494 1081 3494 1831 
L 3494 4666 
L 4128 4666 
L 4128 1753 
Q 4128 841 3676 375 
Q 3225 -91 2344 -91 
Q 1459 -91 1007 375 
Q 556 841 556 1753 
L 556 4666 
z
" transform="scale(0.015625)"/>
       <path id="DejaVuSans-45" d="M 628 4666 
L 3578 4666 
L 3578 4134 
L 1259 4134 
L 1259 2753 
L 3481 2753 
L 3481 2222 
L 1259 2222 
L 1259 531 
L 3634 531 
L 3634 0 
L 628 0 
L 628 4666 
z
" transform="scale(0.015625)"/>
      </defs>
      <use xlink:href="#DejaVuSans-54"/>
      <use xlink:href="#DejaVuSans-52" x="61.083984"/>
      <use xlink:href="#DejaVuSans-55" x="130.566406"/>
      <use xlink:href="#DejaVuSans-45" x="203.759766"/>
     </g>
    </g>
   </g>
   <g id="text_5">
    <g clip-path="url(#pff42056683)">
     <!-- c -->
     <g transform="translate(79.604148 80.993534) scale(0.125 -0.125)">
      <defs>
       <path id="DejaVuSans-63" d="M 3122 3366 
L 3122 2828 
Q 2878 2963 2633 3030 
Q 2388 3097 2138 3097 
Q 1578 3097 1268 2742 
Q 959 2388 959 1747 
Q 959 1106 1268 751 
Q 1578 397 2138 397 
Q 2388 397 2633 464 
Q 2878 531 3122 666 
L 3122 134 
Q 2881 22 2623 -34 
Q 2366 -91 2075 -91 
Q 1284 -91 818 406 
Q 353 903 353 1747 
Q 353 2603 823 3093 
Q 1294 3584 2113 3584 
Q 2378 3584 2631 3529 
Q 2884 3475 3122 3366 
z
" transform="scale(0.015625)"/>
      </defs>
      <use xlink:href="#DejaVuSans-63"/>
     </g>
    </g>
   </g>
   <g id="text_6">
    <g clip-path="url(#pff42056683)">
     <!-- c -->
     <g transform="translate(15.531495 105.402163) scale(0.125 -0.125)">
      <use xlink:href="#DejaVuSans-63"/>
     </g>
    </g>
   </g>
  </g>
 </g>
 <defs>
  <clipPath id="pff42056683">
   <rect x="7.2" y="7.2" width="314.820472" height="116.28"/>
  </clipPath>
 </defs>
</svg>
