<?xml version="1.0" encoding="utf-8" standalone="no"?>
<!DOCTYPE svg PUBLIC "-//W3C//DTD SVG 1.1//EN"
  "http://www.w3.org/Graphics/SVG/1.1/DTD/svg11.dtd">
<svg xmlns:xlink="http://www.w3.org/1999/xlink" width="390.765446pt" height="153.324pt" viewBox="0 0 390.765446 153.324" xmlns="http://www.w3.org/2000/svg" version="1.1">
 <metadata>
  <rdf:RDF xmlns:dc="http://purl.org/dc/elements/1.1/" xmlns:cc="http://creativecommons.org/ns#" xmlns:rdf="http://www.w3.org/1999/02/22-rdf-syntax-ns#">
   <cc:Work>
    <dc:type rdf:resource="http://purl.org/dc/dcmitype/StillImage"/>
    <dc:date>2022-11-07T10:30:15.771187</dc:date>
    <dc:format>image/svg+xml</dc:format>
    <dc:creator>
     <cc:Agent>
      <dc:title>Matplotlib v3.6.0, https://matplotlib.org/</dc:title>
     </cc:Agent>
    </dc:creator>
   </cc:Work>
  </rdf:RDF>
 </metadata>
 <defs>
  <style type="text/css">*{stroke-linejoin: round; stroke-linecap: butt}</style>
 </defs>
 <g id="figure_1">
  <g id="patch_1">
   <path d="M 0 153.324 
L 390.765446 153.324 
L 390.765446 0 
L 0 0 
L 0 153.324 
z
" style="fill: none"/>
  </g>
  <g id="axes_1">
   <g id="patch_2">
    <path d="M 202.117149 81.168559 
C 203.087649 81.168559 204.018531 80.782975 204.704779 80.096728 
C 205.391026 79.41048 205.77661 78.479598 205.77661 77.509098 
C 205.77661 76.538597 205.391026 75.607715 204.704779 74.921468 
C 204.018531 74.23522 203.087649 73.849636 202.117149 73.849636 
C 201.146648 73.849636 200.215766 74.23522 199.529519 74.921468 
C 198.843271 75.607715 198.457687 76.538597 198.457687 77.509098 
C 198.457687 78.479598 198.843271 79.41048 199.529519 80.096728 
C 200.215766 80.782975 201.146648 81.168559 202.117149 81.168559 
L 202.117149 81.168559 
z
" clip-path="url(#p1327d03b0a)" style="fill: none; stroke: #000000; stroke-width: 2; stroke-linejoin: miter"/>
   </g>
   <g id="patch_3">
    <path d="M 141.126124 47.623496 
C 142.096625 47.623496 143.027507 47.237912 143.713754 46.551664 
C 144.400002 45.865417 144.785586 44.934535 144.785586 43.964034 
C 144.785586 42.993534 144.400002 42.062652 143.713754 41.376404 
C 143.027507 40.690157 142.096625 40.304573 141.126124 40.304573 
C 140.155624 40.304573 139.224742 40.690157 138.538494 41.376404 
C 137.852247 42.062652 137.466663 42.993534 137.466663 43.964034 
C 137.466663 44.934535 137.852247 45.865417 138.538494 46.551664 
C 139.224742 47.237912 140.155624 47.623496 141.126124 47.623496 
L 141.126124 47.623496 
z
" clip-path="url(#p1327d03b0a)" style="fill: none; stroke: #000000; stroke-width: 2; stroke-linejoin: miter"/>
   </g>
   <g id="patch_4">
    <path d="M 66.564597 30.850964 
C 67.535098 30.850964 68.46598 30.46538 69.152227 29.779132 
C 69.838475 29.092885 70.224059 28.162003 70.224059 27.191502 
C 70.224059 26.221002 69.838475 25.29012 69.152227 24.603872 
C 68.46598 23.917625 67.535098 23.532041 66.564597 23.532041 
C 65.594097 23.532041 64.663215 23.917625 63.976967 24.603872 
C 63.29072 25.29012 62.905136 26.221002 62.905136 27.191502 
C 62.905136 28.162003 63.29072 29.092885 63.976967 29.779132 
C 64.663215 30.46538 65.594097 30.850964 66.564597 30.850964 
L 66.564597 30.850964 
z
" clip-path="url(#p1327d03b0a)" style="fill: none; stroke: #000000; stroke-width: 2; stroke-linejoin: miter"/>
   </g>
   <g id="patch_5">
    <path d="M 141.126124 114.713622 
C 142.096625 114.713622 143.027507 114.328038 143.713754 113.641791 
C 144.400002 112.955543 144.785586 112.024662 144.785586 111.054161 
C 144.785586 110.08366 144.400002 109.152778 143.713754 108.466531 
C 143.027507 107.780283 142.096625 107.3947 141.126124 107.3947 
C 140.155624 107.3947 139.224742 107.780283 138.538494 108.466531 
C 137.852247 109.152778 137.466663 110.08366 137.466663 111.054161 
C 137.466663 112.024662 137.852247 112.955543 138.538494 113.641791 
C 139.224742 114.328038 140.155624 114.713622 141.126124 114.713622 
L 141.126124 114.713622 
z
" clip-path="url(#p1327d03b0a)" style="fill: none; stroke: #000000; stroke-width: 2; stroke-linejoin: miter"/>
   </g>
   <g id="patch_6">
    <path d="M 66.564597 131.486154 
C 67.535098 131.486154 68.46598 131.10057 69.152227 130.414323 
C 69.838475 129.728075 70.224059 128.797193 70.224059 127.826693 
C 70.224059 126.856192 69.838475 125.92531 69.152227 125.239063 
C 68.46598 124.552815 67.535098 124.167231 66.564597 124.167231 
C 65.594097 124.167231 64.663215 124.552815 63.976967 125.239063 
C 63.29072 125.92531 62.905136 126.856192 62.905136 127.826693 
C 62.905136 128.797193 63.29072 129.728075 63.976967 130.414323 
C 64.663215 131.10057 65.594097 131.486154 66.564597 131.486154 
L 66.564597 131.486154 
z
" clip-path="url(#p1327d03b0a)" style="fill: none; stroke: #000000; stroke-width: 2; stroke-linejoin: miter"/>
   </g>
   <g id="line2d_1">
    <path d="M 305.19198 126.301917 
L 306.168907 126.270589 
L 307.14182 126.176733 
L 308.10672 126.020736 
L 309.059643 125.803237 
L 309.996673 125.525132 
L 310.91396 125.187562 
L 311.807733 124.791915 
L 312.674322 124.339816 
L 313.510163 123.833124 
L 314.311823 123.27392 
L 315.076008 122.664503 
L 315.799578 122.007377 
L 316.479558 121.305241 
L 317.113156 120.560981 
L 317.697766 119.777656 
L 318.230988 118.958484 
L 318.71063 118.106832 
L 319.134721 117.226199 
L 319.501518 116.320203 
L 319.809514 115.392568 
L 320.057443 114.447106 
L 320.244287 113.487701 
L 320.369278 112.518297 
L 320.431902 111.542876 
L 320.431902 110.565446 
L 320.369278 109.590025 
L 320.244287 108.620621 
L 320.057443 107.661216 
L 319.809514 106.715754 
L 319.501518 105.788119 
L 319.134721 104.882123 
L 318.71063 104.00149 
L 318.230988 103.149838 
L 317.697766 102.330666 
L 317.113156 101.547341 
L 316.479558 100.803081 
L 315.799578 100.100945 
L 315.076008 99.443819 
L 314.311823 98.834402 
L 313.510163 98.275198 
L 312.674322 97.768506 
L 311.807733 97.316407 
L 310.91396 96.92076 
L 309.996673 96.58319 
L 309.059643 96.305085 
L 308.10672 96.087586 
L 307.14182 95.931589 
L 306.168907 95.837733 
L 305.19198 95.806405 
L 305.19198 95.806405 
L 285.369897 95.806405 
L 285.369897 111.054161 
L 285.369897 126.301917 
L 305.19198 126.301917 
" clip-path="url(#p1327d03b0a)" style="fill: none; stroke: #000000; stroke-width: 2; stroke-linecap: round"/>
   </g>
   <g id="line2d_2">
    <path d="M 274.696468 118.678039 
L 285.369897 118.678039 
" clip-path="url(#p1327d03b0a)" style="fill: none; stroke: #000000; stroke-width: 2; stroke-linecap: round"/>
   </g>
   <g id="line2d_3">
    <path d="M 274.696468 103.430283 
L 285.369897 103.430283 
" clip-path="url(#p1327d03b0a)" style="fill: none; stroke: #000000; stroke-width: 2; stroke-linecap: round"/>
   </g>
   <g id="line2d_4">
    <path d="M 320.439736 111.054161 
L 331.113165 111.054161 
" clip-path="url(#p1327d03b0a)" style="fill: none; stroke: #000000; stroke-width: 2; stroke-linecap: round"/>
   </g>
   <g id="line2d_5">
    <path d="M 222.854097 109.22443 
L 239.844454 109.124853 
L 241.587055 108.826122 
L 243.329655 108.328236 
L 245.072256 107.631195 
L 246.814857 106.735001 
L 248.993108 105.334697 
L 251.171358 103.623214 
L 253.349609 101.600552 
L 255.52786 99.266712 
L 257.706111 96.621693 
L 259.448712 94.281629 
L 259.448712 94.281629 
L 256.834811 90.846216 
L 254.65656 88.325669 
L 252.478309 86.1163 
L 250.300058 84.21811 
L 248.121807 82.631099 
L 245.943556 81.355266 
L 244.200956 80.558649 
L 242.458355 79.961186 
L 240.715754 79.562877 
L 238.973154 79.363723 
L 238.101853 79.338828 
L 222.854097 79.338828 
L 222.854097 79.338828 
L 225.049774 81.778469 
L 226.440369 83.6082 
L 227.611397 85.437931 
L 228.562857 87.267661 
L 229.294749 89.097392 
L 229.807074 90.927123 
L 230.099831 92.756854 
L 230.17302 94.586584 
L 230.026642 96.416315 
L 229.660695 98.246046 
L 229.075182 100.075777 
L 228.2701 101.905507 
L 227.245451 103.735238 
L 226.001234 105.564969 
L 224.537449 107.3947 
L 222.854097 109.22443 
L 222.854097 109.22443 
" clip-path="url(#p1327d03b0a)" style="fill: none; stroke: #000000; stroke-width: 2; stroke-linecap: round"/>
   </g>
   <g id="line2d_6">
    <path d="M 212.180668 101.905507 
L 228.2701 101.905507 
" clip-path="url(#p1327d03b0a)" style="fill: none; stroke: #000000; stroke-width: 2; stroke-linecap: round"/>
   </g>
   <g id="line2d_7">
    <path d="M 212.180668 86.657751 
L 228.2701 86.657751 
" clip-path="url(#p1327d03b0a)" style="fill: none; stroke: #000000; stroke-width: 2; stroke-linecap: round"/>
   </g>
   <g id="line2d_8">
    <path d="M 259.448712 94.281629 
L 270.122141 94.281629 
" clip-path="url(#p1327d03b0a)" style="fill: none; stroke: #000000; stroke-width: 2; stroke-linecap: round"/>
   </g>
   <g id="line2d_9">
    <path d="M 183.209931 92.756854 
L 184.186858 92.725526 
L 185.159771 92.63167 
L 186.124671 92.475672 
L 187.077594 92.258174 
L 188.014624 91.980068 
L 188.931911 91.642498 
L 189.825685 91.246851 
L 190.692273 90.794753 
L 191.528114 90.288061 
L 192.329775 89.728857 
L 193.09396 89.11944 
L 193.817529 88.462313 
L 194.49751 87.760178 
L 195.131107 87.015918 
L 195.715718 86.232593 
L 196.248939 85.413421 
L 196.728581 84.561769 
L 197.152672 83.681135 
L 197.519469 82.77514 
L 197.827465 81.847505 
L 198.075394 80.902042 
L 198.262238 79.942638 
L 198.387229 78.973233 
L 198.449853 77.997812 
L 198.449853 77.020383 
L 198.387229 76.044962 
L 198.262238 75.075557 
L 198.075394 74.116153 
L 197.827465 73.17069 
L 197.519469 72.243055 
L 197.152672 71.33706 
L 196.728581 70.456427 
L 196.248939 69.604774 
L 195.715718 68.785602 
L 195.131107 68.002277 
L 194.49751 67.258018 
L 193.817529 66.555882 
L 193.09396 65.898755 
L 192.329775 65.289338 
L 191.528114 64.730135 
L 190.692273 64.223442 
L 189.825685 63.771344 
L 188.931911 63.375697 
L 188.014624 63.038127 
L 187.077594 62.760021 
L 186.124671 62.542523 
L 185.159771 62.386525 
L 184.186858 62.29267 
L 183.209931 62.261341 
L 183.209931 62.261341 
L 163.387848 62.261341 
L 163.387848 77.509098 
L 163.387848 92.756854 
L 183.209931 92.756854 
" clip-path="url(#p1327d03b0a)" style="fill: none; stroke: #000000; stroke-width: 2; stroke-linecap: round"/>
   </g>
   <g id="line2d_10">
    <path d="M 152.714419 85.132976 
L 163.387848 85.132976 
" clip-path="url(#p1327d03b0a)" style="fill: none; stroke: #000000; stroke-width: 2; stroke-linecap: round"/>
   </g>
   <g id="line2d_11">
    <path d="M 152.714419 69.88522 
L 163.387848 69.88522 
" clip-path="url(#p1327d03b0a)" style="fill: none; stroke: #000000; stroke-width: 2; stroke-linecap: round"/>
   </g>
   <g id="line2d_12">
    <path d="M 205.77661 77.509098 
L 209.131117 77.509098 
" clip-path="url(#p1327d03b0a)" style="fill: none; stroke: #000000; stroke-width: 2; stroke-linecap: round"/>
   </g>
   <g id="line2d_13">
    <path d="M 122.218907 59.21179 
L 123.195834 59.180462 
L 124.168747 59.086606 
L 125.133647 58.930609 
L 126.08657 58.71311 
L 127.0236 58.435005 
L 127.940887 58.097435 
L 128.83466 57.701788 
L 129.701248 57.249689 
L 130.53709 56.742997 
L 131.33875 56.183794 
L 132.102935 55.574376 
L 132.826505 54.91725 
L 133.506485 54.215114 
L 134.140083 53.470855 
L 134.724693 52.687529 
L 135.257915 51.868358 
L 135.737557 51.016705 
L 136.161647 50.136072 
L 136.528444 49.230076 
L 136.83644 48.302441 
L 137.08437 47.356979 
L 137.271214 46.397574 
L 137.396205 45.42817 
L 137.458829 44.452749 
L 137.458829 43.47532 
L 137.396205 42.499898 
L 137.271214 41.530494 
L 137.08437 40.571089 
L 136.83644 39.625627 
L 136.528444 38.697992 
L 136.161647 37.791996 
L 135.737557 36.911363 
L 135.257915 36.059711 
L 134.724693 35.240539 
L 134.140083 34.457214 
L 133.506485 33.712954 
L 132.826505 33.010818 
L 132.102935 32.353692 
L 131.33875 31.744275 
L 130.53709 31.185071 
L 129.701248 30.678379 
L 128.83466 30.226281 
L 127.940887 29.830634 
L 127.0236 29.493064 
L 126.08657 29.214958 
L 125.133647 28.99746 
L 124.168747 28.841462 
L 123.195834 28.747606 
L 122.218907 28.716278 
L 122.218907 28.716278 
L 102.396824 28.716278 
L 102.396824 43.964034 
L 102.396824 59.21179 
L 122.218907 59.21179 
" clip-path="url(#p1327d03b0a)" style="fill: none; stroke: #000000; stroke-width: 2; stroke-linecap: round"/>
   </g>
   <g id="line2d_14">
    <path d="M 91.723395 51.587912 
L 102.396824 51.587912 
" clip-path="url(#p1327d03b0a)" style="fill: none; stroke: #000000; stroke-width: 2; stroke-linecap: round"/>
   </g>
   <g id="line2d_15">
    <path d="M 91.723395 36.340156 
L 102.396824 36.340156 
" clip-path="url(#p1327d03b0a)" style="fill: none; stroke: #000000; stroke-width: 2; stroke-linecap: round"/>
   </g>
   <g id="line2d_16">
    <path d="M 144.785586 43.964034 
L 148.140092 43.964034 
" clip-path="url(#p1327d03b0a)" style="fill: none; stroke: #000000; stroke-width: 2; stroke-linecap: round"/>
   </g>
   <g id="line2d_17">
    <path d="M 26.158043 27.191502 
L 43.083053 27.191502 
M 70.224059 27.191502 
L 87.149068 27.191502 
" clip-path="url(#p1327d03b0a)" style="fill: none; stroke: #000000; stroke-width: 2; stroke-linecap: round"/>
   </g>
   <g id="line2d_18">
    <path d="M 43.083053 11.943746 
L 62.905136 27.191502 
L 43.083053 42.439259 
L 43.083053 11.943746 
" clip-path="url(#p1327d03b0a)" style="fill: none; stroke: #000000; stroke-width: 2; stroke-linecap: round"/>
   </g>
   <g id="line2d_19">
    <path d="M 91.723395 36.340156 
L 87.149068 36.340156 
L 87.149068 27.191502 
" clip-path="url(#p1327d03b0a)" style="fill: none; stroke: #000000; stroke-width: 2; stroke-linecap: round"/>
   </g>
   <g id="line2d_20">
    <path d="M 152.714419 69.88522 
L 148.140092 69.88522 
L 148.140092 43.964034 
" clip-path="url(#p1327d03b0a)" style="fill: none; stroke: #000000; stroke-width: 2; stroke-linecap: round"/>
   </g>
   <g id="line2d_21">
    <path d="M 122.218907 126.301917 
L 123.195834 126.270589 
L 124.168747 126.176733 
L 125.133647 126.020736 
L 126.08657 125.803237 
L 127.0236 125.525132 
L 127.940887 125.187562 
L 128.83466 124.791915 
L 129.701248 124.339816 
L 130.53709 123.833124 
L 131.33875 123.27392 
L 132.102935 122.664503 
L 132.826505 122.007377 
L 133.506485 121.305241 
L 134.140083 120.560981 
L 134.724693 119.777656 
L 135.257915 118.958484 
L 135.737557 118.106832 
L 136.161647 117.226199 
L 136.528444 116.320203 
L 136.83644 115.392568 
L 137.08437 114.447106 
L 137.271214 113.487701 
L 137.396205 112.518297 
L 137.458829 111.542876 
L 137.458829 110.565446 
L 137.396205 109.590025 
L 137.271214 108.620621 
L 137.08437 107.661216 
L 136.83644 106.715754 
L 136.528444 105.788119 
L 136.161647 104.882123 
L 135.737557 104.00149 
L 135.257915 103.149838 
L 134.724693 102.330666 
L 134.140083 101.547341 
L 133.506485 100.803081 
L 132.826505 100.100945 
L 132.102935 99.443819 
L 131.33875 98.834402 
L 130.53709 98.275198 
L 129.701248 97.768506 
L 128.83466 97.316407 
L 127.940887 96.92076 
L 127.0236 96.58319 
L 126.08657 96.305085 
L 125.133647 96.087586 
L 124.168747 95.931589 
L 123.195834 95.837733 
L 122.218907 95.806405 
L 122.218907 95.806405 
L 102.396824 95.806405 
L 102.396824 111.054161 
L 102.396824 126.301917 
L 122.218907 126.301917 
" clip-path="url(#p1327d03b0a)" style="fill: none; stroke: #000000; stroke-width: 2; stroke-linecap: round"/>
   </g>
   <g id="line2d_22">
    <path d="M 91.723395 118.678039 
L 102.396824 118.678039 
" clip-path="url(#p1327d03b0a)" style="fill: none; stroke: #000000; stroke-width: 2; stroke-linecap: round"/>
   </g>
   <g id="line2d_23">
    <path d="M 91.723395 103.430283 
L 102.396824 103.430283 
" clip-path="url(#p1327d03b0a)" style="fill: none; stroke: #000000; stroke-width: 2; stroke-linecap: round"/>
   </g>
   <g id="line2d_24">
    <path d="M 144.785586 111.054161 
L 148.140092 111.054161 
" clip-path="url(#p1327d03b0a)" style="fill: none; stroke: #000000; stroke-width: 2; stroke-linecap: round"/>
   </g>
   <g id="line2d_25">
    <path d="M 26.158043 127.826693 
L 43.083053 127.826693 
M 70.224059 127.826693 
L 87.149068 127.826693 
" clip-path="url(#p1327d03b0a)" style="fill: none; stroke: #000000; stroke-width: 2; stroke-linecap: round"/>
   </g>
   <g id="line2d_26">
    <path d="M 43.083053 112.578937 
L 62.905136 127.826693 
L 43.083053 143.074449 
L 43.083053 112.578937 
" clip-path="url(#p1327d03b0a)" style="fill: none; stroke: #000000; stroke-width: 2; stroke-linecap: round"/>
   </g>
   <g id="line2d_27">
    <path d="M 91.723395 118.678039 
L 87.149068 118.678039 
L 87.149068 127.826693 
" clip-path="url(#p1327d03b0a)" style="fill: none; stroke: #000000; stroke-width: 2; stroke-linecap: round"/>
   </g>
   <g id="line2d_28">
    <path d="M 152.714419 85.132976 
L 148.140092 85.132976 
L 148.140092 111.054161 
" clip-path="url(#p1327d03b0a)" style="fill: none; stroke: #000000; stroke-width: 2; stroke-linecap: round"/>
   </g>
   <g id="line2d_29">
    <path d="M 212.180668 86.657751 
L 209.131117 86.657751 
L 209.131117 77.509098 
" clip-path="url(#p1327d03b0a)" style="fill: none; stroke: #000000; stroke-width: 2; stroke-linecap: round"/>
   </g>
   <g id="line2d_30">
    <path d="M 274.696468 103.430283 
L 270.122141 103.430283 
L 270.122141 94.281629 
" clip-path="url(#p1327d03b0a)" style="fill: none; stroke: #000000; stroke-width: 2; stroke-linecap: round"/>
   </g>
   <g id="text_1">
    <g clip-path="url(#p1327d03b0a)">
     <!-- output -->
     <g transform="translate(334.162717 114.50338) scale(0.125 -0.125)">
      <defs>
       <path id="DejaVuSans-6f" d="M 1959 3097 
Q 1497 3097 1228 2736 
Q 959 2375 959 1747 
Q 959 1119 1226 758 
Q 1494 397 1959 397 
Q 2419 397 2687 759 
Q 2956 1122 2956 1747 
Q 2956 2369 2687 2733 
Q 2419 3097 1959 3097 
z
M 1959 3584 
Q 2709 3584 3137 3096 
Q 3566 2609 3566 1747 
Q 3566 888 3137 398 
Q 2709 -91 1959 -91 
Q 1206 -91 779 398 
Q 353 888 353 1747 
Q 353 2609 779 3096 
Q 1206 3584 1959 3584 
z
" transform="scale(0.015625)"/>
       <path id="DejaVuSans-75" d="M 544 1381 
L 544 3500 
L 1119 3500 
L 1119 1403 
Q 1119 906 1312 657 
Q 1506 409 1894 409 
Q 2359 409 2629 706 
Q 2900 1003 2900 1516 
L 2900 3500 
L 3475 3500 
L 3475 0 
L 2900 0 
L 2900 538 
Q 2691 219 2414 64 
Q 2138 -91 1772 -91 
Q 1169 -91 856 284 
Q 544 659 544 1381 
z
M 1991 3584 
L 1991 3584 
z
" transform="scale(0.015625)"/>
       <path id="DejaVuSans-74" d="M 1172 4494 
L 1172 3500 
L 2356 3500 
L 2356 3053 
L 1172 3053 
L 1172 1153 
Q 1172 725 1289 603 
Q 1406 481 1766 481 
L 2356 481 
L 2356 0 
L 1766 0 
Q 1100 0 847 248 
Q 594 497 594 1153 
L 594 3053 
L 172 3053 
L 172 3500 
L 594 3500 
L 594 4494 
L 1172 4494 
z
" transform="scale(0.015625)"/>
       <path id="DejaVuSans-70" d="M 1159 525 
L 1159 -1331 
L 581 -1331 
L 581 3500 
L 1159 3500 
L 1159 2969 
Q 1341 3281 1617 3432 
Q 1894 3584 2278 3584 
Q 2916 3584 3314 3078 
Q 3713 2572 3713 1747 
Q 3713 922 3314 415 
Q 2916 -91 2278 -91 
Q 1894 -91 1617 61 
Q 1341 213 1159 525 
z
M 3116 1747 
Q 3116 2381 2855 2742 
Q 2594 3103 2138 3103 
Q 1681 3103 1420 2742 
Q 1159 2381 1159 1747 
Q 1159 1113 1420 752 
Q 1681 391 2138 391 
Q 2594 391 2855 752 
Q 3116 1113 3116 1747 
z
" transform="scale(0.015625)"/>
      </defs>
      <use xlink:href="#DejaVuSans-6f"/>
      <use xlink:href="#DejaVuSans-75" x="61.181641"/>
      <use xlink:href="#DejaVuSans-74" x="124.560547"/>
      <use xlink:href="#DejaVuSans-70" x="163.769531"/>
      <use xlink:href="#DejaVuSans-75" x="227.246094"/>
      <use xlink:href="#DejaVuSans-74" x="290.625"/>
     </g>
    </g>
   </g>
   <g id="text_2">
    <g clip-path="url(#p1327d03b0a)">
     <!-- TRUE -->
     <g transform="translate(238.279729 122.127258) scale(0.125 -0.125)">
      <defs>
       <path id="DejaVuSans-54" d="M -19 4666 
L 3928 4666 
L 3928 4134 
L 2272 4134 
L 2272 0 
L 1638 0 
L 1638 4134 
L -19 4134 
L -19 4666 
z
" transform="scale(0.015625)"/>
       <path id="DejaVuSans-52" d="M 2841 2188 
Q 3044 2119 3236 1894 
Q 3428 1669 3622 1275 
L 4263 0 
L 3584 0 
L 2988 1197 
Q 2756 1666 2539 1819 
Q 2322 1972 1947 1972 
L 1259 1972 
L 1259 0 
L 628 0 
L 628 4666 
L 2053 4666 
Q 2853 4666 3247 4331 
Q 3641 3997 3641 3322 
Q 3641 2881 3436 2590 
Q 3231 2300 2841 2188 
z
M 1259 4147 
L 1259 2491 
L 2053 2491 
Q 2509 2491 2742 2702 
Q 2975 2913 2975 3322 
Q 2975 3731 2742 3939 
Q 2509 4147 2053 4147 
L 1259 4147 
z
" transform="scale(0.015625)"/>
       <path id="DejaVuSans-55" d="M 556 4666 
L 1191 4666 
L 1191 1831 
Q 1191 1081 1462 751 
Q 1734 422 2344 422 
Q 2950 422 3222 751 
Q 3494 1081 3494 1831 
L 3494 4666 
L 4128 4666 
L 4128 1753 
Q 4128 841 3676 375 
Q 3225 -91 2344 -91 
Q 1459 -91 1007 375 
Q 556 841 556 1753 
L 556 4666 
z
" transform="scale(0.015625)"/>
       <path id="DejaVuSans-45" d="M 628 4666 
L 3578 4666 
L 3578 4134 
L 1259 4134 
L 1259 2753 
L 3481 2753 
L 3481 2222 
L 1259 2222 
L 1259 531 
L 3634 531 
L 3634 0 
L 628 0 
L 628 4666 
z
" transform="scale(0.015625)"/>
      </defs>
      <use xlink:href="#DejaVuSans-54"/>
      <use xlink:href="#DejaVuSans-52" x="61.083984"/>
      <use xlink:href="#DejaVuSans-55" x="130.566406"/>
      <use xlink:href="#DejaVuSans-45" x="203.759766"/>
     </g>
    </g>
   </g>
   <g id="text_3">
    <g clip-path="url(#p1327d03b0a)">
     <!-- FALSE -->
     <g transform="translate(171.732679 105.354726) scale(0.125 -0.125)">
      <defs>
       <path id="DejaVuSans-46" d="M 628 4666 
L 3309 4666 
L 3309 4134 
L 1259 4134 
L 1259 2759 
L 3109 2759 
L 3109 2228 
L 1259 2228 
L 1259 0 
L 628 0 
L 628 4666 
z
" transform="scale(0.015625)"/>
       <path id="DejaVuSans-41" d="M 2188 4044 
L 1331 1722 
L 3047 1722 
L 2188 4044 
z
M 1831 4666 
L 2547 4666 
L 4325 0 
L 3669 0 
L 3244 1197 
L 1141 1197 
L 716 0 
L 50 0 
L 1831 4666 
z
" transform="scale(0.015625)"/>
       <path id="DejaVuSans-4c" d="M 628 4666 
L 1259 4666 
L 1259 531 
L 3531 531 
L 3531 0 
L 628 0 
L 628 4666 
z
" transform="scale(0.015625)"/>
       <path id="DejaVuSans-53" d="M 3425 4513 
L 3425 3897 
Q 3066 4069 2747 4153 
Q 2428 4238 2131 4238 
Q 1616 4238 1336 4038 
Q 1056 3838 1056 3469 
Q 1056 3159 1242 3001 
Q 1428 2844 1947 2747 
L 2328 2669 
Q 3034 2534 3370 2195 
Q 3706 1856 3706 1288 
Q 3706 609 3251 259 
Q 2797 -91 1919 -91 
Q 1588 -91 1214 -16 
Q 841 59 441 206 
L 441 856 
Q 825 641 1194 531 
Q 1563 422 1919 422 
Q 2459 422 2753 634 
Q 3047 847 3047 1241 
Q 3047 1584 2836 1778 
Q 2625 1972 2144 2069 
L 1759 2144 
Q 1053 2284 737 2584 
Q 422 2884 422 3419 
Q 422 4038 858 4394 
Q 1294 4750 2059 4750 
Q 2388 4750 2728 4690 
Q 3069 4631 3425 4513 
z
" transform="scale(0.015625)"/>
      </defs>
      <use xlink:href="#DejaVuSans-46"/>
      <use xlink:href="#DejaVuSans-41" x="48.394531"/>
      <use xlink:href="#DejaVuSans-4c" x="116.802734"/>
      <use xlink:href="#DejaVuSans-53" x="172.515625"/>
      <use xlink:href="#DejaVuSans-45" x="235.992188"/>
     </g>
    </g>
   </g>
   <g id="text_4">
    <g clip-path="url(#p1327d03b0a)">
     <!-- b -->
     <g transform="translate(80.738297 55.037131) scale(0.125 -0.125)">
      <defs>
       <path id="DejaVuSans-62" d="M 3116 1747 
Q 3116 2381 2855 2742 
Q 2594 3103 2138 3103 
Q 1681 3103 1420 2742 
Q 1159 2381 1159 1747 
Q 1159 1113 1420 752 
Q 1681 391 2138 391 
Q 2594 391 2855 752 
Q 3116 1113 3116 1747 
z
M 1159 2969 
Q 1341 3281 1617 3432 
Q 1894 3584 2278 3584 
Q 2916 3584 3314 3078 
Q 3713 2572 3713 1747 
Q 3713 922 3314 415 
Q 2916 -91 2278 -91 
Q 1894 -91 1617 61 
Q 1341 213 1159 525 
L 1159 0 
L 581 0 
L 581 4863 
L 1159 4863 
L 1159 2969 
z
" transform="scale(0.015625)"/>
      </defs>
      <use xlink:href="#DejaVuSans-62"/>
     </g>
    </g>
   </g>
   <g id="text_5">
    <g clip-path="url(#p1327d03b0a)">
     <!-- a -->
     <g transform="translate(15.448336 30.640721) scale(0.125 -0.125)">
      <defs>
       <path id="DejaVuSans-61" d="M 2194 1759 
Q 1497 1759 1228 1600 
Q 959 1441 959 1056 
Q 959 750 1161 570 
Q 1363 391 1709 391 
Q 2188 391 2477 730 
Q 2766 1069 2766 1631 
L 2766 1759 
L 2194 1759 
z
M 3341 1997 
L 3341 0 
L 2766 0 
L 2766 531 
Q 2569 213 2275 61 
Q 1981 -91 1556 -91 
Q 1019 -91 701 211 
Q 384 513 384 1019 
Q 384 1609 779 1909 
Q 1175 2209 1959 2209 
L 2766 2209 
L 2766 2266 
Q 2766 2663 2505 2880 
Q 2244 3097 1772 3097 
Q 1472 3097 1187 3025 
Q 903 2953 641 2809 
L 641 3341 
Q 956 3463 1253 3523 
Q 1550 3584 1831 3584 
Q 2591 3584 2966 3190 
Q 3341 2797 3341 1997 
z
" transform="scale(0.015625)"/>
      </defs>
      <use xlink:href="#DejaVuSans-61"/>
     </g>
    </g>
   </g>
   <g id="text_6">
    <g clip-path="url(#p1327d03b0a)">
     <!-- c -->
     <g transform="translate(81.800797 106.879502) scale(0.125 -0.125)">
      <defs>
       <path id="DejaVuSans-63" d="M 3122 3366 
L 3122 2828 
Q 2878 2963 2633 3030 
Q 2388 3097 2138 3097 
Q 1578 3097 1268 2742 
Q 959 2388 959 1747 
Q 959 1106 1268 751 
Q 1578 397 2138 397 
Q 2388 397 2633 464 
Q 2878 531 3122 666 
L 3122 134 
Q 2881 22 2623 -34 
Q 2366 -91 2075 -91 
Q 1284 -91 818 406 
Q 353 903 353 1747 
Q 353 2603 823 3093 
Q 1294 3584 2113 3584 
Q 2378 3584 2631 3529 
Q 2884 3475 3122 3366 
z
" transform="scale(0.015625)"/>
      </defs>
      <use xlink:href="#DejaVuSans-63"/>
     </g>
    </g>
   </g>
   <g id="text_7">
    <g clip-path="url(#p1327d03b0a)">
     <!-- c -->
     <g transform="translate(16.235445 131.275911) scale(0.125 -0.125)">
      <use xlink:href="#DejaVuSans-63"/>
     </g>
    </g>
   </g>
  </g>
 </g>
 <defs>
  <clipPath id="p1327d03b0a">
   <rect x="7.2" y="7.2" width="376.365446" height="138.924"/>
  </clipPath>
 </defs>
</svg>
