<?xml version="1.0" encoding="utf-8" standalone="no"?>
<!DOCTYPE svg PUBLIC "-//W3C//DTD SVG 1.1//EN"
  "http://www.w3.org/Graphics/SVG/1.1/DTD/svg11.dtd">
<svg xmlns:xlink="http://www.w3.org/1999/xlink" width="269.591138pt" height="150.264pt" viewBox="0 0 269.591138 150.264" xmlns="http://www.w3.org/2000/svg" version="1.1">
 <metadata>
  <rdf:RDF xmlns:dc="http://purl.org/dc/elements/1.1/" xmlns:cc="http://creativecommons.org/ns#" xmlns:rdf="http://www.w3.org/1999/02/22-rdf-syntax-ns#">
   <cc:Work>
    <dc:type rdf:resource="http://purl.org/dc/dcmitype/StillImage"/>
    <dc:date>2022-12-17T13:18:10.331528</dc:date>
    <dc:format>image/svg+xml</dc:format>
    <dc:creator>
     <cc:Agent>
      <dc:title>Matplotlib v3.6.0, https://matplotlib.org/</dc:title>
     </cc:Agent>
    </dc:creator>
   </cc:Work>
  </rdf:RDF>
 </metadata>
 <defs>
  <style type="text/css">*{stroke-linejoin: round; stroke-linecap: butt}</style>
 </defs>
 <g id="figure_1">
  <g id="patch_1">
   <path d="M 0 150.264 
L 269.591138 150.264 
L 269.591138 0 
L 0 0 
L 0 150.264 
z
" style="fill: none"/>
  </g>
  <g id="axes_1">
   <g id="patch_2">
    <path d="M 202.736067 80.638622 
C 203.709649 80.638622 204.643487 80.251814 205.331914 79.563387 
C 206.02034 78.874961 206.407148 77.941123 206.407148 76.967541 
C 206.407148 75.993959 206.02034 75.060121 205.331914 74.371694 
C 204.643487 73.683268 203.709649 73.296459 202.736067 73.296459 
C 201.762485 73.296459 200.828647 73.683268 200.140221 74.371694 
C 199.451794 75.060121 199.064986 75.993959 199.064986 76.967541 
C 199.064986 77.941123 199.451794 78.874961 200.140221 79.563387 
C 200.828647 80.251814 201.762485 80.638622 202.736067 80.638622 
L 202.736067 80.638622 
z
" clip-path="url(#pf706b9f8b8)" style="fill: none; stroke: #000000; stroke-width: 2; stroke-linejoin: miter"/>
   </g>
   <g id="patch_3">
    <path d="M 141.551379 38.574149 
C 142.524961 38.574149 143.458798 38.18734 144.147225 37.498914 
C 144.835652 36.810487 145.22246 35.876649 145.22246 34.903067 
C 145.22246 33.929485 144.835652 32.995647 144.147225 32.307221 
C 143.458798 31.618794 142.524961 31.231986 141.551379 31.231986 
C 140.577796 31.231986 139.643959 31.618794 138.955532 32.307221 
C 138.267106 32.995647 137.880297 33.929485 137.880297 34.903067 
C 137.880297 35.876649 138.267106 36.810487 138.955532 37.498914 
C 139.643959 38.18734 140.577796 38.574149 141.551379 38.574149 
L 141.551379 38.574149 
z
" clip-path="url(#pf706b9f8b8)" style="fill: none; stroke: #000000; stroke-width: 2; stroke-linejoin: miter"/>
   </g>
   <g id="patch_4">
    <path d="M 66.753097 55.399938 
C 67.726679 55.399938 68.660517 55.01313 69.348943 54.324703 
C 70.03737 53.636277 70.424178 52.702439 70.424178 51.728857 
C 70.424178 50.755274 70.03737 49.821437 69.348943 49.13301 
C 68.660517 48.444584 67.726679 48.057775 66.753097 48.057775 
C 65.779515 48.057775 64.845677 48.444584 64.15725 49.13301 
C 63.468824 49.821437 63.082016 50.755274 63.082016 51.728857 
C 63.082016 52.702439 63.468824 53.636277 64.15725 54.324703 
C 64.845677 55.01313 65.779515 55.399938 66.753097 55.399938 
L 66.753097 55.399938 
z
" clip-path="url(#pf706b9f8b8)" style="fill: none; stroke: #000000; stroke-width: 2; stroke-linejoin: miter"/>
   </g>
   <g id="patch_5">
    <path d="M 141.551379 122.703095 
C 142.524961 122.703095 143.458798 122.316287 144.147225 121.62786 
C 144.835652 120.939434 145.22246 120.005596 145.22246 119.032014 
C 145.22246 118.058432 144.835652 117.124594 144.147225 116.436168 
C 143.458798 115.747741 142.524961 115.360933 141.551379 115.360933 
C 140.577796 115.360933 139.643959 115.747741 138.955532 116.436168 
C 138.267106 117.124594 137.880297 118.058432 137.880297 119.032014 
C 137.880297 120.005596 138.267106 120.939434 138.955532 121.62786 
C 139.643959 122.316287 140.577796 122.703095 141.551379 122.703095 
L 141.551379 122.703095 
z
" clip-path="url(#pf706b9f8b8)" style="fill: none; stroke: #000000; stroke-width: 2; stroke-linejoin: miter"/>
   </g>
   <g id="patch_6">
    <path d="M 66.753097 122.703095 
C 67.726679 122.703095 68.660517 122.316287 69.348943 121.62786 
C 70.03737 120.939434 70.424178 120.005596 70.424178 119.032014 
C 70.424178 118.058432 70.03737 117.124594 69.348943 116.436168 
C 68.660517 115.747741 67.726679 115.360933 66.753097 115.360933 
C 65.779515 115.360933 64.845677 115.747741 64.15725 116.436168 
C 63.468824 117.124594 63.082016 118.058432 63.082016 119.032014 
C 63.082016 120.005596 63.468824 120.939434 64.15725 121.62786 
C 64.845677 122.316287 65.779515 122.703095 66.753097 122.703095 
L 66.753097 122.703095 
z
" clip-path="url(#pf706b9f8b8)" style="fill: none; stroke: #000000; stroke-width: 2; stroke-linejoin: miter"/>
   </g>
   <g id="line2d_1">
    <path d="M 162.354173 91.957789 
L 179.398479 91.857896 
L 181.146613 91.558216 
L 182.894747 91.058749 
L 184.642881 90.359495 
L 186.391015 89.460455 
L 188.576182 88.055705 
L 190.761349 86.338787 
L 192.946517 84.309703 
L 195.131684 81.968452 
L 197.316852 79.315035 
L 199.064986 76.967541 
L 199.064986 76.967541 
L 196.442785 73.521219 
L 194.257617 70.992669 
L 192.07245 68.776284 
L 189.887282 66.872067 
L 187.702115 65.280016 
L 185.516948 64.000133 
L 183.768814 63.200986 
L 182.02068 62.601626 
L 180.272546 62.202052 
L 178.524412 62.002265 
L 177.650345 61.977292 
L 162.354173 61.977292 
L 162.354173 61.977292 
L 164.556821 64.42468 
L 165.951832 66.26022 
L 167.126578 68.095761 
L 168.081059 69.931301 
L 168.815276 71.766842 
L 169.329227 73.602383 
L 169.622914 75.437923 
L 169.696335 77.273464 
L 169.549492 79.109005 
L 169.182384 80.944545 
L 168.595011 82.780086 
L 167.787373 84.615627 
L 166.75947 86.451167 
L 165.511303 88.286708 
L 164.04287 90.122249 
L 162.354173 91.957789 
L 162.354173 91.957789 
" clip-path="url(#pf706b9f8b8)" style="fill: none; stroke: #000000; stroke-width: 2; stroke-linecap: round"/>
   </g>
   <g id="line2d_2">
    <path d="M 151.646852 84.615627 
L 167.787373 84.615627 
" clip-path="url(#pf706b9f8b8)" style="fill: none; stroke: #000000; stroke-width: 2; stroke-linecap: round"/>
   </g>
   <g id="line2d_3">
    <path d="M 151.646852 69.319455 
L 167.787373 69.319455 
" clip-path="url(#pf706b9f8b8)" style="fill: none; stroke: #000000; stroke-width: 2; stroke-linecap: round"/>
   </g>
   <g id="line2d_4">
    <path d="M 206.407148 76.967541 
L 209.772306 76.967541 
" clip-path="url(#pf706b9f8b8)" style="fill: none; stroke: #000000; stroke-width: 2; stroke-linecap: round"/>
   </g>
   <g id="line2d_5">
    <path d="M 101.169484 49.893316 
L 118.21379 49.793423 
L 119.961924 49.493743 
L 121.710058 48.994276 
L 123.458192 48.295022 
L 125.206326 47.395982 
L 127.391493 45.991231 
L 129.576661 44.274314 
L 131.761828 42.24523 
L 133.946996 39.903979 
L 136.132163 37.250561 
L 137.880297 34.903067 
L 137.880297 34.903067 
L 135.258096 31.456746 
L 133.072929 28.928195 
L 130.887761 26.711811 
L 128.702594 24.807594 
L 126.517426 23.215543 
L 124.332259 21.935659 
L 122.584125 21.136512 
L 120.835991 20.537152 
L 119.087857 20.137579 
L 117.339723 19.937792 
L 116.465656 19.912819 
L 101.169484 19.912819 
L 101.169484 19.912819 
L 103.372133 22.360206 
L 104.767144 24.195747 
L 105.94189 26.031287 
L 106.896371 27.866828 
L 107.630587 29.702369 
L 108.144539 31.537909 
L 108.438225 33.37345 
L 108.511647 35.208991 
L 108.364803 37.044531 
L 107.997695 38.880072 
L 107.410322 40.715613 
L 106.602684 42.551153 
L 105.574782 44.386694 
L 104.326614 46.222235 
L 102.858182 48.057775 
L 101.169484 49.893316 
L 101.169484 49.893316 
" clip-path="url(#pf706b9f8b8)" style="fill: none; stroke: #000000; stroke-width: 2; stroke-linecap: round"/>
   </g>
   <g id="line2d_6">
    <path d="M 90.462164 42.551153 
L 106.602684 42.551153 
" clip-path="url(#pf706b9f8b8)" style="fill: none; stroke: #000000; stroke-width: 2; stroke-linecap: round"/>
   </g>
   <g id="line2d_7">
    <path d="M 90.462164 27.254981 
L 106.602684 27.254981 
" clip-path="url(#pf706b9f8b8)" style="fill: none; stroke: #000000; stroke-width: 2; stroke-linecap: round"/>
   </g>
   <g id="line2d_8">
    <path d="M 145.22246 34.903067 
L 148.587618 34.903067 
" clip-path="url(#pf706b9f8b8)" style="fill: none; stroke: #000000; stroke-width: 2; stroke-linecap: round"/>
   </g>
   <g id="line2d_9">
    <path d="M 26.218241 51.728857 
L 43.196992 51.728857 
M 70.424178 51.728857 
L 87.402929 51.728857 
" clip-path="url(#pf706b9f8b8)" style="fill: none; stroke: #000000; stroke-width: 2; stroke-linecap: round"/>
   </g>
   <g id="line2d_10">
    <path d="M 43.196992 36.432685 
L 63.082016 51.728857 
L 43.196992 67.025029 
L 43.196992 36.432685 
" clip-path="url(#pf706b9f8b8)" style="fill: none; stroke: #000000; stroke-width: 2; stroke-linecap: round"/>
   </g>
   <g id="line2d_11">
    <path d="M 90.462164 42.551153 
L 87.402929 42.551153 
L 87.402929 51.728857 
" clip-path="url(#pf706b9f8b8)" style="fill: none; stroke: #000000; stroke-width: 2; stroke-linecap: round"/>
   </g>
   <g id="line2d_12">
    <path d="M 151.646852 69.319455 
L 148.587618 69.319455 
L 148.587618 34.903067 
" clip-path="url(#pf706b9f8b8)" style="fill: none; stroke: #000000; stroke-width: 2; stroke-linecap: round"/>
   </g>
   <g id="line2d_13">
    <path d="M 101.169484 134.022263 
L 118.21379 133.922369 
L 119.961924 133.622689 
L 121.710058 133.123222 
L 123.458192 132.423969 
L 125.206326 131.524928 
L 127.391493 130.120178 
L 129.576661 128.403261 
L 131.761828 126.374177 
L 133.946996 124.032926 
L 136.132163 121.379508 
L 137.880297 119.032014 
L 137.880297 119.032014 
L 135.258096 115.585693 
L 133.072929 113.057142 
L 130.887761 110.840758 
L 128.702594 108.93654 
L 126.517426 107.34449 
L 124.332259 106.064606 
L 122.584125 105.265459 
L 120.835991 104.666099 
L 119.087857 104.266525 
L 117.339723 104.066739 
L 116.465656 104.041765 
L 101.169484 104.041765 
L 101.169484 104.041765 
L 103.372133 106.489153 
L 104.767144 108.324694 
L 105.94189 110.160234 
L 106.896371 111.995775 
L 107.630587 113.831315 
L 108.144539 115.666856 
L 108.438225 117.502397 
L 108.511647 119.337937 
L 108.364803 121.173478 
L 107.997695 123.009019 
L 107.410322 124.844559 
L 106.602684 126.6801 
L 105.574782 128.515641 
L 104.326614 130.351181 
L 102.858182 132.186722 
L 101.169484 134.022263 
L 101.169484 134.022263 
" clip-path="url(#pf706b9f8b8)" style="fill: none; stroke: #000000; stroke-width: 2; stroke-linecap: round"/>
   </g>
   <g id="line2d_14">
    <path d="M 90.462164 129.127488 
L 105.1832 129.127488 
" clip-path="url(#pf706b9f8b8)" style="fill: none; stroke: #000000; stroke-width: 2; stroke-linecap: round"/>
   </g>
   <g id="line2d_15">
    <path d="M 90.462164 119.032014 
L 108.514706 119.032014 
" clip-path="url(#pf706b9f8b8)" style="fill: none; stroke: #000000; stroke-width: 2; stroke-linecap: round"/>
   </g>
   <g id="line2d_16">
    <path d="M 90.462164 108.93654 
L 105.1832 108.93654 
" clip-path="url(#pf706b9f8b8)" style="fill: none; stroke: #000000; stroke-width: 2; stroke-linecap: round"/>
   </g>
   <g id="line2d_17">
    <path d="M 145.22246 119.032014 
L 148.587618 119.032014 
" clip-path="url(#pf706b9f8b8)" style="fill: none; stroke: #000000; stroke-width: 2; stroke-linecap: round"/>
   </g>
   <g id="line2d_18">
    <path d="M 26.218241 119.032014 
L 43.196992 119.032014 
M 70.424178 119.032014 
L 87.402929 119.032014 
" clip-path="url(#pf706b9f8b8)" style="fill: none; stroke: #000000; stroke-width: 2; stroke-linecap: round"/>
   </g>
   <g id="line2d_19">
    <path d="M 43.196992 103.735842 
L 63.082016 119.032014 
L 43.196992 134.328186 
L 43.196992 103.735842 
" clip-path="url(#pf706b9f8b8)" style="fill: none; stroke: #000000; stroke-width: 2; stroke-linecap: round"/>
   </g>
   <g id="line2d_20">
    <path d="M 90.462164 119.032014 
L 87.402929 119.032014 
L 87.402929 119.032014 
" clip-path="url(#pf706b9f8b8)" style="fill: none; stroke: #000000; stroke-width: 2; stroke-linecap: round"/>
   </g>
   <g id="line2d_21">
    <path d="M 151.646852 84.615627 
L 148.587618 84.615627 
L 148.587618 119.032014 
" clip-path="url(#pf706b9f8b8)" style="fill: none; stroke: #000000; stroke-width: 2; stroke-linecap: round"/>
   </g>
   <g id="text_1">
    <g clip-path="url(#pf706b9f8b8)">
     <!-- output -->
     <g transform="translate(212.831541 80.416759) scale(0.125 -0.125)">
      <defs>
       <path id="DejaVuSans-6f" d="M 1959 3097 
Q 1497 3097 1228 2736 
Q 959 2375 959 1747 
Q 959 1119 1226 758 
Q 1494 397 1959 397 
Q 2419 397 2687 759 
Q 2956 1122 2956 1747 
Q 2956 2369 2687 2733 
Q 2419 3097 1959 3097 
z
M 1959 3584 
Q 2709 3584 3137 3096 
Q 3566 2609 3566 1747 
Q 3566 888 3137 398 
Q 2709 -91 1959 -91 
Q 1206 -91 779 398 
Q 353 888 353 1747 
Q 353 2609 779 3096 
Q 1206 3584 1959 3584 
z
" transform="scale(0.015625)"/>
       <path id="DejaVuSans-75" d="M 544 1381 
L 544 3500 
L 1119 3500 
L 1119 1403 
Q 1119 906 1312 657 
Q 1506 409 1894 409 
Q 2359 409 2629 706 
Q 2900 1003 2900 1516 
L 2900 3500 
L 3475 3500 
L 3475 0 
L 2900 0 
L 2900 538 
Q 2691 219 2414 64 
Q 2138 -91 1772 -91 
Q 1169 -91 856 284 
Q 544 659 544 1381 
z
M 1991 3584 
L 1991 3584 
z
" transform="scale(0.015625)"/>
       <path id="DejaVuSans-74" d="M 1172 4494 
L 1172 3500 
L 2356 3500 
L 2356 3053 
L 1172 3053 
L 1172 1153 
Q 1172 725 1289 603 
Q 1406 481 1766 481 
L 2356 481 
L 2356 0 
L 1766 0 
Q 1100 0 847 248 
Q 594 497 594 1153 
L 594 3053 
L 172 3053 
L 172 3500 
L 594 3500 
L 594 4494 
L 1172 4494 
z
" transform="scale(0.015625)"/>
       <path id="DejaVuSans-70" d="M 1159 525 
L 1159 -1331 
L 581 -1331 
L 581 3500 
L 1159 3500 
L 1159 2969 
Q 1341 3281 1617 3432 
Q 1894 3584 2278 3584 
Q 2916 3584 3314 3078 
Q 3713 2572 3713 1747 
Q 3713 922 3314 415 
Q 2916 -91 2278 -91 
Q 1894 -91 1617 61 
Q 1341 213 1159 525 
z
M 3116 1747 
Q 3116 2381 2855 2742 
Q 2594 3103 2138 3103 
Q 1681 3103 1420 2742 
Q 1159 2381 1159 1747 
Q 1159 1113 1420 752 
Q 1681 391 2138 391 
Q 2594 391 2855 752 
Q 3116 1113 3116 1747 
z
" transform="scale(0.015625)"/>
      </defs>
      <use xlink:href="#DejaVuSans-6f"/>
      <use xlink:href="#DejaVuSans-75" x="61.181641"/>
      <use xlink:href="#DejaVuSans-74" x="124.560547"/>
      <use xlink:href="#DejaVuSans-70" x="163.769531"/>
      <use xlink:href="#DejaVuSans-75" x="227.246094"/>
      <use xlink:href="#DejaVuSans-74" x="290.625"/>
     </g>
    </g>
   </g>
   <g id="text_2">
    <g clip-path="url(#pf706b9f8b8)">
     <!-- a -->
     <g transform="translate(79.742773 30.7042) scale(0.125 -0.125)">
      <defs>
       <path id="DejaVuSans-61" d="M 2194 1759 
Q 1497 1759 1228 1600 
Q 959 1441 959 1056 
Q 959 750 1161 570 
Q 1363 391 1709 391 
Q 2188 391 2477 730 
Q 2766 1069 2766 1631 
L 2766 1759 
L 2194 1759 
z
M 3341 1997 
L 3341 0 
L 2766 0 
L 2766 531 
Q 2569 213 2275 61 
Q 1981 -91 1556 -91 
Q 1019 -91 701 211 
Q 384 513 384 1019 
Q 384 1609 779 1909 
Q 1175 2209 1959 2209 
L 2766 2209 
L 2766 2266 
Q 2766 2663 2505 2880 
Q 2244 3097 1772 3097 
Q 1472 3097 1187 3025 
Q 903 2953 641 2809 
L 641 3341 
Q 956 3463 1253 3523 
Q 1550 3584 1831 3584 
Q 2591 3584 2966 3190 
Q 3341 2797 3341 1997 
z
" transform="scale(0.015625)"/>
      </defs>
      <use xlink:href="#DejaVuSans-61"/>
     </g>
    </g>
   </g>
   <g id="text_3">
    <g clip-path="url(#pf706b9f8b8)">
     <!-- b -->
     <g transform="translate(15.223459 55.178075) scale(0.125 -0.125)">
      <defs>
       <path id="DejaVuSans-62" d="M 3116 1747 
Q 3116 2381 2855 2742 
Q 2594 3103 2138 3103 
Q 1681 3103 1420 2742 
Q 1159 2381 1159 1747 
Q 1159 1113 1420 752 
Q 1681 391 2138 391 
Q 2594 391 2855 752 
Q 3116 1113 3116 1747 
z
M 1159 2969 
Q 1341 3281 1617 3432 
Q 1894 3584 2278 3584 
Q 2916 3584 3314 3078 
Q 3713 2572 3713 1747 
Q 3713 922 3314 415 
Q 2916 -91 2278 -91 
Q 1894 -91 1617 61 
Q 1341 213 1159 525 
L 1159 0 
L 581 0 
L 581 4863 
L 1159 4863 
L 1159 2969 
z
" transform="scale(0.015625)"/>
      </defs>
      <use xlink:href="#DejaVuSans-62"/>
     </g>
    </g>
   </g>
   <g id="text_4">
    <g clip-path="url(#pf706b9f8b8)">
     <!-- a -->
     <g transform="translate(79.742773 112.385759) scale(0.125 -0.125)">
      <use xlink:href="#DejaVuSans-61"/>
     </g>
    </g>
   </g>
   <g id="text_5">
    <g clip-path="url(#pf706b9f8b8)">
     <!-- c -->
     <g transform="translate(80.529882 132.576706) scale(0.125 -0.125)">
      <defs>
       <path id="DejaVuSans-63" d="M 3122 3366 
L 3122 2828 
Q 2878 2963 2633 3030 
Q 2388 3097 2138 3097 
Q 1578 3097 1268 2742 
Q 959 2388 959 1747 
Q 959 1106 1268 751 
Q 1578 397 2138 397 
Q 2388 397 2633 464 
Q 2878 531 3122 666 
L 3122 134 
Q 2881 22 2623 -34 
Q 2366 -91 2075 -91 
Q 1284 -91 818 406 
Q 353 903 353 1747 
Q 353 2603 823 3093 
Q 1294 3584 2113 3584 
Q 2378 3584 2631 3529 
Q 2884 3475 3122 3366 
z
" transform="scale(0.015625)"/>
      </defs>
      <use xlink:href="#DejaVuSans-63"/>
     </g>
    </g>
   </g>
   <g id="text_6">
    <g clip-path="url(#pf706b9f8b8)">
     <!-- b -->
     <g transform="translate(15.223459 122.481233) scale(0.125 -0.125)">
      <use xlink:href="#DejaVuSans-62"/>
     </g>
    </g>
   </g>
  </g>
 </g>
 <defs>
  <clipPath id="pf706b9f8b8">
   <rect x="7.2" y="7.2" width="255.191138" height="135.864"/>
  </clipPath>
 </defs>
</svg>
