<?xml version="1.0" encoding="utf-8" standalone="no"?>
<!DOCTYPE svg PUBLIC "-//W3C//DTD SVG 1.1//EN"
  "http://www.w3.org/Graphics/SVG/1.1/DTD/svg11.dtd">
<svg xmlns:xlink="http://www.w3.org/1999/xlink" width="452.482368pt" height="207.18pt" viewBox="0 0 452.482368 207.18" xmlns="http://www.w3.org/2000/svg" version="1.1">
 <metadata>
  <rdf:RDF xmlns:dc="http://purl.org/dc/elements/1.1/" xmlns:cc="http://creativecommons.org/ns#" xmlns:rdf="http://www.w3.org/1999/02/22-rdf-syntax-ns#">
   <cc:Work>
    <dc:type rdf:resource="http://purl.org/dc/dcmitype/StillImage"/>
    <dc:date>2022-12-21T12:37:33.499132</dc:date>
    <dc:format>image/svg+xml</dc:format>
    <dc:creator>
     <cc:Agent>
      <dc:title>Matplotlib v3.6.2, https://matplotlib.org/</dc:title>
     </cc:Agent>
    </dc:creator>
   </cc:Work>
  </rdf:RDF>
 </metadata>
 <defs>
  <style type="text/css">*{stroke-linejoin: round; stroke-linecap: butt}</style>
 </defs>
 <g id="figure_1">
  <g id="patch_1">
   <path d="M 0 207.18 
L 452.482368 207.18 
L 452.482368 0 
L 0 0 
L 0 207.18 
z
" style="fill: none"/>
  </g>
  <g id="axes_1">
   <g id="patch_2">
    <path d="M 324.625167 152.692899 
C 325.597279 152.692899 326.529706 152.306675 327.217092 151.619288 
C 327.904479 150.931902 328.290702 149.999475 328.290702 149.027364 
C 328.290702 148.055252 327.904479 147.122825 327.217092 146.435439 
C 326.529706 145.748052 325.597279 145.361828 324.625167 145.361828 
C 323.653056 145.361828 322.720629 145.748052 322.033242 146.435439 
C 321.345856 147.122825 320.959632 148.055252 320.959632 149.027364 
C 320.959632 149.999475 321.345856 150.931902 322.033242 151.619288 
C 322.720629 152.306675 323.653056 152.692899 324.625167 152.692899 
L 324.625167 152.692899 
z
" clip-path="url(#p8d69abb102)" style="fill: none; stroke: #000000; stroke-width: 2; stroke-linejoin: miter"/>
   </g>
   <g id="patch_3">
    <path d="M 141.348407 47.690588 
C 142.320518 47.690588 143.252945 47.304364 143.940331 46.616978 
C 144.627718 45.929591 145.013942 44.997164 145.013942 44.025053 
C 145.013942 43.052942 144.627718 42.120515 143.940331 41.433128 
C 143.252945 40.745742 142.320518 40.359518 141.348407 40.359518 
C 140.376295 40.359518 139.443868 40.745742 138.756482 41.433128 
C 138.069095 42.120515 137.682871 43.052942 137.682871 44.025053 
C 137.682871 44.997164 138.069095 45.929591 138.756482 46.616978 
C 139.443868 47.304364 140.376295 47.690588 141.348407 47.690588 
L 141.348407 47.690588 
z
" clip-path="url(#p8d69abb102)" style="fill: none; stroke: #000000; stroke-width: 2; stroke-linejoin: miter"/>
   </g>
   <g id="patch_4">
    <path d="M 66.663127 30.890218 
C 67.635238 30.890218 68.567665 30.503994 69.255052 29.816608 
C 69.942438 29.129221 70.328662 28.196794 70.328662 27.224683 
C 70.328662 26.252572 69.942438 25.320145 69.255052 24.632758 
C 68.567665 23.945372 67.635238 23.559148 66.663127 23.559148 
C 65.691015 23.559148 64.758588 23.945372 64.071202 24.632758 
C 63.383815 25.320145 62.997592 26.252572 62.997592 27.224683 
C 62.997592 28.196794 63.383815 29.129221 64.071202 29.816608 
C 64.758588 30.503994 65.691015 30.890218 66.663127 30.890218 
L 66.663127 30.890218 
z
" clip-path="url(#p8d69abb102)" style="fill: none; stroke: #000000; stroke-width: 2; stroke-linejoin: miter"/>
   </g>
   <g id="patch_5">
    <path d="M 141.348407 131.692437 
C 142.320518 131.692437 143.252945 131.306213 143.940331 130.618826 
C 144.627718 129.93144 145.013942 128.999013 145.013942 128.026901 
C 145.013942 127.05479 144.627718 126.122363 143.940331 125.434977 
C 143.252945 124.74759 142.320518 124.361366 141.348407 124.361366 
C 140.376295 124.361366 139.443868 124.74759 138.756482 125.434977 
C 138.069095 126.122363 137.682871 127.05479 137.682871 128.026901 
C 137.682871 128.999013 138.069095 129.93144 138.756482 130.618826 
C 139.443868 131.306213 140.376295 131.692437 141.348407 131.692437 
L 141.348407 131.692437 
z
" clip-path="url(#p8d69abb102)" style="fill: none; stroke: #000000; stroke-width: 2; stroke-linejoin: miter"/>
   </g>
   <g id="patch_6">
    <path d="M 66.663127 98.091697 
C 67.635238 98.091697 68.567665 97.705473 69.255052 97.018087 
C 69.942438 96.3307 70.328662 95.398273 70.328662 94.426162 
C 70.328662 93.454051 69.942438 92.521624 69.255052 91.834237 
C 68.567665 91.146851 67.635238 90.760627 66.663127 90.760627 
C 65.691015 90.760627 64.758588 91.146851 64.071202 91.834237 
C 63.383815 92.521624 62.997592 93.454051 62.997592 94.426162 
C 62.997592 95.398273 63.383815 96.3307 64.071202 97.018087 
C 64.758588 97.705473 65.691015 98.091697 66.663127 98.091697 
L 66.663127 98.091697 
z
" clip-path="url(#p8d69abb102)" style="fill: none; stroke: #000000; stroke-width: 2; stroke-linejoin: miter"/>
   </g>
   <g id="patch_7">
    <path d="M 202.44066 182.093546 
C 203.412772 182.093546 204.345199 181.707322 205.032585 181.019935 
C 205.719972 180.332549 206.106195 179.400122 206.106195 178.428011 
C 206.106195 177.455899 205.719972 176.523472 205.032585 175.836086 
C 204.345199 175.148699 203.412772 174.762475 202.44066 174.762475 
C 201.468549 174.762475 200.536122 175.148699 199.848735 175.836086 
C 199.161349 176.523472 198.775125 177.455899 198.775125 178.428011 
C 198.775125 179.400122 199.161349 180.332549 199.848735 181.019935 
C 200.536122 181.707322 201.468549 182.093546 202.44066 182.093546 
L 202.44066 182.093546 
z
" clip-path="url(#p8d69abb102)" style="fill: none; stroke: #000000; stroke-width: 2; stroke-linejoin: miter"/>
   </g>
   <g id="line2d_1">
    <path d="M 345.396533 180.795335 
L 362.41509 180.695593 
L 364.160583 180.396366 
L 365.906076 179.897653 
L 367.651569 179.199456 
L 369.397062 178.301774 
L 371.578928 176.899146 
L 373.760794 175.184822 
L 375.94266 173.158804 
L 378.124526 170.82109 
L 380.306393 168.171681 
L 382.051886 165.827733 
L 382.051886 165.827733 
L 379.433646 162.386619 
L 377.25178 159.861888 
L 375.069914 157.648852 
L 372.888048 155.747511 
L 370.706181 154.157866 
L 368.524315 152.879916 
L 366.778822 152.081976 
L 365.033329 151.483522 
L 363.287836 151.084552 
L 361.542343 150.885067 
L 360.669597 150.860131 
L 345.396533 150.860131 
L 345.396533 150.860131 
L 347.595855 153.303821 
L 348.988758 155.136589 
L 350.161729 156.969357 
L 351.114768 158.802124 
L 351.847875 160.634892 
L 352.36105 162.467659 
L 352.654293 164.300427 
L 352.727604 166.133195 
L 352.580982 167.965962 
L 352.214429 169.79873 
L 351.627943 171.631497 
L 350.821526 173.464265 
L 349.795176 175.297033 
L 348.548894 177.1298 
L 347.08268 178.962568 
L 345.396533 180.795335 
L 345.396533 180.795335 
" clip-path="url(#p8d69abb102)" style="fill: none; stroke: #000000; stroke-width: 2; stroke-linecap: round"/>
   </g>
   <g id="line2d_2">
    <path d="M 334.705389 173.464265 
L 350.821526 173.464265 
" clip-path="url(#p8d69abb102)" style="fill: none; stroke: #000000; stroke-width: 2; stroke-linecap: round"/>
   </g>
   <g id="line2d_3">
    <path d="M 334.705389 158.191202 
L 350.821526 158.191202 
" clip-path="url(#p8d69abb102)" style="fill: none; stroke: #000000; stroke-width: 2; stroke-linecap: round"/>
   </g>
   <g id="line2d_4">
    <path d="M 382.051886 165.827733 
L 392.74303 165.827733 
" clip-path="url(#p8d69abb102)" style="fill: none; stroke: #000000; stroke-width: 2; stroke-linecap: round"/>
   </g>
   <g id="line2d_5">
    <path d="M 305.686569 164.300427 
L 306.665117 164.269047 
L 307.639645 164.175035 
L 308.606147 164.018779 
L 309.560651 163.800919 
L 310.499236 163.522352 
L 311.418045 163.184222 
L 312.313303 162.787918 
L 313.181329 162.335069 
L 314.018558 161.827536 
L 314.821549 161.267405 
L 315.587002 160.656976 
L 316.311772 159.998759 
L 316.992881 159.295458 
L 317.62753 158.549963 
L 318.213111 157.765338 
L 318.747218 156.944806 
L 319.227656 156.09174 
L 319.652451 155.209645 
L 320.019856 154.302146 
L 320.328364 153.372971 
L 320.576704 152.42594 
L 320.763859 151.464943 
L 320.889057 150.493929 
L 320.951785 149.516889 
L 320.951785 148.537838 
L 320.889057 147.560798 
L 320.763859 146.589784 
L 320.576704 145.628787 
L 320.328364 144.681756 
L 320.019856 143.752581 
L 319.652451 142.845082 
L 319.227656 141.962987 
L 318.747218 141.109921 
L 318.213111 140.28939 
L 317.62753 139.504764 
L 316.992881 138.759269 
L 316.311772 138.055968 
L 315.587002 137.397751 
L 314.821549 136.787323 
L 314.018558 136.227191 
L 313.181329 135.719658 
L 312.313303 135.266809 
L 311.418045 134.870505 
L 310.499236 134.532375 
L 309.560651 134.253808 
L 308.606147 134.035948 
L 307.639645 133.879692 
L 306.665117 133.78568 
L 305.686569 133.7543 
L 305.686569 133.7543 
L 285.831586 133.7543 
L 285.831586 149.027364 
L 285.831586 164.300427 
L 305.686569 164.300427 
" clip-path="url(#p8d69abb102)" style="fill: none; stroke: #000000; stroke-width: 2; stroke-linecap: round"/>
   </g>
   <g id="line2d_6">
    <path d="M 275.140442 156.663895 
L 285.831586 156.663895 
" clip-path="url(#p8d69abb102)" style="fill: none; stroke: #000000; stroke-width: 2; stroke-linecap: round"/>
   </g>
   <g id="line2d_7">
    <path d="M 275.140442 141.390832 
L 285.831586 141.390832 
" clip-path="url(#p8d69abb102)" style="fill: none; stroke: #000000; stroke-width: 2; stroke-linecap: round"/>
   </g>
   <g id="line2d_8">
    <path d="M 328.290702 149.027364 
L 331.650776 149.027364 
" clip-path="url(#p8d69abb102)" style="fill: none; stroke: #000000; stroke-width: 2; stroke-linecap: round"/>
   </g>
   <g id="line2d_9">
    <path d="M 244.594315 147.500057 
L 245.572864 147.468677 
L 246.547391 147.374666 
L 247.513893 147.218409 
L 248.468398 147.00055 
L 249.406983 146.721982 
L 250.325792 146.383852 
L 251.221049 145.987548 
L 252.089075 145.5347 
L 252.926304 145.027167 
L 253.729295 144.467035 
L 254.494749 143.856606 
L 255.219519 143.198389 
L 255.900628 142.495088 
L 256.535277 141.749593 
L 257.120858 140.964968 
L 257.654965 140.144436 
L 258.135403 139.29137 
L 258.560197 138.409275 
L 258.927603 137.501776 
L 259.23611 136.572602 
L 259.484451 135.62557 
L 259.671605 134.664573 
L 259.796803 133.69356 
L 259.859531 132.71652 
L 259.859531 131.737468 
L 259.796803 130.760428 
L 259.671605 129.789415 
L 259.484451 128.828418 
L 259.23611 127.881386 
L 258.927603 126.952211 
L 258.560197 126.044712 
L 258.135403 125.162617 
L 257.654965 124.309551 
L 257.120858 123.48902 
L 256.535277 122.704395 
L 255.900628 121.9589 
L 255.219519 121.255599 
L 254.494749 120.597381 
L 253.729295 119.986953 
L 252.926304 119.426821 
L 252.089075 118.919288 
L 251.221049 118.466439 
L 250.325792 118.070135 
L 249.406983 117.732005 
L 248.468398 117.453438 
L 247.513893 117.235579 
L 246.547391 117.079322 
L 245.572864 116.985311 
L 244.594315 116.95393 
L 244.594315 116.95393 
L 224.739333 116.95393 
L 224.739333 132.226994 
L 224.739333 147.500057 
L 244.594315 147.500057 
" clip-path="url(#p8d69abb102)" style="fill: none; stroke: #000000; stroke-width: 2; stroke-linecap: round"/>
   </g>
   <g id="line2d_10">
    <path d="M 214.048188 139.863526 
L 224.739333 139.863526 
" clip-path="url(#p8d69abb102)" style="fill: none; stroke: #000000; stroke-width: 2; stroke-linecap: round"/>
   </g>
   <g id="line2d_11">
    <path d="M 214.048188 124.590462 
L 224.739333 124.590462 
" clip-path="url(#p8d69abb102)" style="fill: none; stroke: #000000; stroke-width: 2; stroke-linecap: round"/>
   </g>
   <g id="line2d_12">
    <path d="M 259.867379 132.226994 
L 270.558523 132.226994 
" clip-path="url(#p8d69abb102)" style="fill: none; stroke: #000000; stroke-width: 2; stroke-linecap: round"/>
   </g>
   <g id="line2d_13">
    <path d="M 183.502062 101.29904 
L 184.48061 101.26766 
L 185.455138 101.173649 
L 186.421639 101.017392 
L 187.376144 100.799533 
L 188.314729 100.520966 
L 189.233538 100.182835 
L 190.128795 99.786532 
L 190.996822 99.333683 
L 191.834051 98.82615 
L 192.637042 98.266018 
L 193.402495 97.655589 
L 194.127265 96.997372 
L 194.808374 96.294071 
L 195.443023 95.548576 
L 196.028604 94.763951 
L 196.562711 93.94342 
L 197.043149 93.090354 
L 197.467944 92.208259 
L 197.835349 91.300759 
L 198.143856 90.371585 
L 198.392197 89.424553 
L 198.579352 88.463556 
L 198.70455 87.492543 
L 198.767278 86.515503 
L 198.767278 85.536451 
L 198.70455 84.559411 
L 198.579352 83.588398 
L 198.392197 82.627401 
L 198.143856 81.680369 
L 197.835349 80.751195 
L 197.467944 79.843695 
L 197.043149 78.9616 
L 196.562711 78.108535 
L 196.028604 77.288003 
L 195.443023 76.503378 
L 194.808374 75.757883 
L 194.127265 75.054582 
L 193.402495 74.396365 
L 192.637042 73.785936 
L 191.834051 73.225804 
L 190.996822 72.718271 
L 190.128795 72.265422 
L 189.233538 71.869119 
L 188.314729 71.530989 
L 187.376144 71.252421 
L 186.421639 71.034562 
L 185.455138 70.878305 
L 184.48061 70.784294 
L 183.502062 70.752914 
L 183.502062 70.752914 
L 163.647079 70.752914 
L 163.647079 86.025977 
L 163.647079 101.29904 
L 183.502062 101.29904 
" clip-path="url(#p8d69abb102)" style="fill: none; stroke: #000000; stroke-width: 2; stroke-linecap: round"/>
   </g>
   <g id="line2d_14">
    <path d="M 152.955935 93.662509 
L 163.647079 93.662509 
" clip-path="url(#p8d69abb102)" style="fill: none; stroke: #000000; stroke-width: 2; stroke-linecap: round"/>
   </g>
   <g id="line2d_15">
    <path d="M 152.955935 78.389445 
L 163.647079 78.389445 
" clip-path="url(#p8d69abb102)" style="fill: none; stroke: #000000; stroke-width: 2; stroke-linecap: round"/>
   </g>
   <g id="line2d_16">
    <path d="M 198.775125 86.025977 
L 209.466269 86.025977 
" clip-path="url(#p8d69abb102)" style="fill: none; stroke: #000000; stroke-width: 2; stroke-linecap: round"/>
   </g>
   <g id="line2d_17">
    <path d="M 122.409808 59.298116 
L 123.388357 59.266736 
L 124.362884 59.172725 
L 125.329386 59.016468 
L 126.283891 58.798609 
L 127.222476 58.520041 
L 128.141285 58.181911 
L 129.036542 57.785607 
L 129.904568 57.332759 
L 130.741797 56.825226 
L 131.544788 56.265094 
L 132.310241 55.654665 
L 133.035012 54.996448 
L 133.716121 54.293147 
L 134.35077 53.547652 
L 134.936351 52.763027 
L 135.470458 51.942495 
L 135.950895 51.089429 
L 136.37569 50.207334 
L 136.743096 49.299835 
L 137.051603 48.370661 
L 137.299944 47.423629 
L 137.487098 46.462632 
L 137.612296 45.491619 
L 137.675024 44.514579 
L 137.675024 43.535527 
L 137.612296 42.558487 
L 137.487098 41.587474 
L 137.299944 40.626476 
L 137.051603 39.679445 
L 136.743096 38.75027 
L 136.37569 37.842771 
L 135.950895 36.960676 
L 135.470458 36.10761 
L 134.936351 35.287079 
L 134.35077 34.502454 
L 133.716121 33.756959 
L 133.035012 33.053658 
L 132.310241 32.39544 
L 131.544788 31.785012 
L 130.741797 31.22488 
L 129.904568 30.717347 
L 129.036542 30.264498 
L 128.141285 29.868194 
L 127.222476 29.530064 
L 126.283891 29.251497 
L 125.329386 29.033638 
L 124.362884 28.877381 
L 123.388357 28.78337 
L 122.409808 28.751989 
L 122.409808 28.751989 
L 102.554826 28.751989 
L 102.554826 44.025053 
L 102.554826 59.298116 
L 122.409808 59.298116 
" clip-path="url(#p8d69abb102)" style="fill: none; stroke: #000000; stroke-width: 2; stroke-linecap: round"/>
   </g>
   <g id="line2d_18">
    <path d="M 91.863681 51.661585 
L 102.554826 51.661585 
" clip-path="url(#p8d69abb102)" style="fill: none; stroke: #000000; stroke-width: 2; stroke-linecap: round"/>
   </g>
   <g id="line2d_19">
    <path d="M 91.863681 36.388521 
L 102.554826 36.388521 
" clip-path="url(#p8d69abb102)" style="fill: none; stroke: #000000; stroke-width: 2; stroke-linecap: round"/>
   </g>
   <g id="line2d_20">
    <path d="M 145.013942 44.025053 
L 148.374016 44.025053 
" clip-path="url(#p8d69abb102)" style="fill: none; stroke: #000000; stroke-width: 2; stroke-linecap: round"/>
   </g>
   <g id="line2d_21">
    <path d="M 26.189509 27.224683 
L 43.142609 27.224683 
M 70.328662 27.224683 
L 87.281762 27.224683 
" clip-path="url(#p8d69abb102)" style="fill: none; stroke: #000000; stroke-width: 2; stroke-linecap: round"/>
   </g>
   <g id="line2d_22">
    <path d="M 43.142609 11.95162 
L 62.997592 27.224683 
L 43.142609 42.497746 
L 43.142609 11.95162 
" clip-path="url(#p8d69abb102)" style="fill: none; stroke: #000000; stroke-width: 2; stroke-linecap: round"/>
   </g>
   <g id="line2d_23">
    <path d="M 91.863681 36.388521 
L 87.281762 36.388521 
L 87.281762 27.224683 
" clip-path="url(#p8d69abb102)" style="fill: none; stroke: #000000; stroke-width: 2; stroke-linecap: round"/>
   </g>
   <g id="line2d_24">
    <path d="M 152.955935 78.389445 
L 148.374016 78.389445 
L 148.374016 44.025053 
" clip-path="url(#p8d69abb102)" style="fill: none; stroke: #000000; stroke-width: 2; stroke-linecap: round"/>
   </g>
   <g id="line2d_25">
    <path d="M 122.409808 143.299965 
L 123.388357 143.268585 
L 124.362884 143.174573 
L 125.329386 143.018317 
L 126.283891 142.800457 
L 127.222476 142.52189 
L 128.141285 142.18376 
L 129.036542 141.787456 
L 129.904568 141.334607 
L 130.741797 140.827074 
L 131.544788 140.266942 
L 132.310241 139.656514 
L 133.035012 138.998297 
L 133.716121 138.294996 
L 134.35077 137.549501 
L 134.936351 136.764875 
L 135.470458 135.944344 
L 135.950895 135.091278 
L 136.37569 134.209183 
L 136.743096 133.301684 
L 137.051603 132.372509 
L 137.299944 131.425478 
L 137.487098 130.464481 
L 137.612296 129.493467 
L 137.675024 128.516427 
L 137.675024 127.537376 
L 137.612296 126.560336 
L 137.487098 125.589322 
L 137.299944 124.628325 
L 137.051603 123.681294 
L 136.743096 122.752119 
L 136.37569 121.84462 
L 135.950895 120.962525 
L 135.470458 120.109459 
L 134.936351 119.288927 
L 134.35077 118.504302 
L 133.716121 117.758807 
L 133.035012 117.055506 
L 132.310241 116.397289 
L 131.544788 115.78686 
L 130.741797 115.226729 
L 129.904568 114.719196 
L 129.036542 114.266347 
L 128.141285 113.870043 
L 127.222476 113.531913 
L 126.283891 113.253346 
L 125.329386 113.035486 
L 124.362884 112.87923 
L 123.388357 112.785218 
L 122.409808 112.753838 
L 122.409808 112.753838 
L 102.554826 112.753838 
L 102.554826 128.026901 
L 102.554826 143.299965 
L 122.409808 143.299965 
" clip-path="url(#p8d69abb102)" style="fill: none; stroke: #000000; stroke-width: 2; stroke-linecap: round"/>
   </g>
   <g id="line2d_26">
    <path d="M 91.863681 138.107123 
L 102.554826 138.107123 
" clip-path="url(#p8d69abb102)" style="fill: none; stroke: #000000; stroke-width: 2; stroke-linecap: round"/>
   </g>
   <g id="line2d_27">
    <path d="M 91.863681 128.026901 
L 102.554826 128.026901 
" clip-path="url(#p8d69abb102)" style="fill: none; stroke: #000000; stroke-width: 2; stroke-linecap: round"/>
   </g>
   <g id="line2d_28">
    <path d="M 91.863681 117.94668 
L 102.554826 117.94668 
" clip-path="url(#p8d69abb102)" style="fill: none; stroke: #000000; stroke-width: 2; stroke-linecap: round"/>
   </g>
   <g id="line2d_29">
    <path d="M 145.013942 128.026901 
L 148.374016 128.026901 
" clip-path="url(#p8d69abb102)" style="fill: none; stroke: #000000; stroke-width: 2; stroke-linecap: round"/>
   </g>
   <g id="line2d_30">
    <path d="M 26.189509 94.426162 
L 43.142609 94.426162 
M 70.328662 94.426162 
L 87.281762 94.426162 
" clip-path="url(#p8d69abb102)" style="fill: none; stroke: #000000; stroke-width: 2; stroke-linecap: round"/>
   </g>
   <g id="line2d_31">
    <path d="M 43.142609 79.153099 
L 62.997592 94.426162 
L 43.142609 109.699225 
L 43.142609 79.153099 
" clip-path="url(#p8d69abb102)" style="fill: none; stroke: #000000; stroke-width: 2; stroke-linecap: round"/>
   </g>
   <g id="line2d_32">
    <path d="M 91.863681 117.94668 
L 87.281762 117.94668 
L 87.281762 94.426162 
" clip-path="url(#p8d69abb102)" style="fill: none; stroke: #000000; stroke-width: 2; stroke-linecap: round"/>
   </g>
   <g id="line2d_33">
    <path d="M 152.955935 93.662509 
L 148.374016 93.662509 
L 148.374016 128.026901 
" clip-path="url(#p8d69abb102)" style="fill: none; stroke: #000000; stroke-width: 2; stroke-linecap: round"/>
   </g>
   <g id="line2d_34">
    <path d="M 214.048188 124.590462 
L 209.466269 124.590462 
L 209.466269 86.025977 
" clip-path="url(#p8d69abb102)" style="fill: none; stroke: #000000; stroke-width: 2; stroke-linecap: round"/>
   </g>
   <g id="line2d_35">
    <path d="M 183.502062 193.701074 
L 184.48061 193.669694 
L 185.455138 193.575682 
L 186.421639 193.419426 
L 187.376144 193.201566 
L 188.314729 192.922999 
L 189.233538 192.584869 
L 190.128795 192.188565 
L 190.996822 191.735716 
L 191.834051 191.228183 
L 192.637042 190.668052 
L 193.402495 190.057623 
L 194.127265 189.399406 
L 194.808374 188.696105 
L 195.443023 187.95061 
L 196.028604 187.165985 
L 196.562711 186.345453 
L 197.043149 185.492387 
L 197.467944 184.610292 
L 197.835349 183.702793 
L 198.143856 182.773618 
L 198.392197 181.826587 
L 198.579352 180.86559 
L 198.70455 179.894576 
L 198.767278 178.917536 
L 198.767278 177.938485 
L 198.70455 176.961445 
L 198.579352 175.990431 
L 198.392197 175.029434 
L 198.143856 174.082403 
L 197.835349 173.153228 
L 197.467944 172.245729 
L 197.043149 171.363634 
L 196.562711 170.510568 
L 196.028604 169.690037 
L 195.443023 168.905411 
L 194.808374 168.159916 
L 194.127265 167.456615 
L 193.402495 166.798398 
L 192.637042 166.18797 
L 191.834051 165.627838 
L 190.996822 165.120305 
L 190.128795 164.667456 
L 189.233538 164.271152 
L 188.314729 163.933022 
L 187.376144 163.654455 
L 186.421639 163.436595 
L 185.455138 163.280339 
L 184.48061 163.186327 
L 183.502062 163.154947 
L 183.502062 163.154947 
L 163.647079 163.154947 
L 163.647079 178.428011 
L 163.647079 193.701074 
L 183.502062 193.701074 
" clip-path="url(#p8d69abb102)" style="fill: none; stroke: #000000; stroke-width: 2; stroke-linecap: round"/>
   </g>
   <g id="line2d_36">
    <path d="M 152.955935 186.064542 
L 163.647079 186.064542 
" clip-path="url(#p8d69abb102)" style="fill: none; stroke: #000000; stroke-width: 2; stroke-linecap: round"/>
   </g>
   <g id="line2d_37">
    <path d="M 152.955935 170.791479 
L 163.647079 170.791479 
" clip-path="url(#p8d69abb102)" style="fill: none; stroke: #000000; stroke-width: 2; stroke-linecap: round"/>
   </g>
   <g id="line2d_38">
    <path d="M 206.106195 178.428011 
L 209.466269 178.428011 
" clip-path="url(#p8d69abb102)" style="fill: none; stroke: #000000; stroke-width: 2; stroke-linecap: round"/>
   </g>
   <g id="line2d_39">
    <path d="M 214.048188 139.863526 
L 209.466269 139.863526 
L 209.466269 178.428011 
" clip-path="url(#p8d69abb102)" style="fill: none; stroke: #000000; stroke-width: 2; stroke-linecap: round"/>
   </g>
   <g id="line2d_40">
    <path d="M 275.140442 141.390832 
L 270.558523 141.390832 
L 270.558523 132.226994 
" clip-path="url(#p8d69abb102)" style="fill: none; stroke: #000000; stroke-width: 2; stroke-linecap: round"/>
   </g>
   <g id="line2d_41">
    <path d="M 334.705389 158.191202 
L 331.650776 158.191202 
L 331.650776 149.027364 
" clip-path="url(#p8d69abb102)" style="fill: none; stroke: #000000; stroke-width: 2; stroke-linecap: round"/>
   </g>
   <g id="text_1">
    <g clip-path="url(#p8d69abb102)">
     <!-- output -->
     <g transform="translate(395.797643 169.276952) scale(0.125 -0.125)">
      <defs>
       <path id="DejaVuSans-6f" d="M 1959 3097 
Q 1497 3097 1228 2736 
Q 959 2375 959 1747 
Q 959 1119 1226 758 
Q 1494 397 1959 397 
Q 2419 397 2687 759 
Q 2956 1122 2956 1747 
Q 2956 2369 2687 2733 
Q 2419 3097 1959 3097 
z
M 1959 3584 
Q 2709 3584 3137 3096 
Q 3566 2609 3566 1747 
Q 3566 888 3137 398 
Q 2709 -91 1959 -91 
Q 1206 -91 779 398 
Q 353 888 353 1747 
Q 353 2609 779 3096 
Q 1206 3584 1959 3584 
z
" transform="scale(0.015625)"/>
       <path id="DejaVuSans-75" d="M 544 1381 
L 544 3500 
L 1119 3500 
L 1119 1403 
Q 1119 906 1312 657 
Q 1506 409 1894 409 
Q 2359 409 2629 706 
Q 2900 1003 2900 1516 
L 2900 3500 
L 3475 3500 
L 3475 0 
L 2900 0 
L 2900 538 
Q 2691 219 2414 64 
Q 2138 -91 1772 -91 
Q 1169 -91 856 284 
Q 544 659 544 1381 
z
M 1991 3584 
L 1991 3584 
z
" transform="scale(0.015625)"/>
       <path id="DejaVuSans-74" d="M 1172 4494 
L 1172 3500 
L 2356 3500 
L 2356 3053 
L 1172 3053 
L 1172 1153 
Q 1172 725 1289 603 
Q 1406 481 1766 481 
L 2356 481 
L 2356 0 
L 1766 0 
Q 1100 0 847 248 
Q 594 497 594 1153 
L 594 3053 
L 172 3053 
L 172 3500 
L 594 3500 
L 594 4494 
L 1172 4494 
z
" transform="scale(0.015625)"/>
       <path id="DejaVuSans-70" d="M 1159 525 
L 1159 -1331 
L 581 -1331 
L 581 3500 
L 1159 3500 
L 1159 2969 
Q 1341 3281 1617 3432 
Q 1894 3584 2278 3584 
Q 2916 3584 3314 3078 
Q 3713 2572 3713 1747 
Q 3713 922 3314 415 
Q 2916 -91 2278 -91 
Q 1894 -91 1617 61 
Q 1341 213 1159 525 
z
M 3116 1747 
Q 3116 2381 2855 2742 
Q 2594 3103 2138 3103 
Q 1681 3103 1420 2742 
Q 1159 2381 1159 1747 
Q 1159 1113 1420 752 
Q 1681 391 2138 391 
Q 2594 391 2855 752 
Q 3116 1113 3116 1747 
z
" transform="scale(0.015625)"/>
      </defs>
      <use xlink:href="#DejaVuSans-6f"/>
      <use xlink:href="#DejaVuSans-75" x="61.181641"/>
      <use xlink:href="#DejaVuSans-74" x="124.560547"/>
      <use xlink:href="#DejaVuSans-70" x="163.769531"/>
      <use xlink:href="#DejaVuSans-75" x="227.246094"/>
      <use xlink:href="#DejaVuSans-74" x="290.625"/>
     </g>
    </g>
   </g>
   <g id="text_2">
    <g clip-path="url(#p8d69abb102)">
     <!-- FALSE -->
     <g transform="translate(294.252339 176.913484) scale(0.125 -0.125)">
      <defs>
       <path id="DejaVuSans-46" d="M 628 4666 
L 3309 4666 
L 3309 4134 
L 1259 4134 
L 1259 2759 
L 3109 2759 
L 3109 2228 
L 1259 2228 
L 1259 0 
L 628 0 
L 628 4666 
z
" transform="scale(0.015625)"/>
       <path id="DejaVuSans-41" d="M 2188 4044 
L 1331 1722 
L 3047 1722 
L 2188 4044 
z
M 1831 4666 
L 2547 4666 
L 4325 0 
L 3669 0 
L 3244 1197 
L 1141 1197 
L 716 0 
L 50 0 
L 1831 4666 
z
" transform="scale(0.015625)"/>
       <path id="DejaVuSans-4c" d="M 628 4666 
L 1259 4666 
L 1259 531 
L 3531 531 
L 3531 0 
L 628 0 
L 628 4666 
z
" transform="scale(0.015625)"/>
       <path id="DejaVuSans-53" d="M 3425 4513 
L 3425 3897 
Q 3066 4069 2747 4153 
Q 2428 4238 2131 4238 
Q 1616 4238 1336 4038 
Q 1056 3838 1056 3469 
Q 1056 3159 1242 3001 
Q 1428 2844 1947 2747 
L 2328 2669 
Q 3034 2534 3370 2195 
Q 3706 1856 3706 1288 
Q 3706 609 3251 259 
Q 2797 -91 1919 -91 
Q 1588 -91 1214 -16 
Q 841 59 441 206 
L 441 856 
Q 825 641 1194 531 
Q 1563 422 1919 422 
Q 2459 422 2753 634 
Q 3047 847 3047 1241 
Q 3047 1584 2836 1778 
Q 2625 1972 2144 2069 
L 1759 2144 
Q 1053 2284 737 2584 
Q 422 2884 422 3419 
Q 422 4038 858 4394 
Q 1294 4750 2059 4750 
Q 2388 4750 2728 4690 
Q 3069 4631 3425 4513 
z
" transform="scale(0.015625)"/>
       <path id="DejaVuSans-45" d="M 628 4666 
L 3578 4666 
L 3578 4134 
L 1259 4134 
L 1259 2753 
L 3481 2753 
L 3481 2222 
L 1259 2222 
L 1259 531 
L 3634 531 
L 3634 0 
L 628 0 
L 628 4666 
z
" transform="scale(0.015625)"/>
      </defs>
      <use xlink:href="#DejaVuSans-46"/>
      <use xlink:href="#DejaVuSans-41" x="48.394531"/>
      <use xlink:href="#DejaVuSans-4c" x="116.802734"/>
      <use xlink:href="#DejaVuSans-53" x="172.515625"/>
      <use xlink:href="#DejaVuSans-45" x="235.992188"/>
     </g>
    </g>
   </g>
   <g id="text_3">
    <g clip-path="url(#p8d69abb102)">
     <!-- TRUE -->
     <g transform="translate(238.718642 160.113114) scale(0.125 -0.125)">
      <defs>
       <path id="DejaVuSans-54" d="M -19 4666 
L 3928 4666 
L 3928 4134 
L 2272 4134 
L 2272 0 
L 1638 0 
L 1638 4134 
L -19 4134 
L -19 4666 
z
" transform="scale(0.015625)"/>
       <path id="DejaVuSans-52" d="M 2841 2188 
Q 3044 2119 3236 1894 
Q 3428 1669 3622 1275 
L 4263 0 
L 3584 0 
L 2988 1197 
Q 2756 1666 2539 1819 
Q 2322 1972 1947 1972 
L 1259 1972 
L 1259 0 
L 628 0 
L 628 4666 
L 2053 4666 
Q 2853 4666 3247 4331 
Q 3641 3997 3641 3322 
Q 3641 2881 3436 2590 
Q 3231 2300 2841 2188 
z
M 1259 4147 
L 1259 2491 
L 2053 2491 
Q 2509 2491 2742 2702 
Q 2975 2913 2975 3322 
Q 2975 3731 2742 3939 
Q 2509 4147 2053 4147 
L 1259 4147 
z
" transform="scale(0.015625)"/>
       <path id="DejaVuSans-55" d="M 556 4666 
L 1191 4666 
L 1191 1831 
Q 1191 1081 1462 751 
Q 1734 422 2344 422 
Q 2950 422 3222 751 
Q 3494 1081 3494 1831 
L 3494 4666 
L 4128 4666 
L 4128 1753 
Q 4128 841 3676 375 
Q 3225 -91 2344 -91 
Q 1459 -91 1007 375 
Q 556 841 556 1753 
L 556 4666 
z
" transform="scale(0.015625)"/>
      </defs>
      <use xlink:href="#DejaVuSans-54"/>
      <use xlink:href="#DejaVuSans-52" x="61.083984"/>
      <use xlink:href="#DejaVuSans-55" x="130.566406"/>
      <use xlink:href="#DejaVuSans-45" x="203.759766"/>
     </g>
    </g>
   </g>
   <g id="text_4">
    <g clip-path="url(#p8d69abb102)">
     <!-- b -->
     <g transform="translate(80.873522 55.110803) scale(0.125 -0.125)">
      <defs>
       <path id="DejaVuSans-62" d="M 3116 1747 
Q 3116 2381 2855 2742 
Q 2594 3103 2138 3103 
Q 1681 3103 1420 2742 
Q 1159 2381 1159 1747 
Q 1159 1113 1420 752 
Q 1681 391 2138 391 
Q 2594 391 2855 752 
Q 3116 1113 3116 1747 
z
M 1159 2969 
Q 1341 3281 1617 3432 
Q 1894 3584 2278 3584 
Q 2916 3584 3314 3078 
Q 3713 2572 3713 1747 
Q 3713 922 3314 415 
Q 2916 -91 2278 -91 
Q 1894 -91 1617 61 
Q 1341 213 1159 525 
L 1159 0 
L 581 0 
L 581 4863 
L 1159 4863 
L 1159 2969 
z
" transform="scale(0.015625)"/>
      </defs>
      <use xlink:href="#DejaVuSans-62"/>
     </g>
    </g>
   </g>
   <g id="text_5">
    <g clip-path="url(#p8d69abb102)">
     <!-- a -->
     <g transform="translate(15.47474 30.673902) scale(0.125 -0.125)">
      <defs>
       <path id="DejaVuSans-61" d="M 2194 1759 
Q 1497 1759 1228 1600 
Q 959 1441 959 1056 
Q 959 750 1161 570 
Q 1363 391 1709 391 
Q 2188 391 2477 730 
Q 2766 1069 2766 1631 
L 2766 1759 
L 2194 1759 
z
M 3341 1997 
L 3341 0 
L 2766 0 
L 2766 531 
Q 2569 213 2275 61 
Q 1981 -91 1556 -91 
Q 1019 -91 701 211 
Q 384 513 384 1019 
Q 384 1609 779 1909 
Q 1175 2209 1959 2209 
L 2766 2209 
L 2766 2266 
Q 2766 2663 2505 2880 
Q 2244 3097 1772 3097 
Q 1472 3097 1187 3025 
Q 903 2953 641 2809 
L 641 3341 
Q 956 3463 1253 3523 
Q 1550 3584 1831 3584 
Q 2591 3584 2966 3190 
Q 3341 2797 3341 1997 
z
" transform="scale(0.015625)"/>
      </defs>
      <use xlink:href="#DejaVuSans-61"/>
     </g>
    </g>
   </g>
   <g id="text_6">
    <g clip-path="url(#p8d69abb102)">
     <!-- b -->
     <g transform="translate(80.873522 131.47612) scale(0.125 -0.125)">
      <use xlink:href="#DejaVuSans-62"/>
     </g>
    </g>
   </g>
   <g id="text_7">
    <g clip-path="url(#p8d69abb102)">
     <!-- c -->
     <g transform="translate(81.936022 141.556342) scale(0.125 -0.125)">
      <defs>
       <path id="DejaVuSans-63" d="M 3122 3366 
L 3122 2828 
Q 2878 2963 2633 3030 
Q 2388 3097 2138 3097 
Q 1578 3097 1268 2742 
Q 959 2388 959 1747 
Q 959 1106 1268 751 
Q 1578 397 2138 397 
Q 2388 397 2633 464 
Q 2878 531 3122 666 
L 3122 134 
Q 2881 22 2623 -34 
Q 2366 -91 2075 -91 
Q 1284 -91 818 406 
Q 353 903 353 1747 
Q 353 2603 823 3093 
Q 1294 3584 2113 3584 
Q 2378 3584 2631 3529 
Q 2884 3475 3122 3366 
z
" transform="scale(0.015625)"/>
      </defs>
      <use xlink:href="#DejaVuSans-63"/>
     </g>
    </g>
   </g>
   <g id="text_8">
    <g clip-path="url(#p8d69abb102)">
     <!-- a -->
     <g transform="translate(15.47474 97.875381) scale(0.125 -0.125)">
      <use xlink:href="#DejaVuSans-61"/>
     </g>
    </g>
   </g>
   <g id="text_9">
    <g clip-path="url(#p8d69abb102)">
     <!-- d -->
     <g transform="translate(141.965775 174.240698) scale(0.125 -0.125)">
      <defs>
       <path id="DejaVuSans-64" d="M 2906 2969 
L 2906 4863 
L 3481 4863 
L 3481 0 
L 2906 0 
L 2906 525 
Q 2725 213 2448 61 
Q 2172 -91 1784 -91 
Q 1150 -91 751 415 
Q 353 922 353 1747 
Q 353 2572 751 3078 
Q 1150 3584 1784 3584 
Q 2172 3584 2448 3432 
Q 2725 3281 2906 2969 
z
M 947 1747 
Q 947 1113 1208 752 
Q 1469 391 1925 391 
Q 2381 391 2643 752 
Q 2906 1113 2906 1747 
Q 2906 2381 2643 2742 
Q 2381 3103 1925 3103 
Q 1469 3103 1208 2742 
Q 947 2381 947 1747 
z
" transform="scale(0.015625)"/>
      </defs>
      <use xlink:href="#DejaVuSans-64"/>
     </g>
    </g>
   </g>
   <g id="text_10">
    <g clip-path="url(#p8d69abb102)">
     <!-- FALSE -->
     <g transform="translate(112.502885 189.513761) scale(0.125 -0.125)">
      <use xlink:href="#DejaVuSans-46"/>
      <use xlink:href="#DejaVuSans-41" x="48.394531"/>
      <use xlink:href="#DejaVuSans-4c" x="116.802734"/>
      <use xlink:href="#DejaVuSans-53" x="172.515625"/>
      <use xlink:href="#DejaVuSans-45" x="235.992188"/>
     </g>
    </g>
   </g>
  </g>
 </g>
 <defs>
  <clipPath id="p8d69abb102">
   <rect x="7.2" y="7.2" width="438.082368" height="192.78"/>
  </clipPath>
 </defs>
</svg>
