<?xml version="1.0" encoding="utf-8" standalone="no"?>
<!DOCTYPE svg PUBLIC "-//W3C//DTD SVG 1.1//EN"
  "http://www.w3.org/Graphics/SVG/1.1/DTD/svg11.dtd">
<svg xmlns:xlink="http://www.w3.org/1999/xlink" width="391.993841pt" height="224.316pt" viewBox="0 0 391.993841 224.316" xmlns="http://www.w3.org/2000/svg" version="1.1">
 <metadata>
  <rdf:RDF xmlns:dc="http://purl.org/dc/elements/1.1/" xmlns:cc="http://creativecommons.org/ns#" xmlns:rdf="http://www.w3.org/1999/02/22-rdf-syntax-ns#">
   <cc:Work>
    <dc:type rdf:resource="http://purl.org/dc/dcmitype/StillImage"/>
    <dc:date>2022-12-21T12:37:36.348412</dc:date>
    <dc:format>image/svg+xml</dc:format>
    <dc:creator>
     <cc:Agent>
      <dc:title>Matplotlib v3.6.2, https://matplotlib.org/</dc:title>
     </cc:Agent>
    </dc:creator>
   </cc:Work>
  </rdf:RDF>
 </metadata>
 <defs>
  <style type="text/css">*{stroke-linejoin: round; stroke-linecap: butt}</style>
 </defs>
 <g id="figure_1">
  <g id="patch_1">
   <path d="M 0 224.316 
L 391.993841 224.316 
L 391.993841 -0 
L 0 -0 
L 0 224.316 
z
" style="fill: none"/>
  </g>
  <g id="axes_1">
   <g id="patch_2">
    <path d="M 325.133504 131.891804 
C 326.107173 131.891804 327.041093 131.504961 327.72958 130.816474 
C 328.418067 130.127987 328.80491 129.194066 328.80491 128.220398 
C 328.80491 127.24673 328.418067 126.31281 327.72958 125.624323 
C 327.041093 124.935835 326.107173 124.548993 325.133504 124.548993 
C 324.159836 124.548993 323.225916 124.935835 322.537429 125.624323 
C 321.848942 126.31281 321.462099 127.24673 321.462099 128.220398 
C 321.462099 129.194066 321.848942 130.127987 322.537429 130.816474 
C 323.225916 131.504961 324.159836 131.891804 325.133504 131.891804 
L 325.133504 131.891804 
z
" clip-path="url(#peb570dc977)" style="fill: none; stroke: #000000; stroke-width: 2; stroke-linejoin: miter"/>
   </g>
   <g id="patch_3">
    <path d="M 263.943415 81.40998 
C 264.917083 81.40998 265.851004 81.023138 266.539491 80.334651 
C 267.227978 79.646163 267.614821 78.712243 267.614821 77.738575 
C 267.614821 76.764907 267.227978 75.830987 266.539491 75.142499 
C 265.851004 74.454012 264.917083 74.06717 263.943415 74.06717 
C 262.969747 74.06717 262.035827 74.454012 261.34734 75.142499 
C 260.658852 75.830987 260.27201 76.764907 260.27201 77.738575 
C 260.27201 78.712243 260.658852 79.646163 261.34734 80.334651 
C 262.035827 81.023138 262.969747 81.40998 263.943415 81.40998 
L 263.943415 81.40998 
z
" clip-path="url(#peb570dc977)" style="fill: none; stroke: #000000; stroke-width: 2; stroke-linejoin: miter"/>
   </g>
   <g id="patch_4">
    <path d="M 127.948442 30.928157 
C 128.922111 30.928157 129.856031 30.541314 130.544518 29.852827 
C 131.233005 29.16434 131.619848 28.230419 131.619848 27.256751 
C 131.619848 26.283083 131.233005 25.349163 130.544518 24.660676 
C 129.856031 23.972189 128.922111 23.585346 127.948442 23.585346 
C 126.974774 23.585346 126.040854 23.972189 125.352367 24.660676 
C 124.66388 25.349163 124.277037 26.283083 124.277037 27.256751 
C 124.277037 28.230419 124.66388 29.16434 125.352367 29.852827 
C 126.040854 30.541314 126.974774 30.928157 127.948442 30.928157 
L 127.948442 30.928157 
z
" clip-path="url(#peb570dc977)" style="fill: none; stroke: #000000; stroke-width: 2; stroke-linejoin: miter"/>
   </g>
   <g id="patch_5">
    <path d="M 127.948442 64.582706 
C 128.922111 64.582706 129.856031 64.195863 130.544518 63.507376 
C 131.233005 62.818889 131.619848 61.884968 131.619848 60.9113 
C 131.619848 59.937632 131.233005 59.003712 130.544518 58.315225 
C 129.856031 57.626737 128.922111 57.239895 127.948442 57.239895 
C 126.974774 57.239895 126.040854 57.626737 125.352367 58.315225 
C 124.66388 59.003712 124.277037 59.937632 124.277037 60.9113 
C 124.277037 61.884968 124.66388 62.818889 125.352367 63.507376 
C 126.040854 64.195863 126.974774 64.582706 127.948442 64.582706 
L 127.948442 64.582706 
z
" clip-path="url(#peb570dc977)" style="fill: none; stroke: #000000; stroke-width: 2; stroke-linejoin: miter"/>
   </g>
   <g id="patch_6">
    <path d="M 127.948442 131.891804 
C 128.922111 131.891804 129.856031 131.504961 130.544518 130.816474 
C 131.233005 130.127987 131.619848 129.194066 131.619848 128.220398 
C 131.619848 127.24673 131.233005 126.31281 130.544518 125.624323 
C 129.856031 124.935835 128.922111 124.548993 127.948442 124.548993 
C 126.974774 124.548993 126.040854 124.935835 125.352367 125.624323 
C 124.66388 126.31281 124.277037 127.24673 124.277037 128.220398 
C 124.277037 129.194066 124.66388 130.127987 125.352367 130.816474 
C 126.040854 131.504961 126.974774 131.891804 127.948442 131.891804 
L 127.948442 131.891804 
z
" clip-path="url(#peb570dc977)" style="fill: none; stroke: #000000; stroke-width: 2; stroke-linejoin: miter"/>
   </g>
   <g id="patch_7">
    <path d="M 263.943415 182.373627 
C 264.917083 182.373627 265.851004 181.986785 266.539491 181.298297 
C 267.227978 180.60981 267.614821 179.67589 267.614821 178.702222 
C 267.614821 177.728554 267.227978 176.794634 266.539491 176.106146 
C 265.851004 175.417659 264.917083 175.030817 263.943415 175.030817 
C 262.969747 175.030817 262.035827 175.417659 261.34734 176.106146 
C 260.658852 176.794634 260.27201 177.728554 260.27201 178.702222 
C 260.27201 179.67589 260.658852 180.60981 261.34734 181.298297 
C 262.035827 181.986785 262.969747 182.373627 263.943415 182.373627 
L 263.943415 182.373627 
z
" clip-path="url(#peb570dc977)" style="fill: none; stroke: #000000; stroke-width: 2; stroke-linejoin: miter"/>
   </g>
   <g id="patch_8">
    <path d="M 66.758353 165.546353 
C 67.732021 165.546353 68.665942 165.15951 69.354429 164.471023 
C 70.042916 163.782536 70.429759 162.848615 70.429759 161.874947 
C 70.429759 160.901279 70.042916 159.967359 69.354429 159.278872 
C 68.665942 158.590384 67.732021 158.203542 66.758353 158.203542 
C 65.784685 158.203542 64.850765 158.590384 64.162278 159.278872 
C 63.47379 159.967359 63.086948 160.901279 63.086948 161.874947 
C 63.086948 162.848615 63.47379 163.782536 64.162278 164.471023 
C 64.850765 165.15951 65.784685 165.546353 66.758353 165.546353 
L 66.758353 165.546353 
z
" clip-path="url(#peb570dc977)" style="fill: none; stroke: #000000; stroke-width: 2; stroke-linejoin: miter"/>
   </g>
   <g id="line2d_1">
    <path d="M 284.748046 143.21197 
L 301.793856 143.112068 
L 303.542144 142.812361 
L 305.290433 142.312851 
L 307.038721 141.613535 
L 308.787009 140.714416 
L 310.97237 139.309541 
L 313.15773 137.592472 
L 315.34309 135.563209 
L 317.528451 133.221752 
L 319.713811 130.5681 
L 321.462099 128.220398 
L 321.462099 128.220398 
L 318.839667 124.773773 
L 316.654306 122.244999 
L 314.468946 120.028419 
L 312.283586 118.124034 
L 310.098225 116.531843 
L 307.912865 115.251846 
L 306.164577 114.452628 
L 304.416289 113.853215 
L 302.668 113.453606 
L 300.919712 113.253802 
L 300.045568 113.228827 
L 284.748046 113.228827 
L 284.748046 113.228827 
L 286.950889 115.67643 
L 288.346023 117.512133 
L 289.520873 119.347835 
L 290.475438 121.183538 
L 291.209719 123.019241 
L 291.723716 124.854943 
L 292.017428 126.690646 
L 292.090856 128.526349 
L 291.944 130.362051 
L 291.57686 132.197754 
L 290.989435 134.033457 
L 290.181726 135.86916 
L 289.153732 137.704862 
L 287.905454 139.540565 
L 286.436892 141.376268 
L 284.748046 143.21197 
L 284.748046 143.21197 
" clip-path="url(#peb570dc977)" style="fill: none; stroke: #000000; stroke-width: 2; stroke-linecap: round"/>
   </g>
   <g id="line2d_2">
    <path d="M 274.03978 135.86916 
L 290.181726 135.86916 
" clip-path="url(#peb570dc977)" style="fill: none; stroke: #000000; stroke-width: 2; stroke-linecap: round"/>
   </g>
   <g id="line2d_3">
    <path d="M 274.03978 120.571637 
L 290.181726 120.571637 
" clip-path="url(#peb570dc977)" style="fill: none; stroke: #000000; stroke-width: 2; stroke-linecap: round"/>
   </g>
   <g id="line2d_4">
    <path d="M 328.80491 128.220398 
L 332.170365 128.220398 
" clip-path="url(#peb570dc977)" style="fill: none; stroke: #000000; stroke-width: 2; stroke-linecap: round"/>
   </g>
   <g id="line2d_5">
    <path d="M 223.557957 92.730147 
L 240.603767 92.630245 
L 242.352055 92.330538 
L 244.100344 91.831027 
L 245.848632 91.131712 
L 247.59692 90.232592 
L 249.78228 88.827718 
L 251.967641 87.110649 
L 254.153001 85.081386 
L 256.338361 82.739928 
L 258.523722 80.086276 
L 260.27201 77.738575 
L 260.27201 77.738575 
L 257.649578 74.291949 
L 255.464217 71.763175 
L 253.278857 69.546596 
L 251.093497 67.64221 
L 248.908136 66.050019 
L 246.722776 64.770022 
L 244.974488 63.970805 
L 243.2262 63.371392 
L 241.477911 62.971783 
L 239.729623 62.771979 
L 238.855479 62.747003 
L 223.557957 62.747003 
L 223.557957 62.747003 
L 225.7608 65.194607 
L 227.155934 67.030309 
L 228.330784 68.866012 
L 229.285349 70.701715 
L 230.01963 72.537417 
L 230.533627 74.37312 
L 230.827339 76.208823 
L 230.900767 78.044525 
L 230.753911 79.880228 
L 230.386771 81.715931 
L 229.799346 83.551633 
L 228.991637 85.387336 
L 227.963643 87.223039 
L 226.715365 89.058741 
L 225.246803 90.894444 
L 223.557957 92.730147 
L 223.557957 92.730147 
" clip-path="url(#peb570dc977)" style="fill: none; stroke: #000000; stroke-width: 2; stroke-linecap: round"/>
   </g>
   <g id="line2d_6">
    <path d="M 212.849691 85.387336 
L 228.991637 85.387336 
" clip-path="url(#peb570dc977)" style="fill: none; stroke: #000000; stroke-width: 2; stroke-linecap: round"/>
   </g>
   <g id="line2d_7">
    <path d="M 212.849691 70.089814 
L 228.991637 70.089814 
" clip-path="url(#peb570dc977)" style="fill: none; stroke: #000000; stroke-width: 2; stroke-linecap: round"/>
   </g>
   <g id="line2d_8">
    <path d="M 267.614821 77.738575 
L 270.980276 77.738575 
" clip-path="url(#peb570dc977)" style="fill: none; stroke: #000000; stroke-width: 2; stroke-linecap: round"/>
   </g>
   <g id="line2d_9">
    <path d="M 162.367868 59.075598 
L 179.413678 58.975696 
L 181.161966 58.675989 
L 182.910255 58.176478 
L 184.658543 57.477163 
L 186.406831 56.578043 
L 188.592191 55.173169 
L 190.777552 53.4561 
L 192.962912 51.426837 
L 195.148272 49.085379 
L 197.333633 46.431727 
L 199.081921 44.084026 
L 199.081921 44.084026 
L 196.459489 40.6374 
L 194.274128 38.108626 
L 192.088768 35.892047 
L 189.903408 33.987661 
L 187.718047 32.39547 
L 185.532687 31.115473 
L 183.784399 30.316256 
L 182.03611 29.716843 
L 180.287822 29.317234 
L 178.539534 29.11743 
L 177.66539 29.092454 
L 162.367868 29.092454 
L 162.367868 29.092454 
L 164.570711 31.540058 
L 165.965845 33.37576 
L 167.140694 35.211463 
L 168.09526 37.047166 
L 168.829541 38.882868 
L 169.343538 40.718571 
L 169.63725 42.554274 
L 169.710678 44.389976 
L 169.563822 46.225679 
L 169.196681 48.061382 
L 168.609257 49.897084 
L 167.801547 51.732787 
L 166.773554 53.56849 
L 165.525276 55.404192 
L 164.056714 57.239895 
L 162.367868 59.075598 
L 162.367868 59.075598 
" clip-path="url(#peb570dc977)" style="fill: none; stroke: #000000; stroke-width: 2; stroke-linecap: round"/>
   </g>
   <g id="line2d_10">
    <path d="M 151.659602 51.732787 
L 167.801547 51.732787 
" clip-path="url(#peb570dc977)" style="fill: none; stroke: #000000; stroke-width: 2; stroke-linecap: round"/>
   </g>
   <g id="line2d_11">
    <path d="M 151.659602 36.435265 
L 167.801547 36.435265 
" clip-path="url(#peb570dc977)" style="fill: none; stroke: #000000; stroke-width: 2; stroke-linecap: round"/>
   </g>
   <g id="line2d_12">
    <path d="M 199.081921 44.084026 
L 209.790187 44.084026 
" clip-path="url(#peb570dc977)" style="fill: none; stroke: #000000; stroke-width: 2; stroke-linecap: round"/>
   </g>
   <g id="line2d_13">
    <path d="M 87.410008 27.256751 
L 104.390258 27.256751 
M 131.619848 27.256751 
L 148.600097 27.256751 
" clip-path="url(#peb570dc977)" style="fill: none; stroke: #000000; stroke-width: 2; stroke-linecap: round"/>
   </g>
   <g id="line2d_14">
    <path d="M 104.390258 11.959229 
L 124.277037 27.256751 
L 104.390258 42.554274 
L 104.390258 11.959229 
" clip-path="url(#peb570dc977)" style="fill: none; stroke: #000000; stroke-width: 2; stroke-linecap: round"/>
   </g>
   <g id="line2d_15">
    <path d="M 151.659602 36.435265 
L 148.600097 36.435265 
L 148.600097 27.256751 
" clip-path="url(#peb570dc977)" style="fill: none; stroke: #000000; stroke-width: 2; stroke-linecap: round"/>
   </g>
   <g id="line2d_16">
    <path d="M 87.410008 60.9113 
L 104.390258 60.9113 
M 131.619848 60.9113 
L 148.600097 60.9113 
" clip-path="url(#peb570dc977)" style="fill: none; stroke: #000000; stroke-width: 2; stroke-linecap: round"/>
   </g>
   <g id="line2d_17">
    <path d="M 104.390258 45.613778 
L 124.277037 60.9113 
L 104.390258 76.208823 
L 104.390258 45.613778 
" clip-path="url(#peb570dc977)" style="fill: none; stroke: #000000; stroke-width: 2; stroke-linecap: round"/>
   </g>
   <g id="line2d_18">
    <path d="M 151.659602 51.732787 
L 148.600097 51.732787 
L 148.600097 60.9113 
" clip-path="url(#peb570dc977)" style="fill: none; stroke: #000000; stroke-width: 2; stroke-linecap: round"/>
   </g>
   <g id="line2d_19">
    <path d="M 212.849691 70.089814 
L 209.790187 70.089814 
L 209.790187 44.084026 
" clip-path="url(#peb570dc977)" style="fill: none; stroke: #000000; stroke-width: 2; stroke-linecap: round"/>
   </g>
   <g id="line2d_20">
    <path d="M 183.784399 126.690646 
L 184.764514 126.659216 
L 185.740602 126.565054 
L 186.708652 126.408547 
L 187.664685 126.190339 
L 188.604774 125.911325 
L 189.525054 125.572654 
L 190.421745 125.175715 
L 191.291161 124.722141 
L 192.129731 124.213795 
L 192.934008 123.652767 
L 193.700687 123.04136 
L 194.426618 122.382089 
L 195.108818 121.677662 
L 195.744483 120.930973 
L 196.331002 120.145091 
L 196.865964 119.323246 
L 197.347171 118.468814 
L 197.772646 117.585306 
L 198.14064 116.676353 
L 198.449642 115.745691 
L 198.69838 114.797143 
L 198.885834 113.834607 
L 199.011233 112.862038 
L 199.074061 111.883434 
L 199.074061 110.902814 
L 199.011233 109.92421 
L 198.885834 108.951641 
L 198.69838 107.989105 
L 198.449642 107.040557 
L 198.14064 106.109894 
L 197.772646 105.200942 
L 197.347171 104.317434 
L 196.865964 103.463002 
L 196.331002 102.641157 
L 195.744483 101.855275 
L 195.108818 101.108586 
L 194.426618 100.404159 
L 193.700687 99.744887 
L 192.934008 99.133481 
L 192.129731 98.572452 
L 191.291161 98.064107 
L 190.421745 97.610533 
L 189.525054 97.213594 
L 188.604774 96.874922 
L 187.664685 96.595909 
L 186.708652 96.377701 
L 185.740602 96.221194 
L 184.764514 96.127032 
L 183.784399 96.095602 
L 183.784399 96.095602 
L 163.89762 96.095602 
L 163.89762 111.393124 
L 163.89762 126.690646 
L 183.784399 126.690646 
" clip-path="url(#peb570dc977)" style="fill: none; stroke: #000000; stroke-width: 2; stroke-linecap: round"/>
   </g>
   <g id="line2d_21">
    <path d="M 153.189354 119.041885 
L 163.89762 119.041885 
" clip-path="url(#peb570dc977)" style="fill: none; stroke: #000000; stroke-width: 2; stroke-linecap: round"/>
   </g>
   <g id="line2d_22">
    <path d="M 153.189354 103.744363 
L 163.89762 103.744363 
" clip-path="url(#peb570dc977)" style="fill: none; stroke: #000000; stroke-width: 2; stroke-linecap: round"/>
   </g>
   <g id="line2d_23">
    <path d="M 199.081921 111.393124 
L 209.790187 111.393124 
" clip-path="url(#peb570dc977)" style="fill: none; stroke: #000000; stroke-width: 2; stroke-linecap: round"/>
   </g>
   <g id="line2d_24">
    <path d="M 87.410008 128.220398 
L 104.390258 128.220398 
M 131.619848 128.220398 
L 148.600097 128.220398 
" clip-path="url(#peb570dc977)" style="fill: none; stroke: #000000; stroke-width: 2; stroke-linecap: round"/>
   </g>
   <g id="line2d_25">
    <path d="M 104.390258 112.922876 
L 124.277037 128.220398 
L 104.390258 143.517921 
L 104.390258 112.922876 
" clip-path="url(#peb570dc977)" style="fill: none; stroke: #000000; stroke-width: 2; stroke-linecap: round"/>
   </g>
   <g id="line2d_26">
    <path d="M 153.189354 119.041885 
L 148.600097 119.041885 
L 148.600097 128.220398 
" clip-path="url(#peb570dc977)" style="fill: none; stroke: #000000; stroke-width: 2; stroke-linecap: round"/>
   </g>
   <g id="line2d_27">
    <path d="M 212.849691 85.387336 
L 209.790187 85.387336 
L 209.790187 111.393124 
" clip-path="url(#peb570dc977)" style="fill: none; stroke: #000000; stroke-width: 2; stroke-linecap: round"/>
   </g>
   <g id="line2d_28">
    <path d="M 274.03978 120.571637 
L 270.980276 120.571637 
L 270.980276 77.738575 
" clip-path="url(#peb570dc977)" style="fill: none; stroke: #000000; stroke-width: 2; stroke-linecap: round"/>
   </g>
   <g id="line2d_29">
    <path d="M 223.557957 193.693794 
L 240.603767 193.593891 
L 242.352055 193.294185 
L 244.100344 192.794674 
L 245.848632 192.095359 
L 247.59692 191.196239 
L 249.78228 189.791365 
L 251.967641 188.074296 
L 254.153001 186.045033 
L 256.338361 183.703575 
L 258.523722 181.049923 
L 260.27201 178.702222 
L 260.27201 178.702222 
L 257.649578 175.255596 
L 255.464217 172.726822 
L 253.278857 170.510243 
L 251.093497 168.605857 
L 248.908136 167.013666 
L 246.722776 165.733669 
L 244.974488 164.934452 
L 243.2262 164.335039 
L 241.477911 163.93543 
L 239.729623 163.735626 
L 238.855479 163.71065 
L 223.557957 163.71065 
L 223.557957 163.71065 
L 225.7608 166.158254 
L 227.155934 167.993956 
L 228.330784 169.829659 
L 229.285349 171.665362 
L 230.01963 173.501064 
L 230.533627 175.336767 
L 230.827339 177.17247 
L 230.900767 179.008172 
L 230.753911 180.843875 
L 230.386771 182.679578 
L 229.799346 184.51528 
L 228.991637 186.350983 
L 227.963643 188.186686 
L 226.715365 190.022388 
L 225.246803 191.858091 
L 223.557957 193.693794 
L 223.557957 193.693794 
" clip-path="url(#peb570dc977)" style="fill: none; stroke: #000000; stroke-width: 2; stroke-linecap: round"/>
   </g>
   <g id="line2d_30">
    <path d="M 212.849691 186.350983 
L 228.991637 186.350983 
" clip-path="url(#peb570dc977)" style="fill: none; stroke: #000000; stroke-width: 2; stroke-linecap: round"/>
   </g>
   <g id="line2d_31">
    <path d="M 212.849691 171.053461 
L 228.991637 171.053461 
" clip-path="url(#peb570dc977)" style="fill: none; stroke: #000000; stroke-width: 2; stroke-linecap: round"/>
   </g>
   <g id="line2d_32">
    <path d="M 267.614821 178.702222 
L 270.980276 178.702222 
" clip-path="url(#peb570dc977)" style="fill: none; stroke: #000000; stroke-width: 2; stroke-linecap: round"/>
   </g>
   <g id="line2d_33">
    <path d="M 162.367868 210.521068 
L 179.413678 210.421166 
L 181.161966 210.121459 
L 182.910255 209.621949 
L 184.658543 208.922633 
L 186.406831 208.023514 
L 188.592191 206.618639 
L 190.777552 204.90157 
L 192.962912 202.872307 
L 195.148272 200.53085 
L 197.333633 197.877198 
L 199.081921 195.529496 
L 199.081921 195.529496 
L 196.459489 192.082871 
L 194.274128 189.554097 
L 192.088768 187.337517 
L 189.903408 185.433132 
L 187.718047 183.840941 
L 185.532687 182.560944 
L 183.784399 181.761726 
L 182.03611 181.162313 
L 180.287822 180.762704 
L 178.539534 180.5629 
L 177.66539 180.537925 
L 162.367868 180.537925 
L 162.367868 180.537925 
L 164.570711 182.985528 
L 165.965845 184.821231 
L 167.140694 186.656933 
L 168.09526 188.492636 
L 168.829541 190.328339 
L 169.343538 192.164041 
L 169.63725 193.999744 
L 169.710678 195.835447 
L 169.563822 197.671149 
L 169.196681 199.506852 
L 168.609257 201.342555 
L 167.801547 203.178257 
L 166.773554 205.01396 
L 165.525276 206.849663 
L 164.056714 208.685366 
L 162.367868 210.521068 
L 162.367868 210.521068 
" clip-path="url(#peb570dc977)" style="fill: none; stroke: #000000; stroke-width: 2; stroke-linecap: round"/>
   </g>
   <g id="line2d_34">
    <path d="M 151.659602 203.178257 
L 167.801547 203.178257 
" clip-path="url(#peb570dc977)" style="fill: none; stroke: #000000; stroke-width: 2; stroke-linecap: round"/>
   </g>
   <g id="line2d_35">
    <path d="M 151.659602 187.880735 
L 167.801547 187.880735 
" clip-path="url(#peb570dc977)" style="fill: none; stroke: #000000; stroke-width: 2; stroke-linecap: round"/>
   </g>
   <g id="line2d_36">
    <path d="M 199.081921 195.529496 
L 209.790187 195.529496 
" clip-path="url(#peb570dc977)" style="fill: none; stroke: #000000; stroke-width: 2; stroke-linecap: round"/>
   </g>
   <g id="line2d_37">
    <path d="M 101.177778 193.693794 
L 118.223589 193.593891 
L 119.971877 193.294185 
L 121.720166 192.794674 
L 123.468454 192.095359 
L 125.216742 191.196239 
L 127.402102 189.791365 
L 129.587463 188.074296 
L 131.772823 186.045033 
L 133.958183 183.703575 
L 136.143544 181.049923 
L 137.891832 178.702222 
L 137.891832 178.702222 
L 135.2694 175.255596 
L 133.084039 172.726822 
L 130.898679 170.510243 
L 128.713319 168.605857 
L 126.527958 167.013666 
L 124.342598 165.733669 
L 122.59431 164.934452 
L 120.846021 164.335039 
L 119.097733 163.93543 
L 117.349445 163.735626 
L 116.475301 163.71065 
L 101.177778 163.71065 
L 101.177778 163.71065 
L 103.380622 166.158254 
L 104.775756 167.993956 
L 105.950605 169.829659 
L 106.905171 171.665362 
L 107.639452 173.501064 
L 108.153449 175.336767 
L 108.447161 177.17247 
L 108.520589 179.008172 
L 108.373733 180.843875 
L 108.006592 182.679578 
L 107.419168 184.51528 
L 106.611458 186.350983 
L 105.583465 188.186686 
L 104.335187 190.022388 
L 102.866625 191.858091 
L 101.177778 193.693794 
L 101.177778 193.693794 
" clip-path="url(#peb570dc977)" style="fill: none; stroke: #000000; stroke-width: 2; stroke-linecap: round"/>
   </g>
   <g id="line2d_38">
    <path d="M 90.469513 186.350983 
L 106.611458 186.350983 
" clip-path="url(#peb570dc977)" style="fill: none; stroke: #000000; stroke-width: 2; stroke-linecap: round"/>
   </g>
   <g id="line2d_39">
    <path d="M 90.469513 171.053461 
L 106.611458 171.053461 
" clip-path="url(#peb570dc977)" style="fill: none; stroke: #000000; stroke-width: 2; stroke-linecap: round"/>
   </g>
   <g id="line2d_40">
    <path d="M 137.891832 178.702222 
L 148.600097 178.702222 
" clip-path="url(#peb570dc977)" style="fill: none; stroke: #000000; stroke-width: 2; stroke-linecap: round"/>
   </g>
   <g id="line2d_41">
    <path d="M 26.219919 161.874947 
L 43.200169 161.874947 
M 70.429759 161.874947 
L 87.410008 161.874947 
" clip-path="url(#peb570dc977)" style="fill: none; stroke: #000000; stroke-width: 2; stroke-linecap: round"/>
   </g>
   <g id="line2d_42">
    <path d="M 43.200169 146.577425 
L 63.086948 161.874947 
L 43.200169 177.17247 
L 43.200169 146.577425 
" clip-path="url(#peb570dc977)" style="fill: none; stroke: #000000; stroke-width: 2; stroke-linecap: round"/>
   </g>
   <g id="line2d_43">
    <path d="M 90.469513 171.053461 
L 87.410008 171.053461 
L 87.410008 161.874947 
" clip-path="url(#peb570dc977)" style="fill: none; stroke: #000000; stroke-width: 2; stroke-linecap: round"/>
   </g>
   <g id="line2d_44">
    <path d="M 151.659602 187.880735 
L 148.600097 187.880735 
L 148.600097 178.702222 
" clip-path="url(#peb570dc977)" style="fill: none; stroke: #000000; stroke-width: 2; stroke-linecap: round"/>
   </g>
   <g id="line2d_45">
    <path d="M 212.849691 186.350983 
L 209.790187 186.350983 
L 209.790187 195.529496 
" clip-path="url(#peb570dc977)" style="fill: none; stroke: #000000; stroke-width: 2; stroke-linecap: round"/>
   </g>
   <g id="line2d_46">
    <path d="M 274.03978 135.86916 
L 270.980276 135.86916 
L 270.980276 178.702222 
" clip-path="url(#peb570dc977)" style="fill: none; stroke: #000000; stroke-width: 2; stroke-linecap: round"/>
   </g>
   <g id="text_1">
    <g clip-path="url(#peb570dc977)">
     <!-- output -->
     <g transform="translate(335.229869 131.669617) scale(0.125 -0.125)">
      <defs>
       <path id="DejaVuSans-6f" d="M 1959 3097 
Q 1497 3097 1228 2736 
Q 959 2375 959 1747 
Q 959 1119 1226 758 
Q 1494 397 1959 397 
Q 2419 397 2687 759 
Q 2956 1122 2956 1747 
Q 2956 2369 2687 2733 
Q 2419 3097 1959 3097 
z
M 1959 3584 
Q 2709 3584 3137 3096 
Q 3566 2609 3566 1747 
Q 3566 888 3137 398 
Q 2709 -91 1959 -91 
Q 1206 -91 779 398 
Q 353 888 353 1747 
Q 353 2609 779 3096 
Q 1206 3584 1959 3584 
z
" transform="scale(0.015625)"/>
       <path id="DejaVuSans-75" d="M 544 1381 
L 544 3500 
L 1119 3500 
L 1119 1403 
Q 1119 906 1312 657 
Q 1506 409 1894 409 
Q 2359 409 2629 706 
Q 2900 1003 2900 1516 
L 2900 3500 
L 3475 3500 
L 3475 0 
L 2900 0 
L 2900 538 
Q 2691 219 2414 64 
Q 2138 -91 1772 -91 
Q 1169 -91 856 284 
Q 544 659 544 1381 
z
M 1991 3584 
L 1991 3584 
z
" transform="scale(0.015625)"/>
       <path id="DejaVuSans-74" d="M 1172 4494 
L 1172 3500 
L 2356 3500 
L 2356 3053 
L 1172 3053 
L 1172 1153 
Q 1172 725 1289 603 
Q 1406 481 1766 481 
L 2356 481 
L 2356 0 
L 1766 0 
Q 1100 0 847 248 
Q 594 497 594 1153 
L 594 3053 
L 172 3053 
L 172 3500 
L 594 3500 
L 594 4494 
L 1172 4494 
z
" transform="scale(0.015625)"/>
       <path id="DejaVuSans-70" d="M 1159 525 
L 1159 -1331 
L 581 -1331 
L 581 3500 
L 1159 3500 
L 1159 2969 
Q 1341 3281 1617 3432 
Q 1894 3584 2278 3584 
Q 2916 3584 3314 3078 
Q 3713 2572 3713 1747 
Q 3713 922 3314 415 
Q 2916 -91 2278 -91 
Q 1894 -91 1617 61 
Q 1341 213 1159 525 
z
M 3116 1747 
Q 3116 2381 2855 2742 
Q 2594 3103 2138 3103 
Q 1681 3103 1420 2742 
Q 1159 2381 1159 1747 
Q 1159 1113 1420 752 
Q 1681 391 2138 391 
Q 2594 391 2855 752 
Q 3116 1113 3116 1747 
z
" transform="scale(0.015625)"/>
      </defs>
      <use xlink:href="#DejaVuSans-6f"/>
      <use xlink:href="#DejaVuSans-75" x="61.181641"/>
      <use xlink:href="#DejaVuSans-74" x="124.560547"/>
      <use xlink:href="#DejaVuSans-70" x="163.769531"/>
      <use xlink:href="#DejaVuSans-75" x="227.246094"/>
      <use xlink:href="#DejaVuSans-74" x="290.625"/>
     </g>
    </g>
   </g>
   <g id="text_2">
    <g clip-path="url(#peb570dc977)">
     <!-- a -->
     <g transform="translate(76.690348 30.70597) scale(0.125 -0.125)">
      <defs>
       <path id="DejaVuSans-61" d="M 2194 1759 
Q 1497 1759 1228 1600 
Q 959 1441 959 1056 
Q 959 750 1161 570 
Q 1363 391 1709 391 
Q 2188 391 2477 730 
Q 2766 1069 2766 1631 
L 2766 1759 
L 2194 1759 
z
M 3341 1997 
L 3341 0 
L 2766 0 
L 2766 531 
Q 2569 213 2275 61 
Q 1981 -91 1556 -91 
Q 1019 -91 701 211 
Q 384 513 384 1019 
Q 384 1609 779 1909 
Q 1175 2209 1959 2209 
L 2766 2209 
L 2766 2266 
Q 2766 2663 2505 2880 
Q 2244 3097 1772 3097 
Q 1472 3097 1187 3025 
Q 903 2953 641 2809 
L 641 3341 
Q 956 3463 1253 3523 
Q 1550 3584 1831 3584 
Q 2591 3584 2966 3190 
Q 3341 2797 3341 1997 
z
" transform="scale(0.015625)"/>
      </defs>
      <use xlink:href="#DejaVuSans-61"/>
     </g>
    </g>
   </g>
   <g id="text_3">
    <g clip-path="url(#peb570dc977)">
     <!-- b -->
     <g transform="translate(76.414957 64.360519) scale(0.125 -0.125)">
      <defs>
       <path id="DejaVuSans-62" d="M 3116 1747 
Q 3116 2381 2855 2742 
Q 2594 3103 2138 3103 
Q 1681 3103 1420 2742 
Q 1159 2381 1159 1747 
Q 1159 1113 1420 752 
Q 1681 391 2138 391 
Q 2594 391 2855 752 
Q 3116 1113 3116 1747 
z
M 1159 2969 
Q 1341 3281 1617 3432 
Q 1894 3584 2278 3584 
Q 2916 3584 3314 3078 
Q 3713 2572 3713 1747 
Q 3713 922 3314 415 
Q 2916 -91 2278 -91 
Q 1894 -91 1617 61 
Q 1341 213 1159 525 
L 1159 0 
L 581 0 
L 581 4863 
L 1159 4863 
L 1159 2969 
z
" transform="scale(0.015625)"/>
      </defs>
      <use xlink:href="#DejaVuSans-62"/>
     </g>
    </g>
   </g>
   <g id="text_4">
    <g clip-path="url(#peb570dc977)">
     <!-- c -->
     <g transform="translate(143.256803 107.193582) scale(0.125 -0.125)">
      <defs>
       <path id="DejaVuSans-63" d="M 3122 3366 
L 3122 2828 
Q 2878 2963 2633 3030 
Q 2388 3097 2138 3097 
Q 1578 3097 1268 2742 
Q 959 2388 959 1747 
Q 959 1106 1268 751 
Q 1578 397 2138 397 
Q 2388 397 2633 464 
Q 2878 531 3122 666 
L 3122 134 
Q 2881 22 2623 -34 
Q 2366 -91 2075 -91 
Q 1284 -91 818 406 
Q 353 903 353 1747 
Q 353 2603 823 3093 
Q 1294 3584 2113 3584 
Q 2378 3584 2631 3529 
Q 2884 3475 3122 3366 
z
" transform="scale(0.015625)"/>
      </defs>
      <use xlink:href="#DejaVuSans-63"/>
     </g>
    </g>
   </g>
   <g id="text_5">
    <g clip-path="url(#peb570dc977)">
     <!-- c -->
     <g transform="translate(77.477457 131.669617) scale(0.125 -0.125)">
      <use xlink:href="#DejaVuSans-63"/>
     </g>
    </g>
   </g>
   <g id="text_6">
    <g clip-path="url(#peb570dc977)">
     <!-- d -->
     <g transform="translate(201.85464 174.502679) scale(0.125 -0.125)">
      <defs>
       <path id="DejaVuSans-64" d="M 2906 2969 
L 2906 4863 
L 3481 4863 
L 3481 0 
L 2906 0 
L 2906 525 
Q 2725 213 2448 61 
Q 2172 -91 1784 -91 
Q 1150 -91 751 415 
Q 353 922 353 1747 
Q 353 2572 751 3078 
Q 1150 3584 1784 3584 
Q 2172 3584 2448 3432 
Q 2725 3281 2906 2969 
z
M 947 1747 
Q 947 1113 1208 752 
Q 1469 391 1925 391 
Q 2381 391 2643 752 
Q 2906 1113 2906 1747 
Q 2906 2381 2643 2742 
Q 2381 3103 1925 3103 
Q 1469 3103 1208 2742 
Q 947 2381 947 1747 
z
" transform="scale(0.015625)"/>
      </defs>
      <use xlink:href="#DejaVuSans-64"/>
     </g>
    </g>
   </g>
   <g id="text_7">
    <g clip-path="url(#peb570dc977)">
     <!-- FALSE -->
     <g transform="translate(111.20166 206.627476) scale(0.125 -0.125)">
      <defs>
       <path id="DejaVuSans-46" d="M 628 4666 
L 3309 4666 
L 3309 4134 
L 1259 4134 
L 1259 2759 
L 3109 2759 
L 3109 2228 
L 1259 2228 
L 1259 0 
L 628 0 
L 628 4666 
z
" transform="scale(0.015625)"/>
       <path id="DejaVuSans-41" d="M 2188 4044 
L 1331 1722 
L 3047 1722 
L 2188 4044 
z
M 1831 4666 
L 2547 4666 
L 4325 0 
L 3669 0 
L 3244 1197 
L 1141 1197 
L 716 0 
L 50 0 
L 1831 4666 
z
" transform="scale(0.015625)"/>
       <path id="DejaVuSans-4c" d="M 628 4666 
L 1259 4666 
L 1259 531 
L 3531 531 
L 3531 0 
L 628 0 
L 628 4666 
z
" transform="scale(0.015625)"/>
       <path id="DejaVuSans-53" d="M 3425 4513 
L 3425 3897 
Q 3066 4069 2747 4153 
Q 2428 4238 2131 4238 
Q 1616 4238 1336 4038 
Q 1056 3838 1056 3469 
Q 1056 3159 1242 3001 
Q 1428 2844 1947 2747 
L 2328 2669 
Q 3034 2534 3370 2195 
Q 3706 1856 3706 1288 
Q 3706 609 3251 259 
Q 2797 -91 1919 -91 
Q 1588 -91 1214 -16 
Q 841 59 441 206 
L 441 856 
Q 825 641 1194 531 
Q 1563 422 1919 422 
Q 2459 422 2753 634 
Q 3047 847 3047 1241 
Q 3047 1584 2836 1778 
Q 2625 1972 2144 2069 
L 1759 2144 
Q 1053 2284 737 2584 
Q 422 2884 422 3419 
Q 422 4038 858 4394 
Q 1294 4750 2059 4750 
Q 2388 4750 2728 4690 
Q 3069 4631 3425 4513 
z
" transform="scale(0.015625)"/>
       <path id="DejaVuSans-45" d="M 628 4666 
L 3578 4666 
L 3578 4134 
L 1259 4134 
L 1259 2753 
L 3481 2753 
L 3481 2222 
L 1259 2222 
L 1259 531 
L 3634 531 
L 3634 0 
L 628 0 
L 628 4666 
z
" transform="scale(0.015625)"/>
      </defs>
      <use xlink:href="#DejaVuSans-46"/>
      <use xlink:href="#DejaVuSans-41" x="48.394531"/>
      <use xlink:href="#DejaVuSans-4c" x="116.802734"/>
      <use xlink:href="#DejaVuSans-53" x="172.515625"/>
      <use xlink:href="#DejaVuSans-45" x="235.992188"/>
     </g>
    </g>
   </g>
   <g id="text_8">
    <g clip-path="url(#peb570dc977)">
     <!-- d -->
     <g transform="translate(79.474462 189.800202) scale(0.125 -0.125)">
      <use xlink:href="#DejaVuSans-64"/>
     </g>
    </g>
   </g>
   <g id="text_9">
    <g clip-path="url(#peb570dc977)">
     <!-- d -->
     <g transform="translate(15.224868 165.324166) scale(0.125 -0.125)">
      <use xlink:href="#DejaVuSans-64"/>
     </g>
    </g>
   </g>
  </g>
 </g>
 <defs>
  <clipPath id="peb570dc977">
   <rect x="7.2" y="7.2" width="377.593841" height="209.916"/>
  </clipPath>
 </defs>
</svg>
