<?xml version="1.0" encoding="utf-8" standalone="no"?>
<!DOCTYPE svg PUBLIC "-//W3C//DTD SVG 1.1//EN"
  "http://www.w3.org/Graphics/SVG/1.1/DTD/svg11.dtd">
<svg xmlns:xlink="http://www.w3.org/1999/xlink" width="330.180256pt" height="173.52pt" viewBox="0 0 330.180256 173.52" xmlns="http://www.w3.org/2000/svg" version="1.1">
 <metadata>
  <rdf:RDF xmlns:dc="http://purl.org/dc/elements/1.1/" xmlns:cc="http://creativecommons.org/ns#" xmlns:rdf="http://www.w3.org/1999/02/22-rdf-syntax-ns#">
   <cc:Work>
    <dc:type rdf:resource="http://purl.org/dc/dcmitype/StillImage"/>
    <dc:date>2022-11-07T10:30:07.793434</dc:date>
    <dc:format>image/svg+xml</dc:format>
    <dc:creator>
     <cc:Agent>
      <dc:title>Matplotlib v3.6.0, https://matplotlib.org/</dc:title>
     </cc:Agent>
    </dc:creator>
   </cc:Work>
  </rdf:RDF>
 </metadata>
 <defs>
  <style type="text/css">*{stroke-linejoin: round; stroke-linecap: butt}</style>
 </defs>
 <g id="figure_1">
  <g id="patch_1">
   <path d="M 0 173.52 
L 330.180256 173.52 
L 330.180256 0 
L 0 0 
L 0 173.52 
z
" style="fill: none"/>
  </g>
  <g id="axes_1">
   <g id="patch_2">
    <path d="M 263.437484 85.462273 
C 264.409233 85.462273 265.341313 85.076193 266.028444 84.389062 
C 266.715574 83.701932 267.101655 82.769852 267.101655 81.798102 
C 267.101655 80.826353 266.715574 79.894273 266.028444 79.207142 
C 265.341313 78.520012 264.409233 78.133932 263.437484 78.133932 
C 262.465735 78.133932 261.533655 78.520012 260.846524 79.207142 
C 260.159394 79.894273 259.773313 80.826353 259.773313 81.798102 
C 259.773313 82.769852 260.159394 83.701932 260.846524 84.389062 
C 261.533655 85.076193 262.465735 85.462273 263.437484 85.462273 
L 263.437484 85.462273 
z
" clip-path="url(#p994223d6e1)" style="fill: none; stroke: #000000; stroke-width: 2; stroke-linejoin: miter"/>
   </g>
   <g id="patch_3">
    <path d="M 202.367974 47.675514 
C 203.339724 47.675514 204.271804 47.289434 204.958934 46.602303 
C 205.646065 45.915173 206.032145 44.983093 206.032145 44.011343 
C 206.032145 43.039594 205.646065 42.107514 204.958934 41.420383 
C 204.271804 40.733253 203.339724 40.347173 202.367974 40.347173 
C 201.396225 40.347173 200.464145 40.733253 199.777015 41.420383 
C 199.089884 42.107514 198.703804 43.039594 198.703804 44.011343 
C 198.703804 44.983093 199.089884 45.915173 199.777015 46.602303 
C 200.464145 47.289434 201.396225 47.675514 202.367974 47.675514 
L 202.367974 47.675514 
z
" clip-path="url(#p994223d6e1)" style="fill: none; stroke: #000000; stroke-width: 2; stroke-linejoin: miter"/>
   </g>
   <g id="patch_4">
    <path d="M 127.710499 30.881399 
C 128.682248 30.881399 129.614328 30.495319 130.301459 29.808188 
C 130.988589 29.121057 131.37467 28.188978 131.37467 27.217228 
C 131.37467 26.245479 130.988589 25.313399 130.301459 24.626268 
C 129.614328 23.939138 128.682248 23.553058 127.710499 23.553058 
C 126.73875 23.553058 125.80667 23.939138 125.119539 24.626268 
C 124.432408 25.313399 124.046328 26.245479 124.046328 27.217228 
C 124.046328 28.188978 124.432408 29.121057 125.119539 29.808188 
C 125.80667 30.495319 126.73875 30.881399 127.710499 30.881399 
L 127.710499 30.881399 
z
" clip-path="url(#p994223d6e1)" style="fill: none; stroke: #000000; stroke-width: 2; stroke-linejoin: miter"/>
   </g>
   <g id="patch_5">
    <path d="M 127.710499 64.469629 
C 128.682248 64.469629 129.614328 64.083549 130.301459 63.396418 
C 130.988589 62.709288 131.37467 61.777208 131.37467 60.805458 
C 131.37467 59.833709 130.988589 58.901629 130.301459 58.214499 
C 129.614328 57.527368 128.682248 57.141288 127.710499 57.141288 
C 126.73875 57.141288 125.80667 57.527368 125.119539 58.214499 
C 124.432408 58.901629 124.046328 59.833709 124.046328 60.805458 
C 124.046328 61.777208 124.432408 62.709288 125.119539 63.396418 
C 125.80667 64.083549 126.73875 64.469629 127.710499 64.469629 
L 127.710499 64.469629 
z
" clip-path="url(#p994223d6e1)" style="fill: none; stroke: #000000; stroke-width: 2; stroke-linejoin: miter"/>
   </g>
   <g id="patch_6">
    <path d="M 202.367974 123.249032 
C 203.339724 123.249032 204.271804 122.862952 204.958934 122.175821 
C 205.646065 121.488691 206.032145 120.556611 206.032145 119.584861 
C 206.032145 118.613112 205.646065 117.681032 204.958934 116.993902 
C 204.271804 116.306771 203.339724 115.920691 202.367974 115.920691 
C 201.396225 115.920691 200.464145 116.306771 199.777015 116.993902 
C 199.089884 117.681032 198.703804 118.613112 198.703804 119.584861 
C 198.703804 120.556611 199.089884 121.488691 199.777015 122.175821 
C 200.464145 122.862952 201.396225 123.249032 202.367974 123.249032 
L 202.367974 123.249032 
z
" clip-path="url(#p994223d6e1)" style="fill: none; stroke: #000000; stroke-width: 2; stroke-linejoin: miter"/>
   </g>
   <g id="patch_7">
    <path d="M 127.710499 98.057859 
C 128.682248 98.057859 129.614328 97.671779 130.301459 96.984649 
C 130.988589 96.297518 131.37467 95.365438 131.37467 94.393689 
C 131.37467 93.421939 130.988589 92.489859 130.301459 91.802729 
C 129.614328 91.115598 128.682248 90.729518 127.710499 90.729518 
C 126.73875 90.729518 125.80667 91.115598 125.119539 91.802729 
C 124.432408 92.489859 124.046328 93.421939 124.046328 94.393689 
C 124.046328 95.365438 124.432408 96.297518 125.119539 96.984649 
C 125.80667 97.671779 126.73875 98.057859 127.710499 98.057859 
L 127.710499 98.057859 
z
" clip-path="url(#p994223d6e1)" style="fill: none; stroke: #000000; stroke-width: 2; stroke-linejoin: miter"/>
   </g>
   <g id="patch_8">
    <path d="M 66.640989 131.64609 
C 67.612739 131.64609 68.544819 131.260009 69.231949 130.572879 
C 69.91908 129.885748 70.30516 128.953668 70.30516 127.981919 
C 70.30516 127.01017 69.91908 126.07809 69.231949 125.390959 
C 68.544819 124.703829 67.612739 124.317748 66.640989 124.317748 
C 65.66924 124.317748 64.73716 124.703829 64.050029 125.390959 
C 63.362899 126.07809 62.976819 127.01017 62.976819 127.981919 
C 62.976819 128.953668 63.362899 129.885748 64.050029 130.572879 
C 64.73716 131.260009 65.66924 131.64609 66.640989 131.64609 
L 66.640989 131.64609 
z
" clip-path="url(#p994223d6e1)" style="fill: none; stroke: #000000; stroke-width: 2; stroke-linejoin: miter"/>
   </g>
   <g id="line2d_1">
    <path d="M 244.505936 97.06548 
L 245.48412 97.034111 
L 246.458285 96.940135 
L 247.424427 96.783936 
L 248.378576 96.566158 
L 249.316812 96.287695 
L 250.235279 95.94969 
L 251.130203 95.553534 
L 251.997906 95.100854 
L 252.834823 94.59351 
L 253.637515 94.033587 
L 254.402684 93.423385 
L 255.127184 92.765413 
L 255.80804 92.062374 
L 256.442452 91.317156 
L 257.027815 90.532823 
L 257.561723 89.712597 
L 258.041982 88.859849 
L 258.466619 87.978082 
L 258.833888 87.070921 
L 259.14228 86.142092 
L 259.390528 85.195413 
L 259.577613 84.234774 
L 259.702765 83.264122 
L 259.765469 82.287446 
L 259.765469 81.308759 
L 259.702765 80.332083 
L 259.577613 79.361431 
L 259.390528 78.400791 
L 259.14228 77.454112 
L 258.833888 76.525284 
L 258.466619 75.618122 
L 258.041982 74.736356 
L 257.561723 73.883607 
L 257.027815 73.063381 
L 256.442452 72.279048 
L 255.80804 71.533831 
L 255.127184 70.830792 
L 254.402684 70.17282 
L 253.637515 69.562618 
L 252.834823 69.002695 
L 251.997906 68.495351 
L 251.130203 68.042671 
L 250.235279 67.646514 
L 249.316812 67.30851 
L 248.378576 67.030047 
L 247.424427 66.812268 
L 246.458285 66.65607 
L 245.48412 66.562093 
L 244.505936 66.530725 
L 244.505936 66.530725 
L 224.658345 66.530725 
L 224.658345 81.798102 
L 224.658345 97.06548 
L 244.505936 97.06548 
" clip-path="url(#p994223d6e1)" style="fill: none; stroke: #000000; stroke-width: 2; stroke-linecap: round"/>
   </g>
   <g id="line2d_2">
    <path d="M 213.971181 89.431791 
L 224.658345 89.431791 
" clip-path="url(#p994223d6e1)" style="fill: none; stroke: #000000; stroke-width: 2; stroke-linecap: round"/>
   </g>
   <g id="line2d_3">
    <path d="M 213.971181 74.164414 
L 224.658345 74.164414 
" clip-path="url(#p994223d6e1)" style="fill: none; stroke: #000000; stroke-width: 2; stroke-linecap: round"/>
   </g>
   <g id="line2d_4">
    <path d="M 267.101655 81.798102 
L 270.460478 81.798102 
" clip-path="url(#p994223d6e1)" style="fill: none; stroke: #000000; stroke-width: 2; stroke-linecap: round"/>
   </g>
   <g id="line2d_5">
    <path d="M 162.062098 58.973373 
L 179.074319 58.873668 
L 180.819162 58.574552 
L 182.564005 58.076025 
L 184.308848 57.378088 
L 186.053691 56.48074 
L 188.234745 55.078634 
L 190.415799 53.364949 
L 192.596853 51.339684 
L 194.777907 49.002841 
L 196.958961 46.354418 
L 198.703804 44.011343 
L 198.703804 44.011343 
L 196.086539 40.57151 
L 193.905485 38.047719 
L 191.724431 35.835507 
L 189.543377 33.934874 
L 187.362323 32.345821 
L 185.18127 31.068346 
L 183.436426 30.270704 
L 181.691583 29.672472 
L 179.94674 29.27365 
L 178.201897 29.07424 
L 177.329475 29.049313 
L 162.062098 29.049313 
L 162.062098 29.049313 
L 164.2606 31.492094 
L 165.652985 33.324179 
L 166.82552 35.156264 
L 167.778204 36.98835 
L 168.511038 38.820435 
L 169.024022 40.65252 
L 169.317156 42.484606 
L 169.390439 44.316691 
L 169.243872 46.148776 
L 168.877455 47.980861 
L 168.291188 49.812947 
L 167.485071 51.645032 
L 166.459103 53.477117 
L 165.213285 55.309203 
L 163.747617 57.141288 
L 162.062098 58.973373 
L 162.062098 58.973373 
" clip-path="url(#p994223d6e1)" style="fill: none; stroke: #000000; stroke-width: 2; stroke-linecap: round"/>
   </g>
   <g id="line2d_6">
    <path d="M 151.374934 51.645032 
L 167.485071 51.645032 
" clip-path="url(#p994223d6e1)" style="fill: none; stroke: #000000; stroke-width: 2; stroke-linecap: round"/>
   </g>
   <g id="line2d_7">
    <path d="M 151.374934 36.377655 
L 167.485071 36.377655 
" clip-path="url(#p994223d6e1)" style="fill: none; stroke: #000000; stroke-width: 2; stroke-linecap: round"/>
   </g>
   <g id="line2d_8">
    <path d="M 206.032145 44.011343 
L 209.390968 44.011343 
" clip-path="url(#p994223d6e1)" style="fill: none; stroke: #000000; stroke-width: 2; stroke-linecap: round"/>
   </g>
   <g id="line2d_9">
    <path d="M 87.251949 27.217228 
L 104.198738 27.217228 
M 131.37467 27.217228 
L 148.321458 27.217228 
" clip-path="url(#p994223d6e1)" style="fill: none; stroke: #000000; stroke-width: 2; stroke-linecap: round"/>
   </g>
   <g id="line2d_10">
    <path d="M 104.198738 11.949851 
L 124.046328 27.217228 
L 104.198738 42.484606 
L 104.198738 11.949851 
" clip-path="url(#p994223d6e1)" style="fill: none; stroke: #000000; stroke-width: 2; stroke-linecap: round"/>
   </g>
   <g id="line2d_11">
    <path d="M 151.374934 36.377655 
L 148.321458 36.377655 
L 148.321458 27.217228 
" clip-path="url(#p994223d6e1)" style="fill: none; stroke: #000000; stroke-width: 2; stroke-linecap: round"/>
   </g>
   <g id="line2d_12">
    <path d="M 87.251949 60.805458 
L 104.198738 60.805458 
M 131.37467 60.805458 
L 148.321458 60.805458 
" clip-path="url(#p994223d6e1)" style="fill: none; stroke: #000000; stroke-width: 2; stroke-linecap: round"/>
   </g>
   <g id="line2d_13">
    <path d="M 104.198738 45.538081 
L 124.046328 60.805458 
L 104.198738 76.072836 
L 104.198738 45.538081 
" clip-path="url(#p994223d6e1)" style="fill: none; stroke: #000000; stroke-width: 2; stroke-linecap: round"/>
   </g>
   <g id="line2d_14">
    <path d="M 151.374934 51.645032 
L 148.321458 51.645032 
L 148.321458 60.805458 
" clip-path="url(#p994223d6e1)" style="fill: none; stroke: #000000; stroke-width: 2; stroke-linecap: round"/>
   </g>
   <g id="line2d_15">
    <path d="M 213.971181 74.164414 
L 209.390968 74.164414 
L 209.390968 44.011343 
" clip-path="url(#p994223d6e1)" style="fill: none; stroke: #000000; stroke-width: 2; stroke-linecap: round"/>
   </g>
   <g id="line2d_16">
    <path d="M 162.062098 134.546891 
L 179.074319 134.447186 
L 180.819162 134.14807 
L 182.564005 133.649543 
L 184.308848 132.951606 
L 186.053691 132.054258 
L 188.234745 130.652152 
L 190.415799 128.938467 
L 192.596853 126.913203 
L 194.777907 124.576359 
L 196.958961 121.927936 
L 198.703804 119.584861 
L 198.703804 119.584861 
L 196.086539 116.145028 
L 193.905485 113.621237 
L 191.724431 111.409025 
L 189.543377 109.508392 
L 187.362323 107.919339 
L 185.18127 106.641864 
L 183.436426 105.844222 
L 181.691583 105.24599 
L 179.94674 104.847169 
L 178.201897 104.647758 
L 177.329475 104.622832 
L 162.062098 104.622832 
L 162.062098 104.622832 
L 164.2606 107.065612 
L 165.652985 108.897697 
L 166.82552 110.729783 
L 167.778204 112.561868 
L 168.511038 114.393953 
L 169.024022 116.226038 
L 169.317156 118.058124 
L 169.390439 119.890209 
L 169.243872 121.722294 
L 168.877455 123.55438 
L 168.291188 125.386465 
L 167.485071 127.21855 
L 166.459103 129.050635 
L 165.213285 130.882721 
L 163.747617 132.714806 
L 162.062098 134.546891 
L 162.062098 134.546891 
" clip-path="url(#p994223d6e1)" style="fill: none; stroke: #000000; stroke-width: 2; stroke-linecap: round"/>
   </g>
   <g id="line2d_17">
    <path d="M 151.374934 127.21855 
L 167.485071 127.21855 
" clip-path="url(#p994223d6e1)" style="fill: none; stroke: #000000; stroke-width: 2; stroke-linecap: round"/>
   </g>
   <g id="line2d_18">
    <path d="M 151.374934 111.951173 
L 167.485071 111.951173 
" clip-path="url(#p994223d6e1)" style="fill: none; stroke: #000000; stroke-width: 2; stroke-linecap: round"/>
   </g>
   <g id="line2d_19">
    <path d="M 206.032145 119.584861 
L 209.390968 119.584861 
" clip-path="url(#p994223d6e1)" style="fill: none; stroke: #000000; stroke-width: 2; stroke-linecap: round"/>
   </g>
   <g id="line2d_20">
    <path d="M 87.251949 94.393689 
L 104.198738 94.393689 
M 131.37467 94.393689 
L 148.321458 94.393689 
" clip-path="url(#p994223d6e1)" style="fill: none; stroke: #000000; stroke-width: 2; stroke-linecap: round"/>
   </g>
   <g id="line2d_21">
    <path d="M 104.198738 79.126311 
L 124.046328 94.393689 
L 104.198738 109.661066 
L 104.198738 79.126311 
" clip-path="url(#p994223d6e1)" style="fill: none; stroke: #000000; stroke-width: 2; stroke-linecap: round"/>
   </g>
   <g id="line2d_22">
    <path d="M 151.374934 111.951173 
L 148.321458 111.951173 
L 148.321458 94.393689 
" clip-path="url(#p994223d6e1)" style="fill: none; stroke: #000000; stroke-width: 2; stroke-linecap: round"/>
   </g>
   <g id="line2d_23">
    <path d="M 122.366917 160.043412 
L 123.345101 160.012043 
L 124.319266 159.918067 
L 125.285408 159.761868 
L 126.239557 159.54409 
L 127.177793 159.265626 
L 128.09626 158.927622 
L 128.991184 158.531466 
L 129.858887 158.078786 
L 130.695804 157.571442 
L 131.498496 157.011518 
L 132.263664 156.401317 
L 132.988165 155.743345 
L 133.66902 155.040306 
L 134.303433 154.295088 
L 134.888796 153.510755 
L 135.422704 152.690529 
L 135.902963 151.837781 
L 136.327599 150.956014 
L 136.694868 150.048853 
L 137.003261 149.120024 
L 137.251509 148.173345 
L 137.438594 147.212706 
L 137.563745 146.242054 
L 137.62645 145.265378 
L 137.62645 144.286691 
L 137.563745 143.310014 
L 137.438594 142.339362 
L 137.251509 141.378723 
L 137.003261 140.432044 
L 136.694868 139.503215 
L 136.327599 138.596054 
L 135.902963 137.714287 
L 135.422704 136.861539 
L 134.888796 136.041313 
L 134.303433 135.25698 
L 133.66902 134.511763 
L 132.988165 133.808723 
L 132.263664 133.150751 
L 131.498496 132.54055 
L 130.695804 131.980627 
L 129.858887 131.473283 
L 128.991184 131.020602 
L 128.09626 130.624446 
L 127.177793 130.286442 
L 126.239557 130.007978 
L 125.285408 129.7902 
L 124.319266 129.634002 
L 123.345101 129.540025 
L 122.366917 129.508657 
L 122.366917 129.508657 
L 102.519326 129.508657 
L 102.519326 144.776034 
L 102.519326 160.043412 
L 122.366917 160.043412 
" clip-path="url(#p994223d6e1)" style="fill: none; stroke: #000000; stroke-width: 2; stroke-linecap: round"/>
   </g>
   <g id="line2d_24">
    <path d="M 91.832162 152.409723 
L 102.519326 152.409723 
" clip-path="url(#p994223d6e1)" style="fill: none; stroke: #000000; stroke-width: 2; stroke-linecap: round"/>
   </g>
   <g id="line2d_25">
    <path d="M 91.832162 137.142345 
L 102.519326 137.142345 
" clip-path="url(#p994223d6e1)" style="fill: none; stroke: #000000; stroke-width: 2; stroke-linecap: round"/>
   </g>
   <g id="line2d_26">
    <path d="M 137.634294 144.776034 
L 148.321458 144.776034 
" clip-path="url(#p994223d6e1)" style="fill: none; stroke: #000000; stroke-width: 2; stroke-linecap: round"/>
   </g>
   <g id="line2d_27">
    <path d="M 26.182439 127.981919 
L 43.129228 127.981919 
M 70.30516 127.981919 
L 87.251949 127.981919 
" clip-path="url(#p994223d6e1)" style="fill: none; stroke: #000000; stroke-width: 2; stroke-linecap: round"/>
   </g>
   <g id="line2d_28">
    <path d="M 43.129228 112.714542 
L 62.976819 127.981919 
L 43.129228 143.249296 
L 43.129228 112.714542 
" clip-path="url(#p994223d6e1)" style="fill: none; stroke: #000000; stroke-width: 2; stroke-linecap: round"/>
   </g>
   <g id="line2d_29">
    <path d="M 91.832162 137.142345 
L 87.251949 137.142345 
L 87.251949 127.981919 
" clip-path="url(#p994223d6e1)" style="fill: none; stroke: #000000; stroke-width: 2; stroke-linecap: round"/>
   </g>
   <g id="line2d_30">
    <path d="M 151.374934 127.21855 
L 148.321458 127.21855 
L 148.321458 144.776034 
" clip-path="url(#p994223d6e1)" style="fill: none; stroke: #000000; stroke-width: 2; stroke-linecap: round"/>
   </g>
   <g id="line2d_31">
    <path d="M 213.971181 89.431791 
L 209.390968 89.431791 
L 209.390968 119.584861 
" clip-path="url(#p994223d6e1)" style="fill: none; stroke: #000000; stroke-width: 2; stroke-linecap: round"/>
   </g>
   <g id="text_1">
    <g clip-path="url(#p994223d6e1)">
     <!-- output -->
     <g transform="translate(273.513953 85.247321) scale(0.125 -0.125)">
      <defs>
       <path id="DejaVuSans-6f" d="M 1959 3097 
Q 1497 3097 1228 2736 
Q 959 2375 959 1747 
Q 959 1119 1226 758 
Q 1494 397 1959 397 
Q 2419 397 2687 759 
Q 2956 1122 2956 1747 
Q 2956 2369 2687 2733 
Q 2419 3097 1959 3097 
z
M 1959 3584 
Q 2709 3584 3137 3096 
Q 3566 2609 3566 1747 
Q 3566 888 3137 398 
Q 2709 -91 1959 -91 
Q 1206 -91 779 398 
Q 353 888 353 1747 
Q 353 2609 779 3096 
Q 1206 3584 1959 3584 
z
" transform="scale(0.015625)"/>
       <path id="DejaVuSans-75" d="M 544 1381 
L 544 3500 
L 1119 3500 
L 1119 1403 
Q 1119 906 1312 657 
Q 1506 409 1894 409 
Q 2359 409 2629 706 
Q 2900 1003 2900 1516 
L 2900 3500 
L 3475 3500 
L 3475 0 
L 2900 0 
L 2900 538 
Q 2691 219 2414 64 
Q 2138 -91 1772 -91 
Q 1169 -91 856 284 
Q 544 659 544 1381 
z
M 1991 3584 
L 1991 3584 
z
" transform="scale(0.015625)"/>
       <path id="DejaVuSans-74" d="M 1172 4494 
L 1172 3500 
L 2356 3500 
L 2356 3053 
L 1172 3053 
L 1172 1153 
Q 1172 725 1289 603 
Q 1406 481 1766 481 
L 2356 481 
L 2356 0 
L 1766 0 
Q 1100 0 847 248 
Q 594 497 594 1153 
L 594 3053 
L 172 3053 
L 172 3500 
L 594 3500 
L 594 4494 
L 1172 4494 
z
" transform="scale(0.015625)"/>
       <path id="DejaVuSans-70" d="M 1159 525 
L 1159 -1331 
L 581 -1331 
L 581 3500 
L 1159 3500 
L 1159 2969 
Q 1341 3281 1617 3432 
Q 1894 3584 2278 3584 
Q 2916 3584 3314 3078 
Q 3713 2572 3713 1747 
Q 3713 922 3314 415 
Q 2916 -91 2278 -91 
Q 1894 -91 1617 61 
Q 1341 213 1159 525 
z
M 3116 1747 
Q 3116 2381 2855 2742 
Q 2594 3103 2138 3103 
Q 1681 3103 1420 2742 
Q 1159 2381 1159 1747 
Q 1159 1113 1420 752 
Q 1681 391 2138 391 
Q 2594 391 2855 752 
Q 3116 1113 3116 1747 
z
" transform="scale(0.015625)"/>
      </defs>
      <use xlink:href="#DejaVuSans-6f"/>
      <use xlink:href="#DejaVuSans-75" x="61.181641"/>
      <use xlink:href="#DejaVuSans-74" x="124.560547"/>
      <use xlink:href="#DejaVuSans-70" x="163.769531"/>
      <use xlink:href="#DejaVuSans-75" x="227.246094"/>
      <use xlink:href="#DejaVuSans-74" x="290.625"/>
     </g>
    </g>
   </g>
   <g id="text_2">
    <g clip-path="url(#p994223d6e1)">
     <!-- a -->
     <g transform="translate(76.538317 30.666447) scale(0.125 -0.125)">
      <defs>
       <path id="DejaVuSans-61" d="M 2194 1759 
Q 1497 1759 1228 1600 
Q 959 1441 959 1056 
Q 959 750 1161 570 
Q 1363 391 1709 391 
Q 2188 391 2477 730 
Q 2766 1069 2766 1631 
L 2766 1759 
L 2194 1759 
z
M 3341 1997 
L 3341 0 
L 2766 0 
L 2766 531 
Q 2569 213 2275 61 
Q 1981 -91 1556 -91 
Q 1019 -91 701 211 
Q 384 513 384 1019 
Q 384 1609 779 1909 
Q 1175 2209 1959 2209 
L 2766 2209 
L 2766 2266 
Q 2766 2663 2505 2880 
Q 2244 3097 1772 3097 
Q 1472 3097 1187 3025 
Q 903 2953 641 2809 
L 641 3341 
Q 956 3463 1253 3523 
Q 1550 3584 1831 3584 
Q 2591 3584 2966 3190 
Q 3341 2797 3341 1997 
z
" transform="scale(0.015625)"/>
      </defs>
      <use xlink:href="#DejaVuSans-61"/>
     </g>
    </g>
   </g>
   <g id="text_3">
    <g clip-path="url(#p994223d6e1)">
     <!-- b -->
     <g transform="translate(76.262926 64.254677) scale(0.125 -0.125)">
      <defs>
       <path id="DejaVuSans-62" d="M 3116 1747 
Q 3116 2381 2855 2742 
Q 2594 3103 2138 3103 
Q 1681 3103 1420 2742 
Q 1159 2381 1159 1747 
Q 1159 1113 1420 752 
Q 1681 391 2138 391 
Q 2594 391 2855 752 
Q 3116 1113 3116 1747 
z
M 1159 2969 
Q 1341 3281 1617 3432 
Q 1894 3584 2278 3584 
Q 2916 3584 3314 3078 
Q 3713 2572 3713 1747 
Q 3713 922 3314 415 
Q 2916 -91 2278 -91 
Q 1894 -91 1617 61 
Q 1341 213 1159 525 
L 1159 0 
L 581 0 
L 581 4863 
L 1159 4863 
L 1159 2969 
z
" transform="scale(0.015625)"/>
      </defs>
      <use xlink:href="#DejaVuSans-62"/>
     </g>
    </g>
   </g>
   <g id="text_4">
    <g clip-path="url(#p994223d6e1)">
     <!-- a -->
     <g transform="translate(76.538317 97.842907) scale(0.125 -0.125)">
      <use xlink:href="#DejaVuSans-61"/>
     </g>
    </g>
   </g>
   <g id="text_5">
    <g clip-path="url(#p994223d6e1)">
     <!-- c -->
     <g transform="translate(81.90564 155.858942) scale(0.125 -0.125)">
      <defs>
       <path id="DejaVuSans-63" d="M 3122 3366 
L 3122 2828 
Q 2878 2963 2633 3030 
Q 2388 3097 2138 3097 
Q 1578 3097 1268 2742 
Q 959 2388 959 1747 
Q 959 1106 1268 751 
Q 1578 397 2138 397 
Q 2388 397 2633 464 
Q 2878 531 3122 666 
L 3122 134 
Q 2881 22 2623 -34 
Q 2366 -91 2075 -91 
Q 1284 -91 818 406 
Q 353 903 353 1747 
Q 353 2603 823 3093 
Q 1294 3584 2113 3584 
Q 2378 3584 2631 3529 
Q 2884 3475 3122 3366 
z
" transform="scale(0.015625)"/>
      </defs>
      <use xlink:href="#DejaVuSans-63"/>
     </g>
    </g>
   </g>
   <g id="text_6">
    <g clip-path="url(#p994223d6e1)">
     <!-- b -->
     <g transform="translate(15.193417 131.431138) scale(0.125 -0.125)">
      <use xlink:href="#DejaVuSans-62"/>
     </g>
    </g>
   </g>
  </g>
 </g>
 <defs>
  <clipPath id="p994223d6e1">
   <rect x="7.2" y="7.2" width="315.780256" height="159.12"/>
  </clipPath>
 </defs>
</svg>
