<svg xmlns="http://www.w3.org/2000/svg" xml:lang="en" height="216.39999999999998pt" width="331.83399999999995pt" viewBox="-277.346 -20.0 331.83399999999995 216.39999999999998"><circle cx="-7.451999999999999" cy="80.19" r="3.888" style="stroke:black;fill:none;stroke-width:2;" /><circle cx="-72.252" cy="26.73" r="3.888" style="stroke:black;fill:none;stroke-width:2;" /><circle cx="-151.47" cy="-0.0" r="3.888" style="stroke:black;fill:none;stroke-width:2;" /><circle cx="-72.252" cy="133.65" r="3.888" style="stroke:black;fill:none;stroke-width:2;" /><circle cx="-151.47" cy="106.92" r="3.888" style="stroke:black;fill:none;stroke-width:2;" /><circle cx="-216.26999999999998" cy="178.2" r="3.888" style="stroke:black;fill:none;stroke-width:2;" /><path d="M -27.540000000000003,96.39 L -26.502062436312453,96.35671536255543 L -25.468389980711006,96.25699822393659 L -24.44323021503777,96.09125834325526 L -23.43079574066598,95.86017678123227 L -22.435246868017344,95.56470310157283 L -21.46067452095414,95.20605146900554 L -20.51108342629556,94.78569566001919 L -19.59037565753621,94.30536300679891 L -18.70233460038911,93.76702729924783 L -17.85060940604231,93.17290067426089 L -17.038699996013825,92.52542452557998 L -16.26994268022353,91.82725947158319 L -15.547496447379892,91.08127442223334 L -14.874329984017924,90.29053479011148 L -14.25320947552931,89.45828989397914 L -13.686687239313398,88.5879596066305 L -13.177091236757398,87.68312030190152 L -12.726515507143835,86.74749015858278 L -12.336811562793878,85.78491388162519 L -12.009580780806093,84.79934690342273 L -11.746167822654462,83.79483913009229 L -11.547655108685907,82.77551829954074 L -11.41485837022299,81.74557301970445 L -11.348323297548863,80.70923555666081 L -11.348323297548863,79.67076444333918 L -11.41485837022299,78.63442698029556 L -11.547655108685907,77.60448170045926 L -11.746167822654462,76.58516086990771 L -12.009580780806093,75.58065309657728 L -12.336811562793878,74.59508611837482 L -12.726515507143835,73.63250984141722 L -13.177091236757398,72.69687969809847 L -13.686687239313398,71.79204039336949 L -14.25320947552931,70.92171010602085 L -14.874329984017924,70.08946520988852 L -15.547496447379892,69.29872557776667 L -16.269942680223522,68.55274052841682 L -17.038699996013825,67.85457547442002 L -17.850609406042295,67.20709932573911 L -18.70233460038911,66.61297270075218 L -19.59037565753621,66.0746369932011 L -20.51108342629556,65.59430433998081 L -21.46067452095414,65.17394853099445 L -22.435246868017344,64.81529689842716 L -23.43079574066598,64.51982321876773 L -24.44323021503777,64.28874165674475 L -25.468389980710995,64.12300177606342 L -26.502062436312446,64.02328463744455 L -27.540000000000003,63.99 L -27.540000000000003,63.99 L -48.599999999999994,63.99 L -48.599999999999994,80.19 L -48.599999999999994,96.39 L -27.540000000000003,96.39" style="stroke:black;fill:none;stroke-width:2;stroke-linecap:round;stroke-linejoin:round;" /><path d="M -59.94,88.28999999999999 L -48.599999999999994,88.28999999999999" style="stroke:black;fill:none;stroke-width:2;stroke-linecap:round;stroke-linejoin:round;" /><path d="M -59.94,72.09 L -48.599999999999994,72.09" style="stroke:black;fill:none;stroke-width:2;stroke-linecap:round;stroke-linejoin:round;" /><path d="M -3.564000000000003,80.19 L 0.0,80.19" style="stroke:black;fill:none;stroke-width:2;stroke-linecap:round;stroke-linejoin:round;" /><path d="M -115.02000000000001,42.606 L -98.82000000000001,42.606 L -98.35714285714286,42.59938775510205 L -97.89428571428572,42.57955102040817 L -97.43142857142858,42.546489795918376 L -96.96857142857144,42.50020408163265 L -96.5057142857143,42.44069387755103 L -96.04285714285714,42.36795918367348 L -95.58,42.282000000000004 L -95.11714285714287,42.18281632653062 L -94.65428571428572,42.070408163265306 L -94.19142857142857,41.94477551020408 L -93.72857142857144,41.80591836734694 L -93.2657142857143,41.653836734693876 L -92.80285714285715,41.4885306122449 L -92.34000000000002,41.31 L -91.87714285714287,41.11824489795919 L -91.41428571428571,40.913265306122454 L -90.95142857142858,40.69506122448979 L -90.48857142857143,40.463632653061225 L -90.02571428571429,40.21897959183674 L -89.56285714285715,39.96110204081633 L -89.10000000000001,39.69 L -88.63714285714286,39.40567346938776 L -88.17428571428572,39.10812244897959 L -87.71142857142857,38.79734693877551 L -87.24857142857144,38.473346938775514 L -86.78571428571429,38.13612244897959 L -86.32285714285715,37.78567346938776 L -85.86000000000001,37.422000000000004 L -85.39714285714287,37.045102040816325 L -84.93428571428572,36.65497959183674 L -84.47142857142859,36.25163265306123 L -84.00857142857144,35.8350612244898 L -83.54571428571428,35.40526530612245 L -83.08285714285715,34.96224489795919 L -82.62,34.50600000000001 L -82.15714285714286,34.0365306122449 L -81.69428571428573,33.553836734693874 L -81.23142857142858,33.057918367346936 L -80.76857142857143,32.54877551020408 L -80.30571428571429,32.02640816326531 L -79.84285714285714,31.490816326530616 L -79.38,30.942 L -78.91714285714286,30.379959183673474 L -78.45428571428572,29.80469387755102 L -77.99142857142859,29.216204081632654 L -77.52857142857144,28.61448979591837 L -77.0657142857143,27.999551020408166 L -76.60285714285716,27.37138775510204 L -76.14,26.73 L -76.14,26.73 L -76.60285714285716,26.08861224489796 L -77.0657142857143,25.46044897959184 L -77.52857142857144,24.845510204081634 L -77.99142857142859,24.243795918367347 L -78.45428571428572,23.65530612244898 L -78.91714285714286,23.080040816326527 L -79.38,22.518 L -79.84285714285714,21.969183673469384 L -80.30571428571429,21.433591836734696 L -80.76857142857143,20.911224489795917 L -81.23142857142858,20.40208163265306 L -81.69428571428573,19.90616326530612 L -82.15714285714286,19.4234693877551 L -82.62,18.953999999999997 L -83.08285714285715,18.497755102040816 L -83.54571428571428,18.054734693877553 L -84.00857142857144,17.624938775510206 L -84.47142857142859,17.208367346938775 L -84.93428571428572,16.805020408163262 L -85.39714285714287,16.414897959183673 L -85.86000000000001,16.038 L -86.32285714285715,15.674326530612243 L -86.78571428571429,15.323877551020406 L -87.24857142857144,14.986653061224487 L -87.71142857142857,14.66265306122449 L -88.17428571428572,14.351877551020406 L -88.63714285714286,14.054326530612244 L -89.10000000000001,13.77 L -89.56285714285715,13.498897959183672 L -90.02571428571429,13.241020408163264 L -90.48857142857143,12.996367346938774 L -90.95142857142858,12.764938775510204 L -91.41428571428571,12.54673469387755 L -91.87714285714287,12.341755102040814 L -92.34000000000002,12.149999999999999 L -92.80285714285715,11.971469387755102 L -93.2657142857143,11.806163265306122 L -93.72857142857144,11.65408163265306 L -94.19142857142857,11.515224489795918 L -94.65428571428572,11.389591836734692 L -95.11714285714287,11.277183673469386 L -95.58,11.177999999999999 L -96.04285714285714,11.092040816326529 L -96.5057142857143,11.019306122448977 L -96.96857142857144,10.959795918367345 L -97.43142857142858,10.913510204081632 L -97.89428571428572,10.880448979591835 L -98.35714285714286,10.860612244897958 L -98.82000000000001,10.854 L -115.02000000000001,10.854 L -115.02000000000001,10.854 L -114.39792,11.501999999999999 L -113.80176,12.149999999999999 L -113.23152000000002,12.798 L -112.6872,13.446 L -112.1688,14.094000000000001 L -111.67632000000002,14.741999999999997 L -111.20976,15.389999999999999 L -110.76912,16.038 L -110.35440000000001,16.686 L -109.9656,17.334 L -109.60272,17.982 L -109.26576,18.630000000000003 L -108.95472000000001,19.278 L -108.6696,19.926 L -108.4104,20.573999999999998 L -108.17712000000002,21.222 L -107.96976000000001,21.87 L -107.78832000000001,22.518 L -107.6328,23.166 L -107.5032,23.814000000000004 L -107.39952000000001,24.462000000000003 L -107.32176,25.11 L -107.26992000000001,25.758 L -107.24400000000001,26.406000000000002 L -107.24400000000001,27.054000000000002 L -107.26992000000001,27.702 L -107.32176,28.35 L -107.39952000000001,28.997999999999998 L -107.5032,29.646 L -107.6328,30.294 L -107.78832000000001,30.942 L -107.96976000000001,31.59 L -108.17712000000002,32.238 L -108.4104,32.886 L -108.6696,33.534000000000006 L -108.95472,34.182 L -109.26576,34.830000000000005 L -109.60272,35.478 L -109.9656,36.126000000000005 L -110.35440000000001,36.77400000000001 L -110.76912,37.422000000000004 L -111.20976,38.07000000000001 L -111.67632000000002,38.71800000000001 L -112.1688,39.366 L -112.68720000000002,40.014 L -113.23152000000002,40.662 L -113.80176,41.31 L -114.39792,41.958000000000006 L -115.02000000000001,42.606" style="stroke:black;fill:none;stroke-width:2;stroke-linecap:round;stroke-linejoin:round;" /><path d="M -126.36,34.830000000000005 L -109.26576,34.830000000000005" style="stroke:black;fill:none;stroke-width:2;stroke-linecap:round;stroke-linejoin:round;" /><path d="M -126.36,18.630000000000003 L -109.26576,18.630000000000003" style="stroke:black;fill:none;stroke-width:2;stroke-linecap:round;stroke-linejoin:round;" /><path d="M -68.364,26.73 L -64.8,26.73" style="stroke:black;fill:none;stroke-width:2;stroke-linecap:round;stroke-linejoin:round;" /><path d="M -194.39999999999998,-0.0 L -176.418,-0.0 M -147.582,-0.0 L -129.6,-0.0" style="stroke:black;fill:none;stroke-width:2;stroke-linecap:round;stroke-linejoin:round;" /><path d="M -176.418,-16.2 L -155.358,-0.0 L -176.418,16.2 L -176.418,-16.2" style="stroke:black;fill:none;stroke-width:2;stroke-linecap:round;stroke-linejoin:round;" /><path d="M -126.36,18.630000000000003 L -129.6,18.630000000000003 L -129.6,-0.0" style="stroke:black;fill:none;stroke-width:2;stroke-linecap:round;stroke-linejoin:round;" /><path d="M -157.14,69.66000000000001 L -156.10206243631245,69.62671536255544 L -155.068389980711,69.52699822393659 L -154.04323021503777,69.36125834325526 L -153.03079574066598,69.13017678123228 L -152.0352468680173,68.83470310157283 L -151.06067452095414,68.47605146900554 L -150.11108342629555,68.0556956600192 L -149.1903756575362,67.57536300679892 L -148.30233460038912,67.03702729924781 L -147.4506094060423,66.4429006742609 L -146.63869999601383,65.79542452557997 L -145.86994268022352,65.09725947158319 L -145.1474964473799,64.35127442223333 L -144.4743299840179,63.56053479011148 L -143.85320947552933,62.72828989397915 L -143.28668723931338,61.8579596066305 L -142.77709123675737,60.953120301901535 L -142.32651550714382,60.01749015858279 L -141.93681156279388,59.05491388162518 L -141.60958078080608,58.06934690342273 L -141.34616782265445,57.064839130092295 L -141.1476551086859,56.04551829954075 L -141.01485837022298,55.01557301970445 L -140.94832329754885,53.97923555666082 L -140.94832329754885,52.94076444333919 L -141.01485837022298,51.90442698029556 L -141.1476551086859,50.87448170045926 L -141.34616782265445,49.85516086990771 L -141.60958078080608,48.850653096577275 L -141.93681156279388,47.86508611837482 L -142.32651550714382,46.90250984141722 L -142.77709123675737,45.966879698098474 L -143.28668723931338,45.0620403933695 L -143.85320947552933,44.191710106020864 L -144.4743299840179,43.35946520988852 L -145.1474964473799,42.56872557776667 L -145.86994268022352,41.822740528416816 L -146.63869999601383,41.124575474420034 L -147.4506094060423,40.477099325739104 L -148.30233460038912,39.882972700752184 L -149.1903756575362,39.34463699320109 L -150.11108342629555,38.86430433998081 L -151.06067452095414,38.44394853099445 L -152.0352468680173,38.085296898427174 L -153.03079574066598,37.78982321876772 L -154.04323021503777,37.55874165674474 L -155.068389980711,37.393001776063414 L -156.10206243631245,37.29328463744456 L -157.14,37.260000000000005 L -157.14,37.260000000000005 L -178.2,37.260000000000005 L -178.2,53.46 L -178.2,69.66000000000001 L -157.14,69.66000000000001" style="stroke:black;fill:none;stroke-width:2;stroke-linecap:round;stroke-linejoin:round;" /><path d="M -189.54,61.56 L -178.2,61.56" style="stroke:black;fill:none;stroke-width:2;stroke-linecap:round;stroke-linejoin:round;" /><path d="M -189.54,45.36 L -178.2,45.36" style="stroke:black;fill:none;stroke-width:2;stroke-linecap:round;stroke-linejoin:round;" /><path d="M -140.93999999999997,53.46 L -129.6,53.46" style="stroke:black;fill:none;stroke-width:2;stroke-linecap:round;stroke-linejoin:round;" /><path d="M -126.36,34.830000000000005 L -129.6,34.830000000000005 L -129.6,53.46" style="stroke:black;fill:none;stroke-width:2;stroke-linecap:round;stroke-linejoin:round;" /><path d="M -59.94,72.09 L -64.8,72.09 L -64.8,26.730000000000004" style="stroke:black;fill:none;stroke-width:2;stroke-linecap:round;stroke-linejoin:round;" /><path d="M -115.02000000000001,149.526 L -98.82000000000001,149.526 L -98.35714285714286,149.51938775510206 L -97.89428571428572,149.49955102040815 L -97.43142857142858,149.46648979591833 L -96.96857142857144,149.42020408163265 L -96.5057142857143,149.36069387755103 L -96.04285714285714,149.28795918367345 L -95.58,149.202 L -95.11714285714287,149.10281632653061 L -94.65428571428572,148.9904081632653 L -94.19142857142857,148.86477551020408 L -93.72857142857144,148.72591836734694 L -93.2657142857143,148.57383673469386 L -92.80285714285715,148.4085306122449 L -92.34000000000002,148.23 L -91.87714285714287,148.03824489795917 L -91.41428571428571,147.83326530612246 L -90.95142857142858,147.61506122448978 L -90.48857142857143,147.38363265306123 L -90.02571428571429,147.13897959183674 L -89.56285714285715,146.88110204081633 L -89.10000000000001,146.61 L -88.63714285714286,146.32567346938777 L -88.17428571428572,146.0281224489796 L -87.71142857142857,145.7173469387755 L -87.24857142857144,145.3933469387755 L -86.78571428571429,145.05612244897958 L -86.32285714285715,144.70567346938773 L -85.86000000000001,144.34199999999998 L -85.39714285714287,143.96510204081633 L -84.93428571428572,143.57497959183672 L -84.47142857142859,143.1716326530612 L -84.00857142857144,142.7550612244898 L -83.54571428571428,142.32526530612242 L -83.08285714285715,141.8822448979592 L -82.62,141.426 L -82.15714285714286,140.95653061224488 L -81.69428571428573,140.47383673469386 L -81.23142857142858,139.97791836734692 L -80.76857142857143,139.4687755102041 L -80.30571428571429,138.9464081632653 L -79.84285714285714,138.4108163265306 L -79.38,137.862 L -78.91714285714286,137.29995918367348 L -78.45428571428572,136.724693877551 L -77.99142857142859,136.13620408163266 L -77.52857142857144,135.53448979591835 L -77.0657142857143,134.91955102040816 L -76.60285714285716,134.29138775510202 L -76.14,133.65 L -76.14,133.65 L -76.60285714285716,133.00861224489796 L -77.0657142857143,132.38044897959182 L -77.52857142857144,131.76551020408164 L -77.99142857142859,131.16379591836733 L -78.45428571428572,130.57530612244898 L -78.91714285714286,130.0000408163265 L -79.38,129.438 L -79.84285714285714,128.88918367346938 L -80.30571428571429,128.3535918367347 L -80.76857142857143,127.83122448979591 L -81.23142857142858,127.32208163265307 L -81.69428571428573,126.82616326530612 L -82.15714285714286,126.34346938775509 L -82.62,125.87399999999998 L -83.08285714285715,125.41775510204081 L -83.54571428571428,124.97473469387754 L -84.00857142857144,124.5449387755102 L -84.47142857142859,124.12836734693877 L -84.93428571428572,123.72502040816325 L -85.39714285714287,123.33489795918366 L -85.86000000000001,122.958 L -86.32285714285715,122.59432653061224 L -86.78571428571429,122.2438775510204 L -87.24857142857144,121.90665306122449 L -87.71142857142857,121.58265306122448 L -88.17428571428572,121.2718775510204 L -88.63714285714286,120.97432653061225 L -89.10000000000001,120.69 L -89.56285714285715,120.41889795918367 L -90.02571428571429,120.16102040816325 L -90.48857142857143,119.91636734693877 L -90.95142857142858,119.6849387755102 L -91.41428571428571,119.46673469387754 L -91.87714285714287,119.26175510204081 L -92.34000000000002,119.07 L -92.80285714285715,118.8914693877551 L -93.2657142857143,118.72616326530613 L -93.72857142857144,118.57408163265305 L -94.19142857142857,118.43522448979591 L -94.65428571428572,118.30959183673468 L -95.11714285714287,118.19718367346938 L -95.58,118.098 L -96.04285714285714,118.01204081632652 L -96.5057142857143,117.93930612244897 L -96.96857142857144,117.87979591836734 L -97.43142857142858,117.83351020408162 L -97.89428571428572,117.80044897959182 L -98.35714285714286,117.78061224489795 L -98.82000000000001,117.77399999999999 L -115.02000000000001,117.77399999999999 L -115.02000000000001,117.77399999999999 L -114.39792,118.42199999999998 L -113.80176,119.07 L -113.23152000000002,119.71799999999999 L -112.6872,120.36599999999999 L -112.1688,121.014 L -111.67632000000002,121.66199999999999 L -111.20976,122.30999999999999 L -110.76912,122.958 L -110.35440000000001,123.606 L -109.9656,124.25399999999999 L -109.60272,124.902 L -109.26576,125.55 L -108.95472000000001,126.198 L -108.6696,126.84599999999999 L -108.4104,127.494 L -108.17712000000002,128.142 L -107.96976000000001,128.79 L -107.78832000000001,129.438 L -107.6328,130.08599999999998 L -107.5032,130.734 L -107.39952000000001,131.38199999999998 L -107.32176,132.03 L -107.26992000000001,132.678 L -107.24400000000001,133.326 L -107.24400000000001,133.974 L -107.26992000000001,134.622 L -107.32176,135.26999999999998 L -107.39952000000001,135.918 L -107.5032,136.566 L -107.6328,137.214 L -107.78832000000001,137.862 L -107.96976000000001,138.51000000000002 L -108.17712000000002,139.158 L -108.4104,139.806 L -108.6696,140.45399999999998 L -108.95472,141.102 L -109.26576,141.75 L -109.60272,142.398 L -109.9656,143.046 L -110.35440000000001,143.69400000000002 L -110.76912,144.34199999999998 L -111.20976,144.98999999999998 L -111.67632000000002,145.638 L -112.1688,146.28599999999997 L -112.68720000000002,146.934 L -113.23152000000002,147.582 L -113.80176,148.23 L -114.39792,148.878 L -115.02000000000001,149.526" style="stroke:black;fill:none;stroke-width:2;stroke-linecap:round;stroke-linejoin:round;" /><path d="M -126.36,141.75 L -109.26576,141.75" style="stroke:black;fill:none;stroke-width:2;stroke-linecap:round;stroke-linejoin:round;" /><path d="M -126.36,125.55 L -109.26576,125.55" style="stroke:black;fill:none;stroke-width:2;stroke-linecap:round;stroke-linejoin:round;" /><path d="M -68.364,133.65 L -64.8,133.65" style="stroke:black;fill:none;stroke-width:2;stroke-linecap:round;stroke-linejoin:round;" /><path d="M -194.39999999999998,106.92 L -176.418,106.92 M -147.582,106.92 L -129.6,106.92" style="stroke:black;fill:none;stroke-width:2;stroke-linecap:round;stroke-linejoin:round;" /><path d="M -176.418,90.72 L -155.358,106.92 L -176.418,123.12 L -176.418,90.72" style="stroke:black;fill:none;stroke-width:2;stroke-linecap:round;stroke-linejoin:round;" /><path d="M -126.36,125.55 L -129.6,125.55 L -129.6,106.92" style="stroke:black;fill:none;stroke-width:2;stroke-linecap:round;stroke-linejoin:round;" /><path d="M -157.14,176.57999999999998 L -156.10206243631245,176.54671536255546 L -155.068389980711,176.4469982239366 L -154.04323021503777,176.28125834325527 L -153.03079574066598,176.05017678123227 L -152.0352468680173,175.75470310157283 L -151.06067452095414,175.39605146900556 L -150.11108342629555,174.9756956600192 L -149.1903756575362,174.4953630067989 L -148.30233460038912,173.9570272992478 L -147.4506094060423,173.36290067426089 L -146.63869999601383,172.71542452557998 L -145.86994268022352,172.01725947158317 L -145.1474964473799,171.27127442223335 L -144.4743299840179,170.48053479011148 L -143.85320947552933,169.64828989397915 L -143.28668723931338,168.7779596066305 L -142.77709123675737,167.87312030190154 L -142.32651550714382,166.9374901585828 L -141.93681156279388,165.97491388162518 L -141.60958078080608,164.98934690342273 L -141.34616782265445,163.9848391300923 L -141.1476551086859,162.96551829954075 L -141.01485837022298,161.93557301970444 L -140.94832329754885,160.8992355566608 L -140.94832329754885,159.86076444333918 L -141.01485837022298,158.82442698029556 L -141.1476551086859,157.79448170045927 L -141.34616782265445,156.7751608699077 L -141.60958078080608,155.77065309657726 L -141.93681156279388,154.7850861183748 L -142.32651550714382,153.8225098414172 L -142.77709123675737,152.88687969809848 L -143.28668723931338,151.98204039336952 L -143.85320947552933,151.11171010602084 L -144.4743299840179,150.2794652098885 L -145.1474964473799,149.48872557776667 L -145.86994268022352,148.74274052841682 L -146.63869999601383,148.04457547442004 L -147.4506094060423,147.3970993257391 L -148.30233460038912,146.80297270075218 L -149.1903756575362,146.2646369932011 L -150.11108342629555,145.78430433998082 L -151.06067452095414,145.36394853099446 L -152.0352468680173,145.0052968984272 L -153.03079574066598,144.70982321876772 L -154.04323021503777,144.47874165674472 L -155.068389980711,144.3130017760634 L -156.10206243631245,144.21328463744453 L -157.14,144.18 L -157.14,144.18 L -178.2,144.18 L -178.2,160.38 L -178.2,176.57999999999998 L -157.14,176.57999999999998" style="stroke:black;fill:none;stroke-width:2;stroke-linecap:round;stroke-linejoin:round;" /><path d="M -189.54,168.48 L -178.2,168.48" style="stroke:black;fill:none;stroke-width:2;stroke-linecap:round;stroke-linejoin:round;" /><path d="M -189.54,152.28 L -178.2,152.28" style="stroke:black;fill:none;stroke-width:2;stroke-linecap:round;stroke-linejoin:round;" /><path d="M -140.93999999999997,160.38 L -129.6,160.38" style="stroke:black;fill:none;stroke-width:2;stroke-linecap:round;stroke-linejoin:round;" /><path d="M -259.2,178.2 L -241.218,178.2 M -212.38199999999998,178.2 L -194.39999999999998,178.2" style="stroke:black;fill:none;stroke-width:2;stroke-linecap:round;stroke-linejoin:round;" /><path d="M -241.218,162.0 L -220.158,178.2 L -241.218,194.39999999999998 L -241.218,162.0" style="stroke:black;fill:none;stroke-width:2;stroke-linecap:round;stroke-linejoin:round;" /><path d="M -189.54,168.48 L -194.39999999999998,168.48 L -194.39999999999998,178.2" style="stroke:black;fill:none;stroke-width:2;stroke-linecap:round;stroke-linejoin:round;" /><path d="M -126.36,141.75 L -129.6,141.75 L -129.6,160.38" style="stroke:black;fill:none;stroke-width:2;stroke-linecap:round;stroke-linejoin:round;" /><path d="M -59.94,88.28999999999999 L -64.8,88.28999999999999 L -64.8,133.65" style="stroke:black;fill:none;stroke-width:2;stroke-linecap:round;stroke-linejoin:round;" /><text x="3.240000000000003" y="72.49" fill="black" font-size="14" font-family="sans-serif" text-anchor="start" transform="rotate(0 3.240000000000003 78.09)"><tspan x="3.240000000000003" dy="11.200000000000001">output</tspan></text><text x="-197.64" y="-7.7" fill="black" font-size="14" font-family="sans-serif" text-anchor="end" transform="rotate(0 -197.64 -2.0999999999999996)"><tspan x="-197.64" dy="11.200000000000001">a</tspan></text><text x="-192.78" y="37.66" fill="black" font-size="14" font-family="sans-serif" text-anchor="end" transform="rotate(0 -192.78 43.26)"><tspan x="-192.78" dy="11.200000000000001">b</tspan></text><text x="-192.78" y="53.86" fill="black" font-size="14" font-family="sans-serif" text-anchor="end" transform="rotate(0 -192.78 59.46)"><tspan x="-192.78" dy="11.200000000000001">c</tspan></text><text x="-197.64" y="99.22" fill="black" font-size="14" font-family="sans-serif" text-anchor="end" transform="rotate(0 -197.64 104.82000000000001)"><tspan x="-197.64" dy="11.200000000000001">a</tspan></text><text x="-192.78" y="144.58" fill="black" font-size="14" font-family="sans-serif" text-anchor="end" transform="rotate(0 -192.78 150.18)"><tspan x="-192.78" dy="11.200000000000001">b</tspan></text><text x="-262.44" y="170.5" fill="black" font-size="14" font-family="sans-serif" text-anchor="end" transform="rotate(0 -262.44 176.1)"><tspan x="-262.44" dy="11.200000000000001">c</tspan></text></svg>