<?xml version="1.0" encoding="utf-8" standalone="no"?>
<!DOCTYPE svg PUBLIC "-//W3C//DTD SVG 1.1//EN"
  "http://www.w3.org/Graphics/SVG/1.1/DTD/svg11.dtd">
<svg xmlns:xlink="http://www.w3.org/1999/xlink" width="269.067242pt" height="220.644pt" viewBox="0 0 269.067242 220.644" xmlns="http://www.w3.org/2000/svg" version="1.1">
 <metadata>
  <rdf:RDF xmlns:dc="http://purl.org/dc/elements/1.1/" xmlns:cc="http://creativecommons.org/ns#" xmlns:rdf="http://www.w3.org/1999/02/22-rdf-syntax-ns#">
   <cc:Work>
    <dc:type rdf:resource="http://purl.org/dc/dcmitype/StillImage"/>
    <dc:date>2022-12-17T13:18:06.761016</dc:date>
    <dc:format>image/svg+xml</dc:format>
    <dc:creator>
     <cc:Agent>
      <dc:title>Matplotlib v3.6.0, https://matplotlib.org/</dc:title>
     </cc:Agent>
    </dc:creator>
   </cc:Work>
  </rdf:RDF>
 </metadata>
 <defs>
  <style type="text/css">*{stroke-linejoin: round; stroke-linecap: butt}</style>
 </defs>
 <g id="figure_1">
  <g id="patch_1">
   <path d="M 0 220.644 
L 269.067242 220.644 
L 269.067242 0 
L 0 0 
L 0 220.644 
z
" style="fill: none"/>
  </g>
  <g id="axes_1">
   <g id="patch_2">
    <path d="M 202.33464 114.833588 
C 203.306223 114.833588 204.238144 114.447573 204.925157 113.76056 
C 205.61217 113.073547 205.998185 112.141626 205.998185 111.170043 
C 205.998185 110.198459 205.61217 109.266539 204.925157 108.579525 
C 204.238144 107.892512 203.306223 107.506498 202.33464 107.506498 
C 201.363056 107.506498 200.431136 107.892512 199.744122 108.579525 
C 199.057109 109.266539 198.671095 110.198459 198.671095 111.170043 
C 198.671095 112.141626 199.057109 113.073547 199.744122 113.76056 
C 200.431136 114.447573 201.363056 114.833588 202.33464 114.833588 
L 202.33464 114.833588 
z
" clip-path="url(#pa75dcb6df9)" style="fill: none; stroke: #000000; stroke-width: 2; stroke-linejoin: miter"/>
   </g>
   <g id="patch_3">
    <path d="M 141.275561 64.459847 
C 142.247144 64.459847 143.179065 64.073833 143.866078 63.38682 
C 144.553091 62.699807 144.939106 61.767886 144.939106 60.796303 
C 144.939106 59.824719 144.553091 58.892799 143.866078 58.205785 
C 143.179065 57.518772 142.247144 57.132758 141.275561 57.132758 
C 140.303977 57.132758 139.372057 57.518772 138.685044 58.205785 
C 137.99803 58.892799 137.612016 59.824719 137.612016 60.796303 
C 137.612016 61.767886 137.99803 62.699807 138.685044 63.38682 
C 139.372057 64.073833 140.303977 64.459847 141.275561 64.459847 
L 141.275561 64.459847 
z
" clip-path="url(#pa75dcb6df9)" style="fill: none; stroke: #000000; stroke-width: 2; stroke-linejoin: miter"/>
   </g>
   <g id="patch_4">
    <path d="M 66.630837 30.877354 
C 67.60242 30.877354 68.534341 30.49134 69.221354 29.804327 
C 69.908367 29.117313 70.294382 28.185393 70.294382 27.213809 
C 70.294382 26.242226 69.908367 25.310305 69.221354 24.623292 
C 68.534341 23.936279 67.60242 23.550264 66.630837 23.550264 
C 65.659253 23.550264 64.727333 23.936279 64.04032 24.623292 
C 63.353306 25.310305 62.967292 26.242226 62.967292 27.213809 
C 62.967292 28.185393 63.353306 29.117313 64.04032 29.804327 
C 64.727333 30.49134 65.659253 30.877354 66.630837 30.877354 
L 66.630837 30.877354 
z
" clip-path="url(#pa75dcb6df9)" style="fill: none; stroke: #000000; stroke-width: 2; stroke-linejoin: miter"/>
   </g>
   <g id="patch_5">
    <path d="M 141.275561 165.207328 
C 142.247144 165.207328 143.179065 164.821313 143.866078 164.1343 
C 144.553091 163.447287 144.939106 162.515366 144.939106 161.543783 
C 144.939106 160.572199 144.553091 159.640279 143.866078 158.953266 
C 143.179065 158.266252 142.247144 157.880238 141.275561 157.880238 
C 140.303977 157.880238 139.372057 158.266252 138.685044 158.953266 
C 137.99803 159.640279 137.612016 160.572199 137.612016 161.543783 
C 137.612016 162.515366 137.99803 163.447287 138.685044 164.1343 
C 139.372057 164.821313 140.303977 165.207328 141.275561 165.207328 
L 141.275561 165.207328 
z
" clip-path="url(#pa75dcb6df9)" style="fill: none; stroke: #000000; stroke-width: 2; stroke-linejoin: miter"/>
   </g>
   <g id="patch_6">
    <path d="M 66.630837 131.624834 
C 67.60242 131.624834 68.534341 131.23882 69.221354 130.551807 
C 69.908367 129.864794 70.294382 128.932873 70.294382 127.961289 
C 70.294382 126.989706 69.908367 126.057785 69.221354 125.370772 
C 68.534341 124.683759 67.60242 124.297745 66.630837 124.297745 
C 65.659253 124.297745 64.727333 124.683759 64.04032 125.370772 
C 63.353306 126.057785 62.967292 126.989706 62.967292 127.961289 
C 62.967292 128.932873 63.353306 129.864794 64.04032 130.551807 
C 64.727333 131.23882 65.659253 131.624834 66.630837 131.624834 
L 66.630837 131.624834 
z
" clip-path="url(#pa75dcb6df9)" style="fill: none; stroke: #000000; stroke-width: 2; stroke-linejoin: miter"/>
   </g>
   <g id="patch_7">
    <path d="M 66.630837 198.789821 
C 67.60242 198.789821 68.534341 198.403807 69.221354 197.716794 
C 69.908367 197.02978 70.294382 196.09786 70.294382 195.126276 
C 70.294382 194.154693 69.908367 193.222772 69.221354 192.535759 
C 68.534341 191.848746 67.60242 191.462732 66.630837 191.462732 
C 65.659253 191.462732 64.727333 191.848746 64.04032 192.535759 
C 63.353306 193.222772 62.967292 194.154693 62.967292 195.126276 
C 62.967292 196.09786 63.353306 197.02978 64.04032 197.716794 
C 64.727333 198.403807 65.659253 198.789821 66.630837 198.789821 
L 66.630837 198.789821 
z
" clip-path="url(#pa75dcb6df9)" style="fill: none; stroke: #000000; stroke-width: 2; stroke-linejoin: miter"/>
   </g>
   <g id="line2d_1">
    <path d="M 183.406325 126.434813 
L 184.384342 126.403449 
L 185.358341 126.309489 
L 186.324318 126.153317 
L 187.278304 125.935576 
L 188.21638 125.65716 
L 189.13469 125.319214 
L 190.029461 124.923125 
L 190.897016 124.470522 
L 191.73379 123.963265 
L 192.536345 123.403437 
L 193.301383 122.79334 
L 194.025759 122.13548 
L 194.706498 121.432561 
L 195.340803 120.687471 
L 195.926066 119.903272 
L 196.459883 119.083186 
L 196.94006 118.230583 
L 197.364623 117.348967 
L 197.73183 116.441961 
L 198.040169 115.513291 
L 198.288375 114.566774 
L 198.475428 113.606298 
L 198.600558 112.635812 
L 198.663252 111.659303 
L 198.663252 110.680783 
L 198.600558 109.704273 
L 198.475428 108.733787 
L 198.288375 107.773312 
L 198.040169 106.826795 
L 197.73183 105.898125 
L 197.364623 104.991118 
L 196.94006 104.109502 
L 196.459883 103.2569 
L 195.926066 102.436814 
L 195.340803 101.652615 
L 194.706498 100.907524 
L 194.025759 100.204605 
L 193.301383 99.546746 
L 192.536345 98.936648 
L 191.73379 98.376821 
L 190.897016 97.869563 
L 190.029461 97.41696 
L 189.13469 97.020872 
L 188.21638 96.682925 
L 187.278304 96.404509 
L 186.324318 96.186768 
L 185.358341 96.030597 
L 184.384342 95.936636 
L 183.406325 95.905273 
L 183.406325 95.905273 
L 163.562125 95.905273 
L 163.562125 111.170043 
L 163.562125 126.434813 
L 183.406325 126.434813 
" clip-path="url(#pa75dcb6df9)" style="fill: none; stroke: #000000; stroke-width: 2; stroke-linecap: round"/>
   </g>
   <g id="line2d_2">
    <path d="M 152.876786 118.802428 
L 163.562125 118.802428 
" clip-path="url(#pa75dcb6df9)" style="fill: none; stroke: #000000; stroke-width: 2; stroke-linecap: round"/>
   </g>
   <g id="line2d_3">
    <path d="M 152.876786 103.537658 
L 163.562125 103.537658 
" clip-path="url(#pa75dcb6df9)" style="fill: none; stroke: #000000; stroke-width: 2; stroke-linecap: round"/>
   </g>
   <g id="line2d_4">
    <path d="M 205.998185 111.170043 
L 209.356434 111.170043 
" clip-path="url(#pa75dcb6df9)" style="fill: none; stroke: #000000; stroke-width: 2; stroke-linecap: round"/>
   </g>
   <g id="line2d_5">
    <path d="M 122.347246 76.061072 
L 123.325264 76.029709 
L 124.299262 75.935749 
L 125.265239 75.779577 
L 126.219225 75.561836 
L 127.157301 75.28342 
L 128.075611 74.945473 
L 128.970382 74.549385 
L 129.837937 74.096782 
L 130.674711 73.589525 
L 131.477266 73.029697 
L 132.242304 72.4196 
L 132.96668 71.76174 
L 133.64742 71.058821 
L 134.281724 70.313731 
L 134.866987 69.529532 
L 135.400804 68.709446 
L 135.880981 67.856843 
L 136.305545 66.975227 
L 136.672751 66.068221 
L 136.98109 65.139551 
L 137.229296 64.193033 
L 137.416349 63.232558 
L 137.541479 62.262072 
L 137.604173 61.285563 
L 137.604173 60.307043 
L 137.541479 59.330533 
L 137.416349 58.360047 
L 137.229296 57.399572 
L 136.98109 56.453055 
L 136.672751 55.524385 
L 136.305545 54.617378 
L 135.880981 53.735762 
L 135.400804 52.883159 
L 134.866987 52.063074 
L 134.281724 51.278874 
L 133.64742 50.533784 
L 132.96668 49.830865 
L 132.242304 49.173005 
L 131.477266 48.562908 
L 130.674711 48.003081 
L 129.837937 47.495823 
L 128.970382 47.04322 
L 128.075611 46.647132 
L 127.157301 46.309185 
L 126.219225 46.030769 
L 125.265239 45.813028 
L 124.299262 45.656856 
L 123.325264 45.562896 
L 122.347246 45.531533 
L 122.347246 45.531533 
L 102.503046 45.531533 
L 102.503046 60.796303 
L 102.503046 76.061072 
L 122.347246 76.061072 
" clip-path="url(#pa75dcb6df9)" style="fill: none; stroke: #000000; stroke-width: 2; stroke-linecap: round"/>
   </g>
   <g id="line2d_6">
    <path d="M 91.817707 70.871051 
L 102.503046 70.871051 
" clip-path="url(#pa75dcb6df9)" style="fill: none; stroke: #000000; stroke-width: 2; stroke-linecap: round"/>
   </g>
   <g id="line2d_7">
    <path d="M 91.817707 60.796303 
L 102.503046 60.796303 
" clip-path="url(#pa75dcb6df9)" style="fill: none; stroke: #000000; stroke-width: 2; stroke-linecap: round"/>
   </g>
   <g id="line2d_8">
    <path d="M 91.817707 50.721555 
L 102.503046 50.721555 
" clip-path="url(#pa75dcb6df9)" style="fill: none; stroke: #000000; stroke-width: 2; stroke-linecap: round"/>
   </g>
   <g id="line2d_9">
    <path d="M 144.939106 60.796303 
L 148.297355 60.796303 
" clip-path="url(#pa75dcb6df9)" style="fill: none; stroke: #000000; stroke-width: 2; stroke-linecap: round"/>
   </g>
   <g id="line2d_10">
    <path d="M 26.179197 27.213809 
L 43.123091 27.213809 
M 70.294382 27.213809 
L 87.238276 27.213809 
" clip-path="url(#pa75dcb6df9)" style="fill: none; stroke: #000000; stroke-width: 2; stroke-linecap: round"/>
   </g>
   <g id="line2d_11">
    <path d="M 43.123091 11.949039 
L 62.967292 27.213809 
L 43.123091 42.478579 
L 43.123091 11.949039 
" clip-path="url(#pa75dcb6df9)" style="fill: none; stroke: #000000; stroke-width: 2; stroke-linecap: round"/>
   </g>
   <g id="line2d_12">
    <path d="M 91.817707 50.721555 
L 87.238276 50.721555 
L 87.238276 27.213809 
" clip-path="url(#pa75dcb6df9)" style="fill: none; stroke: #000000; stroke-width: 2; stroke-linecap: round"/>
   </g>
   <g id="line2d_13">
    <path d="M 152.876786 103.537658 
L 148.297355 103.537658 
L 148.297355 60.796303 
" clip-path="url(#pa75dcb6df9)" style="fill: none; stroke: #000000; stroke-width: 2; stroke-linecap: round"/>
   </g>
   <g id="line2d_14">
    <path d="M 122.347246 176.808553 
L 123.325264 176.77719 
L 124.299262 176.683229 
L 125.265239 176.527057 
L 126.219225 176.309316 
L 127.157301 176.0309 
L 128.075611 175.692954 
L 128.970382 175.296865 
L 129.837937 174.844262 
L 130.674711 174.337005 
L 131.477266 173.777177 
L 132.242304 173.16708 
L 132.96668 172.50922 
L 133.64742 171.806301 
L 134.281724 171.061211 
L 134.866987 170.277012 
L 135.400804 169.456926 
L 135.880981 168.604323 
L 136.305545 167.722707 
L 136.672751 166.815701 
L 136.98109 165.887031 
L 137.229296 164.940514 
L 137.416349 163.980039 
L 137.541479 163.009552 
L 137.604173 162.033043 
L 137.604173 161.054523 
L 137.541479 160.078014 
L 137.416349 159.107527 
L 137.229296 158.147052 
L 136.98109 157.200535 
L 136.672751 156.271865 
L 136.305545 155.364858 
L 135.880981 154.483242 
L 135.400804 153.63064 
L 134.866987 152.810554 
L 134.281724 152.026355 
L 133.64742 151.281265 
L 132.96668 150.578345 
L 132.242304 149.920486 
L 131.477266 149.310388 
L 130.674711 148.750561 
L 129.837937 148.243304 
L 128.970382 147.790701 
L 128.075611 147.394612 
L 127.157301 147.056665 
L 126.219225 146.77825 
L 125.265239 146.560508 
L 124.299262 146.404337 
L 123.325264 146.310376 
L 122.347246 146.279013 
L 122.347246 146.279013 
L 102.503046 146.279013 
L 102.503046 161.543783 
L 102.503046 176.808553 
L 122.347246 176.808553 
" clip-path="url(#pa75dcb6df9)" style="fill: none; stroke: #000000; stroke-width: 2; stroke-linecap: round"/>
   </g>
   <g id="line2d_15">
    <path d="M 91.817707 171.618531 
L 102.503046 171.618531 
" clip-path="url(#pa75dcb6df9)" style="fill: none; stroke: #000000; stroke-width: 2; stroke-linecap: round"/>
   </g>
   <g id="line2d_16">
    <path d="M 91.817707 161.543783 
L 102.503046 161.543783 
" clip-path="url(#pa75dcb6df9)" style="fill: none; stroke: #000000; stroke-width: 2; stroke-linecap: round"/>
   </g>
   <g id="line2d_17">
    <path d="M 91.817707 151.469035 
L 102.503046 151.469035 
" clip-path="url(#pa75dcb6df9)" style="fill: none; stroke: #000000; stroke-width: 2; stroke-linecap: round"/>
   </g>
   <g id="line2d_18">
    <path d="M 144.939106 161.543783 
L 148.297355 161.543783 
" clip-path="url(#pa75dcb6df9)" style="fill: none; stroke: #000000; stroke-width: 2; stroke-linecap: round"/>
   </g>
   <g id="line2d_19">
    <path d="M 26.179197 127.961289 
L 43.123091 127.961289 
M 70.294382 127.961289 
L 87.238276 127.961289 
" clip-path="url(#pa75dcb6df9)" style="fill: none; stroke: #000000; stroke-width: 2; stroke-linecap: round"/>
   </g>
   <g id="line2d_20">
    <path d="M 43.123091 112.69652 
L 62.967292 127.961289 
L 43.123091 143.226059 
L 43.123091 112.69652 
" clip-path="url(#pa75dcb6df9)" style="fill: none; stroke: #000000; stroke-width: 2; stroke-linecap: round"/>
   </g>
   <g id="line2d_21">
    <path d="M 91.817707 151.469035 
L 87.238276 151.469035 
L 87.238276 127.961289 
" clip-path="url(#pa75dcb6df9)" style="fill: none; stroke: #000000; stroke-width: 2; stroke-linecap: round"/>
   </g>
   <g id="line2d_22">
    <path d="M 26.179197 195.126276 
L 43.123091 195.126276 
M 70.294382 195.126276 
L 87.238276 195.126276 
" clip-path="url(#pa75dcb6df9)" style="fill: none; stroke: #000000; stroke-width: 2; stroke-linecap: round"/>
   </g>
   <g id="line2d_23">
    <path d="M 43.123091 179.861507 
L 62.967292 195.126276 
L 43.123091 210.391046 
L 43.123091 179.861507 
" clip-path="url(#pa75dcb6df9)" style="fill: none; stroke: #000000; stroke-width: 2; stroke-linecap: round"/>
   </g>
   <g id="line2d_24">
    <path d="M 91.817707 171.618531 
L 87.238276 171.618531 
L 87.238276 195.126276 
" clip-path="url(#pa75dcb6df9)" style="fill: none; stroke: #000000; stroke-width: 2; stroke-linecap: round"/>
   </g>
   <g id="line2d_25">
    <path d="M 152.876786 118.802428 
L 148.297355 118.802428 
L 148.297355 161.543783 
" clip-path="url(#pa75dcb6df9)" style="fill: none; stroke: #000000; stroke-width: 2; stroke-linecap: round"/>
   </g>
   <g id="text_1">
    <g clip-path="url(#pa75dcb6df9)">
     <!-- output -->
     <g transform="translate(212.409388 114.619262) scale(0.125 -0.125)">
      <defs>
       <path id="DejaVuSans-6f" d="M 1959 3097 
Q 1497 3097 1228 2736 
Q 959 2375 959 1747 
Q 959 1119 1226 758 
Q 1494 397 1959 397 
Q 2419 397 2687 759 
Q 2956 1122 2956 1747 
Q 2956 2369 2687 2733 
Q 2419 3097 1959 3097 
z
M 1959 3584 
Q 2709 3584 3137 3096 
Q 3566 2609 3566 1747 
Q 3566 888 3137 398 
Q 2709 -91 1959 -91 
Q 1206 -91 779 398 
Q 353 888 353 1747 
Q 353 2609 779 3096 
Q 1206 3584 1959 3584 
z
" transform="scale(0.015625)"/>
       <path id="DejaVuSans-75" d="M 544 1381 
L 544 3500 
L 1119 3500 
L 1119 1403 
Q 1119 906 1312 657 
Q 1506 409 1894 409 
Q 2359 409 2629 706 
Q 2900 1003 2900 1516 
L 2900 3500 
L 3475 3500 
L 3475 0 
L 2900 0 
L 2900 538 
Q 2691 219 2414 64 
Q 2138 -91 1772 -91 
Q 1169 -91 856 284 
Q 544 659 544 1381 
z
M 1991 3584 
L 1991 3584 
z
" transform="scale(0.015625)"/>
       <path id="DejaVuSans-74" d="M 1172 4494 
L 1172 3500 
L 2356 3500 
L 2356 3053 
L 1172 3053 
L 1172 1153 
Q 1172 725 1289 603 
Q 1406 481 1766 481 
L 2356 481 
L 2356 0 
L 1766 0 
Q 1100 0 847 248 
Q 594 497 594 1153 
L 594 3053 
L 172 3053 
L 172 3500 
L 594 3500 
L 594 4494 
L 1172 4494 
z
" transform="scale(0.015625)"/>
       <path id="DejaVuSans-70" d="M 1159 525 
L 1159 -1331 
L 581 -1331 
L 581 3500 
L 1159 3500 
L 1159 2969 
Q 1341 3281 1617 3432 
Q 1894 3584 2278 3584 
Q 2916 3584 3314 3078 
Q 3713 2572 3713 1747 
Q 3713 922 3314 415 
Q 2916 -91 2278 -91 
Q 1894 -91 1617 61 
Q 1341 213 1159 525 
z
M 3116 1747 
Q 3116 2381 2855 2742 
Q 2594 3103 2138 3103 
Q 1681 3103 1420 2742 
Q 1159 2381 1159 1747 
Q 1159 1113 1420 752 
Q 1681 391 2138 391 
Q 2594 391 2855 752 
Q 3116 1113 3116 1747 
z
" transform="scale(0.015625)"/>
      </defs>
      <use xlink:href="#DejaVuSans-6f"/>
      <use xlink:href="#DejaVuSans-75" x="61.181641"/>
      <use xlink:href="#DejaVuSans-74" x="124.560547"/>
      <use xlink:href="#DejaVuSans-70" x="163.769531"/>
      <use xlink:href="#DejaVuSans-75" x="227.246094"/>
      <use xlink:href="#DejaVuSans-74" x="290.625"/>
     </g>
    </g>
   </g>
   <g id="text_2">
    <g clip-path="url(#pa75dcb6df9)">
     <!-- b -->
     <g transform="translate(80.829206 64.245521) scale(0.125 -0.125)">
      <defs>
       <path id="DejaVuSans-62" d="M 3116 1747 
Q 3116 2381 2855 2742 
Q 2594 3103 2138 3103 
Q 1681 3103 1420 2742 
Q 1159 2381 1159 1747 
Q 1159 1113 1420 752 
Q 1681 391 2138 391 
Q 2594 391 2855 752 
Q 3116 1113 3116 1747 
z
M 1159 2969 
Q 1341 3281 1617 3432 
Q 1894 3584 2278 3584 
Q 2916 3584 3314 3078 
Q 3713 2572 3713 1747 
Q 3713 922 3314 415 
Q 2916 -91 2278 -91 
Q 1894 -91 1617 61 
Q 1341 213 1159 525 
L 1159 0 
L 581 0 
L 581 4863 
L 1159 4863 
L 1159 2969 
z
" transform="scale(0.015625)"/>
      </defs>
      <use xlink:href="#DejaVuSans-62"/>
     </g>
    </g>
   </g>
   <g id="text_3">
    <g clip-path="url(#pa75dcb6df9)">
     <!-- c -->
     <g transform="translate(81.891706 74.320269) scale(0.125 -0.125)">
      <defs>
       <path id="DejaVuSans-63" d="M 3122 3366 
L 3122 2828 
Q 2878 2963 2633 3030 
Q 2388 3097 2138 3097 
Q 1578 3097 1268 2742 
Q 959 2388 959 1747 
Q 959 1106 1268 751 
Q 1578 397 2138 397 
Q 2388 397 2633 464 
Q 2878 531 3122 666 
L 3122 134 
Q 2881 22 2623 -34 
Q 2366 -91 2075 -91 
Q 1284 -91 818 406 
Q 353 903 353 1747 
Q 353 2603 823 3093 
Q 1294 3584 2113 3584 
Q 2378 3584 2631 3529 
Q 2884 3475 3122 3366 
z
" transform="scale(0.015625)"/>
      </defs>
      <use xlink:href="#DejaVuSans-63"/>
     </g>
    </g>
   </g>
   <g id="text_4">
    <g clip-path="url(#pa75dcb6df9)">
     <!-- a -->
     <g transform="translate(15.466087 30.663028) scale(0.125 -0.125)">
      <defs>
       <path id="DejaVuSans-61" d="M 2194 1759 
Q 1497 1759 1228 1600 
Q 959 1441 959 1056 
Q 959 750 1161 570 
Q 1363 391 1709 391 
Q 2188 391 2477 730 
Q 2766 1069 2766 1631 
L 2766 1759 
L 2194 1759 
z
M 3341 1997 
L 3341 0 
L 2766 0 
L 2766 531 
Q 2569 213 2275 61 
Q 1981 -91 1556 -91 
Q 1019 -91 701 211 
Q 384 513 384 1019 
Q 384 1609 779 1909 
Q 1175 2209 1959 2209 
L 2766 2209 
L 2766 2266 
Q 2766 2663 2505 2880 
Q 2244 3097 1772 3097 
Q 1472 3097 1187 3025 
Q 903 2953 641 2809 
L 641 3341 
Q 956 3463 1253 3523 
Q 1550 3584 1831 3584 
Q 2591 3584 2966 3190 
Q 3341 2797 3341 1997 
z
" transform="scale(0.015625)"/>
      </defs>
      <use xlink:href="#DejaVuSans-61"/>
     </g>
    </g>
   </g>
   <g id="text_5">
    <g clip-path="url(#pa75dcb6df9)">
     <!-- b -->
     <g transform="translate(80.829206 164.993002) scale(0.125 -0.125)">
      <use xlink:href="#DejaVuSans-62"/>
     </g>
    </g>
   </g>
   <g id="text_6">
    <g clip-path="url(#pa75dcb6df9)">
     <!-- a -->
     <g transform="translate(15.466087 131.410508) scale(0.125 -0.125)">
      <use xlink:href="#DejaVuSans-61"/>
     </g>
    </g>
   </g>
   <g id="text_7">
    <g clip-path="url(#pa75dcb6df9)">
     <!-- c -->
     <g transform="translate(16.253196 198.575495) scale(0.125 -0.125)">
      <use xlink:href="#DejaVuSans-63"/>
     </g>
    </g>
   </g>
  </g>
 </g>
 <defs>
  <clipPath id="pa75dcb6df9">
   <rect x="7.2" y="7.2" width="254.667242" height="206.244"/>
  </clipPath>
 </defs>
</svg>
