<?xml version="1.0" encoding="utf-8" standalone="no"?>
<!DOCTYPE svg PUBLIC "-//W3C//DTD SVG 1.1//EN"
  "http://www.w3.org/Graphics/SVG/1.1/DTD/svg11.dtd">
<svg xmlns:xlink="http://www.w3.org/1999/xlink" width="350.175339pt" height="156.996pt" viewBox="0 0 350.175339 156.996" xmlns="http://www.w3.org/2000/svg" version="1.1">
 <metadata>
  <rdf:RDF xmlns:dc="http://purl.org/dc/elements/1.1/" xmlns:cc="http://creativecommons.org/ns#" xmlns:rdf="http://www.w3.org/1999/02/22-rdf-syntax-ns#">
   <cc:Work>
    <dc:type rdf:resource="http://purl.org/dc/dcmitype/StillImage"/>
    <dc:date>2022-11-07T10:30:17.075581</dc:date>
    <dc:format>image/svg+xml</dc:format>
    <dc:creator>
     <cc:Agent>
      <dc:title>Matplotlib v3.6.0, https://matplotlib.org/</dc:title>
     </cc:Agent>
    </dc:creator>
   </cc:Work>
  </rdf:RDF>
 </metadata>
 <defs>
  <style type="text/css">*{stroke-linejoin: round; stroke-linecap: butt}</style>
 </defs>
 <g id="figure_1">
  <g id="patch_1">
   <path d="M 0 156.996 
L 350.175339 156.996 
L 350.175339 0 
L 0 0 
L 0 156.996 
z
" style="fill: none"/>
  </g>
  <g id="axes_1">
   <g id="patch_2">
    <path d="M 222.134152 89.817301 
C 223.107746 89.817301 224.041594 89.430488 224.730029 88.742054 
C 225.418464 88.053619 225.805277 87.11977 225.805277 86.146176 
C 225.805277 85.172583 225.418464 84.238734 224.730029 83.550299 
C 224.041594 82.861865 223.107746 82.475052 222.134152 82.475052 
C 221.160558 82.475052 220.22671 82.861865 219.538275 83.550299 
C 218.84984 84.238734 218.463027 85.172583 218.463027 86.146176 
C 218.463027 87.11977 218.84984 88.053619 219.538275 88.742054 
C 220.22671 89.430488 221.160558 89.817301 222.134152 89.817301 
L 222.134152 89.817301 
z
" clip-path="url(#p849e8521b4)" style="fill: none; stroke: #000000; stroke-width: 2; stroke-linejoin: miter"/>
   </g>
   <g id="patch_3">
    <path d="M 160.948741 47.752331 
C 161.922334 47.752331 162.856183 47.365518 163.544618 46.677083 
C 164.233053 45.988649 164.619865 45.0548 164.619865 44.081206 
C 164.619865 43.107613 164.233053 42.173764 163.544618 41.485329 
C 162.856183 40.796894 161.922334 40.410082 160.948741 40.410082 
C 159.975147 40.410082 159.041298 40.796894 158.352864 41.485329 
C 157.664429 42.173764 157.277616 43.107613 157.277616 44.081206 
C 157.277616 45.0548 157.664429 45.988649 158.352864 46.677083 
C 159.041298 47.365518 159.975147 47.752331 160.948741 47.752331 
L 160.948741 47.752331 
z
" clip-path="url(#p849e8521b4)" style="fill: none; stroke: #000000; stroke-width: 2; stroke-linejoin: miter"/>
   </g>
   <g id="patch_4">
    <path d="M 86.149576 30.926343 
C 87.123169 30.926343 88.057018 30.53953 88.745453 29.851095 
C 89.433887 29.162661 89.8207 28.228812 89.8207 27.255218 
C 89.8207 26.281624 89.433887 25.347776 88.745453 24.659341 
C 88.057018 23.970906 87.123169 23.584093 86.149576 23.584093 
C 85.175982 23.584093 84.242133 23.970906 83.553698 24.659341 
C 82.865264 25.347776 82.478451 26.281624 82.478451 27.255218 
C 82.478451 28.228812 82.865264 29.162661 83.553698 29.851095 
C 84.242133 30.53953 85.175982 30.926343 86.149576 30.926343 
L 86.149576 30.926343 
z
" clip-path="url(#p849e8521b4)" style="fill: none; stroke: #000000; stroke-width: 2; stroke-linejoin: miter"/>
   </g>
   <g id="patch_5">
    <path d="M 86.149576 64.578319 
C 87.123169 64.578319 88.057018 64.191506 88.745453 63.503071 
C 89.433887 62.814637 89.8207 61.880788 89.8207 60.907194 
C 89.8207 59.933601 89.433887 58.999752 88.745453 58.311317 
C 88.057018 57.622882 87.123169 57.23607 86.149576 57.23607 
C 85.175982 57.23607 84.242133 57.622882 83.553698 58.311317 
C 82.865264 58.999752 82.478451 59.933601 82.478451 60.907194 
C 82.478451 61.880788 82.865264 62.814637 83.553698 63.503071 
C 84.242133 64.191506 85.175982 64.578319 86.149576 64.578319 
L 86.149576 64.578319 
z
" clip-path="url(#p849e8521b4)" style="fill: none; stroke: #000000; stroke-width: 2; stroke-linejoin: miter"/>
   </g>
   <g id="patch_6">
    <path d="M 160.948741 131.882271 
C 161.922334 131.882271 162.856183 131.495458 163.544618 130.807024 
C 164.233053 130.118589 164.619865 129.18474 164.619865 128.211147 
C 164.619865 127.237553 164.233053 126.303704 163.544618 125.615269 
C 162.856183 124.926835 161.922334 124.540022 160.948741 124.540022 
C 159.975147 124.540022 159.041298 124.926835 158.352864 125.615269 
C 157.664429 126.303704 157.277616 127.237553 157.277616 128.211147 
C 157.277616 129.18474 157.664429 130.118589 158.352864 130.807024 
C 159.041298 131.495458 159.975147 131.882271 160.948741 131.882271 
L 160.948741 131.882271 
z
" clip-path="url(#p849e8521b4)" style="fill: none; stroke: #000000; stroke-width: 2; stroke-linejoin: miter"/>
   </g>
   <g id="line2d_1">
    <path d="M 264.352086 118.268517 
L 265.332126 118.237089 
L 266.30814 118.142934 
L 267.276116 117.98644 
L 268.232076 117.768248 
L 269.172092 117.489256 
L 270.092302 117.15061 
L 270.988924 116.753702 
L 271.858275 116.300163 
L 272.69678 115.791856 
L 273.500995 115.23087 
L 274.267616 114.61951 
L 274.993491 113.96029 
L 275.675639 113.255916 
L 276.311256 112.509284 
L 276.89773 111.723463 
L 277.432651 110.90168 
L 277.913822 110.047313 
L 278.339264 109.163873 
L 278.70723 108.25499 
L 279.016207 107.324399 
L 279.264927 106.375923 
L 279.452367 105.413461 
L 279.577756 104.440967 
L 279.64058 103.462437 
L 279.64058 102.481892 
L 279.577756 101.503362 
L 279.452367 100.530868 
L 279.264927 99.568406 
L 279.016207 98.61993 
L 278.70723 97.689339 
L 278.339264 96.780456 
L 277.913822 95.897016 
L 277.432651 95.042649 
L 276.89773 94.220866 
L 276.311256 93.435045 
L 275.675639 92.688413 
L 274.993491 91.984039 
L 274.267616 91.324818 
L 273.500995 90.713459 
L 272.69678 90.152473 
L 271.858275 89.644166 
L 270.988924 89.190627 
L 270.092302 88.793719 
L 269.172092 88.455073 
L 268.232076 88.176081 
L 267.276116 87.957889 
L 266.30814 87.801395 
L 265.332126 87.70724 
L 264.352086 87.675812 
L 264.352086 87.675812 
L 244.466827 87.675812 
L 244.466827 102.972164 
L 244.466827 118.268517 
L 264.352086 118.268517 
" clip-path="url(#p849e8521b4)" style="fill: none; stroke: #000000; stroke-width: 2; stroke-linecap: round"/>
   </g>
   <g id="line2d_2">
    <path d="M 233.75938 110.620341 
L 244.466827 110.620341 
" clip-path="url(#p849e8521b4)" style="fill: none; stroke: #000000; stroke-width: 2; stroke-linecap: round"/>
   </g>
   <g id="line2d_3">
    <path d="M 233.75938 95.323988 
L 244.466827 95.323988 
" clip-path="url(#p849e8521b4)" style="fill: none; stroke: #000000; stroke-width: 2; stroke-linecap: round"/>
   </g>
   <g id="line2d_4">
    <path d="M 279.648439 102.972164 
L 290.355885 102.972164 
" clip-path="url(#p849e8521b4)" style="fill: none; stroke: #000000; stroke-width: 2; stroke-linecap: round"/>
   </g>
   <g id="line2d_5">
    <path d="M 203.166675 101.442529 
L 204.146715 101.411101 
L 205.122729 101.316946 
L 206.090704 101.160452 
L 207.046665 100.94226 
L 207.986681 100.663268 
L 208.906891 100.324622 
L 209.803513 99.927714 
L 210.672863 99.474175 
L 211.511369 98.965868 
L 212.315584 98.404882 
L 213.082205 97.793522 
L 213.80808 97.134301 
L 214.490228 96.429928 
L 215.125845 95.683296 
L 215.712319 94.897475 
L 216.24724 94.075692 
L 216.72841 93.221325 
L 217.153853 92.337885 
L 217.521819 91.429002 
L 217.830796 90.498411 
L 218.079516 89.549935 
L 218.266955 88.587473 
L 218.392345 87.614978 
L 218.455168 86.636449 
L 218.455168 85.655904 
L 218.392345 84.677374 
L 218.266955 83.70488 
L 218.079516 82.742418 
L 217.830796 81.793942 
L 217.521819 80.863351 
L 217.153853 79.954468 
L 216.72841 79.071028 
L 216.24724 78.216661 
L 215.712319 77.394878 
L 215.125845 76.609056 
L 214.490228 75.862425 
L 213.80808 75.158051 
L 213.082205 74.49883 
L 212.315584 73.887471 
L 211.511369 73.326485 
L 210.672863 72.818178 
L 209.803513 72.364639 
L 208.906891 71.967731 
L 207.986681 71.629085 
L 207.046665 71.350093 
L 206.090704 71.131901 
L 205.122729 70.975406 
L 204.146715 70.881252 
L 203.166675 70.849824 
L 203.166675 70.849824 
L 183.281416 70.849824 
L 183.281416 86.146176 
L 183.281416 101.442529 
L 203.166675 101.442529 
" clip-path="url(#p849e8521b4)" style="fill: none; stroke: #000000; stroke-width: 2; stroke-linecap: round"/>
   </g>
   <g id="line2d_6">
    <path d="M 172.573969 93.794353 
L 183.281416 93.794353 
" clip-path="url(#p849e8521b4)" style="fill: none; stroke: #000000; stroke-width: 2; stroke-linecap: round"/>
   </g>
   <g id="line2d_7">
    <path d="M 172.573969 78.498 
L 183.281416 78.498 
" clip-path="url(#p849e8521b4)" style="fill: none; stroke: #000000; stroke-width: 2; stroke-linecap: round"/>
   </g>
   <g id="line2d_8">
    <path d="M 225.805277 86.146176 
L 229.170474 86.146176 
" clip-path="url(#p849e8521b4)" style="fill: none; stroke: #000000; stroke-width: 2; stroke-linecap: round"/>
   </g>
   <g id="line2d_9">
    <path d="M 141.981263 59.377559 
L 142.961304 59.346131 
L 143.937317 59.251976 
L 144.905293 59.095481 
L 145.861253 58.87729 
L 146.80127 58.598298 
L 147.72148 58.259652 
L 148.618102 57.862744 
L 149.487452 57.409204 
L 150.325958 56.900898 
L 151.130173 56.339912 
L 151.896794 55.728552 
L 152.622669 55.069331 
L 153.304817 54.364958 
L 153.940434 53.618326 
L 154.526907 52.832504 
L 155.061829 52.010722 
L 155.542999 51.156355 
L 155.968441 50.272915 
L 156.336407 49.364032 
L 156.645385 48.433441 
L 156.894105 47.484965 
L 157.081544 46.522502 
L 157.206933 45.550008 
L 157.269757 44.571478 
L 157.269757 43.590934 
L 157.206933 42.612404 
L 157.081544 41.63991 
L 156.894105 40.677447 
L 156.645385 39.728972 
L 156.336407 38.79838 
L 155.968441 37.889497 
L 155.542999 37.006057 
L 155.061829 36.151691 
L 154.526907 35.329908 
L 153.940434 34.544086 
L 153.304817 33.797455 
L 152.622669 33.093081 
L 151.896794 32.43386 
L 151.130173 31.822501 
L 150.325958 31.261515 
L 149.487452 30.753208 
L 148.618102 30.299669 
L 147.72148 29.90276 
L 146.80127 29.564115 
L 145.861253 29.285123 
L 144.905293 29.066931 
L 143.937317 28.910436 
L 142.961304 28.816281 
L 141.981263 28.784853 
L 141.981263 28.784853 
L 122.096005 28.784853 
L 122.096005 44.081206 
L 122.096005 59.377559 
L 141.981263 59.377559 
" clip-path="url(#p849e8521b4)" style="fill: none; stroke: #000000; stroke-width: 2; stroke-linecap: round"/>
   </g>
   <g id="line2d_10">
    <path d="M 111.388558 51.729383 
L 122.096005 51.729383 
" clip-path="url(#p849e8521b4)" style="fill: none; stroke: #000000; stroke-width: 2; stroke-linecap: round"/>
   </g>
   <g id="line2d_11">
    <path d="M 111.388558 36.43303 
L 122.096005 36.43303 
" clip-path="url(#p849e8521b4)" style="fill: none; stroke: #000000; stroke-width: 2; stroke-linecap: round"/>
   </g>
   <g id="line2d_12">
    <path d="M 164.619865 44.081206 
L 167.985063 44.081206 
" clip-path="url(#p849e8521b4)" style="fill: none; stroke: #000000; stroke-width: 2; stroke-linecap: round"/>
   </g>
   <g id="line2d_13">
    <path d="M 45.614241 27.255218 
L 62.593192 27.255218 
M 89.8207 27.255218 
L 106.799652 27.255218 
" clip-path="url(#p849e8521b4)" style="fill: none; stroke: #000000; stroke-width: 2; stroke-linecap: round"/>
   </g>
   <g id="line2d_14">
    <path d="M 62.593192 11.958865 
L 82.478451 27.255218 
L 62.593192 42.551571 
L 62.593192 11.958865 
" clip-path="url(#p849e8521b4)" style="fill: none; stroke: #000000; stroke-width: 2; stroke-linecap: round"/>
   </g>
   <g id="line2d_15">
    <path d="M 111.388558 36.43303 
L 106.799652 36.43303 
L 106.799652 27.255218 
" clip-path="url(#p849e8521b4)" style="fill: none; stroke: #000000; stroke-width: 2; stroke-linecap: round"/>
   </g>
   <g id="line2d_16">
    <path d="M 45.614241 60.907194 
L 62.593192 60.907194 
M 89.8207 60.907194 
L 106.799652 60.907194 
" clip-path="url(#p849e8521b4)" style="fill: none; stroke: #000000; stroke-width: 2; stroke-linecap: round"/>
   </g>
   <g id="line2d_17">
    <path d="M 62.593192 45.610841 
L 82.478451 60.907194 
L 62.593192 76.203547 
L 62.593192 45.610841 
" clip-path="url(#p849e8521b4)" style="fill: none; stroke: #000000; stroke-width: 2; stroke-linecap: round"/>
   </g>
   <g id="line2d_18">
    <path d="M 111.388558 51.729383 
L 106.799652 51.729383 
L 106.799652 60.907194 
" clip-path="url(#p849e8521b4)" style="fill: none; stroke: #000000; stroke-width: 2; stroke-linecap: round"/>
   </g>
   <g id="line2d_19">
    <path d="M 172.573969 78.498 
L 167.985063 78.498 
L 167.985063 44.081206 
" clip-path="url(#p849e8521b4)" style="fill: none; stroke: #000000; stroke-width: 2; stroke-linecap: round"/>
   </g>
   <g id="line2d_20">
    <path d="M 141.981263 143.507499 
L 142.961304 143.476071 
L 143.937317 143.381917 
L 144.905293 143.225422 
L 145.861253 143.00723 
L 146.80127 142.728238 
L 147.72148 142.389592 
L 148.618102 141.992684 
L 149.487452 141.539145 
L 150.325958 141.030838 
L 151.130173 140.469852 
L 151.896794 139.858493 
L 152.622669 139.199272 
L 153.304817 138.494898 
L 153.940434 137.748267 
L 154.526907 136.962445 
L 155.061829 136.140662 
L 155.542999 135.286295 
L 155.968441 134.402855 
L 156.336407 133.493972 
L 156.645385 132.563381 
L 156.894105 131.614905 
L 157.081544 130.652443 
L 157.206933 129.679949 
L 157.269757 128.701419 
L 157.269757 127.720874 
L 157.206933 126.742345 
L 157.081544 125.76985 
L 156.894105 124.807388 
L 156.645385 123.858912 
L 156.336407 122.928321 
L 155.968441 122.019438 
L 155.542999 121.135998 
L 155.061829 120.281631 
L 154.526907 119.459848 
L 153.940434 118.674027 
L 153.304817 117.927395 
L 152.622669 117.223022 
L 151.896794 116.563801 
L 151.130173 115.952441 
L 150.325958 115.391455 
L 149.487452 114.883148 
L 148.618102 114.429609 
L 147.72148 114.032701 
L 146.80127 113.694055 
L 145.861253 113.415063 
L 144.905293 113.196871 
L 143.937317 113.040377 
L 142.961304 112.946222 
L 141.981263 112.914794 
L 141.981263 112.914794 
L 122.096005 112.914794 
L 122.096005 128.211147 
L 122.096005 143.507499 
L 141.981263 143.507499 
" clip-path="url(#p849e8521b4)" style="fill: none; stroke: #000000; stroke-width: 2; stroke-linecap: round"/>
   </g>
   <g id="line2d_21">
    <path d="M 111.388558 135.859323 
L 122.096005 135.859323 
" clip-path="url(#p849e8521b4)" style="fill: none; stroke: #000000; stroke-width: 2; stroke-linecap: round"/>
   </g>
   <g id="line2d_22">
    <path d="M 111.388558 120.56297 
L 122.096005 120.56297 
" clip-path="url(#p849e8521b4)" style="fill: none; stroke: #000000; stroke-width: 2; stroke-linecap: round"/>
   </g>
   <g id="line2d_23">
    <path d="M 164.619865 128.211147 
L 167.985063 128.211147 
" clip-path="url(#p849e8521b4)" style="fill: none; stroke: #000000; stroke-width: 2; stroke-linecap: round"/>
   </g>
   <g id="line2d_24">
    <path d="M 80.795852 126.681511 
L 81.775893 126.650083 
L 82.751906 126.555928 
L 83.719882 126.399434 
L 84.675842 126.181242 
L 85.615859 125.90225 
L 86.536069 125.563604 
L 87.432691 125.166696 
L 88.302041 124.713157 
L 89.140546 124.20485 
L 89.944762 123.643864 
L 90.711382 123.032505 
L 91.437258 122.373284 
L 92.119406 121.66891 
L 92.755022 120.922278 
L 93.341496 120.136457 
L 93.876418 119.314674 
L 94.357588 118.460307 
L 94.78303 117.576867 
L 95.150996 116.667984 
L 95.459974 115.737393 
L 95.708693 114.788917 
L 95.896133 113.826455 
L 96.021522 112.853961 
L 96.084346 111.875431 
L 96.084346 110.894886 
L 96.021522 109.916356 
L 95.896133 108.943862 
L 95.708693 107.9814 
L 95.459974 107.032924 
L 95.150996 106.102333 
L 94.78303 105.19345 
L 94.357588 104.31001 
L 93.876418 103.455643 
L 93.341496 102.63386 
L 92.755022 101.848039 
L 92.119406 101.101407 
L 91.437258 100.397033 
L 90.711382 99.737813 
L 89.944762 99.126453 
L 89.140546 98.565467 
L 88.302041 98.05716 
L 87.432691 97.603621 
L 86.536069 97.206713 
L 85.615859 96.868067 
L 84.675842 96.589075 
L 83.719882 96.370883 
L 82.751906 96.214389 
L 81.775893 96.120234 
L 80.795852 96.088806 
L 80.795852 96.088806 
L 60.910593 96.088806 
L 60.910593 111.385159 
L 60.910593 126.681511 
L 80.795852 126.681511 
" clip-path="url(#p849e8521b4)" style="fill: none; stroke: #000000; stroke-width: 2; stroke-linecap: round"/>
   </g>
   <g id="line2d_25">
    <path d="M 50.203147 119.033335 
L 60.910593 119.033335 
" clip-path="url(#p849e8521b4)" style="fill: none; stroke: #000000; stroke-width: 2; stroke-linecap: round"/>
   </g>
   <g id="line2d_26">
    <path d="M 50.203147 103.736982 
L 60.910593 103.736982 
" clip-path="url(#p849e8521b4)" style="fill: none; stroke: #000000; stroke-width: 2; stroke-linecap: round"/>
   </g>
   <g id="line2d_27">
    <path d="M 96.092205 111.385159 
L 106.799652 111.385159 
" clip-path="url(#p849e8521b4)" style="fill: none; stroke: #000000; stroke-width: 2; stroke-linecap: round"/>
   </g>
   <g id="line2d_28">
    <path d="M 111.388558 120.56297 
L 106.799652 120.56297 
L 106.799652 111.385159 
" clip-path="url(#p849e8521b4)" style="fill: none; stroke: #000000; stroke-width: 2; stroke-linecap: round"/>
   </g>
   <g id="line2d_29">
    <path d="M 172.573969 93.794353 
L 167.985063 93.794353 
L 167.985063 128.211147 
" clip-path="url(#p849e8521b4)" style="fill: none; stroke: #000000; stroke-width: 2; stroke-linecap: round"/>
   </g>
   <g id="line2d_30">
    <path d="M 233.75938 95.323988 
L 229.170474 95.323988 
L 229.170474 86.146176 
" clip-path="url(#p849e8521b4)" style="fill: none; stroke: #000000; stroke-width: 2; stroke-linecap: round"/>
   </g>
   <g id="text_1">
    <g clip-path="url(#p849e8521b4)">
     <!-- output -->
     <g transform="translate(293.415156 106.421383) scale(0.125 -0.125)">
      <defs>
       <path id="DejaVuSans-6f" d="M 1959 3097 
Q 1497 3097 1228 2736 
Q 959 2375 959 1747 
Q 959 1119 1226 758 
Q 1494 397 1959 397 
Q 2419 397 2687 759 
Q 2956 1122 2956 1747 
Q 2956 2369 2687 2733 
Q 2419 3097 1959 3097 
z
M 1959 3584 
Q 2709 3584 3137 3096 
Q 3566 2609 3566 1747 
Q 3566 888 3137 398 
Q 2709 -91 1959 -91 
Q 1206 -91 779 398 
Q 353 888 353 1747 
Q 353 2609 779 3096 
Q 1206 3584 1959 3584 
z
" transform="scale(0.015625)"/>
       <path id="DejaVuSans-75" d="M 544 1381 
L 544 3500 
L 1119 3500 
L 1119 1403 
Q 1119 906 1312 657 
Q 1506 409 1894 409 
Q 2359 409 2629 706 
Q 2900 1003 2900 1516 
L 2900 3500 
L 3475 3500 
L 3475 0 
L 2900 0 
L 2900 538 
Q 2691 219 2414 64 
Q 2138 -91 1772 -91 
Q 1169 -91 856 284 
Q 544 659 544 1381 
z
M 1991 3584 
L 1991 3584 
z
" transform="scale(0.015625)"/>
       <path id="DejaVuSans-74" d="M 1172 4494 
L 1172 3500 
L 2356 3500 
L 2356 3053 
L 1172 3053 
L 1172 1153 
Q 1172 725 1289 603 
Q 1406 481 1766 481 
L 2356 481 
L 2356 0 
L 1766 0 
Q 1100 0 847 248 
Q 594 497 594 1153 
L 594 3053 
L 172 3053 
L 172 3500 
L 594 3500 
L 594 4494 
L 1172 4494 
z
" transform="scale(0.015625)"/>
       <path id="DejaVuSans-70" d="M 1159 525 
L 1159 -1331 
L 581 -1331 
L 581 3500 
L 1159 3500 
L 1159 2969 
Q 1341 3281 1617 3432 
Q 1894 3584 2278 3584 
Q 2916 3584 3314 3078 
Q 3713 2572 3713 1747 
Q 3713 922 3314 415 
Q 2916 -91 2278 -91 
Q 1894 -91 1617 61 
Q 1341 213 1159 525 
z
M 3116 1747 
Q 3116 2381 2855 2742 
Q 2594 3103 2138 3103 
Q 1681 3103 1420 2742 
Q 1159 2381 1159 1747 
Q 1159 1113 1420 752 
Q 1681 391 2138 391 
Q 2594 391 2855 752 
Q 3116 1113 3116 1747 
z
" transform="scale(0.015625)"/>
      </defs>
      <use xlink:href="#DejaVuSans-6f"/>
      <use xlink:href="#DejaVuSans-75" x="61.181641"/>
      <use xlink:href="#DejaVuSans-74" x="124.560547"/>
      <use xlink:href="#DejaVuSans-70" x="163.769531"/>
      <use xlink:href="#DejaVuSans-75" x="227.246094"/>
      <use xlink:href="#DejaVuSans-74" x="290.625"/>
     </g>
    </g>
   </g>
   <g id="text_2">
    <g clip-path="url(#p849e8521b4)">
     <!-- TRUE -->
     <g transform="translate(197.332922 114.06956) scale(0.125 -0.125)">
      <defs>
       <path id="DejaVuSans-54" d="M -19 4666 
L 3928 4666 
L 3928 4134 
L 2272 4134 
L 2272 0 
L 1638 0 
L 1638 4134 
L -19 4134 
L -19 4666 
z
" transform="scale(0.015625)"/>
       <path id="DejaVuSans-52" d="M 2841 2188 
Q 3044 2119 3236 1894 
Q 3428 1669 3622 1275 
L 4263 0 
L 3584 0 
L 2988 1197 
Q 2756 1666 2539 1819 
Q 2322 1972 1947 1972 
L 1259 1972 
L 1259 0 
L 628 0 
L 628 4666 
L 2053 4666 
Q 2853 4666 3247 4331 
Q 3641 3997 3641 3322 
Q 3641 2881 3436 2590 
Q 3231 2300 2841 2188 
z
M 1259 4147 
L 1259 2491 
L 2053 2491 
Q 2509 2491 2742 2702 
Q 2975 2913 2975 3322 
Q 2975 3731 2742 3939 
Q 2509 4147 2053 4147 
L 1259 4147 
z
" transform="scale(0.015625)"/>
       <path id="DejaVuSans-55" d="M 556 4666 
L 1191 4666 
L 1191 1831 
Q 1191 1081 1462 751 
Q 1734 422 2344 422 
Q 2950 422 3222 751 
Q 3494 1081 3494 1831 
L 3494 4666 
L 4128 4666 
L 4128 1753 
Q 4128 841 3676 375 
Q 3225 -91 2344 -91 
Q 1459 -91 1007 375 
Q 556 841 556 1753 
L 556 4666 
z
" transform="scale(0.015625)"/>
       <path id="DejaVuSans-45" d="M 628 4666 
L 3578 4666 
L 3578 4134 
L 1259 4134 
L 1259 2753 
L 3481 2753 
L 3481 2222 
L 1259 2222 
L 1259 531 
L 3634 531 
L 3634 0 
L 628 0 
L 628 4666 
z
" transform="scale(0.015625)"/>
      </defs>
      <use xlink:href="#DejaVuSans-54"/>
      <use xlink:href="#DejaVuSans-52" x="61.083984"/>
      <use xlink:href="#DejaVuSans-55" x="130.566406"/>
      <use xlink:href="#DejaVuSans-45" x="203.759766"/>
     </g>
    </g>
   </g>
   <g id="text_3">
    <g clip-path="url(#p849e8521b4)">
     <!-- a -->
     <g transform="translate(34.894814 30.704437) scale(0.125 -0.125)">
      <defs>
       <path id="DejaVuSans-61" d="M 2194 1759 
Q 1497 1759 1228 1600 
Q 959 1441 959 1056 
Q 959 750 1161 570 
Q 1363 391 1709 391 
Q 2188 391 2477 730 
Q 2766 1069 2766 1631 
L 2766 1759 
L 2194 1759 
z
M 3341 1997 
L 3341 0 
L 2766 0 
L 2766 531 
Q 2569 213 2275 61 
Q 1981 -91 1556 -91 
Q 1019 -91 701 211 
Q 384 513 384 1019 
Q 384 1609 779 1909 
Q 1175 2209 1959 2209 
L 2766 2209 
L 2766 2266 
Q 2766 2663 2505 2880 
Q 2244 3097 1772 3097 
Q 1472 3097 1187 3025 
Q 903 2953 641 2809 
L 641 3341 
Q 956 3463 1253 3523 
Q 1550 3584 1831 3584 
Q 2591 3584 2966 3190 
Q 3341 2797 3341 1997 
z
" transform="scale(0.015625)"/>
      </defs>
      <use xlink:href="#DejaVuSans-61"/>
     </g>
    </g>
   </g>
   <g id="text_4">
    <g clip-path="url(#p849e8521b4)">
     <!-- b -->
     <g transform="translate(34.619423 64.356413) scale(0.125 -0.125)">
      <defs>
       <path id="DejaVuSans-62" d="M 3116 1747 
Q 3116 2381 2855 2742 
Q 2594 3103 2138 3103 
Q 1681 3103 1420 2742 
Q 1159 2381 1159 1747 
Q 1159 1113 1420 752 
Q 1681 391 2138 391 
Q 2594 391 2855 752 
Q 3116 1113 3116 1747 
z
M 1159 2969 
Q 1341 3281 1617 3432 
Q 1894 3584 2278 3584 
Q 2916 3584 3314 3078 
Q 3713 2572 3713 1747 
Q 3713 922 3314 415 
Q 2916 -91 2278 -91 
Q 1894 -91 1617 61 
Q 1341 213 1159 525 
L 1159 0 
L 581 0 
L 581 4863 
L 1159 4863 
L 1159 2969 
z
" transform="scale(0.015625)"/>
      </defs>
      <use xlink:href="#DejaVuSans-62"/>
     </g>
    </g>
   </g>
   <g id="text_5">
    <g clip-path="url(#p849e8521b4)">
     <!-- FALSE -->
     <g transform="translate(70.93085 139.308542) scale(0.125 -0.125)">
      <defs>
       <path id="DejaVuSans-46" d="M 628 4666 
L 3309 4666 
L 3309 4134 
L 1259 4134 
L 1259 2759 
L 3109 2759 
L 3109 2228 
L 1259 2228 
L 1259 0 
L 628 0 
L 628 4666 
z
" transform="scale(0.015625)"/>
       <path id="DejaVuSans-41" d="M 2188 4044 
L 1331 1722 
L 3047 1722 
L 2188 4044 
z
M 1831 4666 
L 2547 4666 
L 4325 0 
L 3669 0 
L 3244 1197 
L 1141 1197 
L 716 0 
L 50 0 
L 1831 4666 
z
" transform="scale(0.015625)"/>
       <path id="DejaVuSans-4c" d="M 628 4666 
L 1259 4666 
L 1259 531 
L 3531 531 
L 3531 0 
L 628 0 
L 628 4666 
z
" transform="scale(0.015625)"/>
       <path id="DejaVuSans-53" d="M 3425 4513 
L 3425 3897 
Q 3066 4069 2747 4153 
Q 2428 4238 2131 4238 
Q 1616 4238 1336 4038 
Q 1056 3838 1056 3469 
Q 1056 3159 1242 3001 
Q 1428 2844 1947 2747 
L 2328 2669 
Q 3034 2534 3370 2195 
Q 3706 1856 3706 1288 
Q 3706 609 3251 259 
Q 2797 -91 1919 -91 
Q 1588 -91 1214 -16 
Q 841 59 441 206 
L 441 856 
Q 825 641 1194 531 
Q 1563 422 1919 422 
Q 2459 422 2753 634 
Q 3047 847 3047 1241 
Q 3047 1584 2836 1778 
Q 2625 1972 2144 2069 
L 1759 2144 
Q 1053 2284 737 2584 
Q 422 2884 422 3419 
Q 422 4038 858 4394 
Q 1294 4750 2059 4750 
Q 2388 4750 2728 4690 
Q 3069 4631 3425 4513 
z
" transform="scale(0.015625)"/>
      </defs>
      <use xlink:href="#DejaVuSans-46"/>
      <use xlink:href="#DejaVuSans-41" x="48.394531"/>
      <use xlink:href="#DejaVuSans-4c" x="116.802734"/>
      <use xlink:href="#DejaVuSans-53" x="172.515625"/>
      <use xlink:href="#DejaVuSans-45" x="235.992188"/>
     </g>
    </g>
   </g>
   <g id="text_6">
    <g clip-path="url(#p849e8521b4)">
     <!-- c -->
     <g transform="translate(40.270829 107.186201) scale(0.125 -0.125)">
      <defs>
       <path id="DejaVuSans-63" d="M 3122 3366 
L 3122 2828 
Q 2878 2963 2633 3030 
Q 2388 3097 2138 3097 
Q 1578 3097 1268 2742 
Q 959 2388 959 1747 
Q 959 1106 1268 751 
Q 1578 397 2138 397 
Q 2388 397 2633 464 
Q 2878 531 3122 666 
L 3122 134 
Q 2881 22 2623 -34 
Q 2366 -91 2075 -91 
Q 1284 -91 818 406 
Q 353 903 353 1747 
Q 353 2603 823 3093 
Q 1294 3584 2113 3584 
Q 2378 3584 2631 3529 
Q 2884 3475 3122 3366 
z
" transform="scale(0.015625)"/>
      </defs>
      <use xlink:href="#DejaVuSans-63"/>
     </g>
    </g>
   </g>
   <g id="text_7">
    <g clip-path="url(#p849e8521b4)">
     <!-- TRUE -->
     <g transform="translate(13.776688 122.482554) scale(0.125 -0.125)">
      <use xlink:href="#DejaVuSans-54"/>
      <use xlink:href="#DejaVuSans-52" x="61.083984"/>
      <use xlink:href="#DejaVuSans-55" x="130.566406"/>
      <use xlink:href="#DejaVuSans-45" x="203.759766"/>
     </g>
    </g>
   </g>
  </g>
 </g>
 <defs>
  <clipPath id="p849e8521b4">
   <rect x="7.2" y="7.2" width="335.775339" height="142.596"/>
  </clipPath>
 </defs>
</svg>
