<?xml version="1.0" encoding="utf-8" standalone="no"?>
<!DOCTYPE svg PUBLIC "-//W3C//DTD SVG 1.1//EN"
  "http://www.w3.org/Graphics/SVG/1.1/DTD/svg11.dtd">
<svg xmlns:xlink="http://www.w3.org/1999/xlink" width="330.365456pt" height="321.624pt" viewBox="0 0 330.365456 321.624" xmlns="http://www.w3.org/2000/svg" version="1.1">
 <metadata>
  <rdf:RDF xmlns:dc="http://purl.org/dc/elements/1.1/" xmlns:cc="http://creativecommons.org/ns#" xmlns:rdf="http://www.w3.org/1999/02/22-rdf-syntax-ns#">
   <cc:Work>
    <dc:type rdf:resource="http://purl.org/dc/dcmitype/StillImage"/>
    <dc:date>2022-12-21T12:37:33.305333</dc:date>
    <dc:format>image/svg+xml</dc:format>
    <dc:creator>
     <cc:Agent>
      <dc:title>Matplotlib v3.6.2, https://matplotlib.org/</dc:title>
     </cc:Agent>
    </dc:creator>
   </cc:Work>
  </rdf:RDF>
 </metadata>
 <defs>
  <style type="text/css">*{stroke-linejoin: round; stroke-linecap: butt}</style>
 </defs>
 <g id="figure_1">
  <g id="patch_1">
   <path d="M 0 321.624 
L 330.365456 321.624 
L 330.365456 0 
L 0 0 
L 0 321.624 
z
" style="fill: none"/>
  </g>
  <g id="axes_1">
   <g id="patch_2">
    <path d="M 263.587764 169.527996 
C 264.560083 169.527996 265.492709 169.141689 266.180243 168.454156 
C 266.867777 167.766622 267.254083 166.833996 267.254083 165.861676 
C 267.254083 164.889357 266.867777 163.95673 266.180243 163.269197 
C 265.492709 162.581663 264.560083 162.195357 263.587764 162.195357 
C 262.615444 162.195357 261.682818 162.581663 260.995284 163.269197 
C 260.307751 163.95673 259.921444 164.889357 259.921444 165.861676 
C 259.921444 166.833996 260.307751 167.766622 260.995284 168.454156 
C 261.682818 169.141689 262.615444 169.527996 263.587764 169.527996 
L 263.587764 169.527996 
z
" clip-path="url(#p16a33d4d0d)" style="fill: none; stroke: #000000; stroke-width: 2; stroke-linejoin: miter"/>
   </g>
   <g id="patch_3">
    <path d="M 202.482438 98.111146 
C 203.454757 98.111146 204.387383 97.72484 205.074917 97.037306 
C 205.762451 96.349772 206.148757 95.417146 206.148757 94.444827 
C 206.148757 93.472507 205.762451 92.539881 205.074917 91.852347 
C 204.387383 91.164814 203.454757 90.778507 202.482438 90.778507 
C 201.510118 90.778507 200.577492 91.164814 199.889958 91.852347 
C 199.202425 92.539881 198.816118 93.472507 198.816118 94.444827 
C 198.816118 95.417146 199.202425 96.349772 199.889958 97.037306 
C 200.577492 97.72484 201.510118 98.111146 202.482438 98.111146 
L 202.482438 98.111146 
z
" clip-path="url(#p16a33d4d0d)" style="fill: none; stroke: #000000; stroke-width: 2; stroke-linejoin: miter"/>
   </g>
   <g id="patch_4">
    <path d="M 66.675851 30.895288 
C 67.64817 30.895288 68.580796 30.508981 69.26833 29.821447 
C 69.955864 29.133914 70.34217 28.201287 70.34217 27.228968 
C 70.34217 26.256649 69.955864 25.324022 69.26833 24.636489 
C 68.580796 23.948955 67.64817 23.562648 66.675851 23.562648 
C 65.703531 23.562648 64.770905 23.948955 64.083371 24.636489 
C 63.395838 25.324022 63.009531 26.256649 63.009531 27.228968 
C 63.009531 28.201287 63.395838 29.133914 64.083371 29.821447 
C 64.770905 30.508981 65.703531 30.895288 66.675851 30.895288 
L 66.675851 30.895288 
z
" clip-path="url(#p16a33d4d0d)" style="fill: none; stroke: #000000; stroke-width: 2; stroke-linejoin: miter"/>
   </g>
   <g id="patch_5">
    <path d="M 66.675851 131.719075 
C 67.64817 131.719075 68.580796 131.332769 69.26833 130.645235 
C 69.955864 129.957702 70.34217 129.025075 70.34217 128.052756 
C 70.34217 127.080436 69.955864 126.14781 69.26833 125.460276 
C 68.580796 124.772743 67.64817 124.386436 66.675851 124.386436 
C 65.703531 124.386436 64.770905 124.772743 64.083371 125.460276 
C 63.395838 126.14781 63.009531 127.080436 63.009531 128.052756 
C 63.009531 129.025075 63.395838 129.957702 64.083371 130.645235 
C 64.770905 131.332769 65.703531 131.719075 66.675851 131.719075 
L 66.675851 131.719075 
z
" clip-path="url(#p16a33d4d0d)" style="fill: none; stroke: #000000; stroke-width: 2; stroke-linejoin: miter"/>
   </g>
   <g id="patch_6">
    <path d="M 202.482438 240.944846 
C 203.454757 240.944846 204.387383 240.558539 205.074917 239.871005 
C 205.762451 239.183472 206.148757 238.250845 206.148757 237.278526 
C 206.148757 236.306207 205.762451 235.37358 205.074917 234.686047 
C 204.387383 233.998513 203.454757 233.612206 202.482438 233.612206 
C 201.510118 233.612206 200.577492 233.998513 199.889958 234.686047 
C 199.202425 235.37358 198.816118 236.306207 198.816118 237.278526 
C 198.816118 238.250845 199.202425 239.183472 199.889958 239.871005 
C 200.577492 240.558539 201.510118 240.944846 202.482438 240.944846 
L 202.482438 240.944846 
z
" clip-path="url(#p16a33d4d0d)" style="fill: none; stroke: #000000; stroke-width: 2; stroke-linejoin: miter"/>
   </g>
   <g id="patch_7">
    <path d="M 66.675851 165.327005 
C 67.64817 165.327005 68.580796 164.940698 69.26833 164.253165 
C 69.955864 163.565631 70.34217 162.633004 70.34217 161.660685 
C 70.34217 160.688366 69.955864 159.755739 69.26833 159.068206 
C 68.580796 158.380672 67.64817 157.994366 66.675851 157.994366 
C 65.703531 157.994366 64.770905 158.380672 64.083371 159.068206 
C 63.395838 159.755739 63.009531 160.688366 63.009531 161.660685 
C 63.009531 162.633004 63.395838 163.565631 64.083371 164.253165 
C 64.770905 164.940698 65.703531 165.327005 66.675851 165.327005 
L 66.675851 165.327005 
z
" clip-path="url(#p16a33d4d0d)" style="fill: none; stroke: #000000; stroke-width: 2; stroke-linejoin: miter"/>
   </g>
   <g id="patch_8">
    <path d="M 66.675851 266.150792 
C 67.64817 266.150792 68.580796 265.764486 69.26833 265.076952 
C 69.955864 264.389419 70.34217 263.456792 70.34217 262.484473 
C 70.34217 261.512154 69.955864 260.579527 69.26833 259.891994 
C 68.580796 259.20446 67.64817 258.818153 66.675851 258.818153 
C 65.703531 258.818153 64.770905 259.20446 64.083371 259.891994 
C 63.395838 260.579527 63.009531 261.512154 63.009531 262.484473 
C 63.009531 263.456792 63.395838 264.389419 64.083371 265.076952 
C 64.770905 265.764486 65.703531 266.150792 66.675851 266.150792 
L 66.675851 266.150792 
z
" clip-path="url(#p16a33d4d0d)" style="fill: none; stroke: #000000; stroke-width: 2; stroke-linejoin: miter"/>
   </g>
   <g id="patch_9">
    <path d="M 127.781177 299.758722 
C 128.753496 299.758722 129.686122 299.372415 130.373656 298.684882 
C 131.06119 297.997348 131.447496 297.064722 131.447496 296.092402 
C 131.447496 295.120083 131.06119 294.187456 130.373656 293.499923 
C 129.686122 292.812389 128.753496 292.426083 127.781177 292.426083 
C 126.808857 292.426083 125.876231 292.812389 125.188697 293.499923 
C 124.501164 294.187456 124.114857 295.120083 124.114857 296.092402 
C 124.114857 297.064722 124.501164 297.997348 125.188697 298.684882 
C 125.876231 299.372415 126.808857 299.758722 127.781177 299.758722 
L 127.781177 299.758722 
z
" clip-path="url(#p16a33d4d0d)" style="fill: none; stroke: #000000; stroke-width: 2; stroke-linejoin: miter"/>
   </g>
   <g id="line2d_1">
    <path d="M 244.645112 181.138008 
L 245.62387 181.106621 
L 246.598606 181.012589 
L 247.565315 180.856299 
L 248.520024 180.638393 
L 249.45881 180.359766 
L 250.377816 180.021564 
L 251.273264 179.625175 
L 252.141476 179.17223 
L 252.978884 178.664588 
L 253.782047 178.104336 
L 254.547664 177.493777 
L 255.27259 176.835419 
L 255.953845 176.131968 
L 256.588629 175.386313 
L 257.174336 174.60152 
L 257.708557 173.780813 
L 258.189097 172.927564 
L 258.613983 172.045281 
L 258.981467 171.137587 
L 259.29004 170.208214 
L 259.538434 169.26098 
L 259.725629 168.299777 
L 259.850854 167.328556 
L 259.913595 166.351307 
L 259.913595 165.372046 
L 259.850854 164.394797 
L 259.725629 163.423575 
L 259.538434 162.462373 
L 259.29004 161.515139 
L 258.981467 160.585765 
L 258.613983 159.678072 
L 258.189097 158.795788 
L 257.708557 157.94254 
L 257.174336 157.121832 
L 256.588629 156.337039 
L 255.953845 155.591385 
L 255.27259 154.887933 
L 254.547664 154.229575 
L 253.782047 153.619016 
L 252.978884 153.058765 
L 252.141476 152.551123 
L 251.273264 152.098177 
L 250.377816 151.701789 
L 249.45881 151.363586 
L 248.520024 151.084959 
L 247.565315 150.867053 
L 246.598606 150.710763 
L 245.62387 150.616732 
L 244.645112 150.585345 
L 244.645112 150.585345 
L 224.785882 150.585345 
L 224.785882 165.861676 
L 224.785882 181.138008 
L 244.645112 181.138008 
" clip-path="url(#p16a33d4d0d)" style="fill: none; stroke: #000000; stroke-width: 2; stroke-linecap: round"/>
   </g>
   <g id="line2d_2">
    <path d="M 214.09245 173.499842 
L 224.785882 173.499842 
" clip-path="url(#p16a33d4d0d)" style="fill: none; stroke: #000000; stroke-width: 2; stroke-linecap: round"/>
   </g>
   <g id="line2d_3">
    <path d="M 214.09245 158.22351 
L 224.785882 158.22351 
" clip-path="url(#p16a33d4d0d)" style="fill: none; stroke: #000000; stroke-width: 2; stroke-linecap: round"/>
   </g>
   <g id="line2d_4">
    <path d="M 267.254083 165.861676 
L 270.614876 165.861676 
" clip-path="url(#p16a33d4d0d)" style="fill: none; stroke: #000000; stroke-width: 2; stroke-linecap: round"/>
   </g>
   <g id="line2d_5">
    <path d="M 183.539787 109.721158 
L 184.518544 109.689771 
L 185.49328 109.59574 
L 186.459989 109.43945 
L 187.414698 109.221543 
L 188.353484 108.942917 
L 189.27249 108.604714 
L 190.167938 108.208326 
L 191.036151 107.75538 
L 191.873559 107.247738 
L 192.676721 106.687487 
L 193.442338 106.076927 
L 194.167264 105.418569 
L 194.848519 104.715118 
L 195.483303 103.969463 
L 196.06901 103.18467 
L 196.603231 102.363963 
L 197.083771 101.510715 
L 197.508657 100.628431 
L 197.876141 99.720738 
L 198.184714 98.791364 
L 198.433108 97.84413 
L 198.620303 96.882927 
L 198.745528 95.911706 
L 198.808269 94.934457 
L 198.808269 93.955196 
L 198.745528 92.977947 
L 198.620303 92.006726 
L 198.433108 91.045523 
L 198.184714 90.098289 
L 197.876141 89.168915 
L 197.508657 88.261222 
L 197.083771 87.378938 
L 196.603231 86.52569 
L 196.06901 85.704983 
L 195.483303 84.92019 
L 194.848519 84.174535 
L 194.167264 83.471084 
L 193.442338 82.812726 
L 192.676721 82.202166 
L 191.873559 81.641915 
L 191.036151 81.134273 
L 190.167938 80.681327 
L 189.27249 80.284939 
L 188.353484 79.946736 
L 187.414698 79.66811 
L 186.459989 79.450203 
L 185.49328 79.293913 
L 184.518544 79.199882 
L 183.539787 79.168495 
L 183.539787 79.168495 
L 163.680556 79.168495 
L 163.680556 94.444827 
L 163.680556 109.721158 
L 183.539787 109.721158 
" clip-path="url(#p16a33d4d0d)" style="fill: none; stroke: #000000; stroke-width: 2; stroke-linecap: round"/>
   </g>
   <g id="line2d_6">
    <path d="M 152.987124 104.527205 
L 163.680556 104.527205 
" clip-path="url(#p16a33d4d0d)" style="fill: none; stroke: #000000; stroke-width: 2; stroke-linecap: round"/>
   </g>
   <g id="line2d_7">
    <path d="M 152.987124 94.444827 
L 163.680556 94.444827 
" clip-path="url(#p16a33d4d0d)" style="fill: none; stroke: #000000; stroke-width: 2; stroke-linecap: round"/>
   </g>
   <g id="line2d_8">
    <path d="M 152.987124 84.362448 
L 163.680556 84.362448 
" clip-path="url(#p16a33d4d0d)" style="fill: none; stroke: #000000; stroke-width: 2; stroke-linecap: round"/>
   </g>
   <g id="line2d_9">
    <path d="M 206.148757 94.444827 
L 209.50955 94.444827 
" clip-path="url(#p16a33d4d0d)" style="fill: none; stroke: #000000; stroke-width: 2; stroke-linecap: round"/>
   </g>
   <g id="line2d_10">
    <path d="M 122.434461 59.309264 
L 123.413218 59.277877 
L 124.387954 59.183846 
L 125.354663 59.027556 
L 126.309372 58.80965 
L 127.248158 58.531023 
L 128.167164 58.19282 
L 129.062612 57.796432 
L 129.930825 57.343486 
L 130.768233 56.835844 
L 131.571395 56.275593 
L 132.337012 55.665033 
L 133.061938 55.006675 
L 133.743193 54.303224 
L 134.377977 53.557569 
L 134.963684 52.772776 
L 135.497905 51.952069 
L 135.978445 51.098821 
L 136.403331 50.216537 
L 136.770815 49.308844 
L 137.079388 48.37947 
L 137.327783 47.432236 
L 137.514977 46.471033 
L 137.640202 45.499812 
L 137.702943 44.522563 
L 137.702943 43.543302 
L 137.640202 42.566053 
L 137.514977 41.594832 
L 137.327783 40.633629 
L 137.079388 39.686395 
L 136.770815 38.757022 
L 136.403331 37.849328 
L 135.978445 36.967044 
L 135.497905 36.113796 
L 134.963684 35.293089 
L 134.377977 34.508296 
L 133.743193 33.762641 
L 133.061938 33.05919 
L 132.337012 32.400832 
L 131.571395 31.790272 
L 130.768233 31.230021 
L 129.930825 30.722379 
L 129.062612 30.269434 
L 128.167164 29.873045 
L 127.248158 29.534842 
L 126.309372 29.256216 
L 125.354663 29.03831 
L 124.387954 28.88202 
L 123.413218 28.787988 
L 122.434461 28.756601 
L 122.434461 28.756601 
L 102.57523 28.756601 
L 102.57523 44.032933 
L 102.57523 59.309264 
L 122.434461 59.309264 
" clip-path="url(#p16a33d4d0d)" style="fill: none; stroke: #000000; stroke-width: 2; stroke-linecap: round"/>
   </g>
   <g id="line2d_11">
    <path d="M 91.881798 51.671098 
L 102.57523 51.671098 
" clip-path="url(#p16a33d4d0d)" style="fill: none; stroke: #000000; stroke-width: 2; stroke-linecap: round"/>
   </g>
   <g id="line2d_12">
    <path d="M 91.881798 36.394767 
L 102.57523 36.394767 
" clip-path="url(#p16a33d4d0d)" style="fill: none; stroke: #000000; stroke-width: 2; stroke-linecap: round"/>
   </g>
   <g id="line2d_13">
    <path d="M 137.710792 44.032933 
L 148.404224 44.032933 
" clip-path="url(#p16a33d4d0d)" style="fill: none; stroke: #000000; stroke-width: 2; stroke-linecap: round"/>
   </g>
   <g id="line2d_14">
    <path d="M 26.193572 27.228968 
L 43.1503 27.228968 
M 70.34217 27.228968 
L 87.298898 27.228968 
" clip-path="url(#p16a33d4d0d)" style="fill: none; stroke: #000000; stroke-width: 2; stroke-linecap: round"/>
   </g>
   <g id="line2d_15">
    <path d="M 43.1503 11.952636 
L 63.009531 27.228968 
L 43.1503 42.505299 
L 43.1503 11.952636 
" clip-path="url(#p16a33d4d0d)" style="fill: none; stroke: #000000; stroke-width: 2; stroke-linecap: round"/>
   </g>
   <g id="line2d_16">
    <path d="M 91.881798 36.394767 
L 87.298898 36.394767 
L 87.298898 27.228968 
" clip-path="url(#p16a33d4d0d)" style="fill: none; stroke: #000000; stroke-width: 2; stroke-linecap: round"/>
   </g>
   <g id="line2d_17">
    <path d="M 152.987124 84.362448 
L 148.404224 84.362448 
L 148.404224 44.032933 
" clip-path="url(#p16a33d4d0d)" style="fill: none; stroke: #000000; stroke-width: 2; stroke-linecap: round"/>
   </g>
   <g id="line2d_18">
    <path d="M 101.047596 126.219596 
L 118.069794 126.119832 
L 119.815661 125.820541 
L 121.561527 125.321722 
L 123.307394 124.623375 
L 125.05326 123.725501 
L 127.235593 122.322573 
L 129.417926 120.607882 
L 131.600259 118.58143 
L 133.782593 116.243216 
L 135.964926 113.59324 
L 137.710792 111.248791 
L 137.710792 111.248791 
L 135.091992 107.80694 
L 132.909659 105.281669 
L 130.727326 103.06816 
L 128.544993 101.166412 
L 126.36266 99.576427 
L 124.180327 98.298203 
L 122.434461 97.500093 
L 120.688594 96.90151 
L 118.942728 96.502455 
L 117.196861 96.302927 
L 116.323928 96.277986 
L 101.047596 96.277986 
L 101.047596 96.277986 
L 103.247388 98.722199 
L 104.64059 100.555359 
L 105.813812 102.388519 
L 106.767055 104.221679 
L 107.500319 106.054838 
L 108.013604 107.887998 
L 108.306909 109.721158 
L 108.380236 111.554318 
L 108.233583 113.387478 
L 107.866951 115.220637 
L 107.28034 117.053797 
L 106.473749 118.886957 
L 105.44718 120.720117 
L 104.200631 122.553276 
L 102.734103 124.386436 
L 101.047596 126.219596 
L 101.047596 126.219596 
" clip-path="url(#p16a33d4d0d)" style="fill: none; stroke: #000000; stroke-width: 2; stroke-linecap: round"/>
   </g>
   <g id="line2d_19">
    <path d="M 90.354164 118.886957 
L 106.473749 118.886957 
" clip-path="url(#p16a33d4d0d)" style="fill: none; stroke: #000000; stroke-width: 2; stroke-linecap: round"/>
   </g>
   <g id="line2d_20">
    <path d="M 90.354164 103.610625 
L 106.473749 103.610625 
" clip-path="url(#p16a33d4d0d)" style="fill: none; stroke: #000000; stroke-width: 2; stroke-linecap: round"/>
   </g>
   <g id="line2d_21">
    <path d="M 137.710792 111.248791 
L 148.404224 111.248791 
" clip-path="url(#p16a33d4d0d)" style="fill: none; stroke: #000000; stroke-width: 2; stroke-linecap: round"/>
   </g>
   <g id="line2d_22">
    <path d="M 26.193572 128.052756 
L 43.1503 128.052756 
M 70.34217 128.052756 
L 87.298898 128.052756 
" clip-path="url(#p16a33d4d0d)" style="fill: none; stroke: #000000; stroke-width: 2; stroke-linecap: round"/>
   </g>
   <g id="line2d_23">
    <path d="M 43.1503 112.776424 
L 63.009531 128.052756 
L 43.1503 143.329087 
L 43.1503 112.776424 
" clip-path="url(#p16a33d4d0d)" style="fill: none; stroke: #000000; stroke-width: 2; stroke-linecap: round"/>
   </g>
   <g id="line2d_24">
    <path d="M 90.354164 118.886957 
L 87.298898 118.886957 
L 87.298898 128.052756 
" clip-path="url(#p16a33d4d0d)" style="fill: none; stroke: #000000; stroke-width: 2; stroke-linecap: round"/>
   </g>
   <g id="line2d_25">
    <path d="M 152.987124 94.444827 
L 148.404224 94.444827 
L 148.404224 111.248791 
" clip-path="url(#p16a33d4d0d)" style="fill: none; stroke: #000000; stroke-width: 2; stroke-linecap: round"/>
   </g>
   <g id="line2d_26">
    <path d="M 214.09245 158.22351 
L 209.50955 158.22351 
L 209.50955 94.444827 
" clip-path="url(#p16a33d4d0d)" style="fill: none; stroke: #000000; stroke-width: 2; stroke-linecap: round"/>
   </g>
   <g id="line2d_27">
    <path d="M 183.539787 252.554857 
L 184.518544 252.523471 
L 185.49328 252.429439 
L 186.459989 252.273149 
L 187.414698 252.055243 
L 188.353484 251.776616 
L 189.27249 251.438414 
L 190.167938 251.042025 
L 191.036151 250.589079 
L 191.873559 250.081438 
L 192.676721 249.521186 
L 193.442338 248.910627 
L 194.167264 248.252269 
L 194.848519 247.548817 
L 195.483303 246.803163 
L 196.06901 246.01837 
L 196.603231 245.197663 
L 197.083771 244.344414 
L 197.508657 243.46213 
L 197.876141 242.554437 
L 198.184714 241.625064 
L 198.433108 240.67783 
L 198.620303 239.716627 
L 198.745528 238.745406 
L 198.808269 237.768156 
L 198.808269 236.788895 
L 198.745528 235.811646 
L 198.620303 234.840425 
L 198.433108 233.879222 
L 198.184714 232.931988 
L 197.876141 232.002615 
L 197.508657 231.094921 
L 197.083771 230.212638 
L 196.603231 229.359389 
L 196.06901 228.538682 
L 195.483303 227.753889 
L 194.848519 227.008235 
L 194.167264 226.304783 
L 193.442338 225.646425 
L 192.676721 225.035866 
L 191.873559 224.475614 
L 191.036151 223.967973 
L 190.167938 223.515027 
L 189.27249 223.118638 
L 188.353484 222.780436 
L 187.414698 222.501809 
L 186.459989 222.283903 
L 185.49328 222.127613 
L 184.518544 222.033581 
L 183.539787 222.002194 
L 183.539787 222.002194 
L 163.680556 222.002194 
L 163.680556 237.278526 
L 163.680556 252.554857 
L 183.539787 252.554857 
" clip-path="url(#p16a33d4d0d)" style="fill: none; stroke: #000000; stroke-width: 2; stroke-linecap: round"/>
   </g>
   <g id="line2d_28">
    <path d="M 152.987124 247.360905 
L 163.680556 247.360905 
" clip-path="url(#p16a33d4d0d)" style="fill: none; stroke: #000000; stroke-width: 2; stroke-linecap: round"/>
   </g>
   <g id="line2d_29">
    <path d="M 152.987124 237.278526 
L 163.680556 237.278526 
" clip-path="url(#p16a33d4d0d)" style="fill: none; stroke: #000000; stroke-width: 2; stroke-linecap: round"/>
   </g>
   <g id="line2d_30">
    <path d="M 152.987124 227.196147 
L 163.680556 227.196147 
" clip-path="url(#p16a33d4d0d)" style="fill: none; stroke: #000000; stroke-width: 2; stroke-linecap: round"/>
   </g>
   <g id="line2d_31">
    <path d="M 206.148757 237.278526 
L 209.50955 237.278526 
" clip-path="url(#p16a33d4d0d)" style="fill: none; stroke: #000000; stroke-width: 2; stroke-linecap: round"/>
   </g>
   <g id="line2d_32">
    <path d="M 122.434461 193.740981 
L 123.413218 193.709594 
L 124.387954 193.615563 
L 125.354663 193.459273 
L 126.309372 193.241367 
L 127.248158 192.96274 
L 128.167164 192.624537 
L 129.062612 192.228149 
L 129.930825 191.775203 
L 130.768233 191.267561 
L 131.571395 190.70731 
L 132.337012 190.096751 
L 133.061938 189.438393 
L 133.743193 188.734941 
L 134.377977 187.989287 
L 134.963684 187.204493 
L 135.497905 186.383786 
L 135.978445 185.530538 
L 136.403331 184.648254 
L 136.770815 183.740561 
L 137.079388 182.811187 
L 137.327783 181.863953 
L 137.514977 180.902751 
L 137.640202 179.931529 
L 137.702943 178.95428 
L 137.702943 177.975019 
L 137.640202 176.99777 
L 137.514977 176.026549 
L 137.327783 175.065346 
L 137.079388 174.118112 
L 136.770815 173.188739 
L 136.403331 172.281045 
L 135.978445 171.398761 
L 135.497905 170.545513 
L 134.963684 169.724806 
L 134.377977 168.940013 
L 133.743193 168.194358 
L 133.061938 167.490907 
L 132.337012 166.832549 
L 131.571395 166.22199 
L 130.768233 165.661738 
L 129.930825 165.154096 
L 129.062612 164.701151 
L 128.167164 164.304762 
L 127.248158 163.96656 
L 126.309372 163.687933 
L 125.354663 163.470027 
L 124.387954 163.313737 
L 123.413218 163.219705 
L 122.434461 163.188318 
L 122.434461 163.188318 
L 102.57523 163.188318 
L 102.57523 178.46465 
L 102.57523 193.740981 
L 122.434461 193.740981 
" clip-path="url(#p16a33d4d0d)" style="fill: none; stroke: #000000; stroke-width: 2; stroke-linecap: round"/>
   </g>
   <g id="line2d_33">
    <path d="M 91.881798 186.102815 
L 102.57523 186.102815 
" clip-path="url(#p16a33d4d0d)" style="fill: none; stroke: #000000; stroke-width: 2; stroke-linecap: round"/>
   </g>
   <g id="line2d_34">
    <path d="M 91.881798 170.826484 
L 102.57523 170.826484 
" clip-path="url(#p16a33d4d0d)" style="fill: none; stroke: #000000; stroke-width: 2; stroke-linecap: round"/>
   </g>
   <g id="line2d_35">
    <path d="M 137.710792 178.46465 
L 148.404224 178.46465 
" clip-path="url(#p16a33d4d0d)" style="fill: none; stroke: #000000; stroke-width: 2; stroke-linecap: round"/>
   </g>
   <g id="line2d_36">
    <path d="M 26.193572 161.660685 
L 43.1503 161.660685 
M 70.34217 161.660685 
L 87.298898 161.660685 
" clip-path="url(#p16a33d4d0d)" style="fill: none; stroke: #000000; stroke-width: 2; stroke-linecap: round"/>
   </g>
   <g id="line2d_37">
    <path d="M 43.1503 146.384354 
L 63.009531 161.660685 
L 43.1503 176.937017 
L 43.1503 146.384354 
" clip-path="url(#p16a33d4d0d)" style="fill: none; stroke: #000000; stroke-width: 2; stroke-linecap: round"/>
   </g>
   <g id="line2d_38">
    <path d="M 91.881798 170.826484 
L 87.298898 170.826484 
L 87.298898 161.660685 
" clip-path="url(#p16a33d4d0d)" style="fill: none; stroke: #000000; stroke-width: 2; stroke-linecap: round"/>
   </g>
   <g id="line2d_39">
    <path d="M 152.987124 227.196147 
L 148.404224 227.196147 
L 148.404224 178.46465 
" clip-path="url(#p16a33d4d0d)" style="fill: none; stroke: #000000; stroke-width: 2; stroke-linecap: round"/>
   </g>
   <g id="line2d_40">
    <path d="M 101.047596 260.651313 
L 118.069794 260.551549 
L 119.815661 260.252258 
L 121.561527 259.753439 
L 123.307394 259.055092 
L 125.05326 258.157218 
L 127.235593 256.75429 
L 129.417926 255.0396 
L 131.600259 253.013147 
L 133.782593 250.674933 
L 135.964926 248.024958 
L 137.710792 245.680508 
L 137.710792 245.680508 
L 135.091992 242.238657 
L 132.909659 239.713386 
L 130.727326 237.499877 
L 128.544993 235.59813 
L 126.36266 234.008144 
L 124.180327 232.72992 
L 122.434461 231.93181 
L 120.688594 231.333227 
L 118.942728 230.934172 
L 117.196861 230.734644 
L 116.323928 230.709703 
L 101.047596 230.709703 
L 101.047596 230.709703 
L 103.247388 233.153916 
L 104.64059 234.987076 
L 105.813812 236.820236 
L 106.767055 238.653396 
L 107.500319 240.486556 
L 108.013604 242.319715 
L 108.306909 244.152875 
L 108.380236 245.986035 
L 108.233583 247.819195 
L 107.866951 249.652354 
L 107.28034 251.485514 
L 106.473749 253.318674 
L 105.44718 255.151834 
L 104.200631 256.984994 
L 102.734103 258.818153 
L 101.047596 260.651313 
L 101.047596 260.651313 
" clip-path="url(#p16a33d4d0d)" style="fill: none; stroke: #000000; stroke-width: 2; stroke-linecap: round"/>
   </g>
   <g id="line2d_41">
    <path d="M 90.354164 253.318674 
L 106.473749 253.318674 
" clip-path="url(#p16a33d4d0d)" style="fill: none; stroke: #000000; stroke-width: 2; stroke-linecap: round"/>
   </g>
   <g id="line2d_42">
    <path d="M 90.354164 238.042343 
L 106.473749 238.042343 
" clip-path="url(#p16a33d4d0d)" style="fill: none; stroke: #000000; stroke-width: 2; stroke-linecap: round"/>
   </g>
   <g id="line2d_43">
    <path d="M 137.710792 245.680508 
L 148.404224 245.680508 
" clip-path="url(#p16a33d4d0d)" style="fill: none; stroke: #000000; stroke-width: 2; stroke-linecap: round"/>
   </g>
   <g id="line2d_44">
    <path d="M 26.193572 262.484473 
L 43.1503 262.484473 
M 70.34217 262.484473 
L 87.298898 262.484473 
" clip-path="url(#p16a33d4d0d)" style="fill: none; stroke: #000000; stroke-width: 2; stroke-linecap: round"/>
   </g>
   <g id="line2d_45">
    <path d="M 43.1503 247.208141 
L 63.009531 262.484473 
L 43.1503 277.760804 
L 43.1503 247.208141 
" clip-path="url(#p16a33d4d0d)" style="fill: none; stroke: #000000; stroke-width: 2; stroke-linecap: round"/>
   </g>
   <g id="line2d_46">
    <path d="M 90.354164 253.318674 
L 87.298898 253.318674 
L 87.298898 262.484473 
" clip-path="url(#p16a33d4d0d)" style="fill: none; stroke: #000000; stroke-width: 2; stroke-linecap: round"/>
   </g>
   <g id="line2d_47">
    <path d="M 152.987124 237.278526 
L 148.404224 237.278526 
L 148.404224 245.680508 
" clip-path="url(#p16a33d4d0d)" style="fill: none; stroke: #000000; stroke-width: 2; stroke-linecap: round"/>
   </g>
   <g id="line2d_48">
    <path d="M 87.298898 296.092402 
L 104.255626 296.092402 
M 131.447496 296.092402 
L 148.404224 296.092402 
" clip-path="url(#p16a33d4d0d)" style="fill: none; stroke: #000000; stroke-width: 2; stroke-linecap: round"/>
   </g>
   <g id="line2d_49">
    <path d="M 104.255626 280.816071 
L 124.114857 296.092402 
L 104.255626 311.368734 
L 104.255626 280.816071 
" clip-path="url(#p16a33d4d0d)" style="fill: none; stroke: #000000; stroke-width: 2; stroke-linecap: round"/>
   </g>
   <g id="line2d_50">
    <path d="M 152.987124 247.360905 
L 148.404224 247.360905 
L 148.404224 296.092402 
" clip-path="url(#p16a33d4d0d)" style="fill: none; stroke: #000000; stroke-width: 2; stroke-linecap: round"/>
   </g>
   <g id="line2d_51">
    <path d="M 214.09245 173.499842 
L 209.50955 173.499842 
L 209.50955 237.278526 
" clip-path="url(#p16a33d4d0d)" style="fill: none; stroke: #000000; stroke-width: 2; stroke-linecap: round"/>
   </g>
   <g id="text_1">
    <g clip-path="url(#p16a33d4d0d)">
     <!-- output -->
     <g transform="translate(273.670142 169.310895) scale(0.125 -0.125)">
      <defs>
       <path id="DejaVuSans-6f" d="M 1959 3097 
Q 1497 3097 1228 2736 
Q 959 2375 959 1747 
Q 959 1119 1226 758 
Q 1494 397 1959 397 
Q 2419 397 2687 759 
Q 2956 1122 2956 1747 
Q 2956 2369 2687 2733 
Q 2419 3097 1959 3097 
z
M 1959 3584 
Q 2709 3584 3137 3096 
Q 3566 2609 3566 1747 
Q 3566 888 3137 398 
Q 2709 -91 1959 -91 
Q 1206 -91 779 398 
Q 353 888 353 1747 
Q 353 2609 779 3096 
Q 1206 3584 1959 3584 
z
" transform="scale(0.015625)"/>
       <path id="DejaVuSans-75" d="M 544 1381 
L 544 3500 
L 1119 3500 
L 1119 1403 
Q 1119 906 1312 657 
Q 1506 409 1894 409 
Q 2359 409 2629 706 
Q 2900 1003 2900 1516 
L 2900 3500 
L 3475 3500 
L 3475 0 
L 2900 0 
L 2900 538 
Q 2691 219 2414 64 
Q 2138 -91 1772 -91 
Q 1169 -91 856 284 
Q 544 659 544 1381 
z
M 1991 3584 
L 1991 3584 
z
" transform="scale(0.015625)"/>
       <path id="DejaVuSans-74" d="M 1172 4494 
L 1172 3500 
L 2356 3500 
L 2356 3053 
L 1172 3053 
L 1172 1153 
Q 1172 725 1289 603 
Q 1406 481 1766 481 
L 2356 481 
L 2356 0 
L 1766 0 
Q 1100 0 847 248 
Q 594 497 594 1153 
L 594 3053 
L 172 3053 
L 172 3500 
L 594 3500 
L 594 4494 
L 1172 4494 
z
" transform="scale(0.015625)"/>
       <path id="DejaVuSans-70" d="M 1159 525 
L 1159 -1331 
L 581 -1331 
L 581 3500 
L 1159 3500 
L 1159 2969 
Q 1341 3281 1617 3432 
Q 1894 3584 2278 3584 
Q 2916 3584 3314 3078 
Q 3713 2572 3713 1747 
Q 3713 922 3314 415 
Q 2916 -91 2278 -91 
Q 1894 -91 1617 61 
Q 1341 213 1159 525 
z
M 3116 1747 
Q 3116 2381 2855 2742 
Q 2594 3103 2138 3103 
Q 1681 3103 1420 2742 
Q 1159 2381 1159 1747 
Q 1159 1113 1420 752 
Q 1681 391 2138 391 
Q 2594 391 2855 752 
Q 3116 1113 3116 1747 
z
" transform="scale(0.015625)"/>
      </defs>
      <use xlink:href="#DejaVuSans-6f"/>
      <use xlink:href="#DejaVuSans-75" x="61.181641"/>
      <use xlink:href="#DejaVuSans-74" x="124.560547"/>
      <use xlink:href="#DejaVuSans-70" x="163.769531"/>
      <use xlink:href="#DejaVuSans-75" x="227.246094"/>
      <use xlink:href="#DejaVuSans-74" x="290.625"/>
     </g>
    </g>
   </g>
   <g id="text_2">
    <g clip-path="url(#p16a33d4d0d)">
     <!-- d -->
     <g transform="translate(141.99631 107.976424) scale(0.125 -0.125)">
      <defs>
       <path id="DejaVuSans-64" d="M 2906 2969 
L 2906 4863 
L 3481 4863 
L 3481 0 
L 2906 0 
L 2906 525 
Q 2725 213 2448 61 
Q 2172 -91 1784 -91 
Q 1150 -91 751 415 
Q 353 922 353 1747 
Q 353 2572 751 3078 
Q 1150 3584 1784 3584 
Q 2172 3584 2448 3432 
Q 2725 3281 2906 2969 
z
M 947 1747 
Q 947 1113 1208 752 
Q 1469 391 1925 391 
Q 2381 391 2643 752 
Q 2906 1113 2906 1747 
Q 2906 2381 2643 2742 
Q 2381 3103 1925 3103 
Q 1469 3103 1208 2742 
Q 947 2381 947 1747 
z
" transform="scale(0.015625)"/>
      </defs>
      <use xlink:href="#DejaVuSans-64"/>
     </g>
    </g>
   </g>
   <g id="text_3">
    <g clip-path="url(#p16a33d4d0d)">
     <!-- b -->
     <g transform="translate(80.890984 55.120317) scale(0.125 -0.125)">
      <defs>
       <path id="DejaVuSans-62" d="M 3116 1747 
Q 3116 2381 2855 2742 
Q 2594 3103 2138 3103 
Q 1681 3103 1420 2742 
Q 1159 2381 1159 1747 
Q 1159 1113 1420 752 
Q 1681 391 2138 391 
Q 2594 391 2855 752 
Q 3116 1113 3116 1747 
z
M 1159 2969 
Q 1341 3281 1617 3432 
Q 1894 3584 2278 3584 
Q 2916 3584 3314 3078 
Q 3713 2572 3713 1747 
Q 3713 922 3314 415 
Q 2916 -91 2278 -91 
Q 1894 -91 1617 61 
Q 1341 213 1159 525 
L 1159 0 
L 581 0 
L 581 4863 
L 1159 4863 
L 1159 2969 
z
" transform="scale(0.015625)"/>
      </defs>
      <use xlink:href="#DejaVuSans-62"/>
     </g>
    </g>
   </g>
   <g id="text_4">
    <g clip-path="url(#p16a33d4d0d)">
     <!-- a -->
     <g transform="translate(15.47815 30.678187) scale(0.125 -0.125)">
      <defs>
       <path id="DejaVuSans-61" d="M 2194 1759 
Q 1497 1759 1228 1600 
Q 959 1441 959 1056 
Q 959 750 1161 570 
Q 1363 391 1709 391 
Q 2188 391 2477 730 
Q 2766 1069 2766 1631 
L 2766 1759 
L 2194 1759 
z
M 3341 1997 
L 3341 0 
L 2766 0 
L 2766 531 
Q 2569 213 2275 61 
Q 1981 -91 1556 -91 
Q 1019 -91 701 211 
Q 384 513 384 1019 
Q 384 1609 779 1909 
Q 1175 2209 1959 2209 
L 2766 2209 
L 2766 2266 
Q 2766 2663 2505 2880 
Q 2244 3097 1772 3097 
Q 1472 3097 1187 3025 
Q 903 2953 641 2809 
L 641 3341 
Q 956 3463 1253 3523 
Q 1550 3584 1831 3584 
Q 2591 3584 2966 3190 
Q 3341 2797 3341 1997 
z
" transform="scale(0.015625)"/>
      </defs>
      <use xlink:href="#DejaVuSans-61"/>
     </g>
    </g>
   </g>
   <g id="text_5">
    <g clip-path="url(#p16a33d4d0d)">
     <!-- c -->
     <g transform="translate(80.425851 107.059844) scale(0.125 -0.125)">
      <defs>
       <path id="DejaVuSans-63" d="M 3122 3366 
L 3122 2828 
Q 2878 2963 2633 3030 
Q 2388 3097 2138 3097 
Q 1578 3097 1268 2742 
Q 959 2388 959 1747 
Q 959 1106 1268 751 
Q 1578 397 2138 397 
Q 2388 397 2633 464 
Q 2878 531 3122 666 
L 3122 134 
Q 2881 22 2623 -34 
Q 2366 -91 2075 -91 
Q 1284 -91 818 406 
Q 353 903 353 1747 
Q 353 2603 823 3093 
Q 1294 3584 2113 3584 
Q 2378 3584 2631 3529 
Q 2884 3475 3122 3366 
z
" transform="scale(0.015625)"/>
      </defs>
      <use xlink:href="#DejaVuSans-63"/>
     </g>
    </g>
   </g>
   <g id="text_6">
    <g clip-path="url(#p16a33d4d0d)">
     <!-- c -->
     <g transform="translate(16.265259 131.501975) scale(0.125 -0.125)">
      <use xlink:href="#DejaVuSans-63"/>
     </g>
    </g>
   </g>
   <g id="text_7">
    <g clip-path="url(#p16a33d4d0d)">
     <!-- b -->
     <g transform="translate(80.890984 189.552034) scale(0.125 -0.125)">
      <use xlink:href="#DejaVuSans-62"/>
     </g>
    </g>
   </g>
   <g id="text_8">
    <g clip-path="url(#p16a33d4d0d)">
     <!-- a -->
     <g transform="translate(15.47815 165.109904) scale(0.125 -0.125)">
      <use xlink:href="#DejaVuSans-61"/>
     </g>
    </g>
   </g>
   <g id="text_9">
    <g clip-path="url(#p16a33d4d0d)">
     <!-- c -->
     <g transform="translate(80.425851 241.491561) scale(0.125 -0.125)">
      <use xlink:href="#DejaVuSans-63"/>
     </g>
    </g>
   </g>
   <g id="text_10">
    <g clip-path="url(#p16a33d4d0d)">
     <!-- c -->
     <g transform="translate(16.265259 265.933692) scale(0.125 -0.125)">
      <use xlink:href="#DejaVuSans-63"/>
     </g>
    </g>
   </g>
   <g id="text_11">
    <g clip-path="url(#p16a33d4d0d)">
     <!-- d -->
     <g transform="translate(76.308085 299.541621) scale(0.125 -0.125)">
      <use xlink:href="#DejaVuSans-64"/>
     </g>
    </g>
   </g>
  </g>
 </g>
 <defs>
  <clipPath id="p16a33d4d0d">
   <rect x="7.2" y="7.2" width="315.965456" height="307.224"/>
  </clipPath>
 </defs>
</svg>
