<?xml version="1.0" encoding="utf-8" standalone="no"?>
<!DOCTYPE svg PUBLIC "-//W3C//DTD SVG 1.1//EN"
  "http://www.w3.org/Graphics/SVG/1.1/DTD/svg11.dtd">
<svg xmlns:xlink="http://www.w3.org/1999/xlink" width="472.254368pt" height="131.292pt" viewBox="0 0 472.254368 131.292" xmlns="http://www.w3.org/2000/svg" version="1.1">
 <metadata>
  <rdf:RDF xmlns:dc="http://purl.org/dc/elements/1.1/" xmlns:cc="http://creativecommons.org/ns#" xmlns:rdf="http://www.w3.org/1999/02/22-rdf-syntax-ns#">
   <cc:Work>
    <dc:type rdf:resource="http://purl.org/dc/dcmitype/StillImage"/>
    <dc:date>2022-11-07T10:30:05.847791</dc:date>
    <dc:format>image/svg+xml</dc:format>
    <dc:creator>
     <cc:Agent>
      <dc:title>Matplotlib v3.6.0, https://matplotlib.org/</dc:title>
     </cc:Agent>
    </dc:creator>
   </cc:Work>
  </rdf:RDF>
 </metadata>
 <defs>
  <style type="text/css">*{stroke-linejoin: round; stroke-linecap: butt}</style>
 </defs>
 <g id="figure_1">
  <g id="patch_1">
   <path d="M 0 131.292 
L 472.254368 131.292 
L 472.254368 0 
L 0 0 
L 0 131.292 
z
" style="fill: none"/>
  </g>
  <g id="axes_1">
   <g id="patch_2">
    <path d="M 222.806067 55.971304 
C 223.775803 55.971304 224.705951 55.586024 225.391658 54.900317 
C 226.077365 54.21461 226.462645 53.284461 226.462645 52.314726 
C 226.462645 51.34499 226.077365 50.414841 225.391658 49.729134 
C 224.705951 49.043428 223.775803 48.658147 222.806067 48.658147 
C 221.836331 48.658147 220.906182 49.043428 220.220475 49.729134 
C 219.534769 50.414841 219.149489 51.34499 219.149489 52.314726 
C 219.149489 53.284461 219.534769 54.21461 220.220475 54.900317 
C 220.906182 55.586024 221.836331 55.971304 222.806067 55.971304 
L 222.806067 55.971304 
z
" clip-path="url(#p116cffa488)" style="fill: none; stroke: #000000; stroke-width: 2; stroke-linejoin: miter"/>
   </g>
   <g id="patch_3">
    <path d="M 148.303287 30.832329 
C 149.273023 30.832329 150.203172 30.447049 150.888878 29.761342 
C 151.574585 29.075635 151.959865 28.145487 151.959865 27.175751 
C 151.959865 26.206015 151.574585 25.275867 150.888878 24.59016 
C 150.203172 23.904453 149.273023 23.519173 148.303287 23.519173 
C 147.333551 23.519173 146.403403 23.904453 145.717696 24.59016 
C 145.031989 25.275867 144.646709 26.206015 144.646709 27.175751 
C 144.646709 28.145487 145.031989 29.075635 145.717696 29.761342 
C 146.403403 30.447049 147.333551 30.832329 148.303287 30.832329 
L 148.303287 30.832329 
z
" clip-path="url(#p116cffa488)" style="fill: none; stroke: #000000; stroke-width: 2; stroke-linejoin: miter"/>
   </g>
   <g id="patch_4">
    <path d="M 161.863098 81.110278 
C 162.832834 81.110278 163.762982 80.724998 164.448689 80.039291 
C 165.134396 79.353585 165.519676 78.423436 165.519676 77.4537 
C 165.519676 76.483964 165.134396 75.553816 164.448689 74.868109 
C 163.762982 74.182402 162.832834 73.797122 161.863098 73.797122 
C 160.893362 73.797122 159.963213 74.182402 159.277507 74.868109 
C 158.5918 75.553816 158.20652 76.483964 158.20652 77.4537 
C 158.20652 78.423436 158.5918 79.353585 159.277507 80.039291 
C 159.963213 80.724998 160.893362 81.110278 161.863098 81.110278 
L 161.863098 81.110278 
z
" clip-path="url(#p116cffa488)" style="fill: none; stroke: #000000; stroke-width: 2; stroke-linejoin: miter"/>
   </g>
   <g id="line2d_1">
    <path d="M 386.742653 117.828417 
L 387.71881 117.797114 
L 388.690956 117.703332 
L 389.655097 117.547457 
L 390.607269 117.33013 
L 391.54356 117.052244 
L 392.460124 116.71494 
L 393.353194 116.319604 
L 394.219099 115.867862 
L 395.054282 115.361569 
L 395.855311 114.802806 
L 396.618894 114.193869 
L 397.341893 113.53726 
L 398.021338 112.835678 
L 398.654436 112.092005 
L 399.238586 111.309297 
L 399.771388 110.49077 
L 400.250651 109.639789 
L 400.674408 108.75985 
L 401.040916 107.854568 
L 401.348669 106.927664 
L 401.596403 105.982946 
L 401.7831 105.024298 
L 401.907992 104.055657 
L 401.970567 103.081004 
L 401.970567 102.104345 
L 401.907992 101.129693 
L 401.7831 100.161052 
L 401.596403 99.202403 
L 401.348669 98.257686 
L 401.040916 97.330782 
L 400.674408 96.4255 
L 400.250651 95.545561 
L 399.771388 94.694579 
L 399.238586 93.876053 
L 398.654436 93.093345 
L 398.021338 92.349672 
L 397.341893 91.648089 
L 396.618894 90.991481 
L 395.855311 90.382544 
L 395.054282 89.823781 
L 394.219099 89.317488 
L 393.353194 88.865745 
L 392.460124 88.47041 
L 391.54356 88.133106 
L 390.607269 87.85522 
L 389.655097 87.637893 
L 388.690956 87.482018 
L 387.71881 87.388236 
L 386.742653 87.356933 
L 386.742653 87.356933 
L 366.936188 87.356933 
L 366.936188 102.592675 
L 366.936188 117.828417 
L 386.742653 117.828417 
" clip-path="url(#p116cffa488)" style="fill: none; stroke: #000000; stroke-width: 2; stroke-linecap: round"/>
   </g>
   <g id="line2d_2">
    <path d="M 356.271168 110.210546 
L 366.936188 110.210546 
" clip-path="url(#p116cffa488)" style="fill: none; stroke: #000000; stroke-width: 2; stroke-linecap: round"/>
   </g>
   <g id="line2d_3">
    <path d="M 356.271168 94.974804 
L 366.936188 94.974804 
" clip-path="url(#p116cffa488)" style="fill: none; stroke: #000000; stroke-width: 2; stroke-linecap: round"/>
   </g>
   <g id="line2d_4">
    <path d="M 401.978395 102.592675 
L 412.643415 102.592675 
" clip-path="url(#p116cffa488)" style="fill: none; stroke: #000000; stroke-width: 2; stroke-linecap: round"/>
   </g>
   <g id="line2d_5">
    <path d="M 304.469645 100.764386 
L 321.446615 100.664887 
L 323.187843 100.366391 
L 324.92907 99.868897 
L 326.670298 99.172406 
L 328.411526 98.276918 
L 330.58806 96.877717 
L 332.764595 95.167583 
L 334.941129 93.146515 
L 337.117664 90.814513 
L 339.294199 88.171578 
L 341.035426 85.833358 
L 341.035426 85.833358 
L 338.423585 82.400652 
L 336.24705 79.882091 
L 334.070516 77.674463 
L 331.893981 75.777769 
L 329.717446 74.192008 
L 327.540912 72.91718 
L 325.799684 72.12119 
L 324.058456 71.524198 
L 322.317229 71.126203 
L 320.576001 70.927206 
L 319.705387 70.902331 
L 304.469645 70.902331 
L 304.469645 70.902331 
L 306.663592 73.34005 
L 308.053092 75.168339 
L 309.223197 76.996628 
L 310.173907 78.824917 
L 310.905222 80.653206 
L 311.417143 82.481495 
L 311.70967 84.309784 
L 311.782801 86.138073 
L 311.636538 87.966362 
L 311.27088 89.794651 
L 310.685828 91.62294 
L 309.881381 93.45123 
L 308.857539 95.279519 
L 307.614302 97.107808 
L 306.151671 98.936097 
L 304.469645 100.764386 
L 304.469645 100.764386 
" clip-path="url(#p116cffa488)" style="fill: none; stroke: #000000; stroke-width: 2; stroke-linecap: round"/>
   </g>
   <g id="line2d_6">
    <path d="M 293.804625 93.45123 
L 309.881381 93.45123 
" clip-path="url(#p116cffa488)" style="fill: none; stroke: #000000; stroke-width: 2; stroke-linecap: round"/>
   </g>
   <g id="line2d_7">
    <path d="M 293.804625 78.215487 
L 309.881381 78.215487 
" clip-path="url(#p116cffa488)" style="fill: none; stroke: #000000; stroke-width: 2; stroke-linecap: round"/>
   </g>
   <g id="line2d_8">
    <path d="M 341.035426 85.833358 
L 351.700446 85.833358 
" clip-path="url(#p116cffa488)" style="fill: none; stroke: #000000; stroke-width: 2; stroke-linecap: round"/>
   </g>
   <g id="line2d_9">
    <path d="M 264.856715 84.309784 
L 265.832873 84.278481 
L 266.805019 84.184699 
L 267.769159 84.028824 
L 268.721331 83.811497 
L 269.657623 83.533611 
L 270.574187 83.196307 
L 271.467256 82.800971 
L 272.333161 82.349229 
L 273.168344 81.842936 
L 273.969373 81.284173 
L 274.732956 80.675236 
L 275.455955 80.018628 
L 276.1354 79.317045 
L 276.768498 78.573372 
L 277.352648 77.790664 
L 277.88545 76.972138 
L 278.364714 76.121156 
L 278.78847 75.241217 
L 279.154978 74.335935 
L 279.462731 73.409031 
L 279.710466 72.464314 
L 279.897162 71.505665 
L 280.022055 70.537024 
L 280.08463 69.562372 
L 280.08463 68.585712 
L 280.022055 67.61106 
L 279.897162 66.642419 
L 279.710466 65.68377 
L 279.462731 64.739053 
L 279.154978 63.812149 
L 278.78847 62.906867 
L 278.364714 62.026928 
L 277.88545 61.175946 
L 277.352648 60.35742 
L 276.768498 59.574712 
L 276.1354 58.831039 
L 275.455955 58.129456 
L 274.732956 57.472848 
L 273.969373 56.863911 
L 273.168344 56.305148 
L 272.333161 55.798855 
L 271.467256 55.347113 
L 270.574187 54.951777 
L 269.657623 54.614473 
L 268.721331 54.336587 
L 267.769159 54.11926 
L 266.805019 53.963385 
L 265.832873 53.869603 
L 264.856715 53.8383 
L 264.856715 53.8383 
L 245.05025 53.8383 
L 245.05025 69.074042 
L 245.05025 84.309784 
L 264.856715 84.309784 
" clip-path="url(#p116cffa488)" style="fill: none; stroke: #000000; stroke-width: 2; stroke-linecap: round"/>
   </g>
   <g id="line2d_10">
    <path d="M 234.385231 76.691913 
L 245.05025 76.691913 
" clip-path="url(#p116cffa488)" style="fill: none; stroke: #000000; stroke-width: 2; stroke-linecap: round"/>
   </g>
   <g id="line2d_11">
    <path d="M 234.385231 61.456171 
L 245.05025 61.456171 
" clip-path="url(#p116cffa488)" style="fill: none; stroke: #000000; stroke-width: 2; stroke-linecap: round"/>
   </g>
   <g id="line2d_12">
    <path d="M 280.092457 69.074042 
L 290.757477 69.074042 
" clip-path="url(#p116cffa488)" style="fill: none; stroke: #000000; stroke-width: 2; stroke-linecap: round"/>
   </g>
   <g id="line2d_13">
    <path d="M 203.913746 67.550468 
L 204.889904 67.519164 
L 205.86205 67.425383 
L 206.82619 67.269508 
L 207.778362 67.052181 
L 208.714654 66.774294 
L 209.631218 66.43699 
L 210.524287 66.041655 
L 211.390192 65.589913 
L 212.225375 65.08362 
L 213.026404 64.524857 
L 213.789987 63.91592 
L 214.512986 63.259311 
L 215.192431 62.557729 
L 215.825529 61.814055 
L 216.409679 61.031348 
L 216.942481 60.212821 
L 217.421745 59.36184 
L 217.845501 58.4819 
L 218.212009 57.576619 
L 218.519763 56.649715 
L 218.767497 55.704997 
L 218.954194 54.746348 
L 219.079086 53.777708 
L 219.141661 52.803055 
L 219.141661 51.826396 
L 219.079086 50.851743 
L 218.954194 49.883103 
L 218.767497 48.924454 
L 218.519763 47.979737 
L 218.212009 47.052833 
L 217.845501 46.147551 
L 217.421745 45.267611 
L 216.942481 44.41663 
L 216.409679 43.598104 
L 215.825529 42.815396 
L 215.192431 42.071723 
L 214.512986 41.37014 
L 213.789987 40.713531 
L 213.026404 40.104594 
L 212.225375 39.545831 
L 211.390192 39.039538 
L 210.524287 38.587796 
L 209.631218 38.192461 
L 208.714654 37.855157 
L 207.778362 37.57727 
L 206.82619 37.359943 
L 205.86205 37.204069 
L 204.889904 37.110287 
L 203.913746 37.078983 
L 203.913746 37.078983 
L 184.107281 37.078983 
L 184.107281 52.314726 
L 184.107281 67.550468 
L 203.913746 67.550468 
" clip-path="url(#p116cffa488)" style="fill: none; stroke: #000000; stroke-width: 2; stroke-linecap: round"/>
   </g>
   <g id="line2d_14">
    <path d="M 173.442262 59.932597 
L 184.107281 59.932597 
" clip-path="url(#p116cffa488)" style="fill: none; stroke: #000000; stroke-width: 2; stroke-linecap: round"/>
   </g>
   <g id="line2d_15">
    <path d="M 173.442262 44.696854 
L 184.107281 44.696854 
" clip-path="url(#p116cffa488)" style="fill: none; stroke: #000000; stroke-width: 2; stroke-linecap: round"/>
   </g>
   <g id="line2d_16">
    <path d="M 226.462645 52.314726 
L 229.814508 52.314726 
" clip-path="url(#p116cffa488)" style="fill: none; stroke: #000000; stroke-width: 2; stroke-linecap: round"/>
   </g>
   <g id="line2d_17">
    <path d="M 107.92857 27.175751 
L 124.840244 27.175751 
M 151.959865 27.175751 
L 168.871539 27.175751 
" clip-path="url(#p116cffa488)" style="fill: none; stroke: #000000; stroke-width: 2; stroke-linecap: round"/>
   </g>
   <g id="line2d_18">
    <path d="M 124.840244 11.940009 
L 144.646709 27.175751 
L 124.840244 42.411493 
L 124.840244 11.940009 
" clip-path="url(#p116cffa488)" style="fill: none; stroke: #000000; stroke-width: 2; stroke-linecap: round"/>
   </g>
   <g id="line2d_19">
    <path d="M 173.442262 44.696854 
L 168.871539 44.696854 
L 168.871539 27.175751 
" clip-path="url(#p116cffa488)" style="fill: none; stroke: #000000; stroke-width: 2; stroke-linecap: round"/>
   </g>
   <g id="line2d_20">
    <path d="M 142.970777 92.689442 
L 143.946935 92.658139 
L 144.919081 92.564357 
L 145.883221 92.408483 
L 146.835393 92.191155 
L 147.771685 91.913269 
L 148.688249 91.575965 
L 149.581318 91.18063 
L 150.447224 90.728887 
L 151.282407 90.222595 
L 152.083435 89.663832 
L 152.847018 89.054895 
L 153.570017 88.398286 
L 154.249462 87.696703 
L 154.88256 86.95303 
L 155.466711 86.170322 
L 155.999512 85.351796 
L 156.478776 84.500814 
L 156.902532 83.620875 
L 157.26904 82.715593 
L 157.576794 81.788689 
L 157.824528 80.843972 
L 158.011225 79.885323 
L 158.136117 78.916682 
L 158.198692 77.94203 
L 158.198692 76.965371 
L 158.136117 75.990718 
L 158.011225 75.022077 
L 157.824528 74.063429 
L 157.576794 73.118711 
L 157.26904 72.191807 
L 156.902532 71.286526 
L 156.478776 70.406586 
L 155.999512 69.555605 
L 155.466711 68.737078 
L 154.88256 67.95437 
L 154.249462 67.210697 
L 153.570017 66.509115 
L 152.847018 65.852506 
L 152.083435 65.243569 
L 151.282407 64.684806 
L 150.447224 64.178513 
L 149.581318 63.726771 
L 148.688249 63.331435 
L 147.771685 62.994132 
L 146.835393 62.716245 
L 145.883221 62.498918 
L 144.919081 62.343043 
L 143.946935 62.249261 
L 142.970777 62.217958 
L 142.970777 62.217958 
L 123.164313 62.217958 
L 123.164313 77.4537 
L 123.164313 92.689442 
L 142.970777 92.689442 
" clip-path="url(#p116cffa488)" style="fill: none; stroke: #000000; stroke-width: 2; stroke-linecap: round"/>
   </g>
   <g id="line2d_21">
    <path d="M 112.499293 85.071571 
L 123.164313 85.071571 
" clip-path="url(#p116cffa488)" style="fill: none; stroke: #000000; stroke-width: 2; stroke-linecap: round"/>
   </g>
   <g id="line2d_22">
    <path d="M 112.499293 69.835829 
L 123.164313 69.835829 
" clip-path="url(#p116cffa488)" style="fill: none; stroke: #000000; stroke-width: 2; stroke-linecap: round"/>
   </g>
   <g id="line2d_23">
    <path d="M 165.519676 77.4537 
L 168.871539 77.4537 
" clip-path="url(#p116cffa488)" style="fill: none; stroke: #000000; stroke-width: 2; stroke-linecap: round"/>
   </g>
   <g id="line2d_24">
    <path d="M 60.69777 109.144044 
L 77.674739 109.044545 
L 79.415967 108.746049 
L 81.157195 108.248556 
L 82.898422 107.552064 
L 84.63965 106.656576 
L 86.816185 105.257375 
L 88.992719 103.547241 
L 91.169254 101.526173 
L 93.345789 99.194172 
L 95.522323 96.551237 
L 97.263551 94.213017 
L 97.263551 94.213017 
L 94.651709 90.780311 
L 92.475175 88.261749 
L 90.29864 86.054121 
L 88.122105 84.157427 
L 85.945571 82.571666 
L 83.769036 81.296838 
L 82.027809 80.500849 
L 80.286581 79.903856 
L 78.545353 79.505861 
L 76.804126 79.306864 
L 75.933512 79.281989 
L 60.69777 79.281989 
L 60.69777 79.281989 
L 62.891716 81.719708 
L 64.281216 83.547997 
L 65.451321 85.376286 
L 66.402031 87.204575 
L 67.133347 89.032864 
L 67.645268 90.861153 
L 67.937794 92.689442 
L 68.010926 94.517731 
L 67.864663 96.346021 
L 67.499005 98.17431 
L 66.913952 100.002599 
L 66.109505 101.830888 
L 65.085663 103.659177 
L 63.842427 105.487466 
L 62.379795 107.315755 
L 60.69777 109.144044 
L 60.69777 109.144044 
" clip-path="url(#p116cffa488)" style="fill: none; stroke: #000000; stroke-width: 2; stroke-linecap: round"/>
   </g>
   <g id="line2d_25">
    <path d="M 50.03275 101.830888 
L 66.109505 101.830888 
" clip-path="url(#p116cffa488)" style="fill: none; stroke: #000000; stroke-width: 2; stroke-linecap: round"/>
   </g>
   <g id="line2d_26">
    <path d="M 50.03275 86.595146 
L 66.109505 86.595146 
" clip-path="url(#p116cffa488)" style="fill: none; stroke: #000000; stroke-width: 2; stroke-linecap: round"/>
   </g>
   <g id="line2d_27">
    <path d="M 97.263551 94.213017 
L 107.92857 94.213017 
" clip-path="url(#p116cffa488)" style="fill: none; stroke: #000000; stroke-width: 2; stroke-linecap: round"/>
   </g>
   <g id="line2d_28">
    <path d="M 112.499293 85.071571 
L 107.92857 85.071571 
L 107.92857 94.213017 
" clip-path="url(#p116cffa488)" style="fill: none; stroke: #000000; stroke-width: 2; stroke-linecap: round"/>
   </g>
   <g id="line2d_29">
    <path d="M 173.442262 59.932597 
L 168.871539 59.932597 
L 168.871539 77.4537 
" clip-path="url(#p116cffa488)" style="fill: none; stroke: #000000; stroke-width: 2; stroke-linecap: round"/>
   </g>
   <g id="line2d_30">
    <path d="M 234.385231 61.456171 
L 229.814508 61.456171 
L 229.814508 52.314726 
" clip-path="url(#p116cffa488)" style="fill: none; stroke: #000000; stroke-width: 2; stroke-linecap: round"/>
   </g>
   <g id="line2d_31">
    <path d="M 293.804625 78.215487 
L 290.757477 78.215487 
L 290.757477 69.074042 
" clip-path="url(#p116cffa488)" style="fill: none; stroke: #000000; stroke-width: 2; stroke-linecap: round"/>
   </g>
   <g id="line2d_32">
    <path d="M 356.271168 94.974804 
L 351.700446 94.974804 
L 351.700446 85.833358 
" clip-path="url(#p116cffa488)" style="fill: none; stroke: #000000; stroke-width: 2; stroke-linecap: round"/>
   </g>
   <g id="text_1">
    <g clip-path="url(#p116cffa488)">
     <!-- output -->
     <g transform="translate(415.690563 106.041894) scale(0.125 -0.125)">
      <defs>
       <path id="DejaVuSans-6f" d="M 1959 3097 
Q 1497 3097 1228 2736 
Q 959 2375 959 1747 
Q 959 1119 1226 758 
Q 1494 397 1959 397 
Q 2419 397 2687 759 
Q 2956 1122 2956 1747 
Q 2956 2369 2687 2733 
Q 2419 3097 1959 3097 
z
M 1959 3584 
Q 2709 3584 3137 3096 
Q 3566 2609 3566 1747 
Q 3566 888 3137 398 
Q 2709 -91 1959 -91 
Q 1206 -91 779 398 
Q 353 888 353 1747 
Q 353 2609 779 3096 
Q 1206 3584 1959 3584 
z
" transform="scale(0.015625)"/>
       <path id="DejaVuSans-75" d="M 544 1381 
L 544 3500 
L 1119 3500 
L 1119 1403 
Q 1119 906 1312 657 
Q 1506 409 1894 409 
Q 2359 409 2629 706 
Q 2900 1003 2900 1516 
L 2900 3500 
L 3475 3500 
L 3475 0 
L 2900 0 
L 2900 538 
Q 2691 219 2414 64 
Q 2138 -91 1772 -91 
Q 1169 -91 856 284 
Q 544 659 544 1381 
z
M 1991 3584 
L 1991 3584 
z
" transform="scale(0.015625)"/>
       <path id="DejaVuSans-74" d="M 1172 4494 
L 1172 3500 
L 2356 3500 
L 2356 3053 
L 1172 3053 
L 1172 1153 
Q 1172 725 1289 603 
Q 1406 481 1766 481 
L 2356 481 
L 2356 0 
L 1766 0 
Q 1100 0 847 248 
Q 594 497 594 1153 
L 594 3053 
L 172 3053 
L 172 3500 
L 594 3500 
L 594 4494 
L 1172 4494 
z
" transform="scale(0.015625)"/>
       <path id="DejaVuSans-70" d="M 1159 525 
L 1159 -1331 
L 581 -1331 
L 581 3500 
L 1159 3500 
L 1159 2969 
Q 1341 3281 1617 3432 
Q 1894 3584 2278 3584 
Q 2916 3584 3314 3078 
Q 3713 2572 3713 1747 
Q 3713 922 3314 415 
Q 2916 -91 2278 -91 
Q 1894 -91 1617 61 
Q 1341 213 1159 525 
z
M 3116 1747 
Q 3116 2381 2855 2742 
Q 2594 3103 2138 3103 
Q 1681 3103 1420 2742 
Q 1159 2381 1159 1747 
Q 1159 1113 1420 752 
Q 1681 391 2138 391 
Q 2594 391 2855 752 
Q 3116 1113 3116 1747 
z
" transform="scale(0.015625)"/>
      </defs>
      <use xlink:href="#DejaVuSans-6f"/>
      <use xlink:href="#DejaVuSans-75" x="61.181641"/>
      <use xlink:href="#DejaVuSans-74" x="124.560547"/>
      <use xlink:href="#DejaVuSans-70" x="163.769531"/>
      <use xlink:href="#DejaVuSans-75" x="227.246094"/>
      <use xlink:href="#DejaVuSans-74" x="290.625"/>
     </g>
    </g>
   </g>
   <g id="text_2">
    <g clip-path="url(#p116cffa488)">
     <!-- TRUE -->
     <g transform="translate(319.856833 113.659765) scale(0.125 -0.125)">
      <defs>
       <path id="DejaVuSans-54" d="M -19 4666 
L 3928 4666 
L 3928 4134 
L 2272 4134 
L 2272 0 
L 1638 0 
L 1638 4134 
L -19 4134 
L -19 4666 
z
" transform="scale(0.015625)"/>
       <path id="DejaVuSans-52" d="M 2841 2188 
Q 3044 2119 3236 1894 
Q 3428 1669 3622 1275 
L 4263 0 
L 3584 0 
L 2988 1197 
Q 2756 1666 2539 1819 
Q 2322 1972 1947 1972 
L 1259 1972 
L 1259 0 
L 628 0 
L 628 4666 
L 2053 4666 
Q 2853 4666 3247 4331 
Q 3641 3997 3641 3322 
Q 3641 2881 3436 2590 
Q 3231 2300 2841 2188 
z
M 1259 4147 
L 1259 2491 
L 2053 2491 
Q 2509 2491 2742 2702 
Q 2975 2913 2975 3322 
Q 2975 3731 2742 3939 
Q 2509 4147 2053 4147 
L 1259 4147 
z
" transform="scale(0.015625)"/>
       <path id="DejaVuSans-55" d="M 556 4666 
L 1191 4666 
L 1191 1831 
Q 1191 1081 1462 751 
Q 1734 422 2344 422 
Q 2950 422 3222 751 
Q 3494 1081 3494 1831 
L 3494 4666 
L 4128 4666 
L 4128 1753 
Q 4128 841 3676 375 
Q 3225 -91 2344 -91 
Q 1459 -91 1007 375 
Q 556 841 556 1753 
L 556 4666 
z
" transform="scale(0.015625)"/>
       <path id="DejaVuSans-45" d="M 628 4666 
L 3578 4666 
L 3578 4134 
L 1259 4134 
L 1259 2753 
L 3481 2753 
L 3481 2222 
L 1259 2222 
L 1259 531 
L 3634 531 
L 3634 0 
L 628 0 
L 628 4666 
z
" transform="scale(0.015625)"/>
      </defs>
      <use xlink:href="#DejaVuSans-54"/>
      <use xlink:href="#DejaVuSans-52" x="61.083984"/>
      <use xlink:href="#DejaVuSans-55" x="130.566406"/>
      <use xlink:href="#DejaVuSans-45" x="203.759766"/>
     </g>
    </g>
   </g>
   <g id="text_3">
    <g clip-path="url(#p116cffa488)">
     <!-- FALSE -->
     <g transform="translate(253.359039 96.900448) scale(0.125 -0.125)">
      <defs>
       <path id="DejaVuSans-46" d="M 628 4666 
L 3309 4666 
L 3309 4134 
L 1259 4134 
L 1259 2759 
L 3109 2759 
L 3109 2228 
L 1259 2228 
L 1259 0 
L 628 0 
L 628 4666 
z
" transform="scale(0.015625)"/>
       <path id="DejaVuSans-41" d="M 2188 4044 
L 1331 1722 
L 3047 1722 
L 2188 4044 
z
M 1831 4666 
L 2547 4666 
L 4325 0 
L 3669 0 
L 3244 1197 
L 1141 1197 
L 716 0 
L 50 0 
L 1831 4666 
z
" transform="scale(0.015625)"/>
       <path id="DejaVuSans-4c" d="M 628 4666 
L 1259 4666 
L 1259 531 
L 3531 531 
L 3531 0 
L 628 0 
L 628 4666 
z
" transform="scale(0.015625)"/>
       <path id="DejaVuSans-53" d="M 3425 4513 
L 3425 3897 
Q 3066 4069 2747 4153 
Q 2428 4238 2131 4238 
Q 1616 4238 1336 4038 
Q 1056 3838 1056 3469 
Q 1056 3159 1242 3001 
Q 1428 2844 1947 2747 
L 2328 2669 
Q 3034 2534 3370 2195 
Q 3706 1856 3706 1288 
Q 3706 609 3251 259 
Q 2797 -91 1919 -91 
Q 1588 -91 1214 -16 
Q 841 59 441 206 
L 441 856 
Q 825 641 1194 531 
Q 1563 422 1919 422 
Q 2459 422 2753 634 
Q 3047 847 3047 1241 
Q 3047 1584 2836 1778 
Q 2625 1972 2144 2069 
L 1759 2144 
Q 1053 2284 737 2584 
Q 422 2884 422 3419 
Q 422 4038 858 4394 
Q 1294 4750 2059 4750 
Q 2388 4750 2728 4690 
Q 3069 4631 3425 4513 
z
" transform="scale(0.015625)"/>
      </defs>
      <use xlink:href="#DejaVuSans-46"/>
      <use xlink:href="#DejaVuSans-41" x="48.394531"/>
      <use xlink:href="#DejaVuSans-4c" x="116.802734"/>
      <use xlink:href="#DejaVuSans-53" x="172.515625"/>
      <use xlink:href="#DejaVuSans-45" x="235.992188"/>
     </g>
    </g>
   </g>
   <g id="text_4">
    <g clip-path="url(#p116cffa488)">
     <!-- TRUE -->
     <g transform="translate(197.970895 80.141132) scale(0.125 -0.125)">
      <use xlink:href="#DejaVuSans-54"/>
      <use xlink:href="#DejaVuSans-52" x="61.083984"/>
      <use xlink:href="#DejaVuSans-55" x="130.566406"/>
      <use xlink:href="#DejaVuSans-45" x="203.759766"/>
     </g>
    </g>
   </g>
   <g id="text_5">
    <g clip-path="url(#p116cffa488)">
     <!-- a -->
     <g transform="translate(97.221266 30.62497) scale(0.125 -0.125)">
      <defs>
       <path id="DejaVuSans-61" d="M 2194 1759 
Q 1497 1759 1228 1600 
Q 959 1441 959 1056 
Q 959 750 1161 570 
Q 1363 391 1709 391 
Q 2188 391 2477 730 
Q 2766 1069 2766 1631 
L 2766 1759 
L 2194 1759 
z
M 3341 1997 
L 3341 0 
L 2766 0 
L 2766 531 
Q 2569 213 2275 61 
Q 1981 -91 1556 -91 
Q 1019 -91 701 211 
Q 384 513 384 1019 
Q 384 1609 779 1909 
Q 1175 2209 1959 2209 
L 2766 2209 
L 2766 2266 
Q 2766 2663 2505 2880 
Q 2244 3097 1772 3097 
Q 1472 3097 1187 3025 
Q 903 2953 641 2809 
L 641 3341 
Q 956 3463 1253 3523 
Q 1550 3584 1831 3584 
Q 2591 3584 2966 3190 
Q 3341 2797 3341 1997 
z
" transform="scale(0.015625)"/>
      </defs>
      <use xlink:href="#DejaVuSans-61"/>
     </g>
    </g>
   </g>
   <g id="text_6">
    <g clip-path="url(#p116cffa488)">
     <!-- b -->
     <g transform="translate(101.516598 73.285048) scale(0.125 -0.125)">
      <defs>
       <path id="DejaVuSans-62" d="M 3116 1747 
Q 3116 2381 2855 2742 
Q 2594 3103 2138 3103 
Q 1681 3103 1420 2742 
Q 1159 2381 1159 1747 
Q 1159 1113 1420 752 
Q 1681 391 2138 391 
Q 2594 391 2855 752 
Q 3116 1113 3116 1747 
z
M 1159 2969 
Q 1341 3281 1617 3432 
Q 1894 3584 2278 3584 
Q 2916 3584 3314 3078 
Q 3713 2572 3713 1747 
Q 3713 922 3314 415 
Q 2916 -91 2278 -91 
Q 1894 -91 1617 61 
Q 1341 213 1159 525 
L 1159 0 
L 581 0 
L 581 4863 
L 1159 4863 
L 1159 2969 
z
" transform="scale(0.015625)"/>
      </defs>
      <use xlink:href="#DejaVuSans-62"/>
     </g>
    </g>
   </g>
   <g id="text_7">
    <g clip-path="url(#p116cffa488)">
     <!-- c -->
     <g transform="translate(40.112555 90.044364) scale(0.125 -0.125)">
      <defs>
       <path id="DejaVuSans-63" d="M 3122 3366 
L 3122 2828 
Q 2878 2963 2633 3030 
Q 2388 3097 2138 3097 
Q 1578 3097 1268 2742 
Q 959 2388 959 1747 
Q 959 1106 1268 751 
Q 1578 397 2138 397 
Q 2388 397 2633 464 
Q 2878 531 3122 666 
L 3122 134 
Q 2881 22 2623 -34 
Q 2366 -91 2075 -91 
Q 1284 -91 818 406 
Q 353 903 353 1747 
Q 353 2603 823 3093 
Q 1294 3584 2113 3584 
Q 2378 3584 2631 3529 
Q 2884 3475 3122 3366 
z
" transform="scale(0.015625)"/>
      </defs>
      <use xlink:href="#DejaVuSans-63"/>
     </g>
    </g>
   </g>
   <g id="text_8">
    <g clip-path="url(#p116cffa488)">
     <!-- TRUE -->
     <g transform="translate(13.618414 105.280107) scale(0.125 -0.125)">
      <use xlink:href="#DejaVuSans-54"/>
      <use xlink:href="#DejaVuSans-52" x="61.083984"/>
      <use xlink:href="#DejaVuSans-55" x="130.566406"/>
      <use xlink:href="#DejaVuSans-45" x="203.759766"/>
     </g>
    </g>
   </g>
  </g>
 </g>
 <defs>
  <clipPath id="p116cffa488">
   <rect x="7.2" y="7.2" width="457.854368" height="116.892"/>
  </clipPath>
 </defs>
</svg>
