<?xml version="1.0" encoding="utf-8" standalone="no"?>
<!DOCTYPE svg PUBLIC "-//W3C//DTD SVG 1.1//EN"
  "http://www.w3.org/Graphics/SVG/1.1/DTD/svg11.dtd">
<svg xmlns:xlink="http://www.w3.org/1999/xlink" width="327.716592pt" height="150.264pt" viewBox="0 0 327.716592 150.264" xmlns="http://www.w3.org/2000/svg" version="1.1">
 <metadata>
  <rdf:RDF xmlns:dc="http://purl.org/dc/elements/1.1/" xmlns:cc="http://creativecommons.org/ns#" xmlns:rdf="http://www.w3.org/1999/02/22-rdf-syntax-ns#">
   <cc:Work>
    <dc:type rdf:resource="http://purl.org/dc/dcmitype/StillImage"/>
    <dc:date>2022-11-07T10:30:03.926572</dc:date>
    <dc:format>image/svg+xml</dc:format>
    <dc:creator>
     <cc:Agent>
      <dc:title>Matplotlib v3.6.0, https://matplotlib.org/</dc:title>
     </cc:Agent>
    </dc:creator>
   </cc:Work>
  </rdf:RDF>
 </metadata>
 <defs>
  <style type="text/css">*{stroke-linejoin: round; stroke-linecap: butt}</style>
 </defs>
 <g id="figure_1">
  <g id="patch_1">
   <path d="M 0 150.264 
L 327.716592 150.264 
L 327.716592 0 
L 0 0 
L 0 150.264 
z
" style="fill: none"/>
  </g>
  <g id="axes_1">
   <g id="patch_2">
    <path d="M 199.676833 80.638622 
C 200.650415 80.638622 201.584253 80.251814 202.272679 79.563387 
C 202.961106 78.874961 203.347914 77.941123 203.347914 76.967541 
C 203.347914 75.993959 202.961106 75.060121 202.272679 74.371694 
C 201.584253 73.683268 200.650415 73.296459 199.676833 73.296459 
C 198.70325 73.296459 197.769413 73.683268 197.080986 74.371694 
C 196.39256 75.060121 196.005751 75.993959 196.005751 76.967541 
C 196.005751 77.941123 196.39256 78.874961 197.080986 79.563387 
C 197.769413 80.251814 198.70325 80.638622 199.676833 80.638622 
L 199.676833 80.638622 
z
" clip-path="url(#p1d003ce479)" style="fill: none; stroke: #000000; stroke-width: 2; stroke-linejoin: miter"/>
   </g>
   <g id="patch_3">
    <path d="M 138.492144 38.574149 
C 139.465726 38.574149 140.399564 38.18734 141.087991 37.498914 
C 141.776417 36.810487 142.163225 35.876649 142.163225 34.903067 
C 142.163225 33.929485 141.776417 32.995647 141.087991 32.307221 
C 140.399564 31.618794 139.465726 31.231986 138.492144 31.231986 
C 137.518562 31.231986 136.584724 31.618794 135.896298 32.307221 
C 135.207871 32.995647 134.821063 33.929485 134.821063 34.903067 
C 134.821063 35.876649 135.207871 36.810487 135.896298 37.498914 
C 136.584724 38.18734 137.518562 38.574149 138.492144 38.574149 
L 138.492144 38.574149 
z
" clip-path="url(#p1d003ce479)" style="fill: none; stroke: #000000; stroke-width: 2; stroke-linejoin: miter"/>
   </g>
   <g id="patch_4">
    <path d="M 138.492144 122.703095 
C 139.465726 122.703095 140.399564 122.316287 141.087991 121.62786 
C 141.776417 120.939434 142.163225 120.005596 142.163225 119.032014 
C 142.163225 118.058432 141.776417 117.124594 141.087991 116.436168 
C 140.399564 115.747741 139.465726 115.360933 138.492144 115.360933 
C 137.518562 115.360933 136.584724 115.747741 135.896298 116.436168 
C 135.207871 117.124594 134.821063 118.058432 134.821063 119.032014 
C 134.821063 120.005596 135.207871 120.939434 135.896298 121.62786 
C 136.584724 122.316287 137.518562 122.703095 138.492144 122.703095 
L 138.492144 122.703095 
z
" clip-path="url(#p1d003ce479)" style="fill: none; stroke: #000000; stroke-width: 2; stroke-linejoin: miter"/>
   </g>
   <g id="line2d_1">
    <path d="M 241.894268 109.089502 
L 242.874297 109.058075 
L 243.850299 108.963921 
L 244.818263 108.807428 
L 245.774212 108.589239 
L 246.714217 108.31025 
L 247.634416 107.971608 
L 248.531028 107.574705 
L 249.400368 107.121171 
L 250.238863 106.61287 
L 251.043069 106.051891 
L 251.809681 105.440538 
L 252.535548 104.781325 
L 253.217687 104.07696 
L 253.853297 103.330337 
L 254.439764 102.544525 
L 254.974679 101.722752 
L 255.455843 100.868395 
L 255.881281 99.984966 
L 256.249242 99.076093 
L 256.558216 98.145513 
L 256.806933 97.197049 
L 256.99437 96.234597 
L 257.119758 95.262115 
L 257.182581 94.283596 
L 257.182581 93.303064 
L 257.119758 92.324545 
L 256.99437 91.352063 
L 256.806933 90.389611 
L 256.558216 89.441147 
L 256.249242 88.510567 
L 255.881281 87.601694 
L 255.455843 86.718265 
L 254.974679 85.863908 
L 254.439764 85.042135 
L 253.853297 84.256323 
L 253.217687 83.5097 
L 252.535548 82.805335 
L 251.809681 82.146122 
L 251.043069 81.534769 
L 250.238863 80.97379 
L 249.400368 80.465489 
L 248.531028 80.011955 
L 247.634416 79.615052 
L 246.714217 79.27641 
L 245.774212 78.997421 
L 244.818263 78.779232 
L 243.850299 78.622739 
L 242.874297 78.528585 
L 241.894268 78.497158 
L 241.894268 78.497158 
L 222.009244 78.497158 
L 222.009244 93.79333 
L 222.009244 109.089502 
L 241.894268 109.089502 
" clip-path="url(#p1d003ce479)" style="fill: none; stroke: #000000; stroke-width: 2; stroke-linecap: round"/>
   </g>
   <g id="line2d_2">
    <path d="M 211.301923 101.441416 
L 222.009244 101.441416 
" clip-path="url(#p1d003ce479)" style="fill: none; stroke: #000000; stroke-width: 2; stroke-linecap: round"/>
   </g>
   <g id="line2d_3">
    <path d="M 211.301923 86.145244 
L 222.009244 86.145244 
" clip-path="url(#p1d003ce479)" style="fill: none; stroke: #000000; stroke-width: 2; stroke-linecap: round"/>
   </g>
   <g id="line2d_4">
    <path d="M 257.19044 93.79333 
L 267.89776 93.79333 
" clip-path="url(#p1d003ce479)" style="fill: none; stroke: #000000; stroke-width: 2; stroke-linecap: round"/>
   </g>
   <g id="line2d_5">
    <path d="M 180.709579 92.263713 
L 181.689608 92.232285 
L 182.66561 92.138131 
L 183.633574 91.981638 
L 184.589523 91.763449 
L 185.529529 91.484461 
L 186.449728 91.145819 
L 187.34634 90.748916 
L 188.215679 90.295382 
L 189.054175 89.787081 
L 189.858381 89.226101 
L 190.624992 88.614749 
L 191.350859 87.955536 
L 192.032999 87.251171 
L 192.668608 86.504548 
L 193.255075 85.718736 
L 193.78999 84.896963 
L 194.271155 84.042606 
L 194.696592 83.159176 
L 195.064554 82.250304 
L 195.373528 81.319724 
L 195.622244 80.371259 
L 195.809682 79.408808 
L 195.935069 78.436325 
L 195.997892 77.457807 
L 195.997892 76.477274 
L 195.935069 75.498756 
L 195.809682 74.526273 
L 195.622244 73.563822 
L 195.373528 72.615358 
L 195.064554 71.684777 
L 194.696592 70.775905 
L 194.271155 69.892475 
L 193.78999 69.038119 
L 193.255075 68.216346 
L 192.668608 67.430533 
L 192.032999 66.683911 
L 191.350859 65.979545 
L 190.624992 65.320332 
L 189.858381 64.70898 
L 189.054175 64.148001 
L 188.215679 63.6397 
L 187.34634 63.186166 
L 186.449728 62.789262 
L 185.529529 62.450621 
L 184.589523 62.171632 
L 183.633574 61.953443 
L 182.66561 61.79695 
L 181.689608 61.702796 
L 180.709579 61.671369 
L 180.709579 61.671369 
L 160.824555 61.671369 
L 160.824555 76.967541 
L 160.824555 92.263713 
L 180.709579 92.263713 
" clip-path="url(#p1d003ce479)" style="fill: none; stroke: #000000; stroke-width: 2; stroke-linecap: round"/>
   </g>
   <g id="line2d_6">
    <path d="M 150.117235 84.615627 
L 160.824555 84.615627 
" clip-path="url(#p1d003ce479)" style="fill: none; stroke: #000000; stroke-width: 2; stroke-linecap: round"/>
   </g>
   <g id="line2d_7">
    <path d="M 150.117235 69.319455 
L 160.824555 69.319455 
" clip-path="url(#p1d003ce479)" style="fill: none; stroke: #000000; stroke-width: 2; stroke-linecap: round"/>
   </g>
   <g id="line2d_8">
    <path d="M 203.347914 76.967541 
L 206.713072 76.967541 
" clip-path="url(#p1d003ce479)" style="fill: none; stroke: #000000; stroke-width: 2; stroke-linecap: round"/>
   </g>
   <g id="line2d_9">
    <path d="M 119.524891 50.199239 
L 120.50492 50.167812 
L 121.480922 50.073658 
L 122.448886 49.917165 
L 123.404835 49.698976 
L 124.34484 49.419987 
L 125.265039 49.081346 
L 126.161651 48.684442 
L 127.030991 48.230908 
L 127.869486 47.722607 
L 128.673692 47.161628 
L 129.440304 46.550276 
L 130.166171 45.891063 
L 130.84831 45.186697 
L 131.48392 44.440075 
L 132.070387 43.654262 
L 132.605302 42.832489 
L 133.086466 41.978133 
L 133.511904 41.094703 
L 133.879865 40.185831 
L 134.188839 39.25525 
L 134.437556 38.306786 
L 134.624993 37.344335 
L 134.750381 36.371852 
L 134.813204 35.393334 
L 134.813204 34.412801 
L 134.750381 33.434283 
L 134.624993 32.4618 
L 134.437556 31.499349 
L 134.188839 30.550884 
L 133.879865 29.620304 
L 133.511904 28.711432 
L 133.086466 27.828002 
L 132.605302 26.973645 
L 132.070387 26.151872 
L 131.48392 25.36606 
L 130.84831 24.619437 
L 130.166171 23.915072 
L 129.440304 23.255859 
L 128.673692 22.644507 
L 127.869486 22.083527 
L 127.030991 21.575226 
L 126.161651 21.121692 
L 125.265039 20.724789 
L 124.34484 20.386147 
L 123.404835 20.107159 
L 122.448886 19.888969 
L 121.480922 19.732477 
L 120.50492 19.638323 
L 119.524891 19.606895 
L 119.524891 19.606895 
L 99.639867 19.606895 
L 99.639867 34.903067 
L 99.639867 50.199239 
L 119.524891 50.199239 
" clip-path="url(#p1d003ce479)" style="fill: none; stroke: #000000; stroke-width: 2; stroke-linecap: round"/>
   </g>
   <g id="line2d_10">
    <path d="M 88.932546 42.551153 
L 99.639867 42.551153 
" clip-path="url(#p1d003ce479)" style="fill: none; stroke: #000000; stroke-width: 2; stroke-linecap: round"/>
   </g>
   <g id="line2d_11">
    <path d="M 88.932546 27.254981 
L 99.639867 27.254981 
" clip-path="url(#p1d003ce479)" style="fill: none; stroke: #000000; stroke-width: 2; stroke-linecap: round"/>
   </g>
   <g id="line2d_12">
    <path d="M 142.163225 34.903067 
L 145.528383 34.903067 
" clip-path="url(#p1d003ce479)" style="fill: none; stroke: #000000; stroke-width: 2; stroke-linecap: round"/>
   </g>
   <g id="line2d_13">
    <path d="M 150.117235 69.319455 
L 145.528383 69.319455 
L 145.528383 34.903067 
" clip-path="url(#p1d003ce479)" style="fill: none; stroke: #000000; stroke-width: 2; stroke-linecap: round"/>
   </g>
   <g id="line2d_14">
    <path d="M 119.524891 134.328186 
L 120.50492 134.296759 
L 121.480922 134.202605 
L 122.448886 134.046112 
L 123.404835 133.827923 
L 124.34484 133.548934 
L 125.265039 133.210292 
L 126.161651 132.813389 
L 127.030991 132.359855 
L 127.869486 131.851554 
L 128.673692 131.290575 
L 129.440304 130.679222 
L 130.166171 130.020009 
L 130.84831 129.315644 
L 131.48392 128.569021 
L 132.070387 127.783209 
L 132.605302 126.961436 
L 133.086466 126.107079 
L 133.511904 125.22365 
L 133.879865 124.314777 
L 134.188839 123.384197 
L 134.437556 122.435733 
L 134.624993 121.473281 
L 134.750381 120.500799 
L 134.813204 119.52228 
L 134.813204 118.541748 
L 134.750381 117.563229 
L 134.624993 116.590747 
L 134.437556 115.628296 
L 134.188839 114.679831 
L 133.879865 113.749251 
L 133.511904 112.840378 
L 133.086466 111.956949 
L 132.605302 111.102592 
L 132.070387 110.280819 
L 131.48392 109.495007 
L 130.84831 108.748384 
L 130.166171 108.044019 
L 129.440304 107.384806 
L 128.673692 106.773453 
L 127.869486 106.212474 
L 127.030991 105.704173 
L 126.161651 105.250639 
L 125.265039 104.853736 
L 124.34484 104.515094 
L 123.404835 104.236105 
L 122.448886 104.017916 
L 121.480922 103.861423 
L 120.50492 103.76727 
L 119.524891 103.735842 
L 119.524891 103.735842 
L 99.639867 103.735842 
L 99.639867 119.032014 
L 99.639867 134.328186 
L 119.524891 134.328186 
" clip-path="url(#p1d003ce479)" style="fill: none; stroke: #000000; stroke-width: 2; stroke-linecap: round"/>
   </g>
   <g id="line2d_15">
    <path d="M 88.932546 129.127488 
L 99.639867 129.127488 
" clip-path="url(#p1d003ce479)" style="fill: none; stroke: #000000; stroke-width: 2; stroke-linecap: round"/>
   </g>
   <g id="line2d_16">
    <path d="M 88.932546 119.032014 
L 99.639867 119.032014 
" clip-path="url(#p1d003ce479)" style="fill: none; stroke: #000000; stroke-width: 2; stroke-linecap: round"/>
   </g>
   <g id="line2d_17">
    <path d="M 88.932546 108.93654 
L 99.639867 108.93654 
" clip-path="url(#p1d003ce479)" style="fill: none; stroke: #000000; stroke-width: 2; stroke-linecap: round"/>
   </g>
   <g id="line2d_18">
    <path d="M 142.163225 119.032014 
L 145.528383 119.032014 
" clip-path="url(#p1d003ce479)" style="fill: none; stroke: #000000; stroke-width: 2; stroke-linecap: round"/>
   </g>
   <g id="line2d_19">
    <path d="M 36.925561 100.370684 
L 53.969867 100.270791 
L 55.718001 99.971111 
L 57.466135 99.471644 
L 59.214269 98.77239 
L 60.962403 97.87335 
L 63.147571 96.468599 
L 65.332738 94.751682 
L 67.517905 92.722598 
L 69.703073 90.381347 
L 71.88824 87.727929 
L 73.636374 85.380435 
L 73.636374 85.380435 
L 71.014173 81.934114 
L 68.829006 79.405563 
L 66.643838 77.189179 
L 64.458671 75.284962 
L 62.273504 73.692911 
L 60.088336 72.413027 
L 58.340202 71.61388 
L 56.592068 71.01452 
L 54.843934 70.614947 
L 53.0958 70.41516 
L 52.221733 70.390187 
L 36.925561 70.390187 
L 36.925561 70.390187 
L 39.12821 72.837574 
L 40.523221 74.673115 
L 41.697967 76.508655 
L 42.652448 78.344196 
L 43.386664 80.179737 
L 43.900616 82.015277 
L 44.194302 83.850818 
L 44.267724 85.686359 
L 44.120881 87.521899 
L 43.753772 89.35744 
L 43.166399 91.192981 
L 42.358762 93.028521 
L 41.330859 94.864062 
L 40.082691 96.699603 
L 38.614259 98.535143 
L 36.925561 100.370684 
L 36.925561 100.370684 
" clip-path="url(#p1d003ce479)" style="fill: none; stroke: #000000; stroke-width: 2; stroke-linecap: round"/>
   </g>
   <g id="line2d_20">
    <path d="M 26.218241 93.028521 
L 42.358762 93.028521 
" clip-path="url(#p1d003ce479)" style="fill: none; stroke: #000000; stroke-width: 2; stroke-linecap: round"/>
   </g>
   <g id="line2d_21">
    <path d="M 26.218241 77.732349 
L 42.358762 77.732349 
" clip-path="url(#p1d003ce479)" style="fill: none; stroke: #000000; stroke-width: 2; stroke-linecap: round"/>
   </g>
   <g id="line2d_22">
    <path d="M 73.636374 85.380435 
L 84.343695 85.380435 
" clip-path="url(#p1d003ce479)" style="fill: none; stroke: #000000; stroke-width: 2; stroke-linecap: round"/>
   </g>
   <g id="line2d_23">
    <path d="M 88.932546 108.93654 
L 84.343695 108.93654 
L 84.343695 85.380435 
" clip-path="url(#p1d003ce479)" style="fill: none; stroke: #000000; stroke-width: 2; stroke-linecap: round"/>
   </g>
   <g id="line2d_24">
    <path d="M 150.117235 84.615627 
L 145.528383 84.615627 
L 145.528383 119.032014 
" clip-path="url(#p1d003ce479)" style="fill: none; stroke: #000000; stroke-width: 2; stroke-linecap: round"/>
   </g>
   <g id="line2d_25">
    <path d="M 211.301923 86.145244 
L 206.713072 86.145244 
L 206.713072 76.967541 
" clip-path="url(#p1d003ce479)" style="fill: none; stroke: #000000; stroke-width: 2; stroke-linecap: round"/>
   </g>
   <g id="text_1">
    <g clip-path="url(#p1d003ce479)">
     <!-- output -->
     <g transform="translate(270.956995 97.242549) scale(0.125 -0.125)">
      <defs>
       <path id="DejaVuSans-6f" d="M 1959 3097 
Q 1497 3097 1228 2736 
Q 959 2375 959 1747 
Q 959 1119 1226 758 
Q 1494 397 1959 397 
Q 2419 397 2687 759 
Q 2956 1122 2956 1747 
Q 2956 2369 2687 2733 
Q 2419 3097 1959 3097 
z
M 1959 3584 
Q 2709 3584 3137 3096 
Q 3566 2609 3566 1747 
Q 3566 888 3137 398 
Q 2709 -91 1959 -91 
Q 1206 -91 779 398 
Q 353 888 353 1747 
Q 353 2609 779 3096 
Q 1206 3584 1959 3584 
z
" transform="scale(0.015625)"/>
       <path id="DejaVuSans-75" d="M 544 1381 
L 544 3500 
L 1119 3500 
L 1119 1403 
Q 1119 906 1312 657 
Q 1506 409 1894 409 
Q 2359 409 2629 706 
Q 2900 1003 2900 1516 
L 2900 3500 
L 3475 3500 
L 3475 0 
L 2900 0 
L 2900 538 
Q 2691 219 2414 64 
Q 2138 -91 1772 -91 
Q 1169 -91 856 284 
Q 544 659 544 1381 
z
M 1991 3584 
L 1991 3584 
z
" transform="scale(0.015625)"/>
       <path id="DejaVuSans-74" d="M 1172 4494 
L 1172 3500 
L 2356 3500 
L 2356 3053 
L 1172 3053 
L 1172 1153 
Q 1172 725 1289 603 
Q 1406 481 1766 481 
L 2356 481 
L 2356 0 
L 1766 0 
Q 1100 0 847 248 
Q 594 497 594 1153 
L 594 3053 
L 172 3053 
L 172 3500 
L 594 3500 
L 594 4494 
L 1172 4494 
z
" transform="scale(0.015625)"/>
       <path id="DejaVuSans-70" d="M 1159 525 
L 1159 -1331 
L 581 -1331 
L 581 3500 
L 1159 3500 
L 1159 2969 
Q 1341 3281 1617 3432 
Q 1894 3584 2278 3584 
Q 2916 3584 3314 3078 
Q 3713 2572 3713 1747 
Q 3713 922 3314 415 
Q 2916 -91 2278 -91 
Q 1894 -91 1617 61 
Q 1341 213 1159 525 
z
M 3116 1747 
Q 3116 2381 2855 2742 
Q 2594 3103 2138 3103 
Q 1681 3103 1420 2742 
Q 1159 2381 1159 1747 
Q 1159 1113 1420 752 
Q 1681 391 2138 391 
Q 2594 391 2855 752 
Q 3116 1113 3116 1747 
z
" transform="scale(0.015625)"/>
      </defs>
      <use xlink:href="#DejaVuSans-6f"/>
      <use xlink:href="#DejaVuSans-75" x="61.181641"/>
      <use xlink:href="#DejaVuSans-74" x="124.560547"/>
      <use xlink:href="#DejaVuSans-70" x="163.769531"/>
      <use xlink:href="#DejaVuSans-75" x="227.246094"/>
      <use xlink:href="#DejaVuSans-74" x="290.625"/>
     </g>
    </g>
   </g>
   <g id="text_2">
    <g clip-path="url(#p1d003ce479)">
     <!-- TRUE -->
     <g transform="translate(174.875502 104.890635) scale(0.125 -0.125)">
      <defs>
       <path id="DejaVuSans-54" d="M -19 4666 
L 3928 4666 
L 3928 4134 
L 2272 4134 
L 2272 0 
L 1638 0 
L 1638 4134 
L -19 4134 
L -19 4666 
z
" transform="scale(0.015625)"/>
       <path id="DejaVuSans-52" d="M 2841 2188 
Q 3044 2119 3236 1894 
Q 3428 1669 3622 1275 
L 4263 0 
L 3584 0 
L 2988 1197 
Q 2756 1666 2539 1819 
Q 2322 1972 1947 1972 
L 1259 1972 
L 1259 0 
L 628 0 
L 628 4666 
L 2053 4666 
Q 2853 4666 3247 4331 
Q 3641 3997 3641 3322 
Q 3641 2881 3436 2590 
Q 3231 2300 2841 2188 
z
M 1259 4147 
L 1259 2491 
L 2053 2491 
Q 2509 2491 2742 2702 
Q 2975 2913 2975 3322 
Q 2975 3731 2742 3939 
Q 2509 4147 2053 4147 
L 1259 4147 
z
" transform="scale(0.015625)"/>
       <path id="DejaVuSans-55" d="M 556 4666 
L 1191 4666 
L 1191 1831 
Q 1191 1081 1462 751 
Q 1734 422 2344 422 
Q 2950 422 3222 751 
Q 3494 1081 3494 1831 
L 3494 4666 
L 4128 4666 
L 4128 1753 
Q 4128 841 3676 375 
Q 3225 -91 2344 -91 
Q 1459 -91 1007 375 
Q 556 841 556 1753 
L 556 4666 
z
" transform="scale(0.015625)"/>
       <path id="DejaVuSans-45" d="M 628 4666 
L 3578 4666 
L 3578 4134 
L 1259 4134 
L 1259 2753 
L 3481 2753 
L 3481 2222 
L 1259 2222 
L 1259 531 
L 3634 531 
L 3634 0 
L 628 0 
L 628 4666 
z
" transform="scale(0.015625)"/>
      </defs>
      <use xlink:href="#DejaVuSans-54"/>
      <use xlink:href="#DejaVuSans-52" x="61.083984"/>
      <use xlink:href="#DejaVuSans-55" x="130.566406"/>
      <use xlink:href="#DejaVuSans-45" x="203.759766"/>
     </g>
    </g>
   </g>
   <g id="text_3">
    <g clip-path="url(#p1d003ce479)">
     <!-- a -->
     <g transform="translate(78.213156 30.7042) scale(0.125 -0.125)">
      <defs>
       <path id="DejaVuSans-61" d="M 2194 1759 
Q 1497 1759 1228 1600 
Q 959 1441 959 1056 
Q 959 750 1161 570 
Q 1363 391 1709 391 
Q 2188 391 2477 730 
Q 2766 1069 2766 1631 
L 2766 1759 
L 2194 1759 
z
M 3341 1997 
L 3341 0 
L 2766 0 
L 2766 531 
Q 2569 213 2275 61 
Q 1981 -91 1556 -91 
Q 1019 -91 701 211 
Q 384 513 384 1019 
Q 384 1609 779 1909 
Q 1175 2209 1959 2209 
L 2766 2209 
L 2766 2266 
Q 2766 2663 2505 2880 
Q 2244 3097 1772 3097 
Q 1472 3097 1187 3025 
Q 903 2953 641 2809 
L 641 3341 
Q 956 3463 1253 3523 
Q 1550 3584 1831 3584 
Q 2591 3584 2966 3190 
Q 3341 2797 3341 1997 
z
" transform="scale(0.015625)"/>
      </defs>
      <use xlink:href="#DejaVuSans-61"/>
     </g>
    </g>
   </g>
   <g id="text_4">
    <g clip-path="url(#p1d003ce479)">
     <!-- b -->
     <g transform="translate(77.937765 46.000372) scale(0.125 -0.125)">
      <defs>
       <path id="DejaVuSans-62" d="M 3116 1747 
Q 3116 2381 2855 2742 
Q 2594 3103 2138 3103 
Q 1681 3103 1420 2742 
Q 1159 2381 1159 1747 
Q 1159 1113 1420 752 
Q 1681 391 2138 391 
Q 2594 391 2855 752 
Q 3116 1113 3116 1747 
z
M 1159 2969 
Q 1341 3281 1617 3432 
Q 1894 3584 2278 3584 
Q 2916 3584 3314 3078 
Q 3713 2572 3713 1747 
Q 3713 922 3314 415 
Q 2916 -91 2278 -91 
Q 1894 -91 1617 61 
Q 1341 213 1159 525 
L 1159 0 
L 581 0 
L 581 4863 
L 1159 4863 
L 1159 2969 
z
" transform="scale(0.015625)"/>
      </defs>
      <use xlink:href="#DejaVuSans-62"/>
     </g>
    </g>
   </g>
   <g id="text_5">
    <g clip-path="url(#p1d003ce479)">
     <!-- b -->
     <g transform="translate(77.937765 122.481233) scale(0.125 -0.125)">
      <use xlink:href="#DejaVuSans-62"/>
     </g>
    </g>
   </g>
   <g id="text_6">
    <g clip-path="url(#p1d003ce479)">
     <!-- c -->
     <g transform="translate(79.000265 132.576706) scale(0.125 -0.125)">
      <defs>
       <path id="DejaVuSans-63" d="M 3122 3366 
L 3122 2828 
Q 2878 2963 2633 3030 
Q 2388 3097 2138 3097 
Q 1578 3097 1268 2742 
Q 959 2388 959 1747 
Q 959 1106 1268 751 
Q 1578 397 2138 397 
Q 2388 397 2633 464 
Q 2878 531 3122 666 
L 3122 134 
Q 2881 22 2623 -34 
Q 2366 -91 2075 -91 
Q 1284 -91 818 406 
Q 353 903 353 1747 
Q 353 2603 823 3093 
Q 1294 3584 2113 3584 
Q 2378 3584 2631 3529 
Q 2884 3475 3122 3366 
z
" transform="scale(0.015625)"/>
      </defs>
      <use xlink:href="#DejaVuSans-63"/>
     </g>
    </g>
   </g>
   <g id="text_7">
    <g clip-path="url(#p1d003ce479)">
     <!-- a -->
     <g transform="translate(15.49885 81.181568) scale(0.125 -0.125)">
      <use xlink:href="#DejaVuSans-61"/>
     </g>
    </g>
   </g>
   <g id="text_8">
    <g clip-path="url(#p1d003ce479)">
     <!-- a -->
     <g transform="translate(15.49885 96.47774) scale(0.125 -0.125)">
      <use xlink:href="#DejaVuSans-61"/>
     </g>
    </g>
   </g>
  </g>
 </g>
 <defs>
  <clipPath id="p1d003ce479">
   <rect x="7.2" y="7.2" width="313.316592" height="135.864"/>
  </clipPath>
 </defs>
</svg>
