<?xml version="1.0" encoding="utf-8" standalone="no"?>
<!DOCTYPE svg PUBLIC "-//W3C//DTD SVG 1.1//EN"
  "http://www.w3.org/Graphics/SVG/1.1/DTD/svg11.dtd">
<svg xmlns:xlink="http://www.w3.org/1999/xlink" width="269.418082pt" height="197.388pt" viewBox="0 0 269.418082 197.388" xmlns="http://www.w3.org/2000/svg" version="1.1">
 <metadata>
  <rdf:RDF xmlns:dc="http://purl.org/dc/elements/1.1/" xmlns:cc="http://creativecommons.org/ns#" xmlns:rdf="http://www.w3.org/1999/02/22-rdf-syntax-ns#">
   <cc:Work>
    <dc:type rdf:resource="http://purl.org/dc/dcmitype/StillImage"/>
    <dc:date>2022-12-17T13:18:07.163026</dc:date>
    <dc:format>image/svg+xml</dc:format>
    <dc:creator>
     <cc:Agent>
      <dc:title>Matplotlib v3.6.0, https://matplotlib.org/</dc:title>
     </cc:Agent>
    </dc:creator>
   </cc:Work>
  </rdf:RDF>
 </metadata>
 <defs>
  <style type="text/css">*{stroke-linejoin: round; stroke-linecap: butt}</style>
 </defs>
 <g id="figure_1">
  <g id="patch_1">
   <path d="M 0 197.388 
L 269.418082 197.388 
L 269.418082 0 
L 0 0 
L 0 197.388 
z
" style="fill: none"/>
  </g>
  <g id="axes_1">
   <g id="patch_2">
    <path d="M 202.603466 91.441738 
C 203.576388 91.441738 204.509592 91.055192 205.197552 90.367232 
C 205.885512 89.679272 206.272058 88.746068 206.272058 87.773146 
C 206.272058 86.800224 205.885512 85.867019 205.197552 85.17906 
C 204.509592 84.4911 203.576388 84.104554 202.603466 84.104554 
C 201.630544 84.104554 200.697339 84.4911 200.00938 85.17906 
C 199.32142 85.867019 198.934874 86.800224 198.934874 87.773146 
C 198.934874 88.746068 199.32142 89.679272 200.00938 90.367232 
C 200.697339 91.055192 201.630544 91.441738 202.603466 91.441738 
L 202.603466 91.441738 
z
" clip-path="url(#pd532ef732c)" style="fill: none; stroke: #000000; stroke-width: 2; stroke-linejoin: miter"/>
   </g>
   <g id="patch_3">
    <path d="M 141.460269 40.9986 
C 142.433191 40.9986 143.366396 40.612054 144.054355 39.924095 
C 144.742315 39.236135 145.128861 38.30293 145.128861 37.330009 
C 145.128861 36.357087 144.742315 35.423882 144.054355 34.735922 
C 143.366396 34.047963 142.433191 33.661417 141.460269 33.661417 
C 140.487347 33.661417 139.554143 34.047963 138.866183 34.735922 
C 138.178223 35.423882 137.791677 36.357087 137.791677 37.330009 
C 137.791677 38.30293 138.178223 39.236135 138.866183 39.924095 
C 139.554143 40.612054 140.487347 40.9986 141.460269 40.9986 
L 141.460269 40.9986 
z
" clip-path="url(#pd532ef732c)" style="fill: none; stroke: #000000; stroke-width: 2; stroke-linejoin: miter"/>
   </g>
   <g id="patch_4">
    <path d="M 66.712711 40.9986 
C 67.685633 40.9986 68.618838 40.612054 69.306797 39.924095 
C 69.994757 39.236135 70.381303 38.30293 70.381303 37.330009 
C 70.381303 36.357087 69.994757 35.423882 69.306797 34.735922 
C 68.618838 34.047963 67.685633 33.661417 66.712711 33.661417 
C 65.739789 33.661417 64.806585 34.047963 64.118625 34.735922 
C 63.430666 35.423882 63.04412 36.357087 63.04412 37.330009 
C 63.04412 38.30293 63.430666 39.236135 64.118625 39.924095 
C 64.806585 40.612054 65.739789 40.9986 66.712711 40.9986 
L 66.712711 40.9986 
z
" clip-path="url(#pd532ef732c)" style="fill: none; stroke: #000000; stroke-width: 2; stroke-linejoin: miter"/>
   </g>
   <g id="patch_5">
    <path d="M 141.460269 141.884875 
C 142.433191 141.884875 143.366396 141.498329 144.054355 140.810369 
C 144.742315 140.122409 145.128861 139.189205 145.128861 138.216283 
C 145.128861 137.243361 144.742315 136.310156 144.054355 135.622197 
C 143.366396 134.934237 142.433191 134.547691 141.460269 134.547691 
C 140.487347 134.547691 139.554143 134.934237 138.866183 135.622197 
C 138.178223 136.310156 137.791677 137.243361 137.791677 138.216283 
C 137.791677 139.189205 138.178223 140.122409 138.866183 140.810369 
C 139.554143 141.498329 140.487347 141.884875 141.460269 141.884875 
L 141.460269 141.884875 
z
" clip-path="url(#pd532ef732c)" style="fill: none; stroke: #000000; stroke-width: 2; stroke-linejoin: miter"/>
   </g>
   <g id="patch_6">
    <path d="M 66.712711 141.884875 
C 67.685633 141.884875 68.618838 141.498329 69.306797 140.810369 
C 69.994757 140.122409 70.381303 139.189205 70.381303 138.216283 
C 70.381303 137.243361 69.994757 136.310156 69.306797 135.622197 
C 68.618838 134.934237 67.685633 134.547691 66.712711 134.547691 
C 65.739789 134.547691 64.806585 134.934237 64.118625 135.622197 
C 63.430666 136.310156 63.04412 137.243361 63.04412 138.216283 
C 63.04412 139.189205 63.430666 140.122409 64.118625 140.810369 
C 64.806585 141.498329 65.739789 141.884875 66.712711 141.884875 
L 66.712711 141.884875 
z
" clip-path="url(#pd532ef732c)" style="fill: none; stroke: #000000; stroke-width: 2; stroke-linejoin: miter"/>
   </g>
   <g id="patch_7">
    <path d="M 66.712711 175.513633 
C 67.685633 175.513633 68.618838 175.127087 69.306797 174.439127 
C 69.994757 173.751167 70.381303 172.817963 70.381303 171.845041 
C 70.381303 170.872119 69.994757 169.938915 69.306797 169.250955 
C 68.618838 168.562995 67.685633 168.176449 66.712711 168.176449 
C 65.739789 168.176449 64.806585 168.562995 64.118625 169.250955 
C 63.430666 169.938915 63.04412 170.872119 63.04412 171.845041 
C 63.04412 172.817963 63.430666 173.751167 64.118625 174.439127 
C 64.806585 175.127087 65.739789 175.513633 66.712711 175.513633 
L 66.712711 175.513633 
z
" clip-path="url(#pd532ef732c)" style="fill: none; stroke: #000000; stroke-width: 2; stroke-linejoin: miter"/>
   </g>
   <g id="line2d_1">
    <path d="M 162.248956 102.753229 
L 179.281704 102.653403 
L 181.028652 102.353926 
L 182.775601 101.854798 
L 184.522549 101.156019 
L 186.269498 100.257588 
L 188.453183 98.85379 
L 190.636869 97.138037 
L 192.820554 95.110329 
L 195.00424 92.770666 
L 197.187925 90.119048 
L 198.934874 87.773146 
L 198.934874 87.773146 
L 196.314451 84.329162 
L 194.130766 81.802325 
L 191.94708 79.587444 
L 189.763394 77.684518 
L 187.579709 76.093547 
L 185.396023 74.814532 
L 183.649075 74.015926 
L 181.902126 73.416973 
L 180.155178 73.01767 
L 178.408229 72.818019 
L 177.534755 72.793063 
L 162.248956 72.793063 
L 162.248956 72.793063 
L 164.450111 75.23879 
L 165.844176 77.073086 
L 167.018125 78.907382 
L 167.971959 80.741678 
L 168.705678 82.575974 
L 169.21928 84.41027 
L 169.512768 86.244566 
L 169.58614 88.078862 
L 169.439396 89.913158 
L 169.072537 91.747453 
L 168.485562 93.581749 
L 167.678472 95.416045 
L 166.651266 97.250341 
L 165.403945 99.084637 
L 163.936508 100.918933 
L 162.248956 102.753229 
L 162.248956 102.753229 
" clip-path="url(#pd532ef732c)" style="fill: none; stroke: #000000; stroke-width: 2; stroke-linecap: round"/>
   </g>
   <g id="line2d_2">
    <path d="M 151.548897 95.416045 
L 167.678472 95.416045 
" clip-path="url(#pd532ef732c)" style="fill: none; stroke: #000000; stroke-width: 2; stroke-linecap: round"/>
   </g>
   <g id="line2d_3">
    <path d="M 151.548897 80.130246 
L 167.678472 80.130246 
" clip-path="url(#pd532ef732c)" style="fill: none; stroke: #000000; stroke-width: 2; stroke-linecap: round"/>
   </g>
   <g id="line2d_4">
    <path d="M 206.272058 87.773146 
L 209.634933 87.773146 
" clip-path="url(#pd532ef732c)" style="fill: none; stroke: #000000; stroke-width: 2; stroke-linecap: round"/>
   </g>
   <g id="line2d_5">
    <path d="M 101.105759 52.310092 
L 118.138507 52.210266 
L 119.885456 51.910789 
L 121.632404 51.411661 
L 123.379352 50.712882 
L 125.126301 49.814451 
L 127.309987 48.410653 
L 129.493672 46.6949 
L 131.677358 44.667192 
L 133.861043 42.327529 
L 136.044729 39.675911 
L 137.791677 37.330009 
L 137.791677 37.330009 
L 135.171255 33.886024 
L 132.987569 31.359188 
L 130.803883 29.144307 
L 128.620198 27.241381 
L 126.436512 25.65041 
L 124.252827 24.371394 
L 122.505878 23.572789 
L 120.75893 22.973836 
L 119.011981 22.574533 
L 117.265033 22.374882 
L 116.391559 22.349925 
L 101.105759 22.349925 
L 101.105759 22.349925 
L 103.306914 24.795653 
L 104.700979 26.629949 
L 105.874929 28.464245 
L 106.828763 30.298541 
L 107.562481 32.132837 
L 108.076084 33.967133 
L 108.369571 35.801429 
L 108.442943 37.635725 
L 108.296199 39.47002 
L 107.92934 41.304316 
L 107.342365 43.138612 
L 106.535275 44.972908 
L 105.50807 46.807204 
L 104.260748 48.6415 
L 102.793312 50.475796 
L 101.105759 52.310092 
L 101.105759 52.310092 
" clip-path="url(#pd532ef732c)" style="fill: none; stroke: #000000; stroke-width: 2; stroke-linecap: round"/>
   </g>
   <g id="line2d_6">
    <path d="M 90.4057 47.418636 
L 105.116753 47.418636 
" clip-path="url(#pd532ef732c)" style="fill: none; stroke: #000000; stroke-width: 2; stroke-linecap: round"/>
   </g>
   <g id="line2d_7">
    <path d="M 90.4057 37.330009 
L 108.446 37.330009 
" clip-path="url(#pd532ef732c)" style="fill: none; stroke: #000000; stroke-width: 2; stroke-linecap: round"/>
   </g>
   <g id="line2d_8">
    <path d="M 90.4057 27.241381 
L 105.116753 27.241381 
" clip-path="url(#pd532ef732c)" style="fill: none; stroke: #000000; stroke-width: 2; stroke-linecap: round"/>
   </g>
   <g id="line2d_9">
    <path d="M 145.128861 37.330009 
L 148.491737 37.330009 
" clip-path="url(#pd532ef732c)" style="fill: none; stroke: #000000; stroke-width: 2; stroke-linecap: round"/>
   </g>
   <g id="line2d_10">
    <path d="M 26.205344 37.330009 
L 43.172581 37.330009 
M 70.381303 37.330009 
L 87.34854 37.330009 
" clip-path="url(#pd532ef732c)" style="fill: none; stroke: #000000; stroke-width: 2; stroke-linecap: round"/>
   </g>
   <g id="line2d_11">
    <path d="M 43.172581 22.044209 
L 63.04412 37.330009 
L 43.172581 52.615808 
L 43.172581 22.044209 
" clip-path="url(#pd532ef732c)" style="fill: none; stroke: #000000; stroke-width: 2; stroke-linecap: round"/>
   </g>
   <g id="line2d_12">
    <path d="M 90.4057 37.330009 
L 87.34854 37.330009 
L 87.34854 37.330009 
" clip-path="url(#pd532ef732c)" style="fill: none; stroke: #000000; stroke-width: 2; stroke-linecap: round"/>
   </g>
   <g id="line2d_13">
    <path d="M 151.548897 80.130246 
L 148.491737 80.130246 
L 148.491737 37.330009 
" clip-path="url(#pd532ef732c)" style="fill: none; stroke: #000000; stroke-width: 2; stroke-linecap: round"/>
   </g>
   <g id="line2d_14">
    <path d="M 101.105759 153.196366 
L 118.138507 153.09654 
L 119.885456 152.797064 
L 121.632404 152.297935 
L 123.379352 151.599156 
L 125.126301 150.700725 
L 127.309987 149.296928 
L 129.493672 147.581175 
L 131.677358 145.553466 
L 133.861043 143.213803 
L 136.044729 140.562185 
L 137.791677 138.216283 
L 137.791677 138.216283 
L 135.171255 134.772299 
L 132.987569 132.245463 
L 130.803883 130.030581 
L 128.620198 128.127655 
L 126.436512 126.536685 
L 124.252827 125.257669 
L 122.505878 124.459064 
L 120.75893 123.86011 
L 119.011981 123.460807 
L 117.265033 123.261156 
L 116.391559 123.2362 
L 101.105759 123.2362 
L 101.105759 123.2362 
L 103.306914 125.681928 
L 104.700979 127.516224 
L 105.874929 129.350519 
L 106.828763 131.184815 
L 107.562481 133.019111 
L 108.076084 134.853407 
L 108.369571 136.687703 
L 108.442943 138.521999 
L 108.296199 140.356295 
L 107.92934 142.190591 
L 107.342365 144.024887 
L 106.535275 145.859182 
L 105.50807 147.693478 
L 104.260748 149.527774 
L 102.793312 151.36207 
L 101.105759 153.196366 
L 101.105759 153.196366 
" clip-path="url(#pd532ef732c)" style="fill: none; stroke: #000000; stroke-width: 2; stroke-linecap: round"/>
   </g>
   <g id="line2d_15">
    <path d="M 90.4057 148.30491 
L 105.116753 148.30491 
" clip-path="url(#pd532ef732c)" style="fill: none; stroke: #000000; stroke-width: 2; stroke-linecap: round"/>
   </g>
   <g id="line2d_16">
    <path d="M 90.4057 138.216283 
L 108.446 138.216283 
" clip-path="url(#pd532ef732c)" style="fill: none; stroke: #000000; stroke-width: 2; stroke-linecap: round"/>
   </g>
   <g id="line2d_17">
    <path d="M 90.4057 128.127655 
L 105.116753 128.127655 
" clip-path="url(#pd532ef732c)" style="fill: none; stroke: #000000; stroke-width: 2; stroke-linecap: round"/>
   </g>
   <g id="line2d_18">
    <path d="M 145.128861 138.216283 
L 148.491737 138.216283 
" clip-path="url(#pd532ef732c)" style="fill: none; stroke: #000000; stroke-width: 2; stroke-linecap: round"/>
   </g>
   <g id="line2d_19">
    <path d="M 26.205344 138.216283 
L 43.172581 138.216283 
M 70.381303 138.216283 
L 87.34854 138.216283 
" clip-path="url(#pd532ef732c)" style="fill: none; stroke: #000000; stroke-width: 2; stroke-linecap: round"/>
   </g>
   <g id="line2d_20">
    <path d="M 43.172581 122.930484 
L 63.04412 138.216283 
L 43.172581 153.502082 
L 43.172581 122.930484 
" clip-path="url(#pd532ef732c)" style="fill: none; stroke: #000000; stroke-width: 2; stroke-linecap: round"/>
   </g>
   <g id="line2d_21">
    <path d="M 90.4057 138.216283 
L 87.34854 138.216283 
L 87.34854 138.216283 
" clip-path="url(#pd532ef732c)" style="fill: none; stroke: #000000; stroke-width: 2; stroke-linecap: round"/>
   </g>
   <g id="line2d_22">
    <path d="M 26.205344 171.845041 
L 43.172581 171.845041 
M 70.381303 171.845041 
L 87.34854 171.845041 
" clip-path="url(#pd532ef732c)" style="fill: none; stroke: #000000; stroke-width: 2; stroke-linecap: round"/>
   </g>
   <g id="line2d_23">
    <path d="M 43.172581 156.559242 
L 63.04412 171.845041 
L 43.172581 187.13084 
L 43.172581 156.559242 
" clip-path="url(#pd532ef732c)" style="fill: none; stroke: #000000; stroke-width: 2; stroke-linecap: round"/>
   </g>
   <g id="line2d_24">
    <path d="M 90.4057 148.30491 
L 87.34854 148.30491 
L 87.34854 171.845041 
" clip-path="url(#pd532ef732c)" style="fill: none; stroke: #000000; stroke-width: 2; stroke-linecap: round"/>
   </g>
   <g id="line2d_25">
    <path d="M 151.548897 95.416045 
L 148.491737 95.416045 
L 148.491737 138.216283 
" clip-path="url(#pd532ef732c)" style="fill: none; stroke: #000000; stroke-width: 2; stroke-linecap: round"/>
   </g>
   <g id="text_1">
    <g clip-path="url(#pd532ef732c)">
     <!-- output -->
     <g transform="translate(212.692093 91.222364) scale(0.125 -0.125)">
      <defs>
       <path id="DejaVuSans-6f" d="M 1959 3097 
Q 1497 3097 1228 2736 
Q 959 2375 959 1747 
Q 959 1119 1226 758 
Q 1494 397 1959 397 
Q 2419 397 2687 759 
Q 2956 1122 2956 1747 
Q 2956 2369 2687 2733 
Q 2419 3097 1959 3097 
z
M 1959 3584 
Q 2709 3584 3137 3096 
Q 3566 2609 3566 1747 
Q 3566 888 3137 398 
Q 2709 -91 1959 -91 
Q 1206 -91 779 398 
Q 353 888 353 1747 
Q 353 2609 779 3096 
Q 1206 3584 1959 3584 
z
" transform="scale(0.015625)"/>
       <path id="DejaVuSans-75" d="M 544 1381 
L 544 3500 
L 1119 3500 
L 1119 1403 
Q 1119 906 1312 657 
Q 1506 409 1894 409 
Q 2359 409 2629 706 
Q 2900 1003 2900 1516 
L 2900 3500 
L 3475 3500 
L 3475 0 
L 2900 0 
L 2900 538 
Q 2691 219 2414 64 
Q 2138 -91 1772 -91 
Q 1169 -91 856 284 
Q 544 659 544 1381 
z
M 1991 3584 
L 1991 3584 
z
" transform="scale(0.015625)"/>
       <path id="DejaVuSans-74" d="M 1172 4494 
L 1172 3500 
L 2356 3500 
L 2356 3053 
L 1172 3053 
L 1172 1153 
Q 1172 725 1289 603 
Q 1406 481 1766 481 
L 2356 481 
L 2356 0 
L 1766 0 
Q 1100 0 847 248 
Q 594 497 594 1153 
L 594 3053 
L 172 3053 
L 172 3500 
L 594 3500 
L 594 4494 
L 1172 4494 
z
" transform="scale(0.015625)"/>
       <path id="DejaVuSans-70" d="M 1159 525 
L 1159 -1331 
L 581 -1331 
L 581 3500 
L 1159 3500 
L 1159 2969 
Q 1341 3281 1617 3432 
Q 1894 3584 2278 3584 
Q 2916 3584 3314 3078 
Q 3713 2572 3713 1747 
Q 3713 922 3314 415 
Q 2916 -91 2278 -91 
Q 1894 -91 1617 61 
Q 1341 213 1159 525 
z
M 3116 1747 
Q 3116 2381 2855 2742 
Q 2594 3103 2138 3103 
Q 1681 3103 1420 2742 
Q 1159 2381 1159 1747 
Q 1159 1113 1420 752 
Q 1681 391 2138 391 
Q 2594 391 2855 752 
Q 3116 1113 3116 1747 
z
" transform="scale(0.015625)"/>
      </defs>
      <use xlink:href="#DejaVuSans-6f"/>
      <use xlink:href="#DejaVuSans-75" x="61.181641"/>
      <use xlink:href="#DejaVuSans-74" x="124.560547"/>
      <use xlink:href="#DejaVuSans-70" x="163.769531"/>
      <use xlink:href="#DejaVuSans-75" x="227.246094"/>
      <use xlink:href="#DejaVuSans-74" x="290.625"/>
     </g>
    </g>
   </g>
   <g id="text_2">
    <g clip-path="url(#pd532ef732c)">
     <!-- a -->
     <g transform="translate(79.688384 30.6906) scale(0.125 -0.125)">
      <defs>
       <path id="DejaVuSans-61" d="M 2194 1759 
Q 1497 1759 1228 1600 
Q 959 1441 959 1056 
Q 959 750 1161 570 
Q 1363 391 1709 391 
Q 2188 391 2477 730 
Q 2766 1069 2766 1631 
L 2766 1759 
L 2194 1759 
z
M 3341 1997 
L 3341 0 
L 2766 0 
L 2766 531 
Q 2569 213 2275 61 
Q 1981 -91 1556 -91 
Q 1019 -91 701 211 
Q 384 513 384 1019 
Q 384 1609 779 1909 
Q 1175 2209 1959 2209 
L 2766 2209 
L 2766 2266 
Q 2766 2663 2505 2880 
Q 2244 3097 1772 3097 
Q 1472 3097 1187 3025 
Q 903 2953 641 2809 
L 641 3341 
Q 956 3463 1253 3523 
Q 1550 3584 1831 3584 
Q 2591 3584 2966 3190 
Q 3341 2797 3341 1997 
z
" transform="scale(0.015625)"/>
      </defs>
      <use xlink:href="#DejaVuSans-61"/>
     </g>
    </g>
   </g>
   <g id="text_3">
    <g clip-path="url(#pd532ef732c)">
     <!-- c -->
     <g transform="translate(80.475493 50.867855) scale(0.125 -0.125)">
      <defs>
       <path id="DejaVuSans-63" d="M 3122 3366 
L 3122 2828 
Q 2878 2963 2633 3030 
Q 2388 3097 2138 3097 
Q 1578 3097 1268 2742 
Q 959 2388 959 1747 
Q 959 1106 1268 751 
Q 1578 397 2138 397 
Q 2388 397 2633 464 
Q 2878 531 3122 666 
L 3122 134 
Q 2881 22 2623 -34 
Q 2366 -91 2075 -91 
Q 1284 -91 818 406 
Q 353 903 353 1747 
Q 353 2603 823 3093 
Q 1294 3584 2113 3584 
Q 2378 3584 2631 3529 
Q 2884 3475 3122 3366 
z
" transform="scale(0.015625)"/>
      </defs>
      <use xlink:href="#DejaVuSans-63"/>
     </g>
    </g>
   </g>
   <g id="text_4">
    <g clip-path="url(#pd532ef732c)">
     <!-- b -->
     <g transform="translate(15.212637 40.779227) scale(0.125 -0.125)">
      <defs>
       <path id="DejaVuSans-62" d="M 3116 1747 
Q 3116 2381 2855 2742 
Q 2594 3103 2138 3103 
Q 1681 3103 1420 2742 
Q 1159 2381 1159 1747 
Q 1159 1113 1420 752 
Q 1681 391 2138 391 
Q 2594 391 2855 752 
Q 3116 1113 3116 1747 
z
M 1159 2969 
Q 1341 3281 1617 3432 
Q 1894 3584 2278 3584 
Q 2916 3584 3314 3078 
Q 3713 2572 3713 1747 
Q 3713 922 3314 415 
Q 2916 -91 2278 -91 
Q 1894 -91 1617 61 
Q 1341 213 1159 525 
L 1159 0 
L 581 0 
L 581 4863 
L 1159 4863 
L 1159 2969 
z
" transform="scale(0.015625)"/>
      </defs>
      <use xlink:href="#DejaVuSans-62"/>
     </g>
    </g>
   </g>
   <g id="text_5">
    <g clip-path="url(#pd532ef732c)">
     <!-- a -->
     <g transform="translate(79.688384 131.576874) scale(0.125 -0.125)">
      <use xlink:href="#DejaVuSans-61"/>
     </g>
    </g>
   </g>
   <g id="text_6">
    <g clip-path="url(#pd532ef732c)">
     <!-- b -->
     <g transform="translate(15.212637 141.665502) scale(0.125 -0.125)">
      <use xlink:href="#DejaVuSans-62"/>
     </g>
    </g>
   </g>
   <g id="text_7">
    <g clip-path="url(#pd532ef732c)">
     <!-- c -->
     <g transform="translate(16.275137 175.29426) scale(0.125 -0.125)">
      <use xlink:href="#DejaVuSans-63"/>
     </g>
    </g>
   </g>
  </g>
 </g>
 <defs>
  <clipPath id="pd532ef732c">
   <rect x="7.2" y="7.2" width="255.018082" height="182.988"/>
  </clipPath>
 </defs>
</svg>
