<?xml version="1.0" encoding="utf-8" standalone="no"?>
<!DOCTYPE svg PUBLIC "-//W3C//DTD SVG 1.1//EN"
  "http://www.w3.org/Graphics/SVG/1.1/DTD/svg11.dtd">
<svg xmlns:xlink="http://www.w3.org/1999/xlink" width="512.537769pt" height="211.464pt" viewBox="0 0 512.537769 211.464" xmlns="http://www.w3.org/2000/svg" version="1.1">
 <metadata>
  <rdf:RDF xmlns:dc="http://purl.org/dc/elements/1.1/" xmlns:cc="http://creativecommons.org/ns#" xmlns:rdf="http://www.w3.org/1999/02/22-rdf-syntax-ns#">
   <cc:Work>
    <dc:type rdf:resource="http://purl.org/dc/dcmitype/StillImage"/>
    <dc:date>2022-12-21T12:37:33.879160</dc:date>
    <dc:format>image/svg+xml</dc:format>
    <dc:creator>
     <cc:Agent>
      <dc:title>Matplotlib v3.6.2, https://matplotlib.org/</dc:title>
     </cc:Agent>
    </dc:creator>
   </cc:Work>
  </rdf:RDF>
 </metadata>
 <defs>
  <style type="text/css">*{stroke-linejoin: round; stroke-linecap: butt}</style>
 </defs>
 <g id="figure_1">
  <g id="patch_1">
   <path d="M 0 211.464 
L 512.537769 211.464 
L 512.537769 0 
L 0 0 
L 0 211.464 
z
" style="fill: none"/>
  </g>
  <g id="axes_1">
   <g id="patch_2">
    <path d="M 445.811552 156.032501 
C 446.783031 156.032501 447.714852 155.646528 448.401791 154.959589 
C 449.088731 154.272649 449.474704 153.340829 449.474704 152.369349 
C 449.474704 151.39787 449.088731 150.466049 448.401791 149.77911 
C 447.714852 149.09217 446.783031 148.706198 445.811552 148.706198 
C 444.840073 148.706198 443.908252 149.09217 443.221312 149.77911 
C 442.534373 150.466049 442.1484 151.39787 442.1484 152.369349 
C 442.1484 153.340829 442.534373 154.272649 443.221312 154.959589 
C 443.908252 155.646528 444.840073 156.032501 445.811552 156.032501 
L 445.811552 156.032501 
z
" clip-path="url(#p95b4abb223)" style="fill: none; stroke: #000000; stroke-width: 2; stroke-linejoin: miter"/>
   </g>
   <g id="patch_3">
    <path d="M 201.601431 72.085272 
C 202.572911 72.085272 203.504731 71.6993 204.191671 71.01236 
C 204.87861 70.32542 205.264583 69.3936 205.264583 68.42212 
C 205.264583 67.450641 204.87861 66.518821 204.191671 65.831881 
C 203.504731 65.144941 202.572911 64.758969 201.601431 64.758969 
C 200.629952 64.758969 199.698131 65.144941 199.011192 65.831881 
C 198.324252 66.518821 197.93828 67.450641 197.93828 68.42212 
C 197.93828 69.3936 198.324252 70.32542 199.011192 71.01236 
C 199.698131 71.6993 200.629952 72.085272 201.601431 72.085272 
L 201.601431 72.085272 
z
" clip-path="url(#p95b4abb223)" style="fill: none; stroke: #000000; stroke-width: 2; stroke-linejoin: miter"/>
   </g>
   <g id="patch_4">
    <path d="M 65.912183 122.45361 
C 66.883662 122.45361 67.815483 122.067637 68.502423 121.380697 
C 69.189362 120.693758 69.575335 119.761937 69.575335 118.790458 
C 69.575335 117.818979 69.189362 116.887158 68.502423 116.200218 
C 67.815483 115.513279 66.883662 115.127306 65.912183 115.127306 
C 64.940704 115.127306 64.008883 115.513279 63.321944 116.200218 
C 62.635004 116.887158 62.249031 117.818979 62.249031 118.790458 
C 62.249031 119.761937 62.635004 120.693758 63.321944 121.380697 
C 64.008883 122.067637 64.940704 122.45361 65.912183 122.45361 
L 65.912183 122.45361 
z
" clip-path="url(#p95b4abb223)" style="fill: none; stroke: #000000; stroke-width: 2; stroke-linejoin: miter"/>
   </g>
   <g id="patch_5">
    <path d="M 323.706492 172.821947 
C 324.677971 172.821947 325.609792 172.435974 326.296731 171.749035 
C 326.983671 171.062095 327.369643 170.130274 327.369643 169.158795 
C 327.369643 168.187316 326.983671 167.255495 326.296731 166.568556 
C 325.609792 165.881616 324.677971 165.495643 323.706492 165.495643 
C 322.735012 165.495643 321.803192 165.881616 321.116252 166.568556 
C 320.429313 167.255495 320.04334 168.187316 320.04334 169.158795 
C 320.04334 170.130274 320.429313 171.062095 321.116252 171.749035 
C 321.803192 172.435974 322.735012 172.821947 323.706492 172.821947 
L 323.706492 172.821947 
z
" clip-path="url(#p95b4abb223)" style="fill: none; stroke: #000000; stroke-width: 2; stroke-linejoin: miter"/>
   </g>
   <g id="patch_6">
    <path d="M 249.069773 189.611393 
C 250.041253 189.611393 250.973073 189.22542 251.660013 188.53848 
C 252.346953 187.851541 252.732925 186.91972 252.732925 185.948241 
C 252.732925 184.976762 252.346953 184.044941 251.660013 183.358001 
C 250.973073 182.671062 250.041253 182.285089 249.069773 182.285089 
C 248.098294 182.285089 247.166474 182.671062 246.479534 183.358001 
C 245.792594 184.044941 245.406622 184.976762 245.406622 185.948241 
C 245.406622 186.91972 245.792594 187.851541 246.479534 188.53848 
C 247.166474 189.22542 248.098294 189.611393 249.069773 189.611393 
L 249.069773 189.611393 
z
" clip-path="url(#p95b4abb223)" style="fill: none; stroke: #000000; stroke-width: 2; stroke-linejoin: miter"/>
   </g>
   <g id="line2d_1">
    <path d="M 426.885267 167.632482 
L 427.86318 167.601122 
L 428.837074 167.507172 
L 429.802947 167.351017 
L 430.756831 167.133299 
L 431.694806 166.854913 
L 432.613017 166.517003 
L 433.507692 166.120957 
L 434.375155 165.668402 
L 435.211839 165.161199 
L 436.014308 164.601432 
L 436.779263 163.9914 
L 437.503562 163.333611 
L 438.184229 162.630767 
L 438.818465 161.885757 
L 439.403665 161.101642 
L 439.937425 160.281644 
L 440.41755 159.429133 
L 440.842069 158.547611 
L 441.209235 157.640702 
L 441.517542 156.712132 
L 441.765721 155.765716 
L 441.952754 154.805344 
L 442.077871 153.834962 
L 442.140558 152.858557 
L 442.140558 151.880142 
L 442.077871 150.903737 
L 441.952754 149.933355 
L 441.765721 148.972983 
L 441.517542 148.026567 
L 441.209235 147.097997 
L 440.842069 146.191088 
L 440.41755 145.309566 
L 439.937425 144.457055 
L 439.403665 143.637057 
L 438.818465 142.852942 
L 438.184229 142.107932 
L 437.503562 141.405088 
L 436.779263 140.747299 
L 436.014308 140.137267 
L 435.211839 139.5775 
L 434.375155 139.070297 
L 433.507692 138.617742 
L 432.613017 138.221696 
L 431.694806 137.883786 
L 430.756831 137.6054 
L 429.802947 137.387682 
L 428.837074 137.231527 
L 427.86318 137.137577 
L 426.885267 137.106217 
L 426.885267 137.106217 
L 407.043195 137.106217 
L 407.043195 152.369349 
L 407.043195 167.632482 
L 426.885267 167.632482 
" clip-path="url(#p95b4abb223)" style="fill: none; stroke: #000000; stroke-width: 2; stroke-linecap: round"/>
   </g>
   <g id="line2d_2">
    <path d="M 396.359002 160.000916 
L 407.043195 160.000916 
" clip-path="url(#p95b4abb223)" style="fill: none; stroke: #000000; stroke-width: 2; stroke-linecap: round"/>
   </g>
   <g id="line2d_3">
    <path d="M 396.359002 144.737783 
L 407.043195 144.737783 
" clip-path="url(#p95b4abb223)" style="fill: none; stroke: #000000; stroke-width: 2; stroke-linecap: round"/>
   </g>
   <g id="line2d_4">
    <path d="M 449.474704 152.369349 
L 452.832593 152.369349 
" clip-path="url(#p95b4abb223)" style="fill: none; stroke: #000000; stroke-width: 2; stroke-linecap: round"/>
   </g>
   <g id="line2d_5">
    <path d="M 344.464352 150.537773 
L 361.471842 150.438096 
L 363.2162 150.139063 
L 364.960558 149.640675 
L 366.704916 148.942932 
L 368.449274 148.045833 
L 370.629722 146.644117 
L 372.810169 144.930908 
L 374.990617 142.906207 
L 377.171064 140.570013 
L 379.351512 137.922327 
L 381.09587 135.579904 
L 381.09587 135.579904 
L 378.479333 132.141026 
L 376.298885 129.617937 
L 374.118438 127.40634 
L 371.93799 125.506236 
L 369.757543 123.917624 
L 367.577095 122.640505 
L 365.832737 121.843084 
L 364.088379 121.245019 
L 362.344021 120.846308 
L 360.599663 120.646953 
L 359.727484 120.622034 
L 344.464352 120.622034 
L 344.464352 120.622034 
L 346.662243 123.064135 
L 348.054241 124.895711 
L 349.226449 126.727287 
L 350.178869 128.558863 
L 350.911499 130.390439 
L 351.42434 132.222014 
L 351.717392 134.05359 
L 351.790655 135.885166 
L 351.644129 137.716742 
L 351.277814 139.548318 
L 350.69171 141.379894 
L 349.885816 143.21147 
L 348.860134 145.043046 
L 347.614662 146.874622 
L 346.149402 148.706198 
L 344.464352 150.537773 
L 344.464352 150.537773 
" clip-path="url(#p95b4abb223)" style="fill: none; stroke: #000000; stroke-width: 2; stroke-linecap: round"/>
   </g>
   <g id="line2d_6">
    <path d="M 333.780159 143.21147 
L 349.885816 143.21147 
" clip-path="url(#p95b4abb223)" style="fill: none; stroke: #000000; stroke-width: 2; stroke-linecap: round"/>
   </g>
   <g id="line2d_7">
    <path d="M 333.780159 127.948337 
L 349.885816 127.948337 
" clip-path="url(#p95b4abb223)" style="fill: none; stroke: #000000; stroke-width: 2; stroke-linecap: round"/>
   </g>
   <g id="line2d_8">
    <path d="M 381.09587 135.579904 
L 391.780063 135.579904 
" clip-path="url(#p95b4abb223)" style="fill: none; stroke: #000000; stroke-width: 2; stroke-linecap: round"/>
   </g>
   <g id="line2d_9">
    <path d="M 283.411822 116.958882 
L 300.419312 116.859204 
L 302.16367 116.560172 
L 303.908028 116.061784 
L 305.652386 115.36404 
L 307.396744 114.466942 
L 309.577192 113.065226 
L 311.757639 111.352017 
L 313.938087 109.327316 
L 316.118534 106.991122 
L 318.298982 104.343436 
L 320.04334 102.001012 
L 320.04334 102.001012 
L 317.426803 98.562135 
L 315.246355 96.039046 
L 313.065908 93.827449 
L 310.88546 91.927345 
L 308.705013 90.338733 
L 306.524565 89.061614 
L 304.780207 88.264193 
L 303.035849 87.666127 
L 301.291491 87.267417 
L 299.547133 87.068062 
L 298.674954 87.043142 
L 283.411822 87.043142 
L 283.411822 87.043142 
L 285.609713 89.485243 
L 287.00171 91.316819 
L 288.173919 93.148395 
L 289.126339 94.979971 
L 289.858969 96.811547 
L 290.37181 98.643123 
L 290.664862 100.474699 
L 290.738125 102.306275 
L 290.591599 104.137851 
L 290.225284 105.969427 
L 289.63918 107.801002 
L 288.833286 109.632578 
L 287.807604 111.464154 
L 286.562132 113.29573 
L 285.096872 115.127306 
L 283.411822 116.958882 
L 283.411822 116.958882 
" clip-path="url(#p95b4abb223)" style="fill: none; stroke: #000000; stroke-width: 2; stroke-linecap: round"/>
   </g>
   <g id="line2d_10">
    <path d="M 272.727629 109.632578 
L 288.833286 109.632578 
" clip-path="url(#p95b4abb223)" style="fill: none; stroke: #000000; stroke-width: 2; stroke-linecap: round"/>
   </g>
   <g id="line2d_11">
    <path d="M 272.727629 94.369446 
L 288.833286 94.369446 
" clip-path="url(#p95b4abb223)" style="fill: none; stroke: #000000; stroke-width: 2; stroke-linecap: round"/>
   </g>
   <g id="line2d_12">
    <path d="M 320.04334 102.001012 
L 330.727533 102.001012 
" clip-path="url(#p95b4abb223)" style="fill: none; stroke: #000000; stroke-width: 2; stroke-linecap: round"/>
   </g>
   <g id="line2d_13">
    <path d="M 243.727677 100.474699 
L 244.705589 100.443339 
L 245.679483 100.349389 
L 246.645357 100.193234 
L 247.599241 99.975516 
L 248.537216 99.69713 
L 249.455427 99.35922 
L 250.350102 98.963174 
L 251.217564 98.510619 
L 252.054249 98.003416 
L 252.856717 97.443649 
L 253.621673 96.833617 
L 254.345972 96.175828 
L 255.026638 95.472984 
L 255.660875 94.727974 
L 256.246075 93.943859 
L 256.779834 93.123861 
L 257.25996 92.271349 
L 257.684478 91.389828 
L 258.051645 90.482919 
L 258.359952 89.554349 
L 258.608131 88.607933 
L 258.795164 87.647561 
L 258.92028 86.677178 
L 258.982968 85.700774 
L 258.982968 84.722359 
L 258.92028 83.745954 
L 258.795164 82.775572 
L 258.608131 81.8152 
L 258.359952 80.868784 
L 258.051645 79.940214 
L 257.684478 79.033304 
L 257.25996 78.151783 
L 256.779834 77.299272 
L 256.246075 76.479274 
L 255.660875 75.695159 
L 255.026638 74.950149 
L 254.345972 74.247305 
L 253.621673 73.589516 
L 252.856717 72.979484 
L 252.054249 72.419716 
L 251.217564 71.912513 
L 250.350102 71.459959 
L 249.455427 71.063913 
L 248.537216 70.726003 
L 247.599241 70.447617 
L 246.645357 70.229899 
L 245.679483 70.073744 
L 244.705589 69.979793 
L 243.727677 69.948434 
L 243.727677 69.948434 
L 223.885605 69.948434 
L 223.885605 85.211566 
L 223.885605 100.474699 
L 243.727677 100.474699 
" clip-path="url(#p95b4abb223)" style="fill: none; stroke: #000000; stroke-width: 2; stroke-linecap: round"/>
   </g>
   <g id="line2d_14">
    <path d="M 213.201412 92.843133 
L 223.885605 92.843133 
" clip-path="url(#p95b4abb223)" style="fill: none; stroke: #000000; stroke-width: 2; stroke-linecap: round"/>
   </g>
   <g id="line2d_15">
    <path d="M 213.201412 77.58 
L 223.885605 77.58 
" clip-path="url(#p95b4abb223)" style="fill: none; stroke: #000000; stroke-width: 2; stroke-linecap: round"/>
   </g>
   <g id="line2d_16">
    <path d="M 258.99081 85.211566 
L 269.675002 85.211566 
" clip-path="url(#p95b4abb223)" style="fill: none; stroke: #000000; stroke-width: 2; stroke-linecap: round"/>
   </g>
   <g id="line2d_17">
    <path d="M 161.306761 83.37999 
L 178.314252 83.280313 
L 180.05861 82.98128 
L 181.802968 82.482892 
L 183.547326 81.785149 
L 185.291684 80.88805 
L 187.472131 79.486334 
L 189.652579 77.773125 
L 191.833027 75.748424 
L 194.013474 73.41223 
L 196.193922 70.764544 
L 197.93828 68.42212 
L 197.93828 68.42212 
L 195.321743 64.983243 
L 193.141295 62.460154 
L 190.960848 60.248557 
L 188.7804 58.348453 
L 186.599952 56.759841 
L 184.419505 55.482722 
L 182.675147 54.685301 
L 180.930789 54.087236 
L 179.186431 53.688525 
L 177.442073 53.48917 
L 176.569894 53.464251 
L 161.306761 53.464251 
L 161.306761 53.464251 
L 163.504653 55.906352 
L 164.89665 57.737928 
L 166.068859 59.569504 
L 167.021278 61.40108 
L 167.753909 63.232655 
L 168.26675 65.064231 
L 168.559802 66.895807 
L 168.633065 68.727383 
L 168.486539 70.558959 
L 168.120224 72.390535 
L 167.53412 74.222111 
L 166.728226 76.053687 
L 165.702544 77.885263 
L 164.457072 79.716839 
L 162.991811 81.548414 
L 161.306761 83.37999 
L 161.306761 83.37999 
" clip-path="url(#p95b4abb223)" style="fill: none; stroke: #000000; stroke-width: 2; stroke-linecap: round"/>
   </g>
   <g id="line2d_18">
    <path d="M 150.622569 76.053687 
L 166.728226 76.053687 
" clip-path="url(#p95b4abb223)" style="fill: none; stroke: #000000; stroke-width: 2; stroke-linecap: round"/>
   </g>
   <g id="line2d_19">
    <path d="M 150.622569 60.790554 
L 166.728226 60.790554 
" clip-path="url(#p95b4abb223)" style="fill: none; stroke: #000000; stroke-width: 2; stroke-linecap: round"/>
   </g>
   <g id="line2d_20">
    <path d="M 205.264583 68.42212 
L 208.622472 68.42212 
" clip-path="url(#p95b4abb223)" style="fill: none; stroke: #000000; stroke-width: 2; stroke-linecap: round"/>
   </g>
   <g id="line2d_21">
    <path d="M 121.622617 50.106361 
L 122.600529 50.075002 
L 123.574423 49.981051 
L 124.540296 49.824896 
L 125.49418 49.607179 
L 126.432155 49.328793 
L 127.350367 48.990882 
L 128.245042 48.594836 
L 129.112504 48.142282 
L 129.949188 47.635079 
L 130.751657 47.075311 
L 131.516613 46.465279 
L 132.240912 45.80749 
L 132.921578 45.104647 
L 133.555814 44.359636 
L 134.141015 43.575521 
L 134.674774 42.755523 
L 135.1549 41.903012 
L 135.579418 41.021491 
L 135.946585 40.114582 
L 136.254891 39.186011 
L 136.503071 38.239595 
L 136.690103 37.279223 
L 136.81522 36.308841 
L 136.877907 35.332436 
L 136.877907 34.354021 
L 136.81522 33.377617 
L 136.690103 32.407235 
L 136.503071 31.446862 
L 136.254891 30.500447 
L 135.946585 29.571876 
L 135.579418 28.664967 
L 135.1549 27.783446 
L 134.674774 26.930934 
L 134.141015 26.110937 
L 133.555814 25.326821 
L 132.921578 24.581811 
L 132.240912 23.878968 
L 131.516613 23.221178 
L 130.751657 22.611147 
L 129.949188 22.051379 
L 129.112504 21.544176 
L 128.245042 21.091622 
L 127.350367 20.695576 
L 126.432155 20.357665 
L 125.49418 20.079279 
L 124.540296 19.861561 
L 123.574423 19.705406 
L 122.600529 19.611456 
L 121.622617 19.580096 
L 121.622617 19.580096 
L 101.780545 19.580096 
L 101.780545 34.843229 
L 101.780545 50.106361 
L 121.622617 50.106361 
" clip-path="url(#p95b4abb223)" style="fill: none; stroke: #000000; stroke-width: 2; stroke-linecap: round"/>
   </g>
   <g id="line2d_22">
    <path d="M 91.096352 42.474795 
L 101.780545 42.474795 
" clip-path="url(#p95b4abb223)" style="fill: none; stroke: #000000; stroke-width: 2; stroke-linecap: round"/>
   </g>
   <g id="line2d_23">
    <path d="M 91.096352 27.211663 
L 101.780545 27.211663 
" clip-path="url(#p95b4abb223)" style="fill: none; stroke: #000000; stroke-width: 2; stroke-linecap: round"/>
   </g>
   <g id="line2d_24">
    <path d="M 136.885749 34.843229 
L 147.569942 34.843229 
" clip-path="url(#p95b4abb223)" style="fill: none; stroke: #000000; stroke-width: 2; stroke-linecap: round"/>
   </g>
   <g id="line2d_25">
    <path d="M 150.622569 60.790554 
L 147.569942 60.790554 
L 147.569942 34.843229 
" clip-path="url(#p95b4abb223)" style="fill: none; stroke: #000000; stroke-width: 2; stroke-linecap: round"/>
   </g>
   <g id="line2d_26">
    <path d="M 121.622617 117.264145 
L 122.600529 117.232785 
L 123.574423 117.138834 
L 124.540296 116.98268 
L 125.49418 116.764962 
L 126.432155 116.486576 
L 127.350367 116.148665 
L 128.245042 115.752619 
L 129.112504 115.300065 
L 129.949188 114.792862 
L 130.751657 114.233094 
L 131.516613 113.623063 
L 132.240912 112.965273 
L 132.921578 112.26243 
L 133.555814 111.51742 
L 134.141015 110.733304 
L 134.674774 109.913307 
L 135.1549 109.060795 
L 135.579418 108.179274 
L 135.946585 107.272365 
L 136.254891 106.343794 
L 136.503071 105.397379 
L 136.690103 104.437006 
L 136.81522 103.466624 
L 136.877907 102.49022 
L 136.877907 101.511805 
L 136.81522 100.5354 
L 136.690103 99.565018 
L 136.503071 98.604646 
L 136.254891 97.65823 
L 135.946585 96.729659 
L 135.579418 95.82275 
L 135.1549 94.941229 
L 134.674774 94.088718 
L 134.141015 93.26872 
L 133.555814 92.484605 
L 132.921578 91.739594 
L 132.240912 91.036751 
L 131.516613 90.378961 
L 130.751657 89.76893 
L 129.949188 89.209162 
L 129.112504 88.701959 
L 128.245042 88.249405 
L 127.350367 87.853359 
L 126.432155 87.515448 
L 125.49418 87.237062 
L 124.540296 87.019345 
L 123.574423 86.86319 
L 122.600529 86.769239 
L 121.622617 86.73788 
L 121.622617 86.73788 
L 101.780545 86.73788 
L 101.780545 102.001012 
L 101.780545 117.264145 
L 121.622617 117.264145 
" clip-path="url(#p95b4abb223)" style="fill: none; stroke: #000000; stroke-width: 2; stroke-linecap: round"/>
   </g>
   <g id="line2d_27">
    <path d="M 91.096352 109.632578 
L 101.780545 109.632578 
" clip-path="url(#p95b4abb223)" style="fill: none; stroke: #000000; stroke-width: 2; stroke-linecap: round"/>
   </g>
   <g id="line2d_28">
    <path d="M 91.096352 94.369446 
L 101.780545 94.369446 
" clip-path="url(#p95b4abb223)" style="fill: none; stroke: #000000; stroke-width: 2; stroke-linecap: round"/>
   </g>
   <g id="line2d_29">
    <path d="M 136.885749 102.001012 
L 147.569942 102.001012 
" clip-path="url(#p95b4abb223)" style="fill: none; stroke: #000000; stroke-width: 2; stroke-linecap: round"/>
   </g>
   <g id="line2d_30">
    <path d="M 25.464882 118.790458 
L 42.406959 118.790458 
M 69.575335 118.790458 
L 86.517412 118.790458 
" clip-path="url(#p95b4abb223)" style="fill: none; stroke: #000000; stroke-width: 2; stroke-linecap: round"/>
   </g>
   <g id="line2d_31">
    <path d="M 42.406959 103.527325 
L 62.249031 118.790458 
L 42.406959 134.05359 
L 42.406959 103.527325 
" clip-path="url(#p95b4abb223)" style="fill: none; stroke: #000000; stroke-width: 2; stroke-linecap: round"/>
   </g>
   <g id="line2d_32">
    <path d="M 91.096352 109.632578 
L 86.517412 109.632578 
L 86.517412 118.790458 
" clip-path="url(#p95b4abb223)" style="fill: none; stroke: #000000; stroke-width: 2; stroke-linecap: round"/>
   </g>
   <g id="line2d_33">
    <path d="M 150.622569 76.053687 
L 147.569942 76.053687 
L 147.569942 102.001012 
" clip-path="url(#p95b4abb223)" style="fill: none; stroke: #000000; stroke-width: 2; stroke-linecap: round"/>
   </g>
   <g id="line2d_34">
    <path d="M 213.201412 77.58 
L 208.622472 77.58 
L 208.622472 68.42212 
" clip-path="url(#p95b4abb223)" style="fill: none; stroke: #000000; stroke-width: 2; stroke-linecap: round"/>
   </g>
   <g id="line2d_35">
    <path d="M 272.727629 94.369446 
L 269.675002 94.369446 
L 269.675002 85.211566 
" clip-path="url(#p95b4abb223)" style="fill: none; stroke: #000000; stroke-width: 2; stroke-linecap: round"/>
   </g>
   <g id="line2d_36">
    <path d="M 333.780159 127.948337 
L 330.727533 127.948337 
L 330.727533 102.001012 
" clip-path="url(#p95b4abb223)" style="fill: none; stroke: #000000; stroke-width: 2; stroke-linecap: round"/>
   </g>
   <g id="line2d_37">
    <path d="M 283.411822 184.116665 
L 300.419312 184.016987 
L 302.16367 183.717955 
L 303.908028 183.219567 
L 305.652386 182.521823 
L 307.396744 181.624725 
L 309.577192 180.223009 
L 311.757639 178.5098 
L 313.938087 176.485099 
L 316.118534 174.148905 
L 318.298982 171.501219 
L 320.04334 169.158795 
L 320.04334 169.158795 
L 317.426803 165.719918 
L 315.246355 163.196829 
L 313.065908 160.985232 
L 310.88546 159.085128 
L 308.705013 157.496516 
L 306.524565 156.219397 
L 304.780207 155.421976 
L 303.035849 154.82391 
L 301.291491 154.4252 
L 299.547133 154.225845 
L 298.674954 154.200925 
L 283.411822 154.200925 
L 283.411822 154.200925 
L 285.609713 156.643027 
L 287.00171 158.474602 
L 288.173919 160.306178 
L 289.126339 162.137754 
L 289.858969 163.96933 
L 290.37181 165.800906 
L 290.664862 167.632482 
L 290.738125 169.464058 
L 290.591599 171.295634 
L 290.225284 173.12721 
L 289.63918 174.958786 
L 288.833286 176.790361 
L 287.807604 178.621937 
L 286.562132 180.453513 
L 285.096872 182.285089 
L 283.411822 184.116665 
L 283.411822 184.116665 
" clip-path="url(#p95b4abb223)" style="fill: none; stroke: #000000; stroke-width: 2; stroke-linecap: round"/>
   </g>
   <g id="line2d_38">
    <path d="M 272.727629 176.790361 
L 288.833286 176.790361 
" clip-path="url(#p95b4abb223)" style="fill: none; stroke: #000000; stroke-width: 2; stroke-linecap: round"/>
   </g>
   <g id="line2d_39">
    <path d="M 272.727629 161.527229 
L 288.833286 161.527229 
" clip-path="url(#p95b4abb223)" style="fill: none; stroke: #000000; stroke-width: 2; stroke-linecap: round"/>
   </g>
   <g id="line2d_40">
    <path d="M 327.369643 169.158795 
L 330.727533 169.158795 
" clip-path="url(#p95b4abb223)" style="fill: none; stroke: #000000; stroke-width: 2; stroke-linecap: round"/>
   </g>
   <g id="line2d_41">
    <path d="M 208.622472 185.948241 
L 225.564549 185.948241 
M 252.732925 185.948241 
L 269.675002 185.948241 
" clip-path="url(#p95b4abb223)" style="fill: none; stroke: #000000; stroke-width: 2; stroke-linecap: round"/>
   </g>
   <g id="line2d_42">
    <path d="M 225.564549 170.685108 
L 245.406622 185.948241 
L 225.564549 201.211373 
L 225.564549 170.685108 
" clip-path="url(#p95b4abb223)" style="fill: none; stroke: #000000; stroke-width: 2; stroke-linecap: round"/>
   </g>
   <g id="line2d_43">
    <path d="M 272.727629 176.790361 
L 269.675002 176.790361 
L 269.675002 185.948241 
" clip-path="url(#p95b4abb223)" style="fill: none; stroke: #000000; stroke-width: 2; stroke-linecap: round"/>
   </g>
   <g id="line2d_44">
    <path d="M 333.780159 143.21147 
L 330.727533 143.21147 
L 330.727533 169.158795 
" clip-path="url(#p95b4abb223)" style="fill: none; stroke: #000000; stroke-width: 2; stroke-linecap: round"/>
   </g>
   <g id="line2d_45">
    <path d="M 396.359002 144.737783 
L 391.780063 144.737783 
L 391.780063 135.579904 
" clip-path="url(#p95b4abb223)" style="fill: none; stroke: #000000; stroke-width: 2; stroke-linecap: round"/>
   </g>
   <g id="text_1">
    <g clip-path="url(#p95b4abb223)">
     <!-- output -->
     <g transform="translate(455.885219 155.818568) scale(0.125 -0.125)">
      <defs>
       <path id="DejaVuSans-6f" d="M 1959 3097 
Q 1497 3097 1228 2736 
Q 959 2375 959 1747 
Q 959 1119 1226 758 
Q 1494 397 1959 397 
Q 2419 397 2687 759 
Q 2956 1122 2956 1747 
Q 2956 2369 2687 2733 
Q 2419 3097 1959 3097 
z
M 1959 3584 
Q 2709 3584 3137 3096 
Q 3566 2609 3566 1747 
Q 3566 888 3137 398 
Q 2709 -91 1959 -91 
Q 1206 -91 779 398 
Q 353 888 353 1747 
Q 353 2609 779 3096 
Q 1206 3584 1959 3584 
z
" transform="scale(0.015625)"/>
       <path id="DejaVuSans-75" d="M 544 1381 
L 544 3500 
L 1119 3500 
L 1119 1403 
Q 1119 906 1312 657 
Q 1506 409 1894 409 
Q 2359 409 2629 706 
Q 2900 1003 2900 1516 
L 2900 3500 
L 3475 3500 
L 3475 0 
L 2900 0 
L 2900 538 
Q 2691 219 2414 64 
Q 2138 -91 1772 -91 
Q 1169 -91 856 284 
Q 544 659 544 1381 
z
M 1991 3584 
L 1991 3584 
z
" transform="scale(0.015625)"/>
       <path id="DejaVuSans-74" d="M 1172 4494 
L 1172 3500 
L 2356 3500 
L 2356 3053 
L 1172 3053 
L 1172 1153 
Q 1172 725 1289 603 
Q 1406 481 1766 481 
L 2356 481 
L 2356 0 
L 1766 0 
Q 1100 0 847 248 
Q 594 497 594 1153 
L 594 3053 
L 172 3053 
L 172 3500 
L 594 3500 
L 594 4494 
L 1172 4494 
z
" transform="scale(0.015625)"/>
       <path id="DejaVuSans-70" d="M 1159 525 
L 1159 -1331 
L 581 -1331 
L 581 3500 
L 1159 3500 
L 1159 2969 
Q 1341 3281 1617 3432 
Q 1894 3584 2278 3584 
Q 2916 3584 3314 3078 
Q 3713 2572 3713 1747 
Q 3713 922 3314 415 
Q 2916 -91 2278 -91 
Q 1894 -91 1617 61 
Q 1341 213 1159 525 
z
M 3116 1747 
Q 3116 2381 2855 2742 
Q 2594 3103 2138 3103 
Q 1681 3103 1420 2742 
Q 1159 2381 1159 1747 
Q 1159 1113 1420 752 
Q 1681 391 2138 391 
Q 2594 391 2855 752 
Q 3116 1113 3116 1747 
z
" transform="scale(0.015625)"/>
      </defs>
      <use xlink:href="#DejaVuSans-6f"/>
      <use xlink:href="#DejaVuSans-75" x="61.181641"/>
      <use xlink:href="#DejaVuSans-74" x="124.560547"/>
      <use xlink:href="#DejaVuSans-70" x="163.769531"/>
      <use xlink:href="#DejaVuSans-75" x="227.246094"/>
      <use xlink:href="#DejaVuSans-74" x="290.625"/>
     </g>
    </g>
   </g>
   <g id="text_2">
    <g clip-path="url(#p95b4abb223)">
     <!-- TRUE -->
     <g transform="translate(359.939188 163.450134) scale(0.125 -0.125)">
      <defs>
       <path id="DejaVuSans-54" d="M -19 4666 
L 3928 4666 
L 3928 4134 
L 2272 4134 
L 2272 0 
L 1638 0 
L 1638 4134 
L -19 4134 
L -19 4666 
z
" transform="scale(0.015625)"/>
       <path id="DejaVuSans-52" d="M 2841 2188 
Q 3044 2119 3236 1894 
Q 3428 1669 3622 1275 
L 4263 0 
L 3584 0 
L 2988 1197 
Q 2756 1666 2539 1819 
Q 2322 1972 1947 1972 
L 1259 1972 
L 1259 0 
L 628 0 
L 628 4666 
L 2053 4666 
Q 2853 4666 3247 4331 
Q 3641 3997 3641 3322 
Q 3641 2881 3436 2590 
Q 3231 2300 2841 2188 
z
M 1259 4147 
L 1259 2491 
L 2053 2491 
Q 2509 2491 2742 2702 
Q 2975 2913 2975 3322 
Q 2975 3731 2742 3939 
Q 2509 4147 2053 4147 
L 1259 4147 
z
" transform="scale(0.015625)"/>
       <path id="DejaVuSans-55" d="M 556 4666 
L 1191 4666 
L 1191 1831 
Q 1191 1081 1462 751 
Q 1734 422 2344 422 
Q 2950 422 3222 751 
Q 3494 1081 3494 1831 
L 3494 4666 
L 4128 4666 
L 4128 1753 
Q 4128 841 3676 375 
Q 3225 -91 2344 -91 
Q 1459 -91 1007 375 
Q 556 841 556 1753 
L 556 4666 
z
" transform="scale(0.015625)"/>
       <path id="DejaVuSans-45" d="M 628 4666 
L 3578 4666 
L 3578 4134 
L 1259 4134 
L 1259 2753 
L 3481 2753 
L 3481 2222 
L 1259 2222 
L 1259 531 
L 3634 531 
L 3634 0 
L 628 0 
L 628 4666 
z
" transform="scale(0.015625)"/>
      </defs>
      <use xlink:href="#DejaVuSans-54"/>
      <use xlink:href="#DejaVuSans-52" x="61.083984"/>
      <use xlink:href="#DejaVuSans-55" x="130.566406"/>
      <use xlink:href="#DejaVuSans-45" x="203.759766"/>
     </g>
    </g>
   </g>
   <g id="text_3">
    <g clip-path="url(#p95b4abb223)">
     <!-- FALSE -->
     <g transform="translate(232.276565 113.081797) scale(0.125 -0.125)">
      <defs>
       <path id="DejaVuSans-46" d="M 628 4666 
L 3309 4666 
L 3309 4134 
L 1259 4134 
L 1259 2759 
L 3109 2759 
L 3109 2228 
L 1259 2228 
L 1259 0 
L 628 0 
L 628 4666 
z
" transform="scale(0.015625)"/>
       <path id="DejaVuSans-41" d="M 2188 4044 
L 1331 1722 
L 3047 1722 
L 2188 4044 
z
M 1831 4666 
L 2547 4666 
L 4325 0 
L 3669 0 
L 3244 1197 
L 1141 1197 
L 716 0 
L 50 0 
L 1831 4666 
z
" transform="scale(0.015625)"/>
       <path id="DejaVuSans-4c" d="M 628 4666 
L 1259 4666 
L 1259 531 
L 3531 531 
L 3531 0 
L 628 0 
L 628 4666 
z
" transform="scale(0.015625)"/>
       <path id="DejaVuSans-53" d="M 3425 4513 
L 3425 3897 
Q 3066 4069 2747 4153 
Q 2428 4238 2131 4238 
Q 1616 4238 1336 4038 
Q 1056 3838 1056 3469 
Q 1056 3159 1242 3001 
Q 1428 2844 1947 2747 
L 2328 2669 
Q 3034 2534 3370 2195 
Q 3706 1856 3706 1288 
Q 3706 609 3251 259 
Q 2797 -91 1919 -91 
Q 1588 -91 1214 -16 
Q 841 59 441 206 
L 441 856 
Q 825 641 1194 531 
Q 1563 422 1919 422 
Q 2459 422 2753 634 
Q 3047 847 3047 1241 
Q 3047 1584 2836 1778 
Q 2625 1972 2144 2069 
L 1759 2144 
Q 1053 2284 737 2584 
Q 422 2884 422 3419 
Q 422 4038 858 4394 
Q 1294 4750 2059 4750 
Q 2388 4750 2728 4690 
Q 3069 4631 3425 4513 
z
" transform="scale(0.015625)"/>
      </defs>
      <use xlink:href="#DejaVuSans-46"/>
      <use xlink:href="#DejaVuSans-41" x="48.394531"/>
      <use xlink:href="#DejaVuSans-4c" x="116.802734"/>
      <use xlink:href="#DejaVuSans-53" x="172.515625"/>
      <use xlink:href="#DejaVuSans-45" x="235.992188"/>
     </g>
    </g>
   </g>
   <g id="text_4">
    <g clip-path="url(#p95b4abb223)">
     <!-- TRUE -->
     <g transform="translate(176.781598 96.292351) scale(0.125 -0.125)">
      <use xlink:href="#DejaVuSans-54"/>
      <use xlink:href="#DejaVuSans-52" x="61.083984"/>
      <use xlink:href="#DejaVuSans-55" x="130.566406"/>
      <use xlink:href="#DejaVuSans-45" x="203.759766"/>
     </g>
    </g>
   </g>
   <g id="text_5">
    <g clip-path="url(#p95b4abb223)">
     <!-- a -->
     <g transform="translate(80.383569 30.660881) scale(0.125 -0.125)">
      <defs>
       <path id="DejaVuSans-61" d="M 2194 1759 
Q 1497 1759 1228 1600 
Q 959 1441 959 1056 
Q 959 750 1161 570 
Q 1363 391 1709 391 
Q 2188 391 2477 730 
Q 2766 1069 2766 1631 
L 2766 1759 
L 2194 1759 
z
M 3341 1997 
L 3341 0 
L 2766 0 
L 2766 531 
Q 2569 213 2275 61 
Q 1981 -91 1556 -91 
Q 1019 -91 701 211 
Q 384 513 384 1019 
Q 384 1609 779 1909 
Q 1175 2209 1959 2209 
L 2766 2209 
L 2766 2266 
Q 2766 2663 2505 2880 
Q 2244 3097 1772 3097 
Q 1472 3097 1187 3025 
Q 903 2953 641 2809 
L 641 3341 
Q 956 3463 1253 3523 
Q 1550 3584 1831 3584 
Q 2591 3584 2966 3190 
Q 3341 2797 3341 1997 
z
" transform="scale(0.015625)"/>
      </defs>
      <use xlink:href="#DejaVuSans-61"/>
     </g>
    </g>
   </g>
   <g id="text_6">
    <g clip-path="url(#p95b4abb223)">
     <!-- b -->
     <g transform="translate(80.108178 45.924014) scale(0.125 -0.125)">
      <defs>
       <path id="DejaVuSans-62" d="M 3116 1747 
Q 3116 2381 2855 2742 
Q 2594 3103 2138 3103 
Q 1681 3103 1420 2742 
Q 1159 2381 1159 1747 
Q 1159 1113 1420 752 
Q 1681 391 2138 391 
Q 2594 391 2855 752 
Q 3116 1113 3116 1747 
z
M 1159 2969 
Q 1341 3281 1617 3432 
Q 1894 3584 2278 3584 
Q 2916 3584 3314 3078 
Q 3713 2572 3713 1747 
Q 3713 922 3314 415 
Q 2916 -91 2278 -91 
Q 1894 -91 1617 61 
Q 1341 213 1159 525 
L 1159 0 
L 581 0 
L 581 4863 
L 1159 4863 
L 1159 2969 
z
" transform="scale(0.015625)"/>
      </defs>
      <use xlink:href="#DejaVuSans-62"/>
     </g>
    </g>
   </g>
   <g id="text_7">
    <g clip-path="url(#p95b4abb223)">
     <!-- c -->
     <g transform="translate(81.170678 97.818665) scale(0.125 -0.125)">
      <defs>
       <path id="DejaVuSans-63" d="M 3122 3366 
L 3122 2828 
Q 2878 2963 2633 3030 
Q 2388 3097 2138 3097 
Q 1578 3097 1268 2742 
Q 959 2388 959 1747 
Q 959 1106 1268 751 
Q 1578 397 2138 397 
Q 2388 397 2633 464 
Q 2878 531 3122 666 
L 3122 134 
Q 2881 22 2623 -34 
Q 2366 -91 2075 -91 
Q 1284 -91 818 406 
Q 353 903 353 1747 
Q 353 2603 823 3093 
Q 1294 3584 2113 3584 
Q 2378 3584 2631 3529 
Q 2884 3475 3122 3366 
z
" transform="scale(0.015625)"/>
      </defs>
      <use xlink:href="#DejaVuSans-63"/>
     </g>
    </g>
   </g>
   <g id="text_8">
    <g clip-path="url(#p95b4abb223)">
     <!-- c -->
     <g transform="translate(15.539209 122.239677) scale(0.125 -0.125)">
      <use xlink:href="#DejaVuSans-63"/>
     </g>
    </g>
   </g>
   <g id="text_9">
    <g clip-path="url(#p95b4abb223)">
     <!-- d -->
     <g transform="translate(261.739456 164.976448) scale(0.125 -0.125)">
      <defs>
       <path id="DejaVuSans-64" d="M 2906 2969 
L 2906 4863 
L 3481 4863 
L 3481 0 
L 2906 0 
L 2906 525 
Q 2725 213 2448 61 
Q 2172 -91 1784 -91 
Q 1150 -91 751 415 
Q 353 922 353 1747 
Q 353 2572 751 3078 
Q 1150 3584 1784 3584 
Q 2172 3584 2448 3432 
Q 2725 3281 2906 2969 
z
M 947 1747 
Q 947 1113 1208 752 
Q 1469 391 1925 391 
Q 2381 391 2643 752 
Q 2906 1113 2906 1747 
Q 2906 2381 2643 2742 
Q 2381 3103 1925 3103 
Q 1469 3103 1208 2742 
Q 947 2381 947 1747 
z
" transform="scale(0.015625)"/>
      </defs>
      <use xlink:href="#DejaVuSans-64"/>
     </g>
    </g>
   </g>
   <g id="text_10">
    <g clip-path="url(#p95b4abb223)">
     <!-- d -->
     <g transform="translate(197.634299 189.39746) scale(0.125 -0.125)">
      <use xlink:href="#DejaVuSans-64"/>
     </g>
    </g>
   </g>
  </g>
 </g>
 <defs>
  <clipPath id="p95b4abb223">
   <rect x="7.2" y="7.2" width="498.137769" height="197.064"/>
  </clipPath>
 </defs>
</svg>
