<?xml version="1.0" encoding="utf-8" standalone="no"?>
<!DOCTYPE svg PUBLIC "-//W3C//DTD SVG 1.1//EN"
  "http://www.w3.org/Graphics/SVG/1.1/DTD/svg11.dtd">
<svg xmlns:xlink="http://www.w3.org/1999/xlink" width="330.736095pt" height="466.668pt" viewBox="0 0 330.736095 466.668" xmlns="http://www.w3.org/2000/svg" version="1.1">
 <metadata>
  <rdf:RDF xmlns:dc="http://purl.org/dc/elements/1.1/" xmlns:cc="http://creativecommons.org/ns#" xmlns:rdf="http://www.w3.org/1999/02/22-rdf-syntax-ns#">
   <cc:Work>
    <dc:type rdf:resource="http://purl.org/dc/dcmitype/StillImage"/>
    <dc:date>2022-11-07T11:57:00.843979</dc:date>
    <dc:format>image/svg+xml</dc:format>
    <dc:creator>
     <cc:Agent>
      <dc:title>Matplotlib v3.6.0, https://matplotlib.org/</dc:title>
     </cc:Agent>
    </dc:creator>
   </cc:Work>
  </rdf:RDF>
 </metadata>
 <defs>
  <style type="text/css">*{stroke-linejoin: round; stroke-linecap: butt}</style>
 </defs>
 <g id="figure_1">
  <g id="patch_1">
   <path d="M 0 466.668 
L 330.736095 466.668 
L 330.736095 0 
L 0 0 
L 0 466.668 
z
" style="fill: none"/>
  </g>
  <g id="axes_1">
   <g id="patch_2">
    <path d="M 66.745618 209.254051 
C 67.719078 209.254051 68.652798 208.867292 69.341138 208.178951 
C 70.029478 207.490611 70.416238 206.556891 70.416238 205.583431 
C 70.416238 204.609971 70.029478 203.676251 69.341138 202.98791 
C 68.652798 202.29957 67.719078 201.912811 66.745618 201.912811 
C 65.772158 201.912811 64.838437 202.29957 64.150097 202.98791 
C 63.461757 203.676251 63.074998 204.609971 63.074998 205.583431 
C 63.074998 206.556891 63.461757 207.490611 64.150097 208.178951 
C 64.838437 208.867292 65.772158 209.254051 66.745618 209.254051 
L 66.745618 209.254051 
z
" clip-path="url(#p06d2a75340)" style="fill: none; stroke: #000000; stroke-width: 2; stroke-linejoin: miter"/>
   </g>
   <g id="patch_3">
    <path d="M 66.745618 444.785519 
C 67.719078 444.785519 68.652798 444.398759 69.341138 443.710419 
C 70.029478 443.022079 70.416238 442.088359 70.416238 441.114899 
C 70.416238 440.141439 70.029478 439.207718 69.341138 438.519378 
C 68.652798 437.831038 67.719078 437.444278 66.745618 437.444278 
C 65.772158 437.444278 64.838437 437.831038 64.150097 438.519378 
C 63.461757 439.207718 63.074998 440.141439 63.074998 441.114899 
C 63.074998 442.088359 63.461757 443.022079 64.150097 443.710419 
C 64.838437 444.398759 65.772158 444.785519 66.745618 444.785519 
L 66.745618 444.785519 
z
" clip-path="url(#p06d2a75340)" style="fill: none; stroke: #000000; stroke-width: 2; stroke-linejoin: miter"/>
   </g>
   <g id="line2d_1">
    <path d="M 223.511692 254.21915 
L 240.553858 254.119269 
L 242.301772 253.819626 
L 244.049686 253.320222 
L 245.797601 252.621056 
L 247.545515 251.722129 
L 249.730408 250.317555 
L 251.915301 248.600853 
L 254.100194 246.572024 
L 256.285087 244.231067 
L 258.46998 241.577983 
L 260.217895 239.230783 
L 260.217895 239.230783 
L 257.596023 235.784895 
L 255.41113 233.256662 
L 253.226237 231.040556 
L 251.041344 229.136578 
L 248.856451 227.544727 
L 246.671558 226.265004 
L 244.923644 225.465957 
L 243.175729 224.866673 
L 241.427815 224.467149 
L 239.6799 224.267388 
L 238.805943 224.242417 
L 223.511692 224.242417 
L 223.511692 224.242417 
L 225.714064 226.689498 
L 227.1089 228.524808 
L 228.283498 230.360118 
L 229.23786 232.195428 
L 229.971984 234.030738 
L 230.485871 235.866048 
L 230.77952 237.701358 
L 230.852933 239.536669 
L 230.706108 241.371979 
L 230.339046 243.207289 
L 229.751747 245.042599 
L 228.94421 246.877909 
L 227.916436 248.713219 
L 226.668425 250.548529 
L 225.200177 252.383839 
L 223.511692 254.21915 
L 223.511692 254.21915 
" clip-path="url(#p06d2a75340)" style="fill: none; stroke: #000000; stroke-width: 2; stroke-linecap: round"/>
   </g>
   <g id="line2d_2">
    <path d="M 212.805716 246.877909 
L 228.94421 246.877909 
" clip-path="url(#p06d2a75340)" style="fill: none; stroke: #000000; stroke-width: 2; stroke-linecap: round"/>
   </g>
   <g id="line2d_3">
    <path d="M 212.805716 231.583658 
L 228.94421 231.583658 
" clip-path="url(#p06d2a75340)" style="fill: none; stroke: #000000; stroke-width: 2; stroke-linecap: round"/>
   </g>
   <g id="line2d_4">
    <path d="M 260.217895 239.230783 
L 270.923871 239.230783 
" clip-path="url(#p06d2a75340)" style="fill: none; stroke: #000000; stroke-width: 2; stroke-linecap: round"/>
   </g>
   <g id="line2d_5">
    <path d="M 183.746639 128.347463 
L 184.726545 128.316039 
L 185.702424 128.221897 
L 186.670267 128.065424 
L 187.626096 127.847262 
L 188.565983 127.568308 
L 189.486067 127.229709 
L 190.382566 126.832856 
L 191.251797 126.379379 
L 192.090187 125.871142 
L 192.894292 125.310233 
L 193.660807 124.698957 
L 194.386583 124.039827 
L 195.068637 123.33555 
L 195.704166 122.589021 
L 196.29056 121.803307 
L 196.825407 120.981638 
L 197.306512 120.127388 
L 197.731895 119.24407 
L 198.099811 118.335311 
L 198.408746 117.404848 
L 198.657431 116.456503 
L 198.844845 115.494172 
L 198.970217 114.521812 
L 199.033032 113.543416 
L 199.033032 112.563007 
L 198.970217 111.584611 
L 198.844845 110.612251 
L 198.657431 109.64992 
L 198.408746 108.701575 
L 198.099811 107.771112 
L 197.731895 106.862353 
L 197.306512 105.979035 
L 196.825407 105.124785 
L 196.29056 104.303116 
L 195.704166 103.517402 
L 195.068637 102.770873 
L 194.386583 102.066596 
L 193.660807 101.407466 
L 192.894292 100.79619 
L 192.090187 100.235282 
L 191.251797 99.727044 
L 190.382566 99.273567 
L 189.486067 98.876714 
L 188.565983 98.538115 
L 187.626096 98.259161 
L 186.670267 98.040999 
L 185.702424 97.884526 
L 184.726545 97.790384 
L 183.746639 97.75896 
L 183.746639 97.75896 
L 163.864113 97.75896 
L 163.864113 113.053212 
L 163.864113 128.347463 
L 183.746639 128.347463 
" clip-path="url(#p06d2a75340)" style="fill: none; stroke: #000000; stroke-width: 2; stroke-linecap: round"/>
   </g>
   <g id="line2d_6">
    <path d="M 153.158137 120.700337 
L 163.864113 120.700337 
" clip-path="url(#p06d2a75340)" style="fill: none; stroke: #000000; stroke-width: 2; stroke-linecap: round"/>
   </g>
   <g id="line2d_7">
    <path d="M 153.158137 105.406086 
L 163.864113 105.406086 
" clip-path="url(#p06d2a75340)" style="fill: none; stroke: #000000; stroke-width: 2; stroke-linecap: round"/>
   </g>
   <g id="line2d_8">
    <path d="M 199.04089 113.053212 
L 209.746866 113.053212 
" clip-path="url(#p06d2a75340)" style="fill: none; stroke: #000000; stroke-width: 2; stroke-linecap: round"/>
   </g>
   <g id="line2d_9">
    <path d="M 101.157683 69.158711 
L 118.199848 69.05883 
L 119.947763 68.759187 
L 121.695677 68.259783 
L 123.443592 67.560618 
L 125.191506 66.66169 
L 127.376399 65.257116 
L 129.561292 63.540414 
L 131.746185 61.511585 
L 133.931078 59.170628 
L 136.115971 56.517544 
L 137.863886 54.170345 
L 137.863886 54.170345 
L 135.242014 50.724456 
L 133.057121 48.196223 
L 130.872228 45.980117 
L 128.687335 44.076139 
L 126.502442 42.484288 
L 124.317549 41.204565 
L 122.569634 40.405519 
L 120.82172 39.806234 
L 119.073806 39.40671 
L 117.325891 39.206949 
L 116.451934 39.181979 
L 101.157683 39.181979 
L 101.157683 39.181979 
L 103.360055 41.629059 
L 104.754891 43.464369 
L 105.929489 45.299679 
L 106.883851 47.134989 
L 107.617975 48.970299 
L 108.131861 50.805609 
L 108.425511 52.64092 
L 108.498923 54.47623 
L 108.352099 56.31154 
L 107.985037 58.14685 
L 107.397737 59.98216 
L 106.590201 61.81747 
L 105.562427 63.65278 
L 104.314416 65.48809 
L 102.846168 67.323401 
L 101.157683 69.158711 
L 101.157683 69.158711 
" clip-path="url(#p06d2a75340)" style="fill: none; stroke: #000000; stroke-width: 2; stroke-linecap: round"/>
   </g>
   <g id="line2d_10">
    <path d="M 90.451707 61.81747 
L 106.590201 61.81747 
" clip-path="url(#p06d2a75340)" style="fill: none; stroke: #000000; stroke-width: 2; stroke-linecap: round"/>
   </g>
   <g id="line2d_11">
    <path d="M 90.451707 46.523219 
L 106.590201 46.523219 
" clip-path="url(#p06d2a75340)" style="fill: none; stroke: #000000; stroke-width: 2; stroke-linecap: round"/>
   </g>
   <g id="line2d_12">
    <path d="M 137.863886 54.170345 
L 148.569861 54.170345 
" clip-path="url(#p06d2a75340)" style="fill: none; stroke: #000000; stroke-width: 2; stroke-linecap: round"/>
   </g>
   <g id="line2d_13">
    <path d="M 61.39263 52.64092 
L 62.372536 52.609496 
L 63.348415 52.515354 
L 64.316258 52.358881 
L 65.272087 52.140719 
L 66.211974 51.861765 
L 67.132058 51.523166 
L 68.028557 51.126313 
L 68.897787 50.672835 
L 69.736178 50.164598 
L 70.540283 49.60369 
L 71.306798 48.992414 
L 72.032574 48.333284 
L 72.714627 47.629007 
L 73.350157 46.882478 
L 73.93655 46.096764 
L 74.471398 45.275095 
L 74.952502 44.420845 
L 75.377886 43.537526 
L 75.745802 42.628768 
L 76.054737 41.698305 
L 76.303422 40.749959 
L 76.490836 39.787629 
L 76.616208 38.815269 
L 76.679023 37.836873 
L 76.679023 36.856463 
L 76.616208 35.878068 
L 76.490836 34.905707 
L 76.303422 33.943377 
L 76.054737 32.995032 
L 75.745802 32.064568 
L 75.377886 31.15581 
L 74.952502 30.272492 
L 74.471398 29.418242 
L 73.93655 28.596572 
L 73.350157 27.810859 
L 72.714627 27.06433 
L 72.032574 26.360053 
L 71.306798 25.700923 
L 70.540283 25.089647 
L 69.736178 24.528738 
L 68.897787 24.020501 
L 68.028557 23.567024 
L 67.132058 23.170171 
L 66.211974 22.831571 
L 65.272087 22.552618 
L 64.316258 22.334456 
L 63.348415 22.177983 
L 62.372536 22.083841 
L 61.39263 22.052417 
L 61.39263 22.052417 
L 41.510103 22.052417 
L 41.510103 37.346668 
L 41.510103 52.64092 
L 61.39263 52.64092 
" clip-path="url(#p06d2a75340)" style="fill: none; stroke: #000000; stroke-width: 2; stroke-linecap: round"/>
   </g>
   <g id="line2d_14">
    <path d="M 30.804128 47.440874 
L 41.510103 47.440874 
" clip-path="url(#p06d2a75340)" style="fill: none; stroke: #000000; stroke-width: 2; stroke-linecap: round"/>
   </g>
   <g id="line2d_15">
    <path d="M 30.804128 37.346668 
L 41.510103 37.346668 
" clip-path="url(#p06d2a75340)" style="fill: none; stroke: #000000; stroke-width: 2; stroke-linecap: round"/>
   </g>
   <g id="line2d_16">
    <path d="M 30.804128 27.252463 
L 41.510103 27.252463 
" clip-path="url(#p06d2a75340)" style="fill: none; stroke: #000000; stroke-width: 2; stroke-linecap: round"/>
   </g>
   <g id="line2d_17">
    <path d="M 76.686881 37.346668 
L 87.392857 37.346668 
" clip-path="url(#p06d2a75340)" style="fill: none; stroke: #000000; stroke-width: 2; stroke-linecap: round"/>
   </g>
   <g id="line2d_18">
    <path d="M 90.451707 46.523219 
L 87.392857 46.523219 
L 87.392857 37.346668 
" clip-path="url(#p06d2a75340)" style="fill: none; stroke: #000000; stroke-width: 2; stroke-linecap: round"/>
   </g>
   <g id="line2d_19">
    <path d="M 153.158137 105.406086 
L 148.569861 105.406086 
L 148.569861 54.170345 
" clip-path="url(#p06d2a75340)" style="fill: none; stroke: #000000; stroke-width: 2; stroke-linecap: round"/>
   </g>
   <g id="line2d_20">
    <path d="M 101.157683 186.924445 
L 118.199848 186.824564 
L 119.947763 186.524921 
L 121.695677 186.025517 
L 123.443592 185.326351 
L 125.191506 184.427424 
L 127.376399 183.02285 
L 129.561292 181.306148 
L 131.746185 179.277319 
L 133.931078 176.936362 
L 136.115971 174.283278 
L 137.863886 171.936078 
L 137.863886 171.936078 
L 135.242014 168.49019 
L 133.057121 165.961957 
L 130.872228 163.745851 
L 128.687335 161.841873 
L 126.502442 160.250022 
L 124.317549 158.970299 
L 122.569634 158.171252 
L 120.82172 157.571967 
L 119.073806 157.172444 
L 117.325891 156.972683 
L 116.451934 156.947712 
L 101.157683 156.947712 
L 101.157683 156.947712 
L 103.360055 159.394793 
L 104.754891 161.230103 
L 105.929489 163.065413 
L 106.883851 164.900723 
L 107.617975 166.736033 
L 108.131861 168.571343 
L 108.425511 170.406653 
L 108.498923 172.241963 
L 108.352099 174.077274 
L 107.985037 175.912584 
L 107.397737 177.747894 
L 106.590201 179.583204 
L 105.562427 181.418514 
L 104.314416 183.253824 
L 102.846168 185.089134 
L 101.157683 186.924445 
L 101.157683 186.924445 
" clip-path="url(#p06d2a75340)" style="fill: none; stroke: #000000; stroke-width: 2; stroke-linecap: round"/>
   </g>
   <g id="line2d_21">
    <path d="M 90.451707 179.583204 
L 106.590201 179.583204 
" clip-path="url(#p06d2a75340)" style="fill: none; stroke: #000000; stroke-width: 2; stroke-linecap: round"/>
   </g>
   <g id="line2d_22">
    <path d="M 90.451707 164.288953 
L 106.590201 164.288953 
" clip-path="url(#p06d2a75340)" style="fill: none; stroke: #000000; stroke-width: 2; stroke-linecap: round"/>
   </g>
   <g id="line2d_23">
    <path d="M 137.863886 171.936078 
L 148.569861 171.936078 
" clip-path="url(#p06d2a75340)" style="fill: none; stroke: #000000; stroke-width: 2; stroke-linecap: round"/>
   </g>
   <g id="line2d_24">
    <path d="M 61.39263 153.582977 
L 62.372536 153.551553 
L 63.348415 153.457411 
L 64.316258 153.300938 
L 65.272087 153.082777 
L 66.211974 152.803823 
L 67.132058 152.465224 
L 68.028557 152.06837 
L 68.897787 151.614893 
L 69.736178 151.106656 
L 70.540283 150.545747 
L 71.306798 149.934472 
L 72.032574 149.275341 
L 72.714627 148.571065 
L 73.350157 147.824536 
L 73.93655 147.038822 
L 74.471398 146.217152 
L 74.952502 145.362903 
L 75.377886 144.479584 
L 75.745802 143.570826 
L 76.054737 142.640362 
L 76.303422 141.692017 
L 76.490836 140.729687 
L 76.616208 139.757326 
L 76.679023 138.778931 
L 76.679023 137.798521 
L 76.616208 136.820126 
L 76.490836 135.847765 
L 76.303422 134.885435 
L 76.054737 133.93709 
L 75.745802 133.006626 
L 75.377886 132.097868 
L 74.952502 131.214549 
L 74.471398 130.3603 
L 73.93655 129.53863 
L 73.350157 128.752916 
L 72.714627 128.006387 
L 72.032574 127.302111 
L 71.306798 126.64298 
L 70.540283 126.031705 
L 69.736178 125.470796 
L 68.897787 124.962559 
L 68.028557 124.509082 
L 67.132058 124.112228 
L 66.211974 123.773629 
L 65.272087 123.494675 
L 64.316258 123.276514 
L 63.348415 123.12004 
L 62.372536 123.025898 
L 61.39263 122.994475 
L 61.39263 122.994475 
L 41.510103 122.994475 
L 41.510103 138.288726 
L 41.510103 153.582977 
L 61.39263 153.582977 
" clip-path="url(#p06d2a75340)" style="fill: none; stroke: #000000; stroke-width: 2; stroke-linecap: round"/>
   </g>
   <g id="line2d_25">
    <path d="M 30.804128 148.382932 
L 41.510103 148.382932 
" clip-path="url(#p06d2a75340)" style="fill: none; stroke: #000000; stroke-width: 2; stroke-linecap: round"/>
   </g>
   <g id="line2d_26">
    <path d="M 30.804128 138.288726 
L 41.510103 138.288726 
" clip-path="url(#p06d2a75340)" style="fill: none; stroke: #000000; stroke-width: 2; stroke-linecap: round"/>
   </g>
   <g id="line2d_27">
    <path d="M 30.804128 128.19452 
L 41.510103 128.19452 
" clip-path="url(#p06d2a75340)" style="fill: none; stroke: #000000; stroke-width: 2; stroke-linecap: round"/>
   </g>
   <g id="line2d_28">
    <path d="M 76.686881 138.288726 
L 87.392857 138.288726 
" clip-path="url(#p06d2a75340)" style="fill: none; stroke: #000000; stroke-width: 2; stroke-linecap: round"/>
   </g>
   <g id="line2d_29">
    <path d="M 90.451707 164.288953 
L 87.392857 164.288953 
L 87.392857 138.288726 
" clip-path="url(#p06d2a75340)" style="fill: none; stroke: #000000; stroke-width: 2; stroke-linecap: round"/>
   </g>
   <g id="line2d_30">
    <path d="M 26.215852 205.583431 
L 43.192471 205.583431 
M 70.416238 205.583431 
L 87.392857 205.583431 
" clip-path="url(#p06d2a75340)" style="fill: none; stroke: #000000; stroke-width: 2; stroke-linecap: round"/>
   </g>
   <g id="line2d_31">
    <path d="M 43.192471 190.28918 
L 63.074998 205.583431 
L 43.192471 220.877682 
L 43.192471 190.28918 
" clip-path="url(#p06d2a75340)" style="fill: none; stroke: #000000; stroke-width: 2; stroke-linecap: round"/>
   </g>
   <g id="line2d_32">
    <path d="M 90.451707 179.583204 
L 87.392857 179.583204 
L 87.392857 205.583431 
" clip-path="url(#p06d2a75340)" style="fill: none; stroke: #000000; stroke-width: 2; stroke-linecap: round"/>
   </g>
   <g id="line2d_33">
    <path d="M 153.158137 120.700337 
L 148.569861 120.700337 
L 148.569861 171.936078 
" clip-path="url(#p06d2a75340)" style="fill: none; stroke: #000000; stroke-width: 2; stroke-linecap: round"/>
   </g>
   <g id="line2d_34">
    <path d="M 212.805716 231.583658 
L 209.746866 231.583658 
L 209.746866 113.053212 
" clip-path="url(#p06d2a75340)" style="fill: none; stroke: #000000; stroke-width: 2; stroke-linecap: round"/>
   </g>
   <g id="line2d_35">
    <path d="M 183.746639 380.702607 
L 184.726545 380.671183 
L 185.702424 380.577041 
L 186.670267 380.420568 
L 187.626096 380.202406 
L 188.565983 379.923452 
L 189.486067 379.584853 
L 190.382566 379.188 
L 191.251797 378.734523 
L 192.090187 378.226285 
L 192.894292 377.665377 
L 193.660807 377.054101 
L 194.386583 376.394971 
L 195.068637 375.690694 
L 195.704166 374.944165 
L 196.29056 374.158451 
L 196.825407 373.336782 
L 197.306512 372.482532 
L 197.731895 371.599214 
L 198.099811 370.690455 
L 198.408746 369.759992 
L 198.657431 368.811647 
L 198.844845 367.849316 
L 198.970217 366.876956 
L 199.033032 365.89856 
L 199.033032 364.918151 
L 198.970217 363.939755 
L 198.844845 362.967395 
L 198.657431 362.005064 
L 198.408746 361.056719 
L 198.099811 360.126256 
L 197.731895 359.217497 
L 197.306512 358.334179 
L 196.825407 357.479929 
L 196.29056 356.65826 
L 195.704166 355.872546 
L 195.068637 355.126017 
L 194.386583 354.42174 
L 193.660807 353.76261 
L 192.894292 353.151334 
L 192.090187 352.590425 
L 191.251797 352.082188 
L 190.382566 351.628711 
L 189.486067 351.231858 
L 188.565983 350.893259 
L 187.626096 350.614305 
L 186.670267 350.396143 
L 185.702424 350.23967 
L 184.726545 350.145528 
L 183.746639 350.114104 
L 183.746639 350.114104 
L 163.864113 350.114104 
L 163.864113 365.408355 
L 163.864113 380.702607 
L 183.746639 380.702607 
" clip-path="url(#p06d2a75340)" style="fill: none; stroke: #000000; stroke-width: 2; stroke-linecap: round"/>
   </g>
   <g id="line2d_36">
    <path d="M 153.158137 375.502561 
L 163.864113 375.502561 
" clip-path="url(#p06d2a75340)" style="fill: none; stroke: #000000; stroke-width: 2; stroke-linecap: round"/>
   </g>
   <g id="line2d_37">
    <path d="M 153.158137 365.408355 
L 163.864113 365.408355 
" clip-path="url(#p06d2a75340)" style="fill: none; stroke: #000000; stroke-width: 2; stroke-linecap: round"/>
   </g>
   <g id="line2d_38">
    <path d="M 153.158137 355.31415 
L 163.864113 355.31415 
" clip-path="url(#p06d2a75340)" style="fill: none; stroke: #000000; stroke-width: 2; stroke-linecap: round"/>
   </g>
   <g id="line2d_39">
    <path d="M 199.04089 365.408355 
L 209.746866 365.408355 
" clip-path="url(#p06d2a75340)" style="fill: none; stroke: #000000; stroke-width: 2; stroke-linecap: round"/>
   </g>
   <g id="line2d_40">
    <path d="M 101.157683 304.690178 
L 118.199848 304.590298 
L 119.947763 304.290655 
L 121.695677 303.791251 
L 123.443592 303.092085 
L 125.191506 302.193158 
L 127.376399 300.788584 
L 129.561292 299.071882 
L 131.746185 297.043053 
L 133.931078 294.702096 
L 136.115971 292.049012 
L 137.863886 289.701812 
L 137.863886 289.701812 
L 135.242014 286.255924 
L 133.057121 283.727691 
L 130.872228 281.511585 
L 128.687335 279.607607 
L 126.502442 278.015756 
L 124.317549 276.736033 
L 122.569634 275.936986 
L 120.82172 275.337701 
L 119.073806 274.938178 
L 117.325891 274.738416 
L 116.451934 274.713446 
L 101.157683 274.713446 
L 101.157683 274.713446 
L 103.360055 277.160526 
L 104.754891 278.995836 
L 105.929489 280.831147 
L 106.883851 282.666457 
L 107.617975 284.501767 
L 108.131861 286.337077 
L 108.425511 288.172387 
L 108.498923 290.007697 
L 108.352099 291.843007 
L 107.985037 293.678318 
L 107.397737 295.513628 
L 106.590201 297.348938 
L 105.562427 299.184248 
L 104.314416 301.019558 
L 102.846168 302.854868 
L 101.157683 304.690178 
L 101.157683 304.690178 
" clip-path="url(#p06d2a75340)" style="fill: none; stroke: #000000; stroke-width: 2; stroke-linecap: round"/>
   </g>
   <g id="line2d_41">
    <path d="M 90.451707 297.348938 
L 106.590201 297.348938 
" clip-path="url(#p06d2a75340)" style="fill: none; stroke: #000000; stroke-width: 2; stroke-linecap: round"/>
   </g>
   <g id="line2d_42">
    <path d="M 90.451707 282.054687 
L 106.590201 282.054687 
" clip-path="url(#p06d2a75340)" style="fill: none; stroke: #000000; stroke-width: 2; stroke-linecap: round"/>
   </g>
   <g id="line2d_43">
    <path d="M 137.863886 289.701812 
L 148.569861 289.701812 
" clip-path="url(#p06d2a75340)" style="fill: none; stroke: #000000; stroke-width: 2; stroke-linecap: round"/>
   </g>
   <g id="line2d_44">
    <path d="M 61.39263 288.172387 
L 62.372536 288.140963 
L 63.348415 288.046822 
L 64.316258 287.890348 
L 65.272087 287.672187 
L 66.211974 287.393233 
L 67.132058 287.054634 
L 68.028557 286.65778 
L 68.897787 286.204303 
L 69.736178 285.696066 
L 70.540283 285.135157 
L 71.306798 284.523882 
L 72.032574 283.864751 
L 72.714627 283.160475 
L 73.350157 282.413946 
L 73.93655 281.628232 
L 74.471398 280.806562 
L 74.952502 279.952313 
L 75.377886 279.068994 
L 75.745802 278.160236 
L 76.054737 277.229772 
L 76.303422 276.281427 
L 76.490836 275.319097 
L 76.616208 274.346736 
L 76.679023 273.368341 
L 76.679023 272.387931 
L 76.616208 271.409536 
L 76.490836 270.437175 
L 76.303422 269.474845 
L 76.054737 268.5265 
L 75.745802 267.596036 
L 75.377886 266.687278 
L 74.952502 265.803959 
L 74.471398 264.94971 
L 73.93655 264.12804 
L 73.350157 263.342326 
L 72.714627 262.595797 
L 72.032574 261.891521 
L 71.306798 261.23239 
L 70.540283 260.621115 
L 69.736178 260.060206 
L 68.897787 259.551969 
L 68.028557 259.098492 
L 67.132058 258.701638 
L 66.211974 258.363039 
L 65.272087 258.084085 
L 64.316258 257.865924 
L 63.348415 257.70945 
L 62.372536 257.615309 
L 61.39263 257.583885 
L 61.39263 257.583885 
L 41.510103 257.583885 
L 41.510103 272.878136 
L 41.510103 288.172387 
L 61.39263 288.172387 
" clip-path="url(#p06d2a75340)" style="fill: none; stroke: #000000; stroke-width: 2; stroke-linecap: round"/>
   </g>
   <g id="line2d_45">
    <path d="M 30.804128 282.972342 
L 41.510103 282.972342 
" clip-path="url(#p06d2a75340)" style="fill: none; stroke: #000000; stroke-width: 2; stroke-linecap: round"/>
   </g>
   <g id="line2d_46">
    <path d="M 30.804128 272.878136 
L 41.510103 272.878136 
" clip-path="url(#p06d2a75340)" style="fill: none; stroke: #000000; stroke-width: 2; stroke-linecap: round"/>
   </g>
   <g id="line2d_47">
    <path d="M 30.804128 262.78393 
L 41.510103 262.78393 
" clip-path="url(#p06d2a75340)" style="fill: none; stroke: #000000; stroke-width: 2; stroke-linecap: round"/>
   </g>
   <g id="line2d_48">
    <path d="M 76.686881 272.878136 
L 87.392857 272.878136 
" clip-path="url(#p06d2a75340)" style="fill: none; stroke: #000000; stroke-width: 2; stroke-linecap: round"/>
   </g>
   <g id="line2d_49">
    <path d="M 90.451707 282.054687 
L 87.392857 282.054687 
L 87.392857 272.878136 
" clip-path="url(#p06d2a75340)" style="fill: none; stroke: #000000; stroke-width: 2; stroke-linecap: round"/>
   </g>
   <g id="line2d_50">
    <path d="M 153.158137 355.31415 
L 148.569861 355.31415 
L 148.569861 289.701812 
" clip-path="url(#p06d2a75340)" style="fill: none; stroke: #000000; stroke-width: 2; stroke-linecap: round"/>
   </g>
   <g id="line2d_51">
    <path d="M 101.157683 422.455912 
L 118.199848 422.356031 
L 119.947763 422.056389 
L 121.695677 421.556985 
L 123.443592 420.857819 
L 125.191506 419.958892 
L 127.376399 418.554318 
L 129.561292 416.837616 
L 131.746185 414.808787 
L 133.931078 412.46783 
L 136.115971 409.814745 
L 137.863886 407.467546 
L 137.863886 407.467546 
L 135.242014 404.021658 
L 133.057121 401.493424 
L 130.872228 399.277319 
L 128.687335 397.37334 
L 126.502442 395.78149 
L 124.317549 394.501767 
L 122.569634 393.70272 
L 120.82172 393.103435 
L 119.073806 392.703912 
L 117.325891 392.50415 
L 116.451934 392.47918 
L 101.157683 392.47918 
L 101.157683 392.47918 
L 103.360055 394.92626 
L 104.754891 396.76157 
L 105.929489 398.59688 
L 106.883851 400.432191 
L 107.617975 402.267501 
L 108.131861 404.102811 
L 108.425511 405.938121 
L 108.498923 407.773431 
L 108.352099 409.608741 
L 107.985037 411.444051 
L 107.397737 413.279362 
L 106.590201 415.114672 
L 105.562427 416.949982 
L 104.314416 418.785292 
L 102.846168 420.620602 
L 101.157683 422.455912 
L 101.157683 422.455912 
" clip-path="url(#p06d2a75340)" style="fill: none; stroke: #000000; stroke-width: 2; stroke-linecap: round"/>
   </g>
   <g id="line2d_52">
    <path d="M 90.451707 415.114672 
L 106.590201 415.114672 
" clip-path="url(#p06d2a75340)" style="fill: none; stroke: #000000; stroke-width: 2; stroke-linecap: round"/>
   </g>
   <g id="line2d_53">
    <path d="M 90.451707 399.820421 
L 106.590201 399.820421 
" clip-path="url(#p06d2a75340)" style="fill: none; stroke: #000000; stroke-width: 2; stroke-linecap: round"/>
   </g>
   <g id="line2d_54">
    <path d="M 137.863886 407.467546 
L 148.569861 407.467546 
" clip-path="url(#p06d2a75340)" style="fill: none; stroke: #000000; stroke-width: 2; stroke-linecap: round"/>
   </g>
   <g id="line2d_55">
    <path d="M 61.39263 389.114445 
L 62.372536 389.083021 
L 63.348415 388.988879 
L 64.316258 388.832406 
L 65.272087 388.614244 
L 66.211974 388.335291 
L 67.132058 387.996691 
L 68.028557 387.599838 
L 68.897787 387.146361 
L 69.736178 386.638124 
L 70.540283 386.077215 
L 71.306798 385.465939 
L 72.032574 384.806809 
L 72.714627 384.102532 
L 73.350157 383.356003 
L 73.93655 382.570289 
L 74.471398 381.74862 
L 74.952502 380.89437 
L 75.377886 380.011052 
L 75.745802 379.102293 
L 76.054737 378.17183 
L 76.303422 377.223485 
L 76.490836 376.261154 
L 76.616208 375.288794 
L 76.679023 374.310398 
L 76.679023 373.329989 
L 76.616208 372.351593 
L 76.490836 371.379233 
L 76.303422 370.416903 
L 76.054737 369.468557 
L 75.745802 368.538094 
L 75.377886 367.629335 
L 74.952502 366.746017 
L 74.471398 365.891767 
L 73.93655 365.070098 
L 73.350157 364.284384 
L 72.714627 363.537855 
L 72.032574 362.833578 
L 71.306798 362.174448 
L 70.540283 361.563172 
L 69.736178 361.002264 
L 68.897787 360.494026 
L 68.028557 360.040549 
L 67.132058 359.643696 
L 66.211974 359.305097 
L 65.272087 359.026143 
L 64.316258 358.807981 
L 63.348415 358.651508 
L 62.372536 358.557366 
L 61.39263 358.525942 
L 61.39263 358.525942 
L 41.510103 358.525942 
L 41.510103 373.820194 
L 41.510103 389.114445 
L 61.39263 389.114445 
" clip-path="url(#p06d2a75340)" style="fill: none; stroke: #000000; stroke-width: 2; stroke-linecap: round"/>
   </g>
   <g id="line2d_56">
    <path d="M 30.804128 383.914399 
L 41.510103 383.914399 
" clip-path="url(#p06d2a75340)" style="fill: none; stroke: #000000; stroke-width: 2; stroke-linecap: round"/>
   </g>
   <g id="line2d_57">
    <path d="M 30.804128 373.820194 
L 41.510103 373.820194 
" clip-path="url(#p06d2a75340)" style="fill: none; stroke: #000000; stroke-width: 2; stroke-linecap: round"/>
   </g>
   <g id="line2d_58">
    <path d="M 30.804128 363.725988 
L 41.510103 363.725988 
" clip-path="url(#p06d2a75340)" style="fill: none; stroke: #000000; stroke-width: 2; stroke-linecap: round"/>
   </g>
   <g id="line2d_59">
    <path d="M 76.686881 373.820194 
L 87.392857 373.820194 
" clip-path="url(#p06d2a75340)" style="fill: none; stroke: #000000; stroke-width: 2; stroke-linecap: round"/>
   </g>
   <g id="line2d_60">
    <path d="M 90.451707 399.820421 
L 87.392857 399.820421 
L 87.392857 373.820194 
" clip-path="url(#p06d2a75340)" style="fill: none; stroke: #000000; stroke-width: 2; stroke-linecap: round"/>
   </g>
   <g id="line2d_61">
    <path d="M 26.215852 441.114899 
L 43.192471 441.114899 
M 70.416238 441.114899 
L 87.392857 441.114899 
" clip-path="url(#p06d2a75340)" style="fill: none; stroke: #000000; stroke-width: 2; stroke-linecap: round"/>
   </g>
   <g id="line2d_62">
    <path d="M 43.192471 425.820647 
L 63.074998 441.114899 
L 43.192471 456.40915 
L 43.192471 425.820647 
" clip-path="url(#p06d2a75340)" style="fill: none; stroke: #000000; stroke-width: 2; stroke-linecap: round"/>
   </g>
   <g id="line2d_63">
    <path d="M 90.451707 415.114672 
L 87.392857 415.114672 
L 87.392857 441.114899 
" clip-path="url(#p06d2a75340)" style="fill: none; stroke: #000000; stroke-width: 2; stroke-linecap: round"/>
   </g>
   <g id="line2d_64">
    <path d="M 153.158137 365.408355 
L 148.569861 365.408355 
L 148.569861 407.467546 
" clip-path="url(#p06d2a75340)" style="fill: none; stroke: #000000; stroke-width: 2; stroke-linecap: round"/>
   </g>
   <g id="line2d_65">
    <path d="M 212.805716 246.877909 
L 209.746866 246.877909 
L 209.746866 365.408355 
" clip-path="url(#p06d2a75340)" style="fill: none; stroke: #000000; stroke-width: 2; stroke-linecap: round"/>
   </g>
   <g id="text_1">
    <g clip-path="url(#p06d2a75340)">
     <!-- output -->
     <g transform="translate(273.982721 242.680002) scale(0.125 -0.125)">
      <defs>
       <path id="DejaVuSans-6f" d="M 1959 3097 
Q 1497 3097 1228 2736 
Q 959 2375 959 1747 
Q 959 1119 1226 758 
Q 1494 397 1959 397 
Q 2419 397 2687 759 
Q 2956 1122 2956 1747 
Q 2956 2369 2687 2733 
Q 2419 3097 1959 3097 
z
M 1959 3584 
Q 2709 3584 3137 3096 
Q 3566 2609 3566 1747 
Q 3566 888 3137 398 
Q 2709 -91 1959 -91 
Q 1206 -91 779 398 
Q 353 888 353 1747 
Q 353 2609 779 3096 
Q 1206 3584 1959 3584 
z
" transform="scale(0.015625)"/>
       <path id="DejaVuSans-75" d="M 544 1381 
L 544 3500 
L 1119 3500 
L 1119 1403 
Q 1119 906 1312 657 
Q 1506 409 1894 409 
Q 2359 409 2629 706 
Q 2900 1003 2900 1516 
L 2900 3500 
L 3475 3500 
L 3475 0 
L 2900 0 
L 2900 538 
Q 2691 219 2414 64 
Q 2138 -91 1772 -91 
Q 1169 -91 856 284 
Q 544 659 544 1381 
z
M 1991 3584 
L 1991 3584 
z
" transform="scale(0.015625)"/>
       <path id="DejaVuSans-74" d="M 1172 4494 
L 1172 3500 
L 2356 3500 
L 2356 3053 
L 1172 3053 
L 1172 1153 
Q 1172 725 1289 603 
Q 1406 481 1766 481 
L 2356 481 
L 2356 0 
L 1766 0 
Q 1100 0 847 248 
Q 594 497 594 1153 
L 594 3053 
L 172 3053 
L 172 3500 
L 594 3500 
L 594 4494 
L 1172 4494 
z
" transform="scale(0.015625)"/>
       <path id="DejaVuSans-70" d="M 1159 525 
L 1159 -1331 
L 581 -1331 
L 581 3500 
L 1159 3500 
L 1159 2969 
Q 1341 3281 1617 3432 
Q 1894 3584 2278 3584 
Q 2916 3584 3314 3078 
Q 3713 2572 3713 1747 
Q 3713 922 3314 415 
Q 2916 -91 2278 -91 
Q 1894 -91 1617 61 
Q 1341 213 1159 525 
z
M 3116 1747 
Q 3116 2381 2855 2742 
Q 2594 3103 2138 3103 
Q 1681 3103 1420 2742 
Q 1159 2381 1159 1747 
Q 1159 1113 1420 752 
Q 1681 391 2138 391 
Q 2594 391 2855 752 
Q 3116 1113 3116 1747 
z
" transform="scale(0.015625)"/>
      </defs>
      <use xlink:href="#DejaVuSans-6f"/>
      <use xlink:href="#DejaVuSans-75" x="61.181641"/>
      <use xlink:href="#DejaVuSans-74" x="124.560547"/>
      <use xlink:href="#DejaVuSans-70" x="163.769531"/>
      <use xlink:href="#DejaVuSans-75" x="227.246094"/>
      <use xlink:href="#DejaVuSans-74" x="290.625"/>
     </g>
    </g>
   </g>
   <g id="text_2">
    <g clip-path="url(#p06d2a75340)">
     <!-- d -->
     <g transform="translate(79.45731 65.266689) scale(0.125 -0.125)">
      <defs>
       <path id="DejaVuSans-64" d="M 2906 2969 
L 2906 4863 
L 3481 4863 
L 3481 0 
L 2906 0 
L 2906 525 
Q 2725 213 2448 61 
Q 2172 -91 1784 -91 
Q 1150 -91 751 415 
Q 353 922 353 1747 
Q 353 2572 751 3078 
Q 1150 3584 1784 3584 
Q 2172 3584 2448 3432 
Q 2725 3281 2906 2969 
z
M 947 1747 
Q 947 1113 1208 752 
Q 1469 391 1925 391 
Q 2381 391 2643 752 
Q 2906 1113 2906 1747 
Q 2906 2381 2643 2742 
Q 2381 3103 1925 3103 
Q 1469 3103 1208 2742 
Q 947 2381 947 1747 
z
" transform="scale(0.015625)"/>
      </defs>
      <use xlink:href="#DejaVuSans-64"/>
     </g>
    </g>
   </g>
   <g id="text_3">
    <g clip-path="url(#p06d2a75340)">
     <!-- a -->
     <g transform="translate(20.085121 30.701681) scale(0.125 -0.125)">
      <defs>
       <path id="DejaVuSans-61" d="M 2194 1759 
Q 1497 1759 1228 1600 
Q 959 1441 959 1056 
Q 959 750 1161 570 
Q 1363 391 1709 391 
Q 2188 391 2477 730 
Q 2766 1069 2766 1631 
L 2766 1759 
L 2194 1759 
z
M 3341 1997 
L 3341 0 
L 2766 0 
L 2766 531 
Q 2569 213 2275 61 
Q 1981 -91 1556 -91 
Q 1019 -91 701 211 
Q 384 513 384 1019 
Q 384 1609 779 1909 
Q 1175 2209 1959 2209 
L 2766 2209 
L 2766 2266 
Q 2766 2663 2505 2880 
Q 2244 3097 1772 3097 
Q 1472 3097 1187 3025 
Q 903 2953 641 2809 
L 641 3341 
Q 956 3463 1253 3523 
Q 1550 3584 1831 3584 
Q 2591 3584 2966 3190 
Q 3341 2797 3341 1997 
z
" transform="scale(0.015625)"/>
      </defs>
      <use xlink:href="#DejaVuSans-61"/>
     </g>
    </g>
   </g>
   <g id="text_4">
    <g clip-path="url(#p06d2a75340)">
     <!-- b -->
     <g transform="translate(19.80973 40.795887) scale(0.125 -0.125)">
      <defs>
       <path id="DejaVuSans-62" d="M 3116 1747 
Q 3116 2381 2855 2742 
Q 2594 3103 2138 3103 
Q 1681 3103 1420 2742 
Q 1159 2381 1159 1747 
Q 1159 1113 1420 752 
Q 1681 391 2138 391 
Q 2594 391 2855 752 
Q 3116 1113 3116 1747 
z
M 1159 2969 
Q 1341 3281 1617 3432 
Q 1894 3584 2278 3584 
Q 2916 3584 3314 3078 
Q 3713 2572 3713 1747 
Q 3713 922 3314 415 
Q 2916 -91 2278 -91 
Q 1894 -91 1617 61 
Q 1341 213 1159 525 
L 1159 0 
L 581 0 
L 581 4863 
L 1159 4863 
L 1159 2969 
z
" transform="scale(0.015625)"/>
      </defs>
      <use xlink:href="#DejaVuSans-62"/>
     </g>
    </g>
   </g>
   <g id="text_5">
    <g clip-path="url(#p06d2a75340)">
     <!-- c -->
     <g transform="translate(20.87223 50.890093) scale(0.125 -0.125)">
      <defs>
       <path id="DejaVuSans-63" d="M 3122 3366 
L 3122 2828 
Q 2878 2963 2633 3030 
Q 2388 3097 2138 3097 
Q 1578 3097 1268 2742 
Q 959 2388 959 1747 
Q 959 1106 1268 751 
Q 1578 397 2138 397 
Q 2388 397 2633 464 
Q 2878 531 3122 666 
L 3122 134 
Q 2881 22 2623 -34 
Q 2366 -91 2075 -91 
Q 1284 -91 818 406 
Q 353 903 353 1747 
Q 353 2603 823 3093 
Q 1294 3584 2113 3584 
Q 2378 3584 2631 3529 
Q 2884 3475 3122 3366 
z
" transform="scale(0.015625)"/>
      </defs>
      <use xlink:href="#DejaVuSans-63"/>
     </g>
    </g>
   </g>
   <g id="text_6">
    <g clip-path="url(#p06d2a75340)">
     <!-- a -->
     <g transform="translate(20.085121 131.643739) scale(0.125 -0.125)">
      <use xlink:href="#DejaVuSans-61"/>
     </g>
    </g>
   </g>
   <g id="text_7">
    <g clip-path="url(#p06d2a75340)">
     <!-- b -->
     <g transform="translate(19.80973 141.737945) scale(0.125 -0.125)">
      <use xlink:href="#DejaVuSans-62"/>
     </g>
    </g>
   </g>
   <g id="text_8">
    <g clip-path="url(#p06d2a75340)">
     <!-- c -->
     <g transform="translate(20.87223 151.83215) scale(0.125 -0.125)">
      <use xlink:href="#DejaVuSans-63"/>
     </g>
    </g>
   </g>
   <g id="text_9">
    <g clip-path="url(#p06d2a75340)">
     <!-- d -->
     <g transform="translate(15.221455 209.03265) scale(0.125 -0.125)">
      <use xlink:href="#DejaVuSans-64"/>
     </g>
    </g>
   </g>
   <g id="text_10">
    <g clip-path="url(#p06d2a75340)">
     <!-- e -->
     <g transform="translate(142.40788 378.95178) scale(0.125 -0.125)">
      <defs>
       <path id="DejaVuSans-65" d="M 3597 1894 
L 3597 1613 
L 953 1613 
Q 991 1019 1311 708 
Q 1631 397 2203 397 
Q 2534 397 2845 478 
Q 3156 559 3463 722 
L 3463 178 
Q 3153 47 2828 -22 
Q 2503 -91 2169 -91 
Q 1331 -91 842 396 
Q 353 884 353 1716 
Q 353 2575 817 3079 
Q 1281 3584 2069 3584 
Q 2775 3584 3186 3129 
Q 3597 2675 3597 1894 
z
M 3022 2063 
Q 3016 2534 2758 2815 
Q 2500 3097 2075 3097 
Q 1594 3097 1305 2825 
Q 1016 2553 972 2059 
L 3022 2063 
z
" transform="scale(0.015625)"/>
      </defs>
      <use xlink:href="#DejaVuSans-65"/>
     </g>
    </g>
   </g>
   <g id="text_11">
    <g clip-path="url(#p06d2a75340)">
     <!-- d -->
     <g transform="translate(79.45731 300.798157) scale(0.125 -0.125)">
      <use xlink:href="#DejaVuSans-64"/>
     </g>
    </g>
   </g>
   <g id="text_12">
    <g clip-path="url(#p06d2a75340)">
     <!-- a -->
     <g transform="translate(20.085121 266.233149) scale(0.125 -0.125)">
      <use xlink:href="#DejaVuSans-61"/>
     </g>
    </g>
   </g>
   <g id="text_13">
    <g clip-path="url(#p06d2a75340)">
     <!-- b -->
     <g transform="translate(19.80973 276.327355) scale(0.125 -0.125)">
      <use xlink:href="#DejaVuSans-62"/>
     </g>
    </g>
   </g>
   <g id="text_14">
    <g clip-path="url(#p06d2a75340)">
     <!-- c -->
     <g transform="translate(20.87223 286.421561) scale(0.125 -0.125)">
      <use xlink:href="#DejaVuSans-63"/>
     </g>
    </g>
   </g>
   <g id="text_15">
    <g clip-path="url(#p06d2a75340)">
     <!-- a -->
     <g transform="translate(20.085121 367.175207) scale(0.125 -0.125)">
      <use xlink:href="#DejaVuSans-61"/>
     </g>
    </g>
   </g>
   <g id="text_16">
    <g clip-path="url(#p06d2a75340)">
     <!-- b -->
     <g transform="translate(19.80973 377.269412) scale(0.125 -0.125)">
      <use xlink:href="#DejaVuSans-62"/>
     </g>
    </g>
   </g>
   <g id="text_17">
    <g clip-path="url(#p06d2a75340)">
     <!-- c -->
     <g transform="translate(20.87223 387.363618) scale(0.125 -0.125)">
      <use xlink:href="#DejaVuSans-63"/>
     </g>
    </g>
   </g>
   <g id="text_18">
    <g clip-path="url(#p06d2a75340)">
     <!-- d -->
     <g transform="translate(15.221455 444.564117) scale(0.125 -0.125)">
      <use xlink:href="#DejaVuSans-64"/>
     </g>
    </g>
   </g>
  </g>
 </g>
 <defs>
  <clipPath id="p06d2a75340">
   <rect x="7.2" y="7.2" width="316.336095" height="452.268"/>
  </clipPath>
 </defs>
</svg>
