<?xml version="1.0" encoding="utf-8" standalone="no"?>
<!DOCTYPE svg PUBLIC "-//W3C//DTD SVG 1.1//EN"
  "http://www.w3.org/Graphics/SVG/1.1/DTD/svg11.dtd">
<svg xmlns:xlink="http://www.w3.org/1999/xlink" width="452.877328pt" height="409.14pt" viewBox="0 0 452.877328 409.14" xmlns="http://www.w3.org/2000/svg" version="1.1">
 <metadata>
  <rdf:RDF xmlns:dc="http://purl.org/dc/elements/1.1/" xmlns:cc="http://creativecommons.org/ns#" xmlns:rdf="http://www.w3.org/1999/02/22-rdf-syntax-ns#">
   <cc:Work>
    <dc:type rdf:resource="http://purl.org/dc/dcmitype/StillImage"/>
    <dc:date>2022-11-07T11:56:53.193948</dc:date>
    <dc:format>image/svg+xml</dc:format>
    <dc:creator>
     <cc:Agent>
      <dc:title>Matplotlib v3.6.0, https://matplotlib.org/</dc:title>
     </cc:Agent>
    </dc:creator>
   </cc:Work>
  </rdf:RDF>
 </metadata>
 <defs>
  <style type="text/css">*{stroke-linejoin: round; stroke-linecap: butt}</style>
 </defs>
 <g id="figure_1">
  <g id="patch_1">
   <path d="M 0 409.14 
L 452.877328 409.14 
L 452.877328 0 
L 0 0 
L 0 409.14 
z
" style="fill: none"/>
  </g>
  <g id="axes_1">
   <g id="patch_2">
    <path d="M 250.158733 30.911577 
C 251.131721 30.911577 252.064989 30.525004 252.752995 29.836998 
C 253.441001 29.148992 253.827573 28.215724 253.827573 27.242737 
C 253.827573 26.269749 253.441001 25.336481 252.752995 24.648475 
C 252.064989 23.960469 251.131721 23.573897 250.158733 23.573897 
C 249.185745 23.573897 248.252478 23.960469 247.564472 24.648475 
C 246.876465 25.336481 246.489893 26.269749 246.489893 27.242737 
C 246.489893 28.215724 246.876465 29.148992 247.564472 29.836998 
C 248.252478 30.525004 249.185745 30.911577 250.158733 30.911577 
L 250.158733 30.911577 
z
" clip-path="url(#p8513767077)" style="fill: none; stroke: #000000; stroke-width: 2; stroke-linejoin: miter"/>
   </g>
   <g id="patch_3">
    <path d="M 189.011401 81.358126 
C 189.984389 81.358126 190.917656 80.971554 191.605663 80.283547 
C 192.293669 79.595541 192.680241 78.662273 192.680241 77.689286 
C 192.680241 76.716298 192.293669 75.78303 191.605663 75.095024 
C 190.917656 74.407018 189.984389 74.020446 189.011401 74.020446 
C 188.038413 74.020446 187.105146 74.407018 186.417139 75.095024 
C 185.729133 75.78303 185.342561 76.716298 185.342561 77.689286 
C 185.342561 78.662273 185.729133 79.595541 186.417139 80.283547 
C 187.105146 80.971554 188.038413 81.358126 189.011401 81.358126 
L 189.011401 81.358126 
z
" clip-path="url(#p8513767077)" style="fill: none; stroke: #000000; stroke-width: 2; stroke-linejoin: miter"/>
   </g>
   <g id="patch_4">
    <path d="M 263.764015 182.251224 
C 264.737002 182.251224 265.67027 181.864652 266.358276 181.176645 
C 267.046282 180.488639 267.432855 179.555372 267.432855 178.582384 
C 267.432855 177.609396 267.046282 176.676128 266.358276 175.988122 
C 265.67027 175.300116 264.737002 174.913544 263.764015 174.913544 
C 262.791027 174.913544 261.857759 175.300116 261.169753 175.988122 
C 260.481747 176.676128 260.095175 177.609396 260.095175 178.582384 
C 260.095175 179.555372 260.481747 180.488639 261.169753 181.176645 
C 261.857759 181.864652 262.791027 182.251224 263.764015 182.251224 
L 263.764015 182.251224 
z
" clip-path="url(#p8513767077)" style="fill: none; stroke: #000000; stroke-width: 2; stroke-linejoin: miter"/>
   </g>
   <g id="patch_5">
    <path d="M 189.011401 148.620191 
C 189.984389 148.620191 190.917656 148.233619 191.605663 147.545613 
C 192.293669 146.857606 192.680241 145.924339 192.680241 144.951351 
C 192.680241 143.978363 192.293669 143.045096 191.605663 142.35709 
C 190.917656 141.669083 189.984389 141.282511 189.011401 141.282511 
C 188.038413 141.282511 187.105146 141.669083 186.417139 142.35709 
C 185.729133 143.045096 185.342561 143.978363 185.342561 144.951351 
C 185.342561 145.924339 185.729133 146.857606 186.417139 147.545613 
C 187.105146 148.233619 188.038413 148.620191 189.011401 148.620191 
L 189.011401 148.620191 
z
" clip-path="url(#p8513767077)" style="fill: none; stroke: #000000; stroke-width: 2; stroke-linejoin: miter"/>
   </g>
   <g id="patch_6">
    <path d="M 127.864069 199.06674 
C 128.837057 199.06674 129.770324 198.680168 130.45833 197.992162 
C 131.146337 197.304156 131.532909 196.370888 131.532909 195.3979 
C 131.532909 194.424912 131.146337 193.491645 130.45833 192.803639 
C 129.770324 192.115632 128.837057 191.72906 127.864069 191.72906 
C 126.891081 191.72906 125.957813 192.115632 125.269807 192.803639 
C 124.581801 193.491645 124.195229 194.424912 124.195229 195.3979 
C 124.195229 196.370888 124.581801 197.304156 125.269807 197.992162 
C 125.957813 198.680168 126.891081 199.06674 127.864069 199.06674 
L 127.864069 199.06674 
z
" clip-path="url(#p8513767077)" style="fill: none; stroke: #000000; stroke-width: 2; stroke-linejoin: miter"/>
   </g>
   <g id="patch_7">
    <path d="M 127.864069 266.328806 
C 128.837057 266.328806 129.770324 265.942233 130.45833 265.254227 
C 131.146337 264.566221 131.532909 263.632953 131.532909 262.659966 
C 131.532909 261.686978 131.146337 260.75371 130.45833 260.065704 
C 129.770324 259.377698 128.837057 258.991126 127.864069 258.991126 
C 126.891081 258.991126 125.957813 259.377698 125.269807 260.065704 
C 124.581801 260.75371 124.195229 261.686978 124.195229 262.659966 
C 124.195229 263.632953 124.581801 264.566221 125.269807 265.254227 
C 125.957813 265.942233 126.891081 266.328806 127.864069 266.328806 
L 127.864069 266.328806 
z
" clip-path="url(#p8513767077)" style="fill: none; stroke: #000000; stroke-width: 2; stroke-linejoin: miter"/>
   </g>
   <g id="patch_8">
    <path d="M 66.716737 316.775355 
C 67.689724 316.775355 68.622992 316.388782 69.310998 315.700776 
C 69.999004 315.01277 70.385577 314.079502 70.385577 313.106515 
C 70.385577 312.133527 69.999004 311.200259 69.310998 310.512253 
C 68.622992 309.824247 67.689724 309.437675 66.716737 309.437675 
C 65.743749 309.437675 64.810481 309.824247 64.122475 310.512253 
C 63.434469 311.200259 63.047897 312.133527 63.047897 313.106515 
C 63.047897 314.079502 63.434469 315.01277 64.122475 315.700776 
C 64.810481 316.388782 65.743749 316.775355 66.716737 316.775355 
L 66.716737 316.775355 
z
" clip-path="url(#p8513767077)" style="fill: none; stroke: #000000; stroke-width: 2; stroke-linejoin: miter"/>
   </g>
   <g id="patch_9">
    <path d="M 66.716737 350.406387 
C 67.689724 350.406387 68.622992 350.019815 69.310998 349.331809 
C 69.999004 348.643803 70.385577 347.710535 70.385577 346.737547 
C 70.385577 345.76456 69.999004 344.831292 69.310998 344.143286 
C 68.622992 343.45528 67.689724 343.068707 66.716737 343.068707 
C 65.743749 343.068707 64.810481 343.45528 64.122475 344.143286 
C 63.434469 344.831292 63.047897 345.76456 63.047897 346.737547 
C 63.047897 347.710535 63.434469 348.643803 64.122475 349.331809 
C 64.810481 350.019815 65.743749 350.406387 66.716737 350.406387 
L 66.716737 350.406387 
z
" clip-path="url(#p8513767077)" style="fill: none; stroke: #000000; stroke-width: 2; stroke-linejoin: miter"/>
   </g>
   <g id="line2d_1">
    <path d="M 345.70144 174.646024 
L 362.735339 174.546192 
L 364.482406 174.246695 
L 366.229473 173.747533 
L 367.976539 173.048706 
L 369.723606 172.150215 
L 371.907439 170.746322 
L 374.091273 169.030453 
L 376.275106 167.002608 
L 378.458939 164.662786 
L 380.642772 162.010989 
L 382.389839 159.664928 
L 382.389839 159.664928 
L 379.769239 156.220711 
L 377.585406 153.693704 
L 375.401573 151.478673 
L 373.217739 149.575618 
L 371.033906 147.98454 
L 368.850073 146.705437 
L 367.103006 145.906778 
L 365.355939 145.307784 
L 363.608873 144.908454 
L 361.861806 144.70879 
L 360.988273 144.683832 
L 345.70144 144.683832 
L 345.70144 144.683832 
L 347.902744 147.129725 
L 349.296903 148.964145 
L 350.470932 150.798565 
L 351.42483 152.632985 
L 352.158598 154.467405 
L 352.672236 156.301825 
L 352.965743 158.136245 
L 353.03912 159.970665 
L 352.892366 161.805085 
L 352.525482 163.639505 
L 351.938468 165.473924 
L 351.131323 167.308344 
L 350.104048 169.142764 
L 348.856642 170.977184 
L 347.389106 172.811604 
L 345.70144 174.646024 
L 345.70144 174.646024 
" clip-path="url(#p8513767077)" style="fill: none; stroke: #000000; stroke-width: 2; stroke-linecap: round"/>
   </g>
   <g id="line2d_2">
    <path d="M 335.000657 167.308344 
L 351.131323 167.308344 
" clip-path="url(#p8513767077)" style="fill: none; stroke: #000000; stroke-width: 2; stroke-linecap: round"/>
   </g>
   <g id="line2d_3">
    <path d="M 335.000657 152.021511 
L 351.131323 152.021511 
" clip-path="url(#p8513767077)" style="fill: none; stroke: #000000; stroke-width: 2; stroke-linecap: round"/>
   </g>
   <g id="line2d_4">
    <path d="M 382.389839 159.664928 
L 393.090622 159.664928 
" clip-path="url(#p8513767077)" style="fill: none; stroke: #000000; stroke-width: 2; stroke-linecap: round"/>
   </g>
   <g id="line2d_5">
    <path d="M 284.554108 75.854866 
L 301.588007 75.755033 
L 303.335074 75.455536 
L 305.082141 74.956374 
L 306.829207 74.257548 
L 308.576274 73.359056 
L 310.760107 71.955163 
L 312.94394 70.239294 
L 315.127774 68.211449 
L 317.311607 65.871628 
L 319.49544 63.21983 
L 321.242507 60.873769 
L 321.242507 60.873769 
L 318.621907 57.429552 
L 316.438074 54.902545 
L 314.25424 52.687514 
L 312.070407 50.78446 
L 309.886574 49.193381 
L 307.70274 47.914279 
L 305.955674 47.11562 
L 304.208607 46.516625 
L 302.461541 46.117296 
L 300.714474 45.917631 
L 299.840941 45.892673 
L 284.554108 45.892673 
L 284.554108 45.892673 
L 286.755412 48.338566 
L 288.149571 50.172986 
L 289.323599 52.007406 
L 290.277498 53.841826 
L 291.011266 55.676246 
L 291.524903 57.510666 
L 291.818411 59.345086 
L 291.891787 61.179506 
L 291.745034 63.013926 
L 291.37815 64.848346 
L 290.791135 66.682766 
L 289.983991 68.517186 
L 288.956715 70.351606 
L 287.70931 72.186026 
L 286.241774 74.020446 
L 284.554108 75.854866 
L 284.554108 75.854866 
" clip-path="url(#p8513767077)" style="fill: none; stroke: #000000; stroke-width: 2; stroke-linecap: round"/>
   </g>
   <g id="line2d_6">
    <path d="M 273.853324 70.963079 
L 288.565373 70.963079 
" clip-path="url(#p8513767077)" style="fill: none; stroke: #000000; stroke-width: 2; stroke-linecap: round"/>
   </g>
   <g id="line2d_7">
    <path d="M 273.853324 60.873769 
L 291.894845 60.873769 
" clip-path="url(#p8513767077)" style="fill: none; stroke: #000000; stroke-width: 2; stroke-linecap: round"/>
   </g>
   <g id="line2d_8">
    <path d="M 273.853324 50.78446 
L 288.565373 50.78446 
" clip-path="url(#p8513767077)" style="fill: none; stroke: #000000; stroke-width: 2; stroke-linecap: round"/>
   </g>
   <g id="line2d_9">
    <path d="M 321.242507 60.873769 
L 331.94329 60.873769 
" clip-path="url(#p8513767077)" style="fill: none; stroke: #000000; stroke-width: 2; stroke-linecap: round"/>
   </g>
   <g id="line2d_10">
    <path d="M 209.648626 27.242737 
L 226.61701 27.242737 
M 253.827573 27.242737 
L 270.795958 27.242737 
" clip-path="url(#p8513767077)" style="fill: none; stroke: #000000; stroke-width: 2; stroke-linecap: round"/>
   </g>
   <g id="line2d_11">
    <path d="M 226.61701 11.955904 
L 246.489893 27.242737 
L 226.61701 42.52957 
L 226.61701 11.955904 
" clip-path="url(#p8513767077)" style="fill: none; stroke: #000000; stroke-width: 2; stroke-linecap: round"/>
   </g>
   <g id="line2d_12">
    <path d="M 273.853324 50.78446 
L 270.795958 50.78446 
L 270.795958 27.242737 
" clip-path="url(#p8513767077)" style="fill: none; stroke: #000000; stroke-width: 2; stroke-linecap: round"/>
   </g>
   <g id="line2d_13">
    <path d="M 244.808342 109.791635 
L 245.787772 109.760227 
L 246.763178 109.66613 
L 247.730552 109.509733 
L 248.685917 109.291677 
L 249.625348 109.012859 
L 250.544986 108.674424 
L 251.44105 108.277763 
L 252.309859 107.824506 
L 253.147843 107.316515 
L 253.951557 106.755878 
L 254.717701 106.144899 
L 255.443125 105.486089 
L 256.124848 104.782154 
L 256.760069 104.035987 
L 257.346178 103.250654 
L 257.880766 102.429383 
L 258.361637 101.575548 
L 258.786815 100.692657 
L 259.154552 99.78434 
L 259.463337 98.854328 
L 259.711902 97.906442 
L 259.899225 96.944579 
L 260.024536 95.97269 
L 260.087321 94.994769 
L 260.087321 94.014835 
L 260.024536 93.036914 
L 259.899225 92.065025 
L 259.711902 91.103162 
L 259.463337 90.155276 
L 259.154552 89.225264 
L 258.786815 88.316947 
L 258.361637 87.434056 
L 257.880766 86.580221 
L 257.346178 85.75895 
L 256.760069 84.973618 
L 256.124848 84.227451 
L 255.443125 83.523515 
L 254.717701 82.864705 
L 253.951557 82.253726 
L 253.147843 81.693089 
L 252.309859 81.185099 
L 251.44105 80.731841 
L 250.544986 80.33518 
L 249.625348 79.996745 
L 248.685917 79.717927 
L 247.730552 79.499871 
L 246.763178 79.343474 
L 245.787772 79.249377 
L 244.808342 79.217969 
L 244.808342 79.217969 
L 224.935459 79.217969 
L 224.935459 94.504802 
L 224.935459 109.791635 
L 244.808342 109.791635 
" clip-path="url(#p8513767077)" style="fill: none; stroke: #000000; stroke-width: 2; stroke-linecap: round"/>
   </g>
   <g id="line2d_14">
    <path d="M 214.234676 102.148219 
L 224.935459 102.148219 
" clip-path="url(#p8513767077)" style="fill: none; stroke: #000000; stroke-width: 2; stroke-linecap: round"/>
   </g>
   <g id="line2d_15">
    <path d="M 214.234676 86.861386 
L 224.935459 86.861386 
" clip-path="url(#p8513767077)" style="fill: none; stroke: #000000; stroke-width: 2; stroke-linecap: round"/>
   </g>
   <g id="line2d_16">
    <path d="M 260.095175 94.504802 
L 270.795958 94.504802 
" clip-path="url(#p8513767077)" style="fill: none; stroke: #000000; stroke-width: 2; stroke-linecap: round"/>
   </g>
   <g id="line2d_17">
    <path d="M 148.501293 77.689286 
L 165.469678 77.689286 
M 192.680241 77.689286 
L 209.648626 77.689286 
" clip-path="url(#p8513767077)" style="fill: none; stroke: #000000; stroke-width: 2; stroke-linecap: round"/>
   </g>
   <g id="line2d_18">
    <path d="M 165.469678 62.402453 
L 185.342561 77.689286 
L 165.469678 92.976119 
L 165.469678 62.402453 
" clip-path="url(#p8513767077)" style="fill: none; stroke: #000000; stroke-width: 2; stroke-linecap: round"/>
   </g>
   <g id="line2d_19">
    <path d="M 214.234676 86.861386 
L 209.648626 86.861386 
L 209.648626 77.689286 
" clip-path="url(#p8513767077)" style="fill: none; stroke: #000000; stroke-width: 2; stroke-linecap: round"/>
   </g>
   <g id="line2d_20">
    <path d="M 273.853324 70.963079 
L 270.795958 70.963079 
L 270.795958 94.504802 
" clip-path="url(#p8513767077)" style="fill: none; stroke: #000000; stroke-width: 2; stroke-linecap: round"/>
   </g>
   <g id="line2d_21">
    <path d="M 335.000657 152.021511 
L 331.94329 152.021511 
L 331.94329 60.873769 
" clip-path="url(#p8513767077)" style="fill: none; stroke: #000000; stroke-width: 2; stroke-linecap: round"/>
   </g>
   <g id="line2d_22">
    <path d="M 305.955674 273.74292 
L 306.935105 273.711511 
L 307.910511 273.617415 
L 308.877884 273.461017 
L 309.833249 273.242962 
L 310.772681 272.964143 
L 311.692318 272.625708 
L 312.588382 272.229047 
L 313.457191 271.77579 
L 314.295175 271.267799 
L 315.09889 270.707163 
L 315.865033 270.096184 
L 316.590457 269.437373 
L 317.27218 268.733438 
L 317.907401 267.987271 
L 318.49351 267.201938 
L 319.028098 266.380667 
L 319.508969 265.526832 
L 319.934147 264.643942 
L 320.301884 263.735624 
L 320.610669 262.805612 
L 320.859234 261.857727 
L 321.046557 260.895863 
L 321.171868 259.923974 
L 321.234653 258.946054 
L 321.234653 257.966119 
L 321.171868 256.988199 
L 321.046557 256.01631 
L 320.859234 255.054446 
L 320.610669 254.106561 
L 320.301884 253.176549 
L 319.934147 252.268231 
L 319.508969 251.385341 
L 319.028098 250.531506 
L 318.49351 249.710235 
L 317.907401 248.924902 
L 317.27218 248.178735 
L 316.590457 247.4748 
L 315.865033 246.815989 
L 315.09889 246.20501 
L 314.295175 245.644374 
L 313.457191 245.136383 
L 312.588382 244.683126 
L 311.692318 244.286465 
L 310.772681 243.94803 
L 309.833249 243.669211 
L 308.877884 243.451156 
L 307.910511 243.294758 
L 306.935105 243.200662 
L 305.955674 243.169253 
L 305.955674 243.169253 
L 286.082791 243.169253 
L 286.082791 258.456086 
L 286.082791 273.74292 
L 305.955674 273.74292 
" clip-path="url(#p8513767077)" style="fill: none; stroke: #000000; stroke-width: 2; stroke-linecap: round"/>
   </g>
   <g id="line2d_23">
    <path d="M 275.382008 266.099503 
L 286.082791 266.099503 
" clip-path="url(#p8513767077)" style="fill: none; stroke: #000000; stroke-width: 2; stroke-linecap: round"/>
   </g>
   <g id="line2d_24">
    <path d="M 275.382008 250.81267 
L 286.082791 250.81267 
" clip-path="url(#p8513767077)" style="fill: none; stroke: #000000; stroke-width: 2; stroke-linecap: round"/>
   </g>
   <g id="line2d_25">
    <path d="M 321.242507 258.456086 
L 331.94329 258.456086 
" clip-path="url(#p8513767077)" style="fill: none; stroke: #000000; stroke-width: 2; stroke-linecap: round"/>
   </g>
   <g id="line2d_26">
    <path d="M 223.406775 193.56348 
L 240.440675 193.463648 
L 242.187742 193.164151 
L 243.934808 192.664989 
L 245.681875 191.966162 
L 247.428942 191.067671 
L 249.612775 189.663778 
L 251.796608 187.947909 
L 253.980441 185.920064 
L 256.164275 183.580242 
L 258.348108 180.928445 
L 260.095175 178.582384 
L 260.095175 178.582384 
L 257.474575 175.138167 
L 255.290741 172.61116 
L 253.106908 170.396129 
L 250.923075 168.493074 
L 248.739242 166.901995 
L 246.555408 165.622893 
L 244.808342 164.824234 
L 243.061275 164.22524 
L 241.314208 163.82591 
L 239.567142 163.626246 
L 238.693608 163.601287 
L 223.406775 163.601287 
L 223.406775 163.601287 
L 225.608079 166.047181 
L 227.002239 167.881601 
L 228.176267 169.716021 
L 229.130166 171.550441 
L 229.863934 173.384861 
L 230.377571 175.219281 
L 230.671078 177.053701 
L 230.744455 178.88812 
L 230.597702 180.72254 
L 230.230818 182.55696 
L 229.643803 184.39138 
L 228.836658 186.2258 
L 227.809383 188.06022 
L 226.561978 189.89464 
L 225.094442 191.72906 
L 223.406775 193.56348 
L 223.406775 193.56348 
" clip-path="url(#p8513767077)" style="fill: none; stroke: #000000; stroke-width: 2; stroke-linecap: round"/>
   </g>
   <g id="line2d_27">
    <path d="M 212.705992 188.671694 
L 227.41804 188.671694 
" clip-path="url(#p8513767077)" style="fill: none; stroke: #000000; stroke-width: 2; stroke-linecap: round"/>
   </g>
   <g id="line2d_28">
    <path d="M 212.705992 178.582384 
L 230.747513 178.582384 
" clip-path="url(#p8513767077)" style="fill: none; stroke: #000000; stroke-width: 2; stroke-linecap: round"/>
   </g>
   <g id="line2d_29">
    <path d="M 212.705992 168.493074 
L 227.41804 168.493074 
" clip-path="url(#p8513767077)" style="fill: none; stroke: #000000; stroke-width: 2; stroke-linecap: round"/>
   </g>
   <g id="line2d_30">
    <path d="M 267.432855 178.582384 
L 270.795958 178.582384 
" clip-path="url(#p8513767077)" style="fill: none; stroke: #000000; stroke-width: 2; stroke-linecap: round"/>
   </g>
   <g id="line2d_31">
    <path d="M 148.501293 144.951351 
L 165.469678 144.951351 
M 192.680241 144.951351 
L 209.648626 144.951351 
" clip-path="url(#p8513767077)" style="fill: none; stroke: #000000; stroke-width: 2; stroke-linecap: round"/>
   </g>
   <g id="line2d_32">
    <path d="M 165.469678 129.664518 
L 185.342561 144.951351 
L 165.469678 160.238184 
L 165.469678 129.664518 
" clip-path="url(#p8513767077)" style="fill: none; stroke: #000000; stroke-width: 2; stroke-linecap: round"/>
   </g>
   <g id="line2d_33">
    <path d="M 212.705992 168.493074 
L 209.648626 168.493074 
L 209.648626 144.951351 
" clip-path="url(#p8513767077)" style="fill: none; stroke: #000000; stroke-width: 2; stroke-linecap: round"/>
   </g>
   <g id="line2d_34">
    <path d="M 183.661009 227.50025 
L 184.64044 227.468841 
L 185.615846 227.374745 
L 186.58322 227.218347 
L 187.538585 227.000292 
L 188.478016 226.721473 
L 189.397654 226.383038 
L 190.293718 225.986377 
L 191.162527 225.53312 
L 192.00051 225.025129 
L 192.804225 224.464493 
L 193.570369 223.853514 
L 194.295792 223.194703 
L 194.977516 222.490768 
L 195.612737 221.744601 
L 196.198846 220.959268 
L 196.733434 220.137997 
L 197.214305 219.284162 
L 197.639483 218.401272 
L 198.00722 217.492954 
L 198.316005 216.562942 
L 198.56457 215.615057 
L 198.751893 214.653193 
L 198.877204 213.681304 
L 198.939988 212.703384 
L 198.939988 211.723449 
L 198.877204 210.745529 
L 198.751893 209.77364 
L 198.56457 208.811776 
L 198.316005 207.863891 
L 198.00722 206.933879 
L 197.639483 206.025561 
L 197.214305 205.142671 
L 196.733434 204.288836 
L 196.198846 203.467565 
L 195.612737 202.682232 
L 194.977516 201.936065 
L 194.295792 201.23213 
L 193.570369 200.573319 
L 192.804225 199.96234 
L 192.00051 199.401704 
L 191.162527 198.893713 
L 190.293718 198.440456 
L 189.397654 198.043795 
L 188.478016 197.70536 
L 187.538585 197.426541 
L 186.58322 197.208486 
L 185.615846 197.052088 
L 184.64044 196.957992 
L 183.661009 196.926583 
L 183.661009 196.926583 
L 163.788127 196.926583 
L 163.788127 212.213417 
L 163.788127 227.50025 
L 183.661009 227.50025 
" clip-path="url(#p8513767077)" style="fill: none; stroke: #000000; stroke-width: 2; stroke-linecap: round"/>
   </g>
   <g id="line2d_35">
    <path d="M 153.087343 219.856833 
L 163.788127 219.856833 
" clip-path="url(#p8513767077)" style="fill: none; stroke: #000000; stroke-width: 2; stroke-linecap: round"/>
   </g>
   <g id="line2d_36">
    <path d="M 153.087343 204.57 
L 163.788127 204.57 
" clip-path="url(#p8513767077)" style="fill: none; stroke: #000000; stroke-width: 2; stroke-linecap: round"/>
   </g>
   <g id="line2d_37">
    <path d="M 198.947843 212.213417 
L 209.648626 212.213417 
" clip-path="url(#p8513767077)" style="fill: none; stroke: #000000; stroke-width: 2; stroke-linecap: round"/>
   </g>
   <g id="line2d_38">
    <path d="M 87.353961 195.3979 
L 104.322346 195.3979 
M 131.532909 195.3979 
L 148.501293 195.3979 
" clip-path="url(#p8513767077)" style="fill: none; stroke: #000000; stroke-width: 2; stroke-linecap: round"/>
   </g>
   <g id="line2d_39">
    <path d="M 104.322346 180.111067 
L 124.195229 195.3979 
L 104.322346 210.684733 
L 104.322346 180.111067 
" clip-path="url(#p8513767077)" style="fill: none; stroke: #000000; stroke-width: 2; stroke-linecap: round"/>
   </g>
   <g id="line2d_40">
    <path d="M 153.087343 204.57 
L 148.501293 204.57 
L 148.501293 195.3979 
" clip-path="url(#p8513767077)" style="fill: none; stroke: #000000; stroke-width: 2; stroke-linecap: round"/>
   </g>
   <g id="line2d_41">
    <path d="M 212.705992 188.671694 
L 209.648626 188.671694 
L 209.648626 212.213417 
" clip-path="url(#p8513767077)" style="fill: none; stroke: #000000; stroke-width: 2; stroke-linecap: round"/>
   </g>
   <g id="line2d_42">
    <path d="M 275.382008 250.81267 
L 270.795958 250.81267 
L 270.795958 178.582384 
" clip-path="url(#p8513767077)" style="fill: none; stroke: #000000; stroke-width: 2; stroke-linecap: round"/>
   </g>
   <g id="line2d_43">
    <path d="M 244.808342 353.616622 
L 245.787772 353.585214 
L 246.763178 353.491118 
L 247.730552 353.33472 
L 248.685917 353.116664 
L 249.625348 352.837846 
L 250.544986 352.499411 
L 251.44105 352.10275 
L 252.309859 351.649493 
L 253.147843 351.141502 
L 253.951557 350.580865 
L 254.717701 349.969886 
L 255.443125 349.311076 
L 256.124848 348.607141 
L 256.760069 347.860974 
L 257.346178 347.075641 
L 257.880766 346.25437 
L 258.361637 345.400535 
L 258.786815 344.517645 
L 259.154552 343.609327 
L 259.463337 342.679315 
L 259.711902 341.73143 
L 259.899225 340.769566 
L 260.024536 339.797677 
L 260.087321 338.819756 
L 260.087321 337.839822 
L 260.024536 336.861901 
L 259.899225 335.890012 
L 259.711902 334.928149 
L 259.463337 333.980263 
L 259.154552 333.050251 
L 258.786815 332.141934 
L 258.361637 331.259044 
L 257.880766 330.405209 
L 257.346178 329.583937 
L 256.760069 328.798605 
L 256.124848 328.052438 
L 255.443125 327.348503 
L 254.717701 326.689692 
L 253.951557 326.078713 
L 253.147843 325.518076 
L 252.309859 325.010086 
L 251.44105 324.556828 
L 250.544986 324.160167 
L 249.625348 323.821732 
L 248.685917 323.542914 
L 247.730552 323.324858 
L 246.763178 323.168461 
L 245.787772 323.074365 
L 244.808342 323.042956 
L 244.808342 323.042956 
L 224.935459 323.042956 
L 224.935459 338.329789 
L 224.935459 353.616622 
L 244.808342 353.616622 
" clip-path="url(#p8513767077)" style="fill: none; stroke: #000000; stroke-width: 2; stroke-linecap: round"/>
   </g>
   <g id="line2d_44">
    <path d="M 214.234676 345.973206 
L 224.935459 345.973206 
" clip-path="url(#p8513767077)" style="fill: none; stroke: #000000; stroke-width: 2; stroke-linecap: round"/>
   </g>
   <g id="line2d_45">
    <path d="M 214.234676 330.686373 
L 224.935459 330.686373 
" clip-path="url(#p8513767077)" style="fill: none; stroke: #000000; stroke-width: 2; stroke-linecap: round"/>
   </g>
   <g id="line2d_46">
    <path d="M 260.095175 338.329789 
L 270.795958 338.329789 
" clip-path="url(#p8513767077)" style="fill: none; stroke: #000000; stroke-width: 2; stroke-linecap: round"/>
   </g>
   <g id="line2d_47">
    <path d="M 162.259443 311.272095 
L 179.293343 311.172262 
L 181.04041 310.872765 
L 182.787476 310.373603 
L 184.534543 309.674777 
L 186.281609 308.776285 
L 188.465443 307.372392 
L 190.649276 305.656523 
L 192.833109 303.628678 
L 195.016943 301.288857 
L 197.200776 298.637059 
L 198.947843 296.290998 
L 198.947843 296.290998 
L 196.327243 292.846781 
L 194.143409 290.319774 
L 191.959576 288.104743 
L 189.775743 286.201688 
L 187.591909 284.61061 
L 185.408076 283.331508 
L 183.661009 282.532849 
L 181.913943 281.933854 
L 180.166876 281.534525 
L 178.41981 281.33486 
L 177.546276 281.309902 
L 162.259443 281.309902 
L 162.259443 281.309902 
L 164.460747 283.755795 
L 165.854906 285.590215 
L 167.028935 287.424635 
L 167.982833 289.259055 
L 168.716601 291.093475 
L 169.230239 292.927895 
L 169.523746 294.762315 
L 169.597123 296.596735 
L 169.450369 298.431155 
L 169.083485 300.265575 
L 168.496471 302.099995 
L 167.689326 303.934415 
L 166.662051 305.768835 
L 165.414646 307.603255 
L 163.94711 309.437675 
L 162.259443 311.272095 
L 162.259443 311.272095 
" clip-path="url(#p8513767077)" style="fill: none; stroke: #000000; stroke-width: 2; stroke-linecap: round"/>
   </g>
   <g id="line2d_48">
    <path d="M 151.55866 306.380308 
L 166.270708 306.380308 
" clip-path="url(#p8513767077)" style="fill: none; stroke: #000000; stroke-width: 2; stroke-linecap: round"/>
   </g>
   <g id="line2d_49">
    <path d="M 151.55866 296.290998 
L 169.60018 296.290998 
" clip-path="url(#p8513767077)" style="fill: none; stroke: #000000; stroke-width: 2; stroke-linecap: round"/>
   </g>
   <g id="line2d_50">
    <path d="M 151.55866 286.201688 
L 166.270708 286.201688 
" clip-path="url(#p8513767077)" style="fill: none; stroke: #000000; stroke-width: 2; stroke-linecap: round"/>
   </g>
   <g id="line2d_51">
    <path d="M 198.947843 296.290998 
L 209.648626 296.290998 
" clip-path="url(#p8513767077)" style="fill: none; stroke: #000000; stroke-width: 2; stroke-linecap: round"/>
   </g>
   <g id="line2d_52">
    <path d="M 87.353961 262.659966 
L 104.322346 262.659966 
M 131.532909 262.659966 
L 148.501293 262.659966 
" clip-path="url(#p8513767077)" style="fill: none; stroke: #000000; stroke-width: 2; stroke-linecap: round"/>
   </g>
   <g id="line2d_53">
    <path d="M 104.322346 247.373133 
L 124.195229 262.659966 
L 104.322346 277.946799 
L 104.322346 247.373133 
" clip-path="url(#p8513767077)" style="fill: none; stroke: #000000; stroke-width: 2; stroke-linecap: round"/>
   </g>
   <g id="line2d_54">
    <path d="M 151.55866 286.201688 
L 148.501293 286.201688 
L 148.501293 262.659966 
" clip-path="url(#p8513767077)" style="fill: none; stroke: #000000; stroke-width: 2; stroke-linecap: round"/>
   </g>
   <g id="line2d_55">
    <path d="M 122.513677 345.208864 
L 123.493108 345.177456 
L 124.468514 345.083359 
L 125.435887 344.926962 
L 126.391253 344.708906 
L 127.330684 344.430088 
L 128.250321 344.091653 
L 129.146386 343.694992 
L 130.015195 343.241735 
L 130.853178 342.733744 
L 131.656893 342.173107 
L 132.423037 341.562128 
L 133.14846 340.903318 
L 133.830183 340.199382 
L 134.465405 339.453215 
L 135.051514 338.667883 
L 135.586102 337.846612 
L 136.066973 336.992777 
L 136.49215 336.109886 
L 136.859887 335.201569 
L 137.168673 334.271557 
L 137.417238 333.323671 
L 137.60456 332.361808 
L 137.729872 331.389919 
L 137.792656 330.411998 
L 137.792656 329.432064 
L 137.729872 328.454143 
L 137.60456 327.482254 
L 137.417238 326.520391 
L 137.168673 325.572505 
L 136.859887 324.642493 
L 136.49215 323.734176 
L 136.066973 322.851285 
L 135.586102 321.99745 
L 135.051514 321.176179 
L 134.465405 320.390846 
L 133.830183 319.64468 
L 133.14846 318.940744 
L 132.423037 318.281934 
L 131.656893 317.670955 
L 130.853178 317.110318 
L 130.015195 316.602327 
L 129.146386 316.14907 
L 128.250321 315.752409 
L 127.330684 315.413974 
L 126.391253 315.135156 
L 125.435887 314.9171 
L 124.468514 314.760703 
L 123.493108 314.666606 
L 122.513677 314.635198 
L 122.513677 314.635198 
L 102.640794 314.635198 
L 102.640794 329.922031 
L 102.640794 345.208864 
L 122.513677 345.208864 
" clip-path="url(#p8513767077)" style="fill: none; stroke: #000000; stroke-width: 2; stroke-linecap: round"/>
   </g>
   <g id="line2d_56">
    <path d="M 91.940011 337.565448 
L 102.640794 337.565448 
" clip-path="url(#p8513767077)" style="fill: none; stroke: #000000; stroke-width: 2; stroke-linecap: round"/>
   </g>
   <g id="line2d_57">
    <path d="M 91.940011 322.278614 
L 102.640794 322.278614 
" clip-path="url(#p8513767077)" style="fill: none; stroke: #000000; stroke-width: 2; stroke-linecap: round"/>
   </g>
   <g id="line2d_58">
    <path d="M 137.80051 329.922031 
L 148.501293 329.922031 
" clip-path="url(#p8513767077)" style="fill: none; stroke: #000000; stroke-width: 2; stroke-linecap: round"/>
   </g>
   <g id="line2d_59">
    <path d="M 26.206629 313.106515 
L 43.175014 313.106515 
M 70.385577 313.106515 
L 87.353961 313.106515 
" clip-path="url(#p8513767077)" style="fill: none; stroke: #000000; stroke-width: 2; stroke-linecap: round"/>
   </g>
   <g id="line2d_60">
    <path d="M 43.175014 297.819682 
L 63.047897 313.106515 
L 43.175014 328.393348 
L 43.175014 297.819682 
" clip-path="url(#p8513767077)" style="fill: none; stroke: #000000; stroke-width: 2; stroke-linecap: round"/>
   </g>
   <g id="line2d_61">
    <path d="M 91.940011 322.278614 
L 87.353961 322.278614 
L 87.353961 313.106515 
" clip-path="url(#p8513767077)" style="fill: none; stroke: #000000; stroke-width: 2; stroke-linecap: round"/>
   </g>
   <g id="line2d_62">
    <path d="M 26.206629 346.737547 
L 43.175014 346.737547 
M 70.385577 346.737547 
L 87.353961 346.737547 
" clip-path="url(#p8513767077)" style="fill: none; stroke: #000000; stroke-width: 2; stroke-linecap: round"/>
   </g>
   <g id="line2d_63">
    <path d="M 43.175014 331.450714 
L 63.047897 346.737547 
L 43.175014 362.02438 
L 43.175014 331.450714 
" clip-path="url(#p8513767077)" style="fill: none; stroke: #000000; stroke-width: 2; stroke-linecap: round"/>
   </g>
   <g id="line2d_64">
    <path d="M 91.940011 337.565448 
L 87.353961 337.565448 
L 87.353961 346.737547 
" clip-path="url(#p8513767077)" style="fill: none; stroke: #000000; stroke-width: 2; stroke-linecap: round"/>
   </g>
   <g id="line2d_65">
    <path d="M 151.55866 306.380308 
L 148.501293 306.380308 
L 148.501293 329.922031 
" clip-path="url(#p8513767077)" style="fill: none; stroke: #000000; stroke-width: 2; stroke-linecap: round"/>
   </g>
   <g id="line2d_66">
    <path d="M 214.234676 330.686373 
L 209.648626 330.686373 
L 209.648626 296.290998 
" clip-path="url(#p8513767077)" style="fill: none; stroke: #000000; stroke-width: 2; stroke-linecap: round"/>
   </g>
   <g id="line2d_67">
    <path d="M 162.259443 395.349676 
L 179.293343 395.249844 
L 181.04041 394.950347 
L 182.787476 394.451185 
L 184.534543 393.752358 
L 186.281609 392.853867 
L 188.465443 391.449974 
L 190.649276 389.734105 
L 192.833109 387.70626 
L 195.016943 385.366439 
L 197.200776 382.714641 
L 198.947843 380.36858 
L 198.947843 380.36858 
L 196.327243 376.924363 
L 194.143409 374.397356 
L 191.959576 372.182325 
L 189.775743 370.27927 
L 187.591909 368.688192 
L 185.408076 367.409089 
L 183.661009 366.61043 
L 181.913943 366.011436 
L 180.166876 365.612107 
L 178.41981 365.412442 
L 177.546276 365.387484 
L 162.259443 365.387484 
L 162.259443 365.387484 
L 164.460747 367.833377 
L 165.854906 369.667797 
L 167.028935 371.502217 
L 167.982833 373.336637 
L 168.716601 375.171057 
L 169.230239 377.005477 
L 169.523746 378.839897 
L 169.597123 380.674317 
L 169.450369 382.508737 
L 169.083485 384.343157 
L 168.496471 386.177577 
L 167.689326 388.011997 
L 166.662051 389.846417 
L 165.414646 391.680836 
L 163.94711 393.515256 
L 162.259443 395.349676 
L 162.259443 395.349676 
" clip-path="url(#p8513767077)" style="fill: none; stroke: #000000; stroke-width: 2; stroke-linecap: round"/>
   </g>
   <g id="line2d_68">
    <path d="M 151.55866 388.011997 
L 167.689326 388.011997 
" clip-path="url(#p8513767077)" style="fill: none; stroke: #000000; stroke-width: 2; stroke-linecap: round"/>
   </g>
   <g id="line2d_69">
    <path d="M 151.55866 372.725164 
L 167.689326 372.725164 
" clip-path="url(#p8513767077)" style="fill: none; stroke: #000000; stroke-width: 2; stroke-linecap: round"/>
   </g>
   <g id="line2d_70">
    <path d="M 198.947843 380.36858 
L 209.648626 380.36858 
" clip-path="url(#p8513767077)" style="fill: none; stroke: #000000; stroke-width: 2; stroke-linecap: round"/>
   </g>
   <g id="line2d_71">
    <path d="M 214.234676 345.973206 
L 209.648626 345.973206 
L 209.648626 380.36858 
" clip-path="url(#p8513767077)" style="fill: none; stroke: #000000; stroke-width: 2; stroke-linecap: round"/>
   </g>
   <g id="line2d_72">
    <path d="M 275.382008 266.099503 
L 270.795958 266.099503 
L 270.795958 338.329789 
" clip-path="url(#p8513767077)" style="fill: none; stroke: #000000; stroke-width: 2; stroke-linecap: round"/>
   </g>
   <g id="line2d_73">
    <path d="M 335.000657 167.308344 
L 331.94329 167.308344 
L 331.94329 258.456086 
" clip-path="url(#p8513767077)" style="fill: none; stroke: #000000; stroke-width: 2; stroke-linecap: round"/>
   </g>
   <g id="text_1">
    <g clip-path="url(#p8513767077)">
     <!-- output -->
     <g transform="translate(396.147989 163.114147) scale(0.125 -0.125)">
      <defs>
       <path id="DejaVuSans-6f" d="M 1959 3097 
Q 1497 3097 1228 2736 
Q 959 2375 959 1747 
Q 959 1119 1226 758 
Q 1494 397 1959 397 
Q 2419 397 2687 759 
Q 2956 1122 2956 1747 
Q 2956 2369 2687 2733 
Q 2419 3097 1959 3097 
z
M 1959 3584 
Q 2709 3584 3137 3096 
Q 3566 2609 3566 1747 
Q 3566 888 3137 398 
Q 2709 -91 1959 -91 
Q 1206 -91 779 398 
Q 353 888 353 1747 
Q 353 2609 779 3096 
Q 1206 3584 1959 3584 
z
" transform="scale(0.015625)"/>
       <path id="DejaVuSans-75" d="M 544 1381 
L 544 3500 
L 1119 3500 
L 1119 1403 
Q 1119 906 1312 657 
Q 1506 409 1894 409 
Q 2359 409 2629 706 
Q 2900 1003 2900 1516 
L 2900 3500 
L 3475 3500 
L 3475 0 
L 2900 0 
L 2900 538 
Q 2691 219 2414 64 
Q 2138 -91 1772 -91 
Q 1169 -91 856 284 
Q 544 659 544 1381 
z
M 1991 3584 
L 1991 3584 
z
" transform="scale(0.015625)"/>
       <path id="DejaVuSans-74" d="M 1172 4494 
L 1172 3500 
L 2356 3500 
L 2356 3053 
L 1172 3053 
L 1172 1153 
Q 1172 725 1289 603 
Q 1406 481 1766 481 
L 2356 481 
L 2356 0 
L 1766 0 
Q 1100 0 847 248 
Q 594 497 594 1153 
L 594 3053 
L 172 3053 
L 172 3500 
L 594 3500 
L 594 4494 
L 1172 4494 
z
" transform="scale(0.015625)"/>
       <path id="DejaVuSans-70" d="M 1159 525 
L 1159 -1331 
L 581 -1331 
L 581 3500 
L 1159 3500 
L 1159 2969 
Q 1341 3281 1617 3432 
Q 1894 3584 2278 3584 
Q 2916 3584 3314 3078 
Q 3713 2572 3713 1747 
Q 3713 922 3314 415 
Q 2916 -91 2278 -91 
Q 1894 -91 1617 61 
Q 1341 213 1159 525 
z
M 3116 1747 
Q 3116 2381 2855 2742 
Q 2594 3103 2138 3103 
Q 1681 3103 1420 2742 
Q 1159 2381 1159 1747 
Q 1159 1113 1420 752 
Q 1681 391 2138 391 
Q 2594 391 2855 752 
Q 3116 1113 3116 1747 
z
" transform="scale(0.015625)"/>
      </defs>
      <use xlink:href="#DejaVuSans-6f"/>
      <use xlink:href="#DejaVuSans-75" x="61.181641"/>
      <use xlink:href="#DejaVuSans-74" x="124.560547"/>
      <use xlink:href="#DejaVuSans-70" x="163.769531"/>
      <use xlink:href="#DejaVuSans-75" x="227.246094"/>
      <use xlink:href="#DejaVuSans-74" x="290.625"/>
     </g>
    </g>
   </g>
   <g id="text_2">
    <g clip-path="url(#p8513767077)">
     <!-- b -->
     <g transform="translate(262.860411 64.322988) scale(0.125 -0.125)">
      <defs>
       <path id="DejaVuSans-62" d="M 3116 1747 
Q 3116 2381 2855 2742 
Q 2594 3103 2138 3103 
Q 1681 3103 1420 2742 
Q 1159 2381 1159 1747 
Q 1159 1113 1420 752 
Q 1681 391 2138 391 
Q 2594 391 2855 752 
Q 3116 1113 3116 1747 
z
M 1159 2969 
Q 1341 3281 1617 3432 
Q 1894 3584 2278 3584 
Q 2916 3584 3314 3078 
Q 3713 2572 3713 1747 
Q 3713 922 3314 415 
Q 2916 -91 2278 -91 
Q 1894 -91 1617 61 
Q 1341 213 1159 525 
L 1159 0 
L 581 0 
L 581 4863 
L 1159 4863 
L 1159 2969 
z
" transform="scale(0.015625)"/>
      </defs>
      <use xlink:href="#DejaVuSans-62"/>
     </g>
    </g>
   </g>
   <g id="text_3">
    <g clip-path="url(#p8513767077)">
     <!-- a -->
     <g transform="translate(198.931103 30.691955) scale(0.125 -0.125)">
      <defs>
       <path id="DejaVuSans-61" d="M 2194 1759 
Q 1497 1759 1228 1600 
Q 959 1441 959 1056 
Q 959 750 1161 570 
Q 1363 391 1709 391 
Q 2188 391 2477 730 
Q 2766 1069 2766 1631 
L 2766 1759 
L 2194 1759 
z
M 3341 1997 
L 3341 0 
L 2766 0 
L 2766 531 
Q 2569 213 2275 61 
Q 1981 -91 1556 -91 
Q 1019 -91 701 211 
Q 384 513 384 1019 
Q 384 1609 779 1909 
Q 1175 2209 1959 2209 
L 2766 2209 
L 2766 2266 
Q 2766 2663 2505 2880 
Q 2244 3097 1772 3097 
Q 1472 3097 1187 3025 
Q 903 2953 641 2809 
L 641 3341 
Q 956 3463 1253 3523 
Q 1550 3584 1831 3584 
Q 2591 3584 2966 3190 
Q 3341 2797 3341 1997 
z
" transform="scale(0.015625)"/>
      </defs>
      <use xlink:href="#DejaVuSans-61"/>
     </g>
    </g>
   </g>
   <g id="text_4">
    <g clip-path="url(#p8513767077)">
     <!-- d -->
     <g transform="translate(203.241762 105.597437) scale(0.125 -0.125)">
      <defs>
       <path id="DejaVuSans-64" d="M 2906 2969 
L 2906 4863 
L 3481 4863 
L 3481 0 
L 2906 0 
L 2906 525 
Q 2725 213 2448 61 
Q 2172 -91 1784 -91 
Q 1150 -91 751 415 
Q 353 922 353 1747 
Q 353 2572 751 3078 
Q 1150 3584 1784 3584 
Q 2172 3584 2448 3432 
Q 2725 3281 2906 2969 
z
M 947 1747 
Q 947 1113 1208 752 
Q 1469 391 1925 391 
Q 2381 391 2643 752 
Q 2906 1113 2906 1747 
Q 2906 2381 2643 2742 
Q 2381 3103 1925 3103 
Q 1469 3103 1208 2742 
Q 947 2381 947 1747 
z
" transform="scale(0.015625)"/>
      </defs>
      <use xlink:href="#DejaVuSans-64"/>
     </g>
    </g>
   </g>
   <g id="text_5">
    <g clip-path="url(#p8513767077)">
     <!-- c -->
     <g transform="translate(138.57088 81.138504) scale(0.125 -0.125)">
      <defs>
       <path id="DejaVuSans-63" d="M 3122 3366 
L 3122 2828 
Q 2878 2963 2633 3030 
Q 2388 3097 2138 3097 
Q 1578 3097 1268 2742 
Q 959 2388 959 1747 
Q 959 1106 1268 751 
Q 1578 397 2138 397 
Q 2388 397 2633 464 
Q 2878 531 3122 666 
L 3122 134 
Q 2881 22 2623 -34 
Q 2366 -91 2075 -91 
Q 1284 -91 818 406 
Q 353 903 353 1747 
Q 353 2603 823 3093 
Q 1294 3584 2113 3584 
Q 2378 3584 2631 3529 
Q 2884 3475 3122 3366 
z
" transform="scale(0.015625)"/>
      </defs>
      <use xlink:href="#DejaVuSans-63"/>
     </g>
    </g>
   </g>
   <g id="text_6">
    <g clip-path="url(#p8513767077)">
     <!-- b -->
     <g transform="translate(201.713079 182.031603) scale(0.125 -0.125)">
      <use xlink:href="#DejaVuSans-62"/>
     </g>
    </g>
   </g>
   <g id="text_7">
    <g clip-path="url(#p8513767077)">
     <!-- a -->
     <g transform="translate(137.783771 148.40057) scale(0.125 -0.125)">
      <use xlink:href="#DejaVuSans-61"/>
     </g>
    </g>
   </g>
   <g id="text_8">
    <g clip-path="url(#p8513767077)">
     <!-- d -->
     <g transform="translate(142.09443 223.306052) scale(0.125 -0.125)">
      <use xlink:href="#DejaVuSans-64"/>
     </g>
    </g>
   </g>
   <g id="text_9">
    <g clip-path="url(#p8513767077)">
     <!-- c -->
     <g transform="translate(77.423548 198.847119) scale(0.125 -0.125)">
      <use xlink:href="#DejaVuSans-63"/>
     </g>
    </g>
   </g>
   <g id="text_10">
    <g clip-path="url(#p8513767077)">
     <!-- b -->
     <g transform="translate(140.565747 299.740217) scale(0.125 -0.125)">
      <use xlink:href="#DejaVuSans-62"/>
     </g>
    </g>
   </g>
   <g id="text_11">
    <g clip-path="url(#p8513767077)">
     <!-- a -->
     <g transform="translate(76.636438 266.109184) scale(0.125 -0.125)">
      <use xlink:href="#DejaVuSans-61"/>
     </g>
    </g>
   </g>
   <g id="text_12">
    <g clip-path="url(#p8513767077)">
     <!-- c -->
     <g transform="translate(16.276216 316.555733) scale(0.125 -0.125)">
      <use xlink:href="#DejaVuSans-63"/>
     </g>
    </g>
   </g>
   <g id="text_13">
    <g clip-path="url(#p8513767077)">
     <!-- d -->
     <g transform="translate(15.213716 350.186766) scale(0.125 -0.125)">
      <use xlink:href="#DejaVuSans-64"/>
     </g>
    </g>
   </g>
   <g id="text_14">
    <g clip-path="url(#p8513767077)">
     <!-- e -->
     <g transform="translate(140.809887 376.174382) scale(0.125 -0.125)">
      <defs>
       <path id="DejaVuSans-65" d="M 3597 1894 
L 3597 1613 
L 953 1613 
Q 991 1019 1311 708 
Q 1631 397 2203 397 
Q 2534 397 2845 478 
Q 3156 559 3463 722 
L 3463 178 
Q 3153 47 2828 -22 
Q 2503 -91 2169 -91 
Q 1331 -91 842 396 
Q 353 884 353 1716 
Q 353 2575 817 3079 
Q 1281 3584 2069 3584 
Q 2775 3584 3186 3129 
Q 3597 2675 3597 1894 
z
M 3022 2063 
Q 3016 2534 2758 2815 
Q 2500 3097 2075 3097 
Q 1594 3097 1305 2825 
Q 1016 2553 972 2059 
L 3022 2063 
z
" transform="scale(0.015625)"/>
      </defs>
      <use xlink:href="#DejaVuSans-65"/>
     </g>
    </g>
   </g>
   <g id="text_15">
    <g clip-path="url(#p8513767077)">
     <!-- TRUE -->
     <g transform="translate(115.134106 391.461215) scale(0.125 -0.125)">
      <defs>
       <path id="DejaVuSans-54" d="M -19 4666 
L 3928 4666 
L 3928 4134 
L 2272 4134 
L 2272 0 
L 1638 0 
L 1638 4134 
L -19 4134 
L -19 4666 
z
" transform="scale(0.015625)"/>
       <path id="DejaVuSans-52" d="M 2841 2188 
Q 3044 2119 3236 1894 
Q 3428 1669 3622 1275 
L 4263 0 
L 3584 0 
L 2988 1197 
Q 2756 1666 2539 1819 
Q 2322 1972 1947 1972 
L 1259 1972 
L 1259 0 
L 628 0 
L 628 4666 
L 2053 4666 
Q 2853 4666 3247 4331 
Q 3641 3997 3641 3322 
Q 3641 2881 3436 2590 
Q 3231 2300 2841 2188 
z
M 1259 4147 
L 1259 2491 
L 2053 2491 
Q 2509 2491 2742 2702 
Q 2975 2913 2975 3322 
Q 2975 3731 2742 3939 
Q 2509 4147 2053 4147 
L 1259 4147 
z
" transform="scale(0.015625)"/>
       <path id="DejaVuSans-55" d="M 556 4666 
L 1191 4666 
L 1191 1831 
Q 1191 1081 1462 751 
Q 1734 422 2344 422 
Q 2950 422 3222 751 
Q 3494 1081 3494 1831 
L 3494 4666 
L 4128 4666 
L 4128 1753 
Q 4128 841 3676 375 
Q 3225 -91 2344 -91 
Q 1459 -91 1007 375 
Q 556 841 556 1753 
L 556 4666 
z
" transform="scale(0.015625)"/>
       <path id="DejaVuSans-45" d="M 628 4666 
L 3578 4666 
L 3578 4134 
L 1259 4134 
L 1259 2753 
L 3481 2753 
L 3481 2222 
L 1259 2222 
L 1259 531 
L 3634 531 
L 3634 0 
L 628 0 
L 628 4666 
z
" transform="scale(0.015625)"/>
      </defs>
      <use xlink:href="#DejaVuSans-54"/>
      <use xlink:href="#DejaVuSans-52" x="61.083984"/>
      <use xlink:href="#DejaVuSans-55" x="130.566406"/>
      <use xlink:href="#DejaVuSans-45" x="203.759766"/>
     </g>
    </g>
   </g>
  </g>
 </g>
 <defs>
  <clipPath id="p8513767077">
   <rect x="7.2" y="7.2" width="438.477328" height="394.74"/>
  </clipPath>
 </defs>
</svg>
