<?xml version="1.0" encoding="utf-8" standalone="no"?>
<!DOCTYPE svg PUBLIC "-//W3C//DTD SVG 1.1//EN"
  "http://www.w3.org/Graphics/SVG/1.1/DTD/svg11.dtd">
<svg xmlns:xlink="http://www.w3.org/1999/xlink" width="290.519563pt" height="156.996pt" viewBox="0 0 290.519563 156.996" xmlns="http://www.w3.org/2000/svg" version="1.1">
 <metadata>
  <rdf:RDF xmlns:dc="http://purl.org/dc/elements/1.1/" xmlns:cc="http://creativecommons.org/ns#" xmlns:rdf="http://www.w3.org/1999/02/22-rdf-syntax-ns#">
   <cc:Work>
    <dc:type rdf:resource="http://purl.org/dc/dcmitype/StillImage"/>
    <dc:date>2022-11-02T16:35:30.539950</dc:date>
    <dc:format>image/svg+xml</dc:format>
    <dc:creator>
     <cc:Agent>
      <dc:title>Matplotlib v3.6.0, https://matplotlib.org/</dc:title>
     </cc:Agent>
    </dc:creator>
   </cc:Work>
  </rdf:RDF>
 </metadata>
 <defs>
  <style type="text/css">*{stroke-linejoin: round; stroke-linecap: butt}</style>
 </defs>
 <g id="figure_1">
  <g id="patch_1">
   <path d="M 0 156.996 
L 290.519563 156.996 
L 290.519563 0 
L 0 0 
L 0 156.996 
z
" style="fill: none"/>
  </g>
  <g id="axes_1">
   <g id="patch_2">
    <path d="M 223.663787 89.817301 
C 224.637381 89.817301 225.57123 89.430488 226.259664 88.742054 
C 226.948099 88.053619 227.334912 87.11977 227.334912 86.146176 
C 227.334912 85.172583 226.948099 84.238734 226.259664 83.550299 
C 225.57123 82.861865 224.637381 82.475052 223.663787 82.475052 
C 222.690194 82.475052 221.756345 82.861865 221.06791 83.550299 
C 220.379475 84.238734 219.992663 85.172583 219.992663 86.146176 
C 219.992663 87.11977 220.379475 88.053619 221.06791 88.742054 
C 221.756345 89.430488 222.690194 89.817301 223.663787 89.817301 
L 223.663787 89.817301 
z
" clip-path="url(#pae37cfdc6b)" style="fill: none; stroke: #000000; stroke-width: 2; stroke-linejoin: miter"/>
   </g>
   <g id="patch_3">
    <path d="M 87.679211 30.926343 
C 88.652805 30.926343 89.586653 30.53953 90.275088 29.851095 
C 90.963523 29.162661 91.350336 28.228812 91.350336 27.255218 
C 91.350336 26.281624 90.963523 25.347776 90.275088 24.659341 
C 89.586653 23.970906 88.652805 23.584093 87.679211 23.584093 
C 86.705617 23.584093 85.771768 23.970906 85.083334 24.659341 
C 84.394899 25.347776 84.008086 26.281624 84.008086 27.255218 
C 84.008086 28.228812 84.394899 29.162661 85.083334 29.851095 
C 85.771768 30.53953 86.705617 30.926343 87.679211 30.926343 
L 87.679211 30.926343 
z
" clip-path="url(#pae37cfdc6b)" style="fill: none; stroke: #000000; stroke-width: 2; stroke-linejoin: miter"/>
   </g>
   <g id="patch_4">
    <path d="M 87.679211 64.578319 
C 88.652805 64.578319 89.586653 64.191506 90.275088 63.503071 
C 90.963523 62.814637 91.350336 61.880788 91.350336 60.907194 
C 91.350336 59.933601 90.963523 58.999752 90.275088 58.311317 
C 89.586653 57.622882 88.652805 57.23607 87.679211 57.23607 
C 86.705617 57.23607 85.771768 57.622882 85.083334 58.311317 
C 84.394899 58.999752 84.008086 59.933601 84.008086 60.907194 
C 84.008086 61.880788 84.394899 62.814637 85.083334 63.503071 
C 85.771768 64.191506 86.705617 64.578319 87.679211 64.578319 
L 87.679211 64.578319 
z
" clip-path="url(#pae37cfdc6b)" style="fill: none; stroke: #000000; stroke-width: 2; stroke-linejoin: miter"/>
   </g>
   <g id="patch_5">
    <path d="M 101.292965 115.056283 
C 102.266559 115.056283 103.200407 114.66947 103.888842 113.981036 
C 104.577277 113.292601 104.96409 112.358752 104.96409 111.385159 
C 104.96409 110.411565 104.577277 109.477716 103.888842 108.789281 
C 103.200407 108.100847 102.266559 107.714034 101.292965 107.714034 
C 100.319371 107.714034 99.385522 108.100847 98.697088 108.789281 
C 98.008653 109.477716 97.62184 110.411565 97.62184 111.385159 
C 97.62184 112.358752 98.008653 113.292601 98.697088 113.981036 
C 99.385522 114.66947 100.319371 115.056283 101.292965 115.056283 
L 101.292965 115.056283 
z
" clip-path="url(#pae37cfdc6b)" style="fill: none; stroke: #000000; stroke-width: 2; stroke-linejoin: miter"/>
   </g>
   <g id="line2d_1">
    <path d="M 183.281416 101.136602 
L 200.325923 101.036708 
L 202.074078 100.737024 
L 203.822232 100.237551 
L 205.570387 99.538289 
L 207.318542 98.639238 
L 209.503735 97.234471 
L 211.688928 95.517534 
L 213.874121 93.488426 
L 216.059315 91.147147 
L 218.244508 88.493698 
L 219.992663 86.146176 
L 219.992663 86.146176 
L 217.370431 82.699814 
L 215.185237 80.171234 
L 213.000044 77.954823 
L 210.814851 76.050584 
L 208.629658 74.458514 
L 206.444464 73.178615 
L 204.69631 72.379459 
L 202.948155 71.780092 
L 201.200001 71.380513 
L 199.451846 71.180724 
L 198.577769 71.155751 
L 183.281416 71.155751 
L 183.281416 71.155751 
L 185.484091 73.603167 
L 186.879118 75.438729 
L 188.053878 77.274292 
L 189.00837 79.109854 
L 189.742595 80.945416 
L 190.256553 82.780979 
L 190.550243 84.616541 
L 190.623665 86.452103 
L 190.47682 88.287666 
L 190.109708 90.123228 
L 189.522328 91.95879 
L 188.71468 93.794353 
L 187.686765 95.629915 
L 186.438583 97.465477 
L 184.970133 99.30104 
L 183.281416 101.136602 
L 183.281416 101.136602 
" clip-path="url(#pae37cfdc6b)" style="fill: none; stroke: #000000; stroke-width: 2; stroke-linecap: round"/>
   </g>
   <g id="line2d_2">
    <path d="M 172.573969 93.794353 
L 188.71468 93.794353 
" clip-path="url(#pae37cfdc6b)" style="fill: none; stroke: #000000; stroke-width: 2; stroke-linecap: round"/>
   </g>
   <g id="line2d_3">
    <path d="M 172.573969 78.498 
L 188.71468 78.498 
" clip-path="url(#pae37cfdc6b)" style="fill: none; stroke: #000000; stroke-width: 2; stroke-linecap: round"/>
   </g>
   <g id="line2d_4">
    <path d="M 227.334912 86.146176 
L 230.70011 86.146176 
" clip-path="url(#pae37cfdc6b)" style="fill: none; stroke: #000000; stroke-width: 2; stroke-linecap: round"/>
   </g>
   <g id="line2d_5">
    <path d="M 122.096005 59.071632 
L 139.140512 58.971737 
L 140.888667 58.672054 
L 142.636821 58.172581 
L 144.384976 57.473319 
L 146.133131 56.574268 
L 148.318324 55.169501 
L 150.503517 53.452564 
L 152.68871 51.423456 
L 154.873904 49.082177 
L 157.059097 46.428728 
L 158.807251 44.081206 
L 158.807251 44.081206 
L 156.185019 40.634844 
L 153.999826 38.106263 
L 151.814633 35.889853 
L 149.62944 33.985613 
L 147.444246 32.393544 
L 145.259053 31.113645 
L 143.510899 30.314489 
L 141.762744 29.715121 
L 140.014589 29.315543 
L 138.266435 29.115754 
L 137.392357 29.09078 
L 122.096005 29.09078 
L 122.096005 29.09078 
L 124.298679 31.538197 
L 125.693707 33.373759 
L 126.868467 35.209322 
L 127.822959 37.044884 
L 128.557184 38.880446 
L 129.071142 40.716009 
L 129.364832 42.551571 
L 129.438254 44.387133 
L 129.291409 46.222696 
L 128.924297 48.058258 
L 128.336917 49.89382 
L 127.529269 51.729383 
L 126.501354 53.564945 
L 125.253172 55.400507 
L 123.784722 57.23607 
L 122.096005 59.071632 
L 122.096005 59.071632 
" clip-path="url(#pae37cfdc6b)" style="fill: none; stroke: #000000; stroke-width: 2; stroke-linecap: round"/>
   </g>
   <g id="line2d_6">
    <path d="M 111.388558 51.729383 
L 127.529269 51.729383 
" clip-path="url(#pae37cfdc6b)" style="fill: none; stroke: #000000; stroke-width: 2; stroke-linecap: round"/>
   </g>
   <g id="line2d_7">
    <path d="M 111.388558 36.43303 
L 127.529269 36.43303 
" clip-path="url(#pae37cfdc6b)" style="fill: none; stroke: #000000; stroke-width: 2; stroke-linecap: round"/>
   </g>
   <g id="line2d_8">
    <path d="M 158.807251 44.081206 
L 169.514698 44.081206 
" clip-path="url(#pae37cfdc6b)" style="fill: none; stroke: #000000; stroke-width: 2; stroke-linecap: round"/>
   </g>
   <g id="line2d_9">
    <path d="M 47.143876 27.255218 
L 64.122828 27.255218 
M 91.350336 27.255218 
L 108.329287 27.255218 
" clip-path="url(#pae37cfdc6b)" style="fill: none; stroke: #000000; stroke-width: 2; stroke-linecap: round"/>
   </g>
   <g id="line2d_10">
    <path d="M 64.122828 11.958865 
L 84.008086 27.255218 
L 64.122828 42.551571 
L 64.122828 11.958865 
" clip-path="url(#pae37cfdc6b)" style="fill: none; stroke: #000000; stroke-width: 2; stroke-linecap: round"/>
   </g>
   <g id="line2d_11">
    <path d="M 111.388558 36.43303 
L 108.329287 36.43303 
L 108.329287 27.255218 
" clip-path="url(#pae37cfdc6b)" style="fill: none; stroke: #000000; stroke-width: 2; stroke-linecap: round"/>
   </g>
   <g id="line2d_12">
    <path d="M 47.143876 60.907194 
L 64.122828 60.907194 
M 91.350336 60.907194 
L 108.329287 60.907194 
" clip-path="url(#pae37cfdc6b)" style="fill: none; stroke: #000000; stroke-width: 2; stroke-linecap: round"/>
   </g>
   <g id="line2d_13">
    <path d="M 64.122828 45.610841 
L 84.008086 60.907194 
L 64.122828 76.203547 
L 64.122828 45.610841 
" clip-path="url(#pae37cfdc6b)" style="fill: none; stroke: #000000; stroke-width: 2; stroke-linecap: round"/>
   </g>
   <g id="line2d_14">
    <path d="M 111.388558 51.729383 
L 108.329287 51.729383 
L 108.329287 60.907194 
" clip-path="url(#pae37cfdc6b)" style="fill: none; stroke: #000000; stroke-width: 2; stroke-linecap: round"/>
   </g>
   <g id="line2d_15">
    <path d="M 172.573969 78.498 
L 169.514698 78.498 
L 169.514698 44.081206 
" clip-path="url(#pae37cfdc6b)" style="fill: none; stroke: #000000; stroke-width: 2; stroke-linecap: round"/>
   </g>
   <g id="line2d_16">
    <path d="M 143.510899 143.507499 
L 144.490939 143.476071 
L 145.466953 143.381917 
L 146.434928 143.225422 
L 147.390889 143.00723 
L 148.330905 142.728238 
L 149.251115 142.389592 
L 150.147737 141.992684 
L 151.017087 141.539145 
L 151.855593 141.030838 
L 152.659808 140.469852 
L 153.426429 139.858493 
L 154.152304 139.199272 
L 154.834452 138.494898 
L 155.470069 137.748267 
L 156.056543 136.962445 
L 156.591464 136.140662 
L 157.072634 135.286295 
L 157.498077 134.402855 
L 157.866043 133.493972 
L 158.17502 132.563381 
L 158.42374 131.614905 
L 158.611179 130.652443 
L 158.736569 129.679949 
L 158.799392 128.701419 
L 158.799392 127.720874 
L 158.736569 126.742345 
L 158.611179 125.76985 
L 158.42374 124.807388 
L 158.17502 123.858912 
L 157.866043 122.928321 
L 157.498077 122.019438 
L 157.072634 121.135998 
L 156.591464 120.281631 
L 156.056543 119.459848 
L 155.470069 118.674027 
L 154.834452 117.927395 
L 154.152304 117.223022 
L 153.426429 116.563801 
L 152.659808 115.952441 
L 151.855593 115.391455 
L 151.017087 114.883148 
L 150.147737 114.429609 
L 149.251115 114.032701 
L 148.330905 113.694055 
L 147.390889 113.415063 
L 146.434928 113.196871 
L 145.466953 113.040377 
L 144.490939 112.946222 
L 143.510899 112.914794 
L 143.510899 112.914794 
L 123.62564 112.914794 
L 123.62564 128.211147 
L 123.62564 143.507499 
L 143.510899 143.507499 
" clip-path="url(#pae37cfdc6b)" style="fill: none; stroke: #000000; stroke-width: 2; stroke-linecap: round"/>
   </g>
   <g id="line2d_17">
    <path d="M 112.918193 135.859323 
L 123.62564 135.859323 
" clip-path="url(#pae37cfdc6b)" style="fill: none; stroke: #000000; stroke-width: 2; stroke-linecap: round"/>
   </g>
   <g id="line2d_18">
    <path d="M 112.918193 120.56297 
L 123.62564 120.56297 
" clip-path="url(#pae37cfdc6b)" style="fill: none; stroke: #000000; stroke-width: 2; stroke-linecap: round"/>
   </g>
   <g id="line2d_19">
    <path d="M 158.807251 128.211147 
L 169.514698 128.211147 
" clip-path="url(#pae37cfdc6b)" style="fill: none; stroke: #000000; stroke-width: 2; stroke-linecap: round"/>
   </g>
   <g id="line2d_20">
    <path d="M 60.910593 126.375584 
L 77.955101 126.27569 
L 79.703255 125.976006 
L 81.45141 125.476533 
L 83.199565 124.777271 
L 84.947719 123.878221 
L 87.132913 122.473453 
L 89.318106 120.756516 
L 91.503299 118.727408 
L 93.688492 116.386129 
L 95.873686 113.73268 
L 97.62184 111.385159 
L 97.62184 111.385159 
L 94.999608 107.938797 
L 92.814415 105.410216 
L 90.629222 103.193806 
L 88.444029 101.289566 
L 86.258835 99.697496 
L 84.073642 98.417597 
L 82.325487 97.618441 
L 80.577333 97.019074 
L 78.829178 96.619496 
L 77.081024 96.419706 
L 76.206946 96.394733 
L 60.910593 96.394733 
L 60.910593 96.394733 
L 63.113268 98.842149 
L 64.508296 100.677712 
L 65.683056 102.513274 
L 66.637548 104.348836 
L 67.371773 106.184399 
L 67.88573 108.019961 
L 68.17942 109.855523 
L 68.252843 111.691086 
L 68.105998 113.526648 
L 67.738885 115.36221 
L 67.151505 117.197773 
L 66.343858 119.033335 
L 65.315943 120.868897 
L 64.067761 122.70446 
L 62.599311 124.540022 
L 60.910593 126.375584 
L 60.910593 126.375584 
" clip-path="url(#pae37cfdc6b)" style="fill: none; stroke: #000000; stroke-width: 2; stroke-linecap: round"/>
   </g>
   <g id="line2d_21">
    <path d="M 50.203147 119.033335 
L 66.343858 119.033335 
" clip-path="url(#pae37cfdc6b)" style="fill: none; stroke: #000000; stroke-width: 2; stroke-linecap: round"/>
   </g>
   <g id="line2d_22">
    <path d="M 50.203147 103.736982 
L 66.343858 103.736982 
" clip-path="url(#pae37cfdc6b)" style="fill: none; stroke: #000000; stroke-width: 2; stroke-linecap: round"/>
   </g>
   <g id="line2d_23">
    <path d="M 104.96409 111.385159 
L 108.329287 111.385159 
" clip-path="url(#pae37cfdc6b)" style="fill: none; stroke: #000000; stroke-width: 2; stroke-linecap: round"/>
   </g>
   <g id="line2d_24">
    <path d="M 112.918193 120.56297 
L 108.329287 120.56297 
L 108.329287 111.385159 
" clip-path="url(#pae37cfdc6b)" style="fill: none; stroke: #000000; stroke-width: 2; stroke-linecap: round"/>
   </g>
   <g id="line2d_25">
    <path d="M 172.573969 93.794353 
L 169.514698 93.794353 
L 169.514698 128.211147 
" clip-path="url(#pae37cfdc6b)" style="fill: none; stroke: #000000; stroke-width: 2; stroke-linecap: round"/>
   </g>
   <g id="text_1">
    <g clip-path="url(#pae37cfdc6b)">
     <!-- output -->
     <g transform="translate(233.75938 89.595395) scale(0.125 -0.125)">
      <defs>
       <path id="DejaVuSans-6f" d="M 1959 3097 
Q 1497 3097 1228 2736 
Q 959 2375 959 1747 
Q 959 1119 1226 758 
Q 1494 397 1959 397 
Q 2419 397 2687 759 
Q 2956 1122 2956 1747 
Q 2956 2369 2687 2733 
Q 2419 3097 1959 3097 
z
M 1959 3584 
Q 2709 3584 3137 3096 
Q 3566 2609 3566 1747 
Q 3566 888 3137 398 
Q 2709 -91 1959 -91 
Q 1206 -91 779 398 
Q 353 888 353 1747 
Q 353 2609 779 3096 
Q 1206 3584 1959 3584 
z
" transform="scale(0.015625)"/>
       <path id="DejaVuSans-75" d="M 544 1381 
L 544 3500 
L 1119 3500 
L 1119 1403 
Q 1119 906 1312 657 
Q 1506 409 1894 409 
Q 2359 409 2629 706 
Q 2900 1003 2900 1516 
L 2900 3500 
L 3475 3500 
L 3475 0 
L 2900 0 
L 2900 538 
Q 2691 219 2414 64 
Q 2138 -91 1772 -91 
Q 1169 -91 856 284 
Q 544 659 544 1381 
z
M 1991 3584 
L 1991 3584 
z
" transform="scale(0.015625)"/>
       <path id="DejaVuSans-74" d="M 1172 4494 
L 1172 3500 
L 2356 3500 
L 2356 3053 
L 1172 3053 
L 1172 1153 
Q 1172 725 1289 603 
Q 1406 481 1766 481 
L 2356 481 
L 2356 0 
L 1766 0 
Q 1100 0 847 248 
Q 594 497 594 1153 
L 594 3053 
L 172 3053 
L 172 3500 
L 594 3500 
L 594 4494 
L 1172 4494 
z
" transform="scale(0.015625)"/>
       <path id="DejaVuSans-70" d="M 1159 525 
L 1159 -1331 
L 581 -1331 
L 581 3500 
L 1159 3500 
L 1159 2969 
Q 1341 3281 1617 3432 
Q 1894 3584 2278 3584 
Q 2916 3584 3314 3078 
Q 3713 2572 3713 1747 
Q 3713 922 3314 415 
Q 2916 -91 2278 -91 
Q 1894 -91 1617 61 
Q 1341 213 1159 525 
z
M 3116 1747 
Q 3116 2381 2855 2742 
Q 2594 3103 2138 3103 
Q 1681 3103 1420 2742 
Q 1159 2381 1159 1747 
Q 1159 1113 1420 752 
Q 1681 391 2138 391 
Q 2594 391 2855 752 
Q 3116 1113 3116 1747 
z
" transform="scale(0.015625)"/>
      </defs>
      <use xlink:href="#DejaVuSans-6f"/>
      <use xlink:href="#DejaVuSans-75" x="61.181641"/>
      <use xlink:href="#DejaVuSans-74" x="124.560547"/>
      <use xlink:href="#DejaVuSans-70" x="163.769531"/>
      <use xlink:href="#DejaVuSans-75" x="227.246094"/>
      <use xlink:href="#DejaVuSans-74" x="290.625"/>
     </g>
    </g>
   </g>
   <g id="text_2">
    <g clip-path="url(#pae37cfdc6b)">
     <!-- a -->
     <g transform="translate(36.424449 30.704437) scale(0.125 -0.125)">
      <defs>
       <path id="DejaVuSans-61" d="M 2194 1759 
Q 1497 1759 1228 1600 
Q 959 1441 959 1056 
Q 959 750 1161 570 
Q 1363 391 1709 391 
Q 2188 391 2477 730 
Q 2766 1069 2766 1631 
L 2766 1759 
L 2194 1759 
z
M 3341 1997 
L 3341 0 
L 2766 0 
L 2766 531 
Q 2569 213 2275 61 
Q 1981 -91 1556 -91 
Q 1019 -91 701 211 
Q 384 513 384 1019 
Q 384 1609 779 1909 
Q 1175 2209 1959 2209 
L 2766 2209 
L 2766 2266 
Q 2766 2663 2505 2880 
Q 2244 3097 1772 3097 
Q 1472 3097 1187 3025 
Q 903 2953 641 2809 
L 641 3341 
Q 956 3463 1253 3523 
Q 1550 3584 1831 3584 
Q 2591 3584 2966 3190 
Q 3341 2797 3341 1997 
z
" transform="scale(0.015625)"/>
      </defs>
      <use xlink:href="#DejaVuSans-61"/>
     </g>
    </g>
   </g>
   <g id="text_3">
    <g clip-path="url(#pae37cfdc6b)">
     <!-- b -->
     <g transform="translate(36.149059 64.356413) scale(0.125 -0.125)">
      <defs>
       <path id="DejaVuSans-62" d="M 3116 1747 
Q 3116 2381 2855 2742 
Q 2594 3103 2138 3103 
Q 1681 3103 1420 2742 
Q 1159 2381 1159 1747 
Q 1159 1113 1420 752 
Q 1681 391 2138 391 
Q 2594 391 2855 752 
Q 3116 1113 3116 1747 
z
M 1159 2969 
Q 1341 3281 1617 3432 
Q 1894 3584 2278 3584 
Q 2916 3584 3314 3078 
Q 3713 2572 3713 1747 
Q 3713 922 3314 415 
Q 2916 -91 2278 -91 
Q 1894 -91 1617 61 
Q 1341 213 1159 525 
L 1159 0 
L 581 0 
L 581 4863 
L 1159 4863 
L 1159 2969 
z
" transform="scale(0.015625)"/>
      </defs>
      <use xlink:href="#DejaVuSans-62"/>
     </g>
    </g>
   </g>
   <g id="text_4">
    <g clip-path="url(#pae37cfdc6b)">
     <!-- TRUE -->
     <g transform="translate(76.491735 139.308542) scale(0.125 -0.125)">
      <defs>
       <path id="DejaVuSans-54" d="M -19 4666 
L 3928 4666 
L 3928 4134 
L 2272 4134 
L 2272 0 
L 1638 0 
L 1638 4134 
L -19 4134 
L -19 4666 
z
" transform="scale(0.015625)"/>
       <path id="DejaVuSans-52" d="M 2841 2188 
Q 3044 2119 3236 1894 
Q 3428 1669 3622 1275 
L 4263 0 
L 3584 0 
L 2988 1197 
Q 2756 1666 2539 1819 
Q 2322 1972 1947 1972 
L 1259 1972 
L 1259 0 
L 628 0 
L 628 4666 
L 2053 4666 
Q 2853 4666 3247 4331 
Q 3641 3997 3641 3322 
Q 3641 2881 3436 2590 
Q 3231 2300 2841 2188 
z
M 1259 4147 
L 1259 2491 
L 2053 2491 
Q 2509 2491 2742 2702 
Q 2975 2913 2975 3322 
Q 2975 3731 2742 3939 
Q 2509 4147 2053 4147 
L 1259 4147 
z
" transform="scale(0.015625)"/>
       <path id="DejaVuSans-55" d="M 556 4666 
L 1191 4666 
L 1191 1831 
Q 1191 1081 1462 751 
Q 1734 422 2344 422 
Q 2950 422 3222 751 
Q 3494 1081 3494 1831 
L 3494 4666 
L 4128 4666 
L 4128 1753 
Q 4128 841 3676 375 
Q 3225 -91 2344 -91 
Q 1459 -91 1007 375 
Q 556 841 556 1753 
L 556 4666 
z
" transform="scale(0.015625)"/>
       <path id="DejaVuSans-45" d="M 628 4666 
L 3578 4666 
L 3578 4134 
L 1259 4134 
L 1259 2753 
L 3481 2753 
L 3481 2222 
L 1259 2222 
L 1259 531 
L 3634 531 
L 3634 0 
L 628 0 
L 628 4666 
z
" transform="scale(0.015625)"/>
      </defs>
      <use xlink:href="#DejaVuSans-54"/>
      <use xlink:href="#DejaVuSans-52" x="61.083984"/>
      <use xlink:href="#DejaVuSans-55" x="130.566406"/>
      <use xlink:href="#DejaVuSans-45" x="203.759766"/>
     </g>
    </g>
   </g>
   <g id="text_5">
    <g clip-path="url(#pae37cfdc6b)">
     <!-- c -->
     <g transform="translate(40.270829 107.186201) scale(0.125 -0.125)">
      <defs>
       <path id="DejaVuSans-63" d="M 3122 3366 
L 3122 2828 
Q 2878 2963 2633 3030 
Q 2388 3097 2138 3097 
Q 1578 3097 1268 2742 
Q 959 2388 959 1747 
Q 959 1106 1268 751 
Q 1578 397 2138 397 
Q 2388 397 2633 464 
Q 2878 531 3122 666 
L 3122 134 
Q 2881 22 2623 -34 
Q 2366 -91 2075 -91 
Q 1284 -91 818 406 
Q 353 903 353 1747 
Q 353 2603 823 3093 
Q 1294 3584 2113 3584 
Q 2378 3584 2631 3529 
Q 2884 3475 3122 3366 
z
" transform="scale(0.015625)"/>
      </defs>
      <use xlink:href="#DejaVuSans-63"/>
     </g>
    </g>
   </g>
   <g id="text_6">
    <g clip-path="url(#pae37cfdc6b)">
     <!-- TRUE -->
     <g transform="translate(13.776688 122.482554) scale(0.125 -0.125)">
      <use xlink:href="#DejaVuSans-54"/>
      <use xlink:href="#DejaVuSans-52" x="61.083984"/>
      <use xlink:href="#DejaVuSans-55" x="130.566406"/>
      <use xlink:href="#DejaVuSans-45" x="203.759766"/>
     </g>
    </g>
   </g>
  </g>
 </g>
 <defs>
  <clipPath id="pae37cfdc6b">
   <rect x="7.2" y="7.2" width="276.119563" height="142.596"/>
  </clipPath>
 </defs>
</svg>
