<?xml version="1.0" encoding="utf-8" standalone="no"?>
<!DOCTYPE svg PUBLIC "-//W3C//DTD SVG 1.1//EN"
  "http://www.w3.org/Graphics/SVG/1.1/DTD/svg11.dtd">
<svg xmlns:xlink="http://www.w3.org/1999/xlink" width="265.014pt" height="181.476pt" viewBox="0 0 265.014 181.476" xmlns="http://www.w3.org/2000/svg" version="1.1">
 <metadata>
  <rdf:RDF xmlns:dc="http://purl.org/dc/elements/1.1/" xmlns:cc="http://creativecommons.org/ns#" xmlns:rdf="http://www.w3.org/1999/02/22-rdf-syntax-ns#">
   <cc:Work>
    <dc:type rdf:resource="http://purl.org/dc/dcmitype/StillImage"/>
    <dc:date>2022-12-17T13:18:09.517728</dc:date>
    <dc:format>image/svg+xml</dc:format>
    <dc:creator>
     <cc:Agent>
      <dc:title>Matplotlib v3.6.0, https://matplotlib.org/</dc:title>
     </cc:Agent>
    </dc:creator>
   </cc:Work>
  </rdf:RDF>
 </metadata>
 <defs>
  <style type="text/css">*{stroke-linejoin: round; stroke-linecap: butt}</style>
 </defs>
 <g id="figure_1">
  <g id="patch_1">
   <path d="M 0 181.476 
L 265.014 181.476 
L 265.014 0 
L 0 0 
L 0 181.476 
z
" style="fill: none"/>
  </g>
  <g id="axes_1">
   <g id="patch_2">
    <path d="M 198.15614 114.295206 
C 199.129768 114.295206 200.063649 113.90838 200.752108 113.219921 
C 201.440567 112.531462 201.827393 111.597581 201.827393 110.623953 
C 201.827393 109.650326 201.440567 108.716444 200.752108 108.027985 
C 200.063649 107.339527 199.129768 106.9527 198.15614 106.9527 
C 197.182513 106.9527 196.248631 107.339527 195.560173 108.027985 
C 194.871714 108.716444 194.484887 109.650326 194.484887 110.623953 
C 194.484887 111.597581 194.871714 112.531462 195.560173 113.219921 
C 196.248631 113.90838 197.182513 114.295206 198.15614 114.295206 
L 198.15614 114.295206 
z
" clip-path="url(#p400e02064c)" style="fill: none; stroke: #000000; stroke-width: 2; stroke-linejoin: miter"/>
   </g>
   <g id="patch_3">
    <path d="M 136.968592 72.228767 
C 137.94222 72.228767 138.876101 71.84194 139.56456 71.153482 
C 140.253019 70.465023 140.639845 69.531141 140.639845 68.557514 
C 140.639845 67.583886 140.253019 66.650005 139.56456 65.961546 
C 138.876101 65.273087 137.94222 64.886261 136.968592 64.886261 
C 135.994964 64.886261 135.061083 65.273087 134.372624 65.961546 
C 133.684166 66.650005 133.297339 67.583886 133.297339 68.557514 
C 133.297339 69.531141 133.684166 70.465023 134.372624 71.153482 
C 135.061083 71.84194 135.994964 72.228767 136.968592 72.228767 
L 136.968592 72.228767 
z
" clip-path="url(#p400e02064c)" style="fill: none; stroke: #000000; stroke-width: 2; stroke-linejoin: miter"/>
   </g>
   <g id="patch_4">
    <path d="M 136.968592 156.361646 
C 137.94222 156.361646 138.876101 155.974819 139.56456 155.28636 
C 140.253019 154.597902 140.639845 153.66402 140.639845 152.690393 
C 140.639845 151.716765 140.253019 150.782884 139.56456 150.094425 
C 138.876101 149.405966 137.94222 149.01914 136.968592 149.01914 
C 135.994964 149.01914 135.061083 149.405966 134.372624 150.094425 
C 133.684166 150.782884 133.297339 151.716765 133.297339 152.690393 
C 133.297339 153.66402 133.684166 154.597902 134.372624 155.28636 
C 135.061083 155.974819 135.994964 156.361646 136.968592 156.361646 
L 136.968592 156.361646 
z
" clip-path="url(#p400e02064c)" style="fill: none; stroke: #000000; stroke-width: 2; stroke-linejoin: miter"/>
   </g>
   <g id="line2d_1">
    <path d="M 179.188 125.92084 
L 180.168075 125.889411 
L 181.144123 125.795253 
L 182.112132 125.638753 
L 183.068126 125.420553 
L 184.008175 125.141552 
L 184.928417 124.802894 
L 185.825071 124.405972 
L 186.694451 123.952417 
L 187.532986 123.444092 
L 188.33723 122.883087 
L 189.103877 122.271706 
L 189.829778 121.612462 
L 190.511949 120.908064 
L 191.147588 120.161406 
L 191.734083 119.375557 
L 192.269023 118.553746 
L 192.75021 117.699349 
L 193.175667 116.815878 
L 193.543646 115.906963 
L 193.852634 114.97634 
L 194.101363 114.027831 
L 194.288809 113.065335 
L 194.414202 112.092807 
L 194.477028 111.114243 
L 194.477028 110.133664 
L 194.414202 109.1551 
L 194.288809 108.182572 
L 194.101363 107.220076 
L 193.852634 106.271567 
L 193.543646 105.340943 
L 193.175667 104.432028 
L 192.75021 103.548557 
L 192.269023 102.694161 
L 191.734083 101.872349 
L 191.147588 101.0865 
L 190.511949 100.339842 
L 189.829778 99.635444 
L 189.103877 98.9762 
L 188.33723 98.36482 
L 187.532986 97.803814 
L 186.694451 97.295489 
L 185.825071 96.841934 
L 184.928417 96.445012 
L 184.008175 96.106355 
L 183.068126 95.827353 
L 182.112132 95.609154 
L 181.144123 95.452653 
L 180.168075 95.358495 
L 179.188 95.327066 
L 179.188 95.327066 
L 159.302047 95.327066 
L 159.302047 110.623953 
L 159.302047 125.92084 
L 179.188 125.92084 
" clip-path="url(#p400e02064c)" style="fill: none; stroke: #000000; stroke-width: 2; stroke-linecap: round"/>
   </g>
   <g id="line2d_2">
    <path d="M 148.594226 118.272397 
L 159.302047 118.272397 
" clip-path="url(#p400e02064c)" style="fill: none; stroke: #000000; stroke-width: 2; stroke-linecap: round"/>
   </g>
   <g id="line2d_3">
    <path d="M 148.594226 102.97551 
L 159.302047 102.97551 
" clip-path="url(#p400e02064c)" style="fill: none; stroke: #000000; stroke-width: 2; stroke-linecap: round"/>
   </g>
   <g id="line2d_4">
    <path d="M 201.827393 110.623953 
L 205.192708 110.623953 
" clip-path="url(#p400e02064c)" style="fill: none; stroke: #000000; stroke-width: 2; stroke-linecap: round"/>
   </g>
   <g id="line2d_5">
    <path d="M 96.58481 83.548463 
L 113.629913 83.448565 
L 115.378129 83.148871 
L 117.126344 82.649381 
L 118.87456 81.950094 
L 120.622776 81.051012 
L 122.808045 79.646196 
L 124.993315 77.929198 
L 127.178584 75.90002 
L 129.363854 73.558659 
L 131.549123 70.905118 
L 133.297339 68.557514 
L 133.297339 68.557514 
L 130.675016 65.111031 
L 128.489746 62.582362 
L 126.304477 60.365875 
L 124.119207 58.461568 
L 121.933937 56.869443 
L 119.748668 55.5895 
L 118.000452 54.790315 
L 116.252236 54.190927 
L 114.504021 53.791335 
L 112.755805 53.591539 
L 111.881697 53.566564 
L 96.58481 53.566564 
L 96.58481 53.566564 
L 98.787562 56.014066 
L 100.182638 57.849693 
L 101.357439 59.685319 
L 102.311965 61.520946 
L 103.046215 63.356572 
L 103.560191 65.192199 
L 103.853891 67.027825 
L 103.927316 68.863451 
L 103.780466 70.699078 
L 103.413341 72.534704 
L 102.82594 74.370331 
L 102.018264 76.205957 
L 100.990314 78.041584 
L 99.742088 79.87721 
L 98.273587 81.712837 
L 96.58481 83.548463 
L 96.58481 83.548463 
" clip-path="url(#p400e02064c)" style="fill: none; stroke: #000000; stroke-width: 2; stroke-linecap: round"/>
   </g>
   <g id="line2d_6">
    <path d="M 85.876989 76.205957 
L 102.018264 76.205957 
" clip-path="url(#p400e02064c)" style="fill: none; stroke: #000000; stroke-width: 2; stroke-linecap: round"/>
   </g>
   <g id="line2d_7">
    <path d="M 85.876989 60.90907 
L 102.018264 60.90907 
" clip-path="url(#p400e02064c)" style="fill: none; stroke: #000000; stroke-width: 2; stroke-linecap: round"/>
   </g>
   <g id="line2d_8">
    <path d="M 140.639845 68.557514 
L 144.00516 68.557514 
" clip-path="url(#p400e02064c)" style="fill: none; stroke: #000000; stroke-width: 2; stroke-linecap: round"/>
   </g>
   <g id="line2d_9">
    <path d="M 56.812904 50.201249 
L 57.792979 50.16982 
L 58.769026 50.075662 
L 59.737036 49.919162 
L 60.693029 49.700962 
L 61.633079 49.421961 
L 62.553321 49.083303 
L 63.449974 48.686381 
L 64.319355 48.232826 
L 65.15789 47.724501 
L 65.962133 47.163496 
L 66.72878 46.552115 
L 67.454681 45.892871 
L 68.136853 45.188473 
L 68.772492 44.441815 
L 69.358986 43.655966 
L 69.893926 42.834155 
L 70.375113 41.979758 
L 70.80057 41.096287 
L 71.168549 40.187372 
L 71.477538 39.256749 
L 71.726266 38.30824 
L 71.913712 37.345744 
L 72.039106 36.373216 
L 72.101932 35.394652 
L 72.101932 34.414073 
L 72.039106 33.435509 
L 71.913712 32.462981 
L 71.726266 31.500485 
L 71.477538 30.551976 
L 71.168549 29.621352 
L 70.80057 28.712437 
L 70.375113 27.828966 
L 69.893926 26.97457 
L 69.358986 26.152758 
L 68.772492 25.366909 
L 68.136853 24.620251 
L 67.454681 23.915853 
L 66.72878 23.256609 
L 65.962133 22.645228 
L 65.15789 22.084223 
L 64.319355 21.575898 
L 63.449974 21.122343 
L 62.553321 20.725421 
L 61.633079 20.386764 
L 60.693029 20.107762 
L 59.737036 19.889563 
L 58.769026 19.733062 
L 57.792979 19.638904 
L 56.812904 19.607475 
L 56.812904 19.607475 
L 36.926951 19.607475 
L 36.926951 34.904362 
L 36.926951 50.201249 
L 56.812904 50.201249 
" clip-path="url(#p400e02064c)" style="fill: none; stroke: #000000; stroke-width: 2; stroke-linecap: round"/>
   </g>
   <g id="line2d_10">
    <path d="M 26.21913 42.552806 
L 36.926951 42.552806 
" clip-path="url(#p400e02064c)" style="fill: none; stroke: #000000; stroke-width: 2; stroke-linecap: round"/>
   </g>
   <g id="line2d_11">
    <path d="M 26.21913 27.255919 
L 36.926951 27.255919 
" clip-path="url(#p400e02064c)" style="fill: none; stroke: #000000; stroke-width: 2; stroke-linecap: round"/>
   </g>
   <g id="line2d_12">
    <path d="M 72.109791 34.904362 
L 82.817612 34.904362 
" clip-path="url(#p400e02064c)" style="fill: none; stroke: #000000; stroke-width: 2; stroke-linecap: round"/>
   </g>
   <g id="line2d_13">
    <path d="M 85.876989 60.90907 
L 82.817612 60.90907 
L 82.817612 34.904362 
" clip-path="url(#p400e02064c)" style="fill: none; stroke: #000000; stroke-width: 2; stroke-linecap: round"/>
   </g>
   <g id="line2d_14">
    <path d="M 56.812904 117.507552 
L 57.792979 117.476123 
L 58.769026 117.381965 
L 59.737036 117.225465 
L 60.693029 117.007266 
L 61.633079 116.728264 
L 62.553321 116.389606 
L 63.449974 115.992684 
L 64.319355 115.539129 
L 65.15789 115.030804 
L 65.962133 114.469799 
L 66.72878 113.858418 
L 67.454681 113.199174 
L 68.136853 112.494776 
L 68.772492 111.748118 
L 69.358986 110.962269 
L 69.893926 110.140458 
L 70.375113 109.286061 
L 70.80057 108.40259 
L 71.168549 107.493676 
L 71.477538 106.563052 
L 71.726266 105.614543 
L 71.913712 104.652047 
L 72.039106 103.679519 
L 72.101932 102.700955 
L 72.101932 101.720376 
L 72.039106 100.741812 
L 71.913712 99.769284 
L 71.726266 98.806788 
L 71.477538 97.858279 
L 71.168549 96.927655 
L 70.80057 96.01874 
L 70.375113 95.135269 
L 69.893926 94.280873 
L 69.358986 93.459061 
L 68.772492 92.673212 
L 68.136853 91.926555 
L 67.454681 91.222156 
L 66.72878 90.562912 
L 65.962133 89.951532 
L 65.15789 89.390526 
L 64.319355 88.882201 
L 63.449974 88.428646 
L 62.553321 88.031724 
L 61.633079 87.693067 
L 60.693029 87.414065 
L 59.737036 87.195866 
L 58.769026 87.039365 
L 57.792979 86.945207 
L 56.812904 86.913778 
L 56.812904 86.913778 
L 36.926951 86.913778 
L 36.926951 102.210665 
L 36.926951 117.507552 
L 56.812904 117.507552 
" clip-path="url(#p400e02064c)" style="fill: none; stroke: #000000; stroke-width: 2; stroke-linecap: round"/>
   </g>
   <g id="line2d_15">
    <path d="M 26.21913 109.859109 
L 36.926951 109.859109 
" clip-path="url(#p400e02064c)" style="fill: none; stroke: #000000; stroke-width: 2; stroke-linecap: round"/>
   </g>
   <g id="line2d_16">
    <path d="M 26.21913 94.562222 
L 36.926951 94.562222 
" clip-path="url(#p400e02064c)" style="fill: none; stroke: #000000; stroke-width: 2; stroke-linecap: round"/>
   </g>
   <g id="line2d_17">
    <path d="M 72.109791 102.210665 
L 82.817612 102.210665 
" clip-path="url(#p400e02064c)" style="fill: none; stroke: #000000; stroke-width: 2; stroke-linecap: round"/>
   </g>
   <g id="line2d_18">
    <path d="M 85.876989 76.205957 
L 82.817612 76.205957 
L 82.817612 102.210665 
" clip-path="url(#p400e02064c)" style="fill: none; stroke: #000000; stroke-width: 2; stroke-linecap: round"/>
   </g>
   <g id="line2d_19">
    <path d="M 148.594226 102.97551 
L 144.00516 102.97551 
L 144.00516 68.557514 
" clip-path="url(#p400e02064c)" style="fill: none; stroke: #000000; stroke-width: 2; stroke-linecap: round"/>
   </g>
   <g id="line2d_20">
    <path d="M 118.000452 167.98728 
L 118.980527 167.955851 
L 119.956575 167.861693 
L 120.924584 167.705192 
L 121.880578 167.486993 
L 122.820627 167.207991 
L 123.740869 166.869334 
L 124.637523 166.472412 
L 125.506903 166.018857 
L 126.345438 165.510532 
L 127.149681 164.949526 
L 127.916329 164.338146 
L 128.64223 163.678902 
L 129.324401 162.974503 
L 129.96004 162.227846 
L 130.546534 161.441997 
L 131.081474 160.620185 
L 131.562662 159.765789 
L 131.988119 158.882318 
L 132.356098 157.973403 
L 132.665086 157.042779 
L 132.913814 156.09427 
L 133.10126 155.131774 
L 133.226654 154.159246 
L 133.28948 153.180682 
L 133.28948 152.200103 
L 133.226654 151.221539 
L 133.10126 150.249011 
L 132.913814 149.286515 
L 132.665086 148.338006 
L 132.356098 147.407382 
L 131.988119 146.498468 
L 131.562662 145.614997 
L 131.081474 144.7606 
L 130.546534 143.938789 
L 129.96004 143.15294 
L 129.324401 142.406282 
L 128.64223 141.701884 
L 127.916329 141.04264 
L 127.149681 140.431259 
L 126.345438 139.870254 
L 125.506903 139.361929 
L 124.637523 138.908374 
L 123.740869 138.511452 
L 122.820627 138.172794 
L 121.880578 137.893792 
L 120.924584 137.675593 
L 119.956575 137.519093 
L 118.980527 137.424935 
L 118.000452 137.393506 
L 118.000452 137.393506 
L 98.114499 137.393506 
L 98.114499 152.690393 
L 98.114499 167.98728 
L 118.000452 167.98728 
" clip-path="url(#p400e02064c)" style="fill: none; stroke: #000000; stroke-width: 2; stroke-linecap: round"/>
   </g>
   <g id="line2d_21">
    <path d="M 87.406678 160.338836 
L 98.114499 160.338836 
" clip-path="url(#p400e02064c)" style="fill: none; stroke: #000000; stroke-width: 2; stroke-linecap: round"/>
   </g>
   <g id="line2d_22">
    <path d="M 87.406678 145.041949 
L 98.114499 145.041949 
" clip-path="url(#p400e02064c)" style="fill: none; stroke: #000000; stroke-width: 2; stroke-linecap: round"/>
   </g>
   <g id="line2d_23">
    <path d="M 140.639845 152.690393 
L 144.00516 152.690393 
" clip-path="url(#p400e02064c)" style="fill: none; stroke: #000000; stroke-width: 2; stroke-linecap: round"/>
   </g>
   <g id="line2d_24">
    <path d="M 148.594226 118.272397 
L 144.00516 118.272397 
L 144.00516 152.690393 
" clip-path="url(#p400e02064c)" style="fill: none; stroke: #000000; stroke-width: 2; stroke-linecap: round"/>
   </g>
   <g id="text_1">
    <g clip-path="url(#p400e02064c)">
     <!-- output -->
     <g transform="translate(208.252086 114.073172) scale(0.125 -0.125)">
      <defs>
       <path id="DejaVuSans-6f" d="M 1959 3097 
Q 1497 3097 1228 2736 
Q 959 2375 959 1747 
Q 959 1119 1226 758 
Q 1494 397 1959 397 
Q 2419 397 2687 759 
Q 2956 1122 2956 1747 
Q 2956 2369 2687 2733 
Q 2419 3097 1959 3097 
z
M 1959 3584 
Q 2709 3584 3137 3096 
Q 3566 2609 3566 1747 
Q 3566 888 3137 398 
Q 2709 -91 1959 -91 
Q 1206 -91 779 398 
Q 353 888 353 1747 
Q 353 2609 779 3096 
Q 1206 3584 1959 3584 
z
" transform="scale(0.015625)"/>
       <path id="DejaVuSans-75" d="M 544 1381 
L 544 3500 
L 1119 3500 
L 1119 1403 
Q 1119 906 1312 657 
Q 1506 409 1894 409 
Q 2359 409 2629 706 
Q 2900 1003 2900 1516 
L 2900 3500 
L 3475 3500 
L 3475 0 
L 2900 0 
L 2900 538 
Q 2691 219 2414 64 
Q 2138 -91 1772 -91 
Q 1169 -91 856 284 
Q 544 659 544 1381 
z
M 1991 3584 
L 1991 3584 
z
" transform="scale(0.015625)"/>
       <path id="DejaVuSans-74" d="M 1172 4494 
L 1172 3500 
L 2356 3500 
L 2356 3053 
L 1172 3053 
L 1172 1153 
Q 1172 725 1289 603 
Q 1406 481 1766 481 
L 2356 481 
L 2356 0 
L 1766 0 
Q 1100 0 847 248 
Q 594 497 594 1153 
L 594 3053 
L 172 3053 
L 172 3500 
L 594 3500 
L 594 4494 
L 1172 4494 
z
" transform="scale(0.015625)"/>
       <path id="DejaVuSans-70" d="M 1159 525 
L 1159 -1331 
L 581 -1331 
L 581 3500 
L 1159 3500 
L 1159 2969 
Q 1341 3281 1617 3432 
Q 1894 3584 2278 3584 
Q 2916 3584 3314 3078 
Q 3713 2572 3713 1747 
Q 3713 922 3314 415 
Q 2916 -91 2278 -91 
Q 1894 -91 1617 61 
Q 1341 213 1159 525 
z
M 3116 1747 
Q 3116 2381 2855 2742 
Q 2594 3103 2138 3103 
Q 1681 3103 1420 2742 
Q 1159 2381 1159 1747 
Q 1159 1113 1420 752 
Q 1681 391 2138 391 
Q 2594 391 2855 752 
Q 3116 1113 3116 1747 
z
" transform="scale(0.015625)"/>
      </defs>
      <use xlink:href="#DejaVuSans-6f"/>
      <use xlink:href="#DejaVuSans-75" x="61.181641"/>
      <use xlink:href="#DejaVuSans-74" x="124.560547"/>
      <use xlink:href="#DejaVuSans-70" x="163.769531"/>
      <use xlink:href="#DejaVuSans-75" x="227.246094"/>
      <use xlink:href="#DejaVuSans-74" x="290.625"/>
     </g>
    </g>
   </g>
   <g id="text_2">
    <g clip-path="url(#p400e02064c)">
     <!-- a -->
     <g transform="translate(15.499596 30.705137) scale(0.125 -0.125)">
      <defs>
       <path id="DejaVuSans-61" d="M 2194 1759 
Q 1497 1759 1228 1600 
Q 959 1441 959 1056 
Q 959 750 1161 570 
Q 1363 391 1709 391 
Q 2188 391 2477 730 
Q 2766 1069 2766 1631 
L 2766 1759 
L 2194 1759 
z
M 3341 1997 
L 3341 0 
L 2766 0 
L 2766 531 
Q 2569 213 2275 61 
Q 1981 -91 1556 -91 
Q 1019 -91 701 211 
Q 384 513 384 1019 
Q 384 1609 779 1909 
Q 1175 2209 1959 2209 
L 2766 2209 
L 2766 2266 
Q 2766 2663 2505 2880 
Q 2244 3097 1772 3097 
Q 1472 3097 1187 3025 
Q 903 2953 641 2809 
L 641 3341 
Q 956 3463 1253 3523 
Q 1550 3584 1831 3584 
Q 2591 3584 2966 3190 
Q 3341 2797 3341 1997 
z
" transform="scale(0.015625)"/>
      </defs>
      <use xlink:href="#DejaVuSans-61"/>
     </g>
    </g>
   </g>
   <g id="text_3">
    <g clip-path="url(#p400e02064c)">
     <!-- b -->
     <g transform="translate(15.224205 46.002024) scale(0.125 -0.125)">
      <defs>
       <path id="DejaVuSans-62" d="M 3116 1747 
Q 3116 2381 2855 2742 
Q 2594 3103 2138 3103 
Q 1681 3103 1420 2742 
Q 1159 2381 1159 1747 
Q 1159 1113 1420 752 
Q 1681 391 2138 391 
Q 2594 391 2855 752 
Q 3116 1113 3116 1747 
z
M 1159 2969 
Q 1341 3281 1617 3432 
Q 1894 3584 2278 3584 
Q 2916 3584 3314 3078 
Q 3713 2572 3713 1747 
Q 3713 922 3314 415 
Q 2916 -91 2278 -91 
Q 1894 -91 1617 61 
Q 1341 213 1159 525 
L 1159 0 
L 581 0 
L 581 4863 
L 1159 4863 
L 1159 2969 
z
" transform="scale(0.015625)"/>
      </defs>
      <use xlink:href="#DejaVuSans-62"/>
     </g>
    </g>
   </g>
   <g id="text_4">
    <g clip-path="url(#p400e02064c)">
     <!-- a -->
     <g transform="translate(15.499596 98.011441) scale(0.125 -0.125)">
      <use xlink:href="#DejaVuSans-61"/>
     </g>
    </g>
   </g>
   <g id="text_5">
    <g clip-path="url(#p400e02064c)">
     <!-- b -->
     <g transform="translate(15.224205 113.308328) scale(0.125 -0.125)">
      <use xlink:href="#DejaVuSans-62"/>
     </g>
    </g>
   </g>
   <g id="text_6">
    <g clip-path="url(#p400e02064c)">
     <!-- c -->
     <g transform="translate(77.474254 148.491168) scale(0.125 -0.125)">
      <defs>
       <path id="DejaVuSans-63" d="M 3122 3366 
L 3122 2828 
Q 2878 2963 2633 3030 
Q 2388 3097 2138 3097 
Q 1578 3097 1268 2742 
Q 959 2388 959 1747 
Q 959 1106 1268 751 
Q 1578 397 2138 397 
Q 2388 397 2633 464 
Q 2878 531 3122 666 
L 3122 134 
Q 2881 22 2623 -34 
Q 2366 -91 2075 -91 
Q 1284 -91 818 406 
Q 353 903 353 1747 
Q 353 2603 823 3093 
Q 1294 3584 2113 3584 
Q 2378 3584 2631 3529 
Q 2884 3475 3122 3366 
z
" transform="scale(0.015625)"/>
      </defs>
      <use xlink:href="#DejaVuSans-63"/>
     </g>
    </g>
   </g>
   <g id="text_7">
    <g clip-path="url(#p400e02064c)">
     <!-- FALSE -->
     <g transform="translate(46.948863 163.788055) scale(0.125 -0.125)">
      <defs>
       <path id="DejaVuSans-46" d="M 628 4666 
L 3309 4666 
L 3309 4134 
L 1259 4134 
L 1259 2759 
L 3109 2759 
L 3109 2228 
L 1259 2228 
L 1259 0 
L 628 0 
L 628 4666 
z
" transform="scale(0.015625)"/>
       <path id="DejaVuSans-41" d="M 2188 4044 
L 1331 1722 
L 3047 1722 
L 2188 4044 
z
M 1831 4666 
L 2547 4666 
L 4325 0 
L 3669 0 
L 3244 1197 
L 1141 1197 
L 716 0 
L 50 0 
L 1831 4666 
z
" transform="scale(0.015625)"/>
       <path id="DejaVuSans-4c" d="M 628 4666 
L 1259 4666 
L 1259 531 
L 3531 531 
L 3531 0 
L 628 0 
L 628 4666 
z
" transform="scale(0.015625)"/>
       <path id="DejaVuSans-53" d="M 3425 4513 
L 3425 3897 
Q 3066 4069 2747 4153 
Q 2428 4238 2131 4238 
Q 1616 4238 1336 4038 
Q 1056 3838 1056 3469 
Q 1056 3159 1242 3001 
Q 1428 2844 1947 2747 
L 2328 2669 
Q 3034 2534 3370 2195 
Q 3706 1856 3706 1288 
Q 3706 609 3251 259 
Q 2797 -91 1919 -91 
Q 1588 -91 1214 -16 
Q 841 59 441 206 
L 441 856 
Q 825 641 1194 531 
Q 1563 422 1919 422 
Q 2459 422 2753 634 
Q 3047 847 3047 1241 
Q 3047 1584 2836 1778 
Q 2625 1972 2144 2069 
L 1759 2144 
Q 1053 2284 737 2584 
Q 422 2884 422 3419 
Q 422 4038 858 4394 
Q 1294 4750 2059 4750 
Q 2388 4750 2728 4690 
Q 3069 4631 3425 4513 
z
" transform="scale(0.015625)"/>
       <path id="DejaVuSans-45" d="M 628 4666 
L 3578 4666 
L 3578 4134 
L 1259 4134 
L 1259 2753 
L 3481 2753 
L 3481 2222 
L 1259 2222 
L 1259 531 
L 3634 531 
L 3634 0 
L 628 0 
L 628 4666 
z
" transform="scale(0.015625)"/>
      </defs>
      <use xlink:href="#DejaVuSans-46"/>
      <use xlink:href="#DejaVuSans-41" x="48.394531"/>
      <use xlink:href="#DejaVuSans-4c" x="116.802734"/>
      <use xlink:href="#DejaVuSans-53" x="172.515625"/>
      <use xlink:href="#DejaVuSans-45" x="235.992188"/>
     </g>
    </g>
   </g>
  </g>
 </g>
 <defs>
  <clipPath id="p400e02064c">
   <rect x="7.2" y="7.2" width="250.614" height="167.076"/>
  </clipPath>
 </defs>
</svg>
