<?xml version="1.0" encoding="utf-8" standalone="no"?>
<!DOCTYPE svg PUBLIC "-//W3C//DTD SVG 1.1//EN"
  "http://www.w3.org/Graphics/SVG/1.1/DTD/svg11.dtd">
<svg xmlns:xlink="http://www.w3.org/1999/xlink" width="392.020438pt" height="385.884pt" viewBox="0 0 392.020438 385.884" xmlns="http://www.w3.org/2000/svg" version="1.1">
 <metadata>
  <rdf:RDF xmlns:dc="http://purl.org/dc/elements/1.1/" xmlns:cc="http://creativecommons.org/ns#" xmlns:rdf="http://www.w3.org/1999/02/22-rdf-syntax-ns#">
   <cc:Work>
    <dc:type rdf:resource="http://purl.org/dc/dcmitype/StillImage"/>
    <dc:date>2022-11-07T11:57:01.735351</dc:date>
    <dc:format>image/svg+xml</dc:format>
    <dc:creator>
     <cc:Agent>
      <dc:title>Matplotlib v3.6.0, https://matplotlib.org/</dc:title>
     </cc:Agent>
    </dc:creator>
   </cc:Work>
  </rdf:RDF>
 </metadata>
 <defs>
  <style type="text/css">*{stroke-linejoin: round; stroke-linecap: butt}</style>
 </defs>
 <g id="figure_1">
  <g id="patch_1">
   <path d="M 0 385.884 
L 392.020438 385.884 
L 392.020438 0 
L 0 0 
L 0 385.884 
z
" style="fill: none"/>
  </g>
  <g id="axes_1">
   <g id="patch_2">
    <path d="M 66.762549 41.026904 
C 67.736285 41.026904 68.670271 40.640034 69.358807 39.951499 
C 70.047343 39.262963 70.434213 38.328977 70.434213 37.35524 
C 70.434213 36.381503 70.047343 35.447517 69.358807 34.758982 
C 68.670271 34.070446 67.736285 33.683576 66.762549 33.683576 
C 65.788812 33.683576 64.854826 34.070446 64.16629 34.758982 
C 63.477754 35.447517 63.090885 36.381503 63.090885 37.35524 
C 63.090885 38.328977 63.477754 39.262963 64.16629 39.951499 
C 64.854826 40.640034 65.788812 41.026904 66.762549 41.026904 
L 66.762549 41.026904 
z
" clip-path="url(#pb2a8e3acfc)" style="fill: none; stroke: #000000; stroke-width: 2; stroke-linejoin: miter"/>
   </g>
   <g id="patch_3">
    <path d="M 66.762549 74.683824 
C 67.736285 74.683824 68.670271 74.296954 69.358807 73.608418 
C 70.047343 72.919882 70.434213 71.985896 70.434213 71.01216 
C 70.434213 70.038423 70.047343 69.104437 69.358807 68.415901 
C 68.670271 67.727365 67.736285 67.340496 66.762549 67.340496 
C 65.788812 67.340496 64.854826 67.727365 64.16629 68.415901 
C 63.477754 69.104437 63.090885 70.038423 63.090885 71.01216 
C 63.090885 71.985896 63.477754 72.919882 64.16629 73.608418 
C 64.854826 74.296954 65.788812 74.683824 66.762549 74.683824 
L 66.762549 74.683824 
z
" clip-path="url(#pb2a8e3acfc)" style="fill: none; stroke: #000000; stroke-width: 2; stroke-linejoin: miter"/>
   </g>
   <g id="patch_4">
    <path d="M 66.762549 141.997663 
C 67.736285 141.997663 68.670271 141.610793 69.358807 140.922257 
C 70.047343 140.233721 70.434213 139.299735 70.434213 138.325999 
C 70.434213 137.352262 70.047343 136.418276 69.358807 135.72974 
C 68.670271 135.041204 67.736285 134.654335 66.762549 134.654335 
C 65.788812 134.654335 64.854826 135.041204 64.16629 135.72974 
C 63.477754 136.418276 63.090885 137.352262 63.090885 138.325999 
C 63.090885 139.299735 63.477754 140.233721 64.16629 140.922257 
C 64.854826 141.610793 65.788812 141.997663 66.762549 141.997663 
L 66.762549 141.997663 
z
" clip-path="url(#pb2a8e3acfc)" style="fill: none; stroke: #000000; stroke-width: 2; stroke-linejoin: miter"/>
   </g>
   <g id="patch_5">
    <path d="M 66.762549 226.139962 
C 67.736285 226.139962 68.670271 225.753092 69.358807 225.064556 
C 70.047343 224.37602 70.434213 223.442034 70.434213 222.468298 
C 70.434213 221.494561 70.047343 220.560575 69.358807 219.872039 
C 68.670271 219.183503 67.736285 218.796634 66.762549 218.796634 
C 65.788812 218.796634 64.854826 219.183503 64.16629 219.872039 
C 63.477754 220.560575 63.090885 221.494561 63.090885 222.468298 
C 63.090885 223.442034 63.477754 224.37602 64.16629 225.064556 
C 64.854826 225.753092 65.788812 226.139962 66.762549 226.139962 
L 66.762549 226.139962 
z
" clip-path="url(#pb2a8e3acfc)" style="fill: none; stroke: #000000; stroke-width: 2; stroke-linejoin: miter"/>
   </g>
   <g id="patch_6">
    <path d="M 66.762549 259.796881 
C 67.736285 259.796881 68.670271 259.410011 69.358807 258.721476 
C 70.047343 258.03294 70.434213 257.098954 70.434213 256.125217 
C 70.434213 255.151481 70.047343 254.217494 69.358807 253.528959 
C 68.670271 252.840423 67.736285 252.453553 66.762549 252.453553 
C 65.788812 252.453553 64.854826 252.840423 64.16629 253.528959 
C 63.477754 254.217494 63.090885 255.151481 63.090885 256.125217 
C 63.090885 257.098954 63.477754 258.03294 64.16629 258.721476 
C 64.854826 259.410011 65.788812 259.796881 66.762549 259.796881 
L 66.762549 259.796881 
z
" clip-path="url(#pb2a8e3acfc)" style="fill: none; stroke: #000000; stroke-width: 2; stroke-linejoin: miter"/>
   </g>
   <g id="patch_7">
    <path d="M 66.762549 327.11072 
C 67.736285 327.11072 68.670271 326.723851 69.358807 326.035315 
C 70.047343 325.346779 70.434213 324.412793 70.434213 323.439056 
C 70.434213 322.46532 70.047343 321.531334 69.358807 320.842798 
C 68.670271 320.154262 67.736285 319.767392 66.762549 319.767392 
C 65.788812 319.767392 64.854826 320.154262 64.16629 320.842798 
C 63.477754 321.531334 63.090885 322.46532 63.090885 323.439056 
C 63.090885 324.412793 63.477754 325.346779 64.16629 326.035315 
C 64.854826 326.723851 65.788812 327.11072 66.762549 327.11072 
L 66.762549 327.11072 
z
" clip-path="url(#pb2a8e3acfc)" style="fill: none; stroke: #000000; stroke-width: 2; stroke-linejoin: miter"/>
   </g>
   <g id="line2d_1">
    <path d="M 284.767596 233.25381 
L 301.814607 233.153901 
L 303.563018 232.854174 
L 305.31143 232.354627 
L 307.059841 231.655263 
L 308.808253 230.75608 
L 310.993767 229.351106 
L 313.179281 227.633917 
L 315.364795 225.604511 
L 317.55031 223.262888 
L 319.735824 220.609049 
L 321.484235 218.261183 
L 321.484235 218.261183 
L 318.861618 214.814314 
L 316.676104 212.285362 
L 314.49059 210.068626 
L 312.305075 208.164107 
L 310.119561 206.571804 
L 307.934047 205.291717 
L 306.185635 204.492443 
L 304.437224 203.892988 
L 302.688813 203.493351 
L 300.940401 203.293532 
L 300.066195 203.268555 
L 284.767596 203.268555 
L 284.767596 203.268555 
L 286.970594 205.716331 
L 288.365826 207.552163 
L 289.540759 209.387995 
L 290.495391 211.223827 
L 291.229724 213.059659 
L 291.743757 214.895491 
L 292.03749 216.731323 
L 292.110924 218.567155 
L 291.964057 220.402987 
L 291.596891 222.238819 
L 291.009424 224.074651 
L 290.201658 225.910483 
L 289.173592 227.746315 
L 287.925227 229.582147 
L 286.456561 231.417978 
L 284.767596 233.25381 
L 284.767596 233.25381 
" clip-path="url(#pb2a8e3acfc)" style="fill: none; stroke: #000000; stroke-width: 2; stroke-linecap: round"/>
   </g>
   <g id="line2d_2">
    <path d="M 274.058576 225.910483 
L 290.201658 225.910483 
" clip-path="url(#pb2a8e3acfc)" style="fill: none; stroke: #000000; stroke-width: 2; stroke-linecap: round"/>
   </g>
   <g id="line2d_3">
    <path d="M 274.058576 210.611883 
L 290.201658 210.611883 
" clip-path="url(#pb2a8e3acfc)" style="fill: none; stroke: #000000; stroke-width: 2; stroke-linecap: round"/>
   </g>
   <g id="line2d_4">
    <path d="M 321.484235 218.261183 
L 332.193255 218.261183 
" clip-path="url(#pb2a8e3acfc)" style="fill: none; stroke: #000000; stroke-width: 2; stroke-linecap: round"/>
   </g>
   <g id="line2d_5">
    <path d="M 223.573196 140.697282 
L 240.620208 140.597372 
L 242.368619 140.297645 
L 244.117031 139.798099 
L 245.865442 139.098734 
L 247.613853 138.199551 
L 249.799368 136.794578 
L 251.984882 135.077388 
L 254.170396 133.047982 
L 256.35591 130.706359 
L 258.541425 128.052521 
L 260.289836 125.704654 
L 260.289836 125.704654 
L 257.667219 122.257786 
L 255.481705 119.728833 
L 253.29619 117.512098 
L 251.110676 115.607578 
L 248.925162 114.015275 
L 246.739648 112.735188 
L 244.991236 111.935914 
L 243.242825 111.336459 
L 241.494413 110.936822 
L 239.746002 110.737003 
L 238.871796 110.712026 
L 223.573196 110.712026 
L 223.573196 110.712026 
L 225.776195 113.159802 
L 227.171427 114.995634 
L 228.34636 116.831466 
L 229.300992 118.667298 
L 230.035325 120.50313 
L 230.549358 122.338962 
L 230.843091 124.174794 
L 230.916524 126.010626 
L 230.769658 127.846458 
L 230.402491 129.68229 
L 229.815025 131.518122 
L 229.007259 133.353954 
L 227.979193 135.189786 
L 226.730827 137.025618 
L 225.262162 138.86145 
L 223.573196 140.697282 
L 223.573196 140.697282 
" clip-path="url(#pb2a8e3acfc)" style="fill: none; stroke: #000000; stroke-width: 2; stroke-linecap: round"/>
   </g>
   <g id="line2d_6">
    <path d="M 212.864177 133.353954 
L 229.007259 133.353954 
" clip-path="url(#pb2a8e3acfc)" style="fill: none; stroke: #000000; stroke-width: 2; stroke-linecap: round"/>
   </g>
   <g id="line2d_7">
    <path d="M 212.864177 118.055354 
L 229.007259 118.055354 
" clip-path="url(#pb2a8e3acfc)" style="fill: none; stroke: #000000; stroke-width: 2; stroke-linecap: round"/>
   </g>
   <g id="line2d_8">
    <path d="M 260.289836 125.704654 
L 270.998856 125.704654 
" clip-path="url(#pb2a8e3acfc)" style="fill: none; stroke: #000000; stroke-width: 2; stroke-linecap: round"/>
   </g>
   <g id="line2d_9">
    <path d="M 183.796837 94.724989 
L 184.777022 94.693557 
L 185.753179 94.599388 
L 186.721296 94.44287 
L 187.677397 94.224646 
L 188.617552 93.945614 
L 189.537897 93.606918 
L 190.434651 93.209952 
L 191.304128 92.756346 
L 192.142757 92.247964 
L 192.947091 91.686896 
L 193.713824 91.075446 
L 194.439806 90.416129 
L 195.122054 89.711652 
L 195.757764 88.96491 
L 196.344324 88.178973 
L 196.879324 87.35707 
L 197.360565 86.502578 
L 197.78607 85.619008 
L 198.15409 84.709991 
L 198.463113 83.779263 
L 198.711869 82.830648 
L 198.899336 81.868044 
L 199.024744 80.895407 
L 199.087577 79.916734 
L 199.087577 78.936045 
L 199.024744 77.957372 
L 198.899336 76.984735 
L 198.711869 76.022131 
L 198.463113 75.073516 
L 198.15409 74.142788 
L 197.78607 73.233771 
L 197.360565 72.350201 
L 196.879324 71.495709 
L 196.344324 70.673806 
L 195.757764 69.887869 
L 195.122054 69.141127 
L 194.439806 68.43665 
L 193.713824 67.777333 
L 192.947091 67.165883 
L 192.142757 66.604815 
L 191.304128 66.096433 
L 190.434651 65.642827 
L 189.537897 65.245861 
L 188.617552 64.907165 
L 187.677397 64.628132 
L 186.721296 64.409909 
L 185.753179 64.253391 
L 184.777022 64.159222 
L 183.796837 64.12779 
L 183.796837 64.12779 
L 163.908657 64.12779 
L 163.908657 79.426389 
L 163.908657 94.724989 
L 183.796837 94.724989 
" clip-path="url(#pb2a8e3acfc)" style="fill: none; stroke: #000000; stroke-width: 2; stroke-linecap: round"/>
   </g>
   <g id="line2d_10">
    <path d="M 153.199637 87.075689 
L 163.908657 87.075689 
" clip-path="url(#pb2a8e3acfc)" style="fill: none; stroke: #000000; stroke-width: 2; stroke-linecap: round"/>
   </g>
   <g id="line2d_11">
    <path d="M 153.199637 71.77709 
L 163.908657 71.77709 
" clip-path="url(#pb2a8e3acfc)" style="fill: none; stroke: #000000; stroke-width: 2; stroke-linecap: round"/>
   </g>
   <g id="line2d_12">
    <path d="M 199.095437 79.426389 
L 209.804457 79.426389 
" clip-path="url(#pb2a8e3acfc)" style="fill: none; stroke: #000000; stroke-width: 2; stroke-linecap: round"/>
   </g>
   <g id="line2d_13">
    <path d="M 122.602438 52.65384 
L 123.582622 52.622407 
L 124.558779 52.528239 
L 125.526897 52.371721 
L 126.482998 52.153497 
L 127.423152 51.874464 
L 128.343498 51.535769 
L 129.240251 51.138802 
L 130.109729 50.685196 
L 130.948358 50.176815 
L 131.752691 49.615746 
L 132.519425 49.004297 
L 133.245407 48.344979 
L 133.927655 47.640502 
L 134.563365 46.893761 
L 135.149925 46.107824 
L 135.684925 45.28592 
L 136.166166 44.431428 
L 136.591671 43.547858 
L 136.959691 42.638842 
L 137.268714 41.708114 
L 137.51747 40.759499 
L 137.704937 39.796895 
L 137.830345 38.824258 
L 137.893177 37.845584 
L 137.893177 36.864896 
L 137.830345 35.886222 
L 137.704937 34.913585 
L 137.51747 33.950981 
L 137.268714 33.002366 
L 136.959691 32.071638 
L 136.591671 31.162622 
L 136.166166 30.279052 
L 135.684925 29.42456 
L 135.149925 28.602656 
L 134.563365 27.816719 
L 133.927655 27.069978 
L 133.245407 26.365501 
L 132.519425 25.706183 
L 131.752691 25.094734 
L 130.948358 24.533666 
L 130.109729 24.025284 
L 129.240251 23.571678 
L 128.343498 23.174712 
L 127.423152 22.836016 
L 126.482998 22.556983 
L 125.526897 22.338759 
L 124.558779 22.182242 
L 123.582622 22.088073 
L 122.602438 22.05664 
L 122.602438 22.05664 
L 102.714258 22.05664 
L 102.714258 37.35524 
L 102.714258 52.65384 
L 122.602438 52.65384 
" clip-path="url(#pb2a8e3acfc)" style="fill: none; stroke: #000000; stroke-width: 2; stroke-linecap: round"/>
   </g>
   <g id="line2d_14">
    <path d="M 92.005238 47.452316 
L 102.714258 47.452316 
" clip-path="url(#pb2a8e3acfc)" style="fill: none; stroke: #000000; stroke-width: 2; stroke-linecap: round"/>
   </g>
   <g id="line2d_15">
    <path d="M 92.005238 37.35524 
L 102.714258 37.35524 
" clip-path="url(#pb2a8e3acfc)" style="fill: none; stroke: #000000; stroke-width: 2; stroke-linecap: round"/>
   </g>
   <g id="line2d_16">
    <path d="M 92.005238 27.258164 
L 102.714258 27.258164 
" clip-path="url(#pb2a8e3acfc)" style="fill: none; stroke: #000000; stroke-width: 2; stroke-linecap: round"/>
   </g>
   <g id="line2d_17">
    <path d="M 137.901038 37.35524 
L 148.610057 37.35524 
" clip-path="url(#pb2a8e3acfc)" style="fill: none; stroke: #000000; stroke-width: 2; stroke-linecap: round"/>
   </g>
   <g id="line2d_18">
    <path d="M 26.221259 37.35524 
L 43.202705 37.35524 
M 70.434213 37.35524 
L 87.415658 37.35524 
" clip-path="url(#pb2a8e3acfc)" style="fill: none; stroke: #000000; stroke-width: 2; stroke-linecap: round"/>
   </g>
   <g id="line2d_19">
    <path d="M 43.202705 22.05664 
L 63.090885 37.35524 
L 43.202705 52.65384 
L 43.202705 22.05664 
" clip-path="url(#pb2a8e3acfc)" style="fill: none; stroke: #000000; stroke-width: 2; stroke-linecap: round"/>
   </g>
   <g id="line2d_20">
    <path d="M 92.005238 37.35524 
L 87.415658 37.35524 
L 87.415658 37.35524 
" clip-path="url(#pb2a8e3acfc)" style="fill: none; stroke: #000000; stroke-width: 2; stroke-linecap: round"/>
   </g>
   <g id="line2d_21">
    <path d="M 26.221259 71.01216 
L 43.202705 71.01216 
M 70.434213 71.01216 
L 87.415658 71.01216 
" clip-path="url(#pb2a8e3acfc)" style="fill: none; stroke: #000000; stroke-width: 2; stroke-linecap: round"/>
   </g>
   <g id="line2d_22">
    <path d="M 43.202705 55.71356 
L 63.090885 71.01216 
L 43.202705 86.310759 
L 43.202705 55.71356 
" clip-path="url(#pb2a8e3acfc)" style="fill: none; stroke: #000000; stroke-width: 2; stroke-linecap: round"/>
   </g>
   <g id="line2d_23">
    <path d="M 92.005238 47.452316 
L 87.415658 47.452316 
L 87.415658 71.01216 
" clip-path="url(#pb2a8e3acfc)" style="fill: none; stroke: #000000; stroke-width: 2; stroke-linecap: round"/>
   </g>
   <g id="line2d_24">
    <path d="M 153.199637 71.77709 
L 148.610057 71.77709 
L 148.610057 37.35524 
" clip-path="url(#pb2a8e3acfc)" style="fill: none; stroke: #000000; stroke-width: 2; stroke-linecap: round"/>
   </g>
   <g id="line2d_25">
    <path d="M 101.184398 136.490167 
L 118.231409 136.390258 
L 119.979821 136.09053 
L 121.728232 135.590984 
L 123.476644 134.891619 
L 125.225055 133.992436 
L 127.410569 132.587463 
L 129.596083 130.870273 
L 131.781598 128.840867 
L 133.967112 126.499244 
L 136.152626 123.845406 
L 137.901038 121.497539 
L 137.901038 121.497539 
L 135.278421 118.050671 
L 133.092906 115.521719 
L 130.907392 113.304983 
L 128.721878 111.400463 
L 126.536363 109.80816 
L 124.350849 108.528073 
L 122.602438 107.728799 
L 120.854026 107.129344 
L 119.105615 106.729707 
L 117.357204 106.529888 
L 116.482998 106.504911 
L 101.184398 106.504911 
L 101.184398 106.504911 
L 103.387396 108.952687 
L 104.782629 110.788519 
L 105.957561 112.624351 
L 106.912194 114.460183 
L 107.646527 116.296015 
L 108.16056 118.131847 
L 108.454293 119.967679 
L 108.527726 121.803511 
L 108.380859 123.639343 
L 108.013693 125.475175 
L 107.426227 127.311007 
L 106.618461 129.146839 
L 105.590395 130.982671 
L 104.342029 132.818503 
L 102.873364 134.654335 
L 101.184398 136.490167 
L 101.184398 136.490167 
" clip-path="url(#pb2a8e3acfc)" style="fill: none; stroke: #000000; stroke-width: 2; stroke-linecap: round"/>
   </g>
   <g id="line2d_26">
    <path d="M 90.475378 129.146839 
L 106.618461 129.146839 
" clip-path="url(#pb2a8e3acfc)" style="fill: none; stroke: #000000; stroke-width: 2; stroke-linecap: round"/>
   </g>
   <g id="line2d_27">
    <path d="M 90.475378 113.848239 
L 106.618461 113.848239 
" clip-path="url(#pb2a8e3acfc)" style="fill: none; stroke: #000000; stroke-width: 2; stroke-linecap: round"/>
   </g>
   <g id="line2d_28">
    <path d="M 137.901038 121.497539 
L 148.610057 121.497539 
" clip-path="url(#pb2a8e3acfc)" style="fill: none; stroke: #000000; stroke-width: 2; stroke-linecap: round"/>
   </g>
   <g id="line2d_29">
    <path d="M 26.221259 138.325999 
L 43.202705 138.325999 
M 70.434213 138.325999 
L 87.415658 138.325999 
" clip-path="url(#pb2a8e3acfc)" style="fill: none; stroke: #000000; stroke-width: 2; stroke-linecap: round"/>
   </g>
   <g id="line2d_30">
    <path d="M 43.202705 123.027399 
L 63.090885 138.325999 
L 43.202705 153.624599 
L 43.202705 123.027399 
" clip-path="url(#pb2a8e3acfc)" style="fill: none; stroke: #000000; stroke-width: 2; stroke-linecap: round"/>
   </g>
   <g id="line2d_31">
    <path d="M 90.475378 129.146839 
L 87.415658 129.146839 
L 87.415658 138.325999 
" clip-path="url(#pb2a8e3acfc)" style="fill: none; stroke: #000000; stroke-width: 2; stroke-linecap: round"/>
   </g>
   <g id="line2d_32">
    <path d="M 153.199637 87.075689 
L 148.610057 87.075689 
L 148.610057 121.497539 
" clip-path="url(#pb2a8e3acfc)" style="fill: none; stroke: #000000; stroke-width: 2; stroke-linecap: round"/>
   </g>
   <g id="line2d_33">
    <path d="M 212.864177 118.055354 
L 209.804457 118.055354 
L 209.804457 79.426389 
" clip-path="url(#pb2a8e3acfc)" style="fill: none; stroke: #000000; stroke-width: 2; stroke-linecap: round"/>
   </g>
   <g id="line2d_34">
    <path d="M 183.796837 187.281518 
L 184.777022 187.250085 
L 185.753179 187.155917 
L 186.721296 186.999399 
L 187.677397 186.781175 
L 188.617552 186.502142 
L 189.537897 186.163447 
L 190.434651 185.76648 
L 191.304128 185.312874 
L 192.142757 184.804493 
L 192.947091 184.243425 
L 193.713824 183.631975 
L 194.439806 182.972657 
L 195.122054 182.268181 
L 195.757764 181.521439 
L 196.344324 180.735502 
L 196.879324 179.913599 
L 197.360565 179.059106 
L 197.78607 178.175537 
L 198.15409 177.26652 
L 198.463113 176.335792 
L 198.711869 175.387177 
L 198.899336 174.424573 
L 199.024744 173.451936 
L 199.087577 172.473263 
L 199.087577 171.492574 
L 199.024744 170.5139 
L 198.899336 169.541263 
L 198.711869 168.57866 
L 198.463113 167.630045 
L 198.15409 166.699317 
L 197.78607 165.7903 
L 197.360565 164.90673 
L 196.879324 164.052238 
L 196.344324 163.230334 
L 195.757764 162.444397 
L 195.122054 161.697656 
L 194.439806 160.993179 
L 193.713824 160.333861 
L 192.947091 159.722412 
L 192.142757 159.161344 
L 191.304128 158.652962 
L 190.434651 158.199356 
L 189.537897 157.80239 
L 188.617552 157.463694 
L 187.677397 157.184661 
L 186.721296 156.966438 
L 185.753179 156.80992 
L 184.777022 156.715751 
L 183.796837 156.684318 
L 183.796837 156.684318 
L 163.908657 156.684318 
L 163.908657 171.982918 
L 163.908657 187.281518 
L 183.796837 187.281518 
" clip-path="url(#pb2a8e3acfc)" style="fill: none; stroke: #000000; stroke-width: 2; stroke-linecap: round"/>
   </g>
   <g id="line2d_35">
    <path d="M 153.199637 179.632218 
L 163.908657 179.632218 
" clip-path="url(#pb2a8e3acfc)" style="fill: none; stroke: #000000; stroke-width: 2; stroke-linecap: round"/>
   </g>
   <g id="line2d_36">
    <path d="M 153.199637 164.333618 
L 163.908657 164.333618 
" clip-path="url(#pb2a8e3acfc)" style="fill: none; stroke: #000000; stroke-width: 2; stroke-linecap: round"/>
   </g>
   <g id="line2d_37">
    <path d="M 199.095437 171.982918 
L 209.804457 171.982918 
" clip-path="url(#pb2a8e3acfc)" style="fill: none; stroke: #000000; stroke-width: 2; stroke-linecap: round"/>
   </g>
   <g id="line2d_38">
    <path d="M 212.864177 133.353954 
L 209.804457 133.353954 
L 209.804457 171.982918 
" clip-path="url(#pb2a8e3acfc)" style="fill: none; stroke: #000000; stroke-width: 2; stroke-linecap: round"/>
   </g>
   <g id="line2d_39">
    <path d="M 274.058576 210.611883 
L 270.998856 210.611883 
L 270.998856 125.704654 
" clip-path="url(#pb2a8e3acfc)" style="fill: none; stroke: #000000; stroke-width: 2; stroke-linecap: round"/>
   </g>
   <g id="line2d_40">
    <path d="M 223.573196 325.810339 
L 240.620208 325.71043 
L 242.368619 325.410702 
L 244.117031 324.911156 
L 245.865442 324.211792 
L 247.613853 323.312609 
L 249.799368 321.907635 
L 251.984882 320.190445 
L 254.170396 318.161039 
L 256.35591 315.819417 
L 258.541425 313.165578 
L 260.289836 310.817711 
L 260.289836 310.817711 
L 257.667219 307.370843 
L 255.481705 304.841891 
L 253.29619 302.625155 
L 251.110676 300.720636 
L 248.925162 299.128332 
L 246.739648 297.848245 
L 244.991236 297.048972 
L 243.242825 296.449516 
L 241.494413 296.049879 
L 239.746002 295.850061 
L 238.871796 295.825084 
L 223.573196 295.825084 
L 223.573196 295.825084 
L 225.776195 298.27286 
L 227.171427 300.108692 
L 228.34636 301.944524 
L 229.300992 303.780356 
L 230.035325 305.616188 
L 230.549358 307.452019 
L 230.843091 309.287851 
L 230.916524 311.123683 
L 230.769658 312.959515 
L 230.402491 314.795347 
L 229.815025 316.631179 
L 229.007259 318.467011 
L 227.979193 320.302843 
L 226.730827 322.138675 
L 225.262162 323.974507 
L 223.573196 325.810339 
L 223.573196 325.810339 
" clip-path="url(#pb2a8e3acfc)" style="fill: none; stroke: #000000; stroke-width: 2; stroke-linecap: round"/>
   </g>
   <g id="line2d_41">
    <path d="M 212.864177 318.467011 
L 229.007259 318.467011 
" clip-path="url(#pb2a8e3acfc)" style="fill: none; stroke: #000000; stroke-width: 2; stroke-linecap: round"/>
   </g>
   <g id="line2d_42">
    <path d="M 212.864177 303.168412 
L 229.007259 303.168412 
" clip-path="url(#pb2a8e3acfc)" style="fill: none; stroke: #000000; stroke-width: 2; stroke-linecap: round"/>
   </g>
   <g id="line2d_43">
    <path d="M 260.289836 310.817711 
L 270.998856 310.817711 
" clip-path="url(#pb2a8e3acfc)" style="fill: none; stroke: #000000; stroke-width: 2; stroke-linecap: round"/>
   </g>
   <g id="line2d_44">
    <path d="M 183.796837 279.838047 
L 184.777022 279.806614 
L 185.753179 279.712446 
L 186.721296 279.555928 
L 187.677397 279.337704 
L 188.617552 279.058671 
L 189.537897 278.719976 
L 190.434651 278.323009 
L 191.304128 277.869403 
L 192.142757 277.361022 
L 192.947091 276.799953 
L 193.713824 276.188504 
L 194.439806 275.529186 
L 195.122054 274.824709 
L 195.757764 274.077968 
L 196.344324 273.292031 
L 196.879324 272.470127 
L 197.360565 271.615635 
L 197.78607 270.732065 
L 198.15409 269.823049 
L 198.463113 268.892321 
L 198.711869 267.943706 
L 198.899336 266.981102 
L 199.024744 266.008465 
L 199.087577 265.029791 
L 199.087577 264.049103 
L 199.024744 263.070429 
L 198.899336 262.097792 
L 198.711869 261.135188 
L 198.463113 260.186573 
L 198.15409 259.255845 
L 197.78607 258.346829 
L 197.360565 257.463259 
L 196.879324 256.608767 
L 196.344324 255.786863 
L 195.757764 255.000926 
L 195.122054 254.254185 
L 194.439806 253.549708 
L 193.713824 252.89039 
L 192.947091 252.278941 
L 192.142757 251.717873 
L 191.304128 251.209491 
L 190.434651 250.755885 
L 189.537897 250.358919 
L 188.617552 250.020223 
L 187.677397 249.74119 
L 186.721296 249.522966 
L 185.753179 249.366449 
L 184.777022 249.27228 
L 183.796837 249.240847 
L 183.796837 249.240847 
L 163.908657 249.240847 
L 163.908657 264.539447 
L 163.908657 279.838047 
L 183.796837 279.838047 
" clip-path="url(#pb2a8e3acfc)" style="fill: none; stroke: #000000; stroke-width: 2; stroke-linecap: round"/>
   </g>
   <g id="line2d_45">
    <path d="M 153.199637 272.188747 
L 163.908657 272.188747 
" clip-path="url(#pb2a8e3acfc)" style="fill: none; stroke: #000000; stroke-width: 2; stroke-linecap: round"/>
   </g>
   <g id="line2d_46">
    <path d="M 153.199637 256.890147 
L 163.908657 256.890147 
" clip-path="url(#pb2a8e3acfc)" style="fill: none; stroke: #000000; stroke-width: 2; stroke-linecap: round"/>
   </g>
   <g id="line2d_47">
    <path d="M 199.095437 264.539447 
L 209.804457 264.539447 
" clip-path="url(#pb2a8e3acfc)" style="fill: none; stroke: #000000; stroke-width: 2; stroke-linecap: round"/>
   </g>
   <g id="line2d_48">
    <path d="M 122.602438 237.766897 
L 123.582622 237.735465 
L 124.558779 237.641296 
L 125.526897 237.484778 
L 126.482998 237.266555 
L 127.423152 236.987522 
L 128.343498 236.648826 
L 129.240251 236.25186 
L 130.109729 235.798254 
L 130.948358 235.289872 
L 131.752691 234.728804 
L 132.519425 234.117355 
L 133.245407 233.458037 
L 133.927655 232.75356 
L 134.563365 232.006819 
L 135.149925 231.220881 
L 135.684925 230.398978 
L 136.166166 229.544486 
L 136.591671 228.660916 
L 136.959691 227.751899 
L 137.268714 226.821171 
L 137.51747 225.872556 
L 137.704937 224.909953 
L 137.830345 223.937315 
L 137.893177 222.958642 
L 137.893177 221.977953 
L 137.830345 220.99928 
L 137.704937 220.026643 
L 137.51747 219.064039 
L 137.268714 218.115424 
L 136.959691 217.184696 
L 136.591671 216.275679 
L 136.166166 215.392109 
L 135.684925 214.537617 
L 135.149925 213.715714 
L 134.563365 212.929777 
L 133.927655 212.183035 
L 133.245407 211.478558 
L 132.519425 210.819241 
L 131.752691 210.207791 
L 130.948358 209.646723 
L 130.109729 209.138341 
L 129.240251 208.684735 
L 128.343498 208.287769 
L 127.423152 207.949074 
L 126.482998 207.670041 
L 125.526897 207.451817 
L 124.558779 207.295299 
L 123.582622 207.20113 
L 122.602438 207.169698 
L 122.602438 207.169698 
L 102.714258 207.169698 
L 102.714258 222.468298 
L 102.714258 237.766897 
L 122.602438 237.766897 
" clip-path="url(#pb2a8e3acfc)" style="fill: none; stroke: #000000; stroke-width: 2; stroke-linecap: round"/>
   </g>
   <g id="line2d_49">
    <path d="M 92.005238 232.565373 
L 102.714258 232.565373 
" clip-path="url(#pb2a8e3acfc)" style="fill: none; stroke: #000000; stroke-width: 2; stroke-linecap: round"/>
   </g>
   <g id="line2d_50">
    <path d="M 92.005238 222.468298 
L 102.714258 222.468298 
" clip-path="url(#pb2a8e3acfc)" style="fill: none; stroke: #000000; stroke-width: 2; stroke-linecap: round"/>
   </g>
   <g id="line2d_51">
    <path d="M 92.005238 212.371222 
L 102.714258 212.371222 
" clip-path="url(#pb2a8e3acfc)" style="fill: none; stroke: #000000; stroke-width: 2; stroke-linecap: round"/>
   </g>
   <g id="line2d_52">
    <path d="M 137.901038 222.468298 
L 148.610057 222.468298 
" clip-path="url(#pb2a8e3acfc)" style="fill: none; stroke: #000000; stroke-width: 2; stroke-linecap: round"/>
   </g>
   <g id="line2d_53">
    <path d="M 26.221259 222.468298 
L 43.202705 222.468298 
M 70.434213 222.468298 
L 87.415658 222.468298 
" clip-path="url(#pb2a8e3acfc)" style="fill: none; stroke: #000000; stroke-width: 2; stroke-linecap: round"/>
   </g>
   <g id="line2d_54">
    <path d="M 43.202705 207.169698 
L 63.090885 222.468298 
L 43.202705 237.766897 
L 43.202705 207.169698 
" clip-path="url(#pb2a8e3acfc)" style="fill: none; stroke: #000000; stroke-width: 2; stroke-linecap: round"/>
   </g>
   <g id="line2d_55">
    <path d="M 92.005238 222.468298 
L 87.415658 222.468298 
L 87.415658 222.468298 
" clip-path="url(#pb2a8e3acfc)" style="fill: none; stroke: #000000; stroke-width: 2; stroke-linecap: round"/>
   </g>
   <g id="line2d_56">
    <path d="M 26.221259 256.125217 
L 43.202705 256.125217 
M 70.434213 256.125217 
L 87.415658 256.125217 
" clip-path="url(#pb2a8e3acfc)" style="fill: none; stroke: #000000; stroke-width: 2; stroke-linecap: round"/>
   </g>
   <g id="line2d_57">
    <path d="M 43.202705 240.826617 
L 63.090885 256.125217 
L 43.202705 271.423817 
L 43.202705 240.826617 
" clip-path="url(#pb2a8e3acfc)" style="fill: none; stroke: #000000; stroke-width: 2; stroke-linecap: round"/>
   </g>
   <g id="line2d_58">
    <path d="M 92.005238 232.565373 
L 87.415658 232.565373 
L 87.415658 256.125217 
" clip-path="url(#pb2a8e3acfc)" style="fill: none; stroke: #000000; stroke-width: 2; stroke-linecap: round"/>
   </g>
   <g id="line2d_59">
    <path d="M 153.199637 256.890147 
L 148.610057 256.890147 
L 148.610057 222.468298 
" clip-path="url(#pb2a8e3acfc)" style="fill: none; stroke: #000000; stroke-width: 2; stroke-linecap: round"/>
   </g>
   <g id="line2d_60">
    <path d="M 101.184398 321.603224 
L 118.231409 321.503315 
L 119.979821 321.203587 
L 121.728232 320.704041 
L 123.476644 320.004677 
L 125.225055 319.105494 
L 127.410569 317.70052 
L 129.596083 315.983331 
L 131.781598 313.953924 
L 133.967112 311.612302 
L 136.152626 308.958463 
L 137.901038 306.610597 
L 137.901038 306.610597 
L 135.278421 303.163728 
L 133.092906 300.634776 
L 130.907392 298.41804 
L 128.721878 296.513521 
L 126.536363 294.921217 
L 124.350849 293.64113 
L 122.602438 292.841857 
L 120.854026 292.242401 
L 119.105615 291.842764 
L 117.357204 291.642946 
L 116.482998 291.617969 
L 101.184398 291.617969 
L 101.184398 291.617969 
L 103.387396 294.065745 
L 104.782629 295.901577 
L 105.957561 297.737409 
L 106.912194 299.573241 
L 107.646527 301.409073 
L 108.16056 303.244905 
L 108.454293 305.080737 
L 108.527726 306.916569 
L 108.380859 308.7524 
L 108.013693 310.588232 
L 107.426227 312.424064 
L 106.618461 314.259896 
L 105.590395 316.095728 
L 104.342029 317.93156 
L 102.873364 319.767392 
L 101.184398 321.603224 
L 101.184398 321.603224 
" clip-path="url(#pb2a8e3acfc)" style="fill: none; stroke: #000000; stroke-width: 2; stroke-linecap: round"/>
   </g>
   <g id="line2d_61">
    <path d="M 90.475378 314.259896 
L 106.618461 314.259896 
" clip-path="url(#pb2a8e3acfc)" style="fill: none; stroke: #000000; stroke-width: 2; stroke-linecap: round"/>
   </g>
   <g id="line2d_62">
    <path d="M 90.475378 298.961297 
L 106.618461 298.961297 
" clip-path="url(#pb2a8e3acfc)" style="fill: none; stroke: #000000; stroke-width: 2; stroke-linecap: round"/>
   </g>
   <g id="line2d_63">
    <path d="M 137.901038 306.610597 
L 148.610057 306.610597 
" clip-path="url(#pb2a8e3acfc)" style="fill: none; stroke: #000000; stroke-width: 2; stroke-linecap: round"/>
   </g>
   <g id="line2d_64">
    <path d="M 26.221259 323.439056 
L 43.202705 323.439056 
M 70.434213 323.439056 
L 87.415658 323.439056 
" clip-path="url(#pb2a8e3acfc)" style="fill: none; stroke: #000000; stroke-width: 2; stroke-linecap: round"/>
   </g>
   <g id="line2d_65">
    <path d="M 43.202705 308.140456 
L 63.090885 323.439056 
L 43.202705 338.737656 
L 43.202705 308.140456 
" clip-path="url(#pb2a8e3acfc)" style="fill: none; stroke: #000000; stroke-width: 2; stroke-linecap: round"/>
   </g>
   <g id="line2d_66">
    <path d="M 90.475378 314.259896 
L 87.415658 314.259896 
L 87.415658 323.439056 
" clip-path="url(#pb2a8e3acfc)" style="fill: none; stroke: #000000; stroke-width: 2; stroke-linecap: round"/>
   </g>
   <g id="line2d_67">
    <path d="M 153.199637 272.188747 
L 148.610057 272.188747 
L 148.610057 306.610597 
" clip-path="url(#pb2a8e3acfc)" style="fill: none; stroke: #000000; stroke-width: 2; stroke-linecap: round"/>
   </g>
   <g id="line2d_68">
    <path d="M 212.864177 303.168412 
L 209.804457 303.168412 
L 209.804457 264.539447 
" clip-path="url(#pb2a8e3acfc)" style="fill: none; stroke: #000000; stroke-width: 2; stroke-linecap: round"/>
   </g>
   <g id="line2d_69">
    <path d="M 183.796837 372.394576 
L 184.777022 372.363143 
L 185.753179 372.268974 
L 186.721296 372.112457 
L 187.677397 371.894233 
L 188.617552 371.6152 
L 189.537897 371.276504 
L 190.434651 370.879538 
L 191.304128 370.425932 
L 192.142757 369.91755 
L 192.947091 369.356482 
L 193.713824 368.745033 
L 194.439806 368.085715 
L 195.122054 367.381238 
L 195.757764 366.634497 
L 196.344324 365.84856 
L 196.879324 365.026656 
L 197.360565 364.172164 
L 197.78607 363.288594 
L 198.15409 362.379578 
L 198.463113 361.44885 
L 198.711869 360.500235 
L 198.899336 359.537631 
L 199.024744 358.564994 
L 199.087577 357.58632 
L 199.087577 356.605632 
L 199.024744 355.626958 
L 198.899336 354.654321 
L 198.711869 353.691717 
L 198.463113 352.743102 
L 198.15409 351.812374 
L 197.78607 350.903357 
L 197.360565 350.019788 
L 196.879324 349.165295 
L 196.344324 348.343392 
L 195.757764 347.557455 
L 195.122054 346.810714 
L 194.439806 346.106237 
L 193.713824 345.446919 
L 192.947091 344.83547 
L 192.142757 344.274401 
L 191.304128 343.76602 
L 190.434651 343.312414 
L 189.537897 342.915447 
L 188.617552 342.576752 
L 187.677397 342.297719 
L 186.721296 342.079495 
L 185.753179 341.922977 
L 184.777022 341.828809 
L 183.796837 341.797376 
L 183.796837 341.797376 
L 163.908657 341.797376 
L 163.908657 357.095976 
L 163.908657 372.394576 
L 183.796837 372.394576 
" clip-path="url(#pb2a8e3acfc)" style="fill: none; stroke: #000000; stroke-width: 2; stroke-linecap: round"/>
   </g>
   <g id="line2d_70">
    <path d="M 153.199637 364.745276 
L 163.908657 364.745276 
" clip-path="url(#pb2a8e3acfc)" style="fill: none; stroke: #000000; stroke-width: 2; stroke-linecap: round"/>
   </g>
   <g id="line2d_71">
    <path d="M 153.199637 349.446676 
L 163.908657 349.446676 
" clip-path="url(#pb2a8e3acfc)" style="fill: none; stroke: #000000; stroke-width: 2; stroke-linecap: round"/>
   </g>
   <g id="line2d_72">
    <path d="M 199.095437 357.095976 
L 209.804457 357.095976 
" clip-path="url(#pb2a8e3acfc)" style="fill: none; stroke: #000000; stroke-width: 2; stroke-linecap: round"/>
   </g>
   <g id="line2d_73">
    <path d="M 212.864177 318.467011 
L 209.804457 318.467011 
L 209.804457 357.095976 
" clip-path="url(#pb2a8e3acfc)" style="fill: none; stroke: #000000; stroke-width: 2; stroke-linecap: round"/>
   </g>
   <g id="line2d_74">
    <path d="M 274.058576 225.910483 
L 270.998856 225.910483 
L 270.998856 310.817711 
" clip-path="url(#pb2a8e3acfc)" style="fill: none; stroke: #000000; stroke-width: 2; stroke-linecap: round"/>
   </g>
   <g id="text_1">
    <g clip-path="url(#pb2a8e3acfc)">
     <!-- output -->
     <g transform="translate(335.252975 221.710401) scale(0.125 -0.125)">
      <defs>
       <path id="DejaVuSans-6f" d="M 1959 3097 
Q 1497 3097 1228 2736 
Q 959 2375 959 1747 
Q 959 1119 1226 758 
Q 1494 397 1959 397 
Q 2419 397 2687 759 
Q 2956 1122 2956 1747 
Q 2956 2369 2687 2733 
Q 2419 3097 1959 3097 
z
M 1959 3584 
Q 2709 3584 3137 3096 
Q 3566 2609 3566 1747 
Q 3566 888 3137 398 
Q 2709 -91 1959 -91 
Q 1206 -91 779 398 
Q 353 888 353 1747 
Q 353 2609 779 3096 
Q 1206 3584 1959 3584 
z
" transform="scale(0.015625)"/>
       <path id="DejaVuSans-75" d="M 544 1381 
L 544 3500 
L 1119 3500 
L 1119 1403 
Q 1119 906 1312 657 
Q 1506 409 1894 409 
Q 2359 409 2629 706 
Q 2900 1003 2900 1516 
L 2900 3500 
L 3475 3500 
L 3475 0 
L 2900 0 
L 2900 538 
Q 2691 219 2414 64 
Q 2138 -91 1772 -91 
Q 1169 -91 856 284 
Q 544 659 544 1381 
z
M 1991 3584 
L 1991 3584 
z
" transform="scale(0.015625)"/>
       <path id="DejaVuSans-74" d="M 1172 4494 
L 1172 3500 
L 2356 3500 
L 2356 3053 
L 1172 3053 
L 1172 1153 
Q 1172 725 1289 603 
Q 1406 481 1766 481 
L 2356 481 
L 2356 0 
L 1766 0 
Q 1100 0 847 248 
Q 594 497 594 1153 
L 594 3053 
L 172 3053 
L 172 3500 
L 594 3500 
L 594 4494 
L 1172 4494 
z
" transform="scale(0.015625)"/>
       <path id="DejaVuSans-70" d="M 1159 525 
L 1159 -1331 
L 581 -1331 
L 581 3500 
L 1159 3500 
L 1159 2969 
Q 1341 3281 1617 3432 
Q 1894 3584 2278 3584 
Q 2916 3584 3314 3078 
Q 3713 2572 3713 1747 
Q 3713 922 3314 415 
Q 2916 -91 2278 -91 
Q 1894 -91 1617 61 
Q 1341 213 1159 525 
z
M 3116 1747 
Q 3116 2381 2855 2742 
Q 2594 3103 2138 3103 
Q 1681 3103 1420 2742 
Q 1159 2381 1159 1747 
Q 1159 1113 1420 752 
Q 1681 391 2138 391 
Q 2594 391 2855 752 
Q 3116 1113 3116 1747 
z
" transform="scale(0.015625)"/>
      </defs>
      <use xlink:href="#DejaVuSans-6f"/>
      <use xlink:href="#DejaVuSans-75" x="61.181641"/>
      <use xlink:href="#DejaVuSans-74" x="124.560547"/>
      <use xlink:href="#DejaVuSans-70" x="163.769531"/>
      <use xlink:href="#DejaVuSans-75" x="227.246094"/>
      <use xlink:href="#DejaVuSans-74" x="290.625"/>
     </g>
    </g>
   </g>
   <g id="text_2">
    <g clip-path="url(#pb2a8e3acfc)">
     <!-- a -->
     <g transform="translate(81.285362 30.707383) scale(0.125 -0.125)">
      <defs>
       <path id="DejaVuSans-61" d="M 2194 1759 
Q 1497 1759 1228 1600 
Q 959 1441 959 1056 
Q 959 750 1161 570 
Q 1363 391 1709 391 
Q 2188 391 2477 730 
Q 2766 1069 2766 1631 
L 2766 1759 
L 2194 1759 
z
M 3341 1997 
L 3341 0 
L 2766 0 
L 2766 531 
Q 2569 213 2275 61 
Q 1981 -91 1556 -91 
Q 1019 -91 701 211 
Q 384 513 384 1019 
Q 384 1609 779 1909 
Q 1175 2209 1959 2209 
L 2766 2209 
L 2766 2266 
Q 2766 2663 2505 2880 
Q 2244 3097 1772 3097 
Q 1472 3097 1187 3025 
Q 903 2953 641 2809 
L 641 3341 
Q 956 3463 1253 3523 
Q 1550 3584 1831 3584 
Q 2591 3584 2966 3190 
Q 3341 2797 3341 1997 
z
" transform="scale(0.015625)"/>
      </defs>
      <use xlink:href="#DejaVuSans-61"/>
     </g>
    </g>
   </g>
   <g id="text_3">
    <g clip-path="url(#pb2a8e3acfc)">
     <!-- b -->
     <g transform="translate(15.225992 40.804459) scale(0.125 -0.125)">
      <defs>
       <path id="DejaVuSans-62" d="M 3116 1747 
Q 3116 2381 2855 2742 
Q 2594 3103 2138 3103 
Q 1681 3103 1420 2742 
Q 1159 2381 1159 1747 
Q 1159 1113 1420 752 
Q 1681 391 2138 391 
Q 2594 391 2855 752 
Q 3116 1113 3116 1747 
z
M 1159 2969 
Q 1341 3281 1617 3432 
Q 1894 3584 2278 3584 
Q 2916 3584 3314 3078 
Q 3713 2572 3713 1747 
Q 3713 922 3314 415 
Q 2916 -91 2278 -91 
Q 1894 -91 1617 61 
Q 1341 213 1159 525 
L 1159 0 
L 581 0 
L 581 4863 
L 1159 4863 
L 1159 2969 
z
" transform="scale(0.015625)"/>
      </defs>
      <use xlink:href="#DejaVuSans-62"/>
     </g>
    </g>
   </g>
   <g id="text_4">
    <g clip-path="url(#pb2a8e3acfc)">
     <!-- c -->
     <g transform="translate(16.288492 74.461378) scale(0.125 -0.125)">
      <defs>
       <path id="DejaVuSans-63" d="M 3122 3366 
L 3122 2828 
Q 2878 2963 2633 3030 
Q 2388 3097 2138 3097 
Q 1578 3097 1268 2742 
Q 959 2388 959 1747 
Q 959 1106 1268 751 
Q 1578 397 2138 397 
Q 2388 397 2633 464 
Q 2878 531 3122 666 
L 3122 134 
Q 2881 22 2623 -34 
Q 2366 -91 2075 -91 
Q 1284 -91 818 406 
Q 353 903 353 1747 
Q 353 2603 823 3093 
Q 1294 3584 2113 3584 
Q 2378 3584 2631 3529 
Q 2884 3475 3122 3366 
z
" transform="scale(0.015625)"/>
      </defs>
      <use xlink:href="#DejaVuSans-63"/>
     </g>
    </g>
   </g>
   <g id="text_5">
    <g clip-path="url(#pb2a8e3acfc)">
     <!-- d -->
     <g transform="translate(79.480111 117.297458) scale(0.125 -0.125)">
      <defs>
       <path id="DejaVuSans-64" d="M 2906 2969 
L 2906 4863 
L 3481 4863 
L 3481 0 
L 2906 0 
L 2906 525 
Q 2725 213 2448 61 
Q 2172 -91 1784 -91 
Q 1150 -91 751 415 
Q 353 922 353 1747 
Q 353 2572 751 3078 
Q 1150 3584 1784 3584 
Q 2172 3584 2448 3432 
Q 2725 3281 2906 2969 
z
M 947 1747 
Q 947 1113 1208 752 
Q 1469 391 1925 391 
Q 2381 391 2643 752 
Q 2906 1113 2906 1747 
Q 2906 2381 2643 2742 
Q 2381 3103 1925 3103 
Q 1469 3103 1208 2742 
Q 947 2381 947 1747 
z
" transform="scale(0.015625)"/>
      </defs>
      <use xlink:href="#DejaVuSans-64"/>
     </g>
    </g>
   </g>
   <g id="text_6">
    <g clip-path="url(#pb2a8e3acfc)">
     <!-- d -->
     <g transform="translate(15.225992 141.775217) scale(0.125 -0.125)">
      <use xlink:href="#DejaVuSans-64"/>
     </g>
    </g>
   </g>
   <g id="text_7">
    <g clip-path="url(#pb2a8e3acfc)">
     <!-- e -->
     <g transform="translate(142.448511 167.782837) scale(0.125 -0.125)">
      <defs>
       <path id="DejaVuSans-65" d="M 3597 1894 
L 3597 1613 
L 953 1613 
Q 991 1019 1311 708 
Q 1631 397 2203 397 
Q 2534 397 2845 478 
Q 3156 559 3463 722 
L 3463 178 
Q 3153 47 2828 -22 
Q 2503 -91 2169 -91 
Q 1331 -91 842 396 
Q 353 884 353 1716 
Q 353 2575 817 3079 
Q 1281 3584 2069 3584 
Q 2775 3584 3186 3129 
Q 3597 2675 3597 1894 
z
M 3022 2063 
Q 3016 2534 2758 2815 
Q 2500 3097 2075 3097 
Q 1594 3097 1305 2825 
Q 1016 2553 972 2059 
L 3022 2063 
z
" transform="scale(0.015625)"/>
      </defs>
      <use xlink:href="#DejaVuSans-65"/>
     </g>
    </g>
   </g>
   <g id="text_8">
    <g clip-path="url(#pb2a8e3acfc)">
     <!-- FALSE -->
     <g transform="translate(112.74148 183.081437) scale(0.125 -0.125)">
      <defs>
       <path id="DejaVuSans-46" d="M 628 4666 
L 3309 4666 
L 3309 4134 
L 1259 4134 
L 1259 2759 
L 3109 2759 
L 3109 2228 
L 1259 2228 
L 1259 0 
L 628 0 
L 628 4666 
z
" transform="scale(0.015625)"/>
       <path id="DejaVuSans-41" d="M 2188 4044 
L 1331 1722 
L 3047 1722 
L 2188 4044 
z
M 1831 4666 
L 2547 4666 
L 4325 0 
L 3669 0 
L 3244 1197 
L 1141 1197 
L 716 0 
L 50 0 
L 1831 4666 
z
" transform="scale(0.015625)"/>
       <path id="DejaVuSans-4c" d="M 628 4666 
L 1259 4666 
L 1259 531 
L 3531 531 
L 3531 0 
L 628 0 
L 628 4666 
z
" transform="scale(0.015625)"/>
       <path id="DejaVuSans-53" d="M 3425 4513 
L 3425 3897 
Q 3066 4069 2747 4153 
Q 2428 4238 2131 4238 
Q 1616 4238 1336 4038 
Q 1056 3838 1056 3469 
Q 1056 3159 1242 3001 
Q 1428 2844 1947 2747 
L 2328 2669 
Q 3034 2534 3370 2195 
Q 3706 1856 3706 1288 
Q 3706 609 3251 259 
Q 2797 -91 1919 -91 
Q 1588 -91 1214 -16 
Q 841 59 441 206 
L 441 856 
Q 825 641 1194 531 
Q 1563 422 1919 422 
Q 2459 422 2753 634 
Q 3047 847 3047 1241 
Q 3047 1584 2836 1778 
Q 2625 1972 2144 2069 
L 1759 2144 
Q 1053 2284 737 2584 
Q 422 2884 422 3419 
Q 422 4038 858 4394 
Q 1294 4750 2059 4750 
Q 2388 4750 2728 4690 
Q 3069 4631 3425 4513 
z
" transform="scale(0.015625)"/>
       <path id="DejaVuSans-45" d="M 628 4666 
L 3578 4666 
L 3578 4134 
L 1259 4134 
L 1259 2753 
L 3481 2753 
L 3481 2222 
L 1259 2222 
L 1259 531 
L 3634 531 
L 3634 0 
L 628 0 
L 628 4666 
z
" transform="scale(0.015625)"/>
      </defs>
      <use xlink:href="#DejaVuSans-46"/>
      <use xlink:href="#DejaVuSans-41" x="48.394531"/>
      <use xlink:href="#DejaVuSans-4c" x="116.802734"/>
      <use xlink:href="#DejaVuSans-53" x="172.515625"/>
      <use xlink:href="#DejaVuSans-45" x="235.992188"/>
     </g>
    </g>
   </g>
   <g id="text_9">
    <g clip-path="url(#pb2a8e3acfc)">
     <!-- a -->
     <g transform="translate(81.285362 215.82044) scale(0.125 -0.125)">
      <use xlink:href="#DejaVuSans-61"/>
     </g>
    </g>
   </g>
   <g id="text_10">
    <g clip-path="url(#pb2a8e3acfc)">
     <!-- b -->
     <g transform="translate(15.225992 225.917516) scale(0.125 -0.125)">
      <use xlink:href="#DejaVuSans-62"/>
     </g>
    </g>
   </g>
   <g id="text_11">
    <g clip-path="url(#pb2a8e3acfc)">
     <!-- c -->
     <g transform="translate(16.288492 259.574436) scale(0.125 -0.125)">
      <use xlink:href="#DejaVuSans-63"/>
     </g>
    </g>
   </g>
   <g id="text_12">
    <g clip-path="url(#pb2a8e3acfc)">
     <!-- d -->
     <g transform="translate(79.480111 302.410515) scale(0.125 -0.125)">
      <use xlink:href="#DejaVuSans-64"/>
     </g>
    </g>
   </g>
   <g id="text_13">
    <g clip-path="url(#pb2a8e3acfc)">
     <!-- d -->
     <g transform="translate(15.225992 326.888275) scale(0.125 -0.125)">
      <use xlink:href="#DejaVuSans-64"/>
     </g>
    </g>
   </g>
   <g id="text_14">
    <g clip-path="url(#pb2a8e3acfc)">
     <!-- e -->
     <g transform="translate(142.448511 352.895895) scale(0.125 -0.125)">
      <use xlink:href="#DejaVuSans-65"/>
     </g>
    </g>
   </g>
   <g id="text_15">
    <g clip-path="url(#pb2a8e3acfc)">
     <!-- FALSE -->
     <g transform="translate(112.74148 368.194494) scale(0.125 -0.125)">
      <use xlink:href="#DejaVuSans-46"/>
      <use xlink:href="#DejaVuSans-41" x="48.394531"/>
      <use xlink:href="#DejaVuSans-4c" x="116.802734"/>
      <use xlink:href="#DejaVuSans-53" x="172.515625"/>
      <use xlink:href="#DejaVuSans-45" x="235.992188"/>
     </g>
    </g>
   </g>
  </g>
 </g>
 <defs>
  <clipPath id="pb2a8e3acfc">
   <rect x="7.2" y="7.2" width="377.620438" height="371.484"/>
  </clipPath>
 </defs>
</svg>
