<svg xmlns="http://www.w3.org/2000/svg" xml:lang="en" height="141.412pt" width="267.78999999999996pt" viewBox="-213.302 -10.28 267.78999999999996 141.412"><circle cx="-7.451999999999999" cy="62.370000000000005" r="3.888" style="stroke:black;fill:none;stroke-width:2;" /><circle cx="-72.252" cy="17.82" r="3.888" style="stroke:black;fill:none;stroke-width:2;" /><circle cx="-151.47" cy="35.64" r="3.888" style="stroke:black;fill:none;stroke-width:2;" /><circle cx="-72.252" cy="106.92" r="3.888" style="stroke:black;fill:none;stroke-width:2;" /><circle cx="-151.47" cy="106.92" r="3.888" style="stroke:black;fill:none;stroke-width:2;" /><path d="M -27.540000000000003,78.57000000000001 L -26.502062436312453,78.53671536255544 L -25.468389980711006,78.4369982239366 L -24.44323021503777,78.27125834325527 L -23.43079574066598,78.04017678123228 L -22.435246868017344,77.74470310157284 L -21.46067452095414,77.38605146900555 L -20.51108342629556,76.9656956600192 L -19.59037565753621,76.48536300679892 L -18.70233460038911,75.94702729924782 L -17.85060940604231,75.3529006742609 L -17.038699996013825,74.70542452557999 L -16.26994268022353,74.0072594715832 L -15.547496447379892,73.26127442223334 L -14.874329984017924,72.47053479011149 L -14.25320947552931,71.63828989397915 L -13.686687239313398,70.76795960663051 L -13.177091236757398,69.86312030190153 L -12.726515507143835,68.92749015858278 L -12.336811562793878,67.9649138816252 L -12.009580780806093,66.97934690342274 L -11.746167822654462,65.97483913009229 L -11.547655108685907,64.95551829954074 L -11.41485837022299,63.92557301970445 L -11.348323297548863,62.88923555666082 L -11.348323297548863,61.850764443339195 L -11.41485837022299,60.814426980295565 L -11.547655108685907,59.78448170045927 L -11.746167822654462,58.76516086990772 L -12.009580780806093,57.76065309657728 L -12.336811562793878,56.77508611837482 L -12.726515507143835,55.81250984141723 L -13.177091236757398,54.87687969809848 L -13.686687239313398,53.9720403933695 L -14.25320947552931,53.10171010602086 L -14.874329984017924,52.26946520988852 L -15.547496447379892,51.47872557776668 L -16.269942680223522,50.73274052841682 L -17.038699996013825,50.03457547442003 L -17.850609406042295,49.387099325739115 L -18.70233460038911,48.79297270075219 L -19.59037565753621,48.254636993201096 L -20.51108342629556,47.774304339980816 L -21.46067452095414,47.35394853099445 L -22.435246868017344,46.99529689842717 L -23.43079574066598,46.699823218767726 L -24.44323021503777,46.46874165674475 L -25.468389980710995,46.30300177606342 L -26.502062436312446,46.20328463744456 L -27.540000000000003,46.17000000000001 L -27.540000000000003,46.17000000000001 L -48.599999999999994,46.17000000000001 L -48.599999999999994,62.370000000000005 L -48.599999999999994,78.57000000000001 L -27.540000000000003,78.57000000000001" style="stroke:black;fill:none;stroke-width:2;stroke-linecap:round;stroke-linejoin:round;" /><path d="M -59.94,70.47 L -48.599999999999994,70.47" style="stroke:black;fill:none;stroke-width:2;stroke-linecap:round;stroke-linejoin:round;" /><path d="M -59.94,54.27 L -48.599999999999994,54.27" style="stroke:black;fill:none;stroke-width:2;stroke-linecap:round;stroke-linejoin:round;" /><path d="M -3.564000000000003,62.370000000000005 L 0.0,62.370000000000005" style="stroke:black;fill:none;stroke-width:2;stroke-linecap:round;stroke-linejoin:round;" /><path d="M -92.34,34.02 L -91.30206243631245,33.98671536255545 L -90.26838998071099,33.88699822393659 L -89.24323021503777,33.72125834325526 L -88.23079574066598,33.49017678123228 L -87.23524686801734,33.19470310157283 L -86.26067452095414,32.836051469005554 L -85.31108342629555,32.41569566001919 L -84.39037565753621,31.93536300679891 L -83.5023346003891,31.39702729924782 L -82.6506094060423,30.8029006742609 L -81.83869999601382,30.155424525579978 L -81.06994268022352,29.45725947158319 L -80.34749644737988,28.71127442223333 L -79.67432998401792,27.920534790111482 L -79.0532094755293,27.088289893979148 L -78.4866872393134,26.217959606630505 L -77.9770912367574,25.31312030190153 L -77.52651550714383,24.37749015858278 L -77.13681156279388,23.414913881625186 L -76.80958078080609,22.42934690342273 L -76.54616782265445,21.42483913009229 L -76.3476551086859,20.405518299540745 L -76.21485837022298,19.375573019704444 L -76.14832329754886,18.339235556660814 L -76.14832329754886,17.30076444333919 L -76.21485837022298,16.26442698029556 L -76.3476551086859,15.234481700459261 L -76.54616782265445,14.215160869907708 L -76.80958078080609,13.210653096577277 L -77.13681156279388,12.225086118374819 L -77.52651550714383,11.262509841417222 L -77.9770912367574,10.326879698098471 L -78.4866872393134,9.422040393369496 L -79.0532094755293,8.551710106020856 L -79.67432998401792,7.719465209888519 L -80.34749644737988,6.928725577766673 L -81.0699426802235,6.182740528416816 L -81.83869999601382,5.484575474420027 L -82.65060940604229,4.837099325739104 L -83.5023346003891,4.242972700752185 L -84.39037565753621,3.7046369932010945 L -85.31108342629555,3.224304339980811 L -86.26067452095414,2.8039485309944507 L -87.23524686801734,2.4452968984271695 L -88.23079574066598,2.149823218767726 L -89.24323021503777,1.918741656744743 L -90.26838998071099,1.7530017760634153 L -91.30206243631245,1.6532846374445527 L -92.34,1.6200000000000014 L -92.34,1.6200000000000014 L -113.39999999999999,1.6200000000000014 L -113.39999999999999,17.82 L -113.39999999999999,34.02 L -92.34,34.02" style="stroke:black;fill:none;stroke-width:2;stroke-linecap:round;stroke-linejoin:round;" /><path d="M -124.74,25.92 L -113.39999999999999,25.92" style="stroke:black;fill:none;stroke-width:2;stroke-linecap:round;stroke-linejoin:round;" /><path d="M -124.74,9.72 L -113.39999999999999,9.72" style="stroke:black;fill:none;stroke-width:2;stroke-linecap:round;stroke-linejoin:round;" /><path d="M -68.364,17.82 L -64.8,17.82" style="stroke:black;fill:none;stroke-width:2;stroke-linecap:round;stroke-linejoin:round;" /><path d="M -194.39999999999998,35.64 L -176.418,35.64 M -147.582,35.64 L -129.6,35.64" style="stroke:black;fill:none;stroke-width:2;stroke-linecap:round;stroke-linejoin:round;" /><path d="M -176.418,19.44 L -155.358,35.64 L -176.418,51.84 L -176.418,19.44" style="stroke:black;fill:none;stroke-width:2;stroke-linecap:round;stroke-linejoin:round;" /><path d="M -124.74,25.92 L -129.6,25.92 L -129.6,35.64" style="stroke:black;fill:none;stroke-width:2;stroke-linecap:round;stroke-linejoin:round;" /><path d="M -59.94,54.27 L -64.8,54.27 L -64.8,17.82" style="stroke:black;fill:none;stroke-width:2;stroke-linecap:round;stroke-linejoin:round;" /><path d="M -92.34,123.12 L -91.30206243631245,123.08671536255544 L -90.26838998071099,122.9869982239366 L -89.24323021503777,122.82125834325527 L -88.23079574066598,122.59017678123229 L -87.23524686801734,122.29470310157284 L -86.26067452095414,121.93605146900556 L -85.31108342629555,121.51569566001919 L -84.39037565753621,121.03536300679892 L -83.5023346003891,120.49702729924783 L -82.6506094060423,119.90290067426089 L -81.83869999601382,119.25542452557998 L -81.06994268022352,118.5572594715832 L -80.34749644737988,117.81127442223334 L -79.67432998401792,117.02053479011148 L -79.0532094755293,116.18828989397915 L -78.4866872393134,115.31795960663051 L -77.9770912367574,114.41312030190153 L -77.52651550714383,113.47749015858278 L -77.13681156279388,112.51491388162519 L -76.80958078080609,111.52934690342273 L -76.54616782265445,110.52483913009229 L -76.3476551086859,109.50551829954074 L -76.21485837022298,108.47557301970446 L -76.14832329754886,107.43923555666082 L -76.14832329754886,106.40076444333918 L -76.21485837022298,105.36442698029556 L -76.3476551086859,104.33448170045926 L -76.54616782265445,103.31516086990771 L -76.80958078080609,102.31065309657728 L -77.13681156279388,101.32508611837483 L -77.52651550714383,100.36250984141722 L -77.9770912367574,99.42687969809847 L -78.4866872393134,98.5220403933695 L -79.0532094755293,97.65171010602086 L -79.67432998401792,96.81946520988852 L -80.34749644737988,96.02872557776668 L -81.0699426802235,95.28274052841682 L -81.83869999601382,94.58457547442002 L -82.65060940604229,93.93709932573911 L -83.5023346003891,93.34297270075218 L -84.39037565753621,92.8046369932011 L -85.31108342629555,92.32430433998081 L -86.26067452095414,91.90394853099446 L -87.23524686801734,91.54529689842717 L -88.23079574066598,91.24982321876773 L -89.24323021503777,91.01874165674475 L -90.26838998071099,90.85300177606342 L -91.30206243631245,90.75328463744457 L -92.34,90.72 L -92.34,90.72 L -113.39999999999999,90.72 L -113.39999999999999,106.92 L -113.39999999999999,123.12 L -92.34,123.12" style="stroke:black;fill:none;stroke-width:2;stroke-linecap:round;stroke-linejoin:round;" /><path d="M -124.74,117.61200000000001 L -113.39999999999999,117.61200000000001" style="stroke:black;fill:none;stroke-width:2;stroke-linecap:round;stroke-linejoin:round;" /><path d="M -124.74,106.92 L -113.39999999999999,106.92" style="stroke:black;fill:none;stroke-width:2;stroke-linecap:round;stroke-linejoin:round;" /><path d="M -124.74,96.22800000000001 L -113.39999999999999,96.22800000000001" style="stroke:black;fill:none;stroke-width:2;stroke-linecap:round;stroke-linejoin:round;" /><path d="M -68.364,106.92 L -64.8,106.92" style="stroke:black;fill:none;stroke-width:2;stroke-linecap:round;stroke-linejoin:round;" /><path d="M -194.39999999999998,106.92 L -176.418,106.92 M -147.582,106.92 L -129.6,106.92" style="stroke:black;fill:none;stroke-width:2;stroke-linecap:round;stroke-linejoin:round;" /><path d="M -176.418,90.72 L -155.358,106.92 L -176.418,123.12 L -176.418,90.72" style="stroke:black;fill:none;stroke-width:2;stroke-linecap:round;stroke-linejoin:round;" /><path d="M -124.74,106.92 L -129.6,106.92 L -129.6,106.92" style="stroke:black;fill:none;stroke-width:2;stroke-linecap:round;stroke-linejoin:round;" /><path d="M -59.94,70.47 L -64.8,70.47 L -64.8,106.92" style="stroke:black;fill:none;stroke-width:2;stroke-linecap:round;stroke-linejoin:round;" /><text x="3.240000000000003" y="54.67" fill="black" font-size="14" font-family="sans-serif" text-anchor="start" transform="rotate(0 3.240000000000003 60.27)"><tspan x="3.240000000000003" dy="11.200000000000001">output</tspan></text><text x="-127.98" y="2.0200000000000014" fill="black" font-size="14" font-family="sans-serif" text-anchor="end" transform="rotate(0 -127.98 7.620000000000001)"><tspan x="-127.98" dy="11.200000000000001">a</tspan></text><text x="-197.64" y="27.939999999999998" fill="black" font-size="14" font-family="sans-serif" text-anchor="end" transform="rotate(0 -197.64 33.54)"><tspan x="-197.64" dy="11.200000000000001">b</tspan></text><text x="-127.98" y="88.52799999999999" fill="black" font-size="14" font-family="sans-serif" text-anchor="end" transform="rotate(0 -127.98 94.128)"><tspan x="-127.98" dy="11.200000000000001">a</tspan></text><text x="-127.98" y="109.91199999999999" fill="black" font-size="14" font-family="sans-serif" text-anchor="end" transform="rotate(0 -127.98 115.512)"><tspan x="-127.98" dy="11.200000000000001">c</tspan></text><text x="-197.64" y="99.22" fill="black" font-size="14" font-family="sans-serif" text-anchor="end" transform="rotate(0 -197.64 104.82000000000001)"><tspan x="-197.64" dy="11.200000000000001">b</tspan></text></svg>